<svg width="130" height="49" viewBox="0 0 130 49" fill="none" xmlns="http://www.w3.org/2000/svg">
<path d="M118.325 0.576478C119.015 0.57648 119.675 0.858802 120.151 1.35771L126.666 8.18262C127.115 8.65205 127.365 9.27606 127.365 9.92498V14.0753C127.365 14.7331 127.108 15.365 126.649 15.8362L102.834 40.2826C102.72 40.4004 102.655 40.5585 102.655 40.723V43.688C102.655 44.0365 102.938 44.3189 103.286 44.3189H126.734C127.082 44.3189 127.365 44.6014 127.365 44.9498V48.3146C127.365 48.6631 127.082 48.9455 126.734 48.9455H100.552C99.1578 48.9455 98.0275 47.8156 98.0275 46.4219V39.6113C98.0275 38.9537 98.2844 38.322 98.7434 37.8507L122.558 13.4044C122.673 13.2866 122.737 13.1285 122.737 12.9641V11.0204C122.737 10.8582 122.675 10.7022 122.563 10.5848L117.611 5.39839C117.492 5.27368 117.327 5.20311 117.155 5.20308H107.233C107.066 5.20308 106.905 5.26962 106.787 5.38792L100.788 11.3854C100.541 11.6318 100.142 11.6318 99.8953 11.3854L97.5153 9.00595C97.269 8.75956 97.2692 8.36018 97.5155 8.11381L104.315 1.31561C104.789 0.842371 105.431 0.576499 106.1 0.576478H118.325ZM83.3201 0.576478C87.967 0.576478 91.7343 4.34266 91.7343 8.98849V40.5316L91.7316 40.7489C91.6182 45.2222 88.0116 48.8275 83.5372 48.9409L83.3201 48.9436H72.9762L72.7591 48.9409C68.2847 48.8275 64.6781 45.2222 64.5647 40.7489L64.562 40.5316V8.98849C64.562 4.3427 68.3293 0.57653 72.9762 0.576478H83.3201ZM52.3026 0C52.651 3.30462e-05 52.9337 0.282507 52.9337 0.630901V21.1508C52.9337 21.4992 53.2162 21.7817 53.5648 21.7817H58.0954C58.444 21.7817 58.7265 22.0643 58.7265 22.4126V25.7774C58.7265 26.1258 58.444 26.4083 58.0954 26.4083H53.5648C53.2162 26.4083 52.9337 26.6907 52.9337 27.0392V48.3125C52.9337 48.661 52.6512 48.9434 52.3026 48.9434H48.937C48.5884 48.9434 48.3059 48.661 48.3059 48.3125V27.0392C48.3059 26.6909 48.0232 26.4083 47.6748 26.4083H31.7616C31.5946 26.4083 31.4343 26.342 31.3159 26.224L25.8211 20.745C25.5746 20.4991 25.574 20.1 25.8195 19.8533L45.3983 0.185861C45.5168 0.0669252 45.6779 2.54743e-05 45.8456 0H52.3026ZM2.91904 15.5368C3.08326 15.3729 3.3493 15.3729 3.51353 15.5368L16.8295 28.8242L21.9415 23.7377C22.1058 23.5743 22.3715 23.5743 22.5356 23.7381L25.1552 26.3521C25.3201 26.5166 25.3197 26.7839 25.1545 26.9481L21.3767 30.7036V33.4247L33.3597 45.3822C33.5244 45.5464 33.5244 45.8133 33.3597 45.9776L30.7399 48.5918C30.5756 48.7556 30.3097 48.7556 30.1454 48.5918L16.8295 35.3044L3.51353 48.5918C3.3493 48.7556 3.08326 48.7556 2.91904 48.5918L0.299243 45.9776C0.134613 45.8133 0.134642 45.5464 0.299243 45.3822L12.2822 33.4247V30.7036L0.299243 18.7463C0.134642 18.582 0.134615 18.3152 0.299243 18.1509L2.91904 15.5368ZM69.1898 37.8011V40.5316C69.1898 42.6222 70.8851 44.317 72.9762 44.317H83.3201C85.4112 44.317 87.1065 42.6222 87.1065 40.5316V19.8892L69.1898 37.8011ZM72.9762 5.20308C70.8851 5.20315 69.1898 6.8979 69.1898 8.98849V31.2582L87.1065 13.3463V8.98849C87.1065 6.89787 85.4112 5.20308 83.3201 5.20308H72.9762ZM47.7413 4.62661C47.5913 4.62663 47.4472 4.68659 47.3414 4.79296L32.3607 19.8412C32.115 20.0879 32.1158 20.487 32.3624 20.7329L33.2293 21.5974C33.3475 21.7154 33.508 21.7817 33.675 21.7817H47.6748C48.0234 21.7817 48.3059 21.4992 48.3059 21.1508V5.19076C48.3059 4.8792 48.053 4.62661 47.7413 4.62661Z" fill="black"/>
</svg>
