<?xml version="1.0" encoding="UTF-8"?>
<svg id="Layer_1" data-name="Layer 1" xmlns="http://www.w3.org/2000/svg" viewBox="0 0 589.22 457.57">
  <defs>
    <style>
      .cls-1 {
        fill-rule: evenodd;
      }
    </style>
  </defs>
  <path class="cls-1" d="M69.84,302.46H0L174.63,0l139.68,241.96,116.51-.12c49.71,0,90.64-40.89,90.64-90.59s-40.93-90.63-90.64-90.63h-90.8v154.28l-60.61-104.99V0h151.41c83.17,0,151.25,68.04,151.25,151.25s-64.76,147.84-145.1,151.08l-157.57.12-104.78-181.47-104.78,181.47Z"/>
  <g>
    <path d="M0,342.36h8.35v106.98h91.8v8.23H0v-115.21Z"/>
    <path d="M250.37,399.97c0-9.05-7.51-16.46-16.69-16.46h-69.27l2.5-8.23h66.76c13.85,0,25.04,11.03,25.04,24.69v57.6h-75.11c-13.85,0-25.04-10.2-25.04-23.86s11.18-23.86,25.04-23.86h66.76v-9.88ZM250.37,449.34v-31.27h-66.76c-9.18,0-16.69,6.58-16.69,15.63s7.51,15.63,16.69,15.63h66.76Z"/>
    <path d="M400.6,375.28c13.85,0,25.04,11.03,25.04,24.69v32.92c0,13.66-11.18,24.69-25.04,24.69h-75.11v-115.21h8.35v32.92h66.77ZM417.29,399.97c0-9.05-7.51-16.46-16.69-16.46h-66.77v65.83h66.77c9.18,0,16.69-7.41,16.69-16.46v-32.92Z"/>
    <path d="M510.27,383.51c-8.18,0-14.52,6.42-14.52,14.48s6.34,14.32,14.52,14.32h55.92c12.68,0,23.03,10.2,23.03,22.71s-10.35,22.55-23.03,22.55h-73.78l-2.5-8.23h76.11c8.18,0,14.69-6.25,14.69-14.32s-6.51-14.48-14.69-14.48h-55.75c-12.69,0-22.87-10.04-22.87-22.55s10.18-22.71,22.87-22.71h72.27l2.5,8.23h-74.78Z"/>
  </g>
</svg>