<?xml version="1.0" encoding="UTF-8"?>
<!-- Generated by Pixelmator Pro 3.5.6 -->
<svg width="1250" height="252" viewBox="0 0 1250 252" xmlns="http://www.w3.org/2000/svg">
    <g id="Group">
        <path id="Path" fill="#ffffff" stroke="none" d="M 74.490997 125.054016 C 73.920013 135.130981 81.654999 143.794983 91.72699 144.372009 C 92.082001 144.390015 92.43399 144.401978 92.781006 144.401978 C 102.470001 144.401978 110.493011 136.817993 111.045013 127.130981 C 111.618011 117.054993 103.888 108.390015 93.808014 107.817993 C 83.670013 107.226013 75.065002 115.020996 74.490997 125.054016 Z"/>
        <path id="path1" fill="#ffffff" stroke="none" d="M 6.251007 120.377991 C 2.990997 120.190979 0.191986 122.685974 0.010986 125.948975 C -0.178009 129.208984 2.31601 132.008972 5.576996 132.19397 C 8.839996 132.379028 11.638 129.882996 11.825012 126.622986 C 12.006012 123.356018 9.514008 120.562988 6.251007 120.377991 Z"/>
        <path id="path2" fill="#ffffff" stroke="none" d="M 73.32901 18.843994 C 76.244995 17.375 77.421997 13.81604 75.950989 10.895996 C 74.47699 7.980957 70.921997 6.803955 68 8.276978 C 65.084991 9.745972 63.911011 13.304993 65.381989 16.221985 C 66.852997 19.141968 70.40799 20.312988 73.32901 18.843994 Z"/>
        <path id="path3" fill="#ffffff" stroke="none" d="M 91.898987 51.22699 C 96.411987 48.955994 98.225006 43.45697 95.951996 38.947998 C 93.678986 34.438965 88.178986 32.624023 83.669006 34.89502 C 79.160004 37.166992 77.343994 42.666016 79.618988 47.176025 C 81.891998 51.687012 87.389008 53.502991 91.898987 51.22699 Z"/>
        <path id="path4" fill="#ffffff" stroke="none" d="M 29.414001 73.492981 C 32.894012 75.775024 37.562012 74.80603 39.843994 71.325012 C 42.122986 67.848999 41.153015 63.179993 37.674988 60.901001 C 34.192993 58.619019 29.528015 59.590027 27.246002 63.06897 C 24.963989 66.546021 25.937012 71.215027 29.414001 73.492981 Z"/>
        <path id="path5" fill="#ffffff" stroke="none" d="M 40.540009 117.080994 C 35.5 116.79303 31.179993 120.64801 30.889008 125.690979 C 30.60199 130.736023 34.459015 135.052979 39.5 135.343994 C 44.544006 135.630005 48.868011 131.773987 49.153015 126.731018 C 49.438995 121.685974 45.584015 117.36499 40.540009 117.080994 Z"/>
        <path id="path6" fill="#ffffff" stroke="none" d="M 30.412994 178.528015 C 26.700012 180.39801 25.207001 184.929016 27.079987 188.642029 C 28.950012 192.356995 33.480988 193.848022 37.191986 191.978027 C 40.906006 190.103027 42.401001 185.577026 40.527008 181.859985 C 38.657013 178.148987 34.130005 176.653015 30.412994 178.528015 Z"/>
        <path id="path7" fill="#ffffff" stroke="none" d="M 65.937012 98.190002 C 70.907013 101.450012 77.578003 100.062988 80.833008 95.091003 C 84.092987 90.125977 82.705994 83.455017 77.737 80.200012 C 72.768005 76.937988 66.100006 78.327026 62.84201 83.291992 C 59.580994 88.263977 60.968994 94.932007 65.937012 98.190002 Z"/>
        <path id="path8" fill="#ffffff" stroke="none" d="M 178.65802 50.5 C 182.882019 53.268982 188.549988 52.088989 191.31897 47.864014 C 194.090027 43.643982 192.914001 37.974976 188.689026 35.203003 C 184.468018 32.432007 178.796021 33.609009 176.026978 37.837036 C 173.255981 42.057007 174.437012 47.729004 178.65802 50.5 Z"/>
        <path id="path9" fill="#ffffff" stroke="none" d="M 197.419983 18.223022 C 200.148987 20.015991 203.820984 19.250977 205.612976 16.52002 C 207.401978 13.786011 206.640015 10.119019 203.90802 8.325989 C 201.179016 6.531982 197.51001 7.297974 195.713989 10.028015 C 193.921021 12.763 194.687012 16.428955 197.419983 18.223022 Z"/>
        <path id="path10" fill="#ffffff" stroke="none" d="M 180.096985 107.630005 C 169.960022 107.041016 161.348999 114.833984 160.781006 124.862976 C 160.208008 134.942017 167.939026 143.606995 178.013977 144.18103 C 178.36499 144.200012 178.718994 144.210022 179.067993 144.210022 C 188.757019 144.210022 196.778992 136.627014 197.328979 126.947021 C 197.607971 122.062012 195.966003 117.362976 192.710999 113.718994 C 189.460999 110.067017 184.97699 107.906006 180.096985 107.630005 Z"/>
        <path id="path11" fill="#ffffff" stroke="none" d="M 97.912994 96.922974 C 101.040985 103.132019 107.308014 106.994019 114.27301 106.994019 C 117.104004 106.994019 119.950012 106.314026 122.496002 105.03302 C 131.51001 100.48999 135.14801 89.460022 130.605988 80.445984 C 127.473999 74.231995 121.209015 70.375 114.246002 70.375 C 111.415009 70.375 108.569 71.054993 106.02301 72.333008 C 97.01001 76.875977 93.371002 87.903992 97.912994 96.922974 Z"/>
        <path id="path12" fill="#ffffff" stroke="none" d="M 241.409973 73.473999 C 245.120972 71.60199 246.619019 67.073975 244.745972 63.356018 C 242.872009 59.640991 238.344971 58.150024 234.630981 60.021973 C 230.916016 61.892029 229.421021 66.421997 231.294983 70.135986 C 233.169006 73.848999 237.692993 75.34198 241.409973 73.473999 Z"/>
        <path id="path13" fill="#ffffff" stroke="none" d="M 194.984985 79.304993 C 189.674988 81.978027 187.544006 88.447998 190.216003 93.754028 C 192.890991 99.060974 199.359009 101.192017 204.666016 98.520996 C 209.971008 95.846008 212.106995 89.375977 209.434998 84.06897 C 206.76001 78.763977 200.289001 76.627991 194.984985 79.304993 Z"/>
        <path id="path14" fill="#ffffff" stroke="none" d="M 135.225006 15.463989 C 139.377014 15.700012 142.934998 12.526978 143.171997 8.370972 C 143.406982 4.219971 140.232971 0.660034 136.080994 0.424988 C 131.927002 0.188965 128.367004 3.364014 128.131012 7.518005 C 127.897003 11.670044 131.070007 15.228027 135.225006 15.463989 Z"/>
        <path id="path15" fill="#ffffff" stroke="none" d="M 135.139008 62.849976 C 141.070984 63.187012 146.155029 58.650024 146.492981 52.71698 C 146.830017 46.783997 142.29303 41.697021 136.358002 41.362 C 130.428986 41.025024 125.346008 45.559998 125.006989 51.494995 C 124.670013 57.426025 129.207001 62.51001 135.139008 62.849976 Z"/>
        <path id="path16" fill="#ffffff" stroke="none" d="M 76.838989 172.697021 C 82.14801 170.021973 84.282013 163.552002 81.610992 158.247009 C 78.934998 152.942017 72.463989 150.804016 67.160004 153.481995 C 61.854004 156.155029 59.718994 162.619995 62.391998 167.929016 C 65.066986 173.234009 71.533997 175.367981 76.838989 172.697021 Z"/>
        <path id="path17" fill="#ffffff" stroke="none" d="M 142.094971 78.549011 C 136.55899 86.98999 138.921997 98.359009 147.362 103.89502 C 150.35498 105.857971 153.820007 106.895996 157.385986 106.895996 C 163.588989 106.895996 169.310974 103.80603 172.710999 98.627991 C 178.244019 90.184998 175.880981 78.812012 167.440979 73.281982 C 164.447998 71.31897 160.984009 70.278992 157.41803 70.278992 C 151.216003 70.278992 145.491028 73.370972 142.094971 78.549011 Z"/>
        <path id="path18" fill="#ffffff" stroke="none" d="M 173.914978 155.078979 C 170.783997 148.862976 164.513977 145.005005 157.554993 145.005005 C 154.721008 145.005005 151.874023 145.679993 149.328003 146.966003 C 144.963013 149.166016 141.71698 152.934998 140.185974 157.58197 C 138.651001 162.223022 139.018005 167.182983 141.221985 171.552979 C 144.349976 177.763977 150.617981 181.624023 157.575012 181.624023 C 160.411987 181.624023 163.255005 180.947021 165.80603 179.663025 C 174.81897 175.122986 178.45697 164.091003 173.914978 155.078979 Z"/>
        <path id="path19" fill="#ffffff" stroke="none" d="M 205.885986 153.807007 C 200.921021 150.552002 194.247009 151.939026 190.989014 156.903992 C 187.72998 161.872986 189.120972 168.544983 194.086975 171.802002 C 199.057007 175.059021 205.723999 173.674988 208.984009 168.703003 C 212.242981 163.737 210.859009 157.065002 205.885986 153.807007 Z"/>
        <path id="path20" fill="#ffffff" stroke="none" d="M 240.932983 126.309998 C 241.223022 121.267029 237.364014 116.942993 232.317993 116.655029 C 227.278015 116.369019 222.958008 120.223022 222.669006 125.270996 C 222.380005 130.310974 226.237 134.632996 231.28302 134.921021 C 236.322998 135.208984 240.64801 131.348022 240.932983 126.309998 Z"/>
        <path id="path21" fill="#ffffff" stroke="none" d="M 266.247986 119.804016 C 262.981018 119.620972 260.189026 122.112976 260 125.377014 C 259.815002 128.638977 262.309021 131.437988 265.575012 131.622009 C 268.835999 131.807007 271.632019 129.312988 271.817017 126.049011 C 272.005981 122.784973 269.510986 119.987976 266.247986 119.804016 Z"/>
        <path id="path22" fill="#ffffff" stroke="none" d="M 242.411011 178.502991 C 238.929993 176.221008 234.258972 177.192993 231.984009 180.671021 C 229.702026 184.14801 230.671997 188.81897 234.151001 191.099976 C 237.627991 193.380981 242.294006 192.411011 244.580994 188.929993 C 246.856995 185.448975 245.890991 180.784973 242.411011 178.502991 Z"/>
        <path id="path23" fill="#ffffff" stroke="none" d="M 74.407013 233.776978 C 71.674988 231.982971 68.006012 232.747009 66.213989 235.479004 C 64.42099 238.213989 65.183014 241.880005 67.916992 243.672974 C 70.648987 245.46698 74.317993 244.700012 76.106995 241.969971 C 77.902008 239.234009 77.139008 235.567993 74.407013 233.776978 Z"/>
        <path id="path24" fill="#ffffff" stroke="none" d="M 198.494019 233.156006 C 195.578979 234.622009 194.405029 238.179993 195.877014 241.10199 C 197.344971 244.017029 200.901978 245.190979 203.823975 243.718994 C 206.739014 242.247986 207.916992 238.692993 206.445007 235.776001 C 204.974976 232.857971 201.414978 231.684998 198.494019 233.156006 Z"/>
        <path id="path25" fill="#ffffff" stroke="none" d="M 129.731995 173.445984 C 132.411987 169.356995 133.342987 164.468994 132.346985 159.684021 C 131.350006 154.898987 128.550995 150.784973 124.462006 148.104004 C 121.468994 146.140991 118.001007 145.101013 114.43399 145.101013 C 108.237 145.101013 102.509003 148.190979 99.113007 153.372009 C 96.432007 157.460999 95.502991 162.349976 96.502014 167.135986 C 97.494995 171.921021 100.296997 176.034973 104.38501 178.716003 C 107.378998 180.679016 110.843994 181.715027 114.410004 181.715027 C 120.609009 181.716003 126.334991 178.625 129.731995 173.445984 Z"/>
        <path id="path26" fill="#ffffff" stroke="none" d="M 93.165009 201.5 C 88.941986 198.729004 83.274994 199.908997 80.503998 204.130981 C 77.733002 208.356018 78.911011 214.02301 83.13501 216.794983 C 87.359009 219.564026 93.029999 218.385986 95.799011 214.161987 C 98.571014 209.935974 97.386993 204.268982 93.165009 201.5 Z"/>
        <path id="path27" fill="#ffffff" stroke="none" d="M 135.826996 236.53302 C 131.674988 236.296021 128.115997 239.471985 127.878998 243.624023 C 127.641998 247.780029 130.815002 251.335999 134.970001 251.575012 C 139.122009 251.809021 142.684021 248.633972 142.91803 244.47998 C 143.151978 240.328003 139.979004 236.767029 135.826996 236.53302 Z"/>
        <path id="path28" fill="#ffffff" stroke="none" d="M 135.910004 189.148987 C 129.980988 188.814026 124.894012 193.346985 124.558014 199.280029 C 124.221008 205.211975 128.755005 210.297974 134.687988 210.632996 C 140.624023 210.973022 145.70697 206.434998 146.041992 200.502991 C 146.382996 194.570007 141.844971 189.484985 135.910004 189.148987 Z"/>
        <path id="path29" fill="#ffffff" stroke="none" d="M 179.921997 200.768005 C 175.414978 203.044006 173.599976 208.539001 175.875977 213.052002 C 178.14502 217.565002 183.64502 219.374023 188.156006 217.10199 C 192.66803 214.830994 194.478027 209.33197 192.208008 204.820984 C 189.934998 200.309998 184.437988 198.495972 179.921997 200.768005 Z"/>
        <path id="path30" fill="#ffffff" stroke="none" d="M 381.861023 82.76001 C 399.580017 82.76001 411.987 92.505981 411.987 110.58197 L 435.202026 110.58197 C 435.202026 78.859009 411.807983 63.617004 381.505981 63.617004 C 344.289978 63.617004 322.66803 83.822021 322.66803 126.531006 C 322.66803 170.30603 344.289978 189.445007 381.505981 189.445007 C 412.166016 189.445007 435.202026 174.557983 435.202026 142.835022 L 412.872986 142.835022 C 412.872986 160.557007 400.64502 170.30603 381.861023 170.30603 C 357.224976 170.30603 345.885986 156.656982 345.885986 128.304016 L 345.885986 124.758972 C 345.885986 96.937012 357.403992 82.76001 381.861023 82.76001 Z"/>
        <path id="path31" fill="#ffffff" stroke="none" d="M 496.573975 65.745972 L 449.254028 187.31897 L 472.64801 187.31897 L 482.393982 160.914001 L 538.044983 160.914001 L 547.966003 187.31897 L 572.422974 187.31897 L 525.106018 65.745972 L 496.573975 65.745972 Z M 489.484009 141.773987 L 501.890991 108.455017 C 504.370972 101.898987 508.802002 87.718994 509.687988 85.23999 L 510.573975 85.23999 C 511.45697 87.719971 515.892029 102.075989 518.370972 108.455017 L 530.775024 141.773987 L 489.484009 141.773987 Z"/>
        <path id="path32" fill="#ffffff" stroke="none" d="M 698.98999 102.606018 C 698.98999 80.101013 686.055054 65.744995 659.293945 65.744995 L 595.142029 65.744995 L 595.142029 187.317993 L 617.825989 187.317993 L 617.825989 140.353027 L 655.572998 140.353027 L 678.609009 187.317993 L 703.42395 187.317993 L 677.370972 136.810974 C 691.728027 131.138977 698.98999 119.090027 698.98999 102.606018 Z M 657.521973 121.213989 L 617.825989 121.213989 L 617.825989 85.062988 L 657.521973 85.062988 C 669.75 85.062988 676.130005 91.619019 676.130005 102.606018 C 676.130005 114.127991 669.218994 121.213989 657.521973 121.213989 Z"/>
        <path id="path33" fill="#ffffff" stroke="none" d="M 778.579956 65.745972 L 730.021973 65.745972 L 730.021973 187.31897 L 778.579956 187.31897 C 815.265015 187.31897 837.597046 168.179993 837.597046 126.53302 C 837.597046 84.885986 815.265015 65.745972 778.579956 65.745972 Z M 814.379028 128.304016 C 814.203003 154.888 801.619019 168 778.579956 168 L 752.706055 168 L 752.706055 85.064026 L 778.579956 85.064026 C 801.619019 85.064026 814.379028 98.179016 814.379028 124.76001 L 814.379028 128.304016 Z"/>
        <path id="path34" fill="#ffffff" stroke="none" d="M 896.979004 65.745972 L 849.661987 187.31897 L 873.052979 187.31897 L 882.802002 160.914001 L 938.449951 160.914001 L 948.375 187.31897 L 972.832031 187.31897 L 925.511963 65.745972 L 896.979004 65.745972 Z M 889.889038 141.773987 L 902.296021 108.455017 C 904.779053 101.898987 909.207031 87.718994 910.095947 85.23999 L 910.979004 85.23999 C 911.86499 87.719971 916.296997 102.075989 918.779053 108.455017 L 931.182983 141.773987 L 889.889038 141.773987 Z"/>
        <path id="path35" fill="#ffffff" stroke="none" d="M 1076.537964 138.049988 C 1076.537964 140.354004 1076.890015 146.557007 1076.890015 147.622986 L 1076.006958 147.974976 C 1075.475952 147.268005 1071.93103 141.064026 1069.979004 138.229004 L 1017.168945 65.744995 L 995.546997 65.744995 L 995.546997 187.317993 L 1017.348022 187.317993 L 1017.348022 114.47998 C 1017.348022 111.468994 1016.98999 105.620972 1016.98999 104.734985 L 1017.879028 104.203979 C 1018.410034 104.911011 1021.06604 110.052979 1023.900024 114.129028 L 1077.067993 187.320007 L 1098.334961 187.320007 L 1098.334961 65.745972 L 1076.536987 65.745972 L 1076.536987 138.049988 Z"/>
        <path id="path36" fill="#ffffff" stroke="none" d="M 1188.682007 63.617981 C 1150.579956 63.617981 1127.541016 83.822998 1127.541016 126.531982 C 1127.541016 169.241028 1150.579956 189.445984 1188.682007 189.445984 C 1226.784058 189.445984 1250 169.241028 1250 126.531982 C 1250 83.822998 1226.785034 63.617981 1188.682007 63.617981 Z M 1226.785034 128.47998 C 1226.785034 156.30603 1213.494019 170.30603 1188.682983 170.30603 C 1164.050049 170.30603 1150.76001 156.304993 1150.76001 128.47998 L 1150.76001 124.758972 C 1150.76001 96.937012 1164.227051 82.76001 1188.682983 82.76001 C 1213.31604 82.76001 1226.785034 96.937012 1226.785034 124.758972 L 1226.785034 128.47998 Z"/>
    </g>
</svg>
