<?xml version="1.0" encoding="UTF-8"?>
<!-- Generated by Pixelmator Pro 3.5.7 -->
<svg width="8333" height="5000" viewBox="0 0 8333 5000" xmlns="http://www.w3.org/2000/svg">
    <g id="Layer-1">
        <linearGradient id="linearGradient1" x1="5851.487421" y1="4591.666667" x2="2481.845912" y2="4591.666667" gradientUnits="userSpaceOnUse">
            <stop offset="0" stop-color="#ff5553" stop-opacity="1"/>
            <stop offset="0.037222" stop-color="#ff5553" stop-opacity="1"/>
            <stop offset="0.2845" stop-color="#8a8a8a" stop-opacity="1"/>
            <stop offset="1" stop-color="#0033ad" stop-opacity="1"/>
        </linearGradient>
        <path id="Path" fill="none" stroke="url(#linearGradient1)" stroke-width="354.542297" d="M 2659.117188 2499.999756 C 2659.117188 3650.592773 3334.070557 4583.333984 4166.666504 4583.333984 C 4999.263184 4583.333984 5674.216309 3650.592773 5674.216309 2499.999756 C 5674.216309 1349.406738 4999.263184 416.666504 4166.666504 416.666504 C 3334.070557 416.666504 2659.117188 1349.406738 2659.117188 2499.999756 Z"/>
        <linearGradient id="linearGradient2" x1="2808.707305" y1="750.195462" x2="5524.626028" y2="750.195462" gradientUnits="userSpaceOnUse">
            <stop offset="0" stop-color="#ff5553" stop-opacity="1"/>
            <stop offset="0.037222" stop-color="#ff5553" stop-opacity="1"/>
            <stop offset="0.2845" stop-color="#8a8a8a" stop-opacity="1"/>
            <stop offset="1" stop-color="#0033ad" stop-opacity="1"/>
        </linearGradient>
        <path id="path1" fill="none" stroke="url(#linearGradient2)" stroke-width="354.542297" d="M 5347.35498 2499.999756 C 5347.35498 1538.21167 4818.742676 758.52832 4166.666504 758.52832 C 3514.590088 758.52832 2985.97876 1538.21167 2985.97876 2499.999756 C 2985.97876 3461.787598 3514.590088 4241.471191 4166.666504 4241.471191 C 4818.742676 4241.471191 5347.35498 3461.787598 5347.35498 2499.999756 Z"/>
        <linearGradient id="linearGradient3" x1="6671.597574" y1="3469.026092" x2="3753.402426" y2="5153.846847" gradientUnits="userSpaceOnUse">
            <stop offset="0" stop-color="#ff5553" stop-opacity="1"/>
            <stop offset="0.037222" stop-color="#ff5553" stop-opacity="1"/>
            <stop offset="0.2845" stop-color="#8a8a8a" stop-opacity="1"/>
            <stop offset="1" stop-color="#0033ad" stop-opacity="1"/>
        </linearGradient>
        <path id="path2" fill="none" stroke="url(#linearGradient3)" stroke-width="354.542297" d="M 2861.09082 3253.774658 C 3436.386719 4250.217285 4487.283203 4720.518555 5208.333008 4304.219238 C 5929.382813 3887.920898 6047.540039 2742.668457 5472.242676 1746.225586 C 4896.945801 749.782227 3846.049561 279.481934 3124.999756 695.780273 C 2403.949707 1112.078613 2285.793701 2257.332031 2861.09082 3253.774658 Z"/>
        <linearGradient id="linearGradient4" x1="2115.737093" y1="1663.604499" x2="4467.791702" y2="305.645137" gradientUnits="userSpaceOnUse">
            <stop offset="0" stop-color="#ff5553" stop-opacity="1"/>
            <stop offset="0.037222" stop-color="#ff5553" stop-opacity="1"/>
            <stop offset="0.2845" stop-color="#8a8a8a" stop-opacity="1"/>
            <stop offset="1" stop-color="#0033ad" stop-opacity="1"/>
        </linearGradient>
        <path id="path3" fill="none" stroke="url(#linearGradient4)" stroke-width="354.542297" d="M 5189.172852 1909.655518 C 4708.279297 1076.7229 3860.645264 665.803711 3295.930664 991.841309 C 2731.217041 1317.879883 2663.266602 2257.411377 3144.160645 3090.34375 C 3625.054688 3923.276367 4472.6875 4334.196777 5037.401855 4008.157959 C 5602.116699 3682.120605 5670.066895 2742.589111 5189.172852 1909.655518 Z"/>
        <linearGradient id="linearGradient5" x1="6820.513514" y1="2086.735759" x2="5135.692759" y2="5004.930908" gradientUnits="userSpaceOnUse">
            <stop offset="0" stop-color="#ff5553" stop-opacity="1"/>
            <stop offset="0.037222" stop-color="#ff5553" stop-opacity="1"/>
            <stop offset="0.2845" stop-color="#8a8a8a" stop-opacity="1"/>
            <stop offset="1" stop-color="#0033ad" stop-opacity="1"/>
        </linearGradient>
        <path id="path4" fill="none" stroke="url(#linearGradient5)" stroke-width="354.542297" d="M 3412.892334 3805.576172 C 4409.334961 4380.873047 5554.587402 4262.716309 5970.885742 3541.666504 C 6387.184082 2820.616455 5916.883789 1769.720215 4920.441406 1194.424072 C 3923.998779 619.126953 2778.745117 737.283203 2362.446777 1458.333008 C 1946.148315 2179.383057 2416.44873 3230.279297 3412.892334 3805.576172 Z"/>
        <linearGradient id="linearGradient6" x1="1972.311804" y1="2801.125035" x2="3330.271166" y2="449.070426" gradientUnits="userSpaceOnUse">
            <stop offset="0" stop-color="#ff5553" stop-opacity="1"/>
            <stop offset="0.037222" stop-color="#ff5553" stop-opacity="1"/>
            <stop offset="0.2845" stop-color="#8a8a8a" stop-opacity="1"/>
            <stop offset="1" stop-color="#0033ad" stop-opacity="1"/>
        </linearGradient>
        <path id="path5" fill="none" stroke="url(#linearGradient6)" stroke-width="354.542297" d="M 4757.010742 1477.493896 C 3924.078125 996.600098 2984.546631 1064.549561 2658.508057 1629.263916 C 2332.470459 2193.978516 2743.389648 3041.612305 3576.322021 3522.506348 C 4409.255859 4003.400391 5348.787109 3935.449951 5674.824707 3370.735352 C 6000.863281 2806.020752 5589.942871 1958.387939 4757.010742 1477.493896 Z"/>
        <linearGradient id="linearGradient7" x1="6258.333333" y1="815.179245" x2="6258.333333" y2="4184.820755" gradientUnits="userSpaceOnUse">
            <stop offset="0" stop-color="#ff5553" stop-opacity="1"/>
            <stop offset="0.037222" stop-color="#ff5553" stop-opacity="1"/>
            <stop offset="0.2845" stop-color="#8a8a8a" stop-opacity="1"/>
            <stop offset="1" stop-color="#0033ad" stop-opacity="1"/>
        </linearGradient>
        <path id="path6" fill="none" stroke="url(#linearGradient7)" stroke-width="354.542297" d="M 4166.666504 4007.549805 C 5317.260254 4007.549805 6249.999512 3332.59668 6249.999512 2499.999756 C 6249.999512 1667.402832 5317.260254 992.450684 4166.666504 992.450684 C 3016.073242 992.450684 2083.333008 1667.402832 2083.333008 2499.999756 C 2083.333008 3332.59668 3016.073242 4007.549805 4166.666504 4007.549805 Z"/>
        <linearGradient id="linearGradient8" x1="2416.862128" y1="3857.959362" x2="2416.862128" y2="1142.040638" gradientUnits="userSpaceOnUse">
            <stop offset="0" stop-color="#ff5553" stop-opacity="1"/>
            <stop offset="0.037222" stop-color="#ff5553" stop-opacity="1"/>
            <stop offset="0.2845" stop-color="#8a8a8a" stop-opacity="1"/>
            <stop offset="1" stop-color="#0033ad" stop-opacity="1"/>
        </linearGradient>
        <path id="path7" fill="none" stroke="url(#linearGradient8)" stroke-width="354.542297" d="M 4166.666504 1319.312256 C 3204.878418 1319.312256 2425.195068 1847.923584 2425.195068 2499.999756 C 2425.195068 3152.075928 3204.878418 3680.687988 4166.666504 3680.687988 C 5128.454102 3680.687988 5908.137695 3152.075928 5908.137695 2499.999756 C 5908.137695 1847.923584 5128.454102 1319.312256 4166.666504 1319.312256 Z"/>
        <linearGradient id="linearGradient9" x1="5135.692759" y1="-4.930908" x2="6820.513514" y2="2913.264241" gradientUnits="userSpaceOnUse">
            <stop offset="0" stop-color="#ff5553" stop-opacity="1"/>
            <stop offset="0.037222" stop-color="#ff5553" stop-opacity="1"/>
            <stop offset="0.2845" stop-color="#8a8a8a" stop-opacity="1"/>
            <stop offset="1" stop-color="#0033ad" stop-opacity="1"/>
        </linearGradient>
        <path id="path8" fill="none" stroke="url(#linearGradient9)" stroke-width="354.542297" d="M 4920.441406 3805.576172 C 5916.883789 3230.279297 6387.184082 2179.383057 5970.885742 1458.333008 C 5554.587402 737.283203 4409.334961 619.126953 3412.892334 1194.424072 C 2416.44873 1769.720215 1946.148315 2820.616455 2362.446777 3541.666504 C 2778.745117 4262.716309 3923.998779 4380.873047 4920.441406 3805.576172 Z"/>
        <linearGradient id="linearGradient10" x1="3330.271166" y1="4550.929574" x2="1972.311804" y2="2198.874964" gradientUnits="userSpaceOnUse">
            <stop offset="0" stop-color="#ff5553" stop-opacity="1"/>
            <stop offset="0.037222" stop-color="#ff5553" stop-opacity="1"/>
            <stop offset="0.2845" stop-color="#8a8a8a" stop-opacity="1"/>
            <stop offset="1" stop-color="#0033ad" stop-opacity="1"/>
        </linearGradient>
        <path id="path9" fill="none" stroke="url(#linearGradient10)" stroke-width="354.542297" d="M 3576.322021 1477.493896 C 2743.389648 1958.387939 2332.470459 2806.020752 2658.508057 3370.735352 C 2984.546631 3935.449951 3924.078125 4003.400391 4757.010742 3522.506348 C 5589.942871 3041.612305 6000.863281 2193.978516 5674.824707 1629.263916 C 5348.787109 1064.549561 4409.255859 996.600098 3576.322021 1477.493896 Z"/>
        <linearGradient id="linearGradient11" x1="4467.791702" y1="4694.354863" x2="2115.737093" y2="3336.395501" gradientUnits="userSpaceOnUse">
            <stop offset="0" stop-color="#ff5553" stop-opacity="1"/>
            <stop offset="0.037222" stop-color="#ff5553" stop-opacity="1"/>
            <stop offset="0.2845" stop-color="#8a8a8a" stop-opacity="1"/>
            <stop offset="1" stop-color="#0033ad" stop-opacity="1"/>
        </linearGradient>
        <path id="path10" fill="none" stroke="url(#linearGradient11)" stroke-width="354.542297" d="M 3144.160645 1909.655518 C 2663.266602 2742.589111 2731.217041 3682.120605 3295.930664 4008.157959 C 3860.645264 4334.196777 4708.279297 3923.276367 5189.172852 3090.34375 C 5670.066895 2257.411377 5602.116699 1317.879883 5037.401855 991.841309 C 4472.6875 665.803711 3625.054688 1076.7229 3144.160645 1909.655518 Z"/>
        <linearGradient id="linearGradient12" x1="3753.402426" y1="-153.846847" x2="6671.597574" y2="1530.973908" gradientUnits="userSpaceOnUse">
            <stop offset="0" stop-color="#ff5553" stop-opacity="1"/>
            <stop offset="0.037222" stop-color="#ff5553" stop-opacity="1"/>
            <stop offset="0.2845" stop-color="#8a8a8a" stop-opacity="1"/>
            <stop offset="1" stop-color="#0033ad" stop-opacity="1"/>
        </linearGradient>
        <path id="path11" fill="none" stroke="url(#linearGradient12)" stroke-width="354.542297" d="M 5472.242676 3253.774658 C 6047.540039 2257.332031 5929.382813 1112.078613 5208.333008 695.780273 C 4487.283203 279.481934 3436.386719 749.782227 2861.09082 1746.225586 C 2285.793701 2742.668457 2403.949707 3887.920898 3124.999756 4304.219238 C 3846.049561 4720.518555 4896.945801 4250.217285 5472.242676 3253.774658 Z"/>
    </g>
</svg>
