<svg xmlns="http://www.w3.org/2000/svg" xmlns:xlink="http://www.w3.org/1999/xlink" width="1337" height="555" viewBox="0 0 1337 555">
    <defs>
        <path id="prefix__a" d="M0 0H1441V555H0z"/>
    </defs>
    <g fill="none" fill-rule="evenodd" transform="translate(-52)">
        <mask id="prefix__b" fill="#fff">
            <use xlink:href="#prefix__a"/>
        </mask>
        <path fill="#0033AD" d="M680.063 1117.952c1.177-19.842 18.886-35.015 39.564-33.894 20.686 1.121 36.48 18.14 35.312 37.982-1.16 19.86-18.886 35.015-39.573 33.902-20.686-1.13-36.49-18.13-35.303-37.99zm-303.311-39.303c8.783-12.928 26.765-16.542 40.156-8.062 13.391 8.488 17.126 25.822 8.325 38.767-8.766 12.91-26.748 16.55-40.139 8.054-13.382-8.472-17.126-25.823-8.342-38.759zm651.194-10.647c14.305-6.961 31.74-1.402 38.948 12.395 7.21 13.813 1.435 30.64-12.835 37.601-14.332 6.961-31.757 1.402-38.949-12.395-7.208-13.813-1.46-30.657 12.836-37.601zM936.74 912.66c22.217-10.805 49.27-2.182 60.448 19.277 11.161 21.45 2.256 47.607-19.944 58.395-22.183 10.813-49.253 2.206-60.414-19.253-11.196-21.458-2.256-47.59 19.91-58.42zm-488.363 14.974c13.635-20.07 41.512-25.682 62.298-12.501 20.768 13.163 26.583 40.129 12.957 60.215-13.626 20.094-41.528 25.69-62.315 12.534-20.777-13.189-26.566-40.154-12.94-60.248zm216.71-22.601c1.643-28.66 26.462-50.568 55.395-48.949 28.942 1.629 51.085 26.205 49.432 54.873-1.643 28.668-26.437 50.594-55.396 48.957-28.95-1.628-51.067-26.213-49.432-54.881zM201.611 804.858c18.513-8.945 41.057-1.804 50.366 15.926 9.326 17.764 1.88 39.415-16.607 48.36-18.478 8.937-41.031 1.813-50.349-15.934-9.318-17.756-1.897-39.415 16.59-48.352zm990.539 12.404c11.32-16.617 34.591-21.27 51.909-10.361 17.326 10.9 22.138 33.2 10.81 49.834-11.39 16.634-34.618 21.263-51.926 10.37-17.327-10.91-22.157-33.226-10.793-49.843zM825.967 645c34.2 0 65.026 18.542 80.417 48.42 22.329 43.315 4.44 96.338-39.87 118.144-12.522 6.189-26.5 9.436-40.443 9.436-34.2 0-65.017-18.542-80.392-48.402-10.83-21.001-12.634-44.842-5.098-67.14 7.535-22.34 23.49-40.45 44.943-51.03 12.513-6.172 26.517-9.428 40.443-9.428zm-210.92 0c17.537 0 34.581 4.986 49.285 14.432 20.096 12.889 33.854 32.663 38.752 55.668 4.899 22.996.33 46.501-12.857 66.148C673.54 806.144 645.407 821 614.933 821c-17.53 0-34.556-4.977-49.268-14.424-20.096-12.88-33.854-32.654-38.744-55.65-4.907-23.014-.338-46.527 12.831-66.166 16.697-24.904 44.847-39.76 75.294-39.76zm-232.17 39.58c25.889-12.932 57.458-2.618 70.505 23.024 13.03 25.641 2.625 56.9-23.272 69.832-25.889 12.906-57.44 2.6-70.488-23.042-13.04-25.65-2.625-56.9 23.255-69.815zm609.721 16.895c15.89-23.99 48.46-30.7 72.68-14.962 24.265 15.755 31.013 47.99 15.115 71.99-15.897 24.033-48.442 30.717-72.689 14.979-24.22-15.747-31.004-47.99-15.106-72.007zm-147.45-152.471c2.792-48.211 45.128-85.686 94.966-82.853 24.009 1.323 46.049 11.711 62.034 29.265 16.003 17.52 24.087 40.104 22.699 63.595-2.698 46.54-42.145 82.989-89.772 82.989-1.717 0-3.46-.05-5.187-.144-49.543-2.748-87.56-44.412-84.74-92.852zm-429.002-.003c2.81-48.238 45.124-85.69 94.957-82.85 49.556 2.756 87.568 44.406 84.75 92.838C593.138 605.54 553.695 642 506.065 642c-1.718 0-3.443-.06-5.187-.144-49.52-2.773-87.542-44.422-84.732-92.855zm-212.072 4.021c1.415-23.994 22.678-42.325 47.482-40.95 24.813 1.351 43.777 21.897 42.37 45.883-1.405 23.994-22.669 42.326-47.49 40.975-24.796-1.393-43.776-21.922-42.362-45.908zm943-2.976c1.423-23.998 22.667-42.334 47.477-40.975 24.81 1.367 43.797 21.926 42.374 45.907-1.397 23.965-22.675 42.318-47.477 40.95-24.818-1.375-43.788-21.91-42.374-45.882zM52.05 552.41c.9-15.44 14.612-27.248 30.59-26.363 15.996.884 28.213 14.095 27.313 29.543-.907 15.422-14.629 27.248-30.624 26.363-15.978-.868-28.213-14.112-27.279-29.543zm1278.998-.005c.925-15.441 14.61-27.236 30.61-26.36 16.001.86 28.233 14.107 27.291 29.549-.899 15.433-14.6 27.244-30.576 26.36-16.01-.86-28.241-14.107-27.325-29.549zM614.926 287c34.247 0 65.058 18.534 80.455 48.405 22.336 43.326 4.44 96.334-39.885 118.175-12.517 6.156-26.509 9.42-40.43 9.42-34.247 0-65.067-18.56-80.446-48.405-22.337-43.343-4.442-96.351 39.875-118.184 12.526-6.147 26.51-9.411 40.431-9.411zm211.138 0c17.542 0 34.59 4.994 49.303 14.44 41.513 26.565 53.138 81.246 25.914 121.819C884.572 448.136 856.42 463 825.926 463c-17.542 0-34.59-4.986-49.312-14.431-41.495-26.616-53.12-81.247-25.888-121.828C767.418 301.864 795.58 287 826.064 287zm-465.45 62.47c15.898-23.99 48.425-30.7 72.672-14.945 24.246 15.739 31.012 47.974 15.105 71.973-15.88 24.034-48.432 30.726-72.679 14.98-24.247-15.747-31.012-47.974-15.097-72.007zm650.263-18.895c25.887-12.923 57.454-2.617 70.501 23.024 13.039 25.641 2.625 56.908-23.253 69.831-25.905 12.915-57.455 2.609-70.502-23.032-13.038-25.641-2.633-56.908 23.254-69.823zM186.14 251.266c11.364-16.637 34.591-21.267 51.935-10.364 17.3 10.895 22.13 33.216 10.793 49.828-11.364 16.63-34.6 21.275-51.935 10.372-17.3-10.903-22.148-33.215-10.793-49.836zm1019.486-12.41c18.493-8.937 41.025-1.813 50.36 15.943 9.316 17.764 1.861 39.407-16.615 48.352-18.501 8.929-41.025 1.796-50.342-15.951-9.334-17.748-1.897-39.407 16.597-48.344zm-539.54-41.808c1.652-28.683 26.446-50.599 55.371-48.962 28.96 1.62 51.085 26.194 49.459 54.869-1.661 28.657-26.464 50.573-55.397 48.962-28.95-1.646-51.077-26.212-49.433-54.87zM463.761 117.65c22.172-10.79 49.238-2.173 60.415 19.28 11.186 21.444 2.256 47.603-19.933 58.4-22.19 10.824-49.23 2.182-60.415-19.254-11.195-21.452-2.256-47.62 19.933-58.426zm453.62 15.006c13.618-20.1 41.523-25.704 62.293-12.524 20.787 13.187 26.577 40.141 12.95 60.207-13.627 20.092-41.515 25.704-62.302 12.542-20.78-13.18-26.577-40.141-12.942-60.225zM386.937-9.995c14.316-6.968 31.736-1.402 38.954 12.392 7.21 13.81 1.444 30.641-12.837 37.6-14.316 6.96-31.744 1.41-38.945-12.4-7.21-13.802-1.453-30.641 12.828-37.592zm628.817 8.639c8.79-12.927 26.78-16.54 40.152-8.045 13.39 8.47 17.115 25.813 8.35 38.756-8.783 12.928-26.771 16.533-40.152 8.062-13.39-8.487-17.142-25.837-8.35-38.773zM682.06-14.048c1.185-19.855 18.898-35.023 39.578-33.893 20.671 1.13 36.47 18.144 35.301 37.982-1.177 19.855-18.889 35.022-39.569 33.9-20.671-1.13-36.47-18.143-35.31-37.99z" mask="url(#prefix__b)"/>
    </g>
</svg>
