<?xml version="1.0" encoding="iso-8859-1"?>
<!-- Generator: Adobe Illustrator 24.1.2, SVG Export Plug-In . SVG Version: 6.00 Build 0)  -->
<svg version="1.1" id="Layer_1" xmlns="http://www.w3.org/2000/svg" xmlns:xlink="http://www.w3.org/1999/xlink" x="0px" y="0px"
	 width="2000px" height="1200px" viewBox="0 0 2000 1200" enable-background="new 0 0 2000 1200" xml:space="preserve">
<radialGradient id="SVGID_1_" cx="-4335.3599" cy="-547.5466" r="821.7238" gradientTransform="matrix(-1.888745e-16 -1.0822 1.0174 -1.967014e-16 1557.0531 -4091.657)" gradientUnits="userSpaceOnUse">
	<stop  offset="0.4308" style="stop-color:#FFB2B2;stop-opacity:0"/>
	<stop  offset="0.5213" style="stop-color:#FF9897;stop-opacity:0.1591"/>
	<stop  offset="0.6458" style="stop-color:#FF7B79;stop-opacity:0.3778"/>
	<stop  offset="0.7687" style="stop-color:#FF6664;stop-opacity:0.5937"/>
	<stop  offset="0.8881" style="stop-color:#FF5957;stop-opacity:0.8035"/>
	<stop  offset="1" style="stop-color:#FF5553"/>
</radialGradient>
<polygon fill="url(#SVGID_1_)" points="2028.185,-20.791 2028.185,1220.791 -28.185,1220.791 -28.185,-20.791 "/>
<rect x="-17.878" y="-20.791" fill="#FF5553" width="2046.063" height="1248.771"/>
<g>
	<circle fill="#FF5553" cx="999.792" cy="599.812" r="398.656"/>
	<circle fill="#FF5553" cx="1002.263" cy="597.392" r="394.854"/>
	<circle fill="#FF5654" cx="1004.733" cy="594.971" r="391.053"/>
	<circle fill="#FF5654" cx="1007.204" cy="592.551" r="387.252"/>
	<circle fill="#FF5654" cx="1009.674" cy="590.13" r="383.45"/>
	<circle fill="#FF5755" cx="1012.144" cy="587.709" r="379.649"/>
	<circle fill="#FF5755" cx="1014.615" cy="585.289" r="375.847"/>
	<circle fill="#FF5755" cx="1017.085" cy="582.868" r="372.046"/>
	<circle fill="#FF5856" cx="1019.556" cy="580.448" r="368.245"/>
	<circle fill="#FF5856" cx="1022.026" cy="578.027" r="364.443"/>
	<circle fill="#FF5856" cx="1024.496" cy="575.607" r="360.642"/>
	<circle fill="#FF5957" cx="1026.967" cy="573.186" r="356.84"/>
	<circle fill="#FF5957" cx="1029.437" cy="570.766" r="353.039"/>
	<circle fill="#FF5957" cx="1031.907" cy="568.345" r="349.238"/>
	<circle fill="#FF5A58" cx="1034.378" cy="565.924" r="345.436"/>
	<circle fill="#FF5A58" cx="1036.848" cy="563.504" r="341.635"/>
	<circle fill="#FF5A58" cx="1039.319" cy="561.083" r="337.834"/>
	<circle fill="#FF5B59" cx="1041.789" cy="558.663" r="334.032"/>
	<circle fill="#FF5B59" cx="1044.26" cy="556.242" r="330.231"/>
	<circle fill="#FF5B59" cx="1046.73" cy="553.822" r="326.429"/>
	<circle fill="#FF5C5A" cx="1049.2" cy="551.401" r="322.628"/>
	<circle fill="#FF5C5A" cx="1051.671" cy="548.98" r="318.827"/>
	<circle fill="#FF5C5A" cx="1054.141" cy="546.56" r="315.025"/>
	<circle fill="#FF5D5B" cx="1056.611" cy="544.139" r="311.224"/>
	<circle fill="#FF5D5B" cx="1059.082" cy="541.719" r="307.422"/>
	<circle fill="#FF5D5C" cx="1061.552" cy="539.298" r="303.621"/>
	<circle fill="#FF5E5C" cx="1064.023" cy="536.878" r="299.82"/>
	<circle fill="#FF5E5C" cx="1066.493" cy="534.457" r="296.018"/>
	<circle fill="#FF5E5D" cx="1068.963" cy="532.037" r="292.217"/>
	<circle fill="#FF5F5D" cx="1071.434" cy="529.616" r="288.416"/>
	<circle fill="#FF5F5D" cx="1073.904" cy="527.195" r="284.614"/>
	<circle fill="#FF5F5E" cx="1076.375" cy="524.775" r="280.813"/>
	<circle fill="#FF605E" cx="1078.845" cy="522.354" r="277.011"/>
	<circle fill="#FF605E" cx="1081.315" cy="519.934" r="273.21"/>
	<circle fill="#FF605F" cx="1083.786" cy="517.513" r="269.409"/>
	<circle fill="#FF615F" cx="1086.256" cy="515.093" r="265.607"/>
	<circle fill="#FF615F" cx="1088.726" cy="512.672" r="261.806"/>
	<circle fill="#FF6160" cx="1091.197" cy="510.252" r="258.004"/>
	<circle fill="#FF6260" cx="1093.667" cy="507.831" r="254.203"/>
	<circle fill="#FF6260" cx="1096.138" cy="505.41" r="250.402"/>
	<circle fill="#FF6261" cx="1098.608" cy="502.99" r="246.6"/>
	<circle fill="#FF6361" cx="1101.078" cy="500.569" r="242.799"/>
	<circle fill="#FF6361" cx="1103.549" cy="498.149" r="238.998"/>
	<circle fill="#FF6362" cx="1106.019" cy="495.728" r="235.196"/>
	<circle fill="#FF6462" cx="1108.49" cy="493.308" r="231.395"/>
	<circle fill="#FF6462" cx="1110.96" cy="490.887" r="227.593"/>
	<circle fill="#FF6463" cx="1113.43" cy="488.467" r="223.792"/>
	<circle fill="#FF6563" cx="1115.901" cy="486.046" r="219.991"/>
	<circle fill="#FF6563" cx="1118.371" cy="483.625" r="216.189"/>
	<circle fill="#FF6564" cx="1120.841" cy="481.205" r="212.388"/>
	<circle fill="#FF6664" cx="1123.312" cy="478.784" r="208.586"/>
	<circle fill="#FF6664" cx="1125.782" cy="476.364" r="204.785"/>
	<circle fill="#FF6765" cx="1128.253" cy="473.943" r="200.984"/>
	<circle fill="#FF6765" cx="1130.723" cy="471.523" r="197.182"/>
	<circle fill="#FF6765" cx="1133.193" cy="469.102" r="193.381"/>
	<circle fill="#FF6866" cx="1135.664" cy="466.681" r="189.58"/>
	<circle fill="#FF6866" cx="1138.134" cy="464.261" r="185.778"/>
	<circle fill="#FF6866" cx="1140.604" cy="461.84" r="181.977"/>
	<circle fill="#FF6967" cx="1143.075" cy="459.42" r="178.175"/>
	<circle fill="#FF6967" cx="1145.545" cy="456.999" r="174.374"/>
	<circle fill="#FF6967" cx="1148.016" cy="454.579" r="170.573"/>
	<circle fill="#FF6A68" cx="1150.486" cy="452.158" r="166.771"/>
	<circle fill="#FF6A68" cx="1152.956" cy="449.738" r="162.97"/>
	<circle fill="#FF6A68" cx="1155.427" cy="447.317" r="159.168"/>
	<circle fill="#FF6B69" cx="1157.897" cy="444.896" r="155.367"/>
	<circle fill="#FF6B69" cx="1160.368" cy="442.476" r="151.566"/>
	<circle fill="#FF6B69" cx="1162.838" cy="440.055" r="147.764"/>
	<circle fill="#FF6C6A" cx="1165.308" cy="437.635" r="143.963"/>
	<circle fill="#FF6C6A" cx="1167.779" cy="435.214" r="140.162"/>
	<circle fill="#FF6C6B" cx="1170.249" cy="432.794" r="136.36"/>
	<circle fill="#FF6D6B" cx="1172.72" cy="430.373" r="132.559"/>
	<circle fill="#FF6D6B" cx="1175.19" cy="427.953" r="128.757"/>
	<circle fill="#FF6D6C" cx="1177.66" cy="425.532" r="124.956"/>
	<circle fill="#FF6E6C" cx="1180.131" cy="423.111" r="121.155"/>
	<circle fill="#FF6E6C" cx="1182.601" cy="420.691" r="117.353"/>
	<circle fill="#FF6E6D" cx="1185.072" cy="418.27" r="113.552"/>
	<circle fill="#FF6F6D" cx="1187.542" cy="415.85" r="109.75"/>
	<circle fill="#FF6F6D" cx="1190.012" cy="413.429" r="105.949"/>
	<circle fill="#FF6F6E" cx="1192.483" cy="411.009" r="102.148"/>
	<circle fill="#FF706E" cx="1194.953" cy="408.588" r="98.346"/>
	<circle fill="#FF706E" cx="1197.423" cy="406.168" r="94.545"/>
	<circle fill="#FF706F" cx="1199.894" cy="403.747" r="90.744"/>
	<circle fill="#FF716F" cx="1202.364" cy="401.326" r="86.942"/>
	<circle fill="#FF716F" cx="1204.835" cy="398.906" r="83.141"/>
	<circle fill="#FF7170" cx="1207.305" cy="396.485" r="79.339"/>
	<circle fill="#FF7270" cx="1209.775" cy="394.065" r="75.538"/>
	<circle fill="#FF7270" cx="1212.246" cy="391.644" r="71.737"/>
	<circle fill="#FF7271" cx="1214.716" cy="389.224" r="67.935"/>
	<circle fill="#FF7371" cx="1217.187" cy="386.803" r="64.134"/>
	<circle fill="#FF7371" cx="1219.657" cy="384.383" r="60.332"/>
	<circle fill="#FF7372" cx="1222.127" cy="381.962" r="56.531"/>
	<circle fill="#FF7472" cx="1224.598" cy="379.541" r="52.73"/>
	<circle fill="#FF7472" cx="1227.068" cy="377.121" r="48.928"/>
	<circle fill="#FF7473" cx="1229.538" cy="374.7" r="45.127"/>
	<circle fill="#FF7573" cx="1232.009" cy="372.28" r="41.326"/>
	<circle fill="#FF7573" cx="1234.479" cy="369.859" r="37.524"/>
	<circle fill="#FF7574" cx="1236.95" cy="367.439" r="33.723"/>
	<circle fill="#FF7674" cx="1239.42" cy="365.018" r="29.921"/>
	<circle fill="#FF7674" cx="1241.89" cy="362.597" r="26.12"/>
	<circle fill="#FF7675" cx="1244.361" cy="360.177" r="22.319"/>
	<circle fill="#FF7775" cx="1246.831" cy="357.756" r="18.517"/>
	<circle fill="#FF7775" cx="1249.302" cy="355.336" r="14.716"/>
</g>
</svg>
