<svg width="162" height="182" viewBox="0 0 162 182" fill="none" xmlns="http://www.w3.org/2000/svg">
<path d="M66.7235 68.6881C66.4858 73.0281 67.9771 77.2856 70.8709 80.5287C73.7648 83.7719 77.8256 85.7366 82.1646 85.9928C82.4828 85.9928 82.8139 85.9928 83.1126 85.9928C86.3177 85.9905 89.4519 85.0492 92.1279 83.2852C94.8039 81.5213 96.9045 79.0119 98.1701 76.0673C99.4357 73.1226 99.8108 69.8717 99.2491 66.7162C98.6874 63.5607 97.2136 60.6389 95.0096 58.3119C92.8057 55.9848 89.9682 54.3544 86.8479 53.6222C83.7276 52.89 80.4611 53.088 77.452 54.1918C74.443 55.2956 71.8233 57.2569 69.9166 59.8331C68.0099 62.4094 66.8998 65.4878 66.7235 68.6881Z" fill="white" fill-opacity="0.2"/>
<path d="M5.59522 64.4668C4.54907 64.4081 3.50902 64.661 2.60654 65.1933C1.70406 65.7257 0.979671 66.5136 0.524956 67.4576C0.0702419 68.4016 -0.0943846 69.4592 0.0518885 70.4967C0.198162 71.5343 0.648767 72.5051 1.34674 73.2866C2.04471 74.0681 2.95871 74.6251 3.9732 74.8872C4.98768 75.1493 6.05709 75.1047 7.04625 74.7591C8.0354 74.4135 8.89988 73.7824 9.5304 72.9455C10.1609 72.1087 10.5292 71.1037 10.5886 70.0576C10.6289 69.3624 10.5317 68.666 10.3024 68.0085C10.0731 67.3509 9.71629 66.7451 9.25241 66.2257C8.78852 65.7063 8.22668 65.2836 7.59911 64.9818C6.97154 64.6799 6.29056 64.5049 5.59522 64.4668Z" fill="white" fill-opacity="0.2"/>
<path d="M82.3204 2.52108C83.7663 1.79214 84.9636 0.65087 85.761 -0.758456C86.5583 -2.16778 86.9199 -3.78188 86.8 -5.39668C86.6801 -7.01148 86.0841 -8.55448 85.0874 -9.83061C84.0907 -11.1067 82.738 -12.0587 81.2003 -12.5661C79.6626 -13.0735 78.009 -13.1136 76.4485 -12.6813C74.888 -12.2491 73.4907 -11.3638 72.4333 -10.1375C71.3759 -8.91122 70.7058 -7.39893 70.5078 -5.79183C70.3097 -4.18474 70.5926 -2.55501 71.3207 -1.10869C72.2988 0.830517 74.0068 2.3021 76.0694 2.98271C78.1319 3.66332 80.3802 3.49728 82.3204 2.52108Z" fill="white" fill-opacity="0.2"/>
<path d="M26.3479 22.468C27.4641 23.1993 28.7722 23.5832 30.1067 23.571C31.4411 23.5588 32.742 23.1512 33.8447 22.3996C34.9475 21.648 35.8026 20.5863 36.3018 19.3487C36.8011 18.1111 36.9221 16.7533 36.6496 15.4469C36.377 14.1405 35.7232 12.9443 34.7707 12.0096C33.8183 11.0748 32.61 10.4436 31.2987 10.1956C29.9874 9.94765 28.6321 10.0942 27.4041 10.6166C26.1761 11.139 25.1306 12.0139 24.3999 13.1305C23.4205 14.6272 23.0755 16.4516 23.4408 18.2025C23.8061 19.9535 24.8517 21.4877 26.3479 22.468Z" fill="white" fill-opacity="0.2"/>
<path d="M36.3152 61.5451C34.6968 61.4526 33.0874 61.8422 31.6905 62.6645C30.2936 63.4869 29.1719 64.7051 28.4674 66.165C27.7629 67.6249 27.5073 69.2609 27.7327 70.8662C27.9582 72.4714 28.6547 73.9737 29.7341 75.1831C30.8135 76.3924 32.2274 77.2544 33.7968 77.6601C35.3662 78.0658 37.0207 77.9969 38.5509 77.4622C40.0812 76.9275 41.4185 75.9509 42.3936 74.656C43.3688 73.3611 43.938 71.8061 44.0293 70.1877C44.1516 68.0189 43.4077 65.8902 41.9612 64.2696C40.5147 62.649 38.4839 61.669 36.3152 61.5451Z" fill="white" fill-opacity="0.2"/>
<path d="M27.27 116.557C26.0781 117.157 25.091 118.097 24.4336 119.258C23.7761 120.42 23.4779 121.75 23.5766 123.081C23.6753 124.412 24.1664 125.684 24.988 126.735C25.8095 127.787 26.9245 128.571 28.1919 128.989C29.4593 129.407 30.8222 129.44 32.1082 129.083C33.3941 128.726 34.5454 127.996 35.4164 126.985C36.2873 125.974 36.8389 124.727 37.0012 123.403C37.1635 122.078 36.9293 120.735 36.3282 119.543C35.9307 118.752 35.3807 118.046 34.7099 117.467C34.0391 116.888 33.2607 116.447 32.4191 116.17C31.5776 115.892 30.6896 115.784 29.806 115.85C28.9224 115.916 28.0606 116.156 27.27 116.557Z" fill="white" fill-opacity="0.2"/>
<path d="M59.0873 44.5911C60.681 45.6361 62.5487 46.1852 64.4544 46.1688C66.3601 46.1525 68.2182 45.5714 69.7936 44.4991C71.3691 43.4267 72.5912 41.9113 73.3054 40.1445C74.0197 38.3776 74.1939 36.4386 73.8062 34.5727C73.4185 32.7068 72.4862 30.9978 71.1273 29.6617C69.7683 28.3256 68.0436 27.4225 66.1714 27.0665C64.2992 26.7106 62.3634 26.9178 60.609 27.662C58.8545 28.4061 57.3601 29.6538 56.3147 31.2472C55.6196 32.3052 55.1399 33.4897 54.9031 34.7332C54.6663 35.9767 54.6769 37.2547 54.9344 38.494C55.1919 39.7334 55.6913 40.9098 56.4039 41.956C57.1165 43.0022 58.0284 43.8976 59.0873 44.5911Z" fill="white" fill-opacity="0.2"/>
<path d="M160.039 1.87179C161.394 2.76112 162.983 3.22859 164.604 3.21507C166.224 3.20155 167.805 2.70764 169.145 1.79583C170.485 0.88401 171.525 -0.404756 172.132 -1.90747C172.74 -3.41018 172.888 -5.05933 172.558 -6.64634C172.229 -8.23334 171.436 -9.68691 170.28 -10.8232C169.124 -11.9595 167.657 -12.7274 166.064 -13.0299C164.472 -13.3324 162.826 -13.1558 161.334 -12.5225C159.841 -11.8892 158.571 -10.8276 157.682 -9.47206C157.091 -8.57263 156.684 -7.5656 156.483 -6.50854C156.281 -5.45148 156.29 -4.36512 156.509 -3.31158C156.728 -2.25804 157.153 -1.25798 157.758 -0.368581C158.364 0.520821 159.139 1.28212 160.039 1.87179Z" fill="white" fill-opacity="0.2"/>
<path d="M161.325 53.0455C159.175 52.9232 157.022 53.2254 154.989 53.935C152.957 54.6446 151.083 55.7477 149.477 57.1812C147.87 58.6148 146.562 60.3507 145.626 62.29C144.69 64.2292 144.146 66.3337 144.023 68.4834C143.901 70.6331 144.203 72.7859 144.913 74.8188C145.622 76.8517 146.725 78.7249 148.159 80.3315C149.593 81.9381 151.329 83.2466 153.268 84.1823C155.207 85.118 157.312 85.6626 159.461 85.7849C159.779 85.7849 160.111 85.7849 160.403 85.7849C164.671 85.7848 168.771 84.1201 171.832 81.1445C174.892 78.169 176.671 74.1172 176.792 69.8505C176.912 65.5837 175.363 61.4383 172.475 58.2954C169.587 55.1524 165.587 53.2597 161.325 53.0196V53.0455Z" fill="white" fill-opacity="0.2"/>
<path d="M87.71 43.4549C89.0716 46.1702 91.1643 48.4514 93.7525 50.0415C96.3406 51.6315 99.3214 52.4673 102.359 52.4546C105.158 52.454 107.911 51.7368 110.354 50.3712C112.798 49.0055 114.851 47.037 116.318 44.6532C117.786 42.2693 118.618 39.5494 118.737 36.7527C118.855 33.9559 118.255 31.1754 116.995 28.676C115.038 24.7926 111.618 21.8457 107.488 20.4837C103.358 19.1217 98.8562 19.456 94.9728 21.4132C91.0894 23.3704 88.1425 26.7902 86.7804 30.9201C85.4184 35.0501 85.7528 39.552 87.71 43.4354V43.4549Z" fill="white" fill-opacity="0.2"/>
<path d="M121.053 12.9295C122.955 13.0343 124.846 12.5728 126.486 11.6035C128.126 10.6341 129.442 9.20039 130.268 7.48342C131.093 5.76645 131.391 3.8433 131.124 1.95701C130.857 0.0707121 130.037 -1.69408 128.767 -3.11437C127.497 -4.53466 125.835 -5.5467 123.99 -6.02262C122.146 -6.49853 120.201 -6.41695 118.403 -5.78819C116.604 -5.15943 115.033 -4.0117 113.887 -2.49005C112.74 -0.96839 112.071 0.858912 111.963 2.76095C111.891 4.02578 112.069 5.29238 112.487 6.48827C112.905 7.68416 113.555 8.78587 114.399 9.73034C115.244 10.6748 116.266 11.4435 117.408 11.9925C118.549 12.5414 119.788 12.8598 121.053 12.9295Z" fill="white" fill-opacity="0.2"/>
<path d="M68.8274 111.336C70.5295 110.479 71.9391 109.136 72.8781 107.478C73.8171 105.819 74.2433 103.92 74.1027 102.019C73.9621 100.118 73.261 98.3021 72.0882 96.7999C70.9154 95.2977 69.3235 94.177 67.5138 93.5796C65.7041 92.9821 63.7579 92.9346 61.9212 93.4432C60.0845 93.9518 58.4399 94.9936 57.1953 96.4369C55.9507 97.8802 55.162 99.6601 54.929 101.552C54.696 103.443 55.0291 105.361 55.8861 107.063C57.0369 109.345 59.0461 111.076 61.4726 111.878C63.8991 112.679 66.5444 112.484 68.8274 111.336Z" fill="white" fill-opacity="0.2"/>
<path d="M127.267 26.9943C125.272 30.0427 124.351 33.6693 124.649 37.3002C124.947 40.9311 126.447 44.359 128.911 47.0417C131.376 49.7243 134.665 51.5084 138.258 52.1117C141.851 52.715 145.542 52.1031 148.748 50.3727C151.954 48.6424 154.492 45.8924 155.959 42.5579C157.427 39.2234 157.74 35.4948 156.85 31.962C155.961 28.4292 153.918 25.294 151.047 23.0524C148.175 20.8108 144.637 19.5908 140.994 19.5854C138.271 19.5849 135.591 20.2619 133.195 21.5552C130.798 22.8486 128.761 24.7178 127.267 26.9943Z" fill="white" fill-opacity="0.2"/>
<path d="M155.786 95.551C154.327 92.6528 152.041 90.2526 149.217 88.6539C146.394 87.0553 143.16 86.33 139.924 86.5698C136.688 86.8096 133.596 88.0038 131.039 90.0012C128.482 91.9987 126.575 94.7097 125.559 97.7913C124.543 100.873 124.464 104.187 125.331 107.313C126.199 110.44 127.974 113.239 130.433 115.356C132.892 117.473 135.923 118.814 139.144 119.208C142.365 119.602 145.63 119.032 148.527 117.57C150.457 116.61 152.178 115.276 153.59 113.647C155.002 112.017 156.077 110.123 156.752 108.076C157.427 106.028 157.689 103.866 157.524 101.717C157.358 99.5667 156.767 97.471 155.786 95.551Z" fill="white" fill-opacity="0.2"/>
<path d="M66.6521 166.049C65.7762 165.474 64.7494 165.171 63.7014 165.179C62.6535 165.188 61.6315 165.506 60.7648 166.095C59.898 166.684 59.2254 167.517 58.8319 168.489C58.4385 169.46 58.3419 170.526 58.5544 171.552C58.7669 172.578 59.279 173.519 60.0258 174.254C60.7726 174.989 61.7206 175.486 62.75 175.682C63.7795 175.879 64.844 175.766 65.809 175.357C66.774 174.948 67.5962 174.263 68.1715 173.387C68.9413 172.212 69.2136 170.779 68.9288 169.404C68.6439 168.028 67.8252 166.822 66.6521 166.049Z" fill="white" fill-opacity="0.2"/>
<path d="M116.229 112.005C118.228 108.954 119.153 105.322 118.857 101.686C118.56 98.0497 117.06 94.6162 114.592 91.9289C112.124 89.2417 108.831 87.4542 105.233 86.8494C101.635 86.2446 97.9384 86.8572 94.7279 88.59C91.5173 90.3229 88.9765 93.077 87.5075 96.4166C86.0385 99.7561 85.7253 103.49 86.6174 107.028C87.5096 110.565 89.5562 113.704 92.4333 115.948C95.3103 118.191 98.8534 119.411 102.502 119.414C105.227 119.425 107.911 118.753 110.309 117.458C112.707 116.164 114.742 114.289 116.229 112.005Z" fill="white" fill-opacity="0.2"/>
<path d="M83.4568 137.134C82.1016 136.245 80.5132 135.777 78.8923 135.791C77.2715 135.804 75.6911 136.298 74.351 137.21C73.0108 138.122 71.9712 139.411 71.3636 140.913C70.756 142.416 70.6077 144.065 70.9375 145.652C71.2672 147.239 72.0602 148.693 73.2162 149.829C74.3721 150.965 75.8391 151.733 77.4315 152.036C79.0239 152.338 80.6703 152.162 82.1624 151.528C83.6544 150.895 84.9252 149.834 85.8139 148.478C87.0051 146.661 87.4259 144.445 86.9839 142.318C86.5419 140.191 85.2732 138.326 83.4568 137.134Z" fill="white" fill-opacity="0.2"/>
<path d="M121.67 168.516C120.339 168.44 119.015 168.761 117.866 169.437C116.716 170.113 115.793 171.114 115.213 172.315C114.632 173.515 114.42 174.86 114.604 176.181C114.788 177.502 115.358 178.738 116.244 179.735C117.13 180.731 118.292 181.443 119.582 181.78C120.872 182.117 122.233 182.064 123.493 181.627C124.753 181.191 125.855 180.392 126.661 179.329C127.467 178.267 127.94 176.99 128.021 175.659C128.074 174.773 127.952 173.885 127.662 173.045C127.371 172.206 126.918 171.433 126.328 170.769C125.738 170.106 125.023 169.565 124.224 169.178C123.424 168.792 122.557 168.567 121.67 168.516Z" fill="white" fill-opacity="0.2"/>
<path d="M121.741 126.069C119.84 125.965 117.949 126.426 116.309 127.395C114.669 128.364 113.354 129.798 112.528 131.514C111.702 133.231 111.404 135.154 111.671 137.04C111.937 138.926 112.757 140.69 114.026 142.111C115.295 143.531 116.957 144.544 118.801 145.02C120.645 145.497 122.589 145.416 124.388 144.789C126.186 144.161 127.758 143.014 128.905 141.493C130.052 139.973 130.723 138.146 130.832 136.244C130.904 134.979 130.726 133.712 130.308 132.516C129.89 131.32 129.24 130.218 128.396 129.273C127.552 128.328 126.529 127.558 125.387 127.009C124.246 126.459 123.007 126.14 121.741 126.069Z" fill="white" fill-opacity="0.2"/>
<path d="M161.169 136.478C159.726 137.212 158.533 138.357 157.739 139.768C156.946 141.179 156.589 142.794 156.712 144.408C156.836 146.022 157.435 147.564 158.433 148.838C159.432 150.112 160.786 151.062 162.323 151.568C163.861 152.073 165.514 152.112 167.074 151.679C168.634 151.246 170.031 150.361 171.088 149.135C172.146 147.909 172.816 146.398 173.016 144.791C173.215 143.185 172.934 141.555 172.208 140.108C171.723 139.143 171.053 138.283 170.235 137.578C169.418 136.872 168.469 136.336 167.443 135.998C166.417 135.661 165.335 135.53 164.258 135.612C163.181 135.695 162.132 135.989 161.169 136.478Z" fill="white" fill-opacity="0.2"/>
</svg>
