<?xml version="1.0" encoding="UTF-8"?>
<svg id="svg" xmlns="http://www.w3.org/2000/svg" viewBox="0 0 256 229.2">
  <defs>
    <style>
      .cls-1 {
        fill: #38bcb4;
      }

      .cls-1, .cls-2 {
        fill-rule: evenodd;
      }

      .cls-2 {
        fill: #34bcb4;
      }
    </style>
  </defs>
  <g id="svgg">
    <path id="path0" class="cls-2" d="m73.89.79c.02.44.1.75.18.7.18-.11.92.71.92,1.03,0,.12.15.23.34.23s.34.15.34.34.11.34.25.34c.32,0,.9.58.9.9,0,.14.15.25.34.25s.34.15.34.34.11.34.25.34c.37,0,.9.6.9,1.02,0,.2.11.36.24.36s.2.08.14.17c-.1.16.57.92.7.8.21-.19.49,0,.39.26-.07.19.08.37.37.44.27.07.44.21.38.32-.1.17.55.95.69.82.18-.17.53-.02.41.17-.08.12.09.46.36.74.28.29.42.37.32.2-.12-.22-.1-.27.08-.16.15.09.26.32.26.51s.09.29.21.21c.12-.07.43.23.71.67s.55.8.61.8.04-.12-.05-.26c-.1-.16-.06-.2.1-.1.15.09.26.32.26.51s.09.29.2.22c.11-.07.38.14.59.46.51.78,1.22,1.47,1.5,1.47.13,0,.23.11.23.25,0,.32,1.95,2.27,2.27,2.27.14,0,.25.15.25.34s.16.34.36.34.31.08.24.19c-.12.19.64.96.96.96.1,0,.36.31.59.69.22.38.5.63.62.56.12-.07.21.03.21.23s.12.36.26.36c.39,0,.87.73.88,1.32,0,.55.35.7.54.23.09-.23.12-.23.13,0,0,.16.17.29.36.29s.34.1.34.22-.15.16-.34.09c-.19-.07-.34-.02-.34.12s.28.26.63.26c.49,0,.55.05.29.23-.29.19-.29.22.06.23.22,0,.39.08.37.18-.07.45.06.6.26.29.15-.23.22-.25.23-.06,0,.16.16.29.35.29s.34.1.34.22-.15.16-.34.09c-.19-.07-.34-.02-.34.12s.28.26.63.27c.35,0,.5.07.35.13-.36.14.13,1,.56,1,.16,0,.29.15.29.34s.15.34.34.34.34.15.34.34.16.34.36.34.29.1.22.23c-.08.13.02.23.22.23s.36.17.36.37c0,.23.13.32.34.24.23-.09.34.01.34.32,0,.26.15.45.36.45s.29.1.22.23c-.08.13-.04.23.09.23s.51.26.85.57c.34.31.55.57.46.57s-.02.14.14.32c.16.18.35.28.43.24.07-.04.3.12.51.37.39.45,2.39.68,2.12.24-.17-.28.42-.48,1.39-.48.47,0,.74-.09.66-.23-.12-.2,1.24-.36,2.12-.25.16.02.29-.12.29-.32,0-.31,1.38-.53,2.35-.38.09.02.15-.1.11-.26-.04-.17.25-.32.74-.36.44-.04.93-.18,1.09-.31.2-.17.29-.16.29.02s.16.17.52-.05c.28-.17.76-.29,1.05-.26.29.02.59-.1.65-.27.08-.2.48-.31,1.1-.31.66,0,1.03-.11,1.11-.34.09-.24.47-.34,1.3-.34.67,0,1.3-.13,1.47-.3.17-.17.67-.28,1.13-.24.45.04.83-.04.83-.17s.09-.17.21-.1c.12.07.25.02.29-.12.05-.14.46-.25.93-.25.51,0,.83-.1.79-.26-.03-.16.38-.29,1.07-.33.62-.04,1.25-.2,1.41-.36.16-.16.71-.27,1.23-.24.52.03.89-.03.83-.13-.17-.27.49-.46,1.63-.46.7,0,1.06-.11,1.15-.34.08-.21.43-.34.88-.34.41,0,.86-.14,1-.3.15-.18.64-.28,1.22-.25.62.03,1.06-.07,1.21-.27.14-.18.7-.34,1.34-.36.81-.03,1.07-.12.98-.35-.09-.23.15-.31.91-.31.67,0,1.02-.1,1.02-.29s.34-.27,1.07-.24c.71.03,1.16-.07,1.32-.29.14-.19.72-.36,1.35-.4.61-.04,1.18-.19,1.27-.33.09-.14.65-.29,1.23-.32.59-.03,1.02-.14.96-.24-.13-.21.37-.28,1.34-.21.44.03.63-.06.63-.31,0-.32,1.44-.55,2.38-.38.11.02.14-.12.06-.32-.12-.31,1.37-.55,2.43-.38.09.01.17-.12.17-.31,0-.26.17-.3.72-.19.53.11.77.05.93-.23.17-.3.56-.38,1.83-.38,1.61,0,1.62,0,2.63-1.02.69-.7,1.13-.98,1.39-.88.26.1.32.06.21-.12-.1-.16,0-.33.24-.43.23-.09.63-.4.9-.69.27-.29.72-.53,1-.53.36,0,.47-.1.38-.34-.08-.21,0-.34.21-.34.19,0,.4-.15.48-.34s.26-.34.41-.34c.51,0,1.51-.57,1.51-.86,0-.29.29-.38.89-.3.2.03.27-.09.18-.32-.12-.32-.02-.4.44-.35.07,0,.48-.36.92-.82.43-.46.79-.72.79-.59s.1.25.23.25.23-.15.23-.34.14-.34.31-.34.44-.26.61-.57c.17-.31.49-.57.7-.57s.72-.3,1.12-.68c.46-.43.86-.63,1.11-.54.21.08.32.06.23-.04-.17-.19.81-1.27,1.15-1.27.12,0,.28-.16.35-.36.09-.24.29-.31.6-.21.26.08.44.06.4-.04-.1-.3.95-1.25,1.43-1.28.23-.02.41-.14.39-.27-.02-.13.15-.21.38-.17.27.05.37-.02.26-.19-.09-.15.04-.31.32-.39.26-.07.48-.27.48-.44,0-.28.43-.43.97-.34.09.01.17-.13.17-.32s.13-.32.29-.29c.16.03.26-.12.22-.34-.04-.25.05-.35.24-.28.19.07.32-.06.34-.35l.04-.46h-111.35l.03.79m-15.42,6.04c-.19.23-.42.59-.51.82-.09.23-.27.34-.42.24-.15-.09-.21-.07-.14.04.21.35-.25,1.28-.55,1.1-.18-.11-.22-.05-.13.19.08.2,0,.55-.18.78s-.33.58-.34.77c0,.19-.32.6-.69.91-.41.34-.68.78-.68,1.12,0,.31-.26.9-.57,1.31-.31.41-.57.91-.57,1.11s-.15.36-.34.36-.34.15-.34.34c0,.48-.81,1.76-.99,1.57-.08-.08-.15.16-.15.55,0,.42-.14.76-.36.84-.2.08-.29.24-.22.37.08.14-.02.17-.27.08-.23-.08-.34-.07-.26.02.09.1-.04.53-.29.96-.24.43-.44.94-.44,1.12s-.17.34-.37.34c-.24,0-.32.12-.23.35.08.22-.13.62-.56,1.03-.38.37-.64.77-.57.89s-.05.39-.27.61c-.22.22-.41.51-.43.65-.01.14-.04.38-.06.54-.02.16-.2.29-.41.29-.26,0-.33.14-.25.47.08.29,0,.52-.2.6-.18.07-.33.32-.33.55,0,.29-.11.38-.36.29-.23-.09-.34-.02-.32.18.1.69-.02,1.12-.3,1.06-.16-.03-.3.1-.32.29-.02.19-.04.48-.06.64-.01.17-.13.24-.26.16-.13-.08-.23.15-.23.56s-.12.7-.29.7c-.34,0-1.14,1.24-.93,1.45.08.08-.03.21-.24.29-.21.08-.38.39-.38.69,0,.34-.13.55-.36.55-.2,0-.3.1-.22.22.07.12-.07.43-.33.69-.26.26-.47.52-.47.58v.36c0,.13-.12.17-.27.08-.18-.11-.22-.04-.12.21.08.21,0,.52-.18.7-.18.18-.39.59-.47.92-.08.33-.29.6-.47.6s-.31.08-.29.17c.08.48-.06.75-.29.61-.15-.09-.21-.07-.14.04.17.29-.23,1.29-.46,1.15-.1-.06-.2.11-.22.38-.02.27-.17.6-.33.73-.16.13-.33.44-.38.68-.04.25-.3.64-.57.88-.48.42-.53.53-.58,1.36-.02.27-.15.35-.41.25-.29-.11-.35-.05-.24.23.08.21,0,.53-.19.71-.18.18-.33.55-.33.81s-.14.47-.32.47-.38.26-.46.58c-.08.33-.25.52-.39.43-.15-.09-.21.06-.17.39.05.34-.03.52-.21.48-.18-.04-.29.2-.29.63,0,.38-.11.69-.24.69-.35,0-1.24.89-1.07,1.06.08.08.03.37-.12.63-.27.48-.32.62-.37,1.06-.02.13-.18.23-.36.23s-.36.27-.4.63c-.04.38-.19.6-.38.57-.17-.03-.24.04-.16.17.08.13,0,.29-.16.36-.17.07-.33.34-.35.61-.02.27-.15.56-.29.64-.14.08-.34.46-.44.82-.1.37-.31.64-.45.61-.14-.03-.25.02-.23.11.09.54-.06,1.21-.23,1.11-.11-.07-.26.09-.33.35-.07.26-.23.41-.35.34-.13-.08-.26.14-.3.49-.04.38-.19.61-.38.57-.21-.04-.26.08-.16.4.1.31.03.51-.21.6-.2.08-.36.28-.36.46s-.15.32-.34.32-.34.1-.34.23.12.23.26.23-.01.25-.34.56c-.33.31-.61.77-.61,1.03s-.1.47-.23.47-.23.26-.23.58-.15.64-.34.71c-.19.07-.34.32-.34.55s-.1.48-.23.56c-.14.08-.17-.02-.08-.25.1-.27.06-.34-.12-.23-.15.09-.27.42-.27.74s-.1.51-.23.43c-.13-.08-.23.15-.23.56,0,.47-.11.7-.34.7-.21,0-.34.21-.34.55,0,.3-.15.61-.34.68-.19.07-.34.34-.34.6s-.1.47-.23.47-.23.15-.23.34-.15.34-.33.34-.36.27-.4.63c-.04.35-.18.61-.31.59-.13-.02-.26.22-.29.55-.03.32-.32.82-.65,1.1-.44.38-.52.55-.29.64.22.09.23.13.03.14-.16,0-.29.17-.29.36s-.13.34-.3.34-.31.22-.33.5c-.02.27-.13.56-.24.63-.11.07-.27.32-.35.55-.09.24-.27.35-.42.25-.15-.09-.21-.07-.14.04.2.33-.25,1.28-.52,1.12-.14-.08-.23-.01-.2.16.09.67-.02,1.13-.24,1-.13-.08-.29.15-.36.52-.07.37-.38.85-.68,1.08-.3.23-.55.65-.55.94s-.13.66-.29.83c-.3.31-.72,1.14-.95,1.86-.07.23-.24.35-.36.27-.13-.08-.23.02-.23.22s-.11.36-.24.36-.19.09-.12.19c.07.11-.08.41-.33.68-.25.27-.45.73-.45,1.04s-.15.62-.34.69c-.19.07-.34.34-.34.6,0,.27-.15.47-.36.47-.26,0-.32.13-.2.49.12.39.08.46-.21.35-.2-.08-.36-.07-.34.02.11.74-.06,1.17-.41,1.03-.29-.11-.35-.05-.24.23.09.24-.1.62-.55,1.07-.38.38-.63.79-.55.92.08.12-.05.41-.27.63-.23.23-.42.54-.43.7-.05.65-.11.75-.44.75-.21,0-.34.21-.34.54,0,.3-.16.86-.36,1.26-.37.74-.65,1-.41.38.07-.19.02-.34-.12-.34s-.25.31-.25.69c0,.43-.11.67-.29.63-.18-.04-.28.18-.26.57.02.39-.09.63-.29.63-.17,0-.3.08-.28.17.09.56-.07.97-.37.97-.19,0-.34.14-.34.32s-.16.38-.35.45c-.25.09-.33.43-.31,1.17.04,1.19.39,1.32,1.88.69.63-.26,1.29-.31,2.76-.2,1.62.12,2,.09,2.31-.23.36-.36,2.15-.52,4.99-.43.47.01.81-.06.74-.17-.22-.36.23-.43,2.71-.47,1.64-.03,2.45-.12,2.45-.3s.83-.26,2.64-.26,2.7-.09,2.81-.27c.11-.18.98-.29,2.46-.32,1.26-.03,2.43-.16,2.62-.3.25-.19.29-.18.16.04-.09.16-.06.29.07.29s.24-.15.24-.34c0-.28.42-.34,2.39-.34,1.7,0,2.42-.08,2.5-.29.09-.23.12-.23.13,0,0,.16.13.29.27.29s.2-.13.14-.29c-.08-.21.24-.29,1.18-.29,2.29-.01,4.27-.18,4.4-.38.07-.11,1.13-.2,2.36-.21,1.7-.01,2.26-.09,2.36-.34.1-.25.68-.32,2.6-.32s2.56-.08,2.82-.34c.26-.26.92-.34,2.75-.34,1.36,0,2.47-.1,2.55-.23.08-.13,1.34-.23,3.01-.23s2.81-.09,2.73-.21c-.23-.38.2-.45,2.7-.49,1.91-.03,2.44-.1,2.44-.35s.54-.32,2.62-.32c1.5,0,2.68-.1,2.76-.23.08-.13.69-.23,1.36-.23,1.16,0,1.22-.03,1.22-.6,0-.33.11-.67.24-.75.13-.08.28-.66.32-1.29.05-.76.17-1.12.36-1.08.19.04.29-.24.29-.83s.12-.94.36-1.03c.22-.09.34-.38.32-.77-.08-1.24,0-1.92.24-1.78.14.09.23-.31.23-1.03s.13-1.3.34-1.52c.19-.19.34-.71.34-1.17s.14-.99.31-1.19c.17-.2.44-1.14.6-2.08.37-2.19.42-2.35.7-2.18.13.08.21-.04.19-.27-.11-1.23.06-2.13.38-2.13.19,0,.33-.08.32-.17-.11-.7.07-1.89.26-1.77.13.08.22.06.2-.04-.16-.92.06-2.37.37-2.37.19,0,.34-.11.34-.24s-.13-.17-.29-.08c-.23.13-.23.1,0-.15.16-.17.29-.65.29-1.07,0-.46.11-.76.29-.76.2,0,.31-.4.34-1.2.02-.66.15-1.24.28-1.28.13-.04.23-.57.23-1.18,0-.7.13-1.2.34-1.38.2-.16.34-.66.34-1.17,0-.71.07-.85.36-.74.23.09.34.02.32-.18-.12-.88.03-2.28.24-2.15.14.09.23-.33.23-1.11,0-.9.1-1.29.34-1.38.21-.08.34-.43.34-.92,0-.44.13-.84.31-.9.19-.07.32-.55.35-1.23.02-.61.14-1.14.27-1.19.12-.04.23-.58.23-1.2,0-.83.09-1.13.33-1.13s.35-.32.4-1.09c.04-.66.17-1.07.33-1.04.15.03.26-.25.25-.69-.02-1.37.06-1.8.29-1.65.14.09.23-.33.23-1.11,0-.9.1-1.29.34-1.38.24-.09.35-.48.36-1.23.01-.6.07-.97.13-.81.22.54.54.03.54-.87,0-.5.1-.9.23-.9s.23-.25.23-.57c0-.37.1-.53.29-.45.18.07.31-.08.33-.36.02-.26-.11-.53-.29-.6-.18-.07-.33-.27-.33-.45s-.1-.32-.23-.32-.23-.14-.23-.32-.22-.37-.48-.44c-.26-.07-.41-.24-.33-.37.08-.13.03-.24-.11-.24-.33,0-.91-.58-.91-.9,0-.14-.15-.25-.34-.25s-.34-.17-.34-.37c0-.23-.13-.32-.34-.24-.2.08-.34,0-.34-.18,0-.17-.16-.37-.36-.45-.2-.08-.29-.24-.22-.37.08-.13-.02-.23-.21-.23s-.36-.15-.36-.34-.08-.32-.19-.29c-.34.1-1.65-1.39-1.65-1.89,0-.27-.09-.43-.2-.36-.11.07-.33-.03-.49-.22-.16-.19-.22-.34-.13-.34s.02-.14-.14-.32c-.16-.18-.37-.28-.45-.23-.09.05-.22-.12-.3-.37-.08-.26-.23-.41-.33-.35-.1.06-.31-.04-.47-.23-.16-.19-.22-.34-.13-.34s.02-.14-.14-.32c-.16-.18-.37-.28-.45-.23-.09.05-.22-.12-.3-.37-.08-.26-.23-.42-.33-.36-.21.13-1.18-.93-1.01-1.1.06-.06-.18-.27-.53-.46-.62-.32-1.29-.97-1.4-1.35-.03-.09-.08-.15-.11-.13-.13.11-1.09-.86-1.09-1.1,0-.15-.16-.33-.36-.41-.2-.08-.29-.25-.19-.4.1-.17.06-.2-.1-.1-.15.09-.33,0-.4-.19-.08-.2-.28-.36-.46-.36s-.32-.16-.32-.36-.1-.29-.23-.22c-.21.13-.33-.18-.25-.65.02-.1-.07-.12-.2-.04-.13.08-.3-.02-.37-.21-.08-.2-.26-.36-.4-.36-.29,0-.96-.92-.88-1.2.03-.09-.11-.17-.3-.17s-.34-.1-.34-.23-.15-.23-.34-.23-.34-.14-.34-.32-.16-.38-.36-.46-.29-.24-.22-.37c.08-.13-.02-.23-.21-.23s-.36-.1-.36-.23-.15-.23-.34-.23-.34-.15-.34-.33-.13-.38-.29-.44c-.23-.09-.23-.12,0-.13.16,0,.29-.13.29-.27s-.16-.19-.36-.12c-.21.08-.3.04-.21-.09.08-.13-.02-.29-.22-.37s-.36-.28-.36-.46-.11-.32-.25-.32c-.15,0-.19.17-.1.4.13.33.08.32-.29-.06-.24-.25-.35-.49-.24-.53.11-.04.2-.18.2-.31s-.15-.18-.34-.1c-.21.08-.34,0-.34-.2,0-.18-.1-.34-.23-.34s-.23-.15-.23-.34-.11-.34-.25-.34c-.15,0-.19.17-.1.4.13.33.08.32-.29-.06-.27-.28-.35-.51-.21-.61.26-.17-.34-.88-.74-.88-.14,0-.25-.15-.25-.34s-.15-.34-.34-.34-.34-.15-.34-.34c0-.22-.13-.29-.38-.19-.24.09-.33.06-.23-.1.18-.29-.39-.82-.62-.59-.09.09-.1-.01-.01-.23.1-.27.04-.39-.22-.39-.2,0-.37-.1-.37-.23,0-.32-.74-1.15-1.03-1.15-.13,0-.43-.26-.67-.57-.51-.68-1.48-.76-1.99-.16m139.98,1.08c-.19.19-.45.34-.59.34s-.25.15-.25.34-.15.34-.34.34-.34.15-.34.34-.14.28-.31.22c-.17-.07-.44.04-.6.24-.16.19-.44.35-.61.35s-.32.15-.32.34c0,.21-.22.34-.57.34s-.57.13-.57.34c0,.19-.13.34-.29.35-.16,0-.65.41-1.09.91-.44.5-.99.91-1.22.91-.46,0-1.07.52-1.07.9,0,.14-.24.25-.54.25s-.73.25-.97.57c-.24.32-.66.57-.96.57s-.47.1-.4.21c.07.12-.08.28-.33.36-.25.08-.46.29-.46.47s-.11.33-.25.33-.4.15-.58.33c-.18.18-.49.28-.67.2-.21-.08-.34,0-.34.24,0,.2-.1.37-.23.37s-.23.15-.23.34c0,.31-.32.43-1.08.41-.15,0-.26.11-.23.25.03.14-.14.23-.38.19-.27-.05-.37.02-.26.19.09.15-.04.31-.32.39-.26.07-.42.22-.35.33.13.21-.82.67-1.08.52-.08-.05-.21.07-.28.27-.07.2-.24.29-.37.21-.13-.08-.23.02-.23.21s-.1.36-.23.36-.23.15-.23.34c0,.22-.23.34-.65.34-.46,0-.74.17-.96.57-.18.33-.51.57-.79.57-.27,0-.66.21-.88.46-.43.5-.54,2.06-.15,2.06.32,0,.9.58.9.9,0,.14.1.25.22.25.3,0,1.61,1.3,1.61,1.6,0,.13.09.24.21.24.28,0,1.62,1.35,1.62,1.62,0,.12.1.21.21.21.28,0,1.62,1.35,1.62,1.62,0,.12.11.21.24.21.3,0,1.6,1.31,1.6,1.61,0,.12.1.22.21.22.28,0,1.62,1.35,1.62,1.62,0,.12.15.21.34.21s.34.11.34.25c0,.32.58.9.9.9.14,0,.25.15.25.34s.15.34.34.34.34.11.34.25c0,.32.58.9.9.9.14,0,.25.15.25.34s.15.34.34.34.34.15.34.34.16.34.36.34.29.1.22.23.02.23.22.23.36.15.36.34.15.34.34.34.34.15.34.34.16.34.36.34.29.1.22.23c-.08.13.02.23.22.23s.36.15.36.34.15.34.34.34.34.15.34.34.17.34.38.34.32.06.25.13c-.16.16.65,1.01.97,1.01.13,0,.23.16.23.36s.09.3.2.23c.11-.07.26.08.32.33.07.25.29.46.5.46s.31.1.24.23c-.08.13.02.23.22.23s.36.1.36.23c0,.35.75,1.14.96,1.01.1-.06.19.04.19.24s.15.36.34.36.34.15.34.34.15.34.34.34.34.16.34.36.1.29.23.22c.13-.08.23.02.23.22s.15.36.34.36.34.15.34.34.15.34.34.34.34.11.34.25c0,.32.58.9.9.9.14,0,.25.15.25.34s.14.34.31.34.44.26.61.57c.17.32.44.57.61.57s.3.15.3.34.14.34.31.34.44.26.61.57c.17.31.44.57.61.57s.31.15.31.34.14.34.31.34.44.26.61.57c.17.31.44.57.61.57s.31.15.31.34.11.34.25.34c.32,0,.9.58.9.9,0,.14.15.25.34.25s.34.15.34.34.11.34.25.34c.32,0,.9.58.9.9,0,.14.15.25.34.25s.34.15.34.34.15.34.34.34.34.15.34.34.11.34.25.34c.32,0,.9.58.9.9,0,.14.15.25.34.25s.34.15.34.34.09.34.2.34c.26,0,2.09,1.83,2.09,2.09,0,.11.13.2.29.2.33,0,1.08.8,1.08,1.14,0,.12.16.16.35.09.25-.1.31-.03.2.25-.11.29-.04.37.28.31.3-.05.41.04.36.33-.04.24.08.4.29.4.19,0,.35.16.35.36s.09.3.21.23c.11-.07.26.03.34.22.07.19.34.34.59.34.51,0,.93.63.76,1.13-.08.23,0,.28.27.17.23-.09.33-.06.25.08-.08.12.12.32.43.44.79.3,1.52.97,1.36,1.23-.08.12-.02.15.12.07.14-.09.35.03.48.26.12.23.48.55.79.72.33.18.52.44.45.62-.07.17,0,.31.13.31s.81.55,1.5,1.23c.69.68,1.41,1.29,1.61,1.37.2.08.36.3.36.49,0,.31.27.45.74.38.09-.01.1.15.02.37-.08.22-.06.33.03.24.23-.21.8.33.64.59-.07.11-.02.14.11.06.3-.18.81.39.58.65-.09.1,0,.12.22.05.29-.1.35-.05.25.23-.09.25-.05.31.13.2.15-.09.27-.05.27.09s.1.19.23.11c.13-.08.29.02.37.22.08.2.23.36.34.36.31,0,1.12.76,1.12,1.04,0,.14.26.39.57.56.31.17.57.45.57.63s.11.25.24.17c.14-.08.3.06.37.33.07.26.22.42.33.35.11-.07.27.03.34.23.08.2.28.36.45.36.18,0,.26.14.18.34-.08.22,0,.34.24.34.2,0,.37.17.37.37,0,.23.13.32.34.24.2-.08.34,0,.34.18,0,.17.16.37.36.45.2.08.3.23.23.35-.07.12.21.29.62.38.65.14.69.19.29.35-.43.17-.43.18.06.2.34.01.6.22.74.59.12.32.28.57.35.57s.06-.13-.03-.29c-.09-.16.06-.09.33.15.54.47.67.73.23.46-.16-.1-.2-.06-.1.1.09.15.32.26.51.26s.28.11.2.23c-.08.13-.06.22.04.2.56-.1.99.06.99.37,0,.19.15.34.34.34s.34.11.34.25c0,.32.58.9.9.9.14,0,.25.15.25.34s.09.34.21.34c.28,0,1.62,1.35,1.62,1.62,0,.12.15.21.34.21s.34.15.34.34.13.32.29.29.26.07.23.23c-.03.16.1.29.29.29s.34.15.34.34.2.34.45.34c.31,0,.41.11.32.34-.07.19-.02.34.12.34s.25-.1.25-.23.11-.23.24-.23.18.1.1.23c-.08.13-.03.23.1.23.38,0,.29-1.86-.1-2.15-.19-.14-.37-.53-.39-.87-.03-.34-.16-.6-.29-.57-.13.02-.21-.14-.17-.36.04-.24-.08-.4-.29-.4-.2,0-.35-.2-.35-.45s-.16-.54-.35-.65c-.2-.11-.37-.42-.39-.68-.02-.27-.12-.43-.22-.37-.17.1-.27-.24-.21-.66.02-.09-.13-.17-.32-.17-.23,0-.34-.23-.34-.71,0-.54-.08-.68-.34-.58-.26.1-.34-.04-.34-.55,0-.42-.11-.66-.29-.62-.17.03-.26-.12-.21-.37.05-.29-.02-.37-.21-.25-.2.12-.24.06-.13-.22.08-.22.06-.33-.06-.26-.12.07-.28-.08-.36-.33-.08-.25-.24-.46-.36-.46s-.21-.26-.21-.57c0-.34-.13-.57-.32-.57-.2,0-.28-.16-.21-.42.06-.23-.05-.59-.25-.79-.2-.2-.36-.53-.36-.73s-.15-.43-.34-.5c-.19-.07-.34-.28-.34-.46s-.1-.27-.23-.19c-.13.08-.23-.11-.23-.43s-.16-.67-.35-.77c-.2-.11-.37-.42-.39-.7-.02-.28-.17-.5-.33-.5s-.3-.12-.3-.26-.18-.4-.4-.57c-.37-.29-.37-.3.06-.18.37.11.34.02-.17-.45-.35-.32-.65-.85-.68-1.17-.03-.37-.16-.55-.34-.47-.28.11-.4-.29-.3-.99.03-.2-.09-.27-.32-.18-.25.1-.36,0-.36-.31,0-.25-.1-.45-.23-.45s-.23-.26-.23-.57c0-.36-.13-.57-.34-.57-.19,0-.34-.2-.34-.45s-.14-.53-.32-.63c-.18-.1-.36-.44-.4-.76-.09-.63-.48-1.15-.87-1.15-.14,0-.25-.31-.25-.69,0-.46-.11-.69-.34-.69-.19,0-.35-.18-.35-.4,0-.22-.15-.59-.33-.83-.18-.23-.26-.59-.18-.78.09-.25.05-.3-.15-.18-.18.11-.33,0-.41-.31-.07-.26-.27-.48-.44-.48-.26,0-.46-.74-.26-.99.03-.04-.12-.25-.33-.46-.22-.22-.33-.54-.26-.73.07-.19.02-.34-.12-.34s-.26.13-.27.29c0,.16-.11.05-.22-.23s-.14-.69-.06-.9c.11-.29.05-.35-.24-.24-.28.11-.38.02-.38-.28,0-.24-.11-.47-.24-.51s-.26-.31-.28-.59c-.02-.28-.16-.51-.31-.51-.34,0-.6-.64-.4-.97.09-.14.04-.18-.11-.08-.15.09-.26.06-.26-.06s-.17-.4-.38-.6c-.21-.21-.39-.6-.41-.88-.02-.27-.16-.47-.31-.44-.24.05-.4-.58-.3-1.16.02-.1-.07-.12-.2-.04-.27.16-.71-.8-.51-1.12.07-.11,0-.13-.14-.04-.17.1-.26-.01-.26-.32,0-.27-.1-.42-.23-.34-.13.08-.34-.15-.47-.5-.13-.35-.35-.71-.49-.79-.13-.08-.24-.41-.24-.74s-.14-.64-.31-.71c-.17-.07-.25-.27-.18-.45.08-.2-.07-.44-.35-.59-.27-.14-.42-.36-.35-.48.07-.12-.03-.22-.22-.22-.21,0-.36-.2-.36-.47,0-.26-.15-.63-.33-.81-.18-.18-.27-.5-.19-.71.11-.28.05-.34-.24-.23-.28.11-.38.02-.38-.3,0-.25-.15-.45-.34-.45s-.34-.19-.34-.41-.1-.51-.22-.64c-.12-.12-.27-.48-.32-.79-.05-.31-.21-.54-.35-.51-.14.03-.25-.09-.25-.26s-.15-.38-.34-.45c-.19-.07-.34-.33-.34-.58s-.12-.49-.26-.53c-.14-.05-.26-.37-.26-.71,0-.37-.13-.62-.32-.62-.28,0-.43-.43-.34-.97.02-.09-.13-.17-.32-.17-.33,0-.45-.41-.35-1.12.03-.21-.09-.27-.34-.17-.28.11-.35.06-.25-.21.08-.2,0-.41-.2-.49-.19-.07-.34-.39-.34-.7,0-.42-.09-.54-.34-.44-.26.1-.34-.04-.34-.52,0-.37-.15-.71-.34-.79-.19-.07-.28-.28-.21-.48.08-.2-.02-.41-.23-.49-.2-.08-.37-.28-.37-.46s-.15-.32-.34-.32c-.23,0-.34-.23-.34-.71,0-.51-.09-.68-.32-.59-.22.09-.28,0-.2-.32.07-.25,0-.44-.15-.44s-.21-.09-.14-.21c.07-.11-.03-.27-.23-.34-.2-.08-.29-.24-.21-.37.08-.13.02-.21-.14-.17-.16.03-.33-.14-.39-.38-.05-.24-.23-.58-.41-.75-.17-.17-.24-.48-.17-.68.09-.23.05-.32-.1-.22-.27.17-.62-.47-.54-.97.03-.18-.23-.56-.57-.86-.34-.29-.64-.77-.66-1.05-.02-.29-.16-.49-.31-.46-.24.05-.4-.58-.3-1.16.02-.1-.07-.12-.2-.04-.25.15-.71-.79-.54-1.08.06-.09-.05-.11-.24-.04-.25.1-.31,0-.21-.35.09-.34.02-.48-.25-.48-.21,0-.37-.19-.37-.45,0-.25-.14-.53-.32-.63-.18-.1-.36-.44-.4-.76-.04-.32-.26-.77-.47-1.01-.22-.24-.34-.52-.27-.63.07-.11.01-.19-.12-.19s-.24-.16-.24-.36-.1-.29-.23-.22c-.13.08-.29-.04-.37-.27-.37-1.09-.97-2.13-1.08-1.86-.07.16-.13.06-.14-.22-.01-.29-.17-.58-.36-.65-.19-.07-.34-.38-.34-.68s-.09-.55-.21-.55-.28-.31-.36-.69c-.08-.38-.25-.63-.36-.56-.22.13-.29-.17-.22-.87.02-.22-.06-.4-.19-.4s-.27.18-.33.4c-.09.33-.11.32-.13-.07-.01-.26-.18-.67-.36-.92-.18-.24-.34-.62-.34-.83,0-.21-.1-.42-.22-.46-.11-.04-.24-.28-.29-.52-.09-.49-.64-1.14-1.14-1.34-.22-.09-.2-.13.09-.14.49-.02.54-.48.06-.48-.19,0-.34-.15-.34-.34,0-.21-.21-.34-.56-.34-.31,0-.71.15-.9.34m-37.19,24.05c-.14.15-.65.25-1.13.21-.55-.04-.96.05-1.12.26-.14.19-.72.35-1.34.38-.72.03-1.09.15-1.09.35,0,.26-1.37.46-2.16.32-.11-.02-.29.09-.38.24-.09.15-.49.28-.87.28s-.65.08-.58.18c.12.2-.42.35-1.85.52-.5.06-.95.22-.99.35-.05.14-.58.25-1.19.25-.64,0-1.15.11-1.2.27-.05.15-.44.26-.88.26-.43,0-.92.09-1.08.22-.16.12-.29.14-.29.03,0-.11-.09-.07-.19.09-.1.16-.56.31-1.03.32-.54.02-.84.14-.84.34,0,.22-.36.31-1.26.31-.73,0-1.26.1-1.26.24,0,.13.12.17.26.08.16-.1.2-.06.11.09-.09.14-.58.21-1.18.15-.75-.07-1.01-.02-.97.19.04.19-.29.31-.97.36-.59.04-1.11.21-1.21.4-.12.22-.57.33-1.33.33s-1.18.11-1.26.3c-.08.2-.51.3-1.26.29-.68,0-1.22.1-1.32.27-.1.16-.65.3-1.24.32-.62.02-1.05.14-1.02.29.02.14-.38.28-.93.32-.54.04-.97.15-.97.26s-.53.24-1.17.3-1.24.22-1.32.35c-.08.13-.51.27-.95.31-.44.04-.88.18-.97.31-.11.15-.17.13-.17-.05,0-.16-.12-.29-.26-.29s-.19.15-.12.34c.12.3-1.21.53-2.2.37-.09-.01-.15.1-.11.26.04.19-.3.31-.97.36-.57.04-1.09.17-1.16.28-.07.12-.61.24-1.21.27-.68.04-1.08.17-1.08.35,0,.24-1.53.44-2.35.31-.09-.01-.15.1-.11.26.04.19-.3.31-.97.35-.57.03-1.24.16-1.49.29-.4.19-1.16.38-1.79.44-.1,0-.12.12-.04.25.12.2-1.24.36-2.12.25-.16-.02-.29.12-.29.32,0,.31-1.28.52-2.32.39-.08-.01-.22.42-.31.95-.13.79-.2.88-.35.51-.13-.32-.18-.07-.18.77,0,.68-.11,1.3-.24,1.38-.13.08-.27.66-.31,1.29-.04.66-.18,1.12-.32,1.1-.14-.02-.26.32-.28.77-.02.45-.19.94-.4,1.09-.2.15-.35.37-.32.49.13.68-.04,2.18-.24,2.05-.14-.09-.23.34-.23,1.14,0,.93-.09,1.32-.34,1.41-.23.09-.34.45-.34,1.11,0,.54-.13,1.09-.29,1.22-.16.13-.32.48-.35.77-.07.66-.17,1.12-.35,1.56-.08.19-.17.7-.21,1.15-.04.49-.18.78-.35.75-.2-.04-.29.34-.29,1.31,0,1.07-.07,1.34-.31,1.25-.2-.07-.31.04-.31.29,0,1.16-.08,1.69-.26,1.58-.11-.07-.2.06-.2.27,0,1.65-.08,2.12-.41,2.12-.19,0-.34.11-.34.24s.13.17.29.08c.23-.13.23-.1,0,.15-.16.17-.29.7-.29,1.17,0,.61-.09.83-.29.75-.21-.08-.31.22-.34,1.09-.02.66-.15,1.24-.28,1.28-.13.04-.23.57-.23,1.18,0,.7-.13,1.2-.34,1.38-.2.16-.34.66-.34,1.17,0,.64-.08.85-.31.76-.23-.09-.32.17-.35.97-.02.6-.15,1.15-.28,1.23-.13.08-.22.24-.2.36.17.9-.05,2.39-.36,2.39-.24,0-.34.24-.34.78,0,.48-.13.83-.34.91-.24.09-.34.47-.34,1.27,0,.63-.1,1.2-.23,1.28-.13.08-.23.59-.23,1.13,0,.65-.11,1.04-.33,1.12-.2.08-.36.52-.4,1.11-.04.62-.17.97-.35.93-.15-.03-.27.17-.25.46.05,1.19-.06,2.02-.24,1.91-.11-.07-.26.41-.34,1.06-.08.65-.25,1.29-.38,1.42-.13.13-.23.72-.23,1.31,0,.68-.11,1.12-.31,1.19-.47.18-.52,2.91-.05,2.91.2,0,.36.17.36.37,0,.23.13.32.34.24.21-.08.34,0,.34.2,0,.18.1.34.23.34s.23.15.23.34.15.34.34.34.34.17.34.37c0,.23.13.32.34.24.21-.08.34,0,.34.2,0,.18.1.34.23.34s.23.15.23.34.15.34.34.34.34.17.34.37c0,.23.13.32.34.24.21-.08.34,0,.34.2,0,.18.1.34.23.34s.23.15.23.34.15.34.34.34.34.16.34.36.09.31.19.24c.22-.13.96.66.96,1.02,0,.13.11.17.24.09.13-.08.3.06.37.33.07.26.22.42.33.35.11-.07.27.03.34.23.08.2.28.36.45.36.2,0,.26.14.17.38-.1.27-.06.33.14.21.18-.11.33,0,.41.3.07.26.22.42.33.35.11-.07.27.03.34.23s.28.36.45.36c.2,0,.26.15.17.4-.08.22-.06.32.04.23.26-.23.83.28.65.57-.08.13-.05.18.08.1.24-.15.99.61.99,1,0,.13.11.17.24.09.14-.08.3.07.37.33s.22.48.34.48c.31,0,.87.6.87.94,0,.16.07.22.15.13.23-.23.78.32.61.6-.09.15,0,.19.23.1.24-.09.38-.03.38.17,0,.17.16.37.36.45.2.08.3.23.23.34-.07.11.09.26.35.33.31.08.42.23.3.41-.12.2-.06.24.21.14.24-.09.38-.03.38.17,0,.17.16.37.36.45.2.08.3.23.23.34-.07.11.09.26.35.33.26.07.41.23.33.37-.08.13-.04.24.1.24.32,0,1.32.91,1.02.93-.12,0,.02.11.32.23s.47.32.39.44c-.08.13-.03.23.11.23.32,0,1.32.91,1.02.93-.12,0,.02.11.32.23.29.12.47.32.39.44-.08.13-.03.23.11.23.32,0,1.32.91,1.02.93-.12,0,.02.11.32.23.29.12.47.32.39.44-.08.13-.03.23.1.23.33,0,1.15.85.99,1.01-.07.07.09.13.36.13.34,0,.45.1.36.34-.08.22,0,.34.24.34.2,0,.37.11.37.25,0,.32.58.9.9.9.14,0,.25.15.25.34s.15.34.34.34.34.11.34.25c0,.32.58.9.9.9.14,0,.25.15.25.34s.15.34.34.34.34.11.34.25c0,.32.58.9.9.9.14,0,.25.15.25.34s.15.34.34.34.34.11.34.25c0,.32.58.9.9.9.14,0,.25.16.25.36s.1.29.23.21c.13-.08.33.1.44.39.12.29.22.45.23.36.02-.26.93.71.93.99,0,.13.1.18.23.1.13-.08.33.1.44.39.12.29.22.43.23.31.02-.29.93.71.93,1.02,0,.14.1.19.23.11.13-.08.33.1.44.39.12.29.22.43.23.31.02-.29.93.71.93,1.02,0,.14.1.19.23.11.13-.08.33.1.44.39.12.29.22.43.23.32.02-.27.93.69.93.98,0,.12.22.27.48.34s.42.22.35.33c-.07.11.38.21,1.01.22.83,0,1.14-.08,1.14-.31,0-.29,1.24-.47,2.27-.33.2.03.27-.09.18-.32-.11-.29.05-.36.87-.36.55,0,1.04-.1,1.08-.22.04-.12.61-.24,1.27-.26.72-.02,1.17-.14,1.15-.29-.03-.15.43-.28,1.1-.32.64-.04,1.25-.21,1.39-.39.14-.18.72-.35,1.31-.38.58-.03,1.01-.14.94-.24-.11-.18.09-.22,1.33-.26.34-.01.6-.13.57-.26-.02-.14.53-.27,1.3-.31,1.06-.06,1.31-.14,1.21-.4-.11-.29,1.17-.46,2.3-.31.08.01.21-.09.3-.22.08-.13.48-.27.88-.3.4-.03.78-.19.84-.35.07-.18.51-.3,1.13-.3.69,0,1.06-.11,1.15-.34.1-.25.48-.34,1.38-.34.69,0,1.28-.11,1.33-.24.04-.13.52-.25,1.05-.26.53,0,.97-.11.97-.23s.09-.16.21-.09c.12.07.25.02.29-.12.05-.14.46-.25.93-.25.51,0,.83-.1.79-.26-.03-.16.39-.29,1.1-.34.63-.04,1.22-.2,1.31-.36.1-.17.55-.27,1.14-.24.63.03,1.06-.07,1.22-.28.15-.2.67-.34,1.35-.35.71-.01,1.15-.14,1.23-.34.07-.19.47-.31.99-.31.48,0,.91-.12.96-.26.05-.14.58-.27,1.17-.29.6-.02,1.17-.16,1.26-.31.1-.15.66-.31,1.25-.34.68-.04,1.08-.17,1.08-.35,0-.25,1.25-.42,2.21-.31.14.02.32-.13.4-.33.1-.27.31-.33.81-.22.42.09.73.04.84-.13.12-.19.07-.22-.15-.09-.23.13-.25.11-.09-.07.13-.14.73-.28,1.35-.31.61-.03,1.25-.19,1.4-.34.16-.16.75-.31,1.32-.34.79-.04,1.01-.13.91-.38-.1-.27.05-.3.81-.17.71.12.98.07,1.12-.18.11-.19.55-.38.98-.42.68-.06.82-.18.98-.83.11-.41.29-.69.41-.62.13.08.22-.25.22-.77,0-.58.12-.95.33-1.03.23-.09.32-.42.28-1.08-.03-.61.05-1,.25-1.07.16-.06.28-.23.27-.38-.13-1.08.06-2.21.37-2.21.26,0,.34-.29.34-1.26,0-.91.09-1.26.31-1.26.17,0,.31-.18.31-.4,0-1.22.08-1.68.3-1.54.13.08.22.06.2-.04-.17-.97.06-2.14.42-2.14.34,0,.35-.04.06-.23-.21-.13-.24-.22-.07-.23.16,0,.3-.44.34-1.09.04-.69.17-1.07.34-1.03.15.03.27-.17.25-.46-.05-1.29.06-2.25.26-2.12.12.07.25-.31.29-.85.04-.55.18-.96.32-.93.15.03.27-.4.29-1.02.03-.67.17-1.14.38-1.26.23-.13.34-.56.34-1.32,0-.62.1-1.13.23-1.13s.22-.08.2-.17c-.15-.92.07-2.35.36-2.35.23,0,.35-.31.4-.97.04-.54.18-.96.31-.93.14.02.25-.45.26-1.11,0-.63.13-1.22.26-1.31.14-.08.28-.67.32-1.29.05-.76.17-1.12.36-1.08.19.04.29-.24.29-.84,0-.5.12-.94.28-.99.16-.05.31-.59.34-1.22.03-.62.17-1.16.29-1.21.13-.04.23-.63.23-1.29,0-.87.1-1.25.34-1.35.24-.09.34-.47.34-1.29s.1-1.2.34-1.29c.19-.07.34-.38.34-.68s.1-.73.22-.95c.12-.22.28-.89.36-1.49.08-.61.24-1.03.36-.96.12.07.21.05.19-.05-.14-.83.06-2.37.32-2.37.2,0,.32-.37.36-1.08.03-.6.16-1.15.3-1.23s.29-.62.36-1.2c.07-.58.2-1,.3-.94.1.06.17-.66.16-1.61,0-.95-.07-1.67-.13-1.61-.18.18-.96-.6-.96-.96,0-.17-.18-.38-.4-.46-.59-.21-1.43-1.02-1.43-1.38,0-.17-.18-.38-.4-.45-.59-.21-1.43-1.02-1.43-1.38,0-.17-.18-.37-.4-.45-.59-.21-1.43-1.02-1.43-1.38,0-.17-.18-.37-.4-.45-.59-.21-1.43-1.02-1.43-1.38,0-.17-.18-.37-.4-.45-.54-.19-1.43-1.01-1.43-1.32,0-.14-.21-.43-.46-.65-.25-.22-.46-.34-.46-.28s-.21-.07-.46-.28c-.25-.22-.46-.5-.46-.63,0-.32-.84-1.03-1.01-.86-.07.07-.13,0-.13-.15s-.1-.22-.21-.15c-.12.07-.29-.1-.38-.39-.2-.64-1.03-1.54-1.42-1.55-.16,0-.36-.18-.44-.41-.21-.57-1.04-1.42-1.39-1.43-.16,0-.36-.18-.44-.4-.21-.57-1.04-1.42-1.39-1.43-.16,0-.36-.18-.44-.41-.21-.57-1.04-1.42-1.39-1.43-.16,0-.36-.18-.44-.41-.19-.52-1.03-1.42-1.33-1.43-.13,0-.41-.21-.63-.46-.22-.25-.34-.46-.27-.46.3,0-.75-.88-1.22-1.02-.29-.09-.47-.24-.4-.35.06-.1-.04-.25-.23-.32-.19-.07-.34-.29-.34-.49s-.31-.47-.69-.6c-.38-.13-.64-.32-.57-.42.06-.1-.04-.24-.23-.31-.19-.07-.34-.3-.34-.49s-.31-.47-.69-.6c-.38-.13-.63-.33-.56-.45.07-.11.02-.21-.12-.21s-.35-.26-.47-.57c-.12-.32-.36-.57-.53-.57-.36,0-1.17-.85-1.38-1.43-.08-.22-.27-.4-.44-.41-.35,0-1.18-.86-1.39-1.43-.08-.22-.28-.4-.44-.41-.36,0-1.33-.99-1.33-1.35,0-.14-.18-.33-.4-.41-.57-.21-1.42-1.04-1.43-1.39,0-.16-.26-.39-.58-.51-.31-.12-.57-.33-.57-.47s-.09-.19-.21-.12c-.11.07-.31-.18-.45-.56-.13-.38-.4-.69-.6-.69s-.42-.15-.49-.34c-.07-.19-.21-.29-.31-.23-.1.06-.29-.2-.42-.57-.13-.38-.38-.69-.54-.69-.3,0-1.13-.81-.98-.95.04-.04-.15-.09-.42-.11-.27-.02-.61.09-.76.25m54.85,53.82c.07.11-.08.25-.32.31-.35.09-.45.34-.49,1.18-.02.58-.12,1.12-.21,1.19-.09.07-.2.38-.23.7-.13,1.13-.3,1.62-.52,1.49-.13-.08-.22.37-.22,1.14,0,.88-.09,1.26-.28,1.22-.18-.04-.31.37-.36,1.2-.04.69-.18,1.29-.3,1.34-.12.04-.22.47-.22.96,0,1.04-.2,1.65-.48,1.47-.11-.07-.2.29-.2.8,0,.69-.09.93-.35.93-.28,0-.34.23-.3,1.05.03.64-.06,1.12-.23,1.22-.16.1-.27.27-.25.38.16.86-.05,2.16-.36,2.16-.26,0-.34.29-.34,1.26s-.08,1.26-.34,1.26c-.25,0-.34.25-.34.9,0,.5-.1.97-.23,1.05-.13.08-.23.65-.23,1.27,0,.93-.06,1.1-.36.99-.23-.09-.34-.02-.32.18.13.96-.04,2.27-.3,2.27-.17,0-.31.34-.33.84-.03.46-.16.91-.31,1-.14.09-.25.23-.24.31.15,1.16-.02,2.41-.32,2.29-.28-.11-.34.08-.34.96,0,.76-.12,1.19-.4,1.42-.22.18-.26.25-.08.16.23-.12.27-.08.12.15-.11.18-.23.68-.26,1.11-.04.43-.17.89-.3,1.02-.13.13-.23.57-.23.99,0,.52-.11.76-.34.76-.19,0-.34.1-.34.23s.13.23.29.23c.21,0,.22.05.02.17-.15.09-.3.58-.34,1.09-.04.5-.18.9-.31.87-.13-.02-.26.48-.28,1.14-.02.65-.15,1.22-.28,1.26-.13.04-.23.63-.23,1.31,0,.92-.08,1.2-.3,1.12-.2-.08-.31.15-.35.75-.03.47-.2.94-.38,1.04-.26.15-.32,1.34-.34,6.42-.01,3.61-.11,6.27-.23,6.31-.12.04-.22,3.35-.23,7.99-.02,7.8-.05,8.46-.48,8.2-.13-.08-.21,2.96-.21,7.8,0,6.65-.05,7.95-.33,8.05-.27.1-.33,1.41-.35,7.95-.01,4.3-.11,7.88-.22,7.95-.11.07-.27,3.71-.37,8.09-.09,4.38-.25,8.02-.35,8.08-.37.23-.27,9.27.11,9.42.43.16,1.53-.62,1.4-.99-.05-.15.05-.43.24-.61.18-.18.33-.48.33-.67s.15-.46.34-.62c.19-.16.35-.5.36-.77.01-.27.07-.36.13-.2.18.43.57.34.5-.11-.04-.22.11-.66.33-.97s.4-.7.4-.85.26-.46.57-.66c.39-.25.57-.59.57-1.03,0-.36.13-.73.29-.83.41-.26.86-1.13.86-1.66,0-.31.11-.41.34-.32.22.08.34,0,.34-.24,0-.2.11-.37.24-.37s.19-.09.12-.19c-.07-.11.06-.39.27-.63.22-.24.43-.69.47-1.01.04-.31.22-.66.4-.76.18-.1.32-.38.32-.63s.16-.45.36-.45c.26,0,.32-.13.2-.49-.12-.39-.08-.46.21-.35.2.08.36.07.34-.02-.09-.63.07-1.17.32-1.07.19.07.31-.11.34-.51.03-.34.17-.73.31-.86.19-.17.21-.15.08.08-.13.22-.1.27.1.15.15-.1.23-.32.16-.49-.07-.17.16-.6.5-.94.34-.34.63-.73.64-.86.01-.13.04-.37.06-.53.02-.16.19-.29.38-.29.21,0,.34-.22.34-.57,0-.32.1-.57.23-.57s.23-.2.23-.45c0-.32.11-.41.36-.31.23.09.34.02.32-.18-.1-.69.02-1.12.3-1.06.16.03.29-.14.29-.38,0-.24.13-.48.29-.54.16-.05.29-.4.29-.76,0-.44.12-.67.34-.67.19,0,.34-.14.34-.32s.17-.38.37-.46c.22-.08.31-.29.23-.49-.08-.2.01-.41.21-.48.19-.07.34-.42.34-.79,0-.49.09-.62.34-.52.24.09.34-.02.34-.38,0-.28.23-.73.52-1,.29-.27.54-.73.56-1.02.02-.3.19-.66.38-.8.18-.14.38-.47.43-.72.05-.25.21-.43.35-.41.15.03.22-.15.17-.42-.07-.35,0-.44.26-.34.19.07.29.03.21-.09-.17-.27.3-1.2.54-1.06.09.06.19-.12.21-.39.02-.27.18-.6.35-.73.17-.13.3-.47.28-.75-.02-.28.05-.52.15-.52.45,0,1.11-.84,1.11-1.42,0-.49.08-.6.38-.48.29.11.35.05.24-.23-.08-.21,0-.53.19-.71.18-.18.33-.55.33-.81s.15-.47.34-.47.34-.14.34-.32.17-.38.37-.46c.23-.09.33-.31.25-.6-.08-.3,0-.46.21-.46.18,0,.32-.13.3-.29-.09-.69.04-1.09.36-1.09.21,0,.34-.22.34-.57s.13-.57.34-.57c.19,0,.34-.2.34-.47,0-.3.1-.41.26-.31.16.1.2.06.11-.08-.22-.35.07-.97.45-.97.19,0,.32-.24.32-.57s.13-.57.33-.57.3-.17.25-.45c-.05-.28.02-.41.19-.34.16.06.29-.1.32-.39.02-.28.15-.57.29-.66.14-.09.33-.46.44-.82.1-.37.28-.65.4-.63.12.02.23-.18.25-.46.02-.27.14-.53.28-.58.13-.04.24-.27.24-.51,0-.31.11-.39.38-.28.29.11.35.05.24-.24-.08-.21-.05-.62.06-.9.11-.28.21-.39.22-.23,0,.16.13.29.27.29s.2-.15.12-.34c-.07-.18.05-.51.26-.73s.37-.42.33-.46c-.2-.25,0-.99.26-.99.17,0,.37-.22.44-.48.08-.31.23-.42.41-.31.2.12.24.06.14-.21-.18-.47.04-1.11.32-.94.11.07.21-.14.21-.46,0-.37.13-.59.34-.59.23,0,.34-.23.34-.69s.11-.69.34-.69c.19,0,.34-.16.34-.36s.1-.29.23-.22c.13.08.23-.15.23-.56,0-.47.11-.7.34-.7.21,0,.34-.21.34-.55,0-.3.15-.61.34-.68.19-.07.34-.34.34-.6s.1-.47.23-.47.23-.15.23-.34.15-.34.33-.34.36-.27.4-.63c.04-.35.18-.61.31-.59.13.02.26-.21.28-.53.03-.31.33-.83.68-1.15.51-.47.55-.56.17-.45-.43.13-.43.11-.06-.18.22-.17.4-.43.4-.57s.13-.26.3-.26.31-.23.33-.5c.02-.28.2-.59.39-.7.2-.11.35-.4.35-.65s.1-.45.23-.45.23-.14.23-.32.17-.38.37-.46c.2-.08.31-.28.25-.45-.06-.17.09-.48.33-.69.3-.25.4-.54.31-.84-.1-.31-.04-.45.2-.45.19,0,.41-.21.49-.46.08-.25.24-.4.36-.33.12.07.21-.07.21-.32,0-.7.25-1.19.52-1.03.15.09.19-.03.12-.33-.08-.29,0-.53.19-.6.18-.07.32-.38.32-.7,0-.41.09-.54.34-.44.22.08.34,0,.34-.24,0-.2.11-.37.24-.37s.18-.1.11-.21c-.07-.12-.03-.28.1-.36.13-.08.18-.24.1-.36-.07-.12-.02-.21.12-.21s.19-.1.11-.23c-.08-.13-.03-.23.1-.23s.24-.2.24-.43.15-.49.34-.57c.19-.07.34-.34.34-.6s.15-.47.35-.47.33-.16.29-.4c-.04-.22.04-.38.17-.36.13.02.26-.24.29-.57.03-.34.2-.73.39-.87.19-.14.34-.38.34-.52s.16-.33.36-.41c.2-.08.3-.28.24-.44-.06-.17.01-.44.17-.6.16-.16.36-.48.45-.71.09-.23.26-.35.39-.27.13.08.23-.11.23-.44,0-.37.13-.59.34-.59.19,0,.34-.2.34-.45,0-.7.49-1.68,1.13-2.26.32-.29.61-.71.65-.92.3-1.8.29-2.25-.05-2.68l-.36-.46.12.46c.07.25-.04.12-.23-.29-.22-.48-.51-.75-.81-.75-.26,0-.46-.15-.46-.36s-.1-.29-.23-.22c-.13.08-.29-.02-.37-.22s-.28-.36-.46-.36-.32-.09-.32-.21c0-.28-1.35-1.62-1.62-1.62-.12,0-.21-.15-.21-.34s-.15-.34-.34-.34-.32-.13-.29-.29c.03-.16-.07-.26-.23-.23-.16.03-.29-.1-.29-.29s-.14-.34-.32-.34-.38-.16-.46-.36c-.08-.2-.25-.29-.4-.19-.17.11-.2.06-.09-.12.18-.29-.57-1.16-1.01-1.16-.13,0-.24-.1-.24-.22,0-.36-1.33-1.61-1.7-1.61-.23,0-.3-.13-.2-.38.11-.29.05-.35-.22-.24-.25.1-.42,0-.52-.31-.08-.25-.24-.39-.37-.31-.23.14-1.81-1.38-1.81-1.75,0-.12-.11-.21-.24-.21-.3,0-1.6-1.31-1.6-1.61,0-.12-.08-.2-.17-.17-.28.08-1.2-.6-1.2-.88,0-.15-.16-.33-.36-.4-.2-.08-.29-.25-.21-.38.09-.14,0-.22-.19-.17-.38.08-1.53-1.12-1.53-1.6,0-.16-.18-.27-.4-.23-.24.04-.38-.06-.34-.24.04-.17-.03-.25-.15-.17-.11.07-.34-.02-.49-.21-.16-.19-.21-.34-.13-.34.34,0-1.13-1.29-1.5-1.31-.4-.03-4.33-3.86-4.33-4.22,0-.11-.15-.2-.34-.2s-.34-.17-.34-.37-.13-.32-.3-.25c-.17.07-.42-.16-.59-.55-.17-.39-.47-.66-.73-.66-.29,0-.39-.11-.3-.35.07-.19.05-.34-.06-.32-.62.11-1-.06-1-.46,0-.24-.1-.51-.23-.59-.13-.08-.23-.02-.23.14,0,.4-.25.09-.32-.4-.03-.23-.31-.49-.61-.57-.3-.09-.41-.16-.23-.18.4-.03.19-.27-.3-.34-.35-.05-2.16-1.52-1.88-1.52.08,0-.07-.21-.32-.46-.25-.25-.56-.46-.69-.46s-.23-.1-.23-.23c0-.35-.75-1.14-.96-1.01-.1.06-.19-.04-.19-.24s-.15-.36-.34-.36-.34-.11-.34-.25c0-.38-1.29-1.59-1.69-1.59-.2,0-.3-.13-.24-.3.07-.2-.08-.3-.45-.3-.31,0-.51.09-.44.2m-144.01,25.74c-.1.26-.61.33-2.26.33s-2.22.09-2.48.34c-.27.27-.94.34-2.98.34-1.48,0-2.67.1-2.71.22-.04.12-1.29.25-2.77.28-1.98.05-2.69.14-2.69.35,0,.27-2.08.41-4.76.32-.51-.02-.74.08-.74.31,0,.28-.45.34-2.5.34-1.59,0-2.53.09-2.58.25-.05.15-1.09.26-2.77.29-2.04.03-2.66.11-2.58.33.1.27-2.47.42-4.89.29-.63-.04-.75.03-.64.32.13.33-3.69.6-5.31.38-.17-.02-.24.07-.16.2.1.16-.23.25-.95.26-.61.01-1.77.03-2.59.04-.93.01-1.58.14-1.72.32-.16.21-1.02.31-3.04.32-1.73.02-2.81.11-2.81.26,0,.13.16.17.36.1.2-.08.3-.04.22.09-.08.13-1.27.23-2.72.23-1.54,0-2.68.1-2.82.25-.14.14-1.34.26-2.8.29-1.7.03-2.61.13-2.73.31-.11.18-1.03.29-2.76.31-1.97.03-2.62.11-2.71.36-.08.2-.49.32-1.15.32H0l.14.97c.08.54.14,1.15.15,1.37,0,.22.13.47.26.55.16.1.18.05.06-.15-.12-.2-.1-.25.08-.14.15.09.26.38.26.63,0,.32.11.43.34.34.25-.1.34.02.34.42,0,.3.1.62.23.69.13.08.23.4.23.73,0,.42.09.55.34.45.25-.1.34.03.34.5,0,.59.66,1.42,1.13,1.42.12,0,.17.24.11.54-.07.4.08.68.59,1.07.38.29.69.72.69.97s.15.59.33.77c.18.18.27.5.19.71-.09.24-.05.32.11.22.27-.17.87.71.64.94-.07.07.08.28.33.46.31.22.42.47.33.77-.1.31-.03.44.23.44.21,0,.32.08.26.19-.06.1.08.36.33.57.28.24.39.52.29.77-.11.3-.06.35.23.24.31-.12.38,0,.38.53,0,.45.12.68.34.68.2,0,.28.14.21.34-.08.2.16.63.58,1.05.4.4.71.95.71,1.27s.09.56.2.56.27.26.35.58c.08.32.24.53.34.46.28-.17.49.48.31.95-.11.28-.05.35.2.25.25-.09.46.16.76.88.23.56.5,1.01.61,1.01s.19.24.19.54.24.72.55.95c.3.23.61.71.68,1.08.07.37.24.6.36.52.22-.14.33.33.24,1-.02.17.07.24.2.16.27-.17.72.79.52,1.12-.07.11,0,.13.16.03.18-.11.33,0,.41.31.07.26.22.48.33.48s.2.2.2.45.15.53.34.64c.19.11.37.47.39.82.03.4.16.59.34.51.26-.1.42.47.31,1.09-.02.1.07.12.2.04.13-.08.23.06.23.33s.15.47.34.47.34.2.34.45.13.53.29.63c.29.19.74.82,1.02,1.44.08.19.23.4.32.46.09.06.2.32.25.57.04.25.21.56.38.69.16.13.31.46.34.75.02.28.12.51.22.51s.18.2.18.44.12.52.27.61c.18.11.22.04.12-.23-.09-.23-.06-.34.08-.25.12.08.23.34.23.59s.15.51.34.58c.19.07.34.38.34.68s.1.55.23.55.23.21.23.47.27.72.61,1.03c.33.31.49.56.34.56s-.26.1-.26.23.15.23.34.23.34.15.34.32.11.36.24.4c.13.04.26.31.28.6.02.32.15.47.33.41.28-.11.4.29.3.99-.03.2.09.27.32.18.25-.1.36,0,.36.29,0,.24.13.48.29.55.23.09.23.12,0,.13-.39.02.16.93.57.93.17,0,.29.29.29.71,0,.54.08.68.34.58.31-.12.48.37.37,1.06-.02.09.12.17.31.17.21,0,.29.13.2.35-.08.22-.02.33.17.29.17-.04.34.14.4.39.05.25.24.54.41.64.17.1.32.36.33.57,0,.21.16.59.34.82.18.24.27.53.2.65-.15.24.68,1.1,1.05,1.1.13,0,.24.31.24.7,0,.41.1.64.23.56.13-.08.23.12.23.46s.09.54.21.47c.24-.15.48.39.48,1.05,0,.25.1.39.23.31.13-.08.3.04.38.27.08.23.28.49.44.59.16.1.25.38.2.63-.06.28.04.46.24.46.18,0,.33.17.33.38s.15.49.34.63c.19.14.37.54.39.88.03.34.19.68.36.74.17.07.24.22.17.35-.08.13.02.23.22.23.34,0,.45.25.37.86-.02.16.12.29.32.29.31,0,.47.43.38.99-.02.1.07.12.2.04.21-.13.33.17.26.63-.01.09.09.15.23.11.14-.03.36.25.5.63.13.38.37.82.53.98.16.16.23.47.15.67-.1.25-.06.32.12.21.24-.15.37.12.3.61-.02.09.08.17.21.17s.33.26.45.57c.12.32.32.57.45.57s.23.25.23.55.15.61.34.68.28.28.22.45c-.07.18.04.48.23.68.2.2.36.52.36.72s.15.43.34.5c.19.07.34.28.34.46s.1.27.23.19c.22-.14.32.16.25.73-.02.15.09.34.24.44.18.11.21.06.09-.15-.13-.23-.11-.26.08-.08.14.13.28.52.31.86.03.4.16.59.34.51.18-.07.29.07.29.34,0,.25.13.45.29.45.19,0,.17.08-.06.23-.31.2-.17.33.28.26.09-.01.1.13.03.32-.08.21,0,.34.24.34.33,0,.51.57.39,1.23-.02.11.12.14.32.06.32-.12.48.22.38.83-.02.1.28.48.66.85.42.41.63.81.55,1.03-.09.23,0,.35.23.35.2,0,.37.15.37.34s.2.7.45,1.15c.25.44.4.81.33.81s.03.15.22.34c.19.19.45.34.59.34.24,0,.35.47.26,1.11-.02.17.07.24.2.16.13-.08.24,0,.24.18s.21.59.46.91c.28.36.4.74.31.99-.11.28-.07.35.13.23.18-.11.33,0,.41.31.07.26.21.48.31.48.24,0,.91,1.34.91,1.82,0,.21.31.63.68.94.37.31.68.73.69.94,0,.21.11.42.24.46.12.04.25.36.28.71.03.35.17.63.32.63.34,0,.6.65.4.97-.09.15-.04.18.13.07.18-.11.33,0,.41.31.1.39.28.48.89.44.42-.03.72-.12.67-.2-.05-.08.11-.37.36-.63.25-.27.45-.57.45-.67s.32-.38.7-.6c.46-.27.66-.54.57-.76-.09-.24-.03-.31.21-.21.25.1.35-.03.36-.49,0-.34.07-.49.13-.34.2.49.5.31.58-.34.04-.39.19-.6.39-.56.2.04.26-.06.18-.29-.08-.22,0-.35.2-.35.18,0,.34-.15.34-.34s.16-.34.36-.34.29-.1.22-.23c-.08-.13,0-.23.16-.23.38,0,1.04-.74.93-1.06-.1-.3.96-1.46,1.34-1.46.15,0,.21-.07.12-.15-.22-.22.79-1.23,1.06-1.06.13.08.16.03.07-.11-.09-.14.04-.46.29-.7.25-.25.39-.51.32-.58-.07-.07.04-.19.25-.27.21-.08.38-.24.38-.35,0-.27.86-1.12,1.14-1.12.12,0,.16-.17.07-.38-.11-.29-.05-.35.24-.24.31.12.38,0,.38-.53,0-.45.12-.68.34-.68.19,0,.34-.1.34-.23s.16-.23.36-.23.29-.1.22-.23c-.08-.13.02-.29.22-.37.2-.08.36-.28.36-.46s.15-.32.34-.32.34-.16.34-.36.08-.31.19-.24c.17.1,1.12-.8,1-.95-.19-.23.02-.75.3-.75.19,0,.34-.15.34-.34s.15-.34.34-.34.34-.15.34-.34.1-.34.23-.34.23-.15.23-.34c0-.22.13-.29.38-.19.25.1.33.06.22-.11-.09-.14.05-.37.31-.51.26-.14.47-.43.47-.64,0-.49.53-1.2.88-1.2.14,0,.26-.15.26-.34s.11-.34.25-.34c.32,0,.9-.58.9-.9,0-.14.15-.25.34-.25s.34-.1.34-.23-.11-.23-.24-.23c-.14,0-.11-.14.06-.32.16-.18.33-.23.37-.11.13.35.5-.02.5-.5,0-.25.1-.44.23-.44s.23-.15.23-.34.11-.34.24-.34.47-.22.75-.49c.28-.27.36-.41.18-.31-.22.12-.27.1-.16-.08.09-.15.31-.26.49-.26s.32-.08.3-.17c-.08-.51.06-.72.4-.59.26.1.34.04.26-.18-.15-.42.24-1.18.52-1,.12.07.22,0,.22-.17,0-.39.93-1.43,1.43-1.63.22-.08.39-.31.39-.51s.08-.31.18-.25c.1.06.2-.08.21-.31.03-.46.84-1.37,1.21-1.37.13,0,.23-.13.23-.29s.26-.49.58-.73c.32-.24.49-.5.37-.57-.12-.07-.07-.26.11-.43.2-.19.32-.21.32-.04,0,.14.11.18.25.1.13-.08.19-.3.12-.48-.07-.18.03-.39.21-.46.19-.07.34-.27.34-.45s.14-.32.32-.32.37-.21.44-.46c.07-.25.34-.54.62-.64s.49-.26.48-.34c-.05-.5.02-.59.34-.47.23.09.34.02.32-.18-.09-.63.02-.89.35-.89.19,0,.34-.15.34-.34s.11-.34.23-.34.35-.26.5-.57c.14-.32.38-.57.52-.57.28,0,.91-.66.99-1.03.03-.13.2-.41.39-.63.19-.22.35-.46.35-.53s.28-.39.63-.71c.35-.32.6-.69.57-.81-.03-.12.04-.16.16-.08.12.07.28.03.36-.1.08-.13,0-.24-.16-.26-.17-.01-.04-.09.27-.18.36-.1.6-.35.65-.68.04-.29.22-.58.4-.65.18-.07.27-.22.2-.33-.07-.11.03-.2.23-.2s.36-.15.36-.34.14-.34.31-.34.42-.26.57-.57c.14-.31.43-.57.63-.57s.32-.13.26-.29c-.14-.39.27-1.13.53-.97.12.07.22-.03.22-.22s.17-.36.37-.36c.23,0,.32-.13.24-.34-.09-.22.11-.47.56-.7.38-.2.63-.45.55-.57-.07-.12.03-.22.23-.22s.31-.1.23-.23c-.08-.13-.03-.23.1-.23s.23-.08.22-.17c-.07-.46.05-.76.26-.63.13.08.23-.02.23-.22s.16-.36.36-.36.29-.11.21-.24c-.08-.14.07-.3.34-.37.3-.08.45-.25.38-.44-.07-.19.15-.45.56-.66.37-.19.68-.51.68-.71s.13-.49.29-.65c.16-.16.44-.52.62-.79.18-.27.47-.49.63-.49s.29-.15.29-.34.11-.34.25-.34c.3,0,.92-.6.88-.85-.09-.56.06-.99.37-.99.19,0,.34-.1.34-.23s.15-.23.34-.23.32-.08.3-.17c-.07-.23.57-1.2.79-1.2.48,0,1.07-.81.95-1.31-.1-.39-.03-.53.24-.53s.37-.22.37-.82c0-.72-.4-1.47-.79-1.47-.17,0-1.05-.88-1.05-1.05s-.62-.79-.78-.79c-.27,0-1.05-.8-1.05-1.08,0-.16-.16-.29-.36-.29s-.29-.1-.22-.23c.08-.13.03-.23-.1-.23-.36,0-1.16-.75-1.16-1.08,0-.16-.13-.27-.29-.24-.16.03-.26-.07-.23-.23.03-.16-.04-.29-.17-.29-.35,0-1.15-.75-1.15-1.08,0-.16-.13-.27-.29-.24-.16.03-.26-.07-.23-.23.03-.16-.05-.29-.17-.29s-.44-.21-.69-.46-.46-.56-.46-.69-.13-.2-.29-.17c-.16.03-.26-.07-.23-.23.03-.16-.07-.29-.24-.29-.33,0-1.08-.8-1.08-1.15,0-.12-.13-.2-.29-.17-.16.03-.26-.07-.23-.23.03-.16-.07-.29-.24-.29-.28,0-1.08-.78-1.08-1.05,0-.2-.63-.78-.85-.78-.21,0-.98-.83-.98-1.05,0-.27-.67-.78-1.02-.78-.2,0-.36-.15-.36-.34s-.1-.34-.23-.34-.23-.11-.23-.25c0-.29-.57-.9-.85-.9-.21,0-.98-.83-.98-1.05,0-.17-.62-.78-.79-.78-.22,0-1.05-.9-1.05-1.15,0-.13-.09-.23-.2-.23-.25,0-7.83-7.51-7.83-7.76,0-.1-.26-.32-.57-.49-.32-.17-.57-.39-.57-.5s-.15-.19-.34-.19-.34-.2-.34-.46-.08-.46-.17-.46c-.25,0-1.66-1.24-1.66-1.46s-.59-.84-.79-.84c-.23,0-1.05-.91-1.05-1.16,0-.13-.1-.18-.23-.1-.13.08-.23-.02-.23-.22s-.1-.36-.23-.36c-.3,0-1.15-.85-1.15-1.16,0-.13-.1-.18-.23-.1-.13.08-.23-.02-.23-.22s-.1-.36-.23-.36c-.3,0-1.15-.85-1.15-1.16,0-.13-.1-.18-.23-.1-.13.08-.23-.02-.23-.22s-.15-.36-.34-.36-.34-.15-.34-.34-.15-.34-.34-.34c-.21,0-.34-.21-.34-.55,0-.3-.12-.59-.26-.64-.14-.05-.27-.34-.29-.65-.03-.69-3.93-.99-4.19-.32m113.2,36.21c-.1.17-.64.33-1.24.36-.59.03-1.02.14-.96.24.11.18-.72.3-1.57.23-.22-.02-.4.12-.4.31,0,.3-1.47.52-2.38.36-.11-.02-.14.12-.06.32.12.31-1.11.49-2.29.33-.08-.01-.22.1-.31.25-.09.15-.59.29-1.11.32-.52.03-1.02.14-1.12.24-.1.11,0,.13.24.05.25-.09.36-.06.27.08-.08.12-.6.23-1.16.23-.7,0-1.07.11-1.16.34-.09.24-.47.35-1.2.35-.59,0-1.26.16-1.5.34-.25.19-.67.27-.96.2-.64-.16-1.52.09-1.34.39.11.18-1.31.34-2.13.23-.16-.02-.26.1-.23.26.04.2-.26.32-.91.37-.66.05-.97.18-.97.4,0,.25-.22.3-.99.19-.74-.1-1.08-.04-1.36.23-.2.2-.7.37-1.11.37s-.91.15-1.11.33c-.2.18-.9.35-1.56.38-.89.04-1.14.12-.97.33.17.2.08.24-.35.16-.31-.06-.75-.03-.98.07-.22.1-.5.15-.61.13-.11-.03-.27.06-.36.19-.08.13-.63.26-1.22.28-.73.03-1.08.14-1.08.35s-.3.31-.89.31-.94.12-1.02.34c-.09.24-.47.34-1.29.34-.63,0-1.15.1-1.15.22s-.54.25-1.2.29c-.81.05-1.18.16-1.15.36.05.26-1.2.43-2.18.3-.16-.02-.29.12-.29.32,0,.31-1.13.48-2.21.33-.08-.01-.21.09-.29.22-.08.13-.53.26-1,.3-.52.03-.85.17-.85.35,0,.21-.38.3-1.27.3-.73,0-1.22.09-1.14.21.21.34-.14.44-1.67.5-.78.03-1.42.14-1.42.24s-.62.19-1.38.19-1.37-.1-1.37-.23c0-.5-2.02-.26-2.19.26-.11.34-.21.4-.33.21-.12-.19-.21-.12-.3.22-.08.32-.23.44-.41.33-.2-.12-.24-.06-.14.2.09.24-.1.62-.53,1.05-.37.37-.68.75-.68.83,0,.28-1.54,1.7-1.69,1.55-.08-.08-.15.03-.15.24s-.16.38-.35.38-.34.13-.32.29c.08.61-.03.86-.39.86-.2,0-.32.13-.27.29.13.38-.57,1.03-.96.9-.18-.06-.24,0-.14.16.09.14,0,.32-.19.39-.19.07-.41.33-.49.57-.08.24-.21.39-.3.34-.09-.06-.18.11-.2.37-.03.44-.77,1.33-1.1,1.33-.23,0-.8.64-.8.9,0,.14-.18.25-.4.25-.34,0-.35.04-.06.23.23.15.25.22.06.23-.16,0-.29.16-.29.35s-.16.34-.36.34-.29.1-.22.23c.08.13-.02.29-.22.37s-.36.28-.36.46-.11.32-.25.32c-.38,0-1.59,1.29-1.59,1.69,0,.23-.13.31-.36.22-.23-.09-.34-.02-.32.18.09.63-.02.89-.37.89-.2,0-.3.09-.23.2.07.11-.18.43-.55.72-.37.29-.63.6-.56.7.06.1-.1.25-.37.33-.31.1-.43.28-.34.5.09.23.03.31-.17.23-.17-.07-.31.06-.33.3-.03.46-.84,1.37-1.21,1.37-.13,0-.2.08-.18.17.08.27-.8,1.19-1.01,1.06-.1-.06-.19.09-.19.34s-.12.53-.26.62c-.17.11-.2.06-.08-.14.12-.2.1-.25-.08-.14-.15.09-.26.36-.26.61s-.1.44-.23.44-.23.15-.23.34-.15.34-.34.34-.34.15-.34.34-.15.34-.34.34-.32.13-.29.29c.03.16-.07.26-.23.23-.16-.03-.29.17-.29.47,0,.51-.7,1.31-1.15,1.31-.12,0-.23.15-.23.34s-.1.34-.23.34-.23.15-.23.34-.15.34-.34.34-.34.15-.34.34-.13.32-.29.29-.26.07-.23.23c.03.16-.08.29-.24.29s-.31.22-.33.49c-.04.52-.79,1.35-1.22,1.35-.14,0-.2.15-.13.34.08.21,0,.34-.2.34-.18,0-.34.15-.34.34,0,.22-.13.29-.38.19-.28-.11-.35-.05-.25.21.09.24-.01.4-.3.48-.26.07-.44.31-.44.6,0,.42-1.17,1.85-1.51,1.85-.28,0-.78.69-.78,1.08,0,.43-.89,1.36-1.2,1.27-.09-.03-.17.1-.17.29s-.1.34-.23.34-.23.15-.23.34-.11.34-.25.34c-.24,0-1.51,1.16-1.51,1.38,0,.47-.32,1.17-.5,1.06-.12-.07-.27.08-.34.34-.07.26-.23.41-.37.33-.13-.08-.24,0-.24.17s-.41.66-.92,1.09c-.5.42-.91.88-.89,1.02.06.54-.04.84-.23.72-.11-.07-.39.15-.61.5-.23.34-.62.8-.88,1.02-.26.22-.39.4-.28.41.11,0,.08.16-.07.34-.15.18-.42.27-.6.2-.18-.07-.33-.01-.33.13s.11.25.25.25-.27.51-.92,1.13c-.64.62-1.17,1.24-1.17,1.38s-.11.25-.25.25-.4.15-.59.34c-.19.19-.27.34-.18.34s.03.15-.13.34c-.16.19-.2.34-.1.34s-.04.21-.31.46c-.27.25-.61.46-.74.46s-.18.11-.1.25c.08.14-.07.3-.34.37-.3.08-.45.25-.37.44.07.17.02.31-.1.31-.44,0-1.14.8-1.14,1.31,0,.31-.14.52-.34.52-.19,0-.34.08-.34.18,0,.25-1.31,1.66-1.54,1.66-.36,0-.77.87-.46,1,.21.09.21.12,0,.13-.16,0-.29.17-.29.36s-.1.34-.22.34c-.31,0-1.61,1.3-1.46,1.45.07.07-.2.32-.59.56-.39.24-.64.5-.56.59.08.08.03.15-.13.15s-.23.09-.16.2c.14.22-.74,1.32-.99,1.25-.09-.02-.18.31-.21.74l-.05.79h113.24v-6.88c0-5.93.05-6.88.34-6.88s.35-1.11.4-8.08c.04-6,.13-8.07.33-8.03.2.04.26-1.93.25-7.78-.01-5.8.05-7.85.25-7.92.2-.07.27-2.16.27-7.99,0-6.72.05-7.96.34-8.25.29-.29.34-1.5.34-8.01s.05-7.69.32-7.79c.25-.09.32-.61.31-2.14v-2.02h-1.47c-.98,0-1.52.1-1.63.31"/>
    <path id="path1" class="cls-1" d="m94.5,22.63c0,.15.19.39.44.52.31.17.46.17.46,0,0-.13-.15-.24-.32-.24s-.38-.13-.44-.29c-.09-.22-.12-.22-.13,0m1.83,1.83c0,.15.19.39.44.52.31.17.46.17.46,0,0-.13-.15-.24-.32-.24s-.38-.13-.44-.29c-.09-.22-.12-.22-.13,0M5.04,105.14c.28.06.7.05.92,0,.22-.06-.01-.1-.52-.1-.5,0-.68.05-.4.1m179.88,28.41c-.11.28-.07.32.15.15.16-.13.45-.29.64-.36.23-.09.19-.13-.15-.15-.27-.01-.56.15-.64.36m-164.24,23.89c0,.14.1.26.21.26s.26.18.32.4c.09.34.11.34.13.03.01-.21-.13-.5-.32-.66-.24-.2-.34-.21-.34-.03m165.79,31.89c0,.95.04,1.33.09.86.05-.47.05-1.25,0-1.72-.05-.47-.09-.09-.09.86"/>
    <path id="path2" class="cls-1" d="m94.5,22.63c0,.15.19.39.44.52.31.17.46.17.46,0,0-.13-.15-.24-.32-.24s-.38-.13-.44-.29c-.09-.22-.12-.22-.13,0m1.83,1.83c0,.15.19.39.44.52.31.17.46.17.46,0,0-.13-.15-.24-.32-.24s-.38-.13-.44-.29c-.09-.22-.12-.22-.13,0M5.04,105.14c.28.06.7.05.92,0,.22-.06-.01-.1-.52-.1-.5,0-.68.05-.4.1m179.88,28.41c-.11.28-.07.32.15.15.16-.13.45-.29.64-.36.23-.09.19-.13-.15-.15-.27-.01-.56.15-.64.36m-164.24,23.89c0,.14.1.26.21.26s.26.18.32.4c.09.34.11.34.13.03.01-.21-.13-.5-.32-.66-.24-.2-.34-.21-.34-.03m165.79,31.89c0,.95.04,1.33.09.86.05-.47.05-1.25,0-1.72-.05-.47-.09-.09-.09.86"/>
    <path id="path3" class="cls-1" d="m94.5,22.63c0,.15.19.39.44.52.31.17.46.17.46,0,0-.13-.15-.24-.32-.24s-.38-.13-.44-.29c-.09-.22-.12-.22-.13,0m1.83,1.83c0,.15.19.39.44.52.31.17.46.17.46,0,0-.13-.15-.24-.32-.24s-.38-.13-.44-.29c-.09-.22-.12-.22-.13,0M5.04,105.14c.28.06.7.05.92,0,.22-.06-.01-.1-.52-.1-.5,0-.68.05-.4.1m179.88,28.41c-.11.28-.07.32.15.15.16-.13.45-.29.64-.36.23-.09.19-.13-.15-.15-.27-.01-.56.15-.64.36m-164.24,23.89c0,.14.1.26.21.26s.26.18.32.4c.09.34.11.34.13.03.01-.21-.13-.5-.32-.66-.24-.2-.34-.21-.34-.03m165.79,31.89c0,.95.04,1.33.09.86.05-.47.05-1.25,0-1.72-.05-.47-.09-.09-.09.86"/>
    <path id="path4" class="cls-1" d="m94.5,22.63c0,.15.19.39.44.52.31.17.46.17.46,0,0-.13-.15-.24-.32-.24s-.38-.13-.44-.29c-.09-.22-.12-.22-.13,0m1.83,1.83c0,.15.19.39.44.52.31.17.46.17.46,0,0-.13-.15-.24-.32-.24s-.38-.13-.44-.29c-.09-.22-.12-.22-.13,0M5.04,105.14c.28.06.7.05.92,0,.22-.06-.01-.1-.52-.1-.5,0-.68.05-.4.1m179.88,28.41c-.11.28-.07.32.15.15.16-.13.45-.29.64-.36.23-.09.19-.13-.15-.15-.27-.01-.56.15-.64.36m-164.24,23.89c0,.14.1.26.21.26s.26.18.32.4c.09.34.11.34.13.03.01-.21-.13-.5-.32-.66-.24-.2-.34-.21-.34-.03m165.79,31.89c0,.95.04,1.33.09.86.05-.47.05-1.25,0-1.72-.05-.47-.09-.09-.09.86"/>
  </g>
</svg>