<svg version="1.1" id="Layer_1" xmlns="http://www.w3.org/2000/svg" xmlns:xlink="http://www.w3.org/1999/xlink" x="0px" y="0px"
	 width="100%" viewBox="0 0 400 400" enable-background="new 0 0 400 400" xml:space="preserve">
<path fill="#000000" opacity="1.000000" stroke="none" 
	d="
M217.000000,401.000000 
	C144.689117,401.000000 72.878220,401.000000 1.033666,401.000000 
	C1.033666,267.730774 1.033666,134.461548 1.033666,1.096156 
	C134.227509,1.096156 267.455109,1.096156 400.841370,1.096156 
	C400.841370,134.333191 400.841370,267.666565 400.841370,401.000000 
	C339.794952,401.000000 278.647461,401.000000 217.000000,401.000000 
M243.036728,230.734268 
	C246.855881,231.356369 250.675034,231.978485 254.981796,232.680008 
	C249.180481,210.558762 243.664612,189.525970 237.862762,167.402695 
	C231.826859,181.757904 226.302780,194.895859 220.466568,208.776138 
	C214.518738,194.788986 208.944580,181.680618 202.894073,167.452026 
	C197.033707,189.820389 191.549179,210.754288 186.037506,231.791748 
	C189.992722,231.791748 193.753418,231.791748 197.457092,231.791748 
	C200.008316,222.023346 202.485031,212.540237 205.285461,201.817673 
	C210.620651,214.399597 215.425995,225.732010 220.453903,237.589279 
	C225.516403,225.709915 230.305145,214.472885 235.574554,202.107941 
	C238.270630,212.302505 240.595978,221.095291 243.036728,230.734268 
M184.318573,197.343140 
	C180.810440,182.433731 168.657028,172.321335 153.782074,171.934830 
	C139.260666,171.557526 125.450172,181.155548 121.798759,194.162613 
	C118.299599,206.627319 122.387627,219.195297 132.529770,227.153305 
	C142.779770,235.195938 157.477219,236.368484 168.582306,230.029526 
	C180.321945,223.328354 186.249954,211.453842 184.318573,197.343140 
M256.187317,209.153992 
	C256.577087,210.428101 256.932587,211.713882 257.361786,212.974564 
	C262.594757,228.344498 278.987915,236.856003 296.071564,233.083313 
	C310.641296,229.865799 321.553619,214.690430 319.852173,200.012482 
	C317.984406,183.899597 304.110077,171.864487 287.644592,171.919540 
	C271.620422,171.973114 252.713821,185.286697 256.187317,209.153992 
M76.588295,197.861923 
	C89.873489,210.425812 103.158691,222.989700 115.589111,234.745224 
	C115.589111,215.722198 115.589111,194.972473 115.589111,174.051178 
	C111.843536,174.051178 108.276299,174.051178 104.244659,174.051178 
	C104.244659,185.892471 104.244659,197.420593 104.244659,210.025772 
	C90.515770,195.895111 77.556259,182.556351 64.160294,168.768356 
	C64.160294,190.370407 64.160294,211.090576 64.160294,231.813095 
	C68.010727,231.813095 71.584351,231.813095 75.763184,231.813095 
	C75.763184,220.422668 75.763184,209.297958 76.588295,197.861923 
M337.517151,203.986343 
	C340.684326,205.435730 343.942383,206.717316 346.997864,208.372849 
	C351.885010,211.020782 353.655975,216.028976 351.174225,219.482285 
	C348.755341,222.848129 342.284454,223.282349 338.655548,219.934647 
	C336.532532,217.976181 335.019592,215.356354 333.023621,212.763016 
	C329.728882,213.680695 326.313110,214.632095 322.929199,215.574615 
	C325.769135,229.266296 339.340210,237.390121 351.821014,232.977448 
	C358.373749,230.660645 362.688202,225.813797 363.818146,218.922333 
	C364.998779,211.721512 362.936981,205.143661 356.773773,200.914261 
	C351.888092,197.561600 346.213776,195.377869 341.149963,192.253128 
	C339.628754,191.314438 337.841553,188.612839 338.227722,187.342499 
	C338.691711,185.816269 341.549103,183.780243 343.015289,184.032013 
	C347.136871,184.739746 351.076324,186.508377 356.157410,188.218796 
	C357.645508,187.023956 360.464447,184.760559 364.101593,181.840179 
	C360.805542,179.188004 358.186005,176.361725 354.975128,174.635513 
	C346.412872,170.032379 336.452637,171.409363 330.480682,177.498596 
	C322.399628,185.738327 325.032318,196.574554 337.517151,203.986343 
M40.471661,232.331711 
	C44.085014,232.331711 47.698372,232.331711 51.280975,232.331711 
	C51.280975,225.268356 51.280975,218.751770 51.280975,212.333633 
	C42.818199,212.333633 34.752609,212.333633 26.483917,212.333633 
	C26.483917,219.016220 26.483917,225.417587 26.483917,232.331680 
	C30.928352,232.331680 35.209637,232.331680 40.471661,232.331711 
z"/>
<path fill="#FAFAFA" opacity="1.000000" stroke="none" 
	d="
M242.979034,230.311172 
	C240.595978,221.095291 238.270630,212.302505 235.574554,202.107941 
	C230.305145,214.472885 225.516403,225.709915 220.453903,237.589279 
	C215.425995,225.732010 210.620651,214.399597 205.285461,201.817673 
	C202.485031,212.540237 200.008316,222.023346 197.457092,231.791748 
	C193.753418,231.791748 189.992722,231.791748 186.037506,231.791748 
	C191.549179,210.754288 197.033707,189.820389 202.894073,167.452026 
	C208.944580,181.680618 214.518738,194.788986 220.466568,208.776138 
	C226.302780,194.895859 231.826859,181.757904 237.862762,167.402695 
	C243.664612,189.525970 249.180481,210.558762 254.981796,232.680008 
	C250.675034,231.978485 246.855881,231.356369 242.979034,230.311172 
z"/>
<path fill="#FAFAFA" opacity="1.000000" stroke="none" 
	d="
M184.398056,197.766296 
	C186.249954,211.453842 180.321945,223.328354 168.582306,230.029526 
	C157.477219,236.368484 142.779770,235.195938 132.529770,227.153305 
	C122.387627,219.195297 118.299599,206.627319 121.798759,194.162613 
	C125.450172,181.155548 139.260666,171.557526 153.782074,171.934830 
	C168.657028,172.321335 180.810440,182.433731 184.398056,197.766296 
M163.459030,186.838821 
	C150.869812,179.944839 136.019226,185.541138 133.021225,198.309021 
	C130.763000,207.926376 135.737366,217.402039 144.890396,220.918610 
	C154.692627,224.684616 165.363907,221.013672 170.409729,212.139893 
	C175.359528,203.434952 173.011520,194.081711 163.459030,186.838821 
z"/>
<path fill="#FAFAFA" opacity="1.000000" stroke="none" 
	d="
M256.101807,208.751495 
	C252.713821,185.286697 271.620422,171.973114 287.644592,171.919540 
	C304.110077,171.864487 317.984406,183.899597 319.852173,200.012482 
	C321.553619,214.690430 310.641296,229.865799 296.071564,233.083313 
	C278.987915,236.856003 262.594757,228.344498 257.361786,212.974564 
	C256.932587,211.713882 256.577087,210.428101 256.101807,208.751495 
M268.087189,208.085541 
	C268.607086,209.306808 269.035034,210.577606 269.661774,211.741348 
	C273.744873,219.322861 282.164093,223.213425 291.718262,221.985764 
	C298.535645,221.109772 305.318695,215.044128 307.181030,208.158417 
	C309.321381,200.244598 306.750397,192.743408 300.216034,187.837463 
	C293.625732,182.889542 283.978607,182.304581 277.184906,186.440964 
	C269.716553,190.988083 266.501953,198.278763 268.087189,208.085541 
z"/>
<path fill="#FAFAFA" opacity="1.000000" stroke="none" 
	d="
M76.175735,198.017593 
	C75.763184,209.297958 75.763184,220.422668 75.763184,231.813095 
	C71.584351,231.813095 68.010727,231.813095 64.160294,231.813095 
	C64.160294,211.090576 64.160294,190.370407 64.160294,168.768356 
	C77.556259,182.556351 90.515770,195.895111 104.244659,210.025772 
	C104.244659,197.420593 104.244659,185.892471 104.244659,174.051178 
	C108.276299,174.051178 111.843536,174.051178 115.589111,174.051178 
	C115.589111,194.972473 115.589111,215.722198 115.589111,234.745224 
	C103.158691,222.989700 89.873489,210.425812 76.175735,198.017593 
z"/>
<path fill="#FAFAFA" opacity="1.000000" stroke="none" 
	d="
M337.180786,203.839142 
	C325.032318,196.574554 322.399628,185.738327 330.480682,177.498596 
	C336.452637,171.409363 346.412872,170.032379 354.975128,174.635513 
	C358.186005,176.361725 360.805542,179.188004 364.101593,181.840179 
	C360.464447,184.760559 357.645508,187.023956 356.157410,188.218796 
	C351.076324,186.508377 347.136871,184.739746 343.015289,184.032013 
	C341.549103,183.780243 338.691711,185.816269 338.227722,187.342499 
	C337.841553,188.612839 339.628754,191.314438 341.149963,192.253128 
	C346.213776,195.377869 351.888092,197.561600 356.773773,200.914261 
	C362.936981,205.143661 364.998779,211.721512 363.818146,218.922333 
	C362.688202,225.813797 358.373749,230.660645 351.821014,232.977448 
	C339.340210,237.390121 325.769135,229.266296 322.929199,215.574615 
	C326.313110,214.632095 329.728882,213.680695 333.023621,212.763016 
	C335.019592,215.356354 336.532532,217.976181 338.655548,219.934647 
	C342.284454,223.282349 348.755341,222.848129 351.174225,219.482285 
	C353.655975,216.028976 351.885010,211.020782 346.997864,208.372849 
	C343.942383,206.717316 340.684326,205.435730 337.180786,203.839142 
z"/>
<path fill="#F6F6F6" opacity="1.000000" stroke="none" 
	d="
M39.981289,232.331696 
	C35.209637,232.331680 30.928352,232.331680 26.483917,232.331680 
	C26.483917,225.417587 26.483917,219.016220 26.483917,212.333633 
	C34.752609,212.333633 42.818199,212.333633 51.280975,212.333633 
	C51.280975,218.751770 51.280975,225.268356 51.280975,232.331711 
	C47.698372,232.331711 44.085014,232.331711 39.981289,232.331696 
z"/>
<path fill="#030303" opacity="1.000000" stroke="none" 
	d="
M163.798965,186.999603 
	C173.011520,194.081711 175.359528,203.434952 170.409729,212.139893 
	C165.363907,221.013672 154.692627,224.684616 144.890396,220.918610 
	C135.737366,217.402039 130.763000,207.926376 133.021225,198.309021 
	C136.019226,185.541138 150.869812,179.944839 163.798965,186.999603 
z"/>
<path fill="#030303" opacity="1.000000" stroke="none" 
	d="
M268.036316,207.695557 
	C266.501953,198.278763 269.716553,190.988083 277.184906,186.440964 
	C283.978607,182.304581 293.625732,182.889542 300.216034,187.837463 
	C306.750397,192.743408 309.321381,200.244598 307.181030,208.158417 
	C305.318695,215.044128 298.535645,221.109772 291.718262,221.985764 
	C282.164093,223.213425 273.744873,219.322861 269.661774,211.741348 
	C269.035034,210.577606 268.607086,209.306808 268.036316,207.695557 
z"/>
</svg>