<svg width="256" height="256" viewBox="0 0 256 256" fill="none" xmlns="http://www.w3.org/2000/svg">
<rect width="256" height="256" rx="28" fill="#001B43"/>
<path opacity="0.4" fill-rule="evenodd" clip-rule="evenodd" d="M74.5211 178.141C81.1903 190.901 88.7518 195.586 94.5596 195.586C100.367 195.586 107.929 190.901 114.598 178.141C121.031 165.834 125.292 148.178 125.292 128.157C125.292 108.136 121.031 90.479 114.598 78.1722C107.929 65.4126 100.367 60.7276 94.5596 60.7276C88.7518 60.7276 81.1903 65.4126 74.5211 78.1722C68.0886 90.479 63.8267 108.136 63.8267 128.157C63.8267 148.178 68.0886 165.834 74.5211 178.141ZM54.376 128.157C54.376 170.616 72.3668 205.037 94.5596 205.037C116.752 205.037 134.743 170.616 134.743 128.157C134.743 85.6971 116.752 51.2769 94.5596 51.2769C72.3668 51.2769 54.376 85.6971 54.376 128.157Z" fill="#2FF6D3"/>
<path opacity="0.7" fill-rule="evenodd" clip-rule="evenodd" d="M109.548 178.141C116.218 190.901 123.779 195.586 129.587 195.586C135.395 195.586 142.956 190.901 149.625 178.141C156.058 165.834 160.32 148.178 160.32 128.157C160.32 108.136 156.058 90.479 149.625 78.1722C142.956 65.4126 135.395 60.7276 129.587 60.7276C123.779 60.7276 116.218 65.4126 109.548 78.1722C103.116 90.479 98.8541 108.136 98.8541 128.157C98.8541 148.178 103.116 165.834 109.548 178.141ZM89.4034 128.157C89.4034 170.616 107.394 205.037 129.587 205.037C151.78 205.037 169.771 170.616 169.771 128.157C169.771 85.6971 151.78 51.2769 129.587 51.2769C107.394 51.2769 89.4034 85.6971 89.4034 128.157Z" fill="#2FF6D3"/>
<path d="M135.403 164.512C115.395 164.512 99.1755 148.292 99.1755 128.284C99.1755 108.276 115.395 92.0561 135.403 92.0562C155.411 92.0562 171.631 108.276 171.631 128.284C171.631 148.292 155.411 164.512 135.403 164.512Z" fill="url(#paint0_linear_19458_96947)"/>
<path fill-rule="evenodd" clip-rule="evenodd" d="M144.579 178.148C151.248 190.908 158.809 195.593 164.617 195.593C170.425 195.593 177.986 190.908 184.656 178.148C191.088 165.842 195.35 148.185 195.35 128.164C195.35 108.143 191.088 90.4861 184.656 78.1793C177.987 65.4197 170.425 60.7346 164.617 60.7346C158.809 60.7346 151.248 65.4197 144.579 78.1793C138.146 90.4861 133.884 108.143 133.884 128.164C133.884 148.185 138.146 165.842 144.579 178.148ZM124.434 128.164C124.434 170.623 142.424 205.044 164.617 205.044C186.81 205.044 204.801 170.623 204.801 128.164C204.801 85.7042 186.81 51.2839 164.617 51.2839C142.424 51.2839 124.434 85.7042 124.434 128.164Z" fill="#2FF6D3"/>
<defs>
<linearGradient id="paint0_linear_19458_96947" x1="136.412" y1="128.284" x2="99.1755" y2="128.284" gradientUnits="userSpaceOnUse">
<stop stop-color="white"/>
<stop offset="1" stop-color="white" stop-opacity="0"/>
</linearGradient>
</defs>
</svg>
