<?xml version="1.0" encoding="utf-8"?>
<!-- Generator: Adobe Illustrator 22.1.0, SVG Export Plug-In . SVG Version: 6.00 Build 0)  -->
<svg version="1.1" xmlns="http://www.w3.org/2000/svg" xmlns:xlink="http://www.w3.org/1999/xlink" x="0px" y="0px"
	 viewBox="0 0 612 792" style="enable-background:new 0 0 612 792;" xml:space="preserve">
<style type="text/css">
	.st0{fill:#D5B75D;}
	.st1{fill:none;stroke:#231F20;stroke-miterlimit:10;}
	.st2{fill:#FDE9AA;}
	.st3{fill:#BC9004;}
</style>
<g id="Layer_2">
	<path class="st0" d="M334.8,396c5.7,30.3,34.8,21,50.8,15.2c38.6-14,55.9,38.8,35.3,65.9c-11.6,15.3-57,46.8-129.3,27.2
		c-77.9-21.2-119-82-118-156.7c1.1-84.2,67.5-130.7,114.6-146.9c41.5-14.3,96.4-21.2,143.8,13.8c27.3,20.2,35,49.2,28.5,88.8
		c-4,24.5-26.5,68.8-85.3,62.1C330.2,360.2,334.8,396,334.8,396"/>
	<path class="st1" d="M393.6,483.8"/>
</g>
<g id="Layer_4">
	<path class="st2" d="M393.6,483.8c-6.9,1.1-52.3,9.6-86.3-7.4C282.4,463.9,257.5,438,253,384c-2.8-34.1,13.8-63.3,38-83
		c21.5-17.5,46.4-23.1,70-21c37,3.3,64.4,27.6,80.5-4c11.5-22.7-22.7-55-59.8-63c-25.9-5.6-56.3-2.6-90,8.7
		c-27.6,9.3-81.2,39.4-92.7,102c-11.7,63.5,12.7,104.3,37,129.8c25.8,27,60,40.8,87,43.8c42.3,4.7,62-7.7,70.6-13.4
		C393.7,483.9,393.7,483.8,393.6,483.8"/>
</g>
<g id="Layer_5_copy">
	<path class="st3" d="M334.8,396c5.7,30.3,34.8,21,50.8,15.2c26.8-9.7,43.4,12.8,44,36.5c-6.9-12.1-17.7-15.7-28.3-11.4
		c-19.9,8.1-30.3,12.3-43.3,12.7s-56.1,2.1-62.7-53c-5-41.8,25-88.7,97.3-64c28,9.6,54.6-7.8,68.8-35.6c-0.3,2.3-0.6,4.5-1,6.9
		c-4,24.5-26.5,68.8-85.3,62.1C330.2,360.2,334.8,396,334.8,396"/>
</g>
</svg>
