<svg xmlns="http://www.w3.org/2000/svg" xmlns:xlink="http://www.w3.org/1999/xlink" width="2000" zoomAndPan="magnify" viewBox="0 0 1500 1499.999933" height="2000" preserveAspectRatio="xMidYMid meet" version="1.0"><defs><clipPath id="0a6c6821eb"><path d="M 340 291.019531 L 1168.152344 291.019531 L 1168.152344 1208 L 340 1208 Z M 340 291.019531 " clip-rule="nonzero"/></clipPath></defs><path fill="#0f766e" d="M 117.195312 715.089844 C 74.265625 715.089844 39.59375 749.761719 39.59375 792.6875 C 39.59375 835.617188 74.265625 870.289062 117.195312 870.289062 C 160.121094 870.289062 194.792969 835.617188 194.792969 792.6875 C 194.792969 749.761719 160.121094 715.089844 117.195312 715.089844 " fill-opacity="1" fill-rule="evenodd"/><g clip-path="url(#0a6c6821eb)"><path fill="#0f766e" d="M 360.609375 679.238281 C 369.804688 733.015625 382.542969 781.132812 399.289062 825 L 512.03125 825 C 491.277344 782.308594 476.179688 734.664062 465.566406 679.238281 Z M 678.789062 1022.890625 C 622.652344 976.898438 579.019531 932.320312 545.996094 883.496094 L 425.46875 883.496094 C 427.121094 886.796875 429.007812 890.335938 430.894531 893.636719 C 456.367188 940.339844 487.503906 982.558594 525.949219 1023.128906 L 678.789062 1023.128906 Z M 755.679688 394.546875 C 756.152344 394.546875 921.964844 391.011719 1064.664062 484.175781 C 1057.824219 645.035156 1036.359375 755.1875 988.007812 844.34375 C 941.308594 930.433594 867.246094 1000.484375 754.972656 1081.386719 L 587.273438 1081.386719 C 627.132812 1116.058594 672.890625 1150.730469 725.492188 1187.289062 L 754.972656 1207.808594 L 784.457031 1187.289062 C 926.683594 1088.226562 1019.140625 1004.023438 1079.050781 893.875 C 1138.488281 784.433594 1163.019531 653.054688 1168.917969 459.882812 L 1169.859375 432.757812 L 1148.160156 416.246094 C 978.574219 290.769531 769.363281 291.003906 754.972656 291.238281 C 740.585938 291.003906 531.375 290.769531 361.785156 416.246094 L 340.085938 432.285156 L 341.03125 459.410156 C 342.917969 518.847656 346.457031 572.390625 352.351562 621.214844 L 456.367188 621.214844 C 450.945312 579.9375 447.40625 534.417969 445.28125 483.941406 C 587.980469 390.773438 753.792969 394.3125 754.265625 394.3125 L 755.679688 394.3125 Z M 755.679688 394.546875 " fill-opacity="1" fill-rule="nonzero"/></g><path fill="#0f766e" d="M 196.445312 511.066406 C 153.519531 511.066406 118.847656 545.972656 118.847656 588.902344 C 118.847656 631.828125 153.519531 666.5 196.445312 666.5 C 239.371094 666.5 274.046875 631.828125 274.046875 588.902344 C 274.28125 545.972656 239.371094 511.066406 196.445312 511.066406 " fill-opacity="1" fill-rule="evenodd"/><path fill="#0f766e" d="M 235.363281 562.957031 L 613.925781 562.957031 L 613.925781 621.214844 L 235.363281 621.214844 Z M 235.363281 562.957031 " fill-opacity="1" fill-rule="evenodd"/><path fill="#0f766e" d="M 156.113281 766.742188 L 611.332031 766.742188 L 611.332031 825 L 156.113281 825 Z M 156.113281 766.742188 " fill-opacity="1" fill-rule="evenodd"/><path fill="#0f766e" d="M 373.578125 1035.394531 C 330.652344 1035.394531 295.980469 1070.066406 295.980469 1112.992188 C 295.980469 1155.921875 330.652344 1190.59375 373.578125 1190.59375 C 416.507812 1190.59375 451.179688 1155.921875 451.179688 1112.992188 C 451.179688 1070.300781 416.507812 1035.394531 373.578125 1035.394531 " fill-opacity="1" fill-rule="evenodd"/><path fill="#0f766e" d="M 376.410156 1080.914062 L 754.972656 1080.914062 L 754.972656 1139.175781 L 376.410156 1139.175781 Z M 376.410156 1080.914062 " fill-opacity="1" fill-rule="evenodd"/><path fill="#1e293b" d="M 754.972656 528.046875 C 806.863281 528.046875 848.847656 570.03125 848.847656 621.921875 C 848.847656 659.425781 826.914062 691.738281 795.070312 706.832031 L 823.847656 862.503906 L 685.863281 862.503906 L 714.640625 706.832031 C 682.796875 691.738281 660.863281 659.425781 660.863281 621.921875 C 661.097656 570.269531 703.082031 528.046875 754.972656 528.046875 " fill-opacity="1" fill-rule="evenodd"/></svg>