<svg width="253" height="254" viewBox="0 0 253 254" fill="none" xmlns="http://www.w3.org/2000/svg">
<rect x="0.5" y="0.5" width="252" height="253" rx="126" fill="#FCF5F1" stroke="#081502"/>
<path fill-rule="evenodd" clip-rule="evenodd" d="M163.024 91C161.902 91 160.78 91.0449 159.703 91.1346C156.904 91.3786 154.145 91.9665 151.49 92.8849C151.445 92.8849 151.4 92.9298 151.31 92.9298C151.086 93.0195 150.862 93.0644 150.682 93.1542C150.413 93.2439 150.188 93.3337 149.919 93.4234C149.65 93.5132 149.381 93.6478 149.066 93.7824C146.884 94.6712 144.806 95.8001 142.873 97.1483C142.828 97.1932 142.784 97.2381 142.739 97.2381C140.639 98.6444 138.657 100.22 136.815 101.95C136.139 102.544 135.494 103.173 134.885 103.835C131.288 107.567 127.987 111.574 125.012 115.818C123.665 117.703 122.364 119.543 121.107 121.338C120.883 121.652 120.659 121.966 120.479 122.235C110.247 136.821 102.977 145.886 91.039 145.886V145.841H90.9941C87.3993 145.841 83.8852 144.775 80.8963 142.778C77.9073 140.781 75.5777 137.942 74.202 134.621C72.8264 131.3 72.4664 127.645 73.1677 124.12C73.869 120.594 75.6001 117.355 78.142 114.813C80.6839 112.271 83.9225 110.54 87.4483 109.839C90.974 109.138 94.6285 109.498 97.9497 110.873C101.271 112.249 104.109 114.579 106.107 117.568C108.104 120.557 109.17 124.071 109.17 127.665C109.17 128.249 109.125 128.787 109.08 129.371C111.459 126.05 113.972 122.101 117.113 117.613C117.338 117.299 117.517 117.029 117.742 116.715C119.223 114.606 120.793 112.362 122.454 110.118C119.365 104.578 114.868 99.9527 109.417 96.7094C103.966 93.4661 97.7553 91.7203 91.413 91.6485C85.0707 91.5768 78.8221 93.1817 73.2993 96.3008C67.7765 99.42 63.1757 103.943 59.9625 109.411C56.7492 114.88 55.0375 121.1 55.0006 127.443C54.9637 133.785 56.6029 140.025 59.7524 145.53C62.9018 151.036 67.4497 155.612 72.9357 158.795C78.4218 161.978 84.6514 163.656 90.9941 163.658V163.703C92.5837 163.706 94.1722 163.616 95.7512 163.433C111.414 161.548 121.736 150.598 129.5 140.231C131.295 137.853 132.955 135.474 134.481 133.275L135.02 132.467L135.109 132.333C140.046 125.287 144.175 119.363 148.887 115.055C150.177 113.84 151.574 112.743 153.061 111.779C153.23 111.657 153.41 111.552 153.599 111.464C153.709 111.414 153.814 111.354 153.913 111.285L153.958 111.24C154.138 111.15 154.317 111.016 154.497 110.926C154.61 110.883 154.717 110.823 154.811 110.746C154.912 110.693 155.017 110.648 155.125 110.612C155.305 110.522 155.439 110.477 155.619 110.387C155.765 110.32 155.915 110.26 156.067 110.208L156.741 109.939C158.712 109.222 160.791 108.842 162.889 108.817H163.024C166.589 108.819 170.075 109.87 173.048 111.839C176.021 113.808 178.348 116.608 179.742 119.89C181.135 123.172 181.532 126.792 180.884 130.298C180.235 133.804 178.57 137.042 176.095 139.609C173.62 142.175 170.444 143.957 166.964 144.733C163.484 145.508 159.852 145.243 156.522 143.97C153.191 142.697 150.309 140.472 148.233 137.573C146.157 134.674 144.98 131.229 144.848 127.665C143.277 129.82 141.617 132.153 139.911 134.622L139.822 134.756L139.283 135.564C137.129 138.661 134.75 142.071 132.058 145.392C135.275 150.81 139.858 155.288 145.349 158.38C150.84 161.471 157.045 163.068 163.346 163.01C169.647 162.952 175.822 161.241 181.255 158.049C186.688 154.857 191.188 150.295 194.305 144.82C197.423 139.344 199.048 133.146 199.02 126.844C198.992 120.543 197.311 114.36 194.144 108.912C190.978 103.465 186.437 98.9432 180.976 95.7999C175.515 92.6566 169.325 91.0015 163.024 91Z" fill="#081502"/>
<path fill-rule="evenodd" clip-rule="evenodd" d="M152.056 141.492C149.902 139.869 148.137 137.785 146.89 135.393C145.643 133.001 144.946 130.361 144.849 127.665C143.278 129.819 141.618 132.153 139.912 134.621L139.823 134.756L139.284 135.564C137.13 138.66 134.751 142.071 132.059 145.392C134.792 149.971 138.5 153.892 142.919 156.876L152.056 141.492Z" fill="url(#paint0_linear_3_7988)"/>
<path fill-rule="evenodd" clip-rule="evenodd" d="M109.168 127.665C109.168 128.249 109.123 128.787 109.078 129.371C111.457 126.05 113.97 122.101 117.112 117.613C117.336 117.299 117.516 117.029 117.74 116.715C119.221 114.606 120.792 112.362 122.452 110.118C120.002 105.739 116.668 101.918 112.66 98.8986L102.392 113.502C104.51 115.204 106.219 117.361 107.392 119.812C108.565 122.264 109.172 124.948 109.168 127.665Z" fill="url(#paint1_linear_3_7988)"/>
<path d="M163.022 139.872C165.569 139.872 168.059 139.117 170.177 137.702C172.296 136.286 173.946 134.275 174.921 131.921C175.896 129.568 176.151 126.978 175.654 124.48C175.157 121.981 173.931 119.686 172.129 117.885C170.328 116.083 168.033 114.857 165.534 114.36C163.036 113.863 160.446 114.118 158.093 115.093C155.739 116.068 153.728 117.718 152.312 119.837C150.897 121.955 150.142 124.445 150.142 126.992C150.142 130.408 151.499 133.684 153.914 136.1C156.33 138.515 159.606 139.872 163.022 139.872Z" fill="#081502"/>
<defs>
<linearGradient id="paint0_linear_3_7988" x1="147.388" y1="146.332" x2="134.125" y2="134.25" gradientUnits="userSpaceOnUse">
<stop stop-color="#081502"/>
<stop offset="0.94" stop-color="white"/>
</linearGradient>
<linearGradient id="paint1_linear_3_7988" x1="104.649" y1="110.458" x2="118.702" y2="123" gradientUnits="userSpaceOnUse">
<stop stop-color="#081502"/>
<stop offset="0.94" stop-color="white"/>
</linearGradient>
</defs>
</svg>
