<svg width="50" height="50" viewBox="0 0 50 50" fill="none" xmlns="http://www.w3.org/2000/svg">
<path d="M50 25C50 11.1929 38.8071 0 25 0C11.1929 0 0 11.1929 0 25C0 38.8071 11.1929 50 25 50C38.8071 50 50 38.8071 50 25Z" fill="#0C3DB9"/>
<mask id="mask0_941_751" style="mask-type:luminance" maskUnits="userSpaceOnUse" x="0" y="0" width="50" height="50">
<path d="M50 25C50 11.1929 38.8071 0 25 0C11.1929 0 0 11.1929 0 25C0 38.8071 11.1929 50 25 50C38.8071 50 50 38.8071 50 25Z" fill="white"/>
</mask>
<g mask="url(#mask0_941_751)">
<path d="M34.5405 30.8916C33.4971 33.6722 30.9603 35.1033 29.8223 35.4713L31.0248 36.7597C33.9395 35.5321 35.8936 36.3685 36.5063 36.9402C37.1658 34.148 39.4885 34.5108 40.5674 35.0412C38.3471 32.7535 41.7611 32.4121 43.7458 32.5274C39.9677 29.6133 36.0347 30.2227 34.5405 30.8916Z" fill="#007DFF"/>
<path d="M36.488 37.248C33.6824 38.6238 30.7745 38.0678 29.6713 37.6179L29.6055 39.3211C32.6405 40.2649 33.4567 42.1124 33.4854 42.918C36.0185 41.2911 37.4523 43.0248 37.8526 44.095C37.9072 41.017 40.6571 42.9252 42.0251 44.264C41.3995 39.7428 38.073 37.7028 36.488 37.248Z" fill="#007DFF"/>
<path d="M10.8438 29.0279L14.228 36.489L21.0837 32.9421L13.2054 27.46L10.8438 29.0279Z" fill="#88C1FF"/>
<path d="M51.976 47.6899C48.7824 59.9432 39.4736 54.0681 36.0039 55.7981" stroke="#88C1FF" stroke-width="1.59426"/>
<path d="M52.869 44.0903L50.377 46.5263L54.0001 47.3947L52.869 44.0903Z" fill="#007DFF" stroke="#007DFF" stroke-width="1.59426" stroke-linejoin="round"/>
<path d="M17.3393 31.5425L17.0898 29.5469L31.0262 34.6668L30.4962 36.7496L17.3393 31.5425Z" fill="#BCE7FF"/>
<path d="M18.4501 9.06396L30.5367 18.2457L22.195 29.0842L10.1084 19.9025L18.4501 9.06396Z" fill="#88C1FF"/>
<path d="M29.8351 13.1679L40.5108 21.1143L28.1013 36.7085L16.3457 28.2861L18.4304 9.25098C18.4304 9.25098 20.2129 10.5763 22.456 12.2018C23.7895 12.9511 26.0819 14.1901 29.8351 13.1679Z" fill="#88C1FF"/>
<path d="M12.1371 40.7035C15.9821 34.6088 16.3426 30.1737 16.0423 28.7181L35.2191 27.02C27.0782 40.6183 30.7729 52.0205 40.2862 54.622C47.335 56.5496 50.5747 50.2635 51.3103 48.8363L51.3189 48.8193C51.3189 54.2939 44.4175 59.9925 38.3089 60.7667L12.8555 59.7345C12.2661 58.7944 11.7431 57.786 11.3021 56.7295C10.9252 55.827 10.9523 54.0881 10.7428 53.7061C10.7229 53.629 10.3228 53.7778 10.306 53.7061C10.2294 53.3784 10.1798 53.0927 10.1127 52.735C9.36796 48.7653 9.79923 44.4093 12.1371 40.7035Z" fill="#88C1FF"/>
<path d="M25.2363 63.3984C20.6262 52.0032 24.7175 31.4355 26.749 28.0507C26.749 28.0507 23.813 29.3979 20.5119 28.3047C17.2108 27.2115 16.7175 24.8823 16.7175 24.8823C16.1678 29.7413 14.785 32.6518 10.6722 40.6238C7.40814 46.9505 9.29434 54.0152 13.1314 57.5448C16.9684 61.0748 19.6528 61.8722 21.5455 62.5716C23.4381 63.2714 25.2363 63.3984 25.2363 63.3984Z" fill="#007DFF"/>
<path d="M19.3497 40.4151L27.685 39.1399L25.4103 31.9111L18.2109 37.8387L19.3497 40.4151Z" fill="#88C1FF"/>
<path d="M28.2051 19.4282C28.2051 19.4282 27.754 19.7272 26.4918 19.5029C25.2296 19.2787 24.043 17.9404 24.043 17.9404" stroke="#007DFF" stroke-width="1.17979"/>
</g>
</svg>
