<svg xmlns="http://www.w3.org/2000/svg" viewBox="0 0 72 72" role="img" aria-label="DRepTalk">
  <defs>
    <linearGradient id="b" x1="8" y1="56" x2="66" y2="16" gradientUnits="userSpaceOnUse">
      <stop offset="0" stop-color="#8b5cf6"/>
      <stop offset=".5" stop-color="#3b82f6"/>
      <stop offset="1" stop-color="#2dd4bf"/>
    </linearGradient>
  </defs>
  <g stroke="url(#b)" stroke-width="2.4" stroke-linecap="round">
    <line x1="36" y1="27.5" x2="36" y2="19.5"/>
    <line x1="42" y1="30" x2="47.7" y2="24.3"/>
    <line x1="44.5" y1="36" x2="52.5" y2="36"/>
    <line x1="42" y1="42" x2="47.7" y2="47.7"/>
    <line x1="36" y1="44.5" x2="36" y2="52.5"/>
    <line x1="30" y1="42" x2="24.3" y2="47.7"/>
    <line x1="27.5" y1="36" x2="19.5" y2="36"/>
    <line x1="30" y1="30" x2="24.3" y2="24.3"/>
  </g>
  <g fill="url(#b)">
    <circle cx="36" cy="15" r="4"/>
    <circle cx="50.85" cy="21.15" r="4"/>
    <circle cx="57" cy="36" r="4"/>
    <circle cx="50.85" cy="50.85" r="4"/>
    <circle cx="36" cy="57" r="4"/>
    <circle cx="21.15" cy="50.85" r="4"/>
    <circle cx="15" cy="36" r="4"/>
    <circle cx="21.15" cy="21.15" r="4"/>
  </g>
  <g fill="url(#b)">
    <circle cx="47.1" cy="9.2" r="2"/>
    <circle cx="62.8" cy="24.9" r="2"/>
    <circle cx="62.8" cy="47.1" r="2"/>
    <circle cx="47.1" cy="62.8" r="2"/>
    <circle cx="24.9" cy="62.8" r="2"/>
    <circle cx="9.2" cy="47.1" r="2"/>
    <circle cx="9.2" cy="24.9" r="2"/>
    <circle cx="24.9" cy="9.2" r="2"/>
  </g>
  <circle cx="36" cy="36" r="7" fill="url(#b)"/>
</svg>
