<?xml version="1.0" standalone="no"?>
<!DOCTYPE svg PUBLIC "-//W3C//DTD SVG 20010904//EN"
 "http://www.w3.org/TR/2001/REC-SVG-20010904/DTD/svg10.dtd">
<svg version="1.0" xmlns="http://www.w3.org/2000/svg"
 width="1056" height="992" viewBox="0 0 1056 992"
 preserveAspectRatio="xMidYMid meet">
<metadata>
Created by potrace 1.16, written by Peter Selinger 2001-2019
</metadata>
<g transform="translate(0.000000,992.000000) scale(0.100000,-0.100000)"
fill="#000000" stroke="none">
<path d="M1733 6135 c-147 -28 -393 -118 -393 -143 0 -6 21 -5 53 1 69 13 235
2 322 -21 80 -22 161 -56 331 -141 131 -65 184 -85 288 -107 169 -35 329 -28
491 23 l80 25 -45 41 c-52 46 -182 133 -260 172 -32 16 -83 31 -124 36 -38 5
-144 34 -235 66 l-166 57 -135 2 c-85 2 -162 -2 -207 -11z M1361 5789 c-215
-26 -450 -128 -533 -230 -48 -59 -147 -236 -154 -277 -9 -48 25 -82 81 -82 34
0 59 11 131 56 277 176 406 224 604 224 160 0 255 -30 486 -150 249 -131 392
-167 618 -158 129 6 246 30 341 72 69 31 185 99 224 132 l31 25 -22 42 c-22
45 -84 136 -118 176 l-20 23 -123 -61 c-142 -71 -224 -92 -357 -93 -149 -1
-242 26 -455 131 -191 95 -294 134 -409 156 -100 19 -238 25 -325 14z M5295
5358 c-3 -7 -4 -213 -3 -458 l3 -445 92 -3 92 -3 3 225 c3 209 4 227 24 253
55 74 141 81 191 16 l28 -36 3 -229 3 -228 90 0 89 0 0 258 0 258 -27 55 c-31
59 -72 93 -137 110 -84 23 -204 -11 -241 -68 -9 -13 -19 -23 -23 -23 -4 0 -6
74 -4 165 l3 165 -91 0 c-63 0 -92 -4 -95 -12z M3890 4900 l0 -450 313 2 312
3 0 80 0 80 -217 3 -218 2 0 105 0 105 193 2 192 3 0 80 0 80 -192 3 -193 2 0
95 0 95 215 0 215 0 0 80 0 80 -310 0 -310 0 0 -450z M6770 4900 l0 -451 91 3
90 3 2 180 2 180 183 3 182 2 0 80 0 80 -182 2 -183 3 0 100 0 100 208 3 207
2 0 80 0 80 -300 0 -300 0 0 -450z M1307 5244 c-114 -20 -217 -58 -337 -121
-132 -69 -316 -187 -353 -225 -25 -27 -27 -34 -26 -116 0 -105 14 -152 51
-170 36 -17 66 -4 232 102 264 168 385 215 573 223 185 8 258 -11 515 -141
270 -136 419 -174 641 -164 199 10 371 72 582 210 163 106 161 103 122 250
-24 90 -47 128 -77 128 -9 0 -65 -32 -126 -71 -232 -149 -371 -199 -553 -199
-160 0 -295 42 -516 160 -243 129 -496 176 -728 134z M4810 5127 c-107 -30
-189 -111 -221 -220 -60 -195 31 -400 200 -449 25 -7 82 -13 126 -13 103 1
168 28 229 96 37 41 76 119 76 151 0 4 -40 8 -90 8 l-90 0 -19 -39 c-23 -44
-66 -66 -124 -65 -49 2 -86 28 -115 85 -20 37 -23 55 -19 119 6 122 53 180
145 180 56 0 77 -12 107 -60 l25 -40 90 0 c104 0 105 2 66 87 -31 66 -94 127
-154 148 -64 22 -176 28 -232 12z M6237 5126 c-26 -7 -72 -30 -102 -50 -213
-147 -182 -501 53 -609 39 -18 66 -22 152 -22 95 0 110 3 157 28 114 59 174
157 181 294 8 153 -53 267 -179 331 -77 39 -182 51 -262 28z m172 -162 c98
-58 111 -262 21 -338 -69 -58 -174 -36 -220 47 -32 56 -34 163 -5 222 38 76
136 109 204 69z M7639 5127 c-62 -18 -130 -59 -169 -103 -97 -111 -107 -323
-20 -449 100 -145 328 -179 486 -72 67 45 109 111 130 203 49 224 -90 417
-309 430 -42 2 -91 -1 -118 -9z m171 -166 c121 -85 94 -325 -41 -361 -49 -13
-107 1 -137 33 -75 79 -67 270 12 323 55 35 119 37 166 5z M8805 5131 c-81
-20 -154 -84 -193 -170 -22 -48 -26 -70 -26 -161 -1 -121 11 -172 57 -232 49
-64 103 -97 179 -110 85 -15 134 -1 195 55 l46 42 -5 -72 c-8 -112 -49 -157
-143 -157 -60 -1 -95 15 -117 52 -16 26 -18 27 -102 24 l-86 -3 0 -29 c0 -49
58 -121 124 -155 57 -28 66 -30 180 -30 113 0 125 2 179 28 64 32 99 72 128
147 17 46 19 79 19 405 l0 355 -90 0 -91 0 7 -35 c3 -19 3 -35 -1 -35 -4 0
-25 15 -46 34 -55 50 -131 67 -214 47z m196 -178 c43 -36 59 -79 59 -157 0
-123 -49 -190 -139 -190 -98 1 -151 65 -151 185 1 121 55 189 152 189 36 0 54
-6 79 -27z M9555 5124 c-141 -45 -228 -173 -227 -339 0 -103 28 -181 89 -246
67 -71 126 -94 248 -94 84 0 107 4 146 23 72 35 133 102 153 170 7 22 6 22
-81 22 -87 0 -90 -1 -111 -30 -26 -35 -86 -55 -136 -46 -60 11 -126 82 -126
136 0 20 5 20 234 20 268 0 253 -6 236 98 -23 137 -77 219 -176 268 -70 34
-174 42 -249 18z m158 -138 c35 -14 64 -51 77 -97 l9 -29 -145 0 c-94 0 -144
4 -144 10 0 19 27 64 52 87 45 42 96 52 151 29z M8433 5115 c-17 -7 -46 -33
-62 -56 l-31 -42 0 51 0 52 -90 0 -90 0 0 -335 0 -335 90 0 90 0 0 183 c1 209
7 249 49 291 26 26 39 31 95 34 l64 4 6 37 c3 20 6 57 6 84 l0 47 -47 0 c-27
-1 -62 -7 -80 -15z M1303 4705 c-162 -29 -328 -102 -512 -225 -91 -61 -121
-86 -121 -102 0 -30 69 -163 106 -206 37 -42 15 -48 176 49 240 146 352 184
533 183 161 -2 244 -27 500 -154 219 -108 297 -133 470 -149 196 -17 371 14
550 98 200 95 234 128 285 280 35 105 37 144 10 171 -33 33 -87 26 -156 -18
-287 -185 -470 -242 -687 -214 -135 17 -213 44 -393 138 -181 94 -238 117
-373 145 -109 22 -277 24 -388 4z M1345 4179 c-149 -19 -445 -140 -445 -183 0
-18 182 -192 210 -201 12 -4 49 5 95 24 109 44 178 55 313 48 144 -6 226 -33
447 -146 192 -99 275 -126 380 -126 161 0 387 110 569 276 60 54 140 148 133
155 -2 3 -30 -11 -62 -31 -76 -45 -193 -90 -275 -105 -36 -7 -114 -12 -175
-11 -161 0 -232 22 -470 141 -215 107 -321 144 -464 160 -99 11 -157 11 -256
-1z"/>
</g>
</svg>
