<svg width="38" height="34" viewBox="0 0 38 34" fill="none" xmlns="http://www.w3.org/2000/svg">
<g clip-path="url(#clip0_4062_27907)">
<path d="M9.22254 33.1409L2.52843 21.5451C2.3975 21.3183 2.56162 21.0362 2.82164 21.0362L3.74185 21.0362C3.86356 21.0362 3.97421 21.1007 4.03507 21.2058L10.0745 31.6656C10.1354 31.7707 10.2479 31.8353 10.3677 31.8353L16.7944 31.8353C16.9162 31.8353 17.0268 31.8998 17.0877 32.0049L17.5487 32.8016C17.6796 33.0284 17.5155 33.3105 17.2555 33.3105L9.51575 33.3105C9.39404 33.3105 9.2834 33.246 9.22254 33.1409Z" fill="#242232"/>
<path d="M18.9871 33.0373L15.1181 26.3339C14.9872 26.1071 15.1513 25.825 15.4114 25.825L16.3316 25.825C16.4533 25.825 16.5639 25.8895 16.6248 25.9946L19.8391 31.5601C19.8999 31.6652 20.0124 31.7298 20.1323 31.7298L22.4356 31.7298C22.5573 31.7298 22.6679 31.7943 22.7288 31.8994L23.1898 32.6961C23.3207 32.9229 23.1566 33.2051 22.8966 33.2051L19.2803 33.2051C19.1586 33.2051 19.0479 33.1405 18.9871 33.0354L18.9871 33.0373Z" fill="#242232"/>
<path d="M27.8815 33.1963L24.7391 33.1963C24.6174 33.1963 24.5068 33.1317 24.4459 33.0266L22.8747 30.3066C22.8139 30.2015 22.8139 30.0724 22.8747 29.9673L24.4459 27.2472C24.5068 27.1421 24.6192 27.0775 24.7391 27.0775L27.8815 27.0775C28.0032 27.0775 28.1138 27.1421 28.1747 27.2472L29.7459 29.9673C29.8067 30.0724 29.8067 30.2015 29.7459 30.3066L28.1747 33.0266C28.1138 33.1317 28.0013 33.1963 27.8815 33.1963Z" fill="#242232"/>
<path d="M37.4246 17.0876L30.7305 28.6834C30.5995 28.9102 30.2731 28.9102 30.144 28.6834L29.683 27.8867C29.6222 27.7816 29.6222 27.6525 29.683 27.5474L35.7225 17.0876C35.7833 16.9825 35.7833 16.8534 35.7225 16.7483L32.5082 11.1828C32.4473 11.0777 32.4473 10.9486 32.5082 10.8435L32.9692 10.0468C33.1001 9.82002 33.4265 9.82002 33.5556 10.0468L37.4246 16.7483C37.4854 16.8534 37.4854 16.9825 37.4246 17.0876Z" fill="#242232"/>
<path d="M32.453 8.68221L28.5841 15.3855C28.4531 15.6124 28.1267 15.6124 27.9976 15.3855L27.5366 14.5889C27.4758 14.4838 27.4758 14.3547 27.5366 14.2496L30.7509 8.68406C30.8117 8.57894 30.8117 8.44986 30.7509 8.34474L29.5983 6.34942C29.5375 6.2443 29.5375 6.11522 29.5983 6.0101L30.0594 5.21345C30.1903 4.98662 30.5167 4.98662 30.6458 5.21345L32.4548 8.34474C32.5157 8.44986 32.5157 8.57894 32.4548 8.68406L32.453 8.68221Z" fill="#242232"/>
<path d="M28.1434 0.90247L29.7146 3.62253C29.7755 3.72764 29.7755 3.85673 29.7146 3.96185L28.1434 6.68191C28.0826 6.78702 27.9701 6.85156 27.8502 6.85156L24.7079 6.85156C24.5861 6.85156 24.4755 6.78702 24.4146 6.68191L22.8435 3.96185C22.7826 3.85673 22.7826 3.72764 22.8435 3.62253L24.4146 0.902471C24.4755 0.797356 24.588 0.732813 24.7079 0.732813L27.8502 0.732813C27.9719 0.732813 28.0826 0.797356 28.1434 0.90247Z" fill="#242232"/>
<path d="M9.4218 0.690195L22.8119 0.690194C23.0737 0.690194 23.236 0.972342 23.1051 1.19917L22.6441 1.99582C22.5832 2.10094 22.4707 2.16548 22.3508 2.16548L10.2738 2.16548C10.1521 2.16548 10.0414 2.23002 9.98057 2.33514L6.76629 7.90066C6.70543 8.00577 6.59295 8.07031 6.47308 8.07031L5.55287 8.07031C5.291 8.07031 5.12872 7.78816 5.25965 7.56134L9.12859 0.85801C9.18945 0.752896 9.30194 0.688352 9.4218 0.688352L9.4218 0.690195Z" fill="#242232"/>
<path d="M4.62928 9.19886L12.369 9.19886C12.6309 9.19886 12.7931 9.48101 12.6622 9.70784L12.2012 10.5045C12.1403 10.6096 12.0278 10.6741 11.908 10.6741L5.48126 10.6741C5.35955 10.6741 5.2489 10.7387 5.18804 10.8438L4.03548 12.8391C3.97462 12.9442 3.86213 13.0088 3.74226 13.0088L2.82205 13.0088C2.56019 13.0088 2.39791 12.7266 2.52884 12.4998L4.33607 9.36852C4.39692 9.26341 4.50941 9.19886 4.62928 9.19886Z" fill="#242232"/>
<path d="M5.3446 14.1007L6.91578 16.8208C6.97664 16.9259 6.97664 17.055 6.91578 17.1601L5.3446 19.8801C5.28375 19.9853 5.17126 20.0498 5.05139 20.0498L1.90903 20.0498C1.78732 20.0498 1.67668 19.9853 1.61582 19.8801L0.0446403 17.1601C-0.0162156 17.055 -0.0162156 16.9259 0.0446403 16.8208L1.61582 14.1007C1.67668 13.9956 1.78917 13.9311 1.90903 13.9311L5.05139 13.9311C5.1731 13.9311 5.28375 13.9956 5.3446 14.1007Z" fill="#242232"/>
<path d="M9.63018 17.1434L13.9749 24.6692C14.0357 24.7743 14.1482 24.8389 14.2681 24.8389L22.9575 24.8389C23.0793 24.8389 23.1899 24.7743 23.2508 24.6692L27.5955 17.1434C27.6563 17.0383 27.6563 16.9092 27.5955 16.8041L23.2508 9.27829C23.1899 9.17317 23.0774 9.10863 22.9575 9.10863L14.2681 9.10863C14.1464 9.10863 14.0357 9.17317 13.9749 9.27829L9.63018 16.8041C9.56932 16.9092 9.56932 17.0383 9.63018 17.1434ZM14.3031 16.7377L16.3741 13.1509C16.4349 13.0458 16.5474 12.9813 16.6673 12.9813L20.8073 12.9813C20.929 12.9813 21.0397 13.0458 21.1005 13.1509L23.1715 16.7377C23.2323 16.8428 23.2323 16.9719 23.1715 17.077L21.1005 20.6638C21.0397 20.7689 20.9272 20.8335 20.8073 20.8335L16.6673 20.8335C16.5456 20.8335 16.4349 20.7689 16.3741 20.6638L14.3031 17.077C14.2423 16.9719 14.2423 16.8428 14.3031 16.7377Z" fill="#242232"/>
</g>
<defs>
<clipPath id="clip0_4062_27907">
<rect width="37.4704" height="32.6204" fill="white" transform="translate(37.4707 33.3105) rotate(180)"/>
</clipPath>
</defs>
</svg>
