<svg width="32" height="32" viewBox="0 0 32 32" fill="none" xmlns="http://www.w3.org/2000/svg">
<rect width="32" height="32" rx="10" fill="#8A38F5"/>
<path d="M15.6806 4.22215C16.2613 3.92487 16.9769 4.60239 16.6623 5.17103C16.4911 5.62214 15.8137 5.74139 15.449 5.39572C15.0861 5.06387 15.207 4.40016 15.691 4.21004L15.6806 4.22215ZM9.4308 4.87375C9.79376 4.73202 10.231 5.0414 10.1947 5.40955C10.231 5.81226 9.72117 6.11991 9.35821 5.91768C8.88464 5.74139 8.94513 4.993 9.4308 4.87375ZM22.2381 5.93151C21.6815 5.85892 21.5969 5.0293 22.1189 4.86338C22.5439 4.67326 22.919 5.0293 22.9795 5.40955C22.8949 5.7293 22.6166 6.02658 22.2398 5.93151M10.8515 7.42656C11.4461 7.07052 12.2826 7.60286 12.1858 8.25619C12.1617 8.93371 11.2525 9.32432 10.7305 8.87322C10.2207 8.51718 10.3054 7.69792 10.8515 7.42656ZM19.865 7.81717C20.1311 7.16558 21.1975 7.14138 21.5018 7.77051C21.7922 8.26828 21.4291 8.88532 20.8969 9.05124C20.2038 9.17051 19.5366 8.45842 19.865 7.81717ZM14.927 9.00458C14.927 8.44631 15.4611 8.0315 16.0194 7.9952C16.3823 8.06607 16.7833 8.2199 16.9406 8.57767C17.231 9.06335 16.9769 9.73914 16.4429 9.97766C16.2009 10.0952 15.9105 10.0468 15.6443 10.0364C15.2433 9.8463 14.9029 9.46605 14.927 9.01668V9.00458ZM5.63701 9.8342C6.16935 9.51446 6.89872 10.0969 6.69132 10.6655C6.58243 11.1391 5.90317 11.3413 5.51601 11.0337C5.10121 10.7364 5.16343 10.0364 5.63701 9.8342ZM25.5998 9.8342C26.0613 9.47988 26.8149 9.8826 26.7543 10.4288C26.7889 10.9386 26.1477 11.331 25.6862 11.0683C25.1885 10.8436 25.1279 10.1194 25.5998 9.8342ZM17.5473 10.8436C17.9258 10.7209 18.3337 10.7226 18.7105 10.8488C19.0873 10.9749 19.4122 11.2186 19.6334 11.5436C20.1917 12.3265 19.9013 13.5365 19.0146 13.9876C18.1055 14.5337 16.7711 14.0705 16.4325 13.0974C16.0435 12.2194 16.6018 11.1167 17.5473 10.8436ZM13.1191 10.9265C13.9574 10.5463 15.0843 10.8678 15.4853 11.687C15.9693 12.4925 15.5942 13.609 14.7455 14.0238C13.8969 14.4974 12.6836 14.1414 12.2826 13.2755C11.8108 12.4458 12.2221 11.3051 13.1191 10.9265ZM8.68069 12.3853C8.74118 11.8651 9.25105 11.5315 9.77303 11.4969C10.0352 11.5215 10.2811 11.6348 10.4703 11.818C10.6594 12.0012 10.7805 12.2433 10.8135 12.5045C10.7772 13.0387 10.3538 13.5728 9.77129 13.5728C9.11451 13.6212 8.5597 12.9903 8.68069 12.3853ZM21.7801 11.6023C22.4455 11.248 23.3563 11.7804 23.3321 12.5045C23.3805 13.2876 22.3607 13.8354 21.7074 13.3826C21.0143 13.0024 21.0627 11.9359 21.7783 11.6023M11.3096 14.3436C11.695 14.245 12.1029 14.2728 12.4728 14.423C12.8409 14.5717 13.1468 14.838 13.3473 15.1749C13.5497 15.5236 13.6203 15.933 13.5469 16.3293C13.4733 16.7257 13.2603 17.0825 12.9463 17.3354C12.1219 18.0821 10.594 17.7744 10.1567 16.765C9.64685 15.8386 10.2535 14.5908 11.3096 14.3436ZM19.7146 14.3436C20.4682 14.131 21.3514 14.4145 21.7541 15.0696C22.2986 15.8265 22.0306 16.9673 21.2425 17.4409C20.3957 18.0112 19.1079 17.714 18.6482 16.8238C18.0899 15.9113 18.6482 14.6166 19.7146 14.3314V14.3436ZM6.3128 15.187C6.97823 14.9502 7.71971 15.6606 7.45353 16.3018C7.28069 16.8844 6.43379 17.0969 5.99651 16.6578C5.47453 16.2656 5.66812 15.365 6.3128 15.187ZM24.4694 16.1238C24.4634 15.9936 24.483 15.8633 24.5275 15.7408C24.5721 15.6182 24.6403 15.506 24.7286 15.41C24.9106 15.2137 25.1614 15.0954 25.4286 15.0798C25.8781 15.1508 26.3274 15.5068 26.2894 15.9942C26.3378 16.6233 25.5375 17.0624 24.9793 16.7546C24.7131 16.6337 24.5801 16.3745 24.4694 16.1238ZM3.01851 15.5068C3.42987 15.3409 3.92764 15.6728 3.83085 16.0996C3.80665 16.587 3.06691 16.7772 2.78691 16.3745C2.54493 16.0893 2.69012 15.6606 3.02888 15.5068H3.01851ZM28.4291 15.5068C28.7213 15.3064 29.1689 15.4377 29.2778 15.7557C29.4731 16.1117 29.1222 16.587 28.7213 16.5265C28.1509 16.5749 27.9555 15.7436 28.4291 15.4946V15.5068ZM13.4977 17.8332C14.5519 17.5722 15.6927 18.426 15.7047 19.47C15.7653 20.5381 14.6505 21.4888 13.5582 21.2398C13.1459 21.1674 12.7717 20.9534 12.5004 20.6349C12.2334 20.3197 12.0881 19.9193 12.0908 19.5062C12.0908 18.7337 12.6974 17.9992 13.4977 17.8453V17.8332ZM17.6942 17.8332C18.7743 17.548 19.9393 18.414 19.9273 19.4942C19.9859 20.526 18.8954 21.4404 17.829 21.2277C16.8334 21.1085 16.0937 20.0525 16.3719 19.114C16.5171 18.4969 17.0511 17.987 17.6942 17.8332ZM9.59155 18.4848C10.3434 18.3656 11.0468 19.1624 10.7323 19.8381C10.5145 20.5624 9.42216 20.7645 8.93649 20.17C8.36612 19.5996 8.78957 18.5557 9.59155 18.4848ZM21.9166 18.521C22.5734 18.248 23.3978 18.8062 23.3373 19.4942C23.3737 20.2546 22.3659 20.7888 21.7126 20.3358C20.9833 19.9332 21.1042 18.7596 21.9166 18.521ZM25.3491 21.8448C25.0951 21.3694 25.5686 20.7524 26.1027 20.8354C26.3689 20.8354 26.5625 21.0376 26.7335 21.2157C26.7699 21.4888 26.8303 21.8085 26.5867 22.0332C26.2583 22.4256 25.5323 22.308 25.3491 21.8448ZM5.62836 20.9633C6.12441 20.6436 6.83996 21.1292 6.73107 21.6892C6.67057 22.199 6.01552 22.4842 5.59035 22.199C5.13059 21.9364 5.14269 21.2018 5.62836 20.9633ZM15.5595 22.0193C16.2163 21.7341 17.0511 22.2924 16.9907 22.9821C17.0391 23.7512 16.009 24.287 15.3661 23.8237C14.6383 23.4314 14.7594 22.2578 15.5595 22.0193ZM10.9501 23.0529C11.5204 22.7677 12.2723 23.2552 12.2118 23.8601C12.236 24.3578 11.7278 24.7848 11.2301 24.7018C10.8049 24.7018 10.5266 24.3337 10.3935 23.9897C10.3935 23.6094 10.5629 23.1946 10.9639 23.0408L10.9501 23.0529ZM20.2902 23.0529C20.8606 22.7072 21.6729 23.2085 21.6245 23.848C21.6366 24.5358 20.7154 24.9628 20.1691 24.5237C20.0522 24.436 19.9594 24.32 19.8994 24.1865C19.8394 24.0532 19.8143 23.9068 19.8265 23.7609C19.8386 23.6152 19.8874 23.4748 19.9685 23.3532C20.0495 23.2314 20.1603 23.1322 20.2902 23.065V23.0529ZM21.9045 26.9089C21.6487 26.5529 21.9511 26.0897 22.3642 26.0085C22.7047 26.0776 23.0555 26.3161 22.9709 26.6825C22.9346 27.1941 22.1706 27.348 21.9045 26.921V26.9089ZM9.035 26.5892C9.13006 26.2936 9.37377 25.9964 9.73845 26.0776C10.2708 26.1138 10.4298 26.8848 9.96833 27.1233C9.54315 27.3825 9.06957 27.0161 9.035 26.5892ZM15.245 26.9332C15.3401 26.4941 15.9363 26.2816 16.3235 26.5184C16.5655 26.6254 16.6519 26.8985 16.7125 27.1353L16.6157 27.4897C16.4566 27.6798 16.2527 27.8578 15.9969 27.8457C15.4991 27.9062 15.0497 27.3721 15.245 26.9332Z" fill="#ECF4FC"/>
</svg>
