<?xml version="1.0" encoding="UTF-8"?>
<!-- Generated by Pixelmator Pro 3.7 -->
<svg width="1094" height="1094" viewBox="0 0 1094 1094" xmlns="http://www.w3.org/2000/svg">
    <g id="x0023Layerx00201">
        <g id="2120793646896">
            <g id="Group">
                <g id="g1"/>
                <g id="g2">
                    <path id="Path" fill="#ffffff" stroke="none" d="M 547.318604 0.143555 C 473.559357 0.143555 401.980804 14.600708 334.569153 43.113037 C 269.483276 70.642944 211.040802 110.042847 160.865112 160.218506 C 110.689423 210.395142 71.289581 268.837646 43.76059 333.923462 C 15.248247 401.335144 0.79113 472.913757 0.79113 546.672913 C 0.79113 620.431213 15.248247 692.010742 43.76059 759.421387 C 71.289581 824.507324 110.690353 882.950745 160.865112 933.126404 C 211.041733 983.302979 269.484222 1022.701904 334.569153 1050.231812 C 401.980804 1078.744141 473.560303 1093.201294 547.318604 1093.201294 C 621.076904 1093.201294 692.656311 1078.744141 760.068054 1050.231812 C 825.15387 1022.701904 883.59729 983.302979 933.772034 933.126404 C 983.94873 882.950745 1023.347656 824.507324 1050.876587 759.421387 C 1079.388916 692.010742 1093.846069 620.431213 1093.846069 546.672913 C 1093.846069 472.913757 1079.388916 401.335144 1050.876587 333.923462 C 1023.347656 268.83667 983.947815 210.394226 933.772034 160.218506 C 883.596375 110.042847 825.15387 70.642944 760.068054 43.113037 C 692.656311 14.600708 621.07782 0.143555 547.318604 0.143555 Z"/>
                    <path id="path1" fill="#73cddd" stroke="none" d="M 547.318604 23.911377 C 258.605103 23.911377 24.557926 257.959473 24.557926 546.672913 C 24.557926 835.384583 258.605103 1069.433594 547.318604 1069.433594 C 836.031128 1069.433594 1070.079224 835.384583 1070.079224 546.672913 C 1070.079224 257.959473 836.031128 23.911377 547.318604 23.911377 Z"/>
                    <path id="path2" fill="#57a7b9" fill-rule="evenodd" stroke="none" d="M 464.657166 633.428711 L 486.293549 641.436829 C 490.056671 351.487854 351.97168 460.647522 273.481781 390.83374 L 274.748871 440.026062 L 289.427399 443.276611 C 303.095612 446.890015 318.131409 449.341309 333.714203 451.867188 C 340.911133 453.03656 349.377014 454.982788 356.423218 455.724243 C 386.631531 461.308044 414.661041 469.2901 428.381348 488.778381 C 448.721771 517.667542 460.020477 589.482422 464.657166 633.427734 Z M 630.613525 633.428711 L 608.977173 641.436829 C 605.21405 351.487854 743.299988 460.647522 821.788879 390.83374 L 820.52179 440.026062 L 805.843323 443.276611 C 792.17511 446.890015 777.139343 449.341309 761.556519 451.867188 C 754.359558 453.03656 745.893677 454.982788 738.847534 455.724243 C 708.639221 461.308044 680.60968 469.2901 666.889404 488.778381 C 646.54895 517.667542 635.250244 589.482422 630.613525 633.427734 Z M 453.689697 711.255249 C 460.379578 796.168945 517.204224 840.182251 547.630249 840.182251 C 578.003235 840.182251 634.730164 795.883301 641.581055 711.255249 L 633.232361 643.9729 L 547.635803 638.484009 L 462.039276 643.9729 L 453.690613 711.255249 Z"/>
                    <path id="path3" fill="#0f1b1d" stroke="none" d="M 496.687042 754.21167 C 491.829865 749.349854 483.943573 749.349854 479.086365 754.21167 C 474.224579 759.071655 474.224579 766.952332 479.086365 771.812378 C 480.251129 772.979004 508.078796 800.352539 547.631165 800.352539 C 587.183594 800.352539 615.01123 772.979004 616.175964 771.812378 C 621.037781 766.952332 621.037781 759.071655 616.175964 754.21167 C 611.318787 749.349854 603.432495 749.349854 598.575317 754.21167 C 598.361328 754.422852 576.98822 775.458191 547.631165 775.458191 C 518.600647 775.458191 496.872192 754.391235 496.687042 754.21167 Z"/>
                    <path id="path4" fill="#0f1b1d" stroke="none" d="M 420.977905 473.471924 C 407.555267 470.674438 395.044373 471.276367 384.190369 474.989258 C 372.868408 478.865906 363.417328 486.03772 356.639069 496.2005 C 353.508545 500.868774 354.762604 507.194031 359.425354 510.31897 C 364.092743 513.449463 370.418884 512.194458 373.549408 507.531738 C 377.779541 501.19165 383.676819 496.707458 390.729584 494.293335 C 398.194458 491.734985 407.06781 491.382385 416.826813 493.417908 C 422.331482 494.557556 427.731049 491.025085 428.875366 485.519531 C 430.015015 480.015747 426.481628 474.616211 420.977905 473.470947 Z"/>
                    <path id="path5" fill="#0f1b1d" stroke="none" d="M 408.227875 519.056458 C 397.22876 519.056458 388.312622 527.972656 388.312622 538.971802 C 388.312622 549.969971 397.22876 558.886108 408.227875 558.886108 C 419.22702 558.886108 428.142242 549.969971 428.142242 538.971802 C 428.142242 527.972656 419.226105 519.056458 408.227875 519.056458 Z"/>
                    <path id="path6" fill="#0f1b1d" stroke="none" d="M 878.742004 299.994873 C 878.742004 233.125549 817.10199 200.954285 784.509277 193.283813 C 779.983276 192.216736 775.256348 193.765747 772.222595 197.280457 C 769.196289 200.797974 768.376648 205.710999 770.09967 210.023987 C 770.28009 210.473267 788.376648 256.645813 779.539551 291.996948 C 772.144409 321.572632 717.483704 322.398743 716.933899 322.398743 C 712.771667 322.398743 708.88385 324.479858 706.577637 327.940613 C 705.344971 329.791016 694.530029 346.817688 694.530029 374.674133 C 694.530029 390.140686 698.704346 405.610901 702.445129 416.372803 C 674.04071 423.47113 647.190857 434.447021 631.897339 457.385803 C 602.196106 501.935852 595.84668 614.296753 595.054993 631.075928 L 546.491516 631.075928 L 540.727295 631.075928 L 500.233398 631.075928 C 499.441681 614.296753 493.09137 501.935852 463.391022 457.385803 C 448.097534 434.447021 421.247681 423.47113 392.843262 416.372803 C 396.584076 405.610901 400.758362 390.140686 400.758362 374.674133 C 400.758362 346.816772 389.94342 329.791016 388.710754 327.940613 C 386.403595 324.478943 382.516754 322.398743 378.354492 322.398743 C 377.804657 322.398743 323.143951 321.572632 315.74884 291.996948 C 306.91272 256.645813 325.009216 210.473267 325.188782 210.023987 C 326.911713 205.710999 326.093048 200.797974 323.065796 197.280457 C 320.032043 193.765747 315.30603 192.216736 310.779114 193.283813 C 278.187317 200.953369 216.546402 233.125549 216.546402 299.994873 C 216.546402 341.232056 232.511581 375.541199 262.011932 399.195435 C 259.981964 409.175903 259.837769 425.456421 269.626556 448.297546 C 286.949982 488.720703 326.874512 489.184937 328.566742 489.184937 C 334.065857 489.184937 338.523926 484.725952 338.523926 479.227783 C 338.523926 473.728638 334.065857 469.270569 328.566742 469.270569 C 328.284882 469.270569 300.14093 468.940369 287.932404 440.454041 C 282.671448 428.177612 281.037811 418.679993 280.870361 411.827271 C 282.969147 412.994812 285.072601 414.15863 287.267212 415.242493 L 288.150085 415.679749 C 305.986115 424.599609 328.594666 428.86322 352.527069 433.375305 C 359.151855 434.624695 365.814758 435.881531 372.383728 437.245361 C 373.010773 437.427734 373.642456 437.558899 374.275085 437.641724 C 403.193939 443.75293 429.959167 452.11554 442.678436 471.19635 C 464.953003 504.610535 473.621735 595.325684 475.320465 631.198669 C 470.479095 631.549438 460.815887 633.077026 454.190186 639.703674 C 444.999603 648.892334 435.287109 674.454712 446.204315 707.205566 C 446.653687 708.554504 447.395142 709.724854 448.244537 710.807739 C 453.498047 711.062622 466.276855 712.991211 467.969086 710.737061 C 468.323547 710.260742 476.793152 699.187134 487.295502 704.44342 C 503.069916 712.33252 511.542358 728.634521 511.602783 728.750732 C 514.675598 734.899231 522.148865 737.390625 528.301086 734.315002 C 534.448547 731.242126 536.940918 723.764282 533.865234 717.616699 C 533.383362 716.651062 521.785156 693.858276 498.427643 682.180054 C 486.42099 676.175781 475.267456 677.449402 466.30011 681.435791 C 465.585602 667.659668 470.079987 659.126831 471.687592 657.398254 C 472.58905 656.712646 475.723297 656.007446 477.925354 655.971191 L 540.724487 655.971191 L 546.48877 655.971191 L 617.357483 655.971191 C 619.559509 656.007446 622.693787 656.712646 623.595215 657.398254 C 625.201904 659.126831 629.697144 667.659668 628.98175 681.435791 C 620.01355 677.448486 608.859924 676.174866 596.854248 682.180054 C 573.496765 693.858276 561.898499 716.651978 561.417542 717.616699 C 558.341919 723.764282 560.834229 731.242126 566.98175 734.315002 C 573.134888 737.390625 580.608093 734.898315 583.680054 728.750732 C 583.740479 728.633545 592.211975 712.33252 607.987305 704.44342 C 618.489685 699.18811 626.95929 710.260742 627.31366 710.737061 C 629.005981 712.991211 641.78479 711.061707 647.038269 710.807739 C 647.887695 709.724854 648.630066 708.553589 649.078491 707.205566 C 659.995728 674.454712 650.28418 648.893311 641.092651 639.703674 C 634.467834 633.077026 624.805542 631.549438 619.963257 631.198669 C 621.661987 595.325684 630.33075 504.610535 652.605286 471.19635 C 665.324585 452.11554 692.089783 443.75293 721.008667 437.641724 C 721.640381 437.558899 722.272949 437.427734 722.900024 437.245361 C 729.468994 435.881531 736.131897 434.624695 742.756714 433.375305 C 766.689087 428.86322 789.297607 424.599609 807.133667 415.679749 L 808.016479 415.242493 C 810.211182 414.159546 812.314575 412.995789 814.413452 411.827271 C 814.245911 418.679993 812.611389 428.177612 807.350464 440.454041 C 795.141907 468.940369 766.997986 469.270569 766.716064 469.270569 C 761.216919 469.270569 756.75885 473.728638 756.75885 479.227783 C 756.75885 484.726868 761.216919 489.184937 766.716064 489.184937 C 768.407349 489.184937 808.331909 488.720703 825.655334 448.297546 C 835.445007 425.456421 835.299927 409.174927 833.269958 399.195435 C 862.770325 375.541199 878.735474 341.232971 878.735474 299.994873 Z"/>
                    <path id="path7" fill="#0f1b1d" stroke="none" d="M 721.739929 507.531738 C 724.870422 512.194458 731.196594 513.449463 735.863953 510.31897 C 740.526733 507.193054 741.780762 500.867859 738.650269 496.2005 C 731.872009 486.03772 722.421814 478.866821 711.098938 474.989258 C 700.244934 471.276367 687.733093 470.674438 674.311462 473.471924 C 668.807678 474.617126 665.273438 480.015747 666.413086 485.520447 C 667.557312 491.025085 672.957825 494.558472 678.461548 493.418823 C 688.221558 491.383301 697.094849 491.736816 704.558777 494.29425 C 711.611511 496.708435 717.50885 501.19165 721.739014 507.532654 Z"/>
                    <path id="path8" fill="#0f1b1d" stroke="none" d="M 687.062378 519.056458 C 676.064148 519.056458 667.14801 527.972656 667.14801 538.971802 C 667.14801 549.969971 676.064148 558.886108 687.062378 558.886108 C 698.061462 558.886108 706.9776 549.969971 706.9776 538.971802 C 706.9776 527.972656 698.061462 519.056458 687.062378 519.056458 Z"/>
                    <path id="path9" fill="#0f1b1d" stroke="none" d="M 371.765076 274.411133 C 376.865997 272.558899 379.509949 266.872803 377.755371 261.738403 C 377.385101 260.661987 369.197388 235.012268 409.418701 203.257751 C 427.857544 188.701111 460.683777 180.742249 477.929077 177.384705 L 477.929077 215.357422 C 477.929077 219.378296 480.352539 222.998169 484.064514 224.544312 C 487.774628 226.083069 492.060577 225.242065 494.913849 222.410156 C 495.239441 222.086426 528.048889 189.983093 573.515381 185.436646 C 602.962646 182.493103 629.000366 185.006775 644.55896 187.352112 L 609.365112 234.274536 C 606.735107 237.782715 606.70813 242.596191 609.297241 246.13324 C 611.891907 249.667542 616.482971 251.092773 620.62384 249.648926 C 621.075928 249.487976 666.302368 233.800964 691.426514 235.255066 C 712.624695 236.501709 722.191101 241.813782 725.637939 245.33136 L 712.977234 270.64801 C 710.519348 275.568481 712.513 281.548523 717.430725 284.008301 C 718.85968 284.723694 720.378845 285.060486 721.877563 285.060486 C 725.528198 285.060486 729.046631 283.042603 730.79187 279.554871 L 745.728149 249.682373 C 746.632385 247.872009 746.965454 245.824402 746.677979 243.821411 C 746.070435 239.567078 740.605774 218.198608 692.595886 215.373291 C 678.117371 214.515503 659.063538 218.183777 643.345825 222.158081 L 670.106445 186.480408 C 672.107544 183.81134 672.640564 180.317993 671.524231 177.1745 C 670.408813 174.029053 667.792725 171.653992 664.55426 170.844604 C 662.860168 170.419434 622.462097 160.534851 571.532837 165.618103 C 539.637878 168.80719 513.69696 183.211304 497.84433 194.427185 L 497.84433 165.568787 C 497.84433 162.695984 496.602417 159.962708 494.441223 158.07135 C 492.277344 156.179993 489.397095 155.312988 486.554993 155.700928 C 484.138947 156.02655 427.050964 163.963989 397.079926 187.624695 C 344.628662 229.034973 358.491302 267.116516 359.105316 268.715759 C 361.055267 273.784119 366.675293 276.264343 371.766022 274.409302 Z"/>
                    <path id="path10" fill="#0f1b1d" stroke="none" d="M 770.674561 511.09021 C 766.276978 514.39093 765.384766 520.632446 768.683655 525.031921 C 768.960938 525.398438 796.2052 562.379456 791.628113 612.749573 C 789.289246 638.47467 784.041321 657.01123 779.745117 668.562988 L 764.837708 647.693237 C 762.421692 644.31427 758.157166 642.795105 754.151245 643.86499 C 750.137817 644.944092 747.215698 648.401184 746.821228 652.539185 C 746.726379 653.557983 736.73291 755.020081 703.768982 802.11084 C 680.405029 835.487915 654.49292 862.251221 640.66748 875.639404 L 626.431763 843.605774 C 624.810242 839.957031 621.250854 837.607971 617.163025 837.705688 C 613.165466 837.77179 609.59491 840.229675 608.095276 843.934143 C 608.003113 844.164917 598.432068 867.40509 575.442078 890.396973 C 561.502197 904.335938 552.498596 911.724487 547.635803 915.346191 C 542.732117 911.699341 533.735046 904.311646 519.821228 890.396973 C 496.831268 867.404175 487.260132 844.164001 487.17453 843.952759 C 485.686981 840.236084 482.121094 837.770752 478.117004 837.695435 C 478.053711 837.692627 477.990479 837.692627 477.929993 837.692627 C 474.001251 837.692627 470.42981 840.004517 468.829651 843.604858 L 454.594879 875.638367 C 440.769409 862.250244 414.85733 835.487915 391.493347 802.109985 C 358.567596 755.075012 348.537842 653.557007 348.437408 652.535522 C 348.042938 648.400269 345.121735 644.943237 341.110229 643.866821 C 337.084747 642.784851 332.83783 644.31427 330.423676 647.693237 L 315.519989 668.561157 C 311.220093 657.003845 305.973083 638.470093 303.634277 612.750488 C 299.084106 562.700378 326.315399 525.385437 326.578644 525.032837 C 329.877594 520.632446 328.985413 514.391846 324.586853 511.091064 C 320.192047 507.796875 313.949615 508.684387 310.645111 513.082031 C 309.332458 514.834717 278.537109 556.640381 283.802734 614.554443 C 288.562225 666.918213 304.550659 692.603271 305.228821 693.671265 C 307.003876 696.466919 310.052521 698.195435 313.363525 698.285645 C 316.64566 698.358276 319.810608 696.812073 321.736389 694.121582 L 331.892639 679.902588 C 337.203827 714.834106 349.748199 777.205322 375.176544 813.53241 C 410.316467 863.730347 449.796295 898.498169 451.458801 899.955078 C 453.841309 902.038025 457.074158 902.862305 460.157257 902.184082 C 463.246826 901.503113 465.828461 899.395874 467.114136 896.505493 L 478.724487 870.38208 C 484.68222 880.021118 493.505371 892.24646 505.740906 904.479187 C 531.044556 929.785645 542.011108 935.634521 543.177734 936.217896 C 544.580688 936.918335 546.104492 937.268127 547.631165 937.268127 C 549.157837 937.268127 550.681702 936.918335 552.084595 936.217896 C 553.251221 935.634521 564.217773 929.785645 589.521423 904.479187 C 601.756958 892.24646 610.579163 880.021118 616.537842 870.38208 L 628.148193 896.505493 C 629.433899 899.395874 632.015503 901.503113 635.105103 902.184082 C 638.190063 902.862305 641.422913 902.038025 643.802612 899.955078 C 645.466064 898.498169 684.945007 863.730347 720.0849 813.53241 C 745.513245 777.206299 758.056702 714.834106 763.368774 679.902588 L 773.525024 694.121582 C 775.447998 696.812988 778.559875 698.361023 781.897888 698.285645 C 785.207947 698.195435 788.256653 696.466919 790.031677 693.671265 C 790.7099 692.604248 806.699219 666.918213 811.458679 614.554443 C 816.724304 556.640381 785.92804 514.834717 784.615295 513.082031 C 781.316406 508.684387 775.075867 507.796875 770.673645 511.091064 Z"/>
                    <path id="path11" fill="#ffffff" stroke="none" d="M 298.291473 392.922302 L 299.285034 393.415344 C 314.01474 400.778809 334.962677 404.729004 357.14328 408.912598 C 360.826416 409.605713 364.552338 410.308044 368.304291 411.039307 C 371.576233 402.231995 375.866821 388.122803 375.866821 374.674133 C 375.866821 361.94281 372.876801 352.393982 370.583557 346.944214 C 351.113892 345.473389 301.546661 337.81781 291.600616 298.034668 C 285.350769 273.037048 289.53717 245.167603 294.350647 225.678406 C 272.192383 236.212341 241.442612 258.337158 241.442612 299.993896 C 241.442612 329.581726 251.304901 369.720215 298.292389 392.921387 Z"/>
                    <path id="path12" fill="#ffffff" stroke="none" d="M 738.146973 408.913513 C 760.327576 404.729919 781.275513 400.779785 796.005249 393.416321 L 796.998779 392.923218 C 843.985291 369.722046 853.848572 329.583557 853.848572 299.995789 C 853.848572 258.338989 823.0979 236.213318 800.940552 225.680237 C 805.754028 245.169434 809.94043 273.03894 803.690552 298.03656 C 793.745483 337.819641 744.177307 345.47522 724.706726 346.946045 C 722.414368 352.395874 719.424316 361.945557 719.424316 374.676025 C 719.424316 388.124634 723.714966 402.233826 726.986877 411.041138 C 730.737976 410.309937 734.464783 409.606628 738.147888 408.914429 Z"/>
                </g>
            </g>
        </g>
    </g>
</svg>
