<svg width="375" height="347" viewBox="0 0 375 347" fill="none" xmlns="http://www.w3.org/2000/svg">
<path d="M272 173C272 186.807 260.807 198 247 198C233.193 198 222 186.807 222 173C222 159.193 233.193 148 247 148C260.807 148 272 159.193 272 173Z" fill="#D9D9D9"/>
<path d="M242 225C242 238.807 230.807 250 217 250C203.193 250 192 238.807 192 225C192 211.193 203.193 200 217 200C230.807 200 242 211.193 242 225Z" fill="#D9D9D9"/>
<path d="M183 225C183 238.807 171.807 250 158 250C144.193 250 133 238.807 133 225C133 211.193 144.193 200 158 200C171.807 200 183 211.193 183 225Z" fill="#D9D9D9"/>
<path d="M242 121C242 134.807 230.807 146 217 146C203.193 146 192 134.807 192 121C192 107.193 203.193 96 217 96C230.807 96 242 107.193 242 121Z" fill="#D9D9D9"/>
<path d="M291 122C291 130.284 284.284 137 276 137C267.716 137 261 130.284 261 122C261 113.716 267.716 107 276 107C284.284 107 291 113.716 291 122Z" fill="#D9D9D9"/>
<path d="M291 224C291 232.284 284.284 239 276 239C267.716 239 261 232.284 261 224C261 215.716 267.716 209 276 209C284.284 209 291 215.716 291 224Z" fill="#D9D9D9"/>
<path d="M202 276C202 284.284 195.284 291 187 291C178.716 291 172 284.284 172 276C172 267.716 178.716 261 187 261C195.284 261 202 267.716 202 276Z" fill="#D9D9D9"/>
<path d="M202 70C202 78.2843 195.284 85 187 85C178.716 85 172 78.2843 172 70C172 61.7157 178.716 55 187 55C195.284 55 202 61.7157 202 70Z" fill="#D9D9D9"/>
<path d="M267 60C267 67.1797 261.18 73 254 73C246.82 73 241 67.1797 241 60C241 52.8203 246.82 47 254 47C261.18 47 267 52.8203 267 60Z" fill="#D9D9D9"/>
<path d="M197 10C197 15.5228 192.523 20 187 20C181.477 20 177 15.5228 177 10C177 4.47715 181.477 0 187 0C192.523 0 197 4.47715 197 10Z" fill="#D9D9D9"/>
<path d="M285 18C285 22.4183 281.418 26 277 26C272.582 26 269 22.4183 269 18C269 13.5817 272.582 10 277 10C281.418 10 285 13.5817 285 18Z" fill="#D9D9D9"/>
<path d="M106 18C106 22.4183 102.418 26 98 26C93.5817 26 90 22.4183 90 18C90 13.5817 93.5817 10 98 10C102.418 10 106 13.5817 106 18Z" fill="#D9D9D9"/>
<path d="M285 329C285 333.418 281.418 337 277 337C272.582 337 269 333.418 269 329C269 324.582 272.582 321 277 321C281.418 321 285 324.582 285 329Z" fill="#D9D9D9"/>
<path d="M375 173C375 177.418 371.418 181 367 181C362.582 181 359 177.418 359 173C359 168.582 362.582 165 367 165C371.418 165 375 168.582 375 173Z" fill="#D9D9D9"/>
<path d="M16 173C16 177.418 12.4183 181 8 181C3.58172 181 0 177.418 0 173C0 168.582 3.58172 165 8 165C12.4183 165 16 168.582 16 173Z" fill="#D9D9D9"/>
<path d="M106 329C106 333.418 102.418 337 98 337C93.5817 337 90 333.418 90 329C90 324.582 93.5817 321 98 321C102.418 321 106 324.582 106 329Z" fill="#D9D9D9"/>
<path d="M197 336.5C197 342.299 192.523 347 187 347C181.477 347 177 342.299 177 336.5C177 330.701 181.477 326 187 326C192.523 326 197 330.701 197 336.5Z" fill="#D9D9D9"/>
<path d="M339 254.5C339 260.299 334.523 265 329 265C323.477 265 319 260.299 319 254.5C319 248.701 323.477 244 329 244C334.523 244 339 248.701 339 254.5Z" fill="#D9D9D9"/>
<path d="M339 91.5C339 97.299 334.523 102 329 102C323.477 102 319 97.299 319 91.5C319 85.701 323.477 81 329 81C334.523 81 339 85.701 339 91.5Z" fill="#D9D9D9"/>
<path d="M56 254.5C56 260.299 51.5228 265 46 265C40.4772 265 36 260.299 36 254.5C36 248.701 40.4772 244 46 244C51.5228 244 56 248.701 56 254.5Z" fill="#D9D9D9"/>
<path d="M56 91.5C56 97.299 51.5228 102 46 102C40.4772 102 36 97.299 36 91.5C36 85.701 40.4772 81 46 81C51.5228 81 56 85.701 56 91.5Z" fill="#D9D9D9"/>
<path d="M333 173C333 180.18 327.18 186 320 186C312.82 186 307 180.18 307 173C307 165.82 312.82 160 320 160C327.18 160 333 165.82 333 173Z" fill="#D9D9D9"/>
<path d="M68 173C68 180.18 62.1797 186 55 186C47.8203 186 42 180.18 42 173C42 165.82 47.8203 160 55 160C62.1797 160 68 165.82 68 173Z" fill="#D9D9D9"/>
<path d="M134 60C134 67.1797 128.18 73 121 73C113.82 73 108 67.1797 108 60C108 52.8203 113.82 47 121 47C128.18 47 134 52.8203 134 60Z" fill="#D9D9D9"/>
<path d="M267 286C267 293.18 261.18 299 254 299C246.82 299 241 293.18 241 286C241 278.82 246.82 273 254 273C261.18 273 267 278.82 267 286Z" fill="#D9D9D9"/>
<path d="M134 286C134 293.18 128.18 299 121 299C113.82 299 108 293.18 108 286C108 278.82 113.82 273 121 273C128.18 273 134 278.82 134 286Z" fill="#D9D9D9"/>
<path d="M114 122C114 130.284 107.284 137 99 137C90.7157 137 84 130.284 84 122C84 113.716 90.7157 107 99 107C107.284 107 114 113.716 114 122Z" fill="#D9D9D9"/>
<path d="M114 224C114 232.284 107.284 239 99 239C90.7157 239 84 232.284 84 224C84 215.716 90.7157 209 99 209C107.284 209 114 215.716 114 224Z" fill="#D9D9D9"/>
<path d="M183 121C183 134.807 171.807 146 158 146C144.193 146 133 134.807 133 121C133 107.193 144.193 96 158 96C171.807 96 183 107.193 183 121Z" fill="#D9D9D9"/>
<path d="M153 173C153 186.807 141.807 198 128 198C114.193 198 103 186.807 103 173C103 159.193 114.193 148 128 148C141.807 148 153 159.193 153 173Z" fill="#D9D9D9"/>
</svg>
