<svg xmlns="http://www.w3.org/2000/svg" viewBox="0 0 4794 1020" width="1598" height="340" role="img" aria-labelledby="svg-adastat-logo" focusable="false">
  <path d="M755 855 990 520l180-130M445 855 210 520 30 390M590 640v380L245 530M610 640v380L955 530m45-45 200-145-150-215M200 485 0 340 150 125m75 365-50-375 190 85M975 490l50-375-190 85M245 505 380 225 580 615M955 505 820 225 620 615M375 175H825l185-80L810 0H390L190 95M395 200H805L600 605" fill="#00a6f4" />
  <path d="M600 555l170-335H430m220 360 150-275 20 80-55 160m-215 35-150-275-20 80 55 160m190 295V655l105-40M575 840V655l-105-40M330 135l-85-35L390 20h170M360 145 605 20h110L470 155H390M740 20h70l145 80-130 55H495" fill="#a2f4fd" />
  <path d="M295 565l130 50L580 960M905 565 775 615 620 960m400-525 125-90-90-130m-60-70-135 60L965 425M180 435 55 345l90-130m60-70 135 60L235 425m30 65 75-140 45 175m550-35-75-140-45 175" fill="#193cb8" />
  <path d="M4179 561H4047l66-153Zm-1404 0H2643l66-153Zm-1044 0H1599l66-153Zm360-186h63c99 0 138 51 138 138s-39 138-138 138h-63Zm78 375c114 0 246-54 246-240 0-183-132-240-246-240H1965V750ZM4650 372h144V270H4380V372h141V750h129Zm-948 0h141V270H3429V372h144V750h129Zm459-102h-99L3837 750h126l42-99h213l42 99h126Zm-1404 0h-99L2433 750h129l42-99h213l42 99h123Zm-1044 0h-99L1389 750h126l45-99h210l45 99h123ZM2994 702c159 96 363 54 393-45 33-114-33-168-165-195-36-9-93-21-93-48 0-99 186-36 213-9l39-90c-51-54-354-114-378 102 0 105 102 129 177 147 48 9 99 27 93 54-12 72-171 45-240-3Z" fill="#e5e7eb" />
</svg>
