<svg width="511" height="510" viewBox="0 0 511 510" fill="none" xmlns="http://www.w3.org/2000/svg">
<path fill-rule="evenodd" clip-rule="evenodd" d="M255.788 231.471C255.788 239.186 201.78 265.682 166.949 267.171C165.653 267.226 164.869 265.819 165.563 264.733L241.85 145.177C245.085 140.106 250.437 137.572 255.788 137.575V165.17C255.477 165.171 255.202 165.375 255.114 165.67C255.114 165.67 253.874 169.783 252.546 174.194C250.43 181.222 244.879 186.719 237.781 188.815C233.327 190.13 229.174 191.357 229.174 191.357C228.875 191.445 228.668 191.718 228.668 192.028C228.668 192.337 228.875 192.61 229.174 192.698C229.174 192.698 233.327 193.925 237.781 195.24C244.879 197.336 250.43 202.833 252.546 209.861C253.874 214.272 255.114 218.385 255.114 218.385C255.202 218.68 255.477 218.884 255.788 218.885V231.471ZM255.788 218.885V231.471C255.788 239.186 309.798 265.682 344.629 267.171C345.926 267.226 346.709 265.819 346.016 264.733L269.729 145.177C266.494 140.106 261.139 137.572 255.788 137.575V165.17C256.1 165.17 256.378 165.374 256.468 165.67C256.468 165.67 257.706 169.783 259.035 174.194C261.151 181.222 266.702 186.719 273.799 188.815C278.254 190.13 282.407 191.357 282.407 191.357C282.706 191.445 282.912 191.718 282.912 192.028C282.912 192.337 282.706 192.61 282.407 192.698C282.407 192.698 278.254 193.925 273.799 195.24C266.702 197.336 261.151 202.833 259.035 209.861C257.706 214.272 256.468 218.385 256.468 218.385C256.378 218.681 256.1 218.885 255.788 218.885Z" fill="white"/>
<path d="M75.7437 357.967L93.3284 313.961H102.533L119.991 357.967H109.072L100.629 335.65C100.333 334.77 99.9941 333.827 99.6132 332.821C99.2747 331.815 98.9362 330.767 98.5975 329.677C98.259 328.588 97.9416 327.54 97.6452 326.534C97.3492 325.528 97.0952 324.585 96.8834 323.705L98.7244 323.642C98.4705 324.69 98.1955 325.717 97.8991 326.723C97.6031 327.729 97.2857 328.735 96.9469 329.74C96.6084 330.746 96.2486 331.752 95.8677 332.758C95.5292 333.722 95.1694 334.728 94.7885 335.775L86.4088 357.967H75.7437ZM84.1234 349.543L87.5515 341.37H107.866L111.294 349.543H84.1234Z" fill="white"/>
<path d="M139.321 372.425C136.612 372.425 133.883 372.027 131.132 371.231C128.423 370.477 126.222 369.471 124.529 368.213L128.084 361.047C129.439 361.969 130.962 362.681 132.655 363.184C134.391 363.729 136.189 364.001 138.051 364.001C140.21 364.001 141.966 363.687 143.32 363.058C144.675 362.43 145.669 361.487 146.304 360.23C146.981 358.972 147.32 357.401 147.32 355.515V349.983L149.224 350.36C148.97 351.659 148.251 352.874 147.066 354.006C145.923 355.138 144.505 356.039 142.812 356.709C141.12 357.38 139.342 357.715 137.48 357.715C134.433 357.715 131.703 357.023 129.291 355.64C126.878 354.216 124.974 352.267 123.577 349.794C122.223 347.28 121.546 344.388 121.546 341.119C121.546 337.766 122.223 334.791 123.577 332.192C124.974 329.594 126.857 327.561 129.227 326.094C131.597 324.627 134.264 323.894 137.226 323.894C138.453 323.894 139.638 324.041 140.781 324.334C141.966 324.585 143.045 324.963 144.019 325.466C145.034 325.968 145.923 326.534 146.685 327.163C147.489 327.792 148.145 328.483 148.653 329.237C149.161 329.992 149.478 330.746 149.605 331.501L147.51 332.129L147.891 324.585H157.604V355.2C157.604 357.925 157.181 360.355 156.334 362.493C155.53 364.63 154.324 366.432 152.716 367.899C151.15 369.366 149.246 370.477 147.003 371.231C144.759 372.027 142.199 372.425 139.321 372.425ZM139.575 349.857C141.225 349.857 142.643 349.501 143.828 348.788C145.056 348.076 145.987 347.07 146.621 345.771C147.299 344.472 147.637 342.963 147.637 341.245C147.637 339.443 147.299 337.892 146.621 336.593C145.987 335.294 145.056 334.288 143.828 333.575C142.643 332.821 141.225 332.443 139.575 332.443C138.009 332.443 136.633 332.821 135.448 333.575C134.264 334.288 133.332 335.294 132.655 336.593C132.02 337.892 131.703 339.421 131.703 341.182C131.703 342.942 132.02 344.472 132.655 345.771C133.332 347.07 134.264 348.076 135.448 348.788C136.633 349.501 138.009 349.857 139.575 349.857Z" fill="white"/>
<path d="M166.423 357.966V324.585H176.136L176.58 335.461L174.676 333.324C175.226 331.563 176.072 329.971 177.215 328.546C178.358 327.121 179.712 325.99 181.278 325.151C182.886 324.313 184.558 323.894 186.293 323.894C187.055 323.894 187.753 323.957 188.388 324.083C189.065 324.167 189.658 324.313 190.166 324.523L187.436 335.65C186.97 335.398 186.336 335.189 185.531 335.021C184.77 334.811 183.966 334.707 183.119 334.707C182.188 334.707 181.32 334.874 180.516 335.21C179.754 335.503 179.078 335.943 178.485 336.53C177.935 337.117 177.49 337.808 177.152 338.604C176.856 339.401 176.707 340.302 176.707 341.307V357.966H166.423Z" fill="white"/>
<path d="M209.755 358.595C206.287 358.595 203.176 357.862 200.423 356.395C197.674 354.886 195.515 352.833 193.949 350.234C192.383 347.594 191.601 344.618 191.601 341.307C191.601 337.913 192.383 334.916 193.949 332.318C195.515 329.677 197.674 327.624 200.423 326.157C203.176 324.648 206.287 323.894 209.755 323.894C213.27 323.894 216.381 324.648 219.087 326.157C221.84 327.624 223.998 329.677 225.562 332.318C227.129 334.916 227.911 337.913 227.911 341.307C227.911 344.618 227.129 347.594 225.562 350.234C223.998 352.833 221.84 354.886 219.087 356.395C216.381 357.862 213.27 358.595 209.755 358.595ZM209.755 349.92C211.279 349.92 212.612 349.543 213.755 348.788C214.941 348.034 215.873 347.007 216.548 345.708C217.226 344.409 217.543 342.942 217.5 341.307C217.543 339.589 217.226 338.08 216.548 336.781C215.873 335.44 214.941 334.413 213.755 333.701C212.612 332.946 211.279 332.569 209.755 332.569C208.275 332.569 206.942 332.946 205.756 333.701C204.573 334.455 203.641 335.482 202.963 336.781C202.287 338.08 201.947 339.589 201.947 341.307C201.947 342.942 202.287 344.409 202.963 345.708C203.641 347.007 204.573 348.034 205.756 348.788C206.942 349.543 208.275 349.92 209.755 349.92Z" fill="white"/>
<path d="M240.68 357.966L229.634 324.585H240.363L246.584 346.148L245.188 345.897L252.171 329.175H258.138L265.566 345.959L264.042 346.085L270.263 324.585H280.992L269.501 357.966H262.011L254.647 340.113L255.472 340.239L248.235 357.966H240.68Z" fill="white"/>
<path d="M306.021 357.967V313.961H311.036V353.189H332.366V357.967H306.021Z" fill="white"/>
<path d="M360.527 357.966V335.964C360.527 333.826 359.765 332.108 358.242 330.809C356.718 329.51 354.71 328.86 352.211 328.86C350.139 328.86 348.255 329.279 346.561 330.117C344.87 330.956 343.366 332.213 342.053 333.889L338.879 330.746C340.784 328.609 342.858 327.016 345.101 325.968C347.386 324.921 349.862 324.397 352.528 324.397C355.067 324.397 357.269 324.816 359.13 325.654C360.994 326.492 362.411 327.708 363.384 329.3C364.399 330.893 364.907 332.82 364.907 335.084V357.966H360.527ZM349.1 358.595C346.942 358.595 345.017 358.176 343.323 357.338C341.632 356.499 340.276 355.347 339.26 353.88C338.288 352.371 337.8 350.611 337.8 348.599C337.8 346.965 338.097 345.519 338.689 344.262C339.324 343.004 340.235 341.957 341.419 341.119C342.605 340.28 344.108 339.652 345.926 339.233C347.747 338.772 349.821 338.541 352.147 338.541H362.685L362.304 342.502H351.512C350.032 342.502 348.719 342.627 347.576 342.879C346.477 343.13 345.525 343.529 344.72 344.073C343.958 344.576 343.366 345.205 342.942 345.959C342.561 346.672 342.371 347.531 342.371 348.537C342.371 349.71 342.668 350.758 343.26 351.68C343.894 352.56 344.72 353.251 345.735 353.754C346.794 354.216 347.98 354.446 349.29 354.446C351.028 354.446 352.655 354.153 354.179 353.566C355.702 352.937 357.058 352.099 358.242 351.051C359.471 349.962 360.443 348.746 361.162 347.405L362.495 350.422C361.566 352.015 360.4 353.44 359.003 354.697C357.607 355.913 356.063 356.877 354.369 357.589C352.718 358.26 350.964 358.595 349.1 358.595Z" fill="white"/>
<path d="M390.248 358.595C388.725 358.595 387.222 358.344 385.741 357.841C384.258 357.338 382.905 356.667 381.678 355.829C380.492 354.949 379.477 353.964 378.631 352.874C377.826 351.785 377.298 350.653 377.044 349.48L378.25 348.977V357.841H373.426V311.447H378.25V333.701L377.425 333.386C377.679 332.171 378.187 331.04 378.949 329.992C379.751 328.902 380.726 327.938 381.869 327.1C383.052 326.262 384.345 325.612 385.741 325.151C387.138 324.648 388.575 324.397 390.058 324.397C393.105 324.397 395.792 325.13 398.12 326.597C400.489 328.064 402.351 330.076 403.707 332.632C405.103 335.189 405.802 338.122 405.802 341.433C405.802 344.702 405.103 347.636 403.707 350.234C402.351 352.833 400.489 354.886 398.12 356.395C395.792 357.862 393.169 358.595 390.248 358.595ZM389.487 354.195C391.729 354.195 393.717 353.65 395.454 352.56C397.232 351.429 398.628 349.899 399.644 347.971C400.66 346.043 401.168 343.864 401.168 341.433C401.168 339.002 400.66 336.844 399.644 334.958C398.669 333.03 397.295 331.521 395.518 330.432C393.78 329.342 391.772 328.797 389.487 328.797C387.285 328.797 385.317 329.342 383.583 330.432C381.889 331.521 380.536 333.03 379.52 334.958C378.545 336.844 378.06 339.002 378.06 341.433C378.06 343.906 378.545 346.106 379.52 348.034C380.536 349.92 381.889 351.429 383.583 352.56C385.317 353.65 387.285 354.195 389.487 354.195Z" fill="white"/>
<path d="M424.027 358.595C421.233 358.595 418.714 358.113 416.472 357.149C414.227 356.143 412.409 354.718 411.013 352.874L414.314 350.045C415.54 351.554 417 352.686 418.694 353.44C420.385 354.194 422.313 354.572 424.471 354.572C425.57 354.572 426.543 354.446 427.391 354.194C428.237 353.901 428.955 353.524 429.55 353.063C430.141 352.56 430.565 351.994 430.819 351.365C431.114 350.695 431.264 349.982 431.264 349.228C431.264 347.845 430.713 346.735 429.613 345.896C429.019 345.477 428.193 345.079 427.137 344.702C426.122 344.283 424.872 343.885 423.392 343.507C421.106 342.963 419.179 342.334 417.615 341.621C416.091 340.867 414.885 340.008 413.996 339.044C413.318 338.29 412.81 337.472 412.473 336.592C412.132 335.712 411.965 334.706 411.965 333.575C411.965 331.773 412.473 330.18 413.489 328.797C414.504 327.414 415.878 326.345 417.615 325.591C419.392 324.795 421.401 324.397 423.646 324.397C425.169 324.397 426.67 324.606 428.153 325.025C429.677 325.444 431.073 326.052 432.343 326.848C433.613 327.645 434.712 328.609 435.644 329.74L432.787 332.758C431.939 331.877 431.01 331.123 429.994 330.494C429.019 329.824 428.003 329.321 426.947 328.986C425.888 328.609 424.852 328.42 423.836 328.42C422.734 328.42 421.741 328.546 420.853 328.797C419.964 329.007 419.202 329.342 418.567 329.803C417.973 330.222 417.528 330.746 417.234 331.375C416.937 331.961 416.79 332.653 416.79 333.449C416.83 334.036 416.98 334.623 417.234 335.209C417.488 335.754 417.846 336.215 418.313 336.592C418.905 337.054 419.75 337.514 420.853 337.975C421.952 338.395 423.285 338.772 424.852 339.107C426.883 339.61 428.597 340.176 429.994 340.804C431.391 341.391 432.51 342.104 433.359 342.942C434.247 343.696 434.882 344.576 435.263 345.582C435.644 346.588 435.834 347.74 435.834 349.039C435.834 350.925 435.327 352.602 434.311 354.069C433.295 355.494 431.899 356.604 430.121 357.4C428.343 358.197 426.312 358.595 424.027 358.595Z" fill="white"/>
</svg>
