<?xml version="1.0" encoding="UTF-8"?>
<!-- Generated by Pixelmator Pro 3.5.7 -->
<svg viewBox="0 0 1960 583" xmlns="http://www.w3.org/2000/svg">
    <path id="Path" fill="#FF5554" stroke="none" d="M 173.5 289.342529 C 172.179199 312.684204 190.087524 332.746704 213.420776 334.084106 C 214.237549 334.125854 215.05835 334.150879 215.858276 334.150879 C 238.300049 334.150879 256.883301 316.584106 258.158325 294.150879 C 259.487549 270.817505 241.583374 250.746704 218.237549 249.421631 C 194.758301 248.050781 174.829224 266.10083 173.5 289.342529"/>
    <path id="path2" fill="#FF5554" stroke="none" d="M 15.451294 278.515015 C 7.901245 278.081665 1.422119 283.856689 1.001221 291.415039 C 0.563721 298.964966 6.338745 305.448364 13.888794 305.877441 C 21.447144 306.310791 27.92627 300.523315 28.359619 292.973389 C 28.784546 285.410889 23.009644 278.939941 15.451294 278.515015"/>
    <path id="path3" fill="#FF5554" stroke="none" d="M 170.806274 43.354614 C 177.560425 39.95459 180.2854 31.70874 176.881226 24.950439 C 173.4646 18.196289 165.231201 15.471191 158.46875 18.883789 C 151.7146 22.283691 148.997925 30.529541 152.4021 37.283691 C 155.806274 44.046265 164.043701 46.758789 170.806274 43.354614"/>
    <path id="path4" fill="#FF5554" stroke="none" d="M 213.81543 118.354614 C 224.269531 113.096191 228.469604 100.362915 223.202881 89.921265 C 217.936279 79.475464 205.202881 75.27124 194.75293 80.529541 C 184.311279 85.796265 180.102905 98.529541 185.37793 108.971191 C 190.640381 119.421265 203.373779 123.629639 213.81543 118.354614"/>
    <path id="path5" fill="#FF5554" stroke="none" d="M 69.097046 169.925415 C 77.159546 175.212891 87.967896 172.962891 93.255371 164.904541 C 98.530396 156.850464 96.284546 146.042114 88.234619 140.758789 C 80.167969 135.471191 69.36377 137.721191 64.080444 145.783691 C 58.792969 153.837891 61.047119 164.650391 69.097046 169.925415"/>
    <path id="path6" fill="#FF5554" stroke="none" d="M 94.866211 270.877441 C 83.191284 270.210815 73.191284 279.135864 72.520386 290.814941 C 71.85376 302.498291 80.782959 312.494141 92.462036 313.17334 C 104.141235 313.835815 114.157959 304.902466 114.820435 293.223389 C 115.474609 281.544189 106.549561 271.531616 94.866211 270.877441"/>
    <path id="path7" fill="#FF5554" stroke="none" d="M 71.412476 413.187134 C 62.81665 417.520386 59.354126 428.016235 63.69165 436.616211 C 68.029175 445.216309 78.520874 448.674561 87.116699 444.341309 C 95.716675 439.999634 99.179199 429.516235 94.837524 420.907959 C 90.508301 412.312134 80.020874 408.845459 71.412476 413.187134"/>
    <path id="path8" fill="#FF5554" stroke="none" d="M 153.687866 227.123291 C 165.200439 234.67334 180.650391 231.460815 188.187866 219.944214 C 195.737915 208.448364 192.52124 192.998291 181.01709 185.460815 C 169.508789 177.902466 154.062866 181.119141 146.51709 192.619141 C 138.967041 204.131714 142.179565 219.573364 153.687866 227.123291"/>
    <path id="path9" fill="#FF5554" stroke="none" d="M 414.751709 116.670044 C 424.535034 123.08252 437.660034 120.353394 444.07666 110.565796 C 450.497559 100.790894 447.768311 87.661621 437.984985 81.244995 C 428.205811 74.828369 415.07251 77.553345 408.660034 87.344971 C 402.243286 97.119995 404.976685 110.257446 414.751709 116.670044"/>
    <path id="path10" fill="#FF5554" stroke="none" d="M 458.20459 41.918335 C 464.529541 46.068359 473.033691 44.297485 477.183716 37.972534 C 481.325439 31.63916 479.558716 23.147461 473.229614 18.993286 C 466.912964 14.843384 458.417114 16.618286 454.254639 22.935059 C 450.104614 29.272461 451.875366 37.76416 458.20459 41.918335"/>
    <path id="path11" fill="#FF5554" stroke="none" d="M 418.084106 248.986206 C 394.60498 247.623779 374.66333 265.673706 373.35083 288.894531 C 372.021606 312.240356 389.925781 332.311279 413.263306 333.63623 C 414.075806 333.677979 414.896606 333.707031 415.704956 333.707031 C 438.142456 333.707031 456.72168 316.144531 457.996704 293.723755 C 458.642456 282.407104 454.838379 271.527954 447.300781 263.086304 C 439.771606 254.62793 429.388306 249.623779 418.084106 248.986206"/>
    <path id="path12" fill="#FF5554" stroke="none" d="M 227.743774 224.189575 C 234.985474 238.568726 249.506226 247.514526 265.635376 247.514526 C 272.193726 247.514526 278.7854 245.939575 284.681274 242.9729 C 305.556274 232.447876 313.981201 206.90625 303.460449 186.0271 C 296.210449 171.635376 281.693726 162.702026 265.568726 162.702026 C 259.014526 162.702026 252.422974 164.2771 246.5271 167.239624 C 225.6521 177.760376 217.227051 203.297974 227.743774 224.189575"/>
    <path id="path13" fill="#FF5554" stroke="none" d="M 560.088379 169.880371 C 568.684204 165.547119 572.155029 155.05957 567.813354 146.451294 C 563.47168 137.842896 552.992554 134.388794 544.384155 138.722046 C 535.78418 143.05957 532.321655 153.542969 536.66333 162.155396 C 541.005005 170.751221 551.47998 174.209595 560.088379 169.880371"/>
    <path id="path14" fill="#FF5554" stroke="none" d="M 452.568726 183.385376 C 440.268799 189.572876 435.331299 204.560425 441.5271 216.8479 C 447.71875 229.135376 462.697876 234.077026 474.989624 227.889526 C 487.2771 221.693726 492.2229 206.710449 486.0354 194.414551 C 479.835449 182.131226 464.852051 177.185425 452.568726 183.385376"/>
    <path id="path15" fill="#FF5554" stroke="none" d="M 314.161255 35.530029 C 323.777954 36.075806 332.015381 28.72168 332.56958 19.10083 C 333.111206 9.488281 325.76123 1.242554 316.144531 0.696655 C 306.519531 0.150879 298.273804 7.500854 297.732056 17.125854 C 297.186279 26.742554 304.536255 34.984131 314.161255 35.530029"/>
    <path id="path16" fill="#FF5554" stroke="none" d="M 313.962036 145.275391 C 327.703735 146.054565 339.474609 135.550415 340.257935 121.808716 C 341.04126 108.062866 330.532959 96.283691 316.782959 95.508789 C 303.053711 94.725464 291.282959 105.229614 290.495361 118.975464 C 289.716309 132.712891 300.220459 144.487915 313.962036 145.275391"/>
    <path id="path17" fill="#FF5554" stroke="none" d="M 178.939941 399.682129 C 191.231689 393.490356 196.17749 378.50708 189.98999 366.219604 C 183.794189 353.932129 168.80249 348.977905 156.519165 355.182129 C 144.231689 361.373779 139.285889 376.340454 145.481689 388.640381 C 151.67334 400.927856 166.652466 405.869629 178.939941 399.682129"/>
    <path id="path18" fill="#FF5554" stroke="none" d="M 330.071289 181.635864 C 317.250366 201.181641 322.721191 227.515015 342.27124 240.335815 C 349.200439 244.881714 357.229614 247.285889 365.487915 247.285889 C 379.850464 247.285889 393.104614 240.127441 400.983765 228.135864 C 413.792114 208.585815 408.321289 182.244141 388.775391 169.435791 C 381.842041 164.890015 373.821289 162.481689 365.562866 162.481689 C 351.196289 162.481689 337.937866 169.640015 330.071289 181.635864"/>
    <path id="path19" fill="#FF5554" stroke="none" d="M 403.769165 358.88208 C 396.519165 344.486206 381.994141 335.544556 365.877441 335.544556 C 359.314941 335.544556 352.723389 337.111206 346.827515 340.090454 C 336.714966 345.186279 329.198364 353.915405 325.652466 364.677856 C 322.094116 375.427856 322.948364 386.915405 328.05249 397.032104 C 335.294189 411.415405 349.814941 420.357056 365.92749 420.357056 C 372.494141 420.357056 379.081665 418.790405 384.98999 415.81543 C 405.86499 405.307129 414.290039 379.75293 403.769165 358.88208"/>
    <path id="path20" fill="#FF5554" stroke="none" d="M 477.812866 355.932129 C 466.312866 348.394531 450.858765 351.607056 443.312866 363.107056 C 435.762939 374.611206 438.987915 390.06543 450.483765 397.611206 C 461.996216 405.152954 477.437866 401.94873 484.992065 390.432129 C 492.537964 378.936279 489.33374 363.482056 477.812866 355.932129"/>
    <path id="path21" fill="#FF5554" stroke="none" d="M 558.981689 292.247925 C 559.656616 280.568726 550.719116 270.556274 539.035889 269.893799 C 527.356689 269.227051 517.352539 278.1521 516.685791 289.8479 C 516.010864 301.518799 524.948364 311.5271 536.635864 312.193726 C 548.306641 312.860474 558.323364 303.918701 558.981689 292.247925"/>
    <path id="path22" fill="#FF5554" stroke="none" d="M 617.616211 277.18042 C 610.049561 276.755371 603.582886 282.530396 603.141235 290.092896 C 602.716309 297.642944 608.491211 304.126221 616.053711 304.55127 C 623.60791 304.984619 630.082886 299.201294 630.512085 291.647095 C 630.949585 284.084595 625.17041 277.609619 617.616211 277.18042"/>
    <path id="path23" fill="#FF5554" stroke="none" d="M 562.403809 413.130005 C 554.341309 407.842529 543.528809 410.092529 538.257935 418.150879 C 532.974609 426.204956 535.216309 437.021729 543.274536 442.305054 C 551.328735 447.588379 562.132935 445.342529 567.432861 437.28418 C 572.707886 429.217529 570.466309 418.41748 562.403809 413.130005"/>
    <path id="path24" fill="#FF5554" stroke="none" d="M 173.304565 541.14502 C 166.975464 536.990845 158.479614 538.761658 154.32959 545.08667 C 150.175415 551.424194 151.942139 559.915833 158.27124 564.065857 C 164.600464 568.224182 173.096191 566.445007 177.242065 560.119995 C 181.39624 553.782471 179.633789 545.294983 173.304565 541.14502"/>
    <path id="path25" fill="#FF5554" stroke="none" d="M 460.69458 539.70874 C 453.94043 543.104553 451.223755 551.346252 454.63208 558.112915 C 458.027954 564.862915 466.273804 567.57959 473.040405 564.175415 C 479.790405 560.76709 482.519531 552.533752 479.111206 545.779602 C 475.702881 539.02124 467.457031 536.304565 460.69458 539.70874"/>
    <path id="path26" fill="#FF5554" stroke="none" d="M 301.44165 401.419556 C 307.641724 391.952881 309.804199 380.63208 307.49585 369.548706 C 305.18335 358.461304 298.704224 348.936279 289.233276 342.727905 C 282.300049 338.182129 274.270874 335.769531 266.008301 335.769531 C 251.658325 335.769531 238.391724 342.927856 230.525024 354.927856 C 224.31665 364.398804 222.166626 375.719604 224.474976 386.802856 C 226.775024 397.88623 233.266724 407.411255 242.733276 413.623779 C 249.670776 418.173706 257.695801 420.57373 265.954224 420.57373 C 280.3125 420.57373 293.570801 413.415405 301.44165 401.419556"/>
    <path id="path27" fill="#FF5554" stroke="none" d="M 216.749146 466.393311 C 206.96582 459.976685 193.844971 462.709961 187.428345 472.489136 C 181.007446 482.272461 183.736694 495.397461 193.52002 501.818359 C 203.299194 508.230835 216.436646 505.501709 222.849121 495.722534 C 229.27002 485.926636 226.52832 472.805786 216.749146 466.393311"/>
    <path id="path28" fill="#FF5554" stroke="none" d="M 315.552856 547.529602 C 305.936279 546.979553 297.69873 554.337891 297.148804 563.950439 C 296.594604 573.575439 303.94873 581.817078 313.56958 582.367065 C 323.19043 582.908752 331.436279 575.562927 331.977905 565.937927 C 332.519531 556.321228 325.173706 548.071228 315.552856 547.529602"/>
    <path id="path29" fill="#FF5554" stroke="none" d="M 315.748291 437.78418 C 302.015015 437.009155 290.23584 447.513306 289.452515 461.250854 C 288.67749 474.988281 299.17749 486.771606 312.915039 487.54248 C 326.665039 488.334106 338.435791 477.821655 339.214966 464.084106 C 340.002441 450.34668 329.494141 438.567505 315.748291 437.78418"/>
    <path id="path30" fill="#FF5554" stroke="none" d="M 417.681274 464.696655 C 407.243774 469.97168 403.0354 482.696655 408.306274 493.146606 C 413.564575 503.60083 426.297974 507.78833 436.747925 502.525879 C 447.197876 497.263306 451.389526 484.53418 446.131226 474.084106 C 440.872925 463.638306 428.143799 459.434204 417.681274 464.696655"/>
    <path id="path31" fill="#FF5554" stroke="none" d="M 1480.961792 265.005676 C 1515.425415 265.005676 1532.857666 247.773865 1532.857666 209.903931 C 1532.857666 172.034027 1515.425415 154.802185 1480.961792 154.802185 C 1446.498169 154.802185 1429.06604 172.034027 1429.06604 209.903931 C 1429.06604 247.773865 1446.498169 265.005676 1480.961792 265.005676 Z M 1480.961792 245.369446 C 1461.525879 245.369446 1453.911865 234.148712 1453.911865 211.306519 L 1453.911865 208.501343 C 1453.911865 185.65918 1461.525879 174.438446 1480.961792 174.438446 C 1500.197388 174.438446 1508.011719 185.65918 1508.011719 208.501343 L 1508.011719 211.306519 C 1508.011719 234.148712 1500.197388 245.369446 1480.961792 245.369446 Z M 1317.059204 262.601257 L 1341.103516 262.601257 L 1341.103516 201.288025 C 1341.103516 186.260284 1351.522827 175.640686 1364.747192 175.640686 C 1376.769409 175.640686 1384.183105 180.649933 1384.183105 195.677673 L 1384.183105 262.601257 L 1408.227539 262.601257 L 1408.227539 191.46991 C 1408.227539 164.620331 1394.20166 154.802185 1374.164551 154.802185 C 1358.936523 154.802185 1347.71582 161.414398 1340.302124 171.232544 L 1338.899536 171.232544 L 1336.895752 157.206635 L 1317.059204 157.206635 Z M 1231.300781 265.005676 C 1247.731201 265.005676 1257.949951 259.194946 1264.963013 250.579041 L 1266.365601 250.579041 C 1268.77002 259.395325 1275.983276 264.805328 1286.402588 264.805328 C 1293.615845 264.805328 1298.825439 263.001984 1301.430298 261.799774 L 1301.430298 245.369446 L 1295.018433 245.369446 C 1291.411743 245.369446 1288.005493 243.365723 1288.005493 238.356476 L 1288.005493 188.063599 C 1288.005493 167.02475 1274.380371 154.802185 1245.927856 154.802185 C 1220.280518 154.802185 1203.048584 165.82254 1203.048584 184.056213 C 1203.048584 185.859558 1203.048584 187.262146 1203.249023 188.464355 L 1226.491943 188.464355 L 1226.491943 185.65918 C 1226.491943 180.048828 1230.49939 173.837341 1245.927856 173.837341 C 1260.755127 173.837341 1263.96106 180.850281 1263.96106 189.866943 L 1263.96106 198.683228 C 1225.289673 198.683228 1197.838989 206.698029 1197.838989 235.350922 C 1197.838989 260.998291 1219.278564 265.005676 1231.300781 265.005676 Z M 1238.51416 245.770172 C 1227.894531 245.770172 1222.484497 241.36203 1222.484497 232.946503 C 1222.484497 218.920593 1241.118896 215.714661 1263.96106 215.714661 L 1263.96106 220.52356 C 1263.96106 235.751678 1254.543701 245.770172 1238.51416 245.770172 Z M 1122.299561 265.005676 C 1135.724365 265.005676 1147.546143 259.595703 1154.559082 248.575348 L 1155.761353 248.575348 L 1157.765015 262.601257 L 1177.601685 262.601257 L 1177.601685 117.733734 L 1153.557251 117.733734 L 1153.557251 169.429199 L 1152.35498 169.429199 C 1145.943237 159.611084 1135.123169 154.802185 1120.696533 154.802185 C 1097.253296 154.802185 1080.221802 171.833649 1080.221802 209.703583 C 1080.221802 248.174622 1096.451782 265.005676 1122.299561 265.005676 Z M 1129.512817 244.367584 C 1111.479492 244.367584 1105.067749 233.948334 1105.067749 211.306519 L 1105.067749 208.701721 C 1105.067749 185.859558 1111.679932 175.440308 1129.512817 175.440308 C 1146.343872 175.440308 1153.557251 187.462494 1153.557251 208.9021 L 1153.557251 211.306519 C 1153.557251 232.545746 1146.544312 244.367584 1129.512817 244.367584 Z M 1012.897522 262.601257 L 1036.941895 262.601257 L 1036.941895 207.69986 C 1036.941895 188.263977 1045.958618 179.247345 1062.388916 179.247345 L 1070.00293 179.247345 L 1070.00293 156.60553 C 1070.00293 156.60553 1065.795166 154.802185 1059.984497 154.802185 C 1046.76001 154.802185 1040.147827 163.818848 1036.34082 173.837341 L 1034.938232 173.837341 L 1032.734131 157.206635 L 1012.897522 157.206635 Z M 927.13916 265.005676 C 943.569458 265.005676 953.78833 259.194946 960.801331 250.579041 L 962.203918 250.579041 C 964.608337 259.395325 971.821655 264.805328 982.240906 264.805328 C 989.454224 264.805328 994.663818 263.001984 997.268616 261.799774 L 997.268616 245.369446 L 990.856812 245.369446 C 987.250122 245.369446 983.843872 243.365723 983.843872 238.356476 L 983.843872 188.063599 C 983.843872 167.02475 970.218689 154.802185 941.766174 154.802185 C 916.118774 154.802185 898.886963 165.82254 898.886963 184.056213 C 898.886963 185.859558 898.886963 187.262146 899.087341 188.464355 L 922.330261 188.464355 L 922.330261 185.65918 C 922.330261 180.048828 926.337646 173.837341 941.766174 173.837341 C 956.593506 173.837341 959.799438 180.850281 959.799438 189.866943 L 959.799438 198.683228 C 921.128052 198.683228 893.677368 206.698029 893.677368 235.350922 C 893.677368 260.998291 915.116943 265.005676 927.13916 265.005676 Z M 934.352478 245.770172 C 923.732849 245.770172 918.322876 241.36203 918.322876 232.946503 C 918.322876 218.920593 936.957275 215.714661 959.799438 215.714661 L 959.799438 220.52356 C 959.799438 235.751678 950.38208 245.770172 934.352478 245.770172 Z M 818.137878 265.005676 C 852.80188 265.005676 878.849976 248.174622 878.849976 212.30838 L 853.603333 212.30838 C 853.603333 232.345367 839.777832 243.365723 818.538635 243.365723 C 790.687195 243.365723 777.863525 227.937256 777.863525 195.878052 L 777.863525 191.870636 C 777.863525 160.412567 790.887573 144.382965 818.538635 144.382965 C 838.575623 144.382965 852.601501 155.40329 852.601501 175.841034 L 878.849976 175.841034 C 878.849976 139.974823 852.401123 122.742981 818.137878 122.742981 C 776.060181 122.742981 751.615051 145.585175 751.615051 193.874329 C 751.615051 243.365723 776.060181 265.005676 818.137878 265.005676 Z"/>
    <path id="path32" fill="#FF5554" stroke="none" d="M 1916.966919 431.913879 C 1941.612427 431.913879 1959.846069 422.095764 1959.846069 399.453979 C 1959.846069 359.780701 1894.926147 373.606232 1894.926147 350.56366 C 1894.926147 344.75293 1898.532837 336.337402 1916.566162 336.337402 C 1934.19873 336.337402 1939.809082 344.352203 1939.809082 352.567383 L 1939.809082 354.370728 L 1957.040894 354.370728 C 1957.040894 353.969971 1957.241333 351.966248 1957.241333 350.56366 C 1957.241333 334.934814 1943.616089 321.710388 1918.569824 321.710388 C 1893.122925 321.710388 1876.692505 333.13147 1876.692505 351.7659 C 1876.692505 389.635834 1941.612427 374.808441 1941.612427 401.858398 C 1941.612427 412.077271 1930.992798 417.487244 1917.96875 417.487244 C 1903.141357 417.487244 1891.31958 411.876892 1891.31958 398.652466 L 1891.31958 396.648773 L 1873.887329 396.648773 C 1873.887329 397.0495 1873.687012 398.25174 1873.687012 401.056915 C 1873.687012 416.685791 1886.109985 431.913879 1916.966919 431.913879 Z M 1814.177124 429.50946 L 1831.809692 429.50946 L 1831.809692 367.194397 C 1831.809692 347.357758 1844.232544 340.344788 1857.657349 340.344788 L 1865.071045 340.344788 L 1865.071045 323.313354 C 1865.071045 323.313354 1861.264038 321.710388 1855.653687 321.710388 C 1841.227051 321.710388 1834.214111 331.127808 1830.807861 339.944061 L 1829.605591 339.944061 L 1827.601929 324.114838 L 1814.177124 324.114838 Z M 1745.049438 431.913879 C 1776.908325 431.913879 1793.73938 414.682068 1793.73938 376.812134 C 1793.73938 338.9422 1776.908325 321.710388 1745.049438 321.710388 C 1713.190674 321.710388 1696.359619 338.9422 1696.359619 376.812134 C 1696.359619 414.682068 1713.190674 431.913879 1745.049438 431.913879 Z M 1745.049438 417.286896 C 1723.810303 417.286896 1714.593262 405.665436 1714.593262 377.613647 L 1714.593262 376.010681 C 1714.593262 347.958862 1723.810303 336.337402 1745.049438 336.337402 C 1766.288696 336.337402 1775.505737 347.958862 1775.505737 376.010681 L 1775.505737 377.613647 C 1775.505737 405.665436 1766.288696 417.286896 1745.049438 417.286896 Z M 1626.630859 431.913879 C 1640.255981 431.913879 1652.278198 426.303528 1659.291138 415.283203 L 1660.493286 415.283203 L 1662.697388 429.50946 L 1675.921875 429.50946 L 1675.921875 284.641937 L 1658.289307 284.641937 L 1658.289307 336.137024 L 1657.087036 336.137024 C 1650.074097 325.918152 1639.855225 321.710388 1625.027832 321.710388 C 1601.183838 321.710388 1584.953857 338.541473 1584.953857 376.812134 C 1584.953857 415.483582 1600.783081 431.913879 1626.630859 431.913879 Z M 1631.03894 417.286896 C 1611.001953 417.286896 1603.1875 407.068024 1603.1875 377.613647 L 1603.1875 376.812134 C 1603.1875 346.756653 1611.202271 336.337402 1631.03894 336.337402 C 1650.274414 336.337402 1658.289307 350.764038 1658.289307 376.812134 L 1658.289307 377.613647 C 1658.289307 403.060608 1650.474854 417.286896 1631.03894 417.286896 Z M 1508.612915 431.913879 C 1523.640625 431.913879 1536.664673 425.902802 1543.878052 416.084656 L 1545.28064 416.084656 C 1547.284302 425.101318 1553.696167 431.112427 1562.913086 431.112427 C 1569.525391 431.112427 1574.334229 429.709839 1576.53833 428.707977 L 1576.53833 417.286896 L 1568.52356 417.286896 C 1564.91687 417.286896 1561.510498 415.283203 1561.510498 410.273926 L 1561.510498 353.168488 C 1561.510498 333.331848 1548.085815 321.710388 1521.436523 321.710388 C 1496.390259 321.710388 1478.75769 331.728882 1478.75769 350.964417 C 1478.75769 352.767761 1478.75769 354.170349 1478.95813 355.372559 L 1495.989624 355.372559 L 1495.989624 352.968109 C 1495.989624 344.953308 1500.998779 336.337402 1519.833618 336.337402 C 1539.269531 336.337402 1543.878052 344.151855 1543.878052 355.372559 L 1543.878052 366.994019 C 1503.403198 366.994019 1473.748535 373.205505 1473.748535 402.259155 C 1473.748535 427.706116 1495.388428 431.913879 1508.612915 431.913879 Z M 1513.221436 417.286896 C 1499.996948 417.286896 1492.182495 413.27948 1492.182495 401.257294 C 1492.182495 384.826965 1513.020996 381.621033 1543.878052 381.621033 L 1543.878052 389.235107 C 1543.878052 408.069885 1528.048706 417.286896 1513.221436 417.286896 Z M 1415.841553 431.913879 C 1440.487061 431.913879 1458.720703 422.095764 1458.720703 399.453979 C 1458.720703 359.780701 1393.800903 373.606232 1393.800903 350.56366 C 1393.800903 344.75293 1397.407471 336.337402 1415.440796 336.337402 C 1433.073364 336.337402 1438.683716 344.352203 1438.683716 352.567383 L 1438.683716 354.370728 L 1455.915527 354.370728 C 1455.915527 353.969971 1456.115967 351.966248 1456.115967 350.56366 C 1456.115967 334.934814 1442.490723 321.710388 1417.44458 321.710388 C 1391.997559 321.710388 1375.567139 333.13147 1375.567139 351.7659 C 1375.567139 389.635834 1440.487061 374.808441 1440.487061 401.858398 C 1440.487061 412.077271 1429.867432 417.487244 1416.843384 417.487244 C 1402.015991 417.487244 1390.194214 411.876892 1390.194214 398.652466 L 1390.194214 396.648773 L 1372.761963 396.648773 C 1372.761963 397.0495 1372.561646 398.25174 1372.561646 401.056915 C 1372.561646 416.685791 1384.984619 431.913879 1415.841553 431.913879 Z M 1315.656616 431.913879 C 1340.302124 431.913879 1358.535767 422.095764 1358.535767 399.453979 C 1358.535767 359.780701 1293.615845 373.606232 1293.615845 350.56366 C 1293.615845 344.75293 1297.222534 336.337402 1315.255859 336.337402 C 1332.888428 336.337402 1338.498779 344.352203 1338.498779 352.567383 L 1338.498779 354.370728 L 1355.730591 354.370728 C 1355.730591 353.969971 1355.930908 351.966248 1355.930908 350.56366 C 1355.930908 334.934814 1342.305786 321.710388 1317.259521 321.710388 C 1291.8125 321.710388 1275.382202 333.13147 1275.382202 351.7659 C 1275.382202 389.635834 1340.302124 374.808441 1340.302124 401.858398 C 1340.302124 412.077271 1329.682495 417.487244 1316.658447 417.487244 C 1301.831055 417.487244 1290.009155 411.876892 1290.009155 398.652466 L 1290.009155 396.648773 L 1272.577026 396.648773 C 1272.577026 397.0495 1272.376587 398.25174 1272.376587 401.056915 C 1272.376587 416.685791 1284.799561 431.913879 1315.656616 431.913879 Z M 1196.837158 431.913879 C 1211.864868 431.913879 1224.888916 425.902802 1232.102295 416.084656 L 1233.504883 416.084656 C 1235.508545 425.101318 1241.92041 431.112427 1251.137451 431.112427 C 1257.749634 431.112427 1262.558472 429.709839 1264.762573 428.707977 L 1264.762573 417.286896 L 1256.747803 417.286896 C 1253.141113 417.286896 1249.734863 415.283203 1249.734863 410.273926 L 1249.734863 353.168488 C 1249.734863 333.331848 1236.310059 321.710388 1209.660889 321.710388 C 1184.614624 321.710388 1166.982056 331.728882 1166.982056 350.964417 C 1166.982056 352.767761 1166.982056 354.170349 1167.182373 355.372559 L 1184.213867 355.372559 L 1184.213867 352.968109 C 1184.213867 344.953308 1189.223145 336.337402 1208.057861 336.337402 C 1227.493774 336.337402 1232.102295 344.151855 1232.102295 355.372559 L 1232.102295 366.994019 C 1191.627563 366.994019 1161.972778 373.205505 1161.972778 402.259155 C 1161.972778 427.706116 1183.612793 431.913879 1196.837158 431.913879 Z M 1201.445679 417.286896 C 1188.221313 417.286896 1180.40686 413.27948 1180.40686 401.257294 C 1180.40686 384.826965 1201.245361 381.621033 1232.102295 381.621033 L 1232.102295 389.235107 C 1232.102295 408.069885 1216.273071 417.286896 1201.445679 417.286896 Z M 1106.06958 431.913879 C 1131.917236 431.913879 1147.746582 415.483582 1147.746582 376.812134 C 1147.746582 338.541473 1131.516602 321.710388 1107.672485 321.710388 C 1092.845093 321.710388 1082.626221 325.918152 1075.613281 336.137024 L 1074.411133 336.137024 L 1074.411133 284.641937 L 1056.778564 284.641937 L 1056.778564 429.50946 L 1070.00293 429.50946 L 1072.207031 415.283203 L 1073.409302 415.283203 C 1080.422241 426.303528 1092.444458 431.913879 1106.06958 431.913879 Z M 1101.661377 417.286896 C 1082.225586 417.286896 1074.411133 403.060608 1074.411133 377.613647 L 1074.411133 376.812134 C 1074.411133 350.764038 1082.425903 336.337402 1101.661377 336.337402 C 1121.498047 336.337402 1129.512817 346.756653 1129.512817 376.812134 L 1129.512817 377.613647 C 1129.512817 407.068024 1121.698364 417.286896 1101.661377 417.286896 Z M 889.8703 429.50946 L 907.502869 429.50946 L 907.502869 367.194397 C 907.502869 347.758484 919.324707 336.337402 932.94989 336.337402 C 943.569458 336.337402 951.383911 340.545166 951.383911 356.775146 L 951.383911 429.50946 L 969.016479 429.50946 L 969.016479 367.194397 C 969.016479 347.758484 980.437561 336.337402 994.062744 336.337402 C 1004.682312 336.337402 1012.897522 340.545166 1012.897522 356.775146 L 1012.897522 429.50946 L 1030.530029 429.50946 L 1030.530029 353.569214 C 1030.530029 330.125916 1017.906738 321.710388 999.472717 321.710388 C 986.649048 321.710388 974.226074 327.32074 966.812378 338.341125 L 965.610168 338.341125 C 960.801331 326.519287 950.782776 321.710388 938.359863 321.710388 C 925.135437 321.710388 914.115112 326.920013 906.701416 338.341125 L 905.298828 338.341125 L 903.295105 324.114838 L 889.8703 324.114838 Z M 744.201355 429.50946 L 763.837585 429.50946 L 777.26239 392.841736 L 840.980042 392.841736 L 854.805603 429.50946 L 875.042969 429.50946 L 821.744507 292.055634 L 797.499756 292.055634 Z M 783.473877 376.21106 L 799.503479 332.931122 L 808.520081 308.485962 L 809.521973 308.485962 L 818.738953 333.331848 L 834.768555 376.21106 Z"/>
</svg>
