<svg xmlns="http://www.w3.org/2000/svg" viewBox="0 0 133.462 23.464">
	<defs>
		<clipPath id="clip-path">
			<rect width="133.462" height="23.464" fill="#1a1a1a" />
		</clipPath>
	</defs>
	<g transform="translate(0 0)">
		<g transform="translate(0 0)" clip-path="url(#clip-path)">
			<path d="M543.868,0h5.268l8.214,22.875h-4.385l-.556-1.538a5.912,5.912,0,0,0-1.276-2.094,6.581,6.581,0,0,0-4.483-1.538h-.327a6.7,6.7,0,0,0-4.483,1.44,5.683,5.683,0,0,0-1.374,2.094l-.622,1.636h-4.319Zm5.956,14.628L546.486,4.221l-3.4,10.406Z" transform="translate(-490.153)" fill="#1a1a1a" />
			<path d="M828.722,6.022V22.875h-4.287V0h6.054a97.68,97.68,0,0,0,9.065,17.639V0h4.254V22.875h-5.432a69.676,69.676,0,0,1-9.654-16.853" transform="translate(-754.588 -0.001)" fill="#1a1a1a" />
			<path d="M1061.976,0h4.516a75.676,75.676,0,0,0,6.577,16.1A77.413,77.413,0,0,0,1079.647,0h4.483a83.937,83.937,0,0,1-11.061,23.464A82.618,82.618,0,0,1,1061.976,0" transform="translate(-972.004)" fill="#1a1a1a" />
			<rect width="4.287" height="22.875" transform="translate(113.206)" fill="#1a1a1a" />
			<path d="M1440.889,0h4.189V19.144h7.2v3.731h-11.388Z" transform="translate(-1318.815 0)" fill="#1a1a1a" />
			<path d="M29.518,19.656,22.543.233H17.28l0,.005-.347.951H0V3.279l12.871,9.04-.6,1.644L10.2,19.653l-2,1.372v2.059h5.066l.621-1.635a5.673,5.673,0,0,1,1.373-2.092,6.688,6.688,0,0,1,4.479-1.438h.327a6.574,6.574,0,0,1,4.479,1.537,5.9,5.9,0,0,1,1.275,2.092l.556,1.536h5.149V21.025Z" transform="translate(0 -0.213)" fill="#1a1a1a" />
			<path d="M314.395,49.422v-.949H311.1l.368,1.032,2.606,7.486s7.271-2.121,7.661-7.587c.019-.007-4.3.007-7.344.018" transform="translate(-284.746 -44.366)" fill="#1a1a1a" />
		</g>
	</g>
</svg>
