<svg width="257" height="35" viewBox="0 0 257 35" fill="none" xmlns="http://www.w3.org/2000/svg">
<g clip-path="url(#clip0_11_528)">
<path d="M29.6647 -0.00251579V5.15646H34.7947V-0.00251579H29.6647Z" fill="#4185F4"/>
<path d="M-0.0158691 35.0035H5.11418V29.8445H-0.0158691V35.0035Z" fill="#4185F4"/>
<path d="M29.6645 7.73628V17.5015C29.6645 24.3187 24.168 29.8462 17.389 29.8462H9.69397H7.67859V35.0052H17.389C26.9774 35.0052 34.7946 27.1439 34.7946 17.5015V7.73628H29.6645Z" fill="#4185F4"/>
<path d="M5.11358 26.221V17.4998C5.11358 10.6826 10.6101 5.15512 17.3891 5.15512H27.0995V-0.00385857H17.3891C7.80075 -0.00385857 -0.0164795 7.85745 -0.0164795 17.4998V27.265H5.11358V26.221Z" fill="#4185F4"/>
<path d="M23.7422 17.4997C23.7422 21.0004 20.9329 23.887 17.3907 23.887C13.8485 23.887 11.0392 21.0618 11.0392 17.4997C11.0392 13.9989 13.8485 11.1124 17.3907 11.1124C20.9329 11.1124 23.7422 13.9989 23.7422 17.4997Z" fill="#4185F4"/>
<path d="M24.1444 17.6485C24.1444 21.3881 21.1264 24.4231 17.4078 24.4231C13.6892 24.4231 10.6711 21.3881 10.6711 17.6485C10.6711 13.9089 13.6892 10.8739 17.4078 10.8739C21.1264 10.8739 24.1444 13.9089 24.1444 17.6485Z" fill="#4185F4"/>
<path d="M41.3912 28.8633V6.34785C41.3912 5.9981 41.4346 5.69206 41.5651 5.38603C41.6955 5.07999 41.8694 4.81768 42.0868 4.55536C42.3041 4.33677 42.565 4.16188 42.8693 4.03073C43.1736 3.89957 43.5214 3.85585 43.8692 3.85585H60.4763C61.085 3.85585 61.7371 3.94329 62.4327 4.16188C63.1283 4.38048 63.7804 4.73024 64.389 5.21115C64.9977 5.69207 65.5194 6.30413 65.9106 7.09108C66.3019 7.87803 66.5193 8.79614 66.5193 9.93284V10.8947C66.5193 11.7691 66.3888 12.7309 66.0845 13.7364C65.7802 14.742 65.302 15.7038 64.6933 16.6219C65.2585 16.9717 65.7802 17.3651 66.2584 17.8898C66.7366 18.3707 67.1714 18.939 67.5626 19.5948C67.9539 20.2506 68.2148 20.9501 68.4321 21.7808C68.6495 22.5677 68.7799 23.4858 68.7799 24.4477V25.4095C68.7799 26.0216 68.693 26.6774 68.4756 27.3769C68.2582 28.0764 67.9104 28.7322 67.4322 29.3442C66.954 29.9563 66.3454 30.4372 65.5628 30.8307C64.7803 31.2242 63.8673 31.4428 62.737 31.4428H43.9127C43.5649 31.4428 43.2171 31.399 42.9128 31.2679C42.6085 31.1367 42.3476 30.9619 42.1302 30.7433C41.9129 30.5247 41.739 30.2623 41.6085 29.9563C41.4781 29.5628 41.3912 29.2568 41.3912 28.8633ZM46.3472 8.83986V26.415H62.737C62.824 26.415 62.9544 26.415 63.0848 26.415C63.2152 26.415 63.3456 26.3713 63.4326 26.2839C63.5195 26.1964 63.6065 26.109 63.6934 25.9341C63.7804 25.7593 63.8239 25.5844 63.8239 25.3221V24.404C63.8239 23.7482 63.7369 23.1798 63.5195 22.6552C63.3022 22.1305 63.0413 21.6933 62.6501 21.2999C62.2588 20.9501 61.824 20.6441 61.3024 20.4692C60.7807 20.2506 60.2155 20.1632 59.5634 20.1632H48.347V15.1354H57.3027C57.9548 15.1354 58.52 15.048 59.0417 14.8294C59.5634 14.6108 59.9981 14.3485 60.3894 13.955C60.7807 13.5616 61.0415 13.1244 61.2589 12.5997C61.4762 12.0751 61.5632 11.5067 61.5632 10.8509V9.88912C61.5632 9.18961 61.2154 8.79614 60.5198 8.79614H46.3472V8.83986ZM71.7796 24.404V1.88848H76.7357V24.404C76.7357 25.016 76.9096 25.4969 77.3009 25.8904C77.6921 26.2402 78.1703 26.415 78.7355 26.415H80.9527V31.399H78.7355C78.0399 31.399 77.2574 31.2679 76.4314 31.0493C75.6054 30.787 74.8663 30.3935 74.1707 29.8251C73.4751 29.2568 72.91 28.5573 72.4318 27.6392C71.997 26.7648 71.7796 25.6718 71.7796 24.404ZM88.5172 31.399H83.5611V10.6324H88.5172V31.399ZM88.5172 6.34785H83.5611V1.84476H88.5172V6.34785ZM97.5598 31.399H92.6038V13.1244C92.6038 12.7746 92.6473 12.4686 92.7777 12.1625C92.9081 11.8565 93.082 11.5942 93.2994 11.3756C93.5167 11.157 93.7776 10.9821 94.0819 10.8509C94.3862 10.7198 94.734 10.6761 95.0383 10.6761H106.255C106.863 10.6761 107.559 10.7635 108.211 10.8947C108.907 11.0258 109.602 11.2444 110.298 11.5942C110.993 11.9439 111.645 12.2937 112.254 12.7746C112.863 13.2555 113.428 13.8239 113.906 14.5234C114.384 15.2229 114.776 16.0098 115.036 16.8842C115.297 17.8023 115.471 18.8079 115.471 19.9009V31.4428H110.515V19.9009C110.515 19.2451 110.385 18.6767 110.167 18.1521C109.95 17.6274 109.646 17.1903 109.254 16.7968C108.863 16.4033 108.428 16.141 107.907 15.9224C107.385 15.7038 106.82 15.6164 106.255 15.6164H97.5598V31.399ZM124.21 31.399H119.253V1.84476H124.21V31.399ZM125.47 19.7697C125.514 19.4199 125.601 19.0702 125.731 18.7642C125.905 18.4581 126.122 18.1958 126.383 17.9772L135.469 10.6324H143.469L131.774 20.1195L143.469 31.4428H136.295L126.296 21.7371C125.775 21.2562 125.514 20.6878 125.514 19.9883C125.47 19.8571 125.47 19.8134 125.47 19.7697ZM158.206 28.8633V3.81213H163.162V26.3713H183.378V31.3553H160.728C160.38 31.3553 160.032 31.3116 159.728 31.1805C159.424 31.0493 159.163 30.8744 158.945 30.6558C158.728 30.4372 158.554 30.1749 158.424 29.8689C158.25 29.5628 158.206 29.2568 158.206 28.8633ZM184.465 24.5351C184.465 23.8356 184.595 23.0924 184.813 22.3054C185.073 21.5185 185.465 20.7315 185.986 20.0757C186.508 19.3762 187.247 18.8079 188.117 18.3707C188.986 17.8898 190.029 17.6712 191.29 17.6712H200.246V22.4366H191.29C190.595 22.4366 190.073 22.6552 189.725 23.0486C189.377 23.4858 189.16 23.9668 189.16 24.5788C189.16 25.2346 189.377 25.7592 189.812 26.109C190.247 26.4588 190.725 26.6336 191.334 26.6336H200.246C200.898 26.6336 201.42 26.415 201.811 26.0216C202.159 25.6281 202.376 25.1035 202.376 24.4914V17.54C202.376 16.8842 202.159 16.3596 201.768 15.9661C201.376 15.5726 200.855 15.3978 200.246 15.3978H189.334V10.6324H200.246C200.942 10.6324 201.681 10.7635 202.463 10.9821C203.246 11.2444 203.985 11.6379 204.68 12.1625C205.376 12.6872 205.941 13.4304 206.376 14.3048C206.854 15.1792 207.071 16.2284 207.071 17.4963V24.4914C207.071 25.1909 206.941 25.9341 206.724 26.7211C206.463 27.508 206.071 28.2513 205.55 28.9508C205.028 29.6503 204.289 30.2186 203.42 30.6558C202.55 31.1367 201.507 31.3553 200.246 31.3553H191.29C190.595 31.3553 189.856 31.2242 189.073 31.0056C188.291 30.7433 187.551 30.3498 186.856 29.8251C186.16 29.3005 185.595 28.5573 185.16 27.6829C184.682 26.8522 184.465 25.7593 184.465 24.5351ZM210.549 24.404V1.88848H215.505V24.404C215.505 25.016 215.679 25.4969 216.071 25.8904C216.462 26.2402 216.94 26.415 217.505 26.415H226.504C227.113 26.415 227.635 26.2402 227.982 25.8467C228.33 25.4969 228.504 24.9723 228.504 24.404V17.6274C228.504 17.0154 228.33 16.4907 227.939 16.141C227.548 15.7912 227.07 15.6164 226.504 15.6164H217.549V10.6324H226.504C226.983 10.6324 227.461 10.6761 227.982 10.8072C228.504 10.8947 229.026 11.0695 229.548 11.3319C230.069 11.5505 230.547 11.8565 231.026 12.25C231.504 12.5997 231.895 13.0369 232.243 13.5615C232.591 14.0862 232.895 14.6983 233.112 15.354C233.33 16.0536 233.417 16.7968 233.46 17.6712V24.4477C233.46 24.9286 233.417 25.4095 233.286 25.9341C233.199 26.4588 233.025 26.9834 232.765 27.508C232.547 28.0327 232.243 28.5136 231.895 28.9945C231.547 29.4754 231.069 29.8689 230.591 30.2623C230.069 30.6121 229.461 30.9181 228.808 31.1367C228.156 31.3553 227.374 31.4865 226.504 31.4865H217.549C217.07 31.4865 216.592 31.4428 216.071 31.3116C215.549 31.1805 215.027 31.0493 214.505 30.787C213.984 30.5684 213.506 30.2623 213.027 29.9126C212.549 29.5628 212.158 29.1256 211.767 28.601C211.419 28.0764 211.114 27.4643 210.897 26.8085C210.68 26.0216 210.549 25.2346 210.549 24.404ZM236.33 16.6656C236.33 15.5726 236.547 14.6108 236.938 13.8676C237.329 13.1244 237.808 12.4686 238.416 12.0314C239.025 11.5505 239.677 11.2007 240.373 11.0258C241.068 10.8072 241.72 10.7198 242.329 10.7198H254.545V15.7038H242.372C242.112 15.7038 241.938 15.7475 241.764 15.7912C241.633 15.835 241.503 15.9224 241.416 16.0098C241.329 16.0973 241.286 16.2284 241.286 16.3159C241.286 16.4033 241.242 16.5345 241.242 16.6219C241.242 16.8405 241.286 16.9717 241.373 17.1028C241.416 17.234 241.503 17.3214 241.59 17.3651C241.677 17.4089 241.807 17.4526 241.894 17.4526C242.025 17.4526 242.155 17.4526 242.242 17.4526H249.937C251.198 17.4526 252.285 17.6712 253.197 18.1521C254.067 18.633 254.806 19.2013 255.371 19.9009C255.936 20.6004 256.328 21.3436 256.589 22.1743C256.849 23.0049 256.98 23.7482 256.98 24.4477C256.98 25.3221 256.893 26.0653 256.632 26.7648C256.415 27.4643 256.11 28.0327 255.762 28.5573C255.415 29.0819 254.98 29.5191 254.502 29.8689C254.024 30.2186 253.545 30.5247 253.024 30.7433C252.502 30.9619 251.98 31.1367 251.459 31.2679C250.937 31.3553 250.415 31.4428 249.98 31.4428H236.547V26.4588H249.98C250.676 26.4588 251.154 26.2839 251.502 25.9341C251.85 25.5844 252.024 25.1035 252.024 24.4477C251.98 23.1361 251.285 22.4366 250.024 22.4366H242.329C241.242 22.4366 240.286 22.2617 239.547 21.8682C238.764 21.4748 238.155 20.9938 237.677 20.4255C237.199 19.8571 236.851 19.2451 236.634 18.5456C236.416 17.8461 236.33 17.234 236.33 16.6656Z" fill="#4185F4"/>
</g>
<defs>
<clipPath id="clip0_11_528">
<rect width="257" height="35" fill="#4185F4"/>
</clipPath>
</defs>
</svg>
