<?xml version="1.0" encoding="UTF-8"?>
<!-- Generated by Pixelmator Pro 3.5.6 -->
<svg width="641" height="177" viewBox="0 0 641 177" xmlns="http://www.w3.org/2000/svg">
    <path id="Path" fill="#233f85" stroke="none" d="M 4.6 84.5 C 2.299999 84.399994 0.4 86.100006 0.200001 88.400002 C 0.1 90.700005 1.799999 92.600006 4.1 92.800003 C 6.400002 92.900009 8.299999 91.199997 8.5 88.900002 C 8.599998 86.5 6.900002 84.600006 4.6 84.5 C 4.6 84.5 4.6 84.5 4.6 84.5 Z"/>
    <path id="path1" fill="#233f85" stroke="none" d="M 52.300003 87.700005 C 51.900002 94.800003 57.300003 100.800003 64.400002 101.199997 L 65.099998 101.199997 C 72.199997 101.199997 77.900002 95.5 77.900002 88.400002 C 77.900002 81.300003 72.199997 75.600006 65.099998 75.600006 C 58.300003 75.600006 52.699997 80.899994 52.300003 87.700005 L 52.300003 87.700005 Z"/>
    <path id="path2" fill="#233f85" stroke="none" d="M 4.6 84.5 C 2.299999 84.399994 0.4 86.100006 0.200001 88.400002 C 0.1 90.700005 1.799999 92.600006 4.1 92.800003 C 6.400002 92.900009 8.299999 91.199997 8.5 88.900002 C 8.599998 86.5 6.900002 84.600006 4.6 84.5 C 4.6 84.5 4.6 84.5 4.6 84.5 Z"/>
    <path id="path3" fill="#233f85" stroke="none" d="M 51.5 13.399994 C 53.5 12.399994 54.400002 9.899994 53.300003 7.800003 C 52.300003 5.800003 49.800003 4.899994 47.699997 6 C 45.699997 7 44.800003 9.5 45.900002 11.5 C 47 13.600006 49.5 14.399994 51.5 13.399994 Z"/>
    <path id="path4" fill="#233f85" stroke="none" d="M 64.5 36.100006 C 67.699997 34.5 68.900002 30.699997 67.300003 27.5 C 65.699997 24.300003 61.900002 23.100006 58.699997 24.699997 C 55.5 26.300003 54.300003 30.100006 55.900002 33.300003 C 57.5 36.399994 61.400002 37.600006 64.5 36.100006 C 64.5 36.100006 64.5 36.100006 64.5 36.100006 Z"/>
    <path id="path5" fill="#233f85" stroke="none" d="M 20.799999 51.600006 C 23.200001 53.199997 26.5 52.5 28.099998 50.100006 C 29.700001 47.699997 29 44.399994 26.599998 42.800003 C 24.200001 41.199997 20.900002 41.899994 19.299999 44.300003 C 19.299999 44.300003 19.299999 44.300003 19.299999 44.300003 C 17.700001 46.800003 18.299999 50 20.799999 51.600006 C 20.799999 51.600006 20.799999 51.600006 20.799999 51.600006 Z"/>
    <path id="path6" fill="#233f85" stroke="none" d="M 28.599998 82.100006 C 25.099998 81.899994 22.099998 84.600006 21.900002 88.100006 C 21.700001 91.600006 24.400002 94.600006 27.900002 94.800003 C 31.400002 95 34.400002 92.300003 34.599998 88.800003 C 34.799999 85.399994 32.099998 82.399994 28.599998 82.100006 Z"/>
    <path id="path7" fill="#233f85" stroke="none" d="M 21.5 125.199997 C 18.900002 126.5 17.900002 129.699997 19.200001 132.300003 C 20.5 134.900009 23.700001 135.900009 26.299999 134.600006 C 28.900002 133.300003 29.900002 130.100006 28.599998 127.5 C 27.299999 124.900009 24.099998 123.800003 21.5 125.199997 C 21.5 125.199997 21.5 125.199997 21.5 125.199997 Z"/>
    <path id="path8" fill="#233f85" stroke="none" d="M 46.300003 68.899994 C 49.800003 71.199997 54.400002 70.199997 56.699997 66.699997 C 59 63.199997 58 58.600006 54.5 56.300003 C 51 54 46.400002 55 44.099998 58.5 C 41.900002 62 42.900002 66.600006 46.300003 68.899994 C 46.300003 68.899994 46.300003 68.899994 46.300003 68.899994 Z"/>
    <path id="path9" fill="#233f85" stroke="none" d="M 125.300003 35.5 C 128.300003 37.399994 132.199997 36.600006 134.199997 33.600006 C 136.100006 30.600006 135.300003 26.699997 132.300003 24.699997 C 129.300003 22.800003 125.399994 23.600006 123.399994 26.600006 C 123.399994 26.600006 123.399994 26.600006 123.399994 26.600006 C 121.5 29.600006 122.300003 33.600006 125.300003 35.5 C 125.199997 35.5 125.300003 35.5 125.300003 35.5 Z"/>
    <path id="path10" fill="#233f85" stroke="none" d="M 138.399994 12.899994 C 140.300003 14.100006 142.899994 13.600006 144.100006 11.699997 C 145.300003 9.800003 144.800003 7.199997 142.899994 6 C 141 4.800003 138.399994 5.300003 137.199997 7.199997 C 135.899994 9.100006 136.5 11.699997 138.399994 12.899994 C 138.399994 12.899994 138.399994 12.899994 138.399994 12.899994 Z"/>
    <path id="path11" fill="#233f85" stroke="none" d="M 126.300003 75.5 C 119.199997 75.100006 113.199997 80.5 112.800003 87.600006 C 112.399994 94.699997 117.800003 100.699997 124.899994 101.100006 L 125.600006 101.100006 C 132.699997 101 138.399994 95.199997 138.300003 88.100006 C 138.100006 81.5 132.899994 75.899994 126.300003 75.5 L 126.300003 75.5 Z"/>
    <path id="path12" fill="#233f85" stroke="none" d="M 68.699997 68 C 70.900002 72.300003 75.300003 75.100006 80.199997 75.100006 C 87.300003 75.100006 93 69.399994 93 62.300003 C 93 60.300003 92.5 58.300003 91.599998 56.600006 C 89.400002 52.300003 85 49.5 80.099998 49.600006 C 78.099998 49.600006 76.099998 50.100006 74.300003 51 C 68.099998 54.100006 65.599998 61.699997 68.699997 68 Z"/>
    <path id="path13" fill="#233f85" stroke="none" d="M 169.199997 51.600006 C 171.800003 50.300003 172.800003 47.100006 171.5 44.5 C 170.199997 41.899994 167 40.899994 164.399994 42.199997 C 161.800003 43.5 160.800003 46.699997 162.100006 49.300003 C 163.399994 51.899994 166.600006 52.899994 169.199997 51.600006 C 169.199997 51.600006 169.199997 51.600006 169.199997 51.600006 Z"/>
    <path id="path14" fill="#233f85" stroke="none" d="M 136.699997 55.699997 C 133 57.600006 131.5 62.100006 133.399994 65.800003 C 135.300003 69.5 139.800003 71 143.5 69.100006 C 147.199997 67.199997 148.699997 62.699997 146.800003 59 C 144.899994 55.300003 140.399994 53.800003 136.699997 55.699997 C 136.699997 55.699997 136.699997 55.699997 136.699997 55.699997 Z"/>
    <path id="path15" fill="#233f85" stroke="none" d="M 94.900002 11 C 97.800003 11.199997 100.300003 8.899994 100.5 6 C 100.699997 3.100006 98.400002 0.600006 95.5 0.399994 C 92.599998 0.199997 90.099998 2.5 89.900002 5.399994 C 89.699997 8.399994 91.900002 10.800003 94.900002 11 C 94.800003 11 94.800003 11 94.900002 11 Z"/>
    <path id="path16" fill="#233f85" stroke="none" d="M 94.800003 44.199997 C 99 44.399994 102.5 41.300003 102.699997 37.100006 C 102.899994 32.899994 99.800003 29.399994 95.599998 29.199997 C 91.5 29 87.900002 32.100006 87.699997 36.300003 C 87.400002 40.399994 90.599998 43.899994 94.800003 44.199997 C 94.800003 44.199997 94.800003 44.199997 94.800003 44.199997 Z"/>
    <path id="path17" fill="#233f85" stroke="none" d="M 54 121.100006 C 57.699997 119.199997 59.199997 114.699997 57.300003 111 C 55.400002 107.300003 50.900002 105.800003 47.199997 107.699997 C 43.5 109.600006 42 114.100006 43.900002 117.800003 C 45.699997 121.5 50.300003 123 54 121.100006 L 54 121.100006 Z"/>
    <path id="path18" fill="#233f85" stroke="none" d="M 99.699997 55.199997 C 95.800003 61.100006 97.5 69.100006 103.399994 72.899994 C 109.300003 76.800003 117.300003 75.100006 121.100006 69.199997 C 125 63.300003 123.300003 55.300003 117.399994 51.5 C 115.300003 50.100006 112.899994 49.399994 110.399994 49.399994 C 106.100006 49.399994 102 51.600006 99.699997 55.199997 Z"/>
    <path id="path19" fill="#233f85" stroke="none" d="M 121.899994 108.699997 C 118.699997 102.400009 111 99.800003 104.699997 103 C 98.400002 106.199997 95.800003 113.900009 99 120.199997 C 102.199997 126.5 109.899994 129.100006 116.199997 125.900009 C 116.199997 125.900009 116.199997 125.900009 116.199997 125.900009 C 122.600006 122.800003 125.100006 115.100006 121.899994 108.699997 C 122 108.800003 122 108.800003 121.899994 108.699997 Z"/>
    <path id="path20" fill="#233f85" stroke="none" d="M 144.300003 107.900009 C 140.800003 105.600006 136.199997 106.600006 133.899994 110.100006 C 131.600006 113.600006 132.600006 118.199997 136.100006 120.5 C 139.600006 122.800003 144.199997 121.800003 146.5 118.300003 C 146.5 118.300003 146.5 118.300003 146.5 118.300003 C 148.800003 114.800003 147.800003 110.100006 144.300003 107.900009 Z"/>
    <path id="path21" fill="#233f85" stroke="none" d="M 168.800003 88.600006 C 169 85.100006 166.300003 82.100006 162.800003 81.899994 C 159.300003 81.699997 156.300003 84.399994 156.100006 87.900002 C 155.899994 91.400009 158.600006 94.400009 162.100006 94.600006 C 165.600006 94.800003 168.600006 92.100006 168.800003 88.600006 Z"/>
    <path id="path22" fill="#233f85" stroke="none" d="M 186.600006 84.100006 C 184.300003 84 182.399994 85.699997 182.199997 88 C 182.100006 90.300003 183.800003 92.199997 186.100006 92.400009 C 188.399994 92.5 190.300003 90.800003 190.5 88.5 C 190.5 88.5 190.5 88.5 190.5 88.5 C 190.600006 86.100006 188.800003 84.199997 186.600006 84.100006 Z"/>
    <path id="path23" fill="#233f85" stroke="none" d="M 169.899994 125.100006 C 167.5 123.5 164.199997 124.199997 162.600006 126.600006 C 161 129 161.699997 132.300003 164.100006 133.900009 C 166.5 135.5 169.800003 134.800003 171.399994 132.400009 C 173 130 172.300003 126.699997 169.899994 125.100006 C 169.899994 125.100006 169.899994 125.100006 169.899994 125.100006 Z"/>
    <path id="path24" fill="#233f85" stroke="none" d="M 52.300003 163.800003 C 50.400002 162.5 47.800003 163.100006 46.599998 165 C 45.300003 166.900009 45.900002 169.5 47.800003 170.699997 C 49.699997 172 52.300003 171.400009 53.5 169.5 C 54.699997 167.699997 54.199997 165.100006 52.300003 163.800003 Z"/>
    <path id="path25" fill="#233f85" stroke="none" d="M 139.100006 163.400009 C 137.100006 164.400009 136.300003 166.900009 137.300003 169 C 138.300003 171 140.800003 171.800003 142.899994 170.800003 C 144.899994 169.800003 145.699997 167.300003 144.699997 165.300003 C 143.699997 163.199997 141.199997 162.400009 139.100006 163.400009 C 139.199997 163.400009 139.199997 163.400009 139.100006 163.400009 Z"/>
    <path id="path26" fill="#233f85" stroke="none" d="M 91 121.600006 C 94.900002 115.699997 93.199997 107.699997 87.300003 103.900009 C 81.400002 100 73.400002 101.699997 69.599998 107.600006 C 65.699997 113.5 67.400002 121.5 73.300003 125.300003 C 75.400002 126.699997 77.800003 127.400009 80.300003 127.400009 C 84.599998 127.400009 88.599998 125.199997 91 121.600006 Z"/>
    <path id="path27" fill="#233f85" stroke="none" d="M 65.400002 141.199997 C 62.400002 139.300003 58.5 140.100006 56.5 143 C 54.599998 146 55.400002 149.900009 58.300003 151.900009 C 61.300003 153.800003 65.199997 153 67.199997 150.100006 C 67.199997 150.100006 67.199997 150.100006 67.199997 150.100006 C 69.199997 147.100006 68.400002 143.199997 65.400002 141.199997 Z"/>
    <path id="path28" fill="#233f85" stroke="none" d="M 95.300003 165.800003 C 92.400002 165.600006 89.900002 167.900009 89.699997 170.800003 C 89.5 173.699997 91.800003 176.199997 94.699997 176.400009 C 97.599998 176.600006 100.099998 174.400009 100.300003 171.5 C 100.400002 168.5 98.199997 165.900009 95.300003 165.800003 C 95.300003 165.800003 95.300003 165.800003 95.300003 165.800003 Z"/>
    <path id="path29" fill="#233f85" stroke="none" d="M 95.300003 132.600006 C 91.099998 132.300003 87.599998 135.5 87.300003 139.699997 C 87 143.900009 90.199997 147.400009 94.400002 147.699997 C 98.599998 148 102.100006 144.800003 102.399994 140.600006 C 102.399994 140.600006 102.399994 140.600006 102.399994 140.600006 C 102.600006 136.400009 99.5 132.800003 95.300003 132.600006 Z"/>
    <path id="path30" fill="#233f85" stroke="none" d="M 126.100006 140.699997 C 122.899994 142.300003 121.699997 146.100006 123.300003 149.300003 C 124.899994 152.5 128.699997 153.699997 131.899994 152.100006 C 135.100006 150.5 136.300003 146.699997 134.699997 143.5 C 133.199997 140.400009 129.300003 139.100006 126.100006 140.699997 C 126.100006 140.699997 126.100006 140.699997 126.100006 140.699997 Z"/>
    <path id="path31" fill="#233f85" stroke="none" d="M 229.5 91 L 269.200012 91 L 269.200012 99.800003 L 239.799988 99.800003 L 239.799988 114.800003 L 266.299988 114.800003 L 266.299988 123.600006 L 239.799988 123.600006 L 239.799988 146.300003 L 229.5 146.300003 L 229.5 91 Z"/>
    <path id="path32" fill="#233f85" stroke="none" d="M 272 125.100006 C 272 109.900009 279 103 292.799988 103 C 306.600006 103 313.700012 109.900009 313.700012 125.100006 C 313.700012 140.300003 306.700012 147.199997 292.799988 147.199997 C 278.899994 147.199997 272 140.300003 272 125.100006 Z M 303.700012 125.600006 L 303.700012 124.5 C 303.700012 115.300003 300.600006 110.800003 292.799988 110.800003 C 285 110.800003 281.899994 115.300003 281.899994 124.5 L 281.899994 125.600006 C 281.899994 134.800003 285 139.300003 292.799988 139.300003 C 300.600006 139.300003 303.700012 134.800003 303.700012 125.600006 Z"/>
    <path id="path33" fill="#233f85" stroke="none" d="M 322 132.5 L 322 103.900009 L 331.700012 103.900009 L 331.700012 130.800003 C 331.700012 136.800003 334.700012 138.900009 339.5 138.900009 C 344.799988 138.900009 349 134.600006 349 128.600006 L 349 104 L 358.700012 104 L 358.700012 146.300003 L 350.700012 146.300003 L 349.899994 140.699997 L 349.299988 140.699997 C 346.100006 145 341 147.400009 335.700012 147.300003 C 327.600006 147.199997 322 143.300003 322 132.5 Z"/>
    <path id="path34" fill="#233f85" stroke="none" d="M 369.899994 103.900009 L 377.899994 103.900009 L 378.700012 109.5 L 379.299988 109.5 C 382.5 105.199997 387.600006 102.800003 392.899994 102.900009 C 401 102.900009 406.600006 106.800003 406.600006 117.600006 L 406.600006 146.199997 L 396.899994 146.199997 L 396.899994 119.300003 C 396.899994 113.300003 393.899994 111.199997 389.100006 111.199997 C 383.799988 111.199997 379.600006 115.5 379.600006 121.5 L 379.600006 146.100006 L 369.899994 146.100006 L 369.899994 103.900009 Z"/>
    <path id="path35" fill="#233f85" stroke="none" d="M 414.899994 125 C 414.899994 109.800003 421.700012 102.900009 431.200012 102.900009 C 437 102.900009 441.299988 104.800003 443.899994 108.800003 L 444.399994 108.800003 L 444.399994 88 L 454.100006 88 L 454.100006 146.199997 L 446.100006 146.199997 L 445.299988 140.600006 L 444.799988 140.600006 C 442 145 437.200012 147.199997 431.799988 147.199997 C 421.399994 147.199997 414.899994 140.400009 414.899994 125 Z M 444.299988 125.600006 L 444.299988 124.600006 C 444.299988 116 441.399994 111.199997 434.600006 111.199997 C 427.399994 111.199997 424.799988 115.400009 424.799988 124.600006 L 424.799988 125.600006 C 424.799988 134.699997 427.399994 138.900009 434.600006 138.900009 C 441.5 138.900009 444.299988 134.199997 444.299988 125.600006 Z"/>
    <path id="path36" fill="#233f85" stroke="none" d="M 462.100006 135.300003 C 462.100006 123.800003 473.100006 120.600006 488.700012 120.600006 L 488.700012 117.100006 C 488.700012 113.5 487.400024 110.699997 481.399994 110.699997 C 475.200012 110.699997 473.600006 113.199997 473.600006 115.5 L 473.600006 116.600006 L 464.200012 116.600006 C 464.100006 116 464.100006 115.400009 464.100006 114.800003 C 464.100006 107.5 471 103 481.299988 103 C 492.700012 103 498.200012 107.900009 498.200012 116.400009 L 498.200012 136.600006 C 498.099976 138 499.200012 139.300003 500.599976 139.400009 C 500.700012 139.400009 500.900024 139.400009 501 139.400009 L 503.599976 139.400009 L 503.599976 146 C 501.700012 146.800003 499.599976 147.199997 497.599976 147.199997 C 493.400024 147.199997 490.5 145 489.5 141.5 L 488.900024 141.5 C 486.099976 145 482 147.300003 475.399994 147.300003 C 470.700012 147.199997 462.100006 145.600006 462.100006 135.300003 Z M 488.700012 129.300003 L 488.700012 127.400009 C 479.5 127.400009 472 128.699997 472 134.300003 C 472 137.699997 474.200012 139.5 478.399994 139.5 C 484.899994 139.5 488.700012 135.400009 488.700012 129.300003 L 488.700012 129.300003 Z"/>
    <path id="path37" fill="#233f85" stroke="none" d="M 510.599976 136.600006 L 510.599976 111.800003 L 505.400024 111.800003 L 505.400024 103.900009 L 510.700012 103.900009 L 512.5 92.100006 L 520.200012 92.100006 L 520.200012 103.900009 L 527.400024 103.900009 L 527.400024 111.800003 L 520.200012 111.800003 L 520.200012 135.699997 C 520.200012 138 521.299988 139.300003 523.700012 139.300003 L 527.5 139.300003 L 527.5 145.900009 C 525.299988 146.699997 523 147.100006 520.700012 147.199997 C 512.900024 147.199997 510.599976 141.900009 510.599976 136.600006 Z"/>
    <path id="path38" fill="#233f85" stroke="none" d="M 535.299988 88 L 544.799988 88 L 544.799988 97.5 L 535.299988 97.5 L 535.299988 88 Z M 535.299988 103.900009 L 545 103.900009 L 545 146.199997 L 535.299988 146.199997 L 535.299988 103.900009 Z"/>
    <path id="path39" fill="#233f85" stroke="none" d="M 553.5 125.100006 C 553.5 109.900009 560.5 103 574.299988 103 C 588.099976 103 595.200012 109.900009 595.200012 125.100006 C 595.200012 140.300003 588.200012 147.199997 574.299988 147.199997 C 560.400024 147.199997 553.5 140.300003 553.5 125.100006 Z M 585.200012 125.600006 L 585.200012 124.5 C 585.200012 115.300003 582.099976 110.800003 574.299988 110.800003 C 566.5 110.800003 563.400024 115.300003 563.400024 124.5 L 563.400024 125.600006 C 563.400024 134.800003 566.5 139.300003 574.299988 139.300003 C 582.099976 139.300003 585.200012 134.800003 585.200012 125.600006 L 585.200012 125.600006 Z"/>
    <path id="path40" fill="#233f85" stroke="none" d="M 603.799988 103.900009 L 611.799988 103.900009 L 612.599976 109.5 L 613.200012 109.5 C 616.400024 105.199997 621.5 102.699997 626.799988 102.900009 C 634.799988 102.900009 640.5 106.800003 640.5 117.600006 L 640.5 146.199997 L 630.799988 146.199997 L 630.799988 119.400009 C 630.799988 113.400009 627.799988 111.300003 623 111.300003 C 617.700012 111.300003 613.5 115.600006 613.5 121.600006 L 613.5 146.199997 L 603.799988 146.199997 L 603.799988 103.900009 Z"/>
    <path id="path41" fill="#233f85" stroke="none" d="M 227.399994 45.100006 C 227.399994 25.699997 237.200012 16.5 254.100006 16.5 C 267.899994 16.5 278.5 23.399994 278.5 37.800003 L 268 37.800003 C 268 29.600006 262.399994 25.199997 254.299988 25.199997 C 243.200012 25.199997 238 31.600006 238 44.300003 L 238 45.899994 C 238 58.800003 243.200012 65 254.299988 65 C 262.799988 65 268.399994 60.600006 268.399994 52.5 L 278.5 52.5 C 278.5 66.899994 268 73.699997 254.100006 73.699997 C 237.200012 73.699997 227.399994 65 227.399994 45.100006 Z"/>
    <path id="path42" fill="#233f85" stroke="none" d="M 284.399994 61.800003 C 284.399994 50.300003 295.399994 47.100006 311 47.100006 L 311 43.600006 C 311 40 309.700012 37.199997 303.799988 37.199997 C 297.600006 37.199997 296 39.699997 296 41.899994 L 296 43 L 286.700012 43 C 286.600006 42.399994 286.600006 41.800003 286.600006 41.199997 C 286.600006 33.899994 293.5 29.399994 303.799988 29.399994 C 315.200012 29.399994 320.700012 34.300003 320.700012 42.800003 L 320.700012 63 C 320.600006 64.399994 321.700012 65.699997 323.100006 65.800003 C 323.200012 65.800003 323.399994 65.800003 323.5 65.800003 L 326.100006 65.800003 L 326.100006 72.399994 C 324.200012 73.199997 322.100006 73.600006 320.100006 73.600006 C 315.899994 73.600006 313 71.399994 312 67.899994 L 311.399994 67.899994 C 308.600006 71.399994 304.5 73.699997 297.899994 73.699997 C 293.100006 73.699997 284.399994 72.100006 284.399994 61.800003 Z M 311 55.800003 L 311 53.899994 C 301.799988 53.899994 294.299988 55.199997 294.299988 60.800003 C 294.299988 64.199997 296.5 66 300.700012 66 C 307.200012 66 311 61.899994 311 55.800003 Z"/>
    <path id="path43" fill="#233f85" stroke="none" d="M 332.299988 30.399994 L 340.299988 30.399994 L 341.200012 37.100006 L 341.799988 37.100006 C 343.299988 33.100006 346 29.399994 351.299988 29.399994 C 352.700012 29.399994 354 29.600006 355.299988 30.100006 L 355.299988 39.199997 L 352.200012 39.199997 C 345.600006 39.199997 342 42.800003 342 50.600006 L 342 72.699997 L 332.299988 72.699997 L 332.299988 30.399994 Z"/>
    <path id="path44" fill="#233f85" stroke="none" d="M 359.399994 51.5 C 359.399994 36.300003 366.200012 29.399994 375.700012 29.399994 C 381.5 29.399994 385.799988 31.300003 388.399994 35.300003 L 388.899994 35.300003 L 388.899994 14.5 L 398.5 14.5 L 398.5 72.699997 L 390.5 72.699997 L 389.700012 67.100006 L 389.200012 67.100006 C 386.399994 71.5 381.600006 73.699997 376.200012 73.699997 C 365.899994 73.699997 359.399994 66.899994 359.399994 51.5 Z M 388.799988 52.100006 L 388.799988 51.100006 C 388.799988 42.5 385.899994 37.699997 379.100006 37.699997 C 371.899994 37.699997 369.299988 41.899994 369.299988 51.100006 L 369.299988 52.100006 C 369.299988 61.199997 371.899994 65.399994 379.100006 65.399994 C 386 65.399994 388.799988 60.699997 388.799988 52.100006 L 388.799988 52.100006 Z"/>
    <path id="path45" fill="#233f85" stroke="none" d="M 406.600006 61.800003 C 406.600006 50.300003 417.600006 47.100006 433.200012 47.100006 L 433.200012 43.600006 C 433.200012 40 431.899994 37.199997 426 37.199997 C 419.799988 37.199997 418.200012 39.699997 418.200012 41.899994 L 418.200012 43 L 408.799988 43 C 408.700012 42.399994 408.700012 41.800003 408.700012 41.199997 C 408.700012 33.899994 415.600006 29.399994 425.899994 29.399994 C 437.299988 29.399994 442.799988 34.300003 442.799988 42.800003 L 442.799988 63 C 442.700012 64.399994 443.799988 65.699997 445.200012 65.800003 C 445.299988 65.800003 445.5 65.800003 445.600006 65.800003 L 448.200012 65.800003 L 448.200012 72.399994 C 446.299988 73.199997 444.200012 73.600006 442.200012 73.600006 C 438 73.600006 435.100006 71.399994 434.200012 67.899994 L 433.600006 67.899994 C 430.799988 71.399994 426.700012 73.699997 420.100006 73.699997 C 415.200012 73.699997 406.600006 72.100006 406.600006 61.800003 Z M 433.200012 55.800003 L 433.200012 53.899994 C 424 53.899994 416.5 55.199997 416.5 60.800003 C 416.5 64.199997 418.700012 66 422.899994 66 C 429.399994 66 433.200012 61.899994 433.200012 55.800003 L 433.200012 55.800003 Z"/>
    <path id="path46" fill="#233f85" stroke="none" d="M 454.5 30.399994 L 462.5 30.399994 L 463.299988 36 L 463.899994 36 C 467.100006 31.699997 472.200012 29.300003 477.5 29.399994 C 485.599976 29.399994 491.200012 33.300003 491.200012 44.100006 L 491.200012 72.699997 L 481.5 72.699997 L 481.5 45.800003 C 481.5 39.800003 478.5 37.699997 473.700012 37.699997 C 468.399994 37.699997 464.200012 42 464.200012 48 L 464.200012 72.600006 L 454.5 72.600006 L 454.5 30.399994 Z"/>
    <path id="path47" fill="#233f85" stroke="none" d="M 499.5 51.600006 C 499.5 36.399994 506.5 29.5 520.299988 29.5 C 534.099976 29.5 541.200012 36.399994 541.200012 51.600006 C 541.200012 66.800003 534.200012 73.699997 520.299988 73.699997 C 506.400024 73.699997 499.5 66.800003 499.5 51.600006 Z M 531.299988 52.100006 L 531.299988 51 C 531.299988 41.800003 528.200012 37.300003 520.400024 37.300003 C 512.599976 37.300003 509.5 41.800003 509.5 51 L 509.5 52.100006 C 509.5 61.300003 512.599976 65.800003 520.400024 65.800003 C 528.200012 65.800003 531.299988 61.300003 531.299988 52.100006 Z"/>
</svg>
