<?xml version="1.0" encoding="utf-8"?>
<!DOCTYPE svg PUBLIC "-//W3C//DTD SVG 1.0//EN" "http://www.w3.org/TR/2001/REC-SVG-20010904/DTD/svg10.dtd">
<svg version="1.0" xmlns="http://www.w3.org/2000/svg" width="915px" height="251px" viewBox="0 0 915 251" preserveAspectRatio="xMidYMid meet">
 <g fill="#ffffff">
  <path d="M133.3 249.9 c-4.2 -1.5 -5.8 -8.3 -2.5 -11.1 2.9 -2.5 5.2 -2.9 8.2 -1.3 7.5 3.9 2.2 15.3 -5.7 12.4z"/>
  <path d="M68.2 241.5 c-2.4 -2 -2.5 -2.5 -1.4 -4.9 1.4 -3.1 3.3 -4 6.7 -3.2 4.6 1.2 4.2 8.7 -0.5 9.9 -1.3 0.3 -3.1 -0.3 -4.8 -1.8z"/>
  <path d="M197.5 241 c-3.6 -3.9 0.8 -9.9 6 -8 1.1 0.4 2.4 1.9 2.9 3.3 1.9 5.3 -5 9 -8.9 4.7z"/>
  <path d="M83.9 215.7 c-2.1 -1.6 -3.9 -5.1 -3.9 -7.7 0 -3.2 5.3 -8 8.8 -8 7.1 0 10.8 9.5 5.7 14.5 -2.7 2.7 -7.9 3.3 -10.6 1.2z"/>
  <path d="M180.5 215.8 c-3.1 -1.8 -4.4 -4 -4.5 -7.6 0 -7.5 9.4 -11.1 14.5 -5.6 3.4 3.7 3.3 7.8 -0.4 11.5 -3.1 3 -6.3 3.6 -9.6 1.7z"/>
  <path d="M131.3 208.4 c-1.7 -0.9 -3.9 -3.1 -4.8 -5 -4.6 -9.8 8.2 -18.8 16.1 -11.3 5.2 4.9 3.5 13.7 -3.1 16.5 -4.2 1.7 -4.3 1.7 -8.2 -0.2z"/>
  <path d="M407.2 207.6 c-13.2 -4.3 -18.9 -14.8 -17.9 -32.8 1.1 -20.2 11.3 -28.9 32.3 -27.6 15.4 0.9 23.4 8.4 25.3 23.6 2.1 17.6 -2.7 30.1 -13.6 35.2 -6.1 2.9 -19.7 3.7 -26.1 1.6z m20 -11.2 c4.9 -2.6 7.1 -8.8 6.6 -19.8 -0.5 -14.1 -4 -18.7 -14.5 -19.3 -7.3 -0.5 -11.9 1.8 -14.7 7.3 -1.7 3.2 -2.1 5.7 -2 13.4 0 10 1.1 13.6 5.3 17.4 4.1 3.7 13.1 4.2 19.3 1z"/>
  <path d="M470.4 207.1 c-8.8 -4 -10.4 -9.9 -10.4 -39.3 l0 -19.8 6.4 0 6.5 0 0.3 22 0.3 22 2.8 2.7 c2.3 2.4 3.6 2.8 8.1 2.8 6.4 0 10.1 -2.2 12.8 -7.6 1.5 -2.9 1.8 -6.3 1.8 -22.6 l0 -19.3 6.5 0 6.5 0 0 30 0 30 -5.5 0 c-5.3 0 -5.5 -0.1 -5.5 -2.7 0 -1.6 -0.5 -3.5 -1 -4.3 -0.8 -1.2 -1.4 -1 -3.7 1.2 -6.7 6.4 -17.9 8.5 -25.9 4.9z"/>
  <path d="M606.3 206.6 c-6.2 -2.9 -9.5 -7.5 -11.8 -16.1 -4.5 -17.3 0.7 -35.8 11.5 -41.2 7.8 -4 19.3 -2.7 24.5 2.7 1.6 1.6 3.2 3 3.7 3 0.4 0 0.8 -6.7 0.8 -15 l0 -15 6.5 0 6.5 0 0 41.5 0 41.5 -5.5 0 -5.5 0 0 -3.4 c0 -4.8 -1.6 -5.3 -5.3 -1.8 -6.8 6.6 -16.3 8 -25.4 3.8z m21.2 -10.2 c2 -0.9 4 -3 5.1 -5.2 2.5 -5.4 3 -16.6 1 -23.6 -2.3 -7.7 -5.6 -9.9 -14.5 -9.3 -5.4 0.3 -6.7 0.7 -8.7 3 -4.6 5.4 -5.6 22.2 -1.8 30.3 2.9 6 11.7 8.2 18.9 4.8z"/>
  <path d="M671.9 208 c-7.4 -2.2 -11.2 -7.5 -11.2 -15.5 0 -12.3 9.1 -18.8 28.4 -20.2 l8.9 -0.6 0 -5.3 c0 -4.5 -0.4 -5.6 -2.6 -7.3 -5.7 -4.5 -19.4 -1.7 -19.4 4 0 1.7 -0.7 1.9 -6.5 1.9 -7.6 0 -7.9 -0.7 -4.2 -8 3.2 -6.4 9.4 -9.4 20.4 -9.9 13 -0.5 21.2 3.3 24.2 11.2 0.6 1.6 1.1 10.4 1.1 20.2 0 18.9 0.4 20.5 5.6 20.5 2.3 0 2.5 0.3 2.2 4.3 -0.3 3.9 -0.5 4.3 -4 5.1 -5.3 1.3 -11.5 -0.7 -13.6 -4.5 -2.1 -3.5 -3.2 -3.6 -6.2 -0.4 -4.1 4.4 -15.9 6.7 -23.1 4.5z m18.7 -10.9 c4.7 -2.1 7.4 -6.8 7.4 -12.6 l0 -3.8 -7.9 0.6 c-11.4 0.7 -16.1 3.6 -16.1 9.7 0 7.2 7.8 10.1 16.6 6.1z"/>
  <path d="M736.5 207.2 c-6 -3.8 -6 -3.7 -6.5 -27.1 l-0.5 -21.6 -3.7 -0.3 -3.8 -0.3 0 -5 0 -4.9 3.9 0 3.9 0 1.2 -8.5 1.2 -8.5 4.9 0 4.9 0 0 8.5 0 8.5 5.5 0 5.5 0 0 4.9 0 5 -5.2 0.3 -5.3 0.3 0 18.8 c0 17.5 0.1 19 1.9 20.3 1.1 0.8 3.5 1.4 5.3 1.4 3.2 0 3.3 0.1 3.3 3.9 0 2.2 -0.5 4.3 -1.1 4.6 -0.6 0.4 -3.6 0.9 -6.7 1.2 -4.4 0.3 -6.4 0 -8.7 -1.5z"/>
  <path d="M808.5 207.3 c-7.5 -2.7 -11.1 -5.7 -14.2 -12.1 -2.6 -5.2 -2.8 -6.6 -2.8 -17.2 0 -10.4 0.3 -12.1 2.7 -17.2 4.8 -10.2 14 -14.5 29.4 -13.6 17.6 1 25.4 10.6 25.4 30.8 0 15.3 -4 23.3 -13.9 27.8 -7.4 3.4 -19.3 4.1 -26.6 1.5z m20.5 -10.8 c5.1 -2.6 6.5 -6.6 6.5 -18.5 0 -8.7 -0.3 -11.1 -2 -14 -5.4 -9.2 -21.6 -9.4 -26.8 -0.3 -4.2 7.3 -3 25.7 2 30.7 4.7 4.7 13.5 5.6 20.3 2.1z"/>
  <path d="M328 169 l0 -39 28 0 28 0 0 5.5 0 5.5 -21 0 -21 0 0 11.5 0 11.5 19 0 19 0 0 5.5 0 5.5 -19 0 -19 0 0 16.5 0 16.5 -7 0 -7 0 0 -39z"/>
  <path d="M529 177.9 l0 -30 5.3 0.3 5.2 0.3 0.3 3.8 c0.2 2 0.7 3.7 1.2 3.7 0.4 0 2.2 -1.3 3.9 -2.9 7.1 -6.6 21 -8.2 28 -3.2 6.4 4.6 7.1 7.7 7.1 34.4 l0 23.7 -6.5 0 -6.5 0 0 -22.1 0 -22.1 -2.9 -2.9 c-5.7 -5.6 -17.5 -3 -20.7 4.6 -1 2.6 -1.4 8.2 -1.4 23 l0 19.5 -6.5 0 -6.5 0 0 -30.1z"/>
  <path d="M765 178 l0 -30 6.5 0 6.5 0 0 30 0 30 -6.5 0 -6.5 0 0 -30z"/>
  <path d="M863 178 l0 -30 5 0 5 0 0.6 4 c0.4 2.2 0.9 4 1.1 4 0.3 0 2.1 -1.4 4.1 -3.1 5 -4.4 9.2 -5.9 16.4 -5.9 7.9 0 13.2 2.8 16.2 8.5 1.9 3.7 2.1 5.9 2.4 28.3 l0.3 24.2 -6.5 0 -6.5 0 -0.3 -22.6 -0.3 -22.6 -2.8 -2.4 c-3.6 -3.1 -10.7 -3.3 -15.4 -0.4 -6 3.6 -6.7 6.3 -7.1 28.3 l-0.4 19.7 -5.9 0 -5.9 0 0 -30z"/>
  <path d="M31.1 190.7 c-1.4 -0.6 -2.9 -2.5 -3.4 -4.1 -2.1 -6.2 6.6 -11.3 11.2 -6.7 3 3 2.7 7.5 -0.5 10 -3.1 2.4 -4 2.5 -7.3 0.8z"/>
  <path d="M234.2 189.4 c-3.3 -2.3 -3 -7.6 0.5 -10.4 6.4 -5 14.3 2.9 9.3 9.3 -2.5 3.1 -6.3 3.6 -9.8 1.1z"/>
  <path d="M109.7 179.7 c-7.2 -2.3 -12.7 -9.9 -12.7 -17.6 0 -6.9 7.3 -15.2 14.8 -16.7 11.5 -2.3 23.3 10.2 20.2 21.6 -2.6 9.8 -12.9 15.7 -22.3 12.7z"/>
  <path d="M152.6 179.5 c-7.8 -2.8 -13.5 -11.6 -12.3 -19.1 1.4 -8.4 9.3 -15.3 17.6 -15.4 8.1 0 16.1 6.9 17.7 15.3 1.4 7.9 -5 17.3 -13.3 19.6 -4.7 1.3 -4.9 1.3 -9.7 -0.4z"/>
  <path d="M67.8 171.4 c-2.9 -1.5 -5.8 -6.1 -5.8 -9.1 0 -3.4 3.7 -8.1 7.3 -9.2 11.2 -3.7 18.4 11.8 8.3 18 -3.7 2.3 -6.1 2.3 -9.8 0.3z"/>
  <path d="M197.2 171.8 c-4.3 -1.2 -7.5 -6.1 -6.8 -10.7 1.5 -10.1 14.4 -12.1 18.9 -2.9 2.1 4.3 1.5 7.7 -1.9 11.2 -2.9 2.8 -5.8 3.5 -10.2 2.4z"/>
  <path d="M85 141.1 c-1.9 -1 -4.8 -3.6 -6.4 -5.9 -5.9 -8.3 -2.8 -20.5 6.4 -25.2 10 -5.1 21.5 -0.2 25 10.6 2.5 7.4 -1 16 -8.4 20.5 -4.1 2.5 -12 2.5 -16.6 0z"/>
  <path d="M173 141.9 c-3.2 -1.3 -7.8 -5.6 -9.6 -9.1 -2.1 -4.1 -1.7 -11.6 0.9 -16.3 4.2 -7.4 15.3 -10.8 22.6 -7.1 10 5.2 13.1 18.1 6.4 26.4 -5.2 6.4 -13.4 8.8 -20.3 6.1z"/>
  <path d="M765 131.5 l0 -6.5 6 0 6 0 0 6.5 0 6.5 -6 0 -6 0 0 -6.5z"/>
  <path d="M34.5 131.5 c-3.5 -3.4 -3.3 -7.8 0.4 -11.6 3.8 -3.8 7.4 -3.8 11.2 0 5.6 5.7 2.3 14.1 -5.6 14.1 -2.5 0 -4.4 -0.8 -6 -2.5z"/>
  <path d="M228.5 132.8 c-3.2 -1.7 -4.5 -3.9 -4.5 -7.9 0 -4.6 3.6 -7.9 8.5 -7.9 4.6 0 8.9 5 8.1 9.4 -1.1 5.9 -7.2 9.1 -12.1 6.4z"/>
  <path d="M2.6 129.4 c-2.5 -2.4 -2 -6.1 1 -8.1 2.4 -1.5 2.9 -1.5 5.3 -0.2 4.9 2.8 3.2 9.9 -2.4 9.9 -1.3 0 -3.1 -0.7 -3.9 -1.6z"/>
  <path d="M263.2 129.4 c-4.2 -2.9 -1.9 -9.4 3.3 -9.4 3.4 0 6 4.1 4.5 6.9 -0.9 1.7 -3.9 4.1 -5.2 4.1 -0.2 0 -1.4 -0.7 -2.6 -1.6z"/>
  <path d="M108 104.4 c-13.5 -5.8 -14.8 -23.8 -2.2 -31.1 9.2 -5.4 20.1 -2.2 25.1 7.4 1.5 3 1.4 11.9 -0.3 15.1 -4.5 8.7 -14.1 12.3 -22.6 8.6z"/>
  <path d="M150.2 103.9 c-11.1 -5.5 -13.4 -19.8 -4.6 -28.3 7.2 -7 17.4 -6.9 24.5 0.3 7.1 7 7.2 16.4 0.4 24 -5.6 6.1 -13 7.6 -20.3 4z"/>
  <path d="M350.2 102.4 c-7 -1.8 -10 -3.5 -14.6 -8.1 -13.4 -13.3 -13.8 -45.6 -0.7 -60.6 8.9 -10 30.9 -13.3 45.8 -6.7 9 4 14.9 11.7 16 21.1 l0.6 4.9 -7.2 0 c-6.7 0 -7.1 -0.1 -7.1 -2.2 -0.1 -4.4 -3.7 -10.4 -7.6 -12.9 -3.3 -2 -5.2 -2.4 -12.4 -2.4 -7.4 0 -9.1 0.3 -13 2.7 -2.6 1.5 -5.4 4.2 -6.7 6.5 -4.2 7.4 -5.2 23.1 -2.1 33.3 2.8 9.2 10.1 14.2 21.2 14.3 11.7 0.2 19.1 -4.7 21.1 -14 l0.7 -3.3 6.4 0 c6.4 0 6.4 0 6.4 2.9 0 4 -2.6 10.9 -5.6 14.8 -7.1 9.4 -26 13.8 -41.2 9.7z"/>
  <path d="M417.5 102.8 c-12.9 -4.5 -14.3 -23.2 -2.3 -30.2 5.8 -3.3 10.6 -4.5 21.1 -5.3 l8.7 -0.6 0 -3.2 c0 -8.2 -3.4 -11.5 -11.6 -11.5 -5.6 0 -10.2 2.3 -11 5.5 -0.6 2.3 -1.1 2.5 -6.6 2.5 l-6.1 0 0.6 -4.1 c1.1 -8.1 8.7 -13 21.3 -13.7 14.2 -0.8 23.1 4.1 25.3 13.8 0.6 2.5 1.1 11.5 1.1 20.1 0 16.4 0.4 17.9 4.7 17.9 2.1 0 2.3 0.5 2.3 4.5 0 4.3 -0.1 4.4 -3.5 5.1 -6.8 1.2 -11.1 -0.5 -15 -6.1 -1.3 -2 -1.4 -2 -3.7 0.2 -5.8 5.5 -17.5 7.8 -25.3 5.1z m19.4 -10.6 c4.6 -2.3 6.8 -5.7 7.7 -11.4 l0.6 -4.8 -5 0 c-7.7 0 -15.2 1.9 -17.9 4.6 -3.1 3.1 -3 7.7 0.2 10.9 3 3.1 9.3 3.4 14.4 0.7z"/>
  <path d="M529.7 103 c-5 -1.5 -9.8 -6.1 -12.6 -11.9 -2.4 -5.1 -2.6 -6.7 -2.6 -18.1 0 -10.9 0.3 -13.1 2.3 -17.5 2.9 -6.3 5.7 -9.3 10.7 -11.6 7.8 -3.6 19.9 -1.7 24.9 4 1.1 1.1 2.3 2.1 2.8 2.1 0.4 0 0.8 -6.5 0.8 -14.5 l0 -14.5 6.5 0 6.5 0 0 41 0 41 -5.4 0 -5.3 0 -0.7 -4 c-0.7 -4.7 -1.4 -4.9 -4.7 -1.4 -5 5.5 -15.1 7.8 -23.2 5.4z m20.4 -12.6 c4.3 -3.8 5.4 -7.4 5.4 -17.4 0 -10.4 -1.3 -14.1 -6.1 -17.9 -1.9 -1.5 -4.1 -2.1 -7.8 -2.1 -10.8 0 -14.1 4.6 -14.1 19.5 0 11.5 1.4 15.8 5.9 18.7 4.1 2.5 13.5 2.1 16.7 -0.8z"/>
  <path d="M590.4 102.1 c-8.1 -3.7 -11.4 -12.8 -7.6 -21.3 3.6 -8.2 12.2 -12.3 28 -13.5 l8.2 -0.6 0 -4.9 c0 -3.9 -0.5 -5.4 -2.5 -7.3 -5 -5.1 -19.5 -2.4 -19.5 3.6 0 1.7 -0.7 1.9 -6.6 1.9 l-6.7 0 0.6 -3.5 c0.8 -5.1 4 -9 9.5 -11.7 4 -1.9 6.2 -2.3 14.7 -2.3 8.8 0 10.5 0.3 14.5 2.5 3.2 1.8 5.2 3.8 6.8 7 2 4.1 2.2 5.8 2.2 22.2 0 16.5 0.1 17.8 1.9 18.8 1.1 0.5 2.9 1 4 1 1.8 0 2.1 0.6 2.1 4 0 3.4 -0.4 4.2 -2.6 5 -6 2.3 -14.4 -0.3 -15.9 -4.9 -0.9 -2.8 -2.1 -2.6 -6.1 0.8 -5.9 5.3 -17.3 6.7 -25 3.2z m21.2 -10 c4.7 -2.1 7.4 -6.8 7.4 -12.6 l0 -3.8 -7.3 0.5 c-12.6 0.8 -19 5.7 -16.6 12.5 1.8 5.3 9 6.8 16.5 3.4z"/>
  <path d="M731.5 102.3 c-7.5 -2.7 -11.1 -5.7 -14.2 -12.1 -2.6 -5.2 -2.8 -6.6 -2.8 -17.2 0 -10.3 0.3 -12.1 2.6 -17.1 4.5 -9.5 12.7 -13.9 25.9 -13.9 9.9 0 16.7 2.4 21.7 7.6 5.3 5.5 7.3 11.9 7.3 23.4 0 14.9 -4.2 23.5 -13.6 28 -6.4 3.2 -19.9 3.8 -26.9 1.3z m21 -10.9 c4.8 -3.1 6 -6.9 6 -18.4 0 -8.7 -0.3 -11.1 -2 -14 -3 -5.1 -7.7 -7.2 -14.6 -6.7 -6.8 0.6 -10.1 2.6 -12.4 7.4 -3.6 7.5 -2.8 23.7 1.3 29.1 3.9 5 15.8 6.5 21.7 2.6z"/>
  <path d="M475 73 l0 -30 5.5 0 c5.3 0 5.5 0.1 5.5 2.8 0 3.7 1 7.2 2.1 7.2 0.5 0 0.9 -0.6 0.9 -1.3 0 -0.8 1.5 -3.1 3.3 -5.2 3.1 -3.6 3.8 -3.9 8.8 -3.9 l5.4 -0.1 0.3 6.3 0.3 6.2 -4.1 0 c-6.6 0 -10.8 2.3 -13 7.2 -1.7 3.8 -2 6.6 -2 22.6 l0 18.2 -6.5 0 -6.5 0 0 -30z"/>
  <path d="M650 73 l0 -30 5 0 5 0 0.6 4 c0.7 4.6 1.3 4.8 4 1.9 5.8 -6.6 19.2 -8.8 27.4 -4.6 7.9 4 8.4 6.2 8.8 34.5 l0.3 24.2 -6.5 0 -6.5 0 -0.3 -22.6 -0.3 -22.6 -2.8 -2.4 c-3.6 -3.1 -10.7 -3.3 -15.4 -0.4 -6.1 3.7 -6.7 6.3 -7.1 28.3 l-0.4 19.7 -5.9 0 -5.9 0 0 -30z"/>
  <path d="M66 96.3 c-7.9 -7.2 -1.7 -19.5 8.7 -17.5 3.1 0.6 7 4.7 7.6 8 1.1 6 -4.3 12.2 -10.7 12.2 -1.4 0 -3.9 -1.2 -5.6 -2.7z"/>
  <path d="M195.2 97 c-5.6 -3.5 -6.8 -9.9 -2.6 -14.9 6.3 -7.5 17.3 -3.4 17.4 6.5 0 4.4 -2.4 7.8 -6.7 9.5 -3.4 1.3 -4.4 1.2 -8.1 -1.1z"/>
  <path d="M29.5 71.5 c-3 -2.9 -3.2 -6.4 -0.5 -9.3 4.1 -4.4 12 -1.5 12 4.3 0 3.1 -4.1 7.5 -7 7.5 -1.1 0 -3.2 -1.1 -4.5 -2.5z"/>
  <path d="M233.1 70.4 c-1.2 -1.5 -2.1 -3 -2.1 -3.5 0 -2.4 2.6 -5.9 5.2 -7 2.5 -1 3.3 -0.9 5.6 0.8 3.3 2.5 4.1 7.6 1.6 10.4 -2.6 2.9 -7.8 2.5 -10.3 -0.7z"/>
  <path d="M129.4 58.6 c-5.6 -5.6 -4.2 -13.1 3 -16.1 4.2 -1.8 8.1 -0.8 11.1 2.7 5.7 6.8 0.9 16.8 -8 16.8 -1.7 0 -3.9 -1.2 -6.1 -3.4z"/>
  <path d="M82.5 48.5 c-4.1 -4 -3.3 -10.5 1.6 -13 4.2 -2.2 6.7 -1.8 10 1.4 3.6 3.6 3.7 7 0.3 11 -3.3 4 -8.3 4.3 -11.9 0.6z"/>
  <path d="M179.7 49.9 c-2.8 -1.6 -4.9 -7.3 -3.8 -10.3 3.4 -8.7 16.5 -6.4 16.5 2.9 0 6.4 -7.2 10.6 -12.7 7.4z"/>
  <path d="M68.2 17.4 c-3.4 -2.3 -2.7 -7.5 1.1 -8.8 3.3 -1.2 5.6 -0.1 6.8 3.3 0.7 1.7 0.3 2.8 -1.6 4.7 -2.8 2.8 -3.3 2.9 -6.3 0.8z"/>
  <path d="M197.2 16.8 c-2.1 -2.1 -1.4 -6.6 1.3 -8.4 2.3 -1.5 2.7 -1.5 5 0 1.7 1.1 2.5 2.6 2.5 4.4 0 3.5 -1.6 5.2 -5 5.2 -1.4 0 -3.1 -0.5 -3.8 -1.2z"/>
  <path d="M133.5 13.8 c-7.2 -3.9 -5.2 -12.8 2.9 -12.8 5.8 0 8.6 6.4 4.9 10.8 -2.3 2.6 -5.3 3.4 -7.8 2z"/>
 </g>
</svg>