<svg width="561" height="107" viewBox="0 0 561 107" fill="none" xmlns="http://www.w3.org/2000/svg">
<g clip-path="url(#clip0_1212_3597)">
<path d="M269.277 19.1014H257.546C256.963 19.1014 256.833 19.2317 256.833 19.8177V91.5695C256.833 92.1555 256.963 92.2857 257.546 92.2857H269.277C269.861 92.2857 269.99 92.1555 269.99 91.5695V78.1567C269.99 77.5707 270.444 77.115 271.027 77.115C271.092 77.115 271.092 77.115 271.157 77.115H284.055C284.768 77.115 285.222 77.3754 285.222 78.0916V92.6113C285.222 101.531 282.046 106.74 270.898 106.74H256.379C244.907 106.74 241.602 101.531 241.602 92.9368V18.7108C241.602 9.79063 245.49 4.58179 256.12 4.58179H270.768C281.398 4.58179 285.287 9.79063 285.287 18.5806V31.9933C285.287 32.7095 284.833 32.97 284.12 32.97H271.222C270.639 33.0351 270.185 32.6444 270.055 32.1236C270.055 32.0584 270.055 32.0584 270.055 31.9933V19.8828C269.99 19.2968 269.861 19.1014 269.277 19.1014Z" fill="black"/>
<path d="M324.759 106.154C324.111 106.154 323.593 105.698 323.593 105.047V104.982V62.2046H310.37V104.982C310.435 105.503 310.111 106.024 309.528 106.154C309.398 106.154 309.333 106.154 309.204 106.154H296.306C295.657 106.154 295.204 105.698 295.139 105.047V104.982V6.46994C295.074 5.88395 295.528 5.36306 296.111 5.29795C296.176 5.29795 296.241 5.29795 296.306 5.29795H309.204C309.787 5.23284 310.306 5.68861 310.37 6.27461C310.37 6.33972 310.37 6.40483 310.37 6.46994V47.6849H323.593V6.46994C323.528 5.88395 323.982 5.36306 324.565 5.29795C324.63 5.29795 324.695 5.29795 324.759 5.29795H337.657C338.241 5.23284 338.759 5.68861 338.824 6.27461C338.824 6.33972 338.824 6.40483 338.824 6.46994V105.047C338.889 105.568 338.565 106.089 337.982 106.219C337.852 106.219 337.787 106.219 337.657 106.219L324.759 106.154Z" fill="black"/>
<path d="M378.295 5.2981C378.944 5.2981 379.462 5.75387 379.462 6.40498V6.47009L395.666 105.047C395.731 105.633 395.277 106.154 394.694 106.219C394.629 106.219 394.564 106.219 394.499 106.219H381.018C380.369 106.219 379.851 105.699 379.851 105.113L376.545 81.0217H364.684L361.119 105.113C361.184 105.699 360.731 106.219 360.147 106.285C360.082 106.285 360.018 106.285 359.953 106.285H346.471C345.888 106.35 345.37 105.894 345.305 105.308C345.305 105.243 345.305 105.178 345.305 105.113L362.351 6.47009C362.351 5.81898 362.805 5.2981 363.453 5.2981H363.518H378.295ZM366.823 66.502H374.731L370.971 38.6998L366.823 66.502Z" fill="black"/>
<path d="M429.499 106.154C428.851 106.154 428.397 105.699 428.332 105.047V104.982L417.314 65.1998V104.982C417.314 105.829 416.86 106.154 416.147 106.154H403.249C402.601 106.154 402.147 105.699 402.082 105.047V104.982V6.47009C402.018 5.88409 402.471 5.36321 403.055 5.2981C403.119 5.2981 403.184 5.2981 403.249 5.2981H429.11C439.74 5.2981 443.564 10.5069 443.564 19.2969V48.8571C443.564 56.9308 440.971 61.9443 432.351 62.8558L444.99 105.047C445.119 105.894 444.536 106.219 443.823 106.219L429.499 106.154ZM417.314 19.8178V48.4013H427.619C428.203 48.4013 428.332 48.2711 428.332 47.6851V20.534C428.332 19.948 428.203 19.8178 427.619 19.8178H417.314Z" fill="black"/>
<path d="M456.269 106.154C455.62 106.154 455.102 105.698 455.102 105.047V104.982V6.46994C455.037 5.88395 455.491 5.36306 456.074 5.29795C456.139 5.29795 456.204 5.29795 456.269 5.29795H469.167C469.75 5.23284 470.269 5.68861 470.333 6.27461C470.333 6.33972 470.333 6.40483 470.333 6.46994V91.6346H484.074C484.722 91.6346 485.241 92.1555 485.241 92.7414V104.982C485.241 105.829 484.787 106.154 484.074 106.154H456.269Z" fill="black"/>
<path d="M492.889 106.154C492.565 106.154 492.306 106.089 492.047 105.894C491.852 105.764 491.723 105.503 491.723 105.243V29.1286C491.723 28.8681 491.787 28.6077 492.047 28.4775C492.306 28.2822 492.565 28.217 492.889 28.217H505.787C506.112 28.217 506.371 28.2822 506.63 28.4775C506.825 28.6077 506.954 28.8681 506.954 29.1286V105.243C506.954 105.894 506.5 106.154 505.787 106.154H492.889Z" fill="black"/>
<path d="M532.88 92.3508H544.676C545.065 92.3508 545.389 92.0253 545.389 91.6346V63.6371C545.389 63.2464 545.065 62.9209 544.676 62.9209H533.333C532.685 62.9209 532.167 62.4651 532.167 61.814V61.7489V49.3779C532.167 48.7919 532.62 48.3361 533.204 48.3361C533.269 48.3361 533.269 48.3361 533.333 48.3361H544.676C545.065 48.3361 545.389 48.0105 545.389 47.6199V19.8177C545.389 19.427 545.065 19.1014 544.676 19.1014H532.88C532.491 19.1014 532.167 19.427 532.167 19.8177V31.798C532.231 32.384 531.778 32.9049 531.259 32.97C531.194 32.97 531.13 32.97 531.065 32.97H518.167C517.583 33.0351 517.065 32.5793 517 31.9933C517 31.9282 517 31.8631 517 31.798V18.7108C517 9.79063 520.889 4.58179 531.454 4.58179H546.102C556.731 4.58179 560.556 9.79063 560.556 18.5806V43.0621C560.556 50.6801 558.546 53.61 555.954 55.7587C558.546 57.9073 560.556 60.7722 560.556 68.4553V92.8066C560.556 101.727 557.38 106.936 546.232 106.936H531.778C520.306 106.936 517 102.183 517 93.5228C517 92.8717 517.519 92.3508 518.102 92.3508H532.167" fill="black"/>
<path d="M517.454 69.6272H531.584C531.843 69.6272 532.102 69.8876 532.102 70.1481V84.3422C532.102 84.6026 531.843 84.8631 531.584 84.8631H517.454C517.195 84.8631 516.936 84.6026 516.936 84.3422V70.1481C516.936 69.8225 517.195 69.6272 517.454 69.6272Z" fill="#FE0343"/>
<path d="M492.306 5.2981H506.435C506.695 5.2981 506.954 5.55854 506.954 5.81898V20.0131C506.954 20.2735 506.695 20.534 506.435 20.534H492.306C492.046 20.534 491.787 20.2735 491.787 20.0131V5.81898C491.787 5.49343 492.046 5.2981 492.306 5.2981Z" fill="black"/>
<path fill-rule="evenodd" clip-rule="evenodd" d="M101.018 0.870605C74.8325 0.870605 48.9714 5.81901 24.6658 15.5205C23.8232 15.846 23.3047 16.6274 23.3047 17.5389V89.0954C23.3047 90.007 23.8232 90.7883 24.6658 91.1139C48.9714 100.815 74.8325 105.764 101.018 105.764C127.138 105.764 153.064 100.815 177.369 91.1139C178.212 90.7883 178.731 90.007 178.731 89.0954V17.5389C178.731 16.6274 178.212 15.846 177.369 15.5205C153.064 5.81901 127.138 0.870605 101.018 0.870605ZM164.666 76.5942C164.666 79.0684 163.11 81.2822 160.777 81.9984C141.462 88.3141 121.305 91.5045 101.018 91.5045C80.8602 91.5045 60.8325 88.3141 41.6473 82.1286C39.0547 81.5426 37.3047 79.1986 37.3047 76.5291V30.1052C37.3047 27.631 38.8602 25.4824 41.1288 24.7011C79.8232 12.0696 121.564 12.0045 160.258 24.5709C162.851 25.222 164.601 27.5008 164.601 30.1704L164.666 76.5942Z" fill="#FE0343"/>
<path fill-rule="evenodd" clip-rule="evenodd" d="M187.74 53.2845V63.3115C187.74 64.158 188.453 64.8742 189.296 64.8742H198.111C199.018 64.8742 199.861 64.5486 200.444 63.8975C201.092 63.2464 201.416 62.4 201.416 61.4884V45.1457C201.416 44.2341 201.092 43.3877 200.444 42.7366C199.861 42.0855 198.953 41.6948 198.111 41.6948H189.296C188.453 41.6948 187.74 42.411 187.74 43.2575V53.2845Z" fill="#FE0343"/>
<path fill-rule="evenodd" clip-rule="evenodd" d="M14.2306 43.3227C14.2306 42.4762 13.5177 41.76 12.6751 41.76H3.86024C2.95284 41.76 2.11024 42.1507 1.52691 42.8018C0.878762 43.3878 0.554688 44.2342 0.554688 45.1458V61.5536C0.554688 62.4652 0.878762 63.3116 1.52691 63.9627C2.17506 64.6138 3.01765 64.9394 3.86024 64.9394H12.6751C13.5177 64.9394 14.2306 64.2232 14.2306 63.3767V43.3227Z" fill="#FE0343"/>
<path d="M127.008 65.4603C133.631 65.4603 138.999 60.0674 138.999 53.4148C138.999 46.7623 133.631 41.3694 127.008 41.3694C120.386 41.3694 115.018 46.7623 115.018 53.4148C115.018 60.0674 120.386 65.4603 127.008 65.4603Z" fill="#FE0343"/>
<path d="M75.3501 65.4603C81.9724 65.4603 87.3409 60.0674 87.3409 53.4148C87.3409 46.7623 81.9724 41.3694 75.3501 41.3694C68.7278 41.3694 63.3594 46.7623 63.3594 53.4148C63.3594 60.0674 68.7278 65.4603 75.3501 65.4603Z" fill="#FE0343"/>
</g>
<defs>
<clipPath id="clip0_1212_3597">
<rect width="560" height="106" fill="white" transform="translate(0.554688 0.870605)"/>
</clipPath>
</defs>
</svg>
