<svg width="561" height="107" viewBox="0 0 561 107" fill="none" xmlns="http://www.w3.org/2000/svg">
<g clip-path="url(#clip0_1212_3662)">
<path d="M269.277 19.1727H257.546C256.963 19.1727 256.833 19.303 256.833 19.8889V91.6408C256.833 92.2268 256.963 92.357 257.546 92.357H269.277C269.861 92.357 269.99 92.2268 269.99 91.6408V78.228C269.99 77.642 270.444 77.1862 271.027 77.1862C271.092 77.1862 271.092 77.1862 271.157 77.1862H284.055C284.768 77.1862 285.222 77.4467 285.222 78.1629V92.7477C285.222 101.668 282.046 106.877 270.898 106.877H256.379C244.907 106.877 241.602 101.668 241.602 93.0732V18.7821C241.602 9.86192 245.49 4.65308 256.12 4.65308H270.768C281.398 4.65308 285.287 9.86192 285.287 18.6518V32.0646C285.287 32.7808 284.833 33.0413 284.12 33.0413H271.222C270.639 33.1064 270.185 32.7157 270.055 32.1948C270.055 32.1297 270.055 32.1297 270.055 32.0646V19.9541C269.99 19.3681 269.861 19.1727 269.277 19.1727Z" fill="white"/>
<path d="M324.759 106.226C324.111 106.226 323.593 105.77 323.593 105.119V105.054V62.2759H310.37V105.054C310.435 105.574 310.111 106.095 309.528 106.226C309.398 106.226 309.333 106.226 309.204 106.226H296.306C295.657 106.226 295.204 105.77 295.139 105.119V105.054V6.54123C295.074 5.95524 295.528 5.43435 296.111 5.36924C296.176 5.36924 296.241 5.36924 296.306 5.36924H309.204C309.787 5.30413 310.306 5.7599 310.37 6.3459C310.37 6.41101 310.37 6.47612 310.37 6.54123V47.7562H323.593V6.54123C323.528 5.95524 323.982 5.43435 324.565 5.36924C324.63 5.36924 324.695 5.36924 324.759 5.36924H337.657C338.241 5.30413 338.759 5.7599 338.824 6.3459C338.824 6.41101 338.824 6.47612 338.824 6.54123V105.119C338.889 105.64 338.565 106.16 337.982 106.291C337.852 106.291 337.787 106.291 337.657 106.291H324.759V106.226Z" fill="white"/>
<path d="M378.295 5.36938C378.944 5.36938 379.462 5.82516 379.462 6.47626V6.54138L395.666 105.119C395.731 105.705 395.277 106.226 394.694 106.291C394.629 106.291 394.564 106.291 394.499 106.291H381.018C380.369 106.291 379.851 105.77 379.851 105.184L376.545 81.093H364.684L361.119 105.184C361.184 105.77 360.731 106.291 360.147 106.356C360.082 106.356 360.018 106.356 359.953 106.356H346.471C345.888 106.421 345.37 105.965 345.305 105.379C345.305 105.314 345.305 105.249 345.305 105.184L362.351 6.54138C362.351 5.89027 362.805 5.36938 363.453 5.36938H363.518H378.295ZM366.823 66.5733H374.731L370.971 38.7711L366.823 66.5733Z" fill="white"/>
<path d="M429.499 106.226C428.851 106.226 428.397 105.77 428.332 105.119V105.054L417.314 65.2711V105.054C417.314 105.9 416.86 106.226 416.147 106.226H403.249C402.601 106.226 402.147 105.77 402.082 105.119V105.054V6.54138C402.018 5.95538 402.471 5.4345 403.055 5.36938C403.119 5.36938 403.184 5.36938 403.249 5.36938H429.11C439.74 5.36938 443.564 10.5782 443.564 19.3682V48.9283C443.564 57.0021 440.971 62.0156 432.351 62.9271L444.99 105.119C445.119 105.965 444.536 106.291 443.823 106.291H429.499V106.226ZM417.314 19.889V48.4726H427.619C428.203 48.4726 428.332 48.3424 428.332 47.7564V20.6053C428.332 20.0193 428.203 19.889 427.619 19.889H417.314Z" fill="white"/>
<path d="M456.269 106.226C455.62 106.226 455.102 105.77 455.102 105.119V105.054V6.54123C455.037 5.95524 455.491 5.43435 456.074 5.36924C456.139 5.36924 456.204 5.36924 456.269 5.36924H469.167C469.75 5.30413 470.269 5.7599 470.333 6.3459C470.333 6.41101 470.333 6.47612 470.333 6.54123V91.7058H484.074C484.722 91.7058 485.241 92.2267 485.241 92.8127V105.054C485.241 105.9 484.787 106.226 484.074 106.226H456.269V106.226Z" fill="white"/>
<path d="M492.889 106.226C492.565 106.226 492.306 106.161 492.047 105.965C491.852 105.835 491.723 105.575 491.723 105.314V29.1999C491.723 28.9394 491.787 28.679 492.047 28.5488C492.306 28.3534 492.565 28.2883 492.889 28.2883H505.787C506.112 28.2883 506.371 28.3534 506.63 28.5488C506.825 28.679 506.954 28.9394 506.954 29.1999V105.314C506.954 105.965 506.5 106.226 505.787 106.226H492.889V106.226Z" fill="white"/>
<path d="M532.88 92.4221H544.676C545.065 92.4221 545.389 92.0966 545.389 91.7059V63.7084C545.389 63.3177 545.065 62.9921 544.676 62.9921H533.333C532.685 62.9921 532.167 62.5364 532.167 61.8853V61.8202V49.4491C532.167 48.8632 532.62 48.4074 533.204 48.4074C533.269 48.4074 533.269 48.4074 533.333 48.4074H544.676C545.065 48.4074 545.389 48.0818 545.389 47.6912V19.8889C545.389 19.4983 545.065 19.1727 544.676 19.1727H532.88C532.491 19.1727 532.167 19.4983 532.167 19.8889V31.8693C532.231 32.4553 531.778 32.9762 531.259 33.0413C531.194 33.0413 531.13 33.0413 531.065 33.0413H518.167C517.583 33.1064 517.065 32.6506 517 32.0646C517 31.9995 517 31.9344 517 31.8693V18.7821C517 9.86192 520.889 4.65308 531.454 4.65308H546.102C556.731 4.65308 560.62 9.86192 560.62 18.6518V43.1334C560.62 50.7514 558.611 53.6813 556.019 55.83C558.611 57.9786 560.62 60.8435 560.62 68.5265V92.8779C560.62 101.798 557.444 107.007 546.296 107.007H531.778C520.306 107.007 517 102.254 517 93.5941C517 92.943 517.519 92.4221 518.102 92.4221H532.167" fill="white"/>
<path d="M517.454 69.6985H531.584C531.843 69.6985 532.102 69.9589 532.102 70.2194V84.4135C532.102 84.6739 531.843 84.9344 531.584 84.9344H517.454C517.195 84.9344 516.936 84.6739 516.936 84.4135V70.2194C516.936 69.8938 517.195 69.6985 517.454 69.6985Z" fill="#FE0343"/>
<path d="M492.306 5.36938H506.435C506.695 5.36938 506.954 5.62983 506.954 5.89027V20.0844C506.954 20.3448 506.695 20.6053 506.435 20.6053H492.306C492.046 20.6053 491.787 20.3448 491.787 20.0844V5.89027C491.787 5.56472 492.046 5.36938 492.306 5.36938Z" fill="white"/>
<path fill-rule="evenodd" clip-rule="evenodd" d="M101.018 0.941895C74.8325 0.941895 48.9714 5.8903 24.6658 15.5918C23.8232 15.9173 23.3047 16.6987 23.3047 17.6102V89.1667C23.3047 90.0783 23.8232 90.8596 24.6658 91.1851C48.9714 100.887 74.8325 105.835 101.018 105.835C127.138 105.835 153.064 100.887 177.369 91.1851C178.212 90.8596 178.731 90.0783 178.731 89.1667V17.6102C178.731 16.6987 178.212 15.9173 177.369 15.5918C153.064 5.8903 127.138 0.941895 101.018 0.941895ZM164.666 76.6655C164.666 79.1397 163.11 81.3534 160.777 82.0697C141.462 88.3854 121.305 91.5758 101.018 91.5758C80.8602 91.5758 60.8325 88.3854 41.6473 82.1999C39.0547 81.6139 37.3047 79.2699 37.3047 76.6004V30.1765C37.3047 27.7023 38.8602 25.5537 41.1288 24.7724C79.8232 12.1409 121.564 12.0758 160.258 24.6421C162.851 25.2932 164.601 27.5721 164.601 30.2416L164.666 76.6655Z" fill="#FE0343"/>
<path fill-rule="evenodd" clip-rule="evenodd" d="M187.74 53.3558V63.3828C187.74 64.2293 188.453 64.9455 189.296 64.9455H198.111C199.018 64.9455 199.861 64.6199 200.444 63.9688C201.092 63.3177 201.416 62.4713 201.416 61.5597V45.217C201.416 44.3054 201.092 43.459 200.444 42.8079C199.861 42.1568 198.953 41.7661 198.111 41.7661H189.296C188.453 41.7661 187.74 42.4823 187.74 43.3288V53.3558Z" fill="#FE0343"/>
<path fill-rule="evenodd" clip-rule="evenodd" d="M14.2306 43.394C14.2306 42.5475 13.5177 41.8313 12.6751 41.8313H3.86024C2.95284 41.8313 2.11024 42.222 1.52691 42.8731C0.878762 43.4591 0.554688 44.3055 0.554688 45.217V61.6249C0.554688 62.5365 0.878762 63.3829 1.52691 64.034C2.17506 64.6851 3.01765 65.0107 3.86024 65.0107H12.6751C13.5177 65.0107 14.2306 64.2944 14.2306 63.448V43.394Z" fill="#FE0343"/>
<path d="M127.008 65.5316C133.631 65.5316 138.999 60.1386 138.999 53.4861C138.999 46.8336 133.631 41.4407 127.008 41.4407C120.386 41.4407 115.018 46.8336 115.018 53.4861C115.018 60.1386 120.386 65.5316 127.008 65.5316Z" fill="#FE0343"/>
<path d="M75.3501 65.5316C81.9724 65.5316 87.3409 60.1386 87.3409 53.4861C87.3409 46.8336 81.9724 41.4407 75.3501 41.4407C68.7278 41.4407 63.3594 46.8336 63.3594 53.4861C63.3594 60.1386 68.7278 65.5316 75.3501 65.5316Z" fill="#FE0343"/>
</g>
<defs>
<clipPath id="clip0_1212_3662">
<rect width="560" height="106" fill="white" transform="translate(0.554688 0.941895)"/>
</clipPath>
</defs>
</svg>
