<svg width="32" height="32" viewBox="0 0 32 32" fill="none" xmlns="http://www.w3.org/2000/svg">
<mask id="mask0_2479_2471" style="mask-type:alpha" maskUnits="userSpaceOnUse" x="2" y="0" width="28" height="32">
<path d="M15.5 0.288675C15.8094 0.110043 16.1906 0.110042 16.5 0.288675L29.3564 7.71132C29.6658 7.88996 29.8564 8.22009 29.8564 8.57735V23.4226C29.8564 23.7799 29.6658 24.11 29.3564 24.2887L16.5 31.7113C16.1906 31.89 15.8094 31.89 15.5 31.7113L2.64359 24.2887C2.33419 24.11 2.14359 23.7799 2.14359 23.4226V8.57735C2.14359 8.22009 2.33419 7.88996 2.64359 7.71132L15.5 0.288675Z" fill="#D9D9D9"/>
</mask>
<g mask="url(#mask0_2479_2471)">
<path d="M16 16V32L2 24V8L16 16Z" fill="#1F1F1F"/>
<path d="M16 16V32L2 24V8L16 16Z" fill="url(#paint0_linear_2479_2471)"/>
<path d="M16 16V32L30 24V8L16 16Z" fill="#1F1F1F"/>
<path d="M16 16V32L30 24V8L16 16Z" fill="url(#paint1_linear_2479_2471)"/>
<path d="M2 8L16 16L30 8L16 0L2 8Z" fill="#1F1F1F"/>
<path d="M2 8L16 16L30 8L16 0L2 8Z" fill="url(#paint2_linear_2479_2471)"/>
</g>
<mask id="path-5-inside-1_2479_2471" fill="white">
<path d="M21.5 5C22.0522 5 22.4999 5.4478 22.5 6C22.5 6.1424 22.4697 6.27778 22.416 6.40039L26.6689 8.95117C27.0605 9.18608 27.2997 9.60984 27.2998 10.0664V21.9297C27.2997 22.3893 27.0568 22.815 26.6611 23.0488L16.8203 28.8643C16.3096 29.166 15.6587 29.0835 15.2393 28.6641L15.0811 28.5049C14.8374 28.2611 14.7002 27.9306 14.7002 27.5859V24.0742C14.7001 23.8254 14.5675 23.5951 14.3525 23.4697L9.34473 20.5488C8.94547 20.3159 8.70025 19.888 8.7002 19.4258V12.5742C8.70031 12.112 8.94547 11.6841 9.34473 11.4512L14.8486 8.24121C14.9916 8.15788 15.1752 8.20589 15.2588 8.34863C15.3422 8.49162 15.2942 8.6752 15.1514 8.75879L9.64746 11.9697C9.43251 12.0951 9.29992 12.3254 9.2998 12.5742V19.4258C9.29986 19.6747 9.4325 19.9048 9.64746 20.0303L14.6553 22.9512C15.0545 23.1841 15.2997 23.612 15.2998 24.0742V27.5859C15.2998 27.7715 15.3737 27.9498 15.5049 28.0811L15.6641 28.2393C15.8898 28.465 16.2397 28.5099 16.5146 28.3477L26.3564 22.5322C26.5693 22.4063 26.7001 22.177 26.7002 21.9297V10.0664C26.7001 9.82063 26.5711 9.59231 26.3604 9.46582L22.0127 6.85645C21.8625 6.94655 21.6879 7 21.5 7C20.9477 7 20.5 6.55228 20.5 6C20.5001 5.4478 20.9478 5 21.5 5ZM15.3965 3.00781C15.7652 2.79004 16.2195 2.77436 16.6025 2.96582C17.0299 3.17951 17.2997 3.61692 17.2998 4.09473V8.32715L23.1514 11.7412C23.2942 11.8247 23.3421 12.0084 23.2588 12.1514C23.1752 12.2942 22.9916 12.3422 22.8486 12.2588L17.2998 9.02148V15.5C17.2998 15.8866 17.6134 16.2002 18 16.2002H22C22.7179 16.2002 23.2997 16.7821 23.2998 17.5V19.8818C23.2998 20.3742 23.0214 20.8247 22.5811 21.0449L17.1338 23.7686C16.9857 23.8424 16.8055 23.7819 16.7314 23.6338C16.6578 23.4857 16.7182 23.3055 16.8662 23.2314L22.3135 20.5078C22.5503 20.3891 22.7002 20.1468 22.7002 19.8818V17.5C22.7001 17.1135 22.3865 16.7998 22 16.7998H18C17.282 16.7998 16.7002 16.218 16.7002 15.5V4.09473C16.7001 3.84419 16.5581 3.61498 16.334 3.50293C16.1333 3.40262 15.8954 3.41044 15.7021 3.52441L5.64355 9.46777C5.43066 9.59365 5.29998 9.82301 5.2998 10.0703V21.9336C5.2998 22.1794 5.42891 22.4077 5.63965 22.5342L8.71582 24.3799C8.89898 24.1486 9.1821 24 9.5 24C10.0522 24 10.4999 24.4478 10.5 25C10.5 25.2487 10.4081 25.4754 10.2578 25.6504C10.2572 25.6515 10.2575 25.6532 10.2568 25.6543C10.2303 25.6985 10.1928 25.7314 10.1514 25.7559C9.97618 25.907 9.74953 26 9.5 26C8.94772 26 8.5 25.5523 8.5 25C8.5 24.9833 8.50114 24.9667 8.50195 24.9502L5.33105 23.0488C4.93954 22.8139 4.7002 22.3902 4.7002 21.9336V10.0703C4.70037 9.61075 4.9432 9.18498 5.33887 8.95117L15.3965 3.00781Z"/>
</mask>
<path d="M21.5 5C22.0522 5 22.4999 5.4478 22.5 6C22.5 6.1424 22.4697 6.27778 22.416 6.40039L26.6689 8.95117C27.0605 9.18608 27.2997 9.60984 27.2998 10.0664V21.9297C27.2997 22.3893 27.0568 22.815 26.6611 23.0488L16.8203 28.8643C16.3096 29.166 15.6587 29.0835 15.2393 28.6641L15.0811 28.5049C14.8374 28.2611 14.7002 27.9306 14.7002 27.5859V24.0742C14.7001 23.8254 14.5675 23.5951 14.3525 23.4697L9.34473 20.5488C8.94547 20.3159 8.70025 19.888 8.7002 19.4258V12.5742C8.70031 12.112 8.94547 11.6841 9.34473 11.4512L14.8486 8.24121C14.9916 8.15788 15.1752 8.20589 15.2588 8.34863C15.3422 8.49162 15.2942 8.6752 15.1514 8.75879L9.64746 11.9697C9.43251 12.0951 9.29992 12.3254 9.2998 12.5742V19.4258C9.29986 19.6747 9.4325 19.9048 9.64746 20.0303L14.6553 22.9512C15.0545 23.1841 15.2997 23.612 15.2998 24.0742V27.5859C15.2998 27.7715 15.3737 27.9498 15.5049 28.0811L15.6641 28.2393C15.8898 28.465 16.2397 28.5099 16.5146 28.3477L26.3564 22.5322C26.5693 22.4063 26.7001 22.177 26.7002 21.9297V10.0664C26.7001 9.82063 26.5711 9.59231 26.3604 9.46582L22.0127 6.85645C21.8625 6.94655 21.6879 7 21.5 7C20.9477 7 20.5 6.55228 20.5 6C20.5001 5.4478 20.9478 5 21.5 5ZM15.3965 3.00781C15.7652 2.79004 16.2195 2.77436 16.6025 2.96582C17.0299 3.17951 17.2997 3.61692 17.2998 4.09473V8.32715L23.1514 11.7412C23.2942 11.8247 23.3421 12.0084 23.2588 12.1514C23.1752 12.2942 22.9916 12.3422 22.8486 12.2588L17.2998 9.02148V15.5C17.2998 15.8866 17.6134 16.2002 18 16.2002H22C22.7179 16.2002 23.2997 16.7821 23.2998 17.5V19.8818C23.2998 20.3742 23.0214 20.8247 22.5811 21.0449L17.1338 23.7686C16.9857 23.8424 16.8055 23.7819 16.7314 23.6338C16.6578 23.4857 16.7182 23.3055 16.8662 23.2314L22.3135 20.5078C22.5503 20.3891 22.7002 20.1468 22.7002 19.8818V17.5C22.7001 17.1135 22.3865 16.7998 22 16.7998H18C17.282 16.7998 16.7002 16.218 16.7002 15.5V4.09473C16.7001 3.84419 16.5581 3.61498 16.334 3.50293C16.1333 3.40262 15.8954 3.41044 15.7021 3.52441L5.64355 9.46777C5.43066 9.59365 5.29998 9.82301 5.2998 10.0703V21.9336C5.2998 22.1794 5.42891 22.4077 5.63965 22.5342L8.71582 24.3799C8.89898 24.1486 9.1821 24 9.5 24C10.0522 24 10.4999 24.4478 10.5 25C10.5 25.2487 10.4081 25.4754 10.2578 25.6504C10.2572 25.6515 10.2575 25.6532 10.2568 25.6543C10.2303 25.6985 10.1928 25.7314 10.1514 25.7559C9.97618 25.907 9.74953 26 9.5 26C8.94772 26 8.5 25.5523 8.5 25C8.5 24.9833 8.50114 24.9667 8.50195 24.9502L5.33105 23.0488C4.93954 22.8139 4.7002 22.3902 4.7002 21.9336V10.0703C4.70037 9.61075 4.9432 9.18498 5.33887 8.95117L15.3965 3.00781Z" fill="#1F1F1F"/>
<path d="M22.5 6H23.5V5.99982L22.5 6ZM22.416 6.40039L21.4999 5.99956L21.1473 6.8055L21.9017 7.25797L22.416 6.40039ZM26.6689 8.95117L27.1834 8.09368L27.1833 8.09359L26.6689 8.95117ZM27.2998 10.0664H28.2998V10.0663L27.2998 10.0664ZM27.2998 21.9297L28.2998 21.9299V21.9297H27.2998ZM26.6611 23.0488L27.1699 23.9097L27.1699 23.9097L26.6611 23.0488ZM16.8203 28.8643L17.329 29.7252L17.3291 29.7252L16.8203 28.8643ZM15.2393 28.6641L14.53 29.369L14.5322 29.3712L15.2393 28.6641ZM15.0811 28.5049L15.7903 27.8L15.7882 27.7978L15.0811 28.5049ZM14.7002 27.5859H13.7002V27.5861L14.7002 27.5859ZM14.7002 24.0742H15.7002V24.0737L14.7002 24.0742ZM14.3525 23.4697L14.8564 22.6059L14.8564 22.6059L14.3525 23.4697ZM9.34473 20.5488L8.84075 21.4125L8.8409 21.4126L9.34473 20.5488ZM8.7002 19.4258H7.7002V19.4259L8.7002 19.4258ZM8.7002 12.5742L7.7002 12.574V12.5742H8.7002ZM9.34473 11.4512L8.84093 10.5873L8.84081 10.5874L9.34473 11.4512ZM14.8486 8.24121L14.345 7.37728L14.3448 7.37739L14.8486 8.24121ZM15.2588 8.34863L16.1226 7.84476L16.1217 7.84332L15.2588 8.34863ZM15.1514 8.75879L15.6553 9.62255L15.6565 9.62183L15.1514 8.75879ZM9.64746 11.9697L10.1513 12.8335L10.1514 12.8335L9.64746 11.9697ZM9.2998 12.5742L8.2998 12.5737V12.5742H9.2998ZM9.2998 19.4258H8.2998V19.426L9.2998 19.4258ZM9.64746 20.0303L9.14348 20.894L9.14363 20.8941L9.64746 20.0303ZM14.6553 22.9512L15.1592 22.0874L15.1591 22.0874L14.6553 22.9512ZM15.2998 24.0742H16.2998V24.074L15.2998 24.0742ZM15.2998 27.5859H14.2998V27.5862L15.2998 27.5859ZM15.5049 28.0811L14.7976 28.788L14.8 28.7903L15.5049 28.0811ZM15.6641 28.2393L16.3712 27.5321L16.369 27.53L15.6641 28.2393ZM16.5146 28.3477L17.0228 29.2089L17.0234 29.2086L16.5146 28.3477ZM26.3564 22.5322L26.8652 23.3932L26.8655 23.393L26.3564 22.5322ZM26.7002 21.9297L27.7002 21.9301V21.9297H26.7002ZM26.7002 10.0664H27.7002V10.0661L26.7002 10.0664ZM26.3604 9.46582L26.875 8.60841L26.875 8.6084L26.3604 9.46582ZM22.0127 6.85645L22.5273 5.99902L22.0127 5.69019L21.4982 5.99897L22.0127 6.85645ZM20.5 6L19.5 5.99982V6H20.5ZM15.3965 3.00781L14.8879 2.14679L14.8877 2.14689L15.3965 3.00781ZM16.6025 2.96582L17.0498 2.07139L17.0497 2.07134L16.6025 2.96582ZM17.2998 4.09473H18.2998V4.09458L17.2998 4.09473ZM17.2998 8.32715H16.2998V8.90146L16.7959 9.19089L17.2998 8.32715ZM23.1514 11.7412L23.6562 10.878L23.6553 10.8775L23.1514 11.7412ZM23.2588 12.1514L24.122 12.6562L24.1228 12.6548L23.2588 12.1514ZM22.8486 12.2588L22.3447 13.1225L22.3448 13.1226L22.8486 12.2588ZM17.2998 9.02148L17.8037 8.15774L16.2998 7.28031V9.02148H17.2998ZM23.2998 17.5H24.2998V17.4999L23.2998 17.5ZM22.5811 21.0449L23.0283 21.9393L23.0283 21.9393L22.5811 21.0449ZM17.1338 23.7686L17.5797 24.6636L17.581 24.663L17.1338 23.7686ZM16.7314 23.6338L15.8361 24.0792L15.837 24.081L16.7314 23.6338ZM16.8662 23.2314L17.3134 24.1259L16.8662 23.2314ZM22.3135 20.5078L22.7607 21.4022L22.7614 21.4019L22.3135 20.5078ZM22.7002 17.5H23.7002V17.4997L22.7002 17.5ZM16.7002 4.09473H17.7002V4.09444L16.7002 4.09473ZM16.334 3.50293L16.7812 2.6085L16.781 2.60841L16.334 3.50293ZM15.7021 3.52441L15.1942 2.66304L15.1934 2.66347L15.7021 3.52441ZM5.64355 9.46777L5.13485 8.60683L5.1346 8.60698L5.64355 9.46777ZM5.2998 10.0703L4.2998 10.0696V10.0703H5.2998ZM5.63965 22.5342L5.1249 23.3915L5.12515 23.3917L5.63965 22.5342ZM8.71582 24.3799L8.20132 25.2374L8.9544 25.6892L9.4997 25.0008L8.71582 24.3799ZM10.5 25H11.5V24.9998L10.5 25ZM10.2578 25.6504L9.49917 24.9989L9.43963 25.0682L9.39364 25.1472L10.2578 25.6504ZM10.2568 25.6543L11.114 26.1693L11.1146 26.1683L10.2568 25.6543ZM10.1514 25.7559L9.64244 24.8951L9.56566 24.9404L9.49813 24.9987L10.1514 25.7559ZM8.5 25L7.5 24.9998V25H8.5ZM8.50195 24.9502L9.50074 24.9994L9.53024 24.4008L9.01622 24.0926L8.50195 24.9502ZM5.33105 23.0488L4.8165 23.9063L4.81679 23.9065L5.33105 23.0488ZM4.7002 10.0703L3.7002 10.0699V10.0703H4.7002ZM5.33887 8.95117L5.8476 9.8121L5.84761 9.81209L5.33887 8.95117ZM21.5 5V6V6.00018L22.5 6L23.5 5.99982C23.4998 4.89566 22.6047 4 21.5 4V5ZM22.5 6H21.5L21.4999 5.99956L22.416 6.40039L23.3322 6.80122C23.4389 6.55728 23.5 6.28578 23.5 6H22.5ZM22.416 6.40039L21.9017 7.25797L26.1546 9.80875L26.6689 8.95117L27.1833 8.09359L22.9304 5.54281L22.416 6.40039ZM26.6689 8.95117L26.1544 9.80866C26.2439 9.86235 26.2998 9.96016 26.2998 10.0665L27.2998 10.0664L28.2998 10.0663C28.2997 9.25951 27.877 8.50981 27.1834 8.09368L26.6689 8.95117ZM27.2998 10.0664H26.2998V21.9297H27.2998H28.2998V10.0664H27.2998ZM27.2998 21.9297L26.2998 21.9294C26.2998 22.0356 26.2436 22.134 26.1523 22.1879L26.6611 23.0488L27.1699 23.9097C27.8701 23.4959 28.2996 22.743 28.2998 21.9299L27.2998 21.9297ZM26.6611 23.0488L26.1524 22.1879L16.3116 28.0033L16.8203 28.8643L17.3291 29.7252L27.1699 23.9097L26.6611 23.0488ZM16.8203 28.8643L16.3117 28.0033C16.1939 28.0728 16.0433 28.0539 15.9464 27.957L15.2393 28.6641L14.5322 29.3712C15.2742 30.1132 16.4252 30.2592 17.329 29.7252L16.8203 28.8643ZM15.2393 28.6641L15.9485 27.9591L15.7903 27.8L15.0811 28.5049L14.3718 29.2098L14.53 29.369L15.2393 28.6641ZM15.0811 28.5049L15.7882 27.7978C15.7317 27.7413 15.7002 27.6649 15.7002 27.5858L14.7002 27.5859L13.7002 27.5861C13.7003 28.1963 13.943 28.781 14.3739 29.2119L15.0811 28.5049ZM14.7002 27.5859H15.7002V24.0742H14.7002H13.7002V27.5859H14.7002ZM14.7002 24.0742L15.7002 24.0737C15.6999 23.4687 15.3778 22.9101 14.8564 22.6059L14.3525 23.4697L13.8487 24.3335C13.7572 24.2801 13.7002 24.1821 13.7002 24.0747L14.7002 24.0742ZM14.3525 23.4697L14.8564 22.6059L9.84856 19.685L9.34473 20.5488L8.8409 21.4126L13.8487 24.3335L14.3525 23.4697ZM9.34473 20.5488L9.8487 19.6851C9.75722 19.6317 9.70021 19.5331 9.7002 19.4257L8.7002 19.4258L7.7002 19.4259C7.70029 20.243 8.13371 21 8.84075 21.4125L9.34473 20.5488ZM8.7002 19.4258H9.7002V12.5742H8.7002H7.7002V19.4258H8.7002ZM8.7002 12.5742L9.7002 12.5745C9.70022 12.4668 9.75737 12.3682 9.84864 12.3149L9.34473 11.4512L8.84081 10.5874C8.13358 11 7.70041 11.7572 7.7002 12.574L8.7002 12.5742ZM9.34473 11.4512L9.84852 12.315L15.3524 9.10503L14.8486 8.24121L14.3448 7.37739L8.84093 10.5873L9.34473 11.4512ZM14.8486 8.24121L15.3522 9.10514C15.0197 9.29897 14.5915 9.18812 14.3959 8.85395L15.2588 8.34863L16.1217 7.84332C15.7589 7.22366 14.9635 7.01678 14.345 7.37728L14.8486 8.24121ZM15.2588 8.34863L14.395 8.8525C14.2009 8.51982 14.312 8.09137 14.6462 7.89574L15.1514 8.75879L15.6565 9.62183C16.2764 9.25903 16.4834 8.46342 16.1226 7.84476L15.2588 8.34863ZM15.1514 8.75879L14.6475 7.89503L9.14355 11.106L9.64746 11.9697L10.1514 12.8335L15.6553 9.62255L15.1514 8.75879ZM9.64746 11.9697L9.14359 11.1059C8.62218 11.4101 8.3001 11.9687 8.2998 12.5737L9.2998 12.5742L10.2998 12.5747C10.2998 12.6821 10.2428 12.7801 10.1513 12.8335L9.64746 11.9697ZM9.2998 12.5742H8.2998V19.4258H9.2998H10.2998V12.5742H9.2998ZM9.2998 19.4258L8.2998 19.426C8.29994 20.0316 8.62243 20.59 9.14348 20.894L9.64746 20.0303L10.1514 19.1666C10.2426 19.2197 10.2998 19.3177 10.2998 19.4256L9.2998 19.4258ZM9.64746 20.0303L9.14363 20.8941L14.1514 23.815L14.6553 22.9512L15.1591 22.0874L10.1513 19.1665L9.64746 20.0303ZM14.6553 22.9512L14.1514 23.8149C14.2426 23.8682 14.2998 23.9668 14.2998 24.0745L15.2998 24.0742L16.2998 24.074C16.2996 23.2572 15.8664 22.5 15.1592 22.0874L14.6553 22.9512ZM15.2998 24.0742H14.2998V27.5859H15.2998H16.2998V24.0742H15.2998ZM15.2998 27.5859L14.2998 27.5862C14.2999 28.0367 14.479 28.4693 14.7976 28.788L15.5049 28.0811L16.2121 27.3741C16.2684 27.4304 16.2998 27.5063 16.2998 27.5857L15.2998 27.5859ZM15.5049 28.0811L14.8 28.7903L14.9591 28.9485L15.6641 28.2393L16.369 27.53L16.2098 27.3718L15.5049 28.0811ZM15.6641 28.2393L14.957 28.9464C15.5043 29.4937 16.3538 29.6037 17.0228 29.2089L16.5146 28.3477L16.0065 27.4864C16.1255 27.4162 16.2754 27.4364 16.3712 27.5322L15.6641 28.2393ZM16.5146 28.3477L17.0234 29.2086L26.8652 23.3932L26.3564 22.5322L25.8477 21.6713L16.0059 27.4867L16.5146 28.3477ZM26.3564 22.5322L26.8655 23.393C27.3828 23.087 27.6999 22.5306 27.7002 21.9301L26.7002 21.9297L25.7002 21.9292C25.7002 21.8235 25.7559 21.7256 25.8474 21.6715L26.3564 22.5322ZM26.7002 21.9297H27.7002V10.0664H26.7002H25.7002V21.9297H26.7002ZM26.7002 10.0664L27.7002 10.0661C27.7 9.46994 27.3874 8.91594 26.875 8.60841L26.3604 9.46582L25.8457 10.3232C25.7548 10.2687 25.7002 10.1713 25.7002 10.0667L26.7002 10.0664ZM26.3604 9.46582L26.875 8.6084L22.5273 5.99902L22.0127 6.85645L21.4981 7.71387L25.8457 10.3232L26.3604 9.46582ZM22.0127 6.85645L21.4982 5.99897C21.495 6.0009 21.4938 6.00105 21.495 6.00072C21.4964 6.00029 21.4985 6 21.5 6V7V8C21.8812 8 22.2324 7.89085 22.5272 7.71392L22.0127 6.85645ZM21.5 7V6H20.5H19.5C19.5 7.10457 20.3954 8 21.5 8V7ZM20.5 6L21.5 6.00018V6V5V4C20.3953 4 19.5002 4.89566 19.5 5.99982L20.5 6ZM15.3965 3.00781L15.9051 3.86883C15.9812 3.82388 16.0756 3.82041 16.1554 3.8603L16.6025 2.96582L17.0497 2.07134C16.3634 1.72831 15.5492 1.75619 14.8879 2.14679L15.3965 3.00781ZM16.6025 2.96582L16.1553 3.86025C16.2432 3.90421 16.2998 3.99498 16.2998 4.09487L17.2998 4.09473L18.2998 4.09458C18.2997 3.23886 17.8166 2.45481 17.0498 2.07139L16.6025 2.96582ZM17.2998 4.09473H16.2998V8.32715H17.2998H18.2998V4.09473H17.2998ZM17.2998 8.32715L16.7959 9.19089L22.6474 12.6049L23.1514 11.7412L23.6553 10.8775L17.8037 7.46341L17.2998 8.32715ZM23.1514 11.7412L22.6465 12.6044C22.3113 12.4083 22.2015 11.9797 22.3947 11.648L23.2588 12.1514L24.1228 12.6548C24.4827 12.0371 24.2771 11.2412 23.6562 10.878L23.1514 11.7412ZM23.2588 12.1514L22.3956 11.6465C22.5914 11.3118 23.0201 11.2011 23.3525 11.395L22.8486 12.2588L22.3448 13.1226C22.9632 13.4833 23.7591 13.2767 24.122 12.6562L23.2588 12.1514ZM22.8486 12.2588L23.3526 11.395L17.8037 8.15774L17.2998 9.02148L16.7959 9.88523L22.3447 13.1225L22.8486 12.2588ZM17.2998 9.02148H16.2998V15.5H17.2998H18.2998V9.02148H17.2998ZM17.2998 15.5H16.2998C16.2998 16.4389 17.0611 17.2002 18 17.2002V16.2002V15.2002C18.1657 15.2002 18.2998 15.3343 18.2998 15.5H17.2998ZM18 16.2002V17.2002H22V16.2002V15.2002H18V16.2002ZM22 16.2002V17.2002C22.1655 17.2002 22.2998 17.3343 22.2998 17.5001L23.2998 17.5L24.2998 17.4999C24.2996 16.2299 23.2703 15.2002 22 15.2002V16.2002ZM23.2998 17.5H22.2998V19.8818H23.2998H24.2998V17.5H23.2998ZM23.2998 19.8818H22.2998C22.2998 19.9955 22.2354 20.0997 22.1338 20.1505L22.5811 21.0449L23.0283 21.9393C23.8075 21.5497 24.2998 20.7529 24.2998 19.8818H23.2998ZM22.5811 21.0449L22.1338 20.1505L16.6866 22.8741L17.1338 23.7686L17.581 24.663L23.0283 21.9393L22.5811 21.0449ZM17.1338 23.7686L16.6878 22.8735C17.0352 22.7004 17.454 22.8428 17.6259 23.1866L16.7314 23.6338L15.837 24.081C16.157 24.7209 16.9362 24.9843 17.5797 24.6636L17.1338 23.7686ZM16.7314 23.6338L17.6268 23.1883C17.7992 23.535 17.6578 23.9537 17.3134 24.1259L16.8662 23.2314L16.419 22.337C15.7786 22.6572 15.5163 23.4364 15.8361 24.0792L16.7314 23.6338ZM16.8662 23.2314L17.3134 24.1259L22.7607 21.4022L22.3135 20.5078L21.8663 19.6134L16.419 22.337L16.8662 23.2314ZM22.3135 20.5078L22.7614 21.4019C23.3362 21.1139 23.7002 20.5258 23.7002 19.8818H22.7002H21.7002C21.7002 19.7678 21.7645 19.6644 21.8655 19.6138L22.3135 20.5078ZM22.7002 19.8818H23.7002V17.5H22.7002H21.7002V19.8818H22.7002ZM22.7002 17.5L23.7002 17.4997C23.6999 16.5614 22.9391 15.7998 22 15.7998V16.7998V17.7998C21.834 17.7998 21.7002 17.6656 21.7002 17.5003L22.7002 17.5ZM22 16.7998V15.7998H18V16.7998V17.7998H22V16.7998ZM18 16.7998V15.7998C17.8343 15.7998 17.7002 15.6657 17.7002 15.5H16.7002H15.7002C15.7002 16.7703 16.7297 17.7998 18 17.7998V16.7998ZM16.7002 15.5H17.7002V4.09473H16.7002H15.7002V15.5H16.7002ZM16.7002 4.09473L17.7002 4.09444C17.7 3.46429 17.3431 2.88948 16.7812 2.6085L16.334 3.50293L15.8868 4.39736C15.773 4.34048 15.7002 4.22408 15.7002 4.09501L16.7002 4.09473ZM16.334 3.50293L16.781 2.60841C16.2783 2.35719 15.6809 2.37601 15.1942 2.66304L15.7021 3.52441L16.2101 4.38579C16.1099 4.44487 15.9882 4.44805 15.887 4.39745L16.334 3.50293ZM15.7021 3.52441L15.1934 2.66347L5.13485 8.60683L5.64355 9.46777L6.15226 10.3287L16.2109 4.38535L15.7021 3.52441ZM5.64355 9.46777L5.1346 8.60698C4.61695 8.91304 4.30024 9.46972 4.2998 10.0696L5.2998 10.0703L6.2998 10.071C6.29973 10.1763 6.24437 10.2743 6.15251 10.3286L5.64355 9.46777ZM5.2998 10.0703H4.2998V21.9336H5.2998H6.2998V10.0703H5.2998ZM5.2998 21.9336H4.2998C4.2998 22.5303 4.6129 23.0841 5.1249 23.3915L5.63965 22.5342L6.1544 21.6768C6.24492 21.7312 6.2998 21.8285 6.2998 21.9336H5.2998ZM5.63965 22.5342L5.12515 23.3917L8.20132 25.2374L8.71582 24.3799L9.23032 23.5224L6.15414 21.6767L5.63965 22.5342ZM8.71582 24.3799L9.4997 25.0008L9.5 25V24V23C8.86289 23 8.29609 23.2992 7.93194 23.759L8.71582 24.3799ZM9.5 24V25V25.0002L10.5 25L11.5 24.9998C11.4998 23.8957 10.6047 23 9.5 23V24ZM10.5 25H9.5C9.5 25.0004 9.49997 25 9.50015 24.9991C9.50031 24.9982 9.50055 24.9974 9.50076 24.9969C9.50115 24.9958 9.501 24.9968 9.49917 24.9989L10.2578 25.6504L11.0165 26.3019C11.3138 25.9556 11.5 25.5006 11.5 25H10.5ZM10.2578 25.6504L9.39364 25.1472C9.35652 25.2109 9.3312 25.2706 9.31371 25.3206C9.29636 25.3702 9.28572 25.4132 9.27905 25.4447C9.27566 25.4608 9.27307 25.475 9.27111 25.4867C9.26916 25.4984 9.2677 25.5084 9.26667 25.516C9.26564 25.5235 9.26489 25.5295 9.26447 25.5331C9.26409 25.5362 9.26376 25.5391 9.26384 25.5384C9.26385 25.5384 9.26387 25.5382 9.2639 25.5379C9.26393 25.5376 9.26398 25.5372 9.26404 25.5367C9.26415 25.5357 9.26434 25.5341 9.26458 25.5321C9.26505 25.5283 9.26584 25.5219 9.26694 25.5141C9.26805 25.5062 9.26959 25.4959 9.27166 25.4838C9.27373 25.4718 9.27646 25.4572 9.28003 25.4408C9.28706 25.4085 9.29822 25.3649 9.31633 25.3147C9.33459 25.264 9.36086 25.204 9.39907 25.1402L10.2568 25.6543L11.1146 26.1683C11.153 26.1043 11.1794 26.044 11.1978 25.9931C11.216 25.9425 11.2272 25.8986 11.2343 25.8659C11.2379 25.8494 11.2407 25.8346 11.2428 25.8224C11.2449 25.8102 11.2465 25.7997 11.2476 25.7916C11.2487 25.7836 11.2495 25.7771 11.25 25.7731C11.2503 25.771 11.2505 25.7693 11.2506 25.7682C11.2507 25.7672 11.2508 25.7664 11.2508 25.7663C11.2509 25.7654 11.2506 25.7681 11.2503 25.7711C11.2498 25.7745 11.2491 25.7804 11.2481 25.7877C11.2471 25.7951 11.2457 25.8049 11.2438 25.8164C11.2418 25.828 11.2393 25.842 11.2359 25.8579C11.2293 25.8891 11.2188 25.9318 11.2015 25.9811C11.1841 26.0307 11.1589 26.0901 11.122 26.1536L10.2578 25.6504ZM10.2568 25.6543L9.39962 25.1393C9.47686 25.0108 9.57482 24.935 9.64244 24.8951L10.1514 25.7559L10.6603 26.6167C10.8108 26.5277 10.9837 26.3863 11.114 26.1693L10.2568 25.6543ZM10.1514 25.7559L9.49813 24.9987C9.49508 25.0013 9.49376 25.0016 9.4951 25.0011C9.4958 25.0008 9.49684 25.0005 9.49807 25.0002C9.49935 25 9.50011 25 9.5 25V26V27C10.0043 27 10.4595 26.8107 10.8046 26.513L10.1514 25.7559ZM9.5 26V25H8.5H7.5C7.5 26.1046 8.39543 27 9.5 27V26ZM8.5 25L9.5 25.0002C9.5 25.0072 9.49988 25.0127 9.49978 25.0162C9.49968 25.0197 9.49958 25.0217 9.49959 25.0215C9.49961 25.0211 9.49967 25.02 9.49988 25.0159C9.50005 25.0129 9.50041 25.0061 9.50074 24.9994L8.50195 24.9502L7.50316 24.901C7.50309 24.9025 7.50301 24.904 7.50273 24.9093C7.5025 24.9135 7.50212 24.9206 7.50175 24.9285C7.50102 24.9442 7.50001 24.9697 7.5 24.9998L8.5 25ZM8.50195 24.9502L9.01622 24.0926L5.84532 22.1912L5.33105 23.0488L4.81679 23.9065L7.98769 25.8078L8.50195 24.9502ZM5.33105 23.0488L5.84561 22.1914C5.75594 22.1376 5.7002 22.0398 5.7002 21.9336H4.7002H3.7002C3.7002 22.7407 4.12314 23.4902 4.8165 23.9063L5.33105 23.0488ZM4.7002 21.9336H5.7002V10.0703H4.7002H3.7002V21.9336H4.7002ZM4.7002 10.0703L5.7002 10.0707C5.70024 9.9643 5.75659 9.86588 5.8476 9.8121L5.33887 8.95117L4.83014 8.09025C4.12981 8.50408 3.70051 9.2572 3.7002 10.0699L4.7002 10.0703ZM5.33887 8.95117L5.84761 9.81209L15.9052 3.86873L15.3965 3.00781L14.8877 2.14689L4.83012 8.09025L5.33887 8.95117Z" fill="#1F1F1F" mask="url(#path-5-inside-1_2479_2471)"/>
<defs>
<linearGradient id="paint0_linear_2479_2471" x1="-0.500001" y1="9" x2="7.88078" y2="34.2002" gradientUnits="userSpaceOnUse">
<stop offset="0.328863" stop-color="#0ECB2D"/>
<stop offset="0.909446" stop-color="#00EAD4"/>
</linearGradient>
<linearGradient id="paint1_linear_2479_2471" x1="32.5" y1="9" x2="24.1192" y2="34.2002" gradientUnits="userSpaceOnUse">
<stop offset="0.227196" stop-color="#00EAD4"/>
<stop offset="0.837025" stop-color="#0ECB2D"/>
</linearGradient>
<linearGradient id="paint2_linear_2479_2471" x1="65.2701" y1="-0.847396" x2="5.4532" y2="6.48843" gradientUnits="userSpaceOnUse">
<stop offset="0.6525" stop-color="#0ECB2D"/>
<stop offset="1" stop-color="#00EAD4"/>
</linearGradient>
</defs>
</svg>
