<svg width="534" height="119" viewBox="0 0 534 119" fill="none" xmlns="http://www.w3.org/2000/svg">
<g clip-path="url(#clip0_82_455)">
<path d="M123.134 58.5751C123.771 92.0599 95.7267 119.467 62.2334 119.467H21.5932C11.6963 119.467 3.67526 111.446 3.67526 101.549V17.918C3.67526 8.02108 11.6963 0 21.5932 0H63.4047C96.0068 0 122.506 26.1173 123.126 58.5751H123.134Z" fill="url(#paint0_linear_82_455)"/>
<mask id="mask0_82_455" style="mask-type:luminance" maskUnits="userSpaceOnUse" x="3" y="0" width="121" height="120">
<path d="M123.134 58.5751C123.771 92.0599 95.7267 119.467 62.2334 119.467H21.5932C11.6963 119.467 3.67526 111.446 3.67526 101.549V17.918C3.67526 8.02108 11.6963 0 21.5932 0H63.4047C96.0068 0 122.506 26.1173 123.126 58.5751H123.134Z" fill="white"/>
</mask>
<g mask="url(#mask0_82_455)">
<path d="M115.215 136.893C109.418 162.985 86.1438 182.499 58.3035 182.499C26.1003 182.499 0 156.398 0 124.204C0 96.3974 19.4713 73.132 45.5292 67.3093C44.621 71.4005 44.1371 75.6445 44.1371 79.9988C44.1371 112.193 70.2375 138.302 102.441 138.302C106.829 138.302 111.098 137.827 115.206 136.902L115.215 136.893Z" fill="url(#paint1_linear_82_455)"/>
<path opacity="0.5" d="M116.598 124.204C116.598 128.567 116.123 132.802 115.206 136.893C111.098 137.818 106.829 138.294 102.441 138.294C70.246 138.294 44.1372 112.193 44.1372 79.9902C44.1372 75.6274 44.6125 71.3919 45.5292 67.3007L45.7499 67.2583C51.9206 92.8409 74.9568 111.862 102.441 111.862C106.744 111.862 110.937 111.395 114.986 110.504C116.047 114.892 116.598 119.476 116.598 124.195V124.204Z" fill="url(#paint2_linear_82_455)"/>
</g>
<path d="M93.1379 22.3575C93.0021 21.5766 92.4079 20.9824 91.627 20.8466C91.1941 20.8212 84.4802 19.9299 76.0602 22.3829C70.5261 23.9447 64.3214 27.0258 58.6515 32.6618C57.0303 34.3085 55.2818 36.2522 53.5248 38.3572C51.3943 37.8734 44.2984 36.9567 37.2535 43.9932C31.0233 50.2233 34.5798 53.8986 34.741 54.0853C35.4455 54.7898 36.549 54.7898 37.2535 54.0853C39.333 51.9803 42.7282 51.9803 44.8077 54.0853L48.5848 57.8624L47.3201 59.1271C45.2151 61.2321 45.2151 64.6018 47.3201 66.6559C49.3997 68.7609 52.7948 68.7609 54.8489 66.6559L56.1136 65.3912L59.9162 69.1938C61.9957 71.2733 61.9957 74.6685 59.9162 76.7226C59.2117 77.4271 59.2117 78.5305 59.9162 79.235C60.052 79.3962 63.7442 82.9612 69.9829 76.7226C77.0024 69.7031 76.1111 62.6326 75.6188 60.4767C77.7238 58.7197 79.693 56.9712 81.3142 55.3245C86.9841 49.6546 90.0313 43.4245 91.5931 37.9158C94.0716 29.5213 93.1549 22.8073 93.1294 22.349L93.1379 22.3575ZM80.0495 44.0017C77.274 46.7772 72.7669 46.8112 69.9574 44.0017C67.1818 41.2261 67.1818 36.6851 69.9574 33.9095C72.7669 31.134 77.274 31.1594 80.0495 33.9095C82.8251 36.719 82.8251 41.1922 80.0495 44.0017Z" fill="url(#paint3_linear_82_455)"/>
<path d="M193.075 14.107C191.666 14.0645 190.291 14.5908 189.272 15.5669C188.228 16.577 187.659 17.9859 187.702 19.4374V47.6342C182.779 41.5569 175.352 38.0514 167.526 38.1108C162.688 38.0514 157.935 39.3755 153.835 41.9303C149.795 44.4767 146.493 48.0501 144.278 52.2856C141.892 56.8436 140.687 61.9279 140.772 67.0715C140.687 72.2661 142.011 77.3928 144.592 81.9084C147.062 86.2288 150.626 89.8191 154.93 92.3061C159.395 94.8864 164.47 96.2021 169.622 96.1257C179.901 96.2784 189.45 90.8292 194.543 81.8999C197.123 77.3843 198.447 72.2661 198.363 67.063V19.4374C198.532 16.6618 196.427 14.2767 193.652 14.107C193.44 14.09 193.227 14.0985 193.024 14.107H193.075ZM185.741 77.1297C184.23 80.0411 181.955 82.4856 179.163 84.1917C173.298 87.5953 166.058 87.5953 160.192 84.1917C157.366 82.4856 155.057 80.0411 153.504 77.1297C151.84 74.0571 150.991 70.6025 151.042 67.1055C150.974 63.6 151.823 60.1369 153.504 57.0643C155.083 54.1954 157.391 51.7933 160.192 50.1127C166.058 46.709 173.298 46.709 179.163 50.1127C181.938 51.8018 184.205 54.2039 185.741 57.0643C187.388 60.1539 188.219 63.6085 188.152 67.1055C188.202 70.594 187.371 74.0486 185.741 77.1297Z" fill="#07B7FF"/>
<path d="M253.602 41.9642C249.171 39.3923 244.121 38.0767 239.003 38.1446C233.85 38.0767 228.775 39.3923 224.31 41.9642C220.007 44.4596 216.442 48.05 213.972 52.3618C211.391 56.8774 210.067 61.9956 210.152 67.1987C210.059 72.3509 211.264 77.4436 213.658 82.0016C215.873 86.2286 219.175 89.802 223.215 92.3399C231.635 97.4412 242.186 97.4412 250.597 92.3399C253.059 90.8036 255.249 88.8684 257.082 86.6191V90.5065C257.006 93.3754 259.263 95.769 262.141 95.8454C262.234 95.8454 262.319 95.8454 262.412 95.8454C265.281 95.9218 267.675 93.664 267.751 90.7866C267.751 90.6933 267.751 90.5999 267.751 90.498V67.1902C267.828 61.9956 266.503 56.8689 263.932 52.3534C261.47 48.033 257.905 44.4511 253.61 41.9557L253.602 41.9642ZM248.475 84.2594C242.61 87.6631 235.37 87.6631 229.505 84.2594C226.687 82.5618 224.378 80.1428 222.816 77.2569C219.54 70.9674 219.54 63.4725 222.816 57.1915C224.378 54.2971 226.687 51.8695 229.505 50.172C238.052 44.9349 249.231 47.6171 254.476 56.1644C254.68 56.4955 254.875 56.8435 255.062 57.1915C258.279 63.498 258.279 70.9589 255.062 77.2569C253.517 80.0919 251.251 82.4685 248.484 84.1321V84.2594H248.475Z" fill="#07B7FF"/>
<path d="M320.767 41.1324C316.794 39.0104 312.355 37.9324 307.857 38.0003C303.511 37.9409 299.224 39.0019 295.405 41.073C293.461 42.1255 291.67 43.4411 290.074 44.9774V43.8485C290.023 40.8523 287.553 38.4672 284.557 38.5266C283.208 38.552 281.917 39.0783 280.941 39.995C279.889 40.9966 279.32 42.3971 279.371 43.8485V90.4726C279.431 93.4773 281.909 95.8624 284.905 95.803C286.272 95.7776 287.579 95.2343 288.564 94.2922C289.54 93.2651 290.066 91.8901 290.023 90.4726V61.0535C289.981 58.609 290.719 56.2069 292.12 54.2038C293.58 52.1921 295.515 50.5794 297.756 49.5015C300.226 48.2962 302.951 47.685 305.701 47.7275C308.646 47.6681 311.557 48.2962 314.223 49.5439C316.709 50.7746 318.764 52.7184 320.13 55.1374C321.7 58.1337 322.464 61.4864 322.32 64.8646V90.5745C322.337 93.5537 324.773 95.9473 327.744 95.9219C329.136 95.9134 330.468 95.3616 331.461 94.394C332.488 93.3925 333.049 92.0089 333.032 90.5745V64.8052C333.193 59.7294 332.064 54.6961 329.738 50.172C327.693 46.344 324.561 43.2034 320.75 41.1324H320.767Z" fill="#07B7FF"/>
<path d="M387.295 41.8368C377.984 36.8968 366.839 36.8968 357.528 41.8368C353.258 44.2559 349.727 47.8038 347.325 52.0817C342.394 61.5118 342.394 72.7583 347.325 82.1883C349.727 86.4663 353.25 90.0142 357.528 92.4333C366.873 97.3817 378.069 97.3817 387.414 92.4333C391.675 90.0142 395.189 86.4747 397.565 82.1883C402.471 72.7498 402.471 61.5118 397.565 52.0817C395.146 47.7868 391.59 44.2474 387.286 41.8368H387.295ZM388.594 77.3333C387.091 80.1852 384.825 82.5703 382.058 84.2254C376.082 87.5697 368.8 87.5697 362.824 84.2254C360.049 82.5618 357.774 80.1767 356.246 77.3333C354.599 74.2097 353.776 70.7127 353.853 67.1817C353.785 63.6423 354.608 60.1367 356.246 56.9962C357.765 54.1188 360.04 51.7167 362.824 50.0446C368.8 46.7004 376.082 46.7004 382.058 50.0446C384.842 51.7167 387.1 54.1188 388.594 56.9962C390.206 60.1452 391.013 63.6423 390.945 67.1817C391.021 70.7127 390.215 74.2097 388.594 77.3502V77.3333Z" fill="#07B7FF"/>
<path d="M453.619 41.8368C444.308 36.8968 433.164 36.8968 423.852 41.8368C419.583 44.2559 416.052 47.8038 413.65 52.0817C411.112 56.7076 409.839 61.9107 409.949 67.1817C409.847 72.3933 411.027 77.5455 413.395 82.1883C415.543 86.3899 418.794 89.9293 422.791 92.4333C426.959 94.9542 431.763 96.2443 436.644 96.1425C441.176 96.2273 445.615 94.9287 449.393 92.4333C452.643 90.2349 455.326 87.2981 457.227 83.8605V89.0296C457.354 93.0104 456.488 96.9573 454.723 100.531C453.204 103.501 450.869 105.963 447.983 107.644C445.166 109.239 441.966 110.071 438.723 110.037C435.379 110.097 432.06 109.418 429.013 108.051C426.237 106.803 423.801 104.902 421.9 102.517C421.111 101.422 419.931 100.675 418.607 100.42C417.232 100.14 415.806 100.446 414.677 101.269C413.616 101.965 412.886 103.052 412.64 104.291C412.419 105.598 412.784 106.939 413.641 107.958C416.561 111.65 420.321 114.587 424.608 116.53C428.979 118.491 433.724 119.484 438.52 119.459C443.824 119.569 449.053 118.186 453.619 115.478C457.923 112.889 461.445 109.188 463.822 104.766C466.283 100.157 467.54 94.9966 467.472 89.7765V67.1987C467.582 61.9277 466.3 56.7161 463.763 52.0987C461.369 47.8208 457.863 44.2728 453.611 41.8368H453.619ZM448.391 84.2254C442.415 87.5697 435.133 87.5697 429.157 84.2254C426.382 82.5618 424.107 80.1767 422.579 77.3333C420.933 74.2097 420.101 70.7127 420.169 67.1817C420.109 63.6423 420.933 60.1367 422.579 56.9962C424.099 54.1188 426.373 51.7167 429.157 50.0446C435.133 46.7004 442.415 46.7004 448.391 50.0446C451.175 51.7167 453.433 54.1188 454.927 56.9962C456.539 60.1452 457.346 63.6423 457.278 67.1817C457.354 70.7042 456.548 74.2012 454.927 77.3333C453.433 80.1852 451.192 82.5703 448.442 84.2424L448.391 84.2254Z" fill="#07B7FF"/>
<path d="M530.223 52.0987C527.821 47.8123 524.307 44.2728 520.037 41.8368C510.726 36.8968 499.582 36.8968 490.27 41.8368C486.001 44.2559 482.47 47.8038 480.068 52.0817C475.136 61.5118 475.136 72.7583 480.068 82.1883C482.47 86.4663 485.992 90.0142 490.27 92.4333C499.615 97.3817 510.811 97.3817 520.156 92.4333C524.417 90.0142 527.931 86.4747 530.308 82.1883C535.214 72.7498 535.214 61.5118 530.308 52.0817L530.214 52.0987H530.223ZM521.345 77.3502C519.842 80.2022 517.576 82.5873 514.809 84.2424C508.833 87.5867 501.551 87.5867 495.575 84.2424C492.8 82.5788 490.525 80.1937 488.997 77.3502C487.35 74.2267 486.519 70.7297 486.587 67.1987C486.527 63.6592 487.35 60.1537 488.997 57.0132C490.516 54.1358 492.791 51.7337 495.575 50.0616C501.551 46.7174 508.833 46.7174 514.809 50.0616C517.593 51.7337 519.851 54.1358 521.345 57.0132C522.957 60.1622 523.764 63.6592 523.696 67.1987C523.772 70.7212 522.966 74.2182 521.345 77.3502Z" fill="#07B7FF"/>
</g>
<defs>
<linearGradient id="paint0_linear_82_455" x1="3.67526" y1="59.7379" x2="123.143" y2="59.7379" gradientUnits="userSpaceOnUse">
<stop stop-color="#5558FF"/>
<stop offset="1" stop-color="#00C0FF"/>
</linearGradient>
<linearGradient id="paint1_linear_82_455" x1="-31.2525" y1="56.0968" x2="54.0595" y2="138.294" gradientUnits="userSpaceOnUse">
<stop stop-color="#ADDCFF"/>
<stop offset="1" stop-color="white"/>
</linearGradient>
<linearGradient id="paint2_linear_82_455" x1="50.4861" y1="83.4278" x2="79.3111" y2="108.365" gradientUnits="userSpaceOnUse">
<stop stop-color="#ADDCFF"/>
<stop offset="1" stop-color="white"/>
</linearGradient>
<linearGradient id="paint3_linear_82_455" x1="47.3116" y1="66.6644" x2="92.6201" y2="21.3559" gradientUnits="userSpaceOnUse">
<stop stop-color="#ADDCFF"/>
<stop offset="0.5" stop-color="#EAF6FF"/>
<stop offset="1" stop-color="#EAF6FF"/>
</linearGradient>
<clipPath id="clip0_82_455">
<rect width="534" height="119" fill="white"/>
</clipPath>
</defs>
</svg>
