<svg width="1546" height="623" viewBox="0 0 1546 623" fill="none" xmlns="http://www.w3.org/2000/svg">
<path d="M752.549 148.097C765.838 148.097 777.493 151.443 787.563 158.135C797.608 164.826 805.136 173.696 810.094 184.719C815.077 195.742 816.661 207.803 814.896 220.823L785.124 439.001H562.733C549.34 439.001 537.608 435.654 527.537 428.963C517.466 422.271 509.938 413.427 505.007 402.378C500.075 391.355 498.544 379.294 500.413 366.274L508.518 309.832C513.042 278.323 540.036 254.93 571.868 254.93H733.757L736.498 235.073C737.244 229.665 733.042 224.843 727.582 224.843H573.821C545.812 224.843 524.304 200.022 528.289 172.298L531.768 148.097H752.549ZM1130.73 148.097C1144.01 148.097 1155.72 151.443 1165.82 158.135C1175.91 164.826 1183.52 173.696 1188.58 184.719C1193.64 195.742 1195.36 207.803 1193.69 220.823L1165.77 439.001H1088.96L1114.71 240.646C1115.8 232.268 1109.27 224.843 1100.83 224.843H975.949L947.398 439.001H870.594L909.943 148.097H1130.73ZM1481.49 148.097C1494.78 148.097 1506.51 151.442 1516.66 158.134C1526.81 164.825 1534.49 173.696 1539.63 184.719C1544.8 195.742 1546.59 207.802 1545.03 220.822L1527.61 366.274C1526.06 379.32 1521.36 391.355 1513.52 402.378C1505.68 413.401 1495.82 422.271 1483.98 428.963C1472.12 435.654 1459.5 439 1446.14 439H1296.55C1283.5 439 1271.87 435.654 1261.67 428.963C1251.47 422.271 1243.73 413.427 1238.44 402.378C1233.14 391.355 1231.33 379.294 1232.99 366.274L1251.47 220.822C1253.13 207.776 1257.98 195.742 1266.03 184.719C1274.08 173.696 1284.02 164.825 1295.83 158.134C1307.64 151.442 1320.02 148.097 1332.97 148.097H1481.49ZM258.043 0C258.713 9.56506e-06 259.383 0.0266283 260.054 0.0400391C380.321 1.12634 470.11 98.9204 460.911 219.433C451.712 339.958 347.013 437.739 226.571 438.825C225.901 438.825 225.23 438.865 224.56 438.865H1.36816C0.898841 438.865 0.442505 438.825 0 438.758L15.4873 304.312H247.57C287.717 303.949 322.608 271.36 325.679 231.181C328.736 191.014 298.82 158.412 258.727 158.05H181.503L172.076 239.911H22.9033L50.5391 0H258.043ZM594.604 322.131C588.129 322.131 582.641 326.896 581.732 333.308L579.731 347.431C578.623 355.257 584.699 362.255 592.604 362.255H714.555C717.051 362.255 719.165 360.413 719.508 357.94L723.678 327.816C724.094 324.811 721.759 322.131 718.725 322.131H594.604ZM1338.81 224.816C1332.26 224.816 1326.73 229.699 1325.91 236.204L1311.98 347.642C1311.01 355.401 1317.06 362.254 1324.88 362.254H1439.92C1446.49 362.254 1452.03 357.348 1452.82 350.823L1466.38 239.386C1467.32 231.641 1461.27 224.816 1453.47 224.816H1338.81Z" fill="url(#paint0_linear_1990_42)"/>
<path d="M1472.71 622.313C1468.76 622.313 1465.18 621.352 1461.98 619.431C1458.77 617.402 1456.16 614.786 1454.13 611.584C1452.21 608.381 1451.25 604.804 1451.25 600.854V550.888C1451.25 546.938 1452.21 543.361 1454.13 540.158C1456.16 536.956 1458.77 534.393 1461.98 532.471C1465.18 530.443 1468.76 529.429 1472.71 529.429H1524.11C1528.17 529.429 1531.8 530.443 1535 532.471C1538.21 534.393 1540.77 536.956 1542.69 540.158C1544.61 543.361 1545.57 546.938 1545.57 550.888V569.48C1545.57 578.316 1538.41 585.48 1529.57 585.48H1470.3V600.213C1470.3 601.067 1470.57 601.815 1471.1 602.455C1471.75 602.989 1472.49 603.256 1473.35 603.256H1545.57V622.313H1472.71ZM1470.3 568.024H1523.52C1525.17 568.024 1526.52 566.681 1526.52 565.024V551.529C1526.52 550.675 1526.2 549.981 1525.55 549.447C1525.02 548.806 1524.33 548.486 1523.47 548.486H1473.35C1472.49 548.486 1471.75 548.806 1471.1 549.447C1470.57 549.981 1470.3 550.675 1470.3 551.529V568.024Z" fill="url(#paint1_linear_1990_42)"/>
<path d="M1365.42 622.313C1361.47 622.313 1357.89 621.352 1354.69 619.431C1351.49 617.402 1348.87 614.786 1346.84 611.584C1344.92 608.381 1343.96 604.804 1343.96 600.854V550.888C1343.96 546.938 1344.92 543.361 1346.84 540.158C1348.87 536.956 1351.49 534.393 1354.69 532.471C1357.89 530.443 1361.47 529.429 1365.42 529.429H1438.13V548.486H1366.06C1365.21 548.486 1364.46 548.806 1363.82 549.447C1363.29 549.981 1363.02 550.675 1363.02 551.529V600.213C1363.02 601.067 1363.29 601.815 1363.82 602.455C1364.46 602.989 1365.21 603.256 1366.06 603.256H1438.29V622.313H1365.42Z" fill="url(#paint2_linear_1990_42)"/>
<path d="M1236.69 622.313V529.429H1309.71C1313.56 529.429 1317.08 530.443 1320.28 532.471C1323.59 534.393 1326.21 536.956 1328.13 540.158C1330.05 543.361 1331.01 546.938 1331.01 550.888V622.313H1311.96V551.529C1311.96 550.675 1311.64 549.981 1311 549.447C1310.46 548.806 1309.82 548.486 1309.07 548.486H1258.79C1258.04 548.486 1257.35 548.806 1256.71 549.447C1256.07 549.981 1255.74 550.675 1255.74 551.529V622.313H1236.69Z" fill="url(#paint3_linear_1990_42)"/>
<path d="M1148.51 622.313C1144.56 622.313 1140.93 621.352 1137.62 619.431C1134.42 617.402 1131.85 614.786 1129.93 611.584C1128.01 608.381 1127.05 604.804 1127.05 600.854V586.262C1127.05 575.217 1136 566.262 1147.05 566.262H1202.32V551.529C1202.32 550.675 1202 549.981 1201.36 549.447C1200.82 548.806 1200.13 548.486 1199.27 548.486H1139.05C1132.42 548.486 1127.05 543.114 1127.05 536.486V529.429H1199.92C1203.97 529.429 1207.6 530.443 1210.81 532.471C1214.01 534.393 1216.57 536.956 1218.49 540.158C1220.41 543.361 1221.37 546.938 1221.37 550.888V622.313H1148.51ZM1149.15 603.256H1202.32V583.718H1149.11C1147.45 583.718 1146.11 585.061 1146.11 586.718V600.213C1146.11 601.067 1146.37 601.815 1146.91 602.455C1147.55 602.989 1148.29 603.256 1149.15 603.256Z" fill="url(#paint4_linear_1990_42)"/>
<path d="M1015.86 622.313V529.429H1088.89C1092.73 529.429 1096.25 530.443 1099.46 532.471C1102.77 534.393 1105.38 536.956 1107.3 540.158C1109.23 543.361 1110.19 546.938 1110.19 550.888V622.313H1091.13V551.529C1091.13 550.675 1090.81 549.981 1090.17 549.447C1089.64 548.806 1088.99 548.486 1088.25 548.486H1037.96C1037.21 548.486 1036.52 548.806 1035.88 549.447C1035.24 549.981 1034.92 550.675 1034.92 551.529V622.313H1015.86Z" fill="url(#paint5_linear_1990_42)"/>
<path d="M978.32 622.313V529.429H997.377V622.313H978.32ZM978.32 518.218V507.001C978.32 502.583 981.901 499.001 986.32 499.001H997.377V510.218C997.377 514.637 993.795 518.218 989.377 518.218H978.32Z" fill="url(#paint6_linear_1990_42)"/>
<path d="M910.605 622.313V520.461C910.605 516.51 911.566 512.934 913.488 509.731C915.41 506.421 917.972 503.805 921.175 501.884C924.485 499.962 928.115 499.001 932.065 499.001H966.817V506.218C966.817 512.846 961.444 518.218 954.817 518.218H932.706C931.851 518.218 931.104 518.539 930.464 519.179C929.93 519.713 929.663 520.354 929.663 521.101V529.429H966.817V536.486C966.817 543.113 961.444 548.486 954.817 548.486H929.663V622.313H910.605Z" fill="url(#paint7_linear_1990_42)"/>
<defs>
<linearGradient id="paint0_linear_1990_42" x1="766.972" y1="0" x2="766.972" y2="632.893" gradientUnits="userSpaceOnUse">
<stop stop-color="#A8F3C1"/>
<stop offset="0.696825" stop-color="#087E8A"/>
<stop offset="1" stop-color="#087E8A"/>
</linearGradient>
<linearGradient id="paint1_linear_1990_42" x1="1225.7" y1="444.5" x2="1225.7" y2="628.5" gradientUnits="userSpaceOnUse">
<stop stop-color="#A8F3C1"/>
<stop offset="1" stop-color="#087E8A"/>
</linearGradient>
<linearGradient id="paint2_linear_1990_42" x1="1225.7" y1="444.5" x2="1225.7" y2="628.5" gradientUnits="userSpaceOnUse">
<stop stop-color="#A8F3C1"/>
<stop offset="1" stop-color="#087E8A"/>
</linearGradient>
<linearGradient id="paint3_linear_1990_42" x1="1225.7" y1="444.5" x2="1225.7" y2="628.5" gradientUnits="userSpaceOnUse">
<stop stop-color="#A8F3C1"/>
<stop offset="1" stop-color="#087E8A"/>
</linearGradient>
<linearGradient id="paint4_linear_1990_42" x1="1225.7" y1="444.5" x2="1225.7" y2="628.5" gradientUnits="userSpaceOnUse">
<stop stop-color="#A8F3C1"/>
<stop offset="1" stop-color="#087E8A"/>
</linearGradient>
<linearGradient id="paint5_linear_1990_42" x1="1225.7" y1="444.5" x2="1225.7" y2="628.5" gradientUnits="userSpaceOnUse">
<stop stop-color="#A8F3C1"/>
<stop offset="1" stop-color="#087E8A"/>
</linearGradient>
<linearGradient id="paint6_linear_1990_42" x1="1225.7" y1="444.5" x2="1225.7" y2="628.5" gradientUnits="userSpaceOnUse">
<stop stop-color="#A8F3C1"/>
<stop offset="1" stop-color="#087E8A"/>
</linearGradient>
<linearGradient id="paint7_linear_1990_42" x1="1225.7" y1="444.5" x2="1225.7" y2="628.5" gradientUnits="userSpaceOnUse">
<stop stop-color="#A8F3C1"/>
<stop offset="1" stop-color="#087E8A"/>
</linearGradient>
</defs>
</svg>
