<?xml version="1.0" encoding="UTF-8"?>
<!-- Generated by Pixelmator Pro 3.6.5 -->
<svg width="296" height="240" viewBox="0 0 296 240" xmlns="http://www.w3.org/2000/svg">
    <g id="Layer-1">
        <path id="Path" fill="#4f3d90" stroke="none" d="M 148.492142 115.43103 L 148.492142 115.431793 L 148.492905 115.431412 L 148.492142 115.43103 Z"/>
        <path id="path1" fill="#4f3d90" stroke="none" d="M 148.492142 182.787964 L 148.492905 182.787582 L 148.492142 182.787018 L 148.492142 182.787964 Z"/>
        <path id="path2" fill="#032f42" stroke="none" d="M 117.970306 -0.499619 L 117.970306 101.198959 L 25.800987 58.21991 L 12.900508 85.88295 L 2.9e-05 113.544975 L 76.269623 149.109467 L 2.9e-05 184.674896 L 12.900508 212.337952 L 25.800987 240.000031 L 117.970306 197.020477 L 148.492081 182.787842 L 148.492081 182.786819 L 148.492844 182.787842 L 179.01532 168.554749 L 179.01532 163.342606 L 179.01532 134.876312 L 179.01532 129.664169 L 179.01532 101.197952 L 179.01532 -0.499619 L 117.970306 -0.499619 Z M 148.492081 115.432045 L 148.492081 115.43103 L 148.492844 115.43103 L 148.492081 115.432045 Z"/>
        <g id="Group">
            <path id="path3" fill="#ff931e" stroke="none" d="M 296.985657 113.543961 L 271.184631 58.218903 L 179.01532 101.197952 L 179.01532 163.342606 L 179.01532 168.554749 L 148.492844 182.787842 L 148.492081 182.787842 L 148.446625 182.809265 L 179.01532 197.005157 L 179.01532 197.019958 L 271.184631 239.998947 L 284.085114 212.336426 L 296.985657 184.673889 L 220.716309 149.108948 L 296.985657 113.543961 Z"/>
        </g>
        <path id="path4" fill="none" stroke="none" d="M 296.985657 113.543961 L 271.184631 58.218903 L 179.01532 101.197952 L 179.01532 163.342606 L 179.01532 168.554749 L 148.492844 182.787842 L 148.492081 182.787842 L 148.446625 182.809265 L 179.01532 197.005157 L 179.01532 197.019958 L 271.184631 239.998947 L 284.085114 212.336426 L 296.985657 184.673889 L 220.716309 149.108948 L 296.985657 113.543961 Z"/>
    </g>
</svg>
