<svg viewBox="0 0 512 113" fill="none" xmlns="http://www.w3.org/2000/svg">
<path d="M378.5 6.0271V106.027M392.819 6.0271H419.136C425.412 6.0271 430.5 11.1116 430.5 17.3837V45.1377C430.5 51.4098 425.412 56.4944 419.136 56.4944H410.838C407.821 56.4944 405.89 59.707 407.305 62.3712L430.5 106.027" stroke="white" stroke-width="5" stroke-linecap="round"/>
<path d="M502.5 106.027H460.5C454.977 106.027 450.5 101.55 450.5 96.0271V16.0271C450.5 10.5042 454.977 6.0271 460.5 6.0271H502.5M502.5 56.4944H464.912" stroke="white" stroke-width="5" stroke-linecap="round"/>
<path d="M283 106.027L324.783 6.0271M332.5 34L358.5 106.027" stroke="white" stroke-width="5" stroke-linecap="round"/>
<path d="M235.5 6.0271H289.5M262.12 21.9149V106.027" stroke="white" stroke-width="5" stroke-linecap="round"/>
<path d="M162.5 48.0467V16.0271C162.5 10.5042 166.977 6.0271 172.5 6.0271H205.5C211.023 6.0271 215.5 10.5042 215.5 16.0271V48.0467M215.5 63.946V96.0271C215.5 101.55 211.023 106.027 205.5 106.027H172.5C166.977 106.027 162.5 101.55 162.5 96.0271V63.946" stroke="white" stroke-width="5" stroke-linecap="round"/>
<path d="M66.1892 106.027H132.5C138.023 106.027 142.5 101.55 142.5 96.0271V16.0271C142.5 10.5042 138.023 6.0271 132.5 6.0271H100.189M86.5891 6.0271L46.5448 106.027M50.9451 50.8869L27.656 106.027M21.3233 78.7097L10.5 106.027" stroke="white" stroke-width="5" stroke-linecap="round"/>
</svg>
