<svg viewBox="0 0 300 95" fill="none" xmlns="http://www.w3.org/2000/svg">
<path d="M124.388 3.17606C120.769 4.04645 111.47 9.22301 103.957 14.537C99.7881 17.4688 93.3746 22.0041 89.7556 24.5694C68.7287 39.4119 52.237 46.0544 29.79 48.7572C21.59 49.7192 21.4068 49.7651 24.1096 49.8567C30.523 49.9941 46.4191 47.0623 55.8561 43.9472C69.0952 39.5952 78.6696 34.2812 100.338 19.0264C112.569 10.4141 121.273 5.42076 125.213 4.7336L126.954 4.45874L125.533 5.97048C122.831 8.94815 122.602 13.0253 124.846 17.6979C126.541 21.1795 131.535 26.0812 138.773 31.3493C143.491 34.7393 149.355 39.2745 155.081 43.8555C155.585 44.2678 155.264 43.8097 154.394 42.8477C153.523 41.8857 149.813 38.7248 146.148 35.7929C132.222 24.6611 130.893 23.5616 128.969 21.3169C125.9 17.6979 124.846 15.3158 124.846 12.0632C124.846 7.11574 127.916 4.18388 132.542 4.7336C137.444 5.28333 143.216 8.94814 166.671 26.4477C172.122 30.479 183.667 37.7628 188.843 40.4198C204.052 48.2533 215.184 49.0321 214.955 42.298C214.863 39.7784 213.352 37.4421 208.312 32.0365C205.747 29.2879 204.51 26.9974 204.968 25.8521C205.564 24.203 211.336 25.7605 218.757 29.5627C221.277 30.8454 226.728 33.6399 230.897 35.7929C245.556 43.3058 255.818 46.879 268.69 48.9863C271.714 49.4902 274.921 49.9025 275.791 49.8567C276.661 49.8567 274.737 49.3528 271.439 48.7572C255.864 46.0086 246.793 42.5729 226.087 31.4868C213.214 24.6152 210.282 23.5616 204.51 23.8823C200.891 24.0655 200.342 24.2488 194.386 27.1806C187.24 30.708 182.979 31.8991 179.681 31.1661C178.215 30.8912 177.803 30.8912 178.169 31.2577C178.902 31.9907 183.712 32.2197 186.461 31.6242C187.79 31.3493 191.5 29.8834 194.661 28.3717C197.868 26.9058 201.349 25.5314 202.357 25.3482C204.144 25.0733 204.19 25.1192 204.235 26.4477C204.281 28.3259 204.831 29.2879 208.267 33.2276C213.581 39.3203 215.092 42.7561 213.214 44.5885C209.916 47.8868 197.455 44.1304 183.025 35.4723C180.277 33.7773 177.528 31.9449 176.932 31.3035C176.337 30.708 175.65 30.2041 175.421 30.2041C174.779 30.2041 169.649 26.5851 159.433 19.0264C148.439 10.8264 141.979 6.5202 137.902 4.64198C134.925 3.26768 133.917 3.03863 130.343 2.9012C128.099 2.80957 125.396 2.94701 124.388 3.17606Z" fill="#ECECEF"/>
<path d="M29.9469 89.0939V85.0049H32.7669C33.5032 85.0049 34.1612 84.9031 34.7409 84.6994C35.3362 84.4801 35.8376 84.1746 36.2449 83.7829C36.6522 83.3756 36.9656 82.8899 37.1849 82.3259C37.4042 81.7463 37.5139 81.0961 37.5139 80.3754C37.5139 79.6234 37.4042 78.9654 37.1849 78.4014C36.9656 77.8218 36.6522 77.3439 36.2449 76.9679C35.8376 76.5763 35.3362 76.2864 34.7409 76.0984C34.1612 75.8948 33.5032 75.7929 32.7669 75.7929H29.9469V71.7039H32.5789C34.1299 71.7039 35.4851 71.9233 36.6444 72.3619C37.8194 72.8006 38.7986 73.4116 39.5819 74.1949C40.3652 74.9626 40.9527 75.8556 41.3444 76.8739C41.7361 77.8923 41.9319 78.9733 41.9319 80.1169V80.6339C41.9319 81.6836 41.7361 82.7176 41.3444 83.7359C40.9527 84.7386 40.3652 85.6473 39.5819 86.4619C38.7986 87.2609 37.8194 87.9033 36.6444 88.3889C35.4851 88.8589 34.1299 89.0939 32.5789 89.0939H29.9469ZM26.0459 89.0939V71.7039H30.4169V89.0939H26.0459Z" fill="#ECECEF"/>
<path d="M51.6684 89.4699C50.0234 89.4699 48.6291 89.1644 47.4854 88.5534C46.3574 87.9424 45.4958 87.0808 44.9004 85.9684C44.3051 84.8404 44.0074 83.5088 44.0074 81.9734V71.8449H48.3784V82.0674C48.3784 82.7411 48.5038 83.3286 48.7544 83.8299C49.0208 84.3313 49.3968 84.7151 49.8824 84.9814C50.3681 85.2478 50.9634 85.3809 51.6684 85.3809C52.3734 85.3809 52.9688 85.2478 53.4544 84.9814C53.9401 84.7151 54.3083 84.3391 54.5589 83.8534C54.8096 83.3521 54.9349 82.7568 54.9349 82.0674V71.8449H59.3059V81.9734C59.3059 83.5088 59.0083 84.8404 58.4129 85.9684C57.8333 87.0808 56.9716 87.9424 55.8279 88.5534C54.6999 89.1644 53.3134 89.4699 51.6684 89.4699Z" fill="#ECECEF"/>
<path d="M62.4663 88.9999V71.8449H69.6338L75.3443 85.5219H76.1668L75.6968 85.9449V71.8449H79.7858V88.9999H72.5713L66.8608 75.3229H66.0383L66.5083 74.8999V88.9999H62.4663Z" fill="#ECECEF"/>
<path d="M83.2583 88.9999V71.8449H87.4883V88.9999H83.2583ZM87.0183 88.9999V85.4279H94.2563V88.9999H87.0183ZM87.0183 82.0674V78.4954H93.7628V82.0674H87.0183ZM87.0183 75.4169V71.8449H94.1153V75.4169H87.0183Z" fill="#ECECEF"/>
<path d="M103.275 88.9999V71.8449H104.544V88.9999H103.275Z" fill="#ECECEF"/>
<path d="M110.319 88.9999V71.8449H112.528L122.586 87.8484H123.338L122.868 88.1774V71.8449H124.113V88.9999H121.881L111.823 72.9964H111.071L111.541 72.6674V88.9999H110.319Z" fill="#ECECEF"/>
<path d="M129.849 88.9999V71.8449H132.058L142.116 87.8484H142.868L142.398 88.1774V71.8449H143.643V88.9999H141.411L131.353 72.9964H130.601L131.071 72.6674V88.9999H129.849Z" fill="#ECECEF"/>
<path d="M156.757 89.3994C155.316 89.3994 154.047 89.1409 152.95 88.6239C151.869 88.0913 150.961 87.3941 150.224 86.5324C149.504 85.6551 148.955 84.6994 148.579 83.6654C148.219 82.6314 148.039 81.5974 148.039 80.5634V80.1874C148.039 79.1064 148.227 78.0489 148.603 77.0149C148.995 75.9809 149.559 75.0409 150.295 74.1949C151.047 73.3333 151.956 72.6518 153.021 72.1504C154.102 71.6491 155.347 71.3984 156.757 71.3984C158.152 71.3984 159.382 71.6491 160.447 72.1504C161.528 72.6518 162.437 73.3333 163.173 74.1949C163.925 75.0409 164.489 75.9809 164.865 77.0149C165.241 78.0489 165.429 79.1064 165.429 80.1874V80.5634C165.429 81.5974 165.241 82.6314 164.865 83.6654C164.505 84.6994 163.964 85.6551 163.243 86.5324C162.523 87.3941 161.622 88.0913 160.541 88.6239C159.46 89.1409 158.199 89.3994 156.757 89.3994ZM156.757 88.2244C157.932 88.2244 158.974 88.0051 159.883 87.5664C160.807 87.1278 161.583 86.5403 162.209 85.8039C162.852 85.0519 163.33 84.2138 163.643 83.2894C163.972 82.3494 164.136 81.3859 164.136 80.3989C164.136 79.3649 163.964 78.3779 163.619 77.4379C163.29 76.4979 162.805 75.6676 162.162 74.9469C161.536 74.2106 160.76 73.6309 159.836 73.2079C158.927 72.7849 157.901 72.5734 156.757 72.5734C155.598 72.5734 154.556 72.7849 153.632 73.2079C152.723 73.6309 151.948 74.2106 151.305 74.9469C150.663 75.6676 150.17 76.4979 149.825 77.4379C149.496 78.3779 149.331 79.3649 149.331 80.3989C149.331 81.3859 149.496 82.3494 149.825 83.2894C150.154 84.2138 150.632 85.0519 151.258 85.8039C151.901 86.5403 152.676 87.1278 153.585 87.5664C154.509 88.0051 155.567 88.2244 156.757 88.2244Z" fill="#ECECEF"/>
<path d="M173.708 88.9999L167.41 71.8449H168.726L174.718 88.2714L173.919 87.8484H176.105L175.259 88.2714L180.922 71.8449H182.191L176.246 88.9999H173.708Z" fill="#ECECEF"/>
<path d="M182.998 88.9999L189.461 71.8449H191.999L198.673 88.9999H197.357L190.988 72.5734L191.764 72.9964H189.625L190.424 72.5734L184.267 88.9999H182.998ZM186.077 83.2189L186.523 82.0674H195.03L195.477 83.2189H186.077Z" fill="#ECECEF"/>
<path d="M204.604 88.9999V72.5969H205.873V88.9999H204.604ZM199.105 72.9964V71.8449H211.372V72.9964H199.105Z" fill="#ECECEF"/>
<path d="M214.991 88.9999V71.8449H216.26V88.9999H214.991Z" fill="#ECECEF"/>
<path d="M229.415 89.3994C227.973 89.3994 226.704 89.1409 225.608 88.6239C224.527 88.0913 223.618 87.3941 222.882 86.5324C222.161 85.6551 221.613 84.6994 221.237 83.6654C220.876 82.6314 220.696 81.5974 220.696 80.5634V80.1874C220.696 79.1064 220.884 78.0489 221.26 77.0149C221.652 75.9809 222.216 75.0409 222.952 74.1949C223.704 73.3333 224.613 72.6518 225.678 72.1504C226.759 71.6491 228.005 71.3984 229.415 71.3984C230.809 71.3984 232.039 71.6491 233.104 72.1504C234.185 72.6518 235.094 73.3333 235.83 74.1949C236.582 75.0409 237.146 75.9809 237.522 77.0149C237.898 78.0489 238.086 79.1064 238.086 80.1874V80.5634C238.086 81.5974 237.898 82.6314 237.522 83.6654C237.162 84.6994 236.621 85.6551 235.901 86.5324C235.18 87.3941 234.279 88.0913 233.198 88.6239C232.117 89.1409 230.856 89.3994 229.415 89.3994ZM229.415 88.2244C230.59 88.2244 231.632 88.0051 232.54 87.5664C233.465 87.1278 234.24 86.5403 234.867 85.8039C235.509 85.0519 235.987 84.2138 236.3 83.2894C236.629 82.3494 236.794 81.3859 236.794 80.3989C236.794 79.3649 236.621 78.3779 236.277 77.4379C235.948 76.4979 235.462 75.6676 234.82 74.9469C234.193 74.2106 233.418 73.6309 232.493 73.2079C231.585 72.7849 230.558 72.5734 229.415 72.5734C228.255 72.5734 227.214 72.7849 226.289 73.2079C225.381 73.6309 224.605 74.2106 223.963 74.9469C223.32 75.6676 222.827 76.4979 222.482 77.4379C222.153 78.3779 221.989 79.3649 221.989 80.3989C221.989 81.3859 222.153 82.3494 222.482 83.2894C222.811 84.2138 223.289 85.0519 223.916 85.8039C224.558 86.5403 225.334 87.1278 226.242 87.5664C227.167 88.0051 228.224 88.2244 229.415 88.2244Z" fill="#ECECEF"/>
<path d="M242.483 88.9999V71.8449H244.692L254.75 87.8484H255.502L255.032 88.1774V71.8449H256.278V88.9999H254.045L243.987 72.9964H243.235L243.705 72.6674V88.9999H242.483Z" fill="#ECECEF"/>
<path d="M267.418 89.3994C265.961 89.3994 264.747 89.1723 263.776 88.7179C262.804 88.2479 262.076 87.6134 261.59 86.8144C261.105 85.9998 260.862 85.0833 260.862 84.0649H262.131C262.131 84.8483 262.311 85.5533 262.671 86.1799C263.047 86.8066 263.627 87.3079 264.41 87.6839C265.194 88.0443 266.196 88.2244 267.418 88.2244C268.562 88.2244 269.518 88.0599 270.285 87.7309C271.053 87.4019 271.625 86.9554 272.001 86.3914C272.392 85.8118 272.588 85.1459 272.588 84.3939C272.588 83.4696 272.244 82.6863 271.554 82.0439C270.865 81.3859 269.815 80.9864 268.405 80.8454L266.361 80.6809C264.935 80.5556 263.807 80.1013 262.977 79.3179C262.146 78.5346 261.731 77.5084 261.731 76.2394C261.731 75.3308 261.943 74.5161 262.366 73.7954C262.789 73.0591 263.423 72.4794 264.269 72.0564C265.115 71.6178 266.157 71.3984 267.395 71.3984C268.648 71.3984 269.706 71.6334 270.567 72.1034C271.429 72.5578 272.079 73.1766 272.518 73.9599C272.972 74.7276 273.199 75.5971 273.199 76.5684H271.93C271.93 75.8634 271.774 75.2133 271.46 74.6179C271.147 74.0069 270.653 73.5134 269.98 73.1374C269.322 72.7614 268.46 72.5734 267.395 72.5734C266.361 72.5734 265.523 72.7458 264.88 73.0904C264.238 73.4194 263.76 73.8659 263.447 74.4299C263.149 74.9783 263 75.5814 263 76.2394C263 77.1794 263.298 77.9314 263.893 78.4954C264.504 79.0594 265.374 79.3963 266.502 79.5059L268.546 79.6704C269.69 79.7644 270.653 80.0308 271.437 80.4694C272.236 80.8924 272.839 81.4408 273.246 82.1144C273.654 82.7881 273.857 83.5479 273.857 84.3939C273.857 85.3496 273.607 86.2113 273.105 86.9789C272.604 87.7309 271.875 88.3263 270.92 88.7649C269.964 89.1879 268.797 89.3994 267.418 89.3994Z" fill="#ECECEF"/>
</svg>
