<?xml version="1.0" encoding="UTF-8"?>
<!-- Generated by Pixelmator Pro 3.5.6 -->
<svg width="696" height="173" viewBox="0 0 696 173" xmlns="http://www.w3.org/2000/svg">
    <path id="Path" fill="#002936" stroke="none" d="M 656.400024 109.5 C 652.900024 109.5 649.599976 108.600006 646.700012 107 C 643.799988 105.299988 641.5 102.899994 639.799988 99.899994 C 638.099976 96.799988 637.299988 93.299988 637.299988 89.299988 C 637.299988 85.399994 638.200012 81.799988 639.799988 78.700012 C 641.5 75.600006 643.700012 73.299988 646.700012 71.600006 C 649.599976 69.899994 652.799988 69.100006 656.400024 69.100006 C 659.900024 69.100006 663.200012 70 666.099976 71.600006 C 669 73.299988 671.299988 75.700012 673 78.700012 C 674.700012 81.799988 675.5 85.299988 675.5 89.299988 C 675.5 93.299988 674.599976 96.799988 673 99.899994 C 671.400024 103 669 105.299988 666.099976 107 C 663.200012 108.700012 659.900024 109.5 656.400024 109.5 M 656.400024 126.100006 C 663.900024 126.100006 670.599976 124.5 676.599976 121.399994 C 682.5 118.299988 687.200012 113.899994 690.599976 108.200012 C 694 102.600006 695.700012 96.299988 695.700012 89.299988 C 695.700012 82.299988 694 76 690.599976 70.399994 C 687.200012 64.799988 682.5 60.399994 676.599976 57.200012 C 670.700012 54.100006 663.900024 52.5 656.400024 52.5 C 648.900024 52.5 642.200012 54.100006 636.200012 57.200012 C 630.200012 60.299988 625.599976 64.700012 622.200012 70.399994 C 618.799988 76 617.099976 82.299988 617.099976 89.299988 C 617.099976 96.299988 618.799988 102.600006 622.200012 108.200012 C 625.599976 113.799988 630.299988 118.200012 636.200012 121.399994 C 642.200012 124.5 648.900024 126.100006 656.400024 126.100006 M 584.599976 107.200012 C 581.299988 108.700012 577.700012 109.5 573.799988 109.5 C 569.900024 109.5 566.5 108.600006 563.400024 106.899994 C 560.400024 105.200012 558 102.799988 556.299988 99.799988 C 554.599976 96.700012 553.799988 93.299988 553.799988 89.299988 C 553.799988 83.200012 555.700012 78.299988 559.299988 74.600006 C 563 70.899994 567.900024 69.100006 573.900024 69.100006 C 580.599976 69.100006 586.299988 71.700012 591.099976 77 L 603.900024 65.5 C 600.400024 61.299988 596 58.200012 590.700012 55.899994 C 585.400024 53.700012 579.5 52.600006 572.900024 52.600006 C 565.400024 52.600006 558.599976 54.100006 552.599976 57.299988 C 546.599976 60.399994 541.900024 64.799988 538.599976 70.399994 C 535.299988 76 533.5 82.399994 533.5 89.399994 C 533.5 96.5 535.200012 102.799988 538.599976 108.399994 C 541.900024 114 546.599976 118.399994 552.599976 121.5 C 558.5 124.600006 565.200012 126.200012 572.599976 126.200012 C 577.900024 126.200012 583.099976 125.399994 588.400024 123.899994 C 593.700012 122.399994 598.299988 120.200012 602.400024 117.200012 L 602.400024 87.899994 L 584.700012 87.899994 L 584.700012 107.200012 L 584.599976 107.200012 Z M 499.700012 80.100006 C 499.700012 83.399994 498.599976 86 496.599976 87.700012 C 494.5 89.5 491.400024 90.399994 487.299988 90.399994 L 476.200012 90.399994 L 476.200012 69.700012 L 487.299988 69.700012 C 491.400024 69.700012 494.5 70.600006 496.599976 72.399994 C 498.700012 74.200012 499.700012 76.799988 499.700012 80.100006 M 499.900024 124.700012 L 521.299988 124.700012 L 506.099976 102.5 C 510.599976 100.399994 514 97.399994 516.400024 93.5 C 518.799988 89.700012 520 85.200012 520 80.100006 C 520 74.799988 518.700012 70.100006 516.200012 66.200012 C 513.700012 62.299988 510 59.299988 505.299988 57.100006 C 500.599976 55 495 53.899994 488.599976 53.899994 L 456.100006 53.899994 L 456.100006 124.600006 L 476.099976 124.600006 L 476.099976 105.799988 L 487 105.799988 L 499.900024 124.700012 Z M 403.299988 126.100006 C 413.799988 126.100006 422 123.200012 427.799988 117.5 C 433.600006 111.799988 436.600006 103.700012 436.600006 93.100006 L 436.600006 54 L 416.899994 54 L 416.899994 92.600006 C 416.899994 103.899994 412.399994 109.600006 403.5 109.600006 C 394.5 109.600006 390.100006 103.899994 390.100006 92.600006 L 390.100006 54 L 370.100006 54 L 370.100006 93.200012 C 370.100006 103.700012 373 111.799988 378.899994 117.600006 C 384.600006 123.200012 392.899994 126.100006 403.299988 126.100006 M 350.5 124.700012 L 350.5 54 L 334 54 L 309.799988 94.799988 L 284.899994 54 L 268.5 54 L 268.5 124.700012 L 287 124.700012 L 287 88.200012 L 305.100006 117.700012 L 313.899994 117.700012 L 332.100006 87.200012 L 332.100006 124.700012 L 350.5 124.700012 Z M 213.899994 109.200012 L 213.899994 96.200012 L 245.299988 96.200012 L 245.299988 81.200012 L 213.899994 81.200012 L 213.899994 69.299988 L 249.600006 69.299988 L 249.600006 53.799988 L 194.199997 53.799988 L 194.199997 124.5 L 251 124.5 L 251 109.100006 L 213.899994 109.100006 Z"/>
    <g id="Group">
        <g id="g1">
            <g id="g2">
                <linearGradient id="linearGradient1" x1="8.847384" y1="141.991769" x2="132.603219" y2="18.235227" gradientUnits="userSpaceOnUse">
                    <stop offset="1e-05" stop-color="#ffd363" stop-opacity="1"/>
                    <stop offset="1" stop-color="#ff1055" stop-opacity="1"/>
                </linearGradient>
                <path id="path1" fill="url(#linearGradient1)" stroke="none" d="M 135.300003 31.5 C 135.300003 40.336548 128.136551 47.5 119.300003 47.5 C 110.46344 47.5 103.300003 40.336548 103.300003 31.5 C 103.300003 22.663452 110.46344 15.5 119.300003 15.5 C 128.136551 15.5 135.300003 22.663452 135.300003 31.5 Z"/>
                <linearGradient id="linearGradient2" x1="39.310312" y1="172.98679" x2="163.066047" y2="49.230247" gradientUnits="userSpaceOnUse">
                    <stop offset="1e-05" stop-color="#ffd363" stop-opacity="1"/>
                    <stop offset="1" stop-color="#ff1055" stop-opacity="1"/>
                </linearGradient>
                <path id="path2" fill="url(#linearGradient2)" stroke="none" d="M 159.800003 67.100006 C 159.800003 75.163361 153.263351 81.700012 145.199997 81.700012 C 137.136642 81.700012 130.600006 75.163361 130.600006 67.100006 C 130.600006 59.036652 137.136642 52.5 145.199997 52.5 C 153.263351 52.5 159.800003 59.036652 159.800003 67.100006 Z"/>
                <linearGradient id="linearGradient3" x1="61.957714" y1="196.031807" x2="185.713647" y2="72.275366" gradientUnits="userSpaceOnUse">
                    <stop offset="1e-05" stop-color="#ffd363" stop-opacity="1"/>
                    <stop offset="1" stop-color="#ff1055" stop-opacity="1"/>
                </linearGradient>
                <path id="path3" fill="url(#linearGradient3)" stroke="none" d="M 158.5 112.799988 C 158.5 120.145386 152.54538 126.100006 145.199997 126.100006 C 137.854614 126.100006 131.899994 120.145386 131.899994 112.799988 C 131.899994 105.45462 137.854614 99.5 145.199997 99.5 C 152.54538 99.5 158.5 105.45462 158.5 112.799988 Z"/>
                <linearGradient id="linearGradient4" x1="66.72478" y1="200.88423" x2="190.480615" y2="77.127688" gradientUnits="userSpaceOnUse">
                    <stop offset="1e-05" stop-color="#ffd363" stop-opacity="1"/>
                    <stop offset="1" stop-color="#ff1055" stop-opacity="1"/>
                </linearGradient>
                <path id="path4" fill="url(#linearGradient4)" stroke="none" d="M 131.300003 148.299988 C 131.300003 154.927429 125.927414 160.299988 119.300003 160.299988 C 112.672577 160.299988 107.300003 154.927429 107.300003 148.299988 C 107.300003 141.672577 112.672577 136.299988 119.300003 136.299988 C 125.927414 136.299988 131.300003 141.672577 131.300003 148.299988 Z"/>
                <linearGradient id="linearGradient5" x1="52.452254" y1="186.364813" x2="176.208089" y2="62.608271" gradientUnits="userSpaceOnUse">
                    <stop offset="1e-05" stop-color="#ffd363" stop-opacity="1"/>
                    <stop offset="1" stop-color="#ff1055" stop-opacity="1"/>
                </linearGradient>
                <path id="path5" fill="url(#linearGradient5)" stroke="none" d="M 87.100006 162.299988 C 87.100006 168.154205 82.354218 172.899994 76.5 172.899994 C 70.645782 172.899994 65.900002 168.154205 65.900002 162.299988 C 65.900002 156.44577 70.645782 151.700012 76.5 151.700012 C 82.354218 151.700012 87.100006 156.44577 87.100006 162.299988 Z"/>
                <linearGradient id="linearGradient6" x1="24.372861" y1="157.795854" x2="148.128695" y2="34.039412" gradientUnits="userSpaceOnUse">
                    <stop offset="1e-05" stop-color="#ffd363" stop-opacity="1"/>
                    <stop offset="1" stop-color="#ff1055" stop-opacity="1"/>
                </linearGradient>
                <path id="path6" fill="url(#linearGradient6)" stroke="none" d="M 43.199997 148.299988 C 43.199997 153.436249 39.036247 157.600006 33.900002 157.600006 C 28.763748 157.600006 24.599998 153.436249 24.599998 148.299988 C 24.599998 143.163757 28.763748 139 33.900002 139 C 39.036247 139 43.199997 143.163757 43.199997 148.299988 Z"/>
                <linearGradient id="linearGradient7" x1="-6.090066" y1="126.800733" x2="117.665768" y2="3.044291" gradientUnits="userSpaceOnUse">
                    <stop offset="1e-05" stop-color="#ffd363" stop-opacity="1"/>
                    <stop offset="1" stop-color="#ff1055" stop-opacity="1"/>
                </linearGradient>
                <path id="path7" fill="url(#linearGradient7)" stroke="none" d="M 15.800003 112.799988 C 15.800003 117.163055 12.263046 120.700012 7.900002 120.700012 C 3.536949 120.700012 0 117.163055 0 112.799988 C 0 108.436951 3.536949 104.899994 7.900002 104.899994 C 12.263046 104.899994 15.800003 108.436951 15.800003 112.799988 Z"/>
                <linearGradient id="linearGradient8" x1="-28.737568" y1="103.755715" x2="95.018267" y2="-20.000827" gradientUnits="userSpaceOnUse">
                    <stop offset="1e-05" stop-color="#ffd363" stop-opacity="1"/>
                    <stop offset="1" stop-color="#ff1055" stop-opacity="1"/>
                </linearGradient>
                <path id="path8" fill="url(#linearGradient8)" stroke="none" d="M 14.5 67.100006 C 14.5 70.745087 11.545078 73.700012 7.900002 73.700012 C 4.254921 73.700012 1.299999 70.745087 1.299999 67.100006 C 1.299999 63.454926 4.254921 60.5 7.900002 60.5 C 11.545078 60.5 14.5 63.454926 14.5 67.100006 Z"/>
                <linearGradient id="linearGradient9" x1="-33.504534" y1="98.903292" x2="90.251299" y2="-24.85315" gradientUnits="userSpaceOnUse">
                    <stop offset="1e-05" stop-color="#ffd363" stop-opacity="1"/>
                    <stop offset="1" stop-color="#ff1055" stop-opacity="1"/>
                </linearGradient>
                <path id="path9" fill="url(#linearGradient9)" stroke="none" d="M 39.199997 31.5 C 39.199997 34.427124 36.82711 36.799988 33.900002 36.799988 C 30.972893 36.799988 28.599998 34.427124 28.599998 31.5 C 28.599998 28.572876 30.972893 26.200012 33.900002 26.200012 C 36.82711 26.200012 39.199997 28.572876 39.199997 31.5 Z"/>
            </g>
            <linearGradient id="linearGradient10" x1="-19.265521" y1="113.389317" x2="104.490414" y2="-10.367225" gradientUnits="userSpaceOnUse">
                <stop offset="1e-05" stop-color="#ffd363" stop-opacity="1"/>
                <stop offset="1" stop-color="#ff1055" stop-opacity="1"/>
            </linearGradient>
            <path id="path10" fill="url(#linearGradient10)" stroke="none" d="M 93.800003 17.600006 C 93.800003 27.154541 86.05452 34.899994 76.5 34.899994 C 66.945473 34.899994 59.199997 27.154541 59.199997 17.600006 C 59.199997 8.045471 66.945473 0.299988 76.5 0.299988 C 86.05452 0.299988 93.800003 8.045471 93.800003 17.600006 Z"/>
            <g id="g3">
                <linearGradient id="linearGradient11" x1="13.680673" y1="146.911372" x2="137.436508" y2="23.15483" gradientUnits="userSpaceOnUse">
                    <stop offset="1e-05" stop-color="#ffd363" stop-opacity="1"/>
                    <stop offset="1" stop-color="#ff1055" stop-opacity="1"/>
                </linearGradient>
                <path id="path11" fill="url(#linearGradient11)" stroke="none" d="M 107.699997 61.700012 C 107.699997 66.56012 103.760101 70.5 98.899994 70.5 C 94.039902 70.5 90.100006 66.56012 90.100006 61.700012 C 90.100006 56.839905 94.039902 52.899994 98.899994 52.899994 C 103.760101 52.899994 107.699997 56.839905 107.699997 61.700012 Z"/>
                <linearGradient id="linearGradient12" x1="30.534387" y1="164.059981" x2="154.290221" y2="40.303439" gradientUnits="userSpaceOnUse">
                    <stop offset="1e-05" stop-color="#ffd363" stop-opacity="1"/>
                    <stop offset="1" stop-color="#ff1055" stop-opacity="1"/>
                </linearGradient>
                <path id="path12" fill="url(#linearGradient12)" stroke="none" d="M 121.300003 81.399994 C 121.300003 85.873505 117.673508 89.5 113.199997 89.5 C 108.726486 89.5 105.100006 85.873505 105.100006 81.399994 C 105.100006 76.926483 108.726486 73.299988 113.199997 73.299988 C 117.673508 73.299988 121.300003 76.926483 121.300003 81.399994 Z"/>
                <linearGradient id="linearGradient13" x1="43.116579" y1="176.862504" x2="166.872413" y2="53.105962" gradientUnits="userSpaceOnUse">
                    <stop offset="1e-05" stop-color="#ffd363" stop-opacity="1"/>
                    <stop offset="1" stop-color="#ff1055" stop-opacity="1"/>
                </linearGradient>
                <path id="path13" fill="url(#linearGradient13)" stroke="none" d="M 120.5 106.799988 C 120.5 110.831665 117.231674 114.100006 113.199997 114.100006 C 109.16832 114.100006 105.899994 110.831665 105.899994 106.799988 C 105.899994 102.768311 109.16832 99.5 113.199997 99.5 C 117.231674 99.5 120.5 102.768311 120.5 106.799988 Z"/>
                <linearGradient id="linearGradient14" x1="45.731582" y1="179.524791" x2="169.487416" y2="55.76825" gradientUnits="userSpaceOnUse">
                    <stop offset="1e-05" stop-color="#ffd363" stop-opacity="1"/>
                    <stop offset="1" stop-color="#ff1055" stop-opacity="1"/>
                </linearGradient>
                <path id="path14" fill="url(#linearGradient14)" stroke="none" d="M 105.5 126.399994 C 105.5 130.045074 102.545074 133 98.899994 133 C 95.254913 133 92.300003 130.045074 92.300003 126.399994 C 92.300003 122.754913 95.254913 119.799988 98.899994 119.799988 C 102.545074 119.799988 105.5 122.754913 105.5 126.399994 Z"/>
                <linearGradient id="linearGradient15" x1="37.850539" y1="171.506914" x2="161.606274" y2="47.750371" gradientUnits="userSpaceOnUse">
                    <stop offset="1e-05" stop-color="#ffd363" stop-opacity="1"/>
                    <stop offset="1" stop-color="#ff1055" stop-opacity="1"/>
                </linearGradient>
                <path id="path15" fill="url(#linearGradient15)" stroke="none" d="M 81.100006 134.100006 C 81.100006 137.35849 78.458481 140 75.199997 140 C 71.941521 140 69.300003 137.35849 69.300003 134.100006 C 69.300003 130.841522 71.941521 128.200012 75.199997 128.200012 C 78.458481 128.200012 81.100006 130.841522 81.100006 134.100006 Z"/>
                <linearGradient id="linearGradient16" x1="22.254208" y1="155.63931" x2="146.010043" y2="31.882768" gradientUnits="userSpaceOnUse">
                    <stop offset="1e-05" stop-color="#ffd363" stop-opacity="1"/>
                    <stop offset="1" stop-color="#ff1055" stop-opacity="1"/>
                </linearGradient>
                <path id="path16" fill="url(#linearGradient16)" stroke="none" d="M 56.599998 126.399994 C 56.599998 129.216644 54.31665 131.5 51.5 131.5 C 48.68335 131.5 46.400002 129.216644 46.400002 126.399994 C 46.400002 123.583344 48.68335 121.299988 51.5 121.299988 C 54.31665 121.299988 56.599998 123.583344 56.599998 126.399994 Z"/>
                <linearGradient id="linearGradient17" x1="5.400495" y1="138.490701" x2="129.156329" y2="14.73416" gradientUnits="userSpaceOnUse">
                    <stop offset="1e-05" stop-color="#ffd363" stop-opacity="1"/>
                    <stop offset="1" stop-color="#ff1055" stop-opacity="1"/>
                </linearGradient>
                <path id="path17" fill="url(#linearGradient17)" stroke="none" d="M 41.5 106.799988 C 41.5 109.230042 39.530052 111.200012 37.099998 111.200012 C 34.669945 111.200012 32.699997 109.230042 32.699997 106.799988 C 32.699997 104.369934 34.669945 102.399994 37.099998 102.399994 C 39.530052 102.399994 41.5 104.369934 41.5 106.799988 Z"/>
                <linearGradient id="linearGradient18" x1="-7.181698" y1="125.688178" x2="116.574137" y2="1.931636" gradientUnits="userSpaceOnUse">
                    <stop offset="1e-05" stop-color="#ffd363" stop-opacity="1"/>
                    <stop offset="1" stop-color="#ff1055" stop-opacity="1"/>
                </linearGradient>
                <path id="path18" fill="url(#linearGradient18)" stroke="none" d="M 40.800003 81.399994 C 40.800003 83.443451 39.143456 85.100006 37.099998 85.100006 C 35.056549 85.100006 33.400002 83.443451 33.400002 81.399994 C 33.400002 79.356537 35.056549 77.700012 37.099998 77.700012 C 39.143456 77.700012 40.800003 79.356537 40.800003 81.399994 Z"/>
                <linearGradient id="linearGradient19" x1="-9.7967" y1="123.025891" x2="113.959134" y2="-0.730651" gradientUnits="userSpaceOnUse">
                    <stop offset="1e-05" stop-color="#ffd363" stop-opacity="1"/>
                    <stop offset="1" stop-color="#ff1055" stop-opacity="1"/>
                </linearGradient>
                <path id="path19" fill="url(#linearGradient19)" stroke="none" d="M 54.400002 61.700012 C 54.400002 63.301636 53.101624 64.600006 51.5 64.600006 C 49.898376 64.600006 48.599998 63.301636 48.599998 61.700012 C 48.599998 60.098389 49.898376 58.799988 51.5 58.799988 C 53.101624 58.799988 54.400002 60.098389 54.400002 61.700012 Z"/>
            </g>
            <linearGradient id="linearGradient20" x1="-1.882245" y1="131.07716" x2="121.87369" y2="7.320619" gradientUnits="userSpaceOnUse">
                <stop offset="1e-05" stop-color="#ffd363" stop-opacity="1"/>
                <stop offset="1" stop-color="#ff1055" stop-opacity="1"/>
            </linearGradient>
            <path id="path20" fill="url(#linearGradient20)" stroke="none" d="M 84.800003 54 C 84.800003 59.301941 80.501938 63.600006 75.199997 63.600006 C 69.898064 63.600006 65.599998 59.301941 65.599998 54 C 65.599998 48.698059 69.898064 44.399994 75.199997 44.399994 C 80.501938 44.399994 84.800003 48.698059 84.800003 54 Z"/>
            <g id="g4">
                <linearGradient id="linearGradient21" x1="15.997683" y1="149.270551" x2="139.753418" y2="25.513908" gradientUnits="userSpaceOnUse">
                    <stop offset="1e-05" stop-color="#ffd363" stop-opacity="1"/>
                    <stop offset="1" stop-color="#ff1055" stop-opacity="1"/>
                </linearGradient>
                <path id="path21" fill="url(#linearGradient21)" stroke="none" d="M 89.399994 79.799988 C 89.399994 82.009125 87.609146 83.799988 85.399994 83.799988 C 83.190857 83.799988 81.399994 82.009125 81.399994 79.799988 C 81.399994 77.590851 83.190857 75.799988 85.399994 75.799988 C 87.609146 75.799988 89.399994 77.590851 89.399994 79.799988 Z"/>
                <linearGradient id="linearGradient22" x1="23.613441" y1="157.019207" x2="147.369175" y2="33.262664" gradientUnits="userSpaceOnUse">
                    <stop offset="1e-05" stop-color="#ffd363" stop-opacity="1"/>
                    <stop offset="1" stop-color="#ff1055" stop-opacity="1"/>
                </linearGradient>
                <path id="path22" fill="url(#linearGradient22)" stroke="none" d="M 95.600006 88.700012 C 95.600006 90.743439 93.943451 92.399994 91.899994 92.399994 C 89.856552 92.399994 88.199997 90.743439 88.199997 88.700012 C 88.199997 86.656555 89.856552 85 91.899994 85 C 93.943451 85 95.600006 86.656555 95.600006 88.700012 Z"/>
                <linearGradient id="linearGradient23" x1="29.275291" y1="162.780461" x2="153.031126" y2="39.023919" gradientUnits="userSpaceOnUse">
                    <stop offset="1e-05" stop-color="#ffd363" stop-opacity="1"/>
                    <stop offset="1" stop-color="#ff1055" stop-opacity="1"/>
                </linearGradient>
                <path id="path23" fill="url(#linearGradient23)" stroke="none" d="M 95.199997 100.100006 C 95.199997 101.922546 93.722534 103.399994 91.899994 103.399994 C 90.077454 103.399994 88.600006 101.922546 88.600006 100.100006 C 88.600006 98.277466 90.077454 96.799988 91.899994 96.799988 C 93.722534 96.799988 95.199997 98.277466 95.199997 100.100006 Z"/>
                <linearGradient id="linearGradient24" x1="30.467058" y1="163.993492" x2="154.222892" y2="40.23705" gradientUnits="userSpaceOnUse">
                    <stop offset="1e-05" stop-color="#ffd363" stop-opacity="1"/>
                    <stop offset="1" stop-color="#ff1055" stop-opacity="1"/>
                </linearGradient>
                <path id="path24" fill="url(#linearGradient24)" stroke="none" d="M 88.399994 109 C 88.399994 110.65686 87.056854 112 85.399994 112 C 83.743149 112 82.399994 110.65686 82.399994 109 C 82.399994 107.34314 83.743149 106 85.399994 106 C 87.056854 106 88.399994 107.34314 88.399994 109 Z"/>
                <linearGradient id="linearGradient25" x1="26.923961" y1="160.388781" x2="150.679795" y2="36.632239" gradientUnits="userSpaceOnUse">
                    <stop offset="1e-05" stop-color="#ffd363" stop-opacity="1"/>
                    <stop offset="1" stop-color="#ff1055" stop-opacity="1"/>
                </linearGradient>
                <path id="path25" fill="url(#linearGradient25)" stroke="none" d="M 77.5 112.5 C 77.5 113.99118 76.291168 115.200012 74.800003 115.200012 C 73.30883 115.200012 72.099998 113.99118 72.099998 112.5 C 72.099998 111.00882 73.30883 109.799988 74.800003 109.799988 C 76.291168 109.799988 77.5 111.00882 77.5 112.5 Z"/>
                <linearGradient id="linearGradient26" x1="19.904087" y1="153.246541" x2="143.659922" y2="29.489999" gradientUnits="userSpaceOnUse">
                    <stop offset="1e-05" stop-color="#ffd363" stop-opacity="1"/>
                    <stop offset="1" stop-color="#ff1055" stop-opacity="1"/>
                </linearGradient>
                <path id="path26" fill="url(#linearGradient26)" stroke="none" d="M 66.400002 109 C 66.400002 110.270264 65.370255 111.299988 64.099998 111.299988 C 62.829742 111.299988 61.800003 110.270264 61.800003 109 C 61.800003 107.729736 62.829742 106.700012 64.099998 106.700012 C 65.370255 106.700012 66.400002 107.729736 66.400002 109 Z"/>
                <linearGradient id="linearGradient27" x1="12.288329" y1="145.497886" x2="136.044165" y2="21.741244" gradientUnits="userSpaceOnUse">
                    <stop offset="1e-05" stop-color="#ffd363" stop-opacity="1"/>
                    <stop offset="1" stop-color="#ff1055" stop-opacity="1"/>
                </linearGradient>
                <path id="path27" fill="url(#linearGradient27)" stroke="none" d="M 59.599998 100.100006 C 59.599998 101.204559 58.704567 102.100006 57.599998 102.100006 C 56.49543 102.100006 55.599998 101.204559 55.599998 100.100006 C 55.599998 98.995422 56.49543 98.100006 57.599998 98.100006 C 58.704567 98.100006 59.599998 98.995422 59.599998 100.100006 Z"/>
                <linearGradient id="linearGradient28" x1="6.626379" y1="139.736631" x2="130.382214" y2="15.980089" gradientUnits="userSpaceOnUse">
                    <stop offset="1e-05" stop-color="#ffd363" stop-opacity="1"/>
                    <stop offset="1" stop-color="#ff1055" stop-opacity="1"/>
                </linearGradient>
                <path id="path28" fill="url(#linearGradient28)" stroke="none" d="M 59.300003 88.700012 C 59.300003 89.638885 58.538887 90.399994 57.599998 90.399994 C 56.661118 90.399994 55.900002 89.638885 55.900002 88.700012 C 55.900002 87.761108 56.661118 87 57.599998 87 C 58.538887 87 59.300003 87.761108 59.300003 88.700012 Z"/>
                <linearGradient id="linearGradient29" x1="5.434613" y1="138.5235" x2="129.190547" y2="14.766959" gradientUnits="userSpaceOnUse">
                    <stop offset="1e-05" stop-color="#ffd363" stop-opacity="1"/>
                    <stop offset="1" stop-color="#ff1055" stop-opacity="1"/>
                </linearGradient>
                <path id="path29" fill="url(#linearGradient29)" stroke="none" d="M 65.400002 79.799988 C 65.400002 80.517975 64.81797 81.100006 64.099998 81.100006 C 63.382027 81.100006 62.800003 80.517975 62.800003 79.799988 C 62.800003 79.082031 63.382027 78.5 64.099998 78.5 C 64.81797 78.5 65.400002 79.082031 65.400002 79.799988 Z"/>
            </g>
            <linearGradient id="linearGradient30" x1="9.011122" y1="142.161703" x2="132.766957" y2="18.405161" gradientUnits="userSpaceOnUse">
                <stop offset="1e-05" stop-color="#ffd363" stop-opacity="1"/>
                <stop offset="1" stop-color="#ff1055" stop-opacity="1"/>
            </linearGradient>
            <path id="path30" fill="url(#linearGradient30)" stroke="none" d="M 79.100006 76.399994 C 79.100006 78.774811 77.17482 80.700012 74.800003 80.700012 C 72.425179 80.700012 70.5 78.774811 70.5 76.399994 C 70.5 74.025177 72.425179 72.100006 74.800003 72.100006 C 77.17482 72.100006 79.100006 74.025177 79.100006 76.399994 Z"/>
        </g>
    </g>
</svg>
