<?xml version="1.0" encoding="UTF-8"?>
<!-- Generated by Pixelmator Pro 3.5.6 -->
<svg width="800" height="600" viewBox="0 0 800 600" xmlns="http://www.w3.org/2000/svg">
    <path id="Path" fill="#002936" stroke="none" d="M 708.400024 322.5 C 704.900024 322.5 701.599976 321.600006 698.700012 320 C 695.799988 318.299988 693.5 315.899994 691.799988 312.899994 C 690.099976 309.799988 689.299988 306.299988 689.299988 302.299988 C 689.299988 298.399994 690.200012 294.799988 691.799988 291.700012 C 693.5 288.600006 695.700012 286.299988 698.700012 284.600006 C 701.599976 282.899994 704.799988 282.100006 708.400024 282.100006 C 711.900024 282.100006 715.200012 283 718.099976 284.600006 C 721 286.299988 723.299988 288.700012 725 291.700012 C 726.700012 294.799988 727.5 298.299988 727.5 302.299988 C 727.5 306.299988 726.599976 309.799988 725 312.899994 C 723.400024 316 721 318.299988 718.099976 320 C 715.200012 321.700012 711.900024 322.5 708.400024 322.5 M 708.400024 339.100006 C 715.900024 339.100006 722.599976 337.5 728.599976 334.399994 C 734.5 331.299988 739.200012 326.899994 742.599976 321.200012 C 746 315.600006 747.700012 309.299988 747.700012 302.299988 C 747.700012 295.299988 746 289 742.599976 283.399994 C 739.200012 277.799988 734.5 273.399994 728.599976 270.200012 C 722.700012 267.100006 715.900024 265.5 708.400024 265.5 C 700.900024 265.5 694.200012 267.100006 688.200012 270.200012 C 682.200012 273.299988 677.599976 277.700012 674.200012 283.399994 C 670.799988 289 669.099976 295.299988 669.099976 302.299988 C 669.099976 309.299988 670.799988 315.600006 674.200012 321.200012 C 677.599976 326.799988 682.299988 331.200012 688.200012 334.399994 C 694.200012 337.5 700.900024 339.100006 708.400024 339.100006 M 636.599976 320.200012 C 633.299988 321.700012 629.700012 322.5 625.799988 322.5 C 621.900024 322.5 618.5 321.600006 615.400024 319.899994 C 612.400024 318.200012 610 315.799988 608.299988 312.799988 C 606.599976 309.700012 605.799988 306.299988 605.799988 302.299988 C 605.799988 296.200012 607.700012 291.299988 611.299988 287.600006 C 615 283.899994 619.900024 282.100006 625.900024 282.100006 C 632.599976 282.100006 638.299988 284.700012 643.099976 290 L 655.900024 278.5 C 652.400024 274.299988 648 271.200012 642.700012 268.899994 C 637.400024 266.700012 631.5 265.600006 624.900024 265.600006 C 617.400024 265.600006 610.599976 267.100006 604.599976 270.299988 C 598.599976 273.399994 593.900024 277.799988 590.599976 283.399994 C 587.299988 289 585.5 295.399994 585.5 302.399994 C 585.5 309.5 587.200012 315.799988 590.599976 321.399994 C 593.900024 327 598.599976 331.399994 604.599976 334.5 C 610.5 337.600006 617.200012 339.200012 624.599976 339.200012 C 629.900024 339.200012 635.099976 338.399994 640.400024 336.899994 C 645.700012 335.399994 650.299988 333.200012 654.400024 330.200012 L 654.400024 300.899994 L 636.700012 300.899994 L 636.700012 320.200012 L 636.599976 320.200012 Z M 551.700012 293.100006 C 551.700012 296.399994 550.599976 299 548.599976 300.700012 C 546.5 302.5 543.400024 303.399994 539.299988 303.399994 L 528.200012 303.399994 L 528.200012 282.700012 L 539.299988 282.700012 C 543.400024 282.700012 546.5 283.600006 548.599976 285.399994 C 550.700012 287.200012 551.700012 289.799988 551.700012 293.100006 M 551.900024 337.700012 L 573.299988 337.700012 L 558.099976 315.5 C 562.599976 313.399994 566 310.399994 568.400024 306.5 C 570.799988 302.700012 572 298.200012 572 293.100006 C 572 287.799988 570.700012 283.100006 568.200012 279.200012 C 565.700012 275.299988 562 272.299988 557.299988 270.100006 C 552.599976 268 547 266.899994 540.599976 266.899994 L 508.100006 266.899994 L 508.100006 337.600006 L 528.099976 337.600006 L 528.099976 318.799988 L 539 318.799988 L 551.900024 337.700012 Z M 455.299988 339.100006 C 465.799988 339.100006 474 336.200012 479.799988 330.5 C 485.600006 324.799988 488.600006 316.700012 488.600006 306.100006 L 488.600006 267 L 468.899994 267 L 468.899994 305.600006 C 468.899994 316.899994 464.399994 322.600006 455.5 322.600006 C 446.5 322.600006 442.100006 316.899994 442.100006 305.600006 L 442.100006 267 L 422.100006 267 L 422.100006 306.200012 C 422.100006 316.700012 425 324.799988 430.899994 330.600006 C 436.600006 336.200012 444.899994 339.100006 455.299988 339.100006 M 402.5 337.700012 L 402.5 267 L 386 267 L 361.799988 307.799988 L 336.899994 267 L 320.5 267 L 320.5 337.700012 L 339 337.700012 L 339 301.200012 L 357.100006 330.700012 L 365.899994 330.700012 L 384.100006 300.200012 L 384.100006 337.700012 L 402.5 337.700012 Z M 265.899994 322.200012 L 265.899994 309.200012 L 297.299988 309.200012 L 297.299988 294.200012 L 265.899994 294.200012 L 265.899994 282.299988 L 301.600006 282.299988 L 301.600006 266.799988 L 246.199997 266.799988 L 246.199997 337.5 L 303 337.5 L 303 322.100006 L 265.899994 322.100006 Z"/>
    <g id="Group">
        <g id="g1">
            <g id="g2">
                <linearGradient id="linearGradient1" x1="60.847384" y1="354.991769" x2="184.603219" y2="231.235227" gradientUnits="userSpaceOnUse">
                    <stop offset="1e-05" stop-color="#ffd363" stop-opacity="1"/>
                    <stop offset="1" stop-color="#ff1055" stop-opacity="1"/>
                </linearGradient>
                <path id="path1" fill="url(#linearGradient1)" stroke="none" d="M 187.300003 244.5 C 187.300003 253.336548 180.136551 260.5 171.300003 260.5 C 162.46344 260.5 155.300003 253.336548 155.300003 244.5 C 155.300003 235.663452 162.46344 228.5 171.300003 228.5 C 180.136551 228.5 187.300003 235.663452 187.300003 244.5 Z"/>
                <linearGradient id="linearGradient2" x1="91.310312" y1="385.98679" x2="215.066047" y2="262.230247" gradientUnits="userSpaceOnUse">
                    <stop offset="1e-05" stop-color="#ffd363" stop-opacity="1"/>
                    <stop offset="1" stop-color="#ff1055" stop-opacity="1"/>
                </linearGradient>
                <path id="path2" fill="url(#linearGradient2)" stroke="none" d="M 211.800003 280.100006 C 211.800003 288.163361 205.263351 294.700012 197.199997 294.700012 C 189.136642 294.700012 182.600006 288.163361 182.600006 280.100006 C 182.600006 272.036652 189.136642 265.5 197.199997 265.5 C 205.263351 265.5 211.800003 272.036652 211.800003 280.100006 Z"/>
                <linearGradient id="linearGradient3" x1="113.957714" y1="409.031807" x2="237.713647" y2="285.275366" gradientUnits="userSpaceOnUse">
                    <stop offset="1e-05" stop-color="#ffd363" stop-opacity="1"/>
                    <stop offset="1" stop-color="#ff1055" stop-opacity="1"/>
                </linearGradient>
                <path id="path3" fill="url(#linearGradient3)" stroke="none" d="M 210.5 325.799988 C 210.5 333.145386 204.54538 339.100006 197.199997 339.100006 C 189.854614 339.100006 183.899994 333.145386 183.899994 325.799988 C 183.899994 318.45462 189.854614 312.5 197.199997 312.5 C 204.54538 312.5 210.5 318.45462 210.5 325.799988 Z"/>
                <linearGradient id="linearGradient4" x1="118.72478" y1="413.88423" x2="242.480615" y2="290.127688" gradientUnits="userSpaceOnUse">
                    <stop offset="1e-05" stop-color="#ffd363" stop-opacity="1"/>
                    <stop offset="1" stop-color="#ff1055" stop-opacity="1"/>
                </linearGradient>
                <path id="path4" fill="url(#linearGradient4)" stroke="none" d="M 183.300003 361.299988 C 183.300003 367.927429 177.927414 373.299988 171.300003 373.299988 C 164.672577 373.299988 159.300003 367.927429 159.300003 361.299988 C 159.300003 354.672577 164.672577 349.299988 171.300003 349.299988 C 177.927414 349.299988 183.300003 354.672577 183.300003 361.299988 Z"/>
                <linearGradient id="linearGradient5" x1="104.452254" y1="399.364813" x2="228.208089" y2="275.608271" gradientUnits="userSpaceOnUse">
                    <stop offset="1e-05" stop-color="#ffd363" stop-opacity="1"/>
                    <stop offset="1" stop-color="#ff1055" stop-opacity="1"/>
                </linearGradient>
                <path id="path5" fill="url(#linearGradient5)" stroke="none" d="M 139.100006 375.299988 C 139.100006 381.154205 134.354218 385.899994 128.5 385.899994 C 122.645782 385.899994 117.900002 381.154205 117.900002 375.299988 C 117.900002 369.44577 122.645782 364.700012 128.5 364.700012 C 134.354218 364.700012 139.100006 369.44577 139.100006 375.299988 Z"/>
                <linearGradient id="linearGradient6" x1="76.372861" y1="370.795854" x2="200.128695" y2="247.039412" gradientUnits="userSpaceOnUse">
                    <stop offset="1e-05" stop-color="#ffd363" stop-opacity="1"/>
                    <stop offset="1" stop-color="#ff1055" stop-opacity="1"/>
                </linearGradient>
                <path id="path6" fill="url(#linearGradient6)" stroke="none" d="M 95.199997 361.299988 C 95.199997 366.436249 91.036247 370.600006 85.900002 370.600006 C 80.763748 370.600006 76.599998 366.436249 76.599998 361.299988 C 76.599998 356.163757 80.763748 352 85.900002 352 C 91.036247 352 95.199997 356.163757 95.199997 361.299988 Z"/>
                <linearGradient id="linearGradient7" x1="45.909934" y1="339.800733" x2="169.665768" y2="216.044291" gradientUnits="userSpaceOnUse">
                    <stop offset="1e-05" stop-color="#ffd363" stop-opacity="1"/>
                    <stop offset="1" stop-color="#ff1055" stop-opacity="1"/>
                </linearGradient>
                <path id="path7" fill="url(#linearGradient7)" stroke="none" d="M 67.800003 325.799988 C 67.800003 330.163055 64.263046 333.700012 59.900002 333.700012 C 55.536949 333.700012 52 330.163055 52 325.799988 C 52 321.436951 55.536949 317.899994 59.900002 317.899994 C 64.263046 317.899994 67.800003 321.436951 67.800003 325.799988 Z"/>
                <linearGradient id="linearGradient8" x1="23.262432" y1="316.755715" x2="147.018267" y2="192.999173" gradientUnits="userSpaceOnUse">
                    <stop offset="1e-05" stop-color="#ffd363" stop-opacity="1"/>
                    <stop offset="1" stop-color="#ff1055" stop-opacity="1"/>
                </linearGradient>
                <path id="path8" fill="url(#linearGradient8)" stroke="none" d="M 66.5 280.100006 C 66.5 283.745087 63.545078 286.700012 59.900002 286.700012 C 56.254921 286.700012 53.299999 283.745087 53.299999 280.100006 C 53.299999 276.454926 56.254921 273.5 59.900002 273.5 C 63.545078 273.5 66.5 276.454926 66.5 280.100006 Z"/>
                <linearGradient id="linearGradient9" x1="18.495466" y1="311.903292" x2="142.251299" y2="188.14685" gradientUnits="userSpaceOnUse">
                    <stop offset="1e-05" stop-color="#ffd363" stop-opacity="1"/>
                    <stop offset="1" stop-color="#ff1055" stop-opacity="1"/>
                </linearGradient>
                <path id="path9" fill="url(#linearGradient9)" stroke="none" d="M 91.199997 244.5 C 91.199997 247.427124 88.82711 249.799988 85.900002 249.799988 C 82.972893 249.799988 80.599998 247.427124 80.599998 244.5 C 80.599998 241.572876 82.972893 239.200012 85.900002 239.200012 C 88.82711 239.200012 91.199997 241.572876 91.199997 244.5 Z"/>
            </g>
            <linearGradient id="linearGradient10" x1="32.734479" y1="326.389317" x2="156.490414" y2="202.632775" gradientUnits="userSpaceOnUse">
                <stop offset="1e-05" stop-color="#ffd363" stop-opacity="1"/>
                <stop offset="1" stop-color="#ff1055" stop-opacity="1"/>
            </linearGradient>
            <path id="path10" fill="url(#linearGradient10)" stroke="none" d="M 145.800003 230.600006 C 145.800003 240.154541 138.05452 247.899994 128.5 247.899994 C 118.945473 247.899994 111.199997 240.154541 111.199997 230.600006 C 111.199997 221.045471 118.945473 213.299988 128.5 213.299988 C 138.05452 213.299988 145.800003 221.045471 145.800003 230.600006 Z"/>
            <g id="g3">
                <linearGradient id="linearGradient11" x1="65.680673" y1="359.911372" x2="189.436508" y2="236.15483" gradientUnits="userSpaceOnUse">
                    <stop offset="1e-05" stop-color="#ffd363" stop-opacity="1"/>
                    <stop offset="1" stop-color="#ff1055" stop-opacity="1"/>
                </linearGradient>
                <path id="path11" fill="url(#linearGradient11)" stroke="none" d="M 159.699997 274.700012 C 159.699997 279.56012 155.760101 283.5 150.899994 283.5 C 146.039902 283.5 142.100006 279.56012 142.100006 274.700012 C 142.100006 269.839905 146.039902 265.899994 150.899994 265.899994 C 155.760101 265.899994 159.699997 269.839905 159.699997 274.700012 Z"/>
                <linearGradient id="linearGradient12" x1="82.534387" y1="377.059981" x2="206.290221" y2="253.303439" gradientUnits="userSpaceOnUse">
                    <stop offset="1e-05" stop-color="#ffd363" stop-opacity="1"/>
                    <stop offset="1" stop-color="#ff1055" stop-opacity="1"/>
                </linearGradient>
                <path id="path12" fill="url(#linearGradient12)" stroke="none" d="M 173.300003 294.399994 C 173.300003 298.873505 169.673508 302.5 165.199997 302.5 C 160.726486 302.5 157.100006 298.873505 157.100006 294.399994 C 157.100006 289.926483 160.726486 286.299988 165.199997 286.299988 C 169.673508 286.299988 173.300003 289.926483 173.300003 294.399994 Z"/>
                <linearGradient id="linearGradient13" x1="95.116579" y1="389.862504" x2="218.872413" y2="266.105962" gradientUnits="userSpaceOnUse">
                    <stop offset="1e-05" stop-color="#ffd363" stop-opacity="1"/>
                    <stop offset="1" stop-color="#ff1055" stop-opacity="1"/>
                </linearGradient>
                <path id="path13" fill="url(#linearGradient13)" stroke="none" d="M 172.5 319.799988 C 172.5 323.831665 169.231674 327.100006 165.199997 327.100006 C 161.16832 327.100006 157.899994 323.831665 157.899994 319.799988 C 157.899994 315.768311 161.16832 312.5 165.199997 312.5 C 169.231674 312.5 172.5 315.768311 172.5 319.799988 Z"/>
                <linearGradient id="linearGradient14" x1="97.731582" y1="392.524791" x2="221.487416" y2="268.76825" gradientUnits="userSpaceOnUse">
                    <stop offset="1e-05" stop-color="#ffd363" stop-opacity="1"/>
                    <stop offset="1" stop-color="#ff1055" stop-opacity="1"/>
                </linearGradient>
                <path id="path14" fill="url(#linearGradient14)" stroke="none" d="M 157.5 339.399994 C 157.5 343.045074 154.545074 346 150.899994 346 C 147.254913 346 144.300003 343.045074 144.300003 339.399994 C 144.300003 335.754913 147.254913 332.799988 150.899994 332.799988 C 154.545074 332.799988 157.5 335.754913 157.5 339.399994 Z"/>
                <linearGradient id="linearGradient15" x1="89.850539" y1="384.506914" x2="213.606274" y2="260.750371" gradientUnits="userSpaceOnUse">
                    <stop offset="1e-05" stop-color="#ffd363" stop-opacity="1"/>
                    <stop offset="1" stop-color="#ff1055" stop-opacity="1"/>
                </linearGradient>
                <path id="path15" fill="url(#linearGradient15)" stroke="none" d="M 133.100006 347.100006 C 133.100006 350.35849 130.458481 353 127.199997 353 C 123.941521 353 121.300003 350.35849 121.300003 347.100006 C 121.300003 343.841522 123.941521 341.200012 127.199997 341.200012 C 130.458481 341.200012 133.100006 343.841522 133.100006 347.100006 Z"/>
                <linearGradient id="linearGradient16" x1="74.254208" y1="368.63931" x2="198.010043" y2="244.882768" gradientUnits="userSpaceOnUse">
                    <stop offset="1e-05" stop-color="#ffd363" stop-opacity="1"/>
                    <stop offset="1" stop-color="#ff1055" stop-opacity="1"/>
                </linearGradient>
                <path id="path16" fill="url(#linearGradient16)" stroke="none" d="M 108.599998 339.399994 C 108.599998 342.216644 106.31665 344.5 103.5 344.5 C 100.68335 344.5 98.400002 342.216644 98.400002 339.399994 C 98.400002 336.583344 100.68335 334.299988 103.5 334.299988 C 106.31665 334.299988 108.599998 336.583344 108.599998 339.399994 Z"/>
                <linearGradient id="linearGradient17" x1="57.400495" y1="351.490701" x2="181.156329" y2="227.73416" gradientUnits="userSpaceOnUse">
                    <stop offset="1e-05" stop-color="#ffd363" stop-opacity="1"/>
                    <stop offset="1" stop-color="#ff1055" stop-opacity="1"/>
                </linearGradient>
                <path id="path17" fill="url(#linearGradient17)" stroke="none" d="M 93.5 319.799988 C 93.5 322.230042 91.530052 324.200012 89.099998 324.200012 C 86.669945 324.200012 84.699997 322.230042 84.699997 319.799988 C 84.699997 317.369934 86.669945 315.399994 89.099998 315.399994 C 91.530052 315.399994 93.5 317.369934 93.5 319.799988 Z"/>
                <linearGradient id="linearGradient18" x1="44.818302" y1="338.688178" x2="168.574137" y2="214.931636" gradientUnits="userSpaceOnUse">
                    <stop offset="1e-05" stop-color="#ffd363" stop-opacity="1"/>
                    <stop offset="1" stop-color="#ff1055" stop-opacity="1"/>
                </linearGradient>
                <path id="path18" fill="url(#linearGradient18)" stroke="none" d="M 92.800003 294.399994 C 92.800003 296.443451 91.143456 298.100006 89.099998 298.100006 C 87.056549 298.100006 85.400002 296.443451 85.400002 294.399994 C 85.400002 292.356537 87.056549 290.700012 89.099998 290.700012 C 91.143456 290.700012 92.800003 292.356537 92.800003 294.399994 Z"/>
                <linearGradient id="linearGradient19" x1="42.2033" y1="336.025891" x2="165.959134" y2="212.269349" gradientUnits="userSpaceOnUse">
                    <stop offset="1e-05" stop-color="#ffd363" stop-opacity="1"/>
                    <stop offset="1" stop-color="#ff1055" stop-opacity="1"/>
                </linearGradient>
                <path id="path19" fill="url(#linearGradient19)" stroke="none" d="M 106.400002 274.700012 C 106.400002 276.301636 105.101624 277.600006 103.5 277.600006 C 101.898376 277.600006 100.599998 276.301636 100.599998 274.700012 C 100.599998 273.098389 101.898376 271.799988 103.5 271.799988 C 105.101624 271.799988 106.400002 273.098389 106.400002 274.700012 Z"/>
            </g>
            <linearGradient id="linearGradient20" x1="50.117755" y1="344.07716" x2="173.87369" y2="220.320619" gradientUnits="userSpaceOnUse">
                <stop offset="1e-05" stop-color="#ffd363" stop-opacity="1"/>
                <stop offset="1" stop-color="#ff1055" stop-opacity="1"/>
            </linearGradient>
            <path id="path20" fill="url(#linearGradient20)" stroke="none" d="M 136.800003 267 C 136.800003 272.301941 132.501938 276.600006 127.199997 276.600006 C 121.898064 276.600006 117.599998 272.301941 117.599998 267 C 117.599998 261.698059 121.898064 257.399994 127.199997 257.399994 C 132.501938 257.399994 136.800003 261.698059 136.800003 267 Z"/>
            <g id="g4">
                <linearGradient id="linearGradient21" x1="67.997683" y1="362.270551" x2="191.753418" y2="238.513908" gradientUnits="userSpaceOnUse">
                    <stop offset="1e-05" stop-color="#ffd363" stop-opacity="1"/>
                    <stop offset="1" stop-color="#ff1055" stop-opacity="1"/>
                </linearGradient>
                <path id="path21" fill="url(#linearGradient21)" stroke="none" d="M 141.399994 292.799988 C 141.399994 295.009125 139.609146 296.799988 137.399994 296.799988 C 135.190857 296.799988 133.399994 295.009125 133.399994 292.799988 C 133.399994 290.590851 135.190857 288.799988 137.399994 288.799988 C 139.609146 288.799988 141.399994 290.590851 141.399994 292.799988 Z"/>
                <linearGradient id="linearGradient22" x1="75.613441" y1="370.019207" x2="199.369175" y2="246.262664" gradientUnits="userSpaceOnUse">
                    <stop offset="1e-05" stop-color="#ffd363" stop-opacity="1"/>
                    <stop offset="1" stop-color="#ff1055" stop-opacity="1"/>
                </linearGradient>
                <path id="path22" fill="url(#linearGradient22)" stroke="none" d="M 147.600006 301.700012 C 147.600006 303.743439 145.943451 305.399994 143.899994 305.399994 C 141.856552 305.399994 140.199997 303.743439 140.199997 301.700012 C 140.199997 299.656555 141.856552 298 143.899994 298 C 145.943451 298 147.600006 299.656555 147.600006 301.700012 Z"/>
                <linearGradient id="linearGradient23" x1="81.275291" y1="375.780461" x2="205.031126" y2="252.023919" gradientUnits="userSpaceOnUse">
                    <stop offset="1e-05" stop-color="#ffd363" stop-opacity="1"/>
                    <stop offset="1" stop-color="#ff1055" stop-opacity="1"/>
                </linearGradient>
                <path id="path23" fill="url(#linearGradient23)" stroke="none" d="M 147.199997 313.100006 C 147.199997 314.922546 145.722534 316.399994 143.899994 316.399994 C 142.077454 316.399994 140.600006 314.922546 140.600006 313.100006 C 140.600006 311.277466 142.077454 309.799988 143.899994 309.799988 C 145.722534 309.799988 147.199997 311.277466 147.199997 313.100006 Z"/>
                <linearGradient id="linearGradient24" x1="82.467058" y1="376.993492" x2="206.222892" y2="253.23705" gradientUnits="userSpaceOnUse">
                    <stop offset="1e-05" stop-color="#ffd363" stop-opacity="1"/>
                    <stop offset="1" stop-color="#ff1055" stop-opacity="1"/>
                </linearGradient>
                <path id="path24" fill="url(#linearGradient24)" stroke="none" d="M 140.399994 322 C 140.399994 323.65686 139.056854 325 137.399994 325 C 135.743149 325 134.399994 323.65686 134.399994 322 C 134.399994 320.34314 135.743149 319 137.399994 319 C 139.056854 319 140.399994 320.34314 140.399994 322 Z"/>
                <linearGradient id="linearGradient25" x1="78.923961" y1="373.388781" x2="202.679795" y2="249.632239" gradientUnits="userSpaceOnUse">
                    <stop offset="1e-05" stop-color="#ffd363" stop-opacity="1"/>
                    <stop offset="1" stop-color="#ff1055" stop-opacity="1"/>
                </linearGradient>
                <path id="path25" fill="url(#linearGradient25)" stroke="none" d="M 129.5 325.5 C 129.5 326.99118 128.291168 328.200012 126.800003 328.200012 C 125.30883 328.200012 124.099998 326.99118 124.099998 325.5 C 124.099998 324.00882 125.30883 322.799988 126.800003 322.799988 C 128.291168 322.799988 129.5 324.00882 129.5 325.5 Z"/>
                <linearGradient id="linearGradient26" x1="71.904087" y1="366.246541" x2="195.659922" y2="242.489999" gradientUnits="userSpaceOnUse">
                    <stop offset="1e-05" stop-color="#ffd363" stop-opacity="1"/>
                    <stop offset="1" stop-color="#ff1055" stop-opacity="1"/>
                </linearGradient>
                <path id="path26" fill="url(#linearGradient26)" stroke="none" d="M 118.400002 322 C 118.400002 323.270264 117.370255 324.299988 116.099998 324.299988 C 114.829742 324.299988 113.800003 323.270264 113.800003 322 C 113.800003 320.729736 114.829742 319.700012 116.099998 319.700012 C 117.370255 319.700012 118.400002 320.729736 118.400002 322 Z"/>
                <linearGradient id="linearGradient27" x1="64.288329" y1="358.497886" x2="188.044165" y2="234.741244" gradientUnits="userSpaceOnUse">
                    <stop offset="1e-05" stop-color="#ffd363" stop-opacity="1"/>
                    <stop offset="1" stop-color="#ff1055" stop-opacity="1"/>
                </linearGradient>
                <path id="path27" fill="url(#linearGradient27)" stroke="none" d="M 111.599998 313.100006 C 111.599998 314.204559 110.704567 315.100006 109.599998 315.100006 C 108.49543 315.100006 107.599998 314.204559 107.599998 313.100006 C 107.599998 311.995422 108.49543 311.100006 109.599998 311.100006 C 110.704567 311.100006 111.599998 311.995422 111.599998 313.100006 Z"/>
                <linearGradient id="linearGradient28" x1="58.626379" y1="352.736631" x2="182.382214" y2="228.980089" gradientUnits="userSpaceOnUse">
                    <stop offset="1e-05" stop-color="#ffd363" stop-opacity="1"/>
                    <stop offset="1" stop-color="#ff1055" stop-opacity="1"/>
                </linearGradient>
                <path id="path28" fill="url(#linearGradient28)" stroke="none" d="M 111.300003 301.700012 C 111.300003 302.638885 110.538887 303.399994 109.599998 303.399994 C 108.661118 303.399994 107.900002 302.638885 107.900002 301.700012 C 107.900002 300.761108 108.661118 300 109.599998 300 C 110.538887 300 111.300003 300.761108 111.300003 301.700012 Z"/>
                <linearGradient id="linearGradient29" x1="57.434613" y1="351.5235" x2="181.190547" y2="227.766959" gradientUnits="userSpaceOnUse">
                    <stop offset="1e-05" stop-color="#ffd363" stop-opacity="1"/>
                    <stop offset="1" stop-color="#ff1055" stop-opacity="1"/>
                </linearGradient>
                <path id="path29" fill="url(#linearGradient29)" stroke="none" d="M 117.400002 292.799988 C 117.400002 293.517975 116.81797 294.100006 116.099998 294.100006 C 115.382027 294.100006 114.800003 293.517975 114.800003 292.799988 C 114.800003 292.082031 115.382027 291.5 116.099998 291.5 C 116.81797 291.5 117.400002 292.082031 117.400002 292.799988 Z"/>
            </g>
            <linearGradient id="linearGradient30" x1="61.011122" y1="355.161703" x2="184.766957" y2="231.405161" gradientUnits="userSpaceOnUse">
                <stop offset="1e-05" stop-color="#ffd363" stop-opacity="1"/>
                <stop offset="1" stop-color="#ff1055" stop-opacity="1"/>
            </linearGradient>
            <path id="path30" fill="url(#linearGradient30)" stroke="none" d="M 131.100006 289.399994 C 131.100006 291.774811 129.17482 293.700012 126.800003 293.700012 C 124.425179 293.700012 122.5 291.774811 122.5 289.399994 C 122.5 287.025177 124.425179 285.100006 126.800003 285.100006 C 129.17482 285.100006 131.100006 287.025177 131.100006 289.399994 Z"/>
        </g>
    </g>
</svg>
