<svg xmlns="http://www.w3.org/2000/svg" viewBox="0 0 904.53 230.31"><defs><style>.cls-1{fill:#1b9ee5;}.cls-2{fill:#50d1b3;}</style></defs><g id="Layer_2" data-name="Layer 2"><g id="Design"><path class="cls-1" d="M174.35,124.8c0,5-3.71,11-12,11H129.68v30.68h38.18v6.34a10.24,10.24,0,0,1-10.2,10.51H130.45v45.15h-8.81c-7.73,0-12.37-4-12.37-12.37V134.54c0-13.14,5.25-16.39,17.62-16.39h47.46Z"/><path class="cls-1" d="M207.75,229.23c-17.16,0-26.43-9.12-26.43-26V117.15h5.87c10.36,0,14.84,6,14.84,13.91v70.19c0,8.34,4.33,11,14.07,11h5.57v4.49C221.67,225.67,216.87,229.23,207.75,229.23Z"/><path class="cls-1" d="M263.81,230.31c-20.56,0-36.79-13.6-36.79-37.88V145h3.87c11.9,0,17.16,5.11,17.16,14.84v30.61c0,15.31,7.42,21.49,16.85,21.49,8.5,0,14.53-5.87,14.53-20.09V145h3.71c12.06,0,17.16,5.11,17.16,14.84V191C300.3,217,288.09,230.31,263.81,230.31Z"/><path class="cls-1" d="M318.62,139.1a12.21,12.21,0,0,1-12.06-12.21,12.07,12.07,0,0,1,12.06-12.06,12.21,12.21,0,0,1,12.21,12.06A12.34,12.34,0,0,1,318.62,139.1Zm14.68,90.13c-16.08,0-24.89-9.12-24.89-26V146.83h5.88c9.27,0,14.84,4.95,14.84,15.46v39c0,8.34,3.55,11,12.67,11h3.87v4.49C345.67,225.67,342.11,229.23,333.3,229.23Z"/><path class="cls-1" d="M389,230.31c-22,0-38.81-19.17-38.81-42.05,0-27.36,13.3-45.14,37.57-45.14,8.35,0,17.47,5.87,20.72,13.14V117.15h6.33c9.9,0,14.23,5.72,14.23,14.06V190C429,214.23,417.6,230.31,389,230.31Zm-1.09-69.72c-10.51,0-17.31,10.2-17.31,23.65,0,17.32,9,28.6,20.87,28.6,11.59,0,16.7-8.66,16.7-23.81C408.17,168.16,399,160.59,387.91,160.59Z"/><path class="cls-2" d="M510.41,136.24H490.93v92.22h-8.5c-7.42,0-12.83-4.8-12.83-14.23v-78H439.15v-7c0-5.1,4.17-11.59,12.83-11.59h71.11v6.65C523.09,129.44,517.37,136.24,510.41,136.24Z"/><path class="cls-2" d="M544.42,143.12c25.05,0,39.43,20.1,39.43,42.2,0,25.05-14.38,45-41.28,45-25.05,0-39.42-19.94-39.42-42.05C503.15,163.22,517.52,143.12,544.42,143.12Zm-1.85,18.55c-11.91,0-17.94,9.89-17.94,23.65,0,16.55,6,26.44,19.79,26.44,12.06,0,17.94-9.89,17.94-23.5C562.36,171.56,556.17,161.67,542.57,161.67Z"/><path class="cls-2" d="M615,130.91v49.78c12.21-16.39,18.55-23.66,25.51-30.31,4.95-4.63,9.89-5.41,16.54-5.41h11.9v.78c-5.87,4.94-25.19,26.9-33.85,37.87,6.65,8.2,13.14,16.7,20.56,24.27s11,9.13,16.08,10.83c-2.17,6.64-5.57,10.2-14.07,10.2A20.37,20.37,0,0,1,644,223.2c-10.66-11-19.94-23.35-29.06-35.56v40.82h-7.11c-9.28,0-13.76-5.11-13.76-14.69V117.15h6.65C610.78,117.15,615,122.87,615,130.91Z"/><path class="cls-2" d="M709.52,195.68H695.91c1.55,10.51,11.13,17.16,23.35,17.16,8.65,0,18.86-1.7,25.51-7.88h.77v6.49c0,10.67-7.27,18.86-30.15,18.86-20.71,0-41-16.39-41-41.9,0-27.82,17-45.29,40.82-45.29,17.31,0,33.39,12.37,33.39,32.31C748.63,190.73,737,195.68,709.52,195.68Zm3.86-35.25c-10,0-17,8.2-17.47,17.78l-.15,2.78H705c19.64,0,24.12-2.16,24.12-8C729.15,164.61,723,160.43,713.38,160.43Z"/><path class="cls-2" d="M825.65,228.46c-9.27,0-15.15-5.88-15.15-13.61V181.77c0-14.07-6.18-20.25-16.85-20.25-9,0-15.15,6.8-15.15,18.7v48.24h-6.18c-8.82,0-14.54-5.88-14.54-13.61v-36c0-17.62,11.6-35.71,37.57-35.71,19.63,0,35.87,13.14,35.87,36.79v48.55Z"/><path class="cls-2" d="M869.74,230.31c-15.3,0-26.74-7.88-26.74-16.39v-9.43h.77c4.49,4.18,15.15,7.89,25.05,7.89,10.2,0,15.15-2.94,15.15-9.12,0-4.8-2.94-7.12-17.32-9.13-17.62-2.47-26.13-9.43-26.13-22.1,0-15.62,14.07-28.91,35.41-28.91,18.86,0,26.59,9.74,26.59,17.78v7.88h-.77c-4.33-4.33-13.92-7.73-23.81-7.73-12.68,0-16.7,3.87-16.7,9.28,0,4.17,2.47,5.87,16.7,8.19,17.31,2.78,26.59,10.36,26.59,23.65C904.53,219.8,892.16,230.31,869.74,230.31Z"/><path class="cls-2" d="M84.13,77c-31,0-65,18.83-77,44C2.56,110.47,0,98.22,0,84.19,0,41.93,37.35,0,83.66,0h63.88c21.93,0,39.7,17.24,39.7,38.5S169.47,77,147.54,77Z"/><path class="cls-1" d="M79.64,190.62c0,21.92-17.24,39.69-38.5,39.69S2.63,212.54,2.63,190.62V174.24c0-46.31,41.93-83.57,84.19-83.57H136.9l-34.5,21.64a48.66,48.66,0,0,0-22.81,41.38c0,9.3,0,18.33,0,22.11Z"/></g></g></svg>