<svg xmlns="http://www.w3.org/2000/svg" width="100" height="94" viewBox="0 0 50 47" fill="none">
<path d="M23.155 21.9544L22.2261 21.0298C18.219 23.3096 13.3311 22.6228 10.0352 19.3421L8.84434 18.1568C7.78169 18.1439 6.66093 18.0732 5.75879 17.6968L8.72353 20.6478C12.7508 24.6566 18.9431 25.2314 23.5959 22.3712C23.4437 22.2363 23.2989 22.0976 23.155 21.9544Z" fill="url(#paint0_linear_0_2824)"/>
<path d="M15.2469 14.0208C14.9234 13.6969 14.5112 13.4684 14.1452 13.2131C12.1001 14.3233 9.71663 14.7193 7.47188 14.3307C5.76862 14.0356 4.1116 13.3259 2.7078 12.163C4.1116 11 5.74367 10.2821 7.44693 9.98694C9.69168 9.59741 12.0381 9.96469 14.0833 11.0749C14.6536 11.383 15.2616 11.6847 15.7718 12.1112C16.0213 12.3138 16.3272 12.4711 16.561 12.7051L17.195 13.3398L18.5091 14.6554L22.4757 18.6264L23.7612 19.9133L23.7898 19.942L24.4469 20.5998C24.6594 20.8126 24.8147 21.0837 25.0384 21.2817C25.5272 21.6971 25.9385 22.0385 26.4699 22.3697C31.1304 25.2517 37.2364 24.6392 41.2713 20.5998L44.2416 17.6263C43.3368 18.0056 42.2149 18.0759 41.1502 18.0898L39.9571 19.2842C36.6551 22.5899 31.6341 23.158 27.7434 20.9847C27.1991 20.6822 26.7499 20.4009 26.1843 19.9133L27.4698 18.6264L31.4364 14.6554C31.4206 14.6712 31.2395 14.2419 31.0186 14.0208L30.2303 13.2316L26.1566 17.3108L24.9737 18.495L23.7907 17.3108L19.8473 13.363L18.402 11.9159L19.5849 10.7317L23.6595 6.6525L22.3454 5.33691L18.2467 9.44012L16.9325 10.7558C16.6331 10.5291 16.0047 10.0369 15.4788 9.71123C13.6148 8.5612 11.5373 7.99685 9.41262 7.95427C8.43207 7.93575 7.39703 7.98386 6.43771 8.2022C4.28719 8.6861 2.19859 9.71583 0.52585 11.3895L0 11.9159L0.788316 12.7051C2.46012 14.3788 4.46743 15.4909 6.61795 15.9748C7.57721 16.1931 8.53002 16.3236 9.51056 16.3051C11.6343 16.2634 13.7405 15.6713 15.6748 14.45L15.2469 14.0208Z" fill="url(#paint1_linear_0_2824)"/>
<path fill-rule="evenodd" clip-rule="evenodd" d="M21.091 2.69642C17.3476 1.05795 12.8201 1.77037 9.76364 4.8411L8.5701 6.03931C7.88541 6.27655 6.96593 6.36333 5.98456 6.45594C5.81707 6.47175 5.64778 6.48773 5.47754 6.50465L8.44896 3.51937C12.4855 -0.535933 18.7741 -1.06722 23.4374 1.82517C23.9681 2.1577 24.5607 2.5831 25.0498 3.00015C25.5389 2.5831 26.0816 2.17441 26.6132 1.84189C31.2755 -1.0505 37.5475 -0.535933 41.584 3.51937L44.5555 6.50559C44.3795 6.48795 44.2045 6.47136 44.0315 6.45497C43.0567 6.36258 42.1445 6.27611 41.4629 6.04024L40.2694 4.8411C36.967 1.52237 31.944 0.951139 28.0517 3.1339C27.5681 3.40367 26.9516 3.86542 26.6081 4.1228C26.5648 4.1552 26.5259 4.18436 26.4921 4.20949L27.7781 5.50151L31.7471 9.48805L33.0618 10.8089C33.1085 10.7734 33.1636 10.731 33.2253 10.6836C33.5596 10.4267 34.0886 10.0202 34.5327 9.7435C36.3975 8.58895 38.46 8.03816 40.5847 7.99635C41.5655 7.97776 42.5844 8.04279 43.544 8.26198C45.6945 8.74872 47.8015 9.76578 49.474 11.446L50 11.9745L49.2114 12.7668C47.5389 14.4471 45.5725 15.5886 43.4211 16.0745C42.4614 16.2936 41.5489 16.4497 40.568 16.4311C38.4434 16.3893 36.3484 15.7726 34.4837 14.618C33.9578 14.2902 33.48 13.8827 32.9966 13.4704L32.9961 13.47C32.8647 13.3561 32.7567 13.219 32.6483 13.0813C32.5631 12.9731 32.4776 12.8646 32.3804 12.7668L31.723 12.1065L30.4084 10.7856L26.4634 6.82232L25.9151 6.27149C24.0347 4.38318 23.0741 3.6977 21.091 2.69642ZM47.3069 12.2383C45.9025 11.0708 44.2615 10.3417 42.5576 10.0454C40.311 9.65431 37.9608 10.0194 35.9148 11.134C35.3444 11.4433 34.7998 11.8101 34.2895 12.2383C34.7998 12.6665 35.3444 13.0334 35.9148 13.3427C37.9608 14.4573 40.3119 14.8224 42.5576 14.4313C44.2615 14.135 45.9025 13.4059 47.3069 12.2383Z" fill="url(#paint2_linear_0_2824)"/>
<path fill-rule="evenodd" clip-rule="evenodd" d="M1.24371 28.7603C1.24371 29.1907 1.38416 29.5472 1.66506 29.8296C1.94596 30.0986 2.3138 30.2332 2.76859 30.2332C3.22338 30.2332 3.59122 30.0986 3.87211 29.8296C4.16638 29.5472 4.31351 29.1907 4.31351 28.7603C4.31351 28.3299 4.16638 27.9734 3.87211 27.691C3.59122 27.395 3.22338 27.2471 2.76859 27.2471C2.3138 27.2471 1.94596 27.395 1.66506 27.691C1.38416 27.9734 1.24371 28.3299 1.24371 28.7603ZM4.19313 40.0387V31.5648H0.601649V33.2394L1.3039 33.2798C1.49117 33.2798 1.61824 33.3201 1.68512 33.4008C1.76538 33.4815 1.80551 33.6362 1.80551 33.8649V39.4738C1.80551 39.8639 1.61155 40.0791 1.22364 40.1194L0.561523 40.18V41.7134H5.3368V40.0992L4.19313 40.0387Z" fill="black"/>
<path fill-rule="evenodd" clip-rule="evenodd" d="M15.31 39.5018V32.0239C14.0884 31.5548 12.9194 31.3203 11.8029 31.3203C10.0691 31.3203 8.76881 31.8295 7.90188 32.8481C7.035 33.8666 6.60156 35.2871 6.60156 37.1097C6.60156 38.624 6.92337 39.8167 7.56697 40.6878C8.21058 41.5589 9.20225 41.9945 10.542 41.9945C11.6847 41.9945 12.5845 41.512 13.2412 40.5471L13.3003 40.5672V41.7331H16.433V40.1249L15.8025 40.0847C15.6186 40.0714 15.4873 40.0245 15.4085 39.9441C15.3428 39.8637 15.31 39.7162 15.31 39.5018ZM13.0245 33.3305V38.5369C13.0245 38.9926 12.8406 39.4013 12.4729 39.7631C12.1051 40.1116 11.6322 40.2858 11.0543 40.2858C9.68822 40.2858 9.00524 39.2003 9.00524 37.0293C9.00524 35.8366 9.20225 34.8783 9.59632 34.1547C9.99034 33.431 10.6274 33.0692 11.5074 33.0692C12.151 33.0692 12.6567 33.1563 13.0245 33.3305Z" fill="black"/>
<path fill-rule="evenodd" clip-rule="evenodd" d="M25.2323 45.0199C25.9614 44.3215 26.3856 43.2268 26.5049 41.736C26.5314 41.4137 26.5446 40.6817 26.5446 39.5401V32.0657C25.3913 31.5688 24.1652 31.3203 22.8661 31.3203C21.3019 31.3203 20.0492 31.777 19.108 32.6903C18.1669 33.5901 17.6963 34.9198 17.6963 36.6792C17.6963 37.9149 17.9813 38.9894 18.5513 39.9027C18.8429 40.3593 19.2473 40.722 19.7642 40.9906C20.2944 41.2592 20.9042 41.3935 21.5935 41.3935C22.7203 41.3935 23.6018 41.0174 24.2381 40.2653V41.3734C24.2381 42.3136 24.0658 43.0388 23.7211 43.5492C23.3764 44.073 22.7799 44.3349 21.9316 44.3349C21.3483 44.3349 20.891 44.2678 20.5596 44.1334C20.2282 44.0126 20.0625 43.7708 20.0625 43.4082V42.4412L18.1735 42.6023V45.4027C19.0484 45.8459 20.2613 46.0675 21.8123 46.0675C23.3632 46.0675 24.5032 45.7183 25.2323 45.0199ZM24.2381 33.3148V37.6463C24.2381 38.2507 24.0393 38.7342 23.6416 39.0968C23.2571 39.446 22.7799 39.6207 22.21 39.6207C20.8313 39.6207 20.142 38.5596 20.142 36.4375C20.142 35.4033 20.3541 34.584 20.7783 33.9796C21.2157 33.3753 21.8388 33.0731 22.6474 33.0731C23.2439 33.0731 23.7741 33.1536 24.2381 33.3148Z" fill="black"/>
<path fill-rule="evenodd" clip-rule="evenodd" d="M28.6661 34.1203C28.3757 34.8508 28.2305 35.7165 28.2305 36.7174C28.2305 38.503 28.6199 39.8556 29.3988 40.7755C30.1778 41.6818 31.2537 42.1349 32.6268 42.1349C34.013 42.1349 35.1483 41.6547 36.0329 40.6943C36.9174 39.7339 37.3597 38.3204 37.3597 36.4537C37.3597 35.5609 37.2475 34.7899 37.0231 34.1406C36.8118 33.4778 36.5478 32.9773 36.2309 32.6391C35.9273 32.2875 35.4982 31.9831 34.9437 31.7261C34.4024 31.4556 33.7357 31.3203 32.9436 31.3203C31.8082 31.3203 30.7718 31.6855 29.8345 32.4159C29.346 32.8082 28.9566 33.3763 28.6661 34.1203ZM34.9437 36.7783C34.9437 39.159 34.2242 40.3494 32.7852 40.3494C32.3363 40.3494 31.96 40.2411 31.6564 40.0248C30.9699 39.5378 30.6266 38.3407 30.6266 36.4334C30.6266 35.4054 30.8048 34.5938 31.1613 33.9986C31.5178 33.4034 32.0722 33.1058 32.8248 33.1058C33.5905 33.1058 34.1318 33.4169 34.4486 34.0392C34.7787 34.6614 34.9437 35.5745 34.9437 36.7783Z" fill="black"/>
<path d="M38.624 33.1115V31.4847H41.9653V32.8065C42.308 32.3049 42.7627 31.9118 43.3294 31.627C43.8962 31.3288 44.5091 31.1797 45.1681 31.1797C46.1699 31.1797 46.9409 31.4779 47.4813 32.0744C48.0349 32.6574 48.3117 33.5386 48.3117 34.718V40.0256L49.4386 40.0865V41.7134H44.7332V40.1679L45.3856 40.1069C45.5833 40.0798 45.7283 40.0256 45.8206 39.9442C45.9128 39.8493 45.959 39.6799 45.959 39.4358V35.2467C45.959 34.5011 45.8469 33.9521 45.6228 33.5996C45.3988 33.2335 44.9704 33.0505 44.3378 33.0505C43.7183 33.0505 43.224 33.2539 42.8549 33.6606C42.4859 34.0673 42.3014 34.5485 42.3014 35.1044V40.0256L43.4283 40.0865V41.7134H38.7229V40.1679L39.3753 40.1069C39.573 40.0798 39.718 40.0256 39.8103 39.9442C39.9025 39.8493 39.9487 39.6799 39.9487 39.4358V33.8029C39.9487 33.3962 39.7839 33.1861 39.4544 33.1725L38.624 33.1115Z" fill="black"/>
<defs>
<linearGradient id="paint0_linear_0_2824" x1="-31.4539" y1="10.6032" x2="-28.834" y2="38.9625" gradientUnits="userSpaceOnUse">
<stop stop-color="#22A7F0"/>
<stop offset="1" stop-color="#9B59B6"/>
</linearGradient>
<linearGradient id="paint1_linear_0_2824" x1="-18.7812" y1="5.81759" x2="-15.1075" y2="34.8121" gradientUnits="userSpaceOnUse">
<stop stop-color="#22A7F0"/>
<stop offset="1" stop-color="#9B59B6"/>
</linearGradient>
<linearGradient id="paint2_linear_0_2824" x1="-17.3821" y1="0.823704" x2="-14.6537" y2="29.5317" gradientUnits="userSpaceOnUse">
<stop stop-color="#22A7F0"/>
<stop offset="1" stop-color="#9B59B6"/>
</linearGradient>
</defs>
</svg>