<?xml version="1.0" encoding="UTF-8"?>
<!-- Generated by Pixelmator Pro 3.5.6 -->
<svg width="669" height="157" viewBox="0 0 669 157" xmlns="http://www.w3.org/2000/svg">
    <path id="Path" fill="#e42527" stroke="none" d="M 255.600006 60.399994 L 260 60.399994 L 260 96.900009 L 255.600006 96.900009 Z"/>
    <path id="path1" fill="#e42527" stroke="none" d="M 431.799988 38.899994 L 436.200012 38.899994 L 436.200012 118.199997 L 431.799988 118.199997 Z"/>
    <path id="path2" fill="#e42527" stroke="none" d="M 296.5 90 L 296.5 90 C 296.200012 89.199997 296.100006 88.400009 296.100006 87.5 L 296.100006 60.399994 L 300.5 60.399994 L 300.5 96.800003 L 296.299988 96.800003 L 277.200012 67.5 L 277.200012 67.5 C 277.399994 68.300003 277.600006 69.100006 277.600006 70 L 277.600006 96.800003 L 273 96.800003 L 273 60.399994 L 277.399994 60.399994 L 296.5 90 Z"/>
    <path id="path3" fill="#e42527" stroke="none" d="M 318.100006 82.199997 L 318.100006 96.800003 L 313.700012 96.800003 L 313.700012 60.399994 L 333 60.399994 C 333.899994 60.399994 334.799988 60.800003 335.5 61.399994 L 336.700012 62.5 C 337.5 63.100006 338 64.100006 337.899994 65.100006 L 337.899994 77.600006 C 337.899994 78.600006 337.5 79.600006 336.700012 80.200005 L 335.5 81.300003 C 334.799988 81.900009 333.899994 82.300003 333 82.300003 L 318.100006 82.199997 Z M 318.100006 64 L 318.100006 78.600006 L 331.100006 78.600006 C 331.5 78.700005 331.899994 78.700005 332.299988 78.600006 C 332.600006 78.5 332.799988 78.400002 333 78.200005 C 333.200012 78 333.399994 77.800003 333.600006 77.600006 C 333.600006 77.300003 333.600006 76.900002 333.600006 76.600006 L 333.600006 66.199997 C 333.600006 65.899994 333.600006 65.5 333.600006 65.199997 C 333.5 65 333.299988 64.800003 333 64.600006 C 332.799988 64.399994 332.5 64.300003 332.299988 64.100006 C 331.899994 64.100006 331.5 64.100006 331.100006 64.100006 L 318.100006 64 Z"/>
    <path id="path4" fill="#e42527" stroke="none" d="M 373 60.399994 L 377.399994 60.399994 L 377.399994 92.199997 C 377.399994 93.199997 376.899994 94.199997 376.100006 94.800003 L 374.899994 95.900009 C 374.200012 96.5 373.299988 96.900009 372.399994 96.900009 L 354.700012 96.900009 C 353.799988 96.900009 352.899994 96.5 352.200012 95.900009 L 351 94.900009 C 350.200012 94.300003 349.700012 93.300003 349.799988 92.300003 L 349.799988 60.5 L 354.100006 60.5 L 354.100006 91.199997 C 354.100006 91.5 354.100006 91.900009 354.100006 92.199997 C 354.399994 92.699997 354.899994 93 355.399994 93.199997 C 355.799988 93.300003 356.200012 93.300003 356.600006 93.199997 L 370.5 93.199997 C 370.899994 93.300003 371.299988 93.300003 371.700012 93.199997 C 372 93.100006 372.200012 93 372.399994 92.800003 C 372.700012 92.5 372.899994 92.300003 372.899994 92.199997 C 373 91.900009 373 91.5 372.899994 91.199997 L 373 60.399994 Z"/>
    <path id="path5" fill="#e42527" stroke="none" d="M 384.899994 60.399994 L 412.399994 60.399994 L 412.399994 64 L 400.799988 64 L 400.799988 96.800003 L 396.399994 96.800003 L 396.399994 64 L 384.899994 64 Z"/>
    <path id="path6" fill="#e2e1e3" stroke="none" d="M 463 60.300003 L 482.099976 60.300003 C 483 60.300003 483.900024 60.699997 484.599976 61.300003 L 485.799988 62.399994 C 486.599976 63 487.099976 64 487 65 L 487 92.100006 C 487 93.100006 486.599976 94.100006 485.799988 94.800003 L 484.599976 95.900009 C 483.900024 96.5 483 96.900009 482.099976 96.900009 L 463 96.900009 C 462.100006 96.900009 461.200012 96.5 460.5 95.900009 L 459.299988 94.800003 C 458.5 94.199997 458 93.199997 458.100006 92.199997 L 458.100006 65 C 458.100006 64 458.5 63 459.299988 62.399994 L 460.5 61.300003 C 461.200012 60.699997 462.100006 60.399994 463 60.300003 M 482.700012 91 L 482.700012 66.100006 C 482.700012 65.800003 482.700012 65.399994 482.700012 65.100006 C 482.5 64.899994 482.299988 64.800003 482.099976 64.600006 C 481.899994 64.399994 481.600006 64.300003 481.399994 64.100006 C 481 64.100006 480.600006 64.100006 480.200012 64.100006 L 465.100006 64.100006 L 463.899994 64.100006 L 463.200012 64.600006 C 462.899994 64.899994 462.700012 65.100006 462.700012 65.199997 C 462.600006 65.5 462.600006 65.899994 462.700012 66.199997 L 462.700012 91 C 462.600006 91.300003 462.600006 91.699997 462.700012 92 C 462.700012 92 462.899994 92.300003 463.200012 92.600006 C 463.399994 92.800003 463.700012 92.900009 463.899994 93 C 464.299988 93.100006 464.700012 93.100006 465.100006 93 L 480.200012 93 C 480.600006 93.100006 481 93.100006 481.399994 93 C 481.700012 92.900009 481.899994 92.800003 482.099976 92.600006 C 482.299988 92.400009 482.5 92.199997 482.700012 92 C 482.700012 91.699997 482.700012 91.300003 482.700012 91"/>
    <path id="path7" fill="#e2e1e3" stroke="none" d="M 523.5 60.399994 L 527.900024 60.399994 L 527.900024 92.199997 C 527.900024 93.199997 527.5 94.199997 526.700012 94.800003 L 525.5 95.900009 C 524.799988 96.5 523.900024 96.900009 523 96.900009 L 505.299988 96.900009 C 504.400024 96.900009 503.5 96.5 502.799988 95.900009 L 501.599976 94.800003 C 500.799988 94.199997 500.299988 93.199997 500.400024 92.199997 L 500.400024 60.399994 L 504.799988 60.399994 L 504.799988 91.100006 C 504.700012 91.400009 504.700012 91.800003 504.799988 92.100006 C 504.799988 92.100006 505 92.400009 505.299988 92.699997 C 505.5 92.900009 505.799988 93 506.099976 93.100006 C 506.5 93.199997 506.900024 93.199997 507.299988 93.100006 L 521.099976 93.100006 C 521.5 93.199997 521.900024 93.199997 522.299988 93.100006 C 522.599976 93 522.799988 92.900009 523 92.699997 C 523.299988 92.400009 523.5 92.199997 523.599976 92.100006 C 523.599976 91.800003 523.599976 91.400009 523.599976 91.100006 L 523.5 60.399994 Z"/>
    <path id="path8" fill="#e2e1e3" stroke="none" d="M 535.299988 60.399994 L 562.799988 60.399994 L 562.799988 64 L 551.200012 64 L 551.200012 96.800003 L 546.799988 96.800003 L 546.799988 64 L 535.299988 64 Z"/>
    <path id="path9" fill="#e2e1e3" stroke="none" d="M 574.700012 82.199997 L 574.700012 96.800003 L 570.299988 96.800003 L 570.299988 60.399994 L 589.599976 60.399994 C 590.5 60.399994 591.400024 60.800003 592.099976 61.399994 L 593.299988 62.5 C 594.099976 63.100006 594.599976 64.100006 594.5 65.100006 L 594.5 77.600006 C 594.5 78.600006 594.099976 79.600006 593.299988 80.200005 L 592.099976 81.300003 C 591.400024 81.900009 590.5 82.300003 589.599976 82.300003 L 574.700012 82.199997 Z M 574.700012 64 L 574.700012 78.600006 L 587.5 78.600006 C 587.900024 78.700005 588.299988 78.700005 588.700012 78.600006 C 589.200012 78.400002 589.700012 78 590 77.600006 C 590 77.300003 590 76.900002 590 76.600006 L 590 66.199997 C 590 65.899994 590 65.5 590 65.199997 C 589.799988 65 589.700012 64.800003 589.400024 64.600006 L 588.700012 64.100006 C 588.299988 64.100006 587.900024 64.100006 587.5 64.100006 L 574.700012 64 Z"/>
    <path id="path10" fill="#e2e1e3" stroke="none" d="M 629.599976 60.300003 L 634 60.300003 L 634 92.100006 C 634 93.100006 633.599976 94.100006 632.700012 94.800003 L 631.5 95.900009 C 630.799988 96.5 629.900024 96.900009 629 96.900009 L 611.299988 96.900009 C 610.400024 96.900009 609.5 96.5 608.799988 95.900009 L 607.599976 94.800003 C 606.799988 94.199997 606.299988 93.199997 606.400024 92.199997 L 606.400024 60.399994 L 610.799988 60.399994 L 610.799988 91.100006 C 610.799988 91.400009 610.799988 91.800003 610.799988 92.100006 C 610.900024 92.300003 611.099976 92.5 611.400024 92.699997 C 611.599976 92.900009 611.900024 93 612.099976 93.100006 C 612.5 93.199997 612.900024 93.199997 613.299988 93.100006 L 627 93.100006 C 627.400024 93.199997 627.799988 93.199997 628.200012 93.100006 C 628.5 93 628.700012 92.900009 629 92.699997 C 629.299988 92.400009 629.5 92.199997 629.5 92.100006 C 629.599976 91.800003 629.599976 91.400009 629.5 91.100006 L 629.599976 60.300003 Z"/>
    <path id="path11" fill="#e2e1e3" stroke="none" d="M 641.5 60.399994 L 669 60.399994 L 669 64 L 657.400024 64 L 657.400024 96.800003 L 653.099976 96.800003 L 653.099976 64 L 641.5 64 Z"/>
    <path id="path12" fill="#e42527" stroke="none" d="M 14.200001 6.199997 C 13.799999 2.5 10.5 -0.199997 6.799999 0.199997 C 3.400002 0.600006 0.799999 3.5 0.799999 6.899994 C 0.799999 10.600006 3.700001 13.600006 7.400002 13.600006 C 10.599998 13.600006 13.400002 11.300003 14 8.199997 C 62.599998 8.600006 102.300003 37.399994 105.5 73.5 C 101.399994 65.699997 96.199997 58.399994 90 52.100006 C 73.300003 34.899994 50.199997 25.5 26.200001 26 L 25.900002 26 C 25.400002 22.300003 21.900002 19.699997 18.200001 20.199997 C 14.5 20.699997 11.900002 24.199997 12.400002 27.899994 C 12.900002 31.600006 16.400002 34.199997 20.099998 33.699997 C 23.099998 33.300003 25.400002 30.899994 25.900002 27.899994 L 26.200001 27.899994 C 49.599998 27.399994 72.199997 36.600006 88.5 53.399994 C 94.300003 59.300003 99.199997 66 103.100006 73.300003 C 98.199997 68.899994 93 64.899994 87.599998 61.399994 C 76.300003 53.899994 58.800003 45.199997 39 45.199997 C 38.400002 41.600006 35 39.100006 31.400002 39.699997 C 27.799999 40.300003 25.299999 43.699997 25.900002 47.300003 C 26.5 50.899994 29.900002 53.399994 33.5 52.800003 C 36.300003 52.399994 38.599998 50.100006 39 47.300003 C 68.5 47.300003 93.5 67.399994 102.5 75.600006 C 92.599998 72.100006 68.599998 64.300003 51 63.800003 C 50.599998 60.100006 47.400002 57.399994 43.699997 57.800003 C 40 58.199997 37.300003 61.399994 37.699997 65.100006 C 38 68.5 40.900002 71.100006 44.300003 71.100006 C 47.400002 71 50.099998 68.800003 50.699997 65.800003 C 68.300003 66.100006 92.099998 74.100006 101.800003 77.300003 L 67.599998 77.300003 C 67.199997 74 64.300003 71.600006 61 71.600006 C 57.300003 71.699997 54.400002 74.699997 54.400002 78.300003 C 54.400002 82 57.5 84.900009 61.099998 84.800003 C 64.300003 84.800003 67 82.5 67.5 79.400002 L 101.399994 79.400002 C 85.199997 86 68.099998 89.900009 50.699997 91 C 50 88 47.300003 85.900009 44.300003 86 C 40.599998 86 37.599998 88.900009 37.5 92.699997 C 37.5 96.400009 40.400002 99.400009 44.199997 99.5 C 47.699997 99.5 50.699997 96.800003 50.900002 93.300003 C 68.699997 93 92.300003 85.100006 102.399994 81.5 C 93.400002 89.699997 68.5 109.800003 38.900002 109.800003 C 38.300003 106.100006 34.900002 103.600006 31.200001 104.199997 C 27.5 104.800003 25 108.199997 25.599998 111.900009 C 26.200001 115.600006 29.599998 118.100006 33.299999 117.5 C 36.199997 117 38.400002 114.800003 38.900002 111.900009 C 58.699997 111.900009 76.199997 103.100006 87.5 95.699997 C 93 92 98.300003 88 103.199997 83.5 C 99.199997 90.900009 94.300003 97.699997 88.5 103.699997 C 72.199997 120.600006 49.599998 129.900009 26.200001 129.400009 L 26.200001 129.400009 C 25.700001 125.800003 22.299999 123.300003 18.700001 123.800003 C 15.099998 124.300003 12.599998 127.699997 13.099998 131.300003 C 13.599998 134.900009 17 137.400009 20.599998 136.900009 C 23.5 136.5 25.700001 134.199997 26.200001 131.300003 L 26.599998 131.300003 C 50.5 131.800003 73.599998 122.300003 90.300003 105.100006 C 96.300003 98.800003 101.399994 91.699997 105.300003 84 C 101.5 119.600006 61.900002 147.699997 13.700001 148 C 12.5 144.5 8.700001 142.699997 5.200001 143.900009 C 1.700001 145.100006 -0.1 148.900009 1.1 152.400009 C 2.299999 155.900009 6.099998 157.699997 9.599998 156.5 C 12.299999 155.600006 14 153 14 150.199997 L 14 150.199997 C 65.400002 149.699997 106.699997 118 107.800003 79 L 107.800003 78.200005 C 107.800003 38.800003 65.800003 6.600006 14 6.199997 M 11.799999 7.800003 C 11.5 10.300003 9.299999 12.199997 6.700001 11.899994 C 4.200001 11.600006 2.299999 9.399994 2.599998 6.800003 C 2.900002 4.300003 5.099998 2.399994 7.700001 2.699997 C 9.900002 2.899994 11.5 4.600006 11.799999 6.800003 C 11.799999 7 11.799999 7.199997 11.799999 7.300003 C 11.799999 7.5 11.799999 7.600006 11.799999 7.800003 M 19.400002 31.800003 C 16.900002 31.600006 15 29.300003 15.200001 26.800003 C 15.400002 24.600006 17.200001 22.800003 19.400002 22.600006 C 21.900002 22.399994 24.200001 24.199997 24.400002 26.800003 C 24.599998 29.300003 22.799999 31.600006 20.200001 31.800003 C 19.900002 31.899994 19.700001 31.899994 19.400002 31.800003 M 32.299999 51 C 29.799999 51 27.700001 48.899994 27.700001 46.399994 C 27.700001 43.899994 29.799999 41.800003 32.299999 41.800003 C 34.800003 41.800003 36.900002 43.899994 36.900002 46.399994 L 36.900002 46.399994 C 36.900002 49 34.900002 51 32.299999 51 C 32.400002 51 32.400002 51 32.299999 51 M 48.800003 65.399994 C 48.400002 67.600006 46.5 69.199997 44.300003 69.199997 C 41.800003 69.399994 39.5 67.600006 39.300003 65 C 39.099998 62.5 40.900002 60.199997 43.5 60 C 43.800003 60 44.099998 60 44.300003 60 C 46.699997 60 48.699997 62 48.800003 64.399994 C 48.699997 64.600006 48.699997 64.800003 48.800003 65 C 48.800003 65.100006 48.800003 65.199997 48.800003 65.399994 M 60.900002 83 C 58.400002 82.800003 56.5 80.5 56.699997 78 C 56.900002 75.800003 58.699997 74 60.900002 73.800003 C 63.400002 73.600006 65.699997 75.399994 65.900002 78 C 66.099998 80.5 64.300003 82.800003 61.699997 83 C 61.5 83.100006 61.199997 83.100006 60.900002 83 M 44.300003 97.400009 C 41.800003 97.400009 39.699997 95.400009 39.699997 92.800003 C 39.699997 90.300003 41.699997 88.199997 44.300003 88.199997 C 46.5 88.199997 48.400002 89.800003 48.800003 91.900009 C 48.800003 92 48.800003 92.199997 48.800003 92.300003 C 48.699997 92.5 48.699997 92.699997 48.800003 92.900009 C 48.800003 95.400009 46.699997 97.400009 44.300003 97.400009 M 32.299999 115.5 C 29.799999 115.5 27.700001 113.400009 27.700001 110.900009 C 27.700001 108.400009 29.799999 106.300003 32.299999 106.300003 C 34.800003 106.300003 36.900002 108.400009 36.900002 110.900009 C 36.900002 113.5 34.800003 115.5 32.299999 115.5 L 32.299999 115.5 M 19.299999 134.699997 C 16.799999 134.699997 14.700001 132.600006 14.700001 130.100006 C 14.700001 127.600006 16.799999 125.5 19.299999 125.5 C 21.799999 125.5 23.900002 127.600006 23.900002 130.100006 C 23.900002 132.699997 21.900002 134.699997 19.299999 134.699997 L 19.299999 134.699997 M 7.400002 154.900009 C 4.900002 154.900009 2.799999 152.800003 2.900002 150.199997 C 3 147.600006 5 145.600006 7.599998 145.699997 C 9.700001 145.699997 11.400002 147.100006 12 149.100006 L 12 149.100006 C 12 149.300003 12 149.400009 12 149.600006 C 12 149.800003 12 150 12 150.199997 C 11.900002 152.800003 9.900002 154.900009 7.400002 154.900009"/>
    <path id="path13" fill="#e2e1e3" stroke="none" d="M 111.199997 79.100006 C 112.300003 118.199997 153.300003 149.900009 204.699997 150.300003 L 204.699997 150.300003 C 204.800003 153.900009 207.699997 156.800003 211.399994 156.800003 C 215 156.699997 217.899994 153.800003 217.899994 150.100006 C 217.899994 146.400009 214.899994 143.600006 211.199997 143.600006 C 208.399994 143.600006 206 145.400009 205.100006 148.100006 C 157 147.800003 117.399994 119.699997 113.5 84.100006 C 117.600006 91.900009 122.800003 99 128.899994 105.300003 C 145.600006 122.5 168.600006 132 192.600006 131.5 L 193 131.5 C 193.800003 135.100006 197.300003 137.400009 200.899994 136.600006 C 203.899994 135.900009 206.100006 133.300003 206.199997 130.199997 C 206.399994 126.5 203.600006 123.400009 199.899994 123.199997 C 196.199997 123 193.100006 125.800003 192.899994 129.5 L 192.600006 129.5 C 169.199997 130 146.699997 120.699997 130.399994 104 C 124.600006 97.900009 119.600006 91.100006 115.600006 83.699997 C 120.5 88.100006 125.800003 92.199997 131.300003 95.800003 C 142.600006 103.300003 160.199997 112 179.899994 112 C 180.5 115.600006 183.899994 118.100006 187.5 117.600006 C 191.100006 117 193.600006 113.600006 193.100006 110 C 192.600006 106.400009 189.100006 103.900009 185.5 104.400009 C 182.600006 104.800003 180.399994 107.100006 179.899994 110 C 150.399994 110 125.300003 89.900009 116.399994 81.699997 C 126.300003 85.5 150.100006 93 167.899994 93.5 C 168.100006 97.199997 171.199997 100 174.800003 99.800003 C 178.5 99.600006 181.300003 96.5 181.100006 92.900009 C 181.100006 89.199997 178.100006 86.199997 174.399994 86.199997 L 174.399994 86.199997 C 171.300003 86.199997 168.600006 88.400009 168 91.400009 C 150.600006 90.300003 133.5 86.300003 117.399994 79.700005 L 151.300003 79.700005 C 151.800003 83.300003 155.199997 85.800003 158.800003 85.300003 C 162.100006 84.800003 164.5 82 164.399994 78.600006 C 164.399994 75 161.600006 72.100006 158 71.899994 C 154.699997 71.800003 151.899994 74.300003 151.399994 77.600006 L 116.800003 77.600006 C 126.600006 74.399994 150.300003 66.300003 167.899994 66.100006 C 168.600006 69.199997 171.199997 71.399994 174.300003 71.5 C 178 71.600006 181 68.600006 181.100006 64.899994 C 181.199997 61.199997 178.199997 58.199997 174.5 58.100006 C 171 58.100006 168 60.800003 167.699997 64.300003 C 149.899994 64.600006 126.300003 72.5 116.199997 76 C 125.199997 67.800003 150.100006 47.699997 179.699997 47.699997 C 180.300003 51.399994 183.699997 53.899994 187.399994 53.300003 C 191.100006 52.699997 193.600006 49.300003 193 45.600006 C 192.399994 41.899994 189 39.399994 185.300003 40 C 182.399994 40.5 180.199997 42.699997 179.699997 45.600006 C 159.899994 45.600006 142.300003 54.399994 131.100006 61.800003 C 125.600006 65.399994 120.399994 69.399994 115.600006 73.699997 C 119.5 66.399994 124.399994 59.600006 130.199997 53.699997 C 146.5 37 169 27.699997 192.300003 28.199997 L 192.600006 28.199997 C 193.100006 31.800003 196.5 34.399994 200.199997 33.800003 C 203.800003 33.300003 206.399994 29.899994 205.800003 26.199997 C 205.300003 22.600006 201.899994 20 198.199997 20.600006 C 195.300003 21 193 23.300003 192.600006 26.199997 L 192.199997 26.199997 C 168.300003 25.699997 145.199997 35.199997 128.5 52.300003 C 122.300003 58.699997 117.100006 65.899994 113 73.699997 C 116.199997 37.5 155.899994 8.699997 204.5 8.300003 C 205.199997 11.899994 208.699997 14.300003 212.300003 13.600006 C 215.899994 12.899994 218.300003 9.399994 217.600006 5.800003 C 217 2.699997 214.300003 0.399994 211.100006 0.399994 C 207.800003 0.399994 204.899994 2.899994 204.600006 6.300003 C 152.800003 6.800003 111 38.899994 111 78.300003 L 111 79.100006 L 111.199997 79.100006 Z M 206.699997 7.699997 C 206.699997 7.600006 206.699997 7.399994 206.699997 7.199997 C 206.800003 7 206.800003 6.800003 206.699997 6.699997 C 206.800003 4.199997 209 2.199997 211.600006 2.399994 C 214.199997 2.600006 216.100006 4.699997 215.899994 7.300003 C 215.800003 9.699997 213.699997 11.600006 211.300003 11.600006 C 209.100006 11.600006 207.199997 10 206.800003 7.800003 M 194.800003 27.100006 C 194.600006 24.600006 196.399994 22.300003 199 22.100006 C 201.5 21.899994 203.800003 23.699997 204 26.300003 C 204 26.600006 204 26.899994 204 27.100006 C 203.800003 29.600006 201.5 31.5 199 31.300003 C 196.699997 31.100006 195 29.399994 194.800003 27.100006 M 181.800003 46.399994 C 181.600006 43.899994 183.399994 41.600006 186 41.399994 C 188.5 41.199997 190.800003 43 191 45.600006 C 191 45.899994 191 46.199997 191 46.399994 C 190.800003 48.899994 188.5 50.800003 186 50.600006 C 183.699997 50.399994 182 48.600006 181.800003 46.399994 M 153.300003 78.600006 C 153.300003 76.100006 155.300003 74 157.899994 74 C 160.5 74 162.5 76 162.5 78.600006 C 162.5 81.100006 160.5 83.100006 158.100006 83.199997 C 155.600006 83.199997 153.600006 81.199997 153.5 78.600006 M 182 111 C 181.800003 108.5 183.600006 106.199997 186.199997 106 C 188.699997 105.800003 191 107.600006 191.199997 110.199997 C 191.199997 110.5 191.199997 110.800003 191.199997 111 C 191 113.5 188.699997 115.400009 186.199997 115.199997 C 183.899994 115 182.199997 113.300003 182 111 M 194.899994 130.199997 C 194.899994 127.699997 197 125.600006 199.5 125.600006 C 202 125.600006 204.100006 127.699997 204.100006 130.199997 C 204.100006 132.699997 202 134.800003 199.5 134.800003 L 199.5 134.800003 C 197 134.800003 194.899994 132.800003 194.899994 130.199997 L 194.899994 130.199997 M 206.800003 150.400009 C 206.800003 150.199997 206.800003 150 206.800003 149.800003 C 206.800003 149.600006 206.800003 149.5 206.800003 149.300003 L 206.800003 149.300003 C 207.300003 147.300003 209.100006 145.900009 211.199997 145.900009 C 213.699997 145.699997 216 147.5 216.199997 150.100006 C 216.399994 152.600006 214.600006 154.900009 212 155.100006 C 211.699997 155.100006 211.399994 155.100006 211.199997 155.100006 C 208.699997 155.100006 206.600006 153.100006 206.600006 150.5 M 170 65.5 C 170 65.399994 170 65.199997 170 65.100006 C 170 64.899994 170 64.699997 170 64.5 C 170.199997 62 172.5 60.100006 175 60.300003 C 177.199997 60.5 179 62.300003 179.199997 64.5 C 179.100006 67 177 69 174.5 69 C 172.300003 68.899994 170.5 67.399994 170 65.5 M 170 92.900009 C 170.100006 92.699997 170.100006 92.5 170 92.300003 C 170 92.199997 170 92 170 91.900009 C 170.300003 89.400009 172.5 87.5 175.100006 87.800003 C 177.699997 88.100006 179.5 90.300003 179.199997 92.900009 C 178.899994 95.400009 176.699997 97.300003 174.100006 97 C 172 96.800003 170.300003 95.100006 170 92.900009"/>
</svg>
