<svg width="118" height="36" viewBox="0 0 118 36" fill="none" xmlns="http://www.w3.org/2000/svg">
<path fill-rule="evenodd" clip-rule="evenodd" d="M8.53002 2.67554C7.03238 2.67554 5.8183 3.88962 5.8183 5.38726V30.7761C5.8183 32.2738 7.03238 33.4879 8.53002 33.4879H27.1644C28.6621 33.4879 29.8762 32.2738 29.8762 30.7761V13.4893C29.8762 12.7501 29.5744 12.0429 29.0407 11.5315L20.5864 3.42943C20.0815 2.94563 19.4093 2.67554 18.7101 2.67554H8.53002ZM7.62611 5.38726C7.62611 4.88805 8.03081 4.48335 8.53002 4.48335H18.1751L18.1751 12.7989C18.1751 13.2378 18.5308 13.5936 18.9697 13.5936L28.0467 13.5936C28.0539 13.5936 28.0612 13.5935 28.0683 13.5933V30.7761C28.0683 31.2754 27.6636 31.68 27.1644 31.68H8.53002C8.03081 31.68 7.62611 31.2754 7.62611 30.7761V5.38726Z" fill="black"/>
<path d="M29.0407 11.5315L27.9732 12.6454L27.9732 12.6454L29.0407 11.5315ZM20.5864 3.42943L19.5189 4.54335L20.5864 3.42943ZM18.1751 4.48335L19.7179 4.48335V2.9405H18.1751V4.48335ZM18.1751 12.7989H19.7179H18.1751ZM18.9697 13.5936V15.1364H18.9697L18.9697 13.5936ZM28.0467 13.5936V12.0507V13.5936ZM28.0683 13.5933H29.6112V12.0119L28.0302 12.0509L28.0683 13.5933ZM7.36116 5.38726C7.36116 4.74171 7.88448 4.21839 8.53002 4.21839V1.13268C6.18029 1.13268 4.27544 3.03752 4.27544 5.38726H7.36116ZM7.36116 30.7761V5.38726H4.27544V30.7761H7.36116ZM8.53002 31.945C7.88447 31.945 7.36116 31.4217 7.36116 30.7761H4.27544C4.27544 33.1259 6.18028 35.0307 8.53002 35.0307V31.945ZM27.1644 31.945H8.53002V35.0307H27.1644V31.945ZM28.3333 30.7761C28.3333 31.4217 27.81 31.945 27.1644 31.945V35.0307C29.5142 35.0307 31.419 33.1259 31.419 30.7761H28.3333ZM28.3333 13.4893V30.7761H31.419V13.4893H28.3333ZM27.9732 12.6454C28.2032 12.8659 28.3333 13.1707 28.3333 13.4893H31.419C31.419 12.3295 30.9455 11.22 30.1082 10.4175L27.9732 12.6454ZM19.5189 4.54335L27.9732 12.6454L30.1082 10.4175L21.6539 2.3155L19.5189 4.54335ZM18.7101 4.21839C19.0115 4.21839 19.3013 4.33482 19.5189 4.54335L21.6539 2.3155C20.8618 1.55644 19.8072 1.13268 18.7101 1.13268V4.21839ZM8.53002 4.21839H18.7101V1.13268H8.53002V4.21839ZM8.53002 2.9405C7.17871 2.9405 6.08326 4.03595 6.08326 5.38726H9.16897C9.16897 5.74015 8.8829 6.02621 8.53002 6.02621V2.9405ZM18.1751 2.9405H8.53002V6.02621H18.1751V2.9405ZM19.7179 12.7989L19.7179 4.48335L16.6322 4.48335L16.6322 12.7989L19.7179 12.7989ZM18.9697 12.0507C19.3829 12.0507 19.7179 12.3857 19.7179 12.7989H16.6322C16.6322 14.0899 17.6787 15.1364 18.9697 15.1364V12.0507ZM28.0467 12.0507L18.9697 12.0507L18.9697 15.1364L28.0467 15.1364V12.0507ZM28.0302 12.0509C28.0359 12.0508 28.0414 12.0507 28.0467 12.0507V15.1364C28.0665 15.1364 28.0864 15.1362 28.1064 15.1357L28.0302 12.0509ZM29.6112 30.7761V13.5933H26.5255V30.7761H29.6112ZM27.1644 33.2229C28.5157 33.2229 29.6112 32.1275 29.6112 30.7761H26.5255C26.5255 30.4233 26.8115 30.1372 27.1644 30.1372V33.2229ZM8.53002 33.2229H27.1644V30.1372H8.53002V33.2229ZM6.08326 30.7761C6.08326 32.1275 7.17871 33.2229 8.53002 33.2229V30.1372C8.8829 30.1372 9.16897 30.4233 9.16897 30.7761H6.08326ZM6.08326 5.38726V30.7761H9.16897V5.38726H6.08326Z" fill="white"/>
<rect x="7.15186" y="13.047" width="21.3886" height="14.4564" fill="white"/>
<rect x="7.15186" y="3.89615" width="11.6092" height="22.4747" fill="white"/>
<rect x="5.84149" y="26.3706" width="23.9343" height="6.21342" rx="3.10671" fill="#FFC900"/>
<path d="M8.5295 3.57944H18.7096C19.1757 3.57944 19.6239 3.7595 19.9604 4.08203L28.4147 12.1841C28.7705 12.525 28.9717 12.9965 28.9717 13.4893V30.7761C28.9717 31.7746 28.1623 32.5839 27.1639 32.5839H8.5295C7.53107 32.5839 6.72168 31.7746 6.72168 30.7761V5.38725C6.72168 4.38882 7.53107 3.57944 8.5295 3.57944Z" stroke="black" stroke-width="1.80782"/>
<path d="M23.2452 8.5771L23.2505 8.5821L23.2559 8.587L27.765 12.6901L19.0781 12.6901L19.0781 4.66045L23.2452 8.5771Z" fill="black" stroke="black" stroke-width="1.80691"/>
<path d="M40.252 21.618L39.406 19.926C39.91 19.926 40.312 19.848 40.612 19.692C40.924 19.536 41.152 19.296 41.296 18.972C41.452 18.648 41.53 18.234 41.53 17.73V8.514H43.744V18.252C43.744 18.96 43.6 19.566 43.312 20.07C43.036 20.574 42.634 20.958 42.106 21.222C41.59 21.486 40.972 21.618 40.252 21.618ZM42.682 6.498C42.226 6.498 41.872 6.39 41.62 6.174C41.38 5.946 41.26 5.628 41.26 5.22C41.26 4.836 41.386 4.524 41.638 4.284C41.89 4.044 42.238 3.924 42.682 3.924C43.126 3.924 43.468 4.038 43.708 4.266C43.96 4.482 44.086 4.8 44.086 5.22C44.086 5.592 43.96 5.898 43.708 6.138C43.456 6.378 43.114 6.498 42.682 6.498ZM46.3937 21.96V8.514H48.5717L48.6077 10.674L48.2297 10.512C48.3017 10.14 48.5057 9.792 48.8417 9.468C49.1777 9.132 49.5857 8.862 50.0657 8.658C50.5577 8.454 51.0677 8.352 51.5957 8.352C52.4357 8.352 53.1797 8.562 53.8277 8.982C54.4877 9.402 55.0037 9.978 55.3757 10.71C55.7597 11.442 55.9517 12.288 55.9517 13.248C55.9517 14.196 55.7597 15.042 55.3757 15.786C55.0037 16.518 54.4877 17.1 53.8277 17.532C53.1797 17.952 52.4477 18.162 51.6317 18.162C51.0797 18.162 50.5457 18.054 50.0297 17.838C49.5257 17.622 49.0937 17.34 48.7337 16.992C48.3857 16.644 48.1697 16.278 48.0857 15.894L48.6257 15.642V21.96H46.3937ZM51.1817 16.2C51.6857 16.2 52.1357 16.074 52.5317 15.822C52.9277 15.57 53.2337 15.222 53.4497 14.778C53.6777 14.334 53.7917 13.824 53.7917 13.248C53.7917 12.672 53.6837 12.168 53.4677 11.736C53.2517 11.292 52.9457 10.944 52.5497 10.692C52.1537 10.44 51.6977 10.314 51.1817 10.314C50.6537 10.314 50.1917 10.44 49.7957 10.692C49.4117 10.932 49.1057 11.274 48.8777 11.718C48.6497 12.162 48.5357 12.672 48.5357 13.248C48.5357 13.824 48.6497 14.334 48.8777 14.778C49.1057 15.222 49.4117 15.57 49.7957 15.822C50.1917 16.074 50.6537 16.2 51.1817 16.2ZM62.1909 22.14C61.4829 22.14 60.7749 22.032 60.0669 21.816C59.3709 21.6 58.8069 21.318 58.3749 20.97L59.1669 19.332C59.4189 19.512 59.7009 19.668 60.0129 19.8C60.3249 19.932 60.6549 20.034 61.0029 20.106C61.3629 20.178 61.7169 20.214 62.0649 20.214C62.7009 20.214 63.2289 20.112 63.6489 19.908C64.0809 19.716 64.4049 19.416 64.6209 19.008C64.8369 18.612 64.9449 18.114 64.9449 17.514V15.768L65.2689 15.894C65.1969 16.266 64.9989 16.62 64.6749 16.956C64.3509 17.292 63.9429 17.568 63.4509 17.784C62.9589 17.988 62.4549 18.09 61.9389 18.09C61.0389 18.09 60.2409 17.88 59.5449 17.46C58.8609 17.04 58.3149 16.47 57.9069 15.75C57.5109 15.018 57.3129 14.178 57.3129 13.23C57.3129 12.282 57.5109 11.442 57.9069 10.71C58.3029 9.966 58.8429 9.384 59.5269 8.964C60.2229 8.532 61.0029 8.316 61.8669 8.316C62.2269 8.316 62.5749 8.358 62.9109 8.442C63.2469 8.526 63.5529 8.646 63.8289 8.802C64.1169 8.958 64.3749 9.132 64.6029 9.324C64.8309 9.516 65.0169 9.72 65.1609 9.936C65.3049 10.152 65.3949 10.362 65.4309 10.566L64.9629 10.71L64.9989 8.514H67.1769V17.352C67.1769 18.12 67.0629 18.798 66.8349 19.386C66.6069 19.974 66.2769 20.472 65.8449 20.88C65.4129 21.3 64.8909 21.612 64.2789 21.816C63.6669 22.032 62.9709 22.14 62.1909 22.14ZM62.2809 16.2C62.8209 16.2 63.2949 16.074 63.7029 15.822C64.1229 15.57 64.4469 15.222 64.6749 14.778C64.9029 14.334 65.0169 13.824 65.0169 13.248C65.0169 12.66 64.8969 12.144 64.6569 11.7C64.4289 11.244 64.1109 10.89 63.7029 10.638C63.2949 10.386 62.8209 10.26 62.2809 10.26C61.7409 10.26 61.2669 10.392 60.8589 10.656C60.4509 10.908 60.1269 11.262 59.8869 11.718C59.6589 12.162 59.5449 12.672 59.5449 13.248C59.5449 13.812 59.6589 14.322 59.8869 14.778C60.1269 15.222 60.4509 15.57 60.8589 15.822C61.2669 16.074 61.7409 16.2 62.2809 16.2ZM70.5834 18.198C70.1514 18.198 69.8154 18.072 69.5754 17.82C69.3474 17.568 69.2334 17.214 69.2334 16.758C69.2334 16.338 69.3534 15.996 69.5934 15.732C69.8454 15.456 70.1754 15.318 70.5834 15.318C71.0154 15.318 71.3454 15.444 71.5734 15.696C71.8134 15.936 71.9334 16.29 71.9334 16.758C71.9334 17.178 71.8074 17.526 71.5554 17.802C71.3154 18.066 70.9914 18.198 70.5834 18.198ZM77.1945 18.18C76.3545 18.18 75.5985 18.042 74.9265 17.766C74.2665 17.478 73.7265 17.07 73.3065 16.542L74.7465 15.3C75.1065 15.708 75.5085 16.002 75.9525 16.182C76.3965 16.362 76.8645 16.452 77.3565 16.452C77.5605 16.452 77.7405 16.428 77.8965 16.38C78.0645 16.332 78.2085 16.26 78.3285 16.164C78.4485 16.068 78.5385 15.96 78.5985 15.84C78.6705 15.708 78.7065 15.564 78.7065 15.408C78.7065 15.12 78.5985 14.892 78.3825 14.724C78.2625 14.64 78.0705 14.55 77.8065 14.454C77.5545 14.358 77.2245 14.262 76.8165 14.166C76.1685 13.998 75.6285 13.806 75.1965 13.59C74.7645 13.362 74.4285 13.11 74.1885 12.834C73.9845 12.606 73.8285 12.348 73.7205 12.06C73.6245 11.772 73.5765 11.46 73.5765 11.124C73.5765 10.704 73.6665 10.326 73.8465 9.99C74.0385 9.642 74.2965 9.342 74.6205 9.09C74.9445 8.838 75.3225 8.646 75.7545 8.514C76.1865 8.382 76.6365 8.316 77.1045 8.316C77.5845 8.316 78.0465 8.376 78.4905 8.496C78.9465 8.616 79.3665 8.79 79.7505 9.018C80.1465 9.234 80.4825 9.498 80.7585 9.81L79.5345 11.16C79.3065 10.944 79.0545 10.752 78.7785 10.584C78.5145 10.416 78.2445 10.284 77.9685 10.188C77.6925 10.08 77.4345 10.026 77.1945 10.026C76.9665 10.026 76.7625 10.05 76.5825 10.098C76.4025 10.134 76.2525 10.194 76.1325 10.278C76.0125 10.362 75.9165 10.47 75.8445 10.602C75.7845 10.722 75.7545 10.866 75.7545 11.034C75.7665 11.178 75.8025 11.316 75.8625 11.448C75.9345 11.568 76.0305 11.67 76.1505 11.754C76.2825 11.838 76.4805 11.934 76.7445 12.042C77.0085 12.15 77.3505 12.252 77.7705 12.348C78.3585 12.504 78.8505 12.678 79.2465 12.87C79.6425 13.062 79.9545 13.284 80.1825 13.536C80.4105 13.752 80.5725 14.004 80.6685 14.292C80.7645 14.58 80.8125 14.898 80.8125 15.246C80.8125 15.81 80.6505 16.314 80.3265 16.758C80.0145 17.202 79.5825 17.55 79.0305 17.802C78.4905 18.054 77.8785 18.18 77.1945 18.18ZM83.7888 18V6.102H86.0028V18H83.7888ZM81.9168 10.566V8.514H88.0728V10.566H81.9168ZM94.009 18.18C93.061 18.18 92.215 17.97 91.471 17.55C90.727 17.118 90.139 16.53 89.707 15.786C89.275 15.042 89.059 14.196 89.059 13.248C89.059 12.3 89.275 11.454 89.707 10.71C90.139 9.966 90.727 9.384 91.471 8.964C92.215 8.532 93.061 8.316 94.009 8.316C94.945 8.316 95.785 8.532 96.529 8.964C97.273 9.384 97.855 9.966 98.275 10.71C98.707 11.454 98.923 12.3 98.923 13.248C98.923 14.196 98.707 15.042 98.275 15.786C97.855 16.53 97.273 17.118 96.529 17.55C95.785 17.97 94.945 18.18 94.009 18.18ZM94.009 16.218C94.525 16.218 94.981 16.086 95.377 15.822C95.785 15.558 96.103 15.204 96.331 14.76C96.571 14.316 96.685 13.812 96.673 13.248C96.685 12.672 96.571 12.162 96.331 11.718C96.103 11.274 95.785 10.926 95.377 10.674C94.981 10.41 94.525 10.278 94.009 10.278C93.493 10.278 93.025 10.41 92.605 10.674C92.197 10.926 91.879 11.28 91.651 11.736C91.423 12.18 91.309 12.684 91.309 13.248C91.309 13.812 91.423 14.316 91.651 14.76C91.879 15.204 92.197 15.558 92.605 15.822C93.025 16.086 93.493 16.218 94.009 16.218ZM100.903 18V8.514H103.081L103.117 11.538L102.811 10.854C102.943 10.374 103.171 9.942 103.495 9.558C103.819 9.174 104.191 8.874 104.611 8.658C105.043 8.43 105.493 8.316 105.961 8.316C106.165 8.316 106.357 8.334 106.537 8.37C106.729 8.406 106.885 8.448 107.005 8.496L106.411 10.926C106.279 10.854 106.117 10.794 105.925 10.746C105.733 10.698 105.541 10.674 105.349 10.674C105.049 10.674 104.761 10.734 104.485 10.854C104.221 10.962 103.987 11.118 103.783 11.322C103.579 11.526 103.417 11.766 103.297 12.042C103.189 12.306 103.135 12.606 103.135 12.942V18H100.903ZM112.521 18.18C111.525 18.18 110.643 17.97 109.875 17.55C109.119 17.13 108.525 16.56 108.093 15.84C107.673 15.108 107.463 14.274 107.463 13.338C107.463 12.594 107.583 11.916 107.823 11.304C108.063 10.692 108.393 10.164 108.813 9.72C109.245 9.264 109.755 8.916 110.343 8.676C110.943 8.424 111.597 8.298 112.305 8.298C112.929 8.298 113.511 8.418 114.051 8.658C114.591 8.898 115.059 9.228 115.455 9.648C115.851 10.056 116.151 10.548 116.355 11.124C116.571 11.688 116.673 12.306 116.661 12.978L116.643 13.752H108.957L108.543 12.24H114.789L114.501 12.546V12.15C114.465 11.778 114.345 11.454 114.141 11.178C113.937 10.89 113.673 10.668 113.349 10.512C113.037 10.344 112.689 10.26 112.305 10.26C111.717 10.26 111.219 10.374 110.811 10.602C110.415 10.83 110.115 11.16 109.911 11.592C109.707 12.012 109.605 12.54 109.605 13.176C109.605 13.788 109.731 14.322 109.983 14.778C110.247 15.234 110.613 15.588 111.081 15.84C111.561 16.08 112.119 16.2 112.755 16.2C113.199 16.2 113.607 16.128 113.979 15.984C114.351 15.84 114.753 15.582 115.185 15.21L116.283 16.74C115.959 17.04 115.587 17.298 115.167 17.514C114.759 17.718 114.327 17.88 113.871 18C113.415 18.12 112.965 18.18 112.521 18.18Z" fill="black"/>
<path d="M43.16 33.1C42.7533 33.1 42.38 33.05 42.04 32.95C41.7 32.8433 41.3933 32.6867 41.12 32.48C40.8467 32.2733 40.6033 32.0233 40.39 31.73L41.24 30.77C41.5667 31.2233 41.8867 31.5367 42.2 31.71C42.5133 31.8833 42.8667 31.97 43.26 31.97C43.4867 31.97 43.6933 31.9367 43.88 31.87C44.0667 31.7967 44.2133 31.7 44.32 31.58C44.4267 31.4533 44.48 31.31 44.48 31.15C44.48 31.0367 44.4567 30.9333 44.41 30.84C44.37 30.74 44.3067 30.6533 44.22 30.58C44.1333 30.5 44.0267 30.4267 43.9 30.36C43.7733 30.2933 43.63 30.2367 43.47 30.19C43.31 30.1433 43.1333 30.1 42.94 30.06C42.5733 29.9867 42.2533 29.89 41.98 29.77C41.7067 29.6433 41.4767 29.49 41.29 29.31C41.1033 29.1233 40.9667 28.9167 40.88 28.69C40.7933 28.4567 40.75 28.1933 40.75 27.9C40.75 27.6067 40.8133 27.3367 40.94 27.09C41.0733 26.8433 41.2533 26.63 41.48 26.45C41.7067 26.27 41.97 26.13 42.27 26.03C42.57 25.93 42.8933 25.88 43.24 25.88C43.6333 25.88 43.9833 25.9267 44.29 26.02C44.6033 26.1133 44.8767 26.2533 45.11 26.44C45.35 26.62 45.5467 26.84 45.7 27.1L44.84 27.95C44.7067 27.7433 44.5567 27.5733 44.39 27.44C44.2233 27.3 44.0433 27.1967 43.85 27.13C43.6567 27.0567 43.4533 27.02 43.24 27.02C43 27.02 42.79 27.0533 42.61 27.12C42.4367 27.1867 42.3 27.2833 42.2 27.41C42.1 27.53 42.05 27.6767 42.05 27.85C42.05 27.9833 42.08 28.1033 42.14 28.21C42.2 28.31 42.2833 28.4 42.39 28.48C42.5033 28.56 42.6467 28.63 42.82 28.69C42.9933 28.75 43.19 28.8033 43.41 28.85C43.7767 28.9233 44.1067 29.0233 44.4 29.15C44.6933 29.27 44.9433 29.4167 45.15 29.59C45.3567 29.7567 45.5133 29.95 45.62 30.17C45.7267 30.3833 45.78 30.6233 45.78 30.89C45.78 31.35 45.67 31.7467 45.45 32.08C45.2367 32.4067 44.9333 32.66 44.54 32.84C44.1467 33.0133 43.6867 33.1 43.16 33.1ZM47.2095 33V26H51.7895V27.18H48.4895V31.82H51.8295V33H47.2095ZM47.8095 30V28.84H51.2795V30H47.8095ZM52.6795 33L55.4095 26H56.6295L59.3395 33H57.9895L56.4895 29.02C56.4562 28.94 56.4095 28.8133 56.3495 28.64C56.2962 28.4667 56.2362 28.28 56.1695 28.08C56.1029 27.8733 56.0429 27.6833 55.9895 27.51C55.9362 27.33 55.8962 27.2 55.8695 27.12L56.1195 27.11C56.0795 27.2433 56.0329 27.3933 55.9795 27.56C55.9262 27.7267 55.8695 27.9 55.8095 28.08C55.7495 28.26 55.6895 28.4333 55.6295 28.6C55.5762 28.7667 55.5262 28.9167 55.4795 29.05L53.9795 33H52.6795ZM53.9195 31.4L54.3695 30.27H57.5595L58.0395 31.4H53.9195ZM62.662 33.1C62.2553 33.1 61.882 33.05 61.542 32.95C61.202 32.8433 60.8953 32.6867 60.622 32.48C60.3486 32.2733 60.1053 32.0233 59.892 31.73L60.742 30.77C61.0686 31.2233 61.3886 31.5367 61.702 31.71C62.0153 31.8833 62.3686 31.97 62.762 31.97C62.9886 31.97 63.1953 31.9367 63.382 31.87C63.5686 31.7967 63.7153 31.7 63.822 31.58C63.9286 31.4533 63.982 31.31 63.982 31.15C63.982 31.0367 63.9586 30.9333 63.912 30.84C63.872 30.74 63.8086 30.6533 63.722 30.58C63.6353 30.5 63.5286 30.4267 63.402 30.36C63.2753 30.2933 63.132 30.2367 62.972 30.19C62.812 30.1433 62.6353 30.1 62.442 30.06C62.0753 29.9867 61.7553 29.89 61.482 29.77C61.2086 29.6433 60.9786 29.49 60.792 29.31C60.6053 29.1233 60.4686 28.9167 60.382 28.69C60.2953 28.4567 60.252 28.1933 60.252 27.9C60.252 27.6067 60.3153 27.3367 60.442 27.09C60.5753 26.8433 60.7553 26.63 60.982 26.45C61.2086 26.27 61.472 26.13 61.772 26.03C62.072 25.93 62.3953 25.88 62.742 25.88C63.1353 25.88 63.4853 25.9267 63.792 26.02C64.1053 26.1133 64.3786 26.2533 64.612 26.44C64.852 26.62 65.0486 26.84 65.202 27.1L64.342 27.95C64.2086 27.7433 64.0586 27.5733 63.892 27.44C63.7253 27.3 63.5453 27.1967 63.352 27.13C63.1586 27.0567 62.9553 27.02 62.742 27.02C62.502 27.02 62.292 27.0533 62.112 27.12C61.9386 27.1867 61.802 27.2833 61.702 27.41C61.602 27.53 61.552 27.6767 61.552 27.85C61.552 27.9833 61.582 28.1033 61.642 28.21C61.702 28.31 61.7853 28.4 61.892 28.48C62.0053 28.56 62.1486 28.63 62.322 28.69C62.4953 28.75 62.692 28.8033 62.912 28.85C63.2786 28.9233 63.6086 29.0233 63.902 29.15C64.1953 29.27 64.4453 29.4167 64.652 29.59C64.8586 29.7567 65.0153 29.95 65.122 30.17C65.2286 30.3833 65.282 30.6233 65.282 30.89C65.282 31.35 65.172 31.7467 64.952 32.08C64.7386 32.4067 64.4353 32.66 64.042 32.84C63.6486 33.0133 63.1886 33.1 62.662 33.1ZM69.7315 33.1C69.2315 33.1 68.7682 33.01 68.3415 32.83C67.9148 32.65 67.5415 32.4 67.2215 32.08C66.9082 31.7533 66.6648 31.37 66.4915 30.93C66.3182 30.49 66.2315 30.01 66.2315 29.49C66.2315 28.97 66.3182 28.49 66.4915 28.05C66.6648 27.61 66.9082 27.23 67.2215 26.91C67.5415 26.5833 67.9148 26.33 68.3415 26.15C68.7682 25.97 69.2315 25.88 69.7315 25.88C70.2382 25.88 70.7048 25.97 71.1315 26.15C71.5582 26.33 71.9282 26.5833 72.2415 26.91C72.5548 27.2367 72.7982 27.62 72.9715 28.06C73.1448 28.4933 73.2315 28.97 73.2315 29.49C73.2315 30.0033 73.1448 30.48 72.9715 30.92C72.7982 31.36 72.5548 31.7433 72.2415 32.07C71.9282 32.3967 71.5582 32.65 71.1315 32.83C70.7048 33.01 70.2382 33.1 69.7315 33.1ZM69.7315 31.86C70.0515 31.86 70.3415 31.8033 70.6015 31.69C70.8682 31.57 71.0982 31.4033 71.2915 31.19C71.4848 30.97 71.6348 30.7167 71.7415 30.43C71.8548 30.1433 71.9115 29.83 71.9115 29.49C71.9115 29.15 71.8548 28.8367 71.7415 28.55C71.6348 28.2633 71.4848 28.0133 71.2915 27.8C71.0982 27.58 70.8682 27.4133 70.6015 27.3C70.3415 27.18 70.0515 27.12 69.7315 27.12C69.4182 27.12 69.1282 27.18 68.8615 27.3C68.5948 27.4133 68.3648 27.5767 68.1715 27.79C67.9782 28.0033 67.8282 28.2533 67.7215 28.54C67.6148 28.8267 67.5615 29.1433 67.5615 29.49C67.5615 29.83 67.6148 30.1467 67.7215 30.44C67.8282 30.7267 67.9782 30.9767 68.1715 31.19C68.3648 31.4033 68.5948 31.57 68.8615 31.69C69.1282 31.8033 69.4182 31.86 69.7315 31.86ZM74.6412 33V26H75.8112L79.8712 31.47L79.6512 31.51C79.6245 31.3233 79.6012 31.1333 79.5812 30.94C79.5612 30.74 79.5412 30.5333 79.5212 30.32C79.5078 30.1067 79.4945 29.8833 79.4812 29.65C79.4745 29.4167 79.4678 29.1733 79.4612 28.92C79.4545 28.66 79.4512 28.3867 79.4512 28.1V26H80.7412V33H79.5512L75.4712 27.61L75.7312 27.54C75.7645 27.9133 75.7912 28.2333 75.8112 28.5C75.8378 28.76 75.8578 28.9867 75.8712 29.18C75.8845 29.3667 75.8945 29.5233 75.9012 29.65C75.9145 29.7767 75.9212 29.8933 75.9212 30C75.9278 30.1 75.9312 30.1967 75.9312 30.29V33H74.6412ZM88.1291 33V27.35L88.6091 27.4L86.2291 30.31L86.1191 30.13H90.5691V31.26H85.4191L84.8791 30.22L88.3591 25.98H89.3791V33H88.1291Z" fill="url(#paint0_linear_2128_2316)"/>
<defs>
<linearGradient id="paint0_linear_2128_2316" x1="40.3129" y1="30.0759" x2="93.4262" y2="27.6998" gradientUnits="userSpaceOnUse">
<stop stop-color="#77590D"/>
<stop offset="0.463542" stop-color="#AE8C44"/>
<stop offset="0.947917" stop-color="#766009"/>
</linearGradient>
</defs>
</svg>
