<?xml version="1.0" encoding="UTF-8"?><svg id="a" xmlns="http://www.w3.org/2000/svg" viewBox="0 0 270.38298 243.57447"><polygon points="112.94654 6.35384 77.70364 22.51011 109.50505 39.71461 144.74794 23.55834 112.94654 6.35384 112.94654 6.35384" style="fill:#43af7d;"/><polygon points="77.70364 22.51011 77.718 64.03965 109.51942 81.24415 109.50505 39.71461 77.70364 22.51011 77.70364 22.51011" style="fill:#73c596;"/><polygon points="109.51942 81.24415 144.76231 65.08788 144.74794 23.55834 109.50505 39.71461 109.51942 81.24415 109.51942 81.24415" style="fill:#359165;"/><line x1="167.7531" y1="71.83373" x2="127.61701" y2="50.98006" style="fill:none; stroke:#6fc498; stroke-miterlimit:10; stroke-width:2px;"/><polygon points="245.96284 24.80142 226.03539 33.92801 243.70282 43.48607 263.6303 34.35949 245.96284 24.80142 245.96284 24.80142" style="fill:#218dbd;"/><polygon points="226.03539 33.92801 226.03614 57.41351 243.70358 66.97157 243.70282 43.48607 226.03539 33.92801 226.03539 33.92801" style="fill:#48bcec;"/><polygon points="243.70358 66.97157 263.63103 57.84499 263.6303 34.35949 243.70282 43.48607 243.70358 66.97157 243.70358 66.97157" style="fill:#17729a;"/><line x1="200.02329" y1="66.00327" x2="234.15324" y2="50.68137" style="fill:none; stroke:#0599ce; stroke-miterlimit:10; stroke-width:2px;"/><polygon points="182.89029 40.79244 147.63541 56.93916 179.43681 74.14366 214.69169 57.99696 182.89029 40.79244 182.89029 40.79244" style="fill:#43af7d;"/><polygon points="147.63541 56.93916 147.637 98.48866 179.4384 115.69315 179.43681 74.14366 147.63541 56.93916 147.63541 56.93916" style="fill:#73c596;"/><polygon points="179.4384 115.69315 214.69328 99.54647 214.69169 57.99696 179.43681 74.14366 179.4384 115.69315 179.4384 115.69315" style="fill:#359165;"/><line x1="127.24638" y1="102.98605" x2="161.74697" y2="86.54712" style="fill:none; stroke:#369acc; stroke-miterlimit:10; stroke-width:2px;"/><line x1="60.08317" y1="64.59637" x2="94.21313" y2="49.27447" style="fill:none; stroke:#5aa580; stroke-miterlimit:10; stroke-width:2px;"/><polygon points="43.01516 40.79765 7.77227 56.95392 39.57368 74.15844 74.81656 58.00217 43.01516 40.79765 43.01516 40.79765" style="fill:#43af7d;"/><polygon points="7.77227 56.95392 7.78664 98.48345 39.58804 115.68796 39.57368 74.15844 7.77227 56.95392 7.77227 56.95392" style="fill:#73c596;"/><polygon points="39.58804 115.68796 74.83093 99.53169 74.81656 58.00217 39.57368 74.15844 39.58804 115.68796 39.58804 115.68796" style="fill:#359165;"/><line x1="59.87952" y1="85.03611" x2="90.65128" y2="102.98605" style="fill:none; stroke:#369acc; stroke-miterlimit:10; stroke-width:2px;"/><polygon points="107.46686 147.86244 135.86861 136.15925 135.87084 103.9907 107.46909 115.6939 107.46686 147.86244 107.46686 147.86244" style="fill:#50beed;"/><polygon points="82.76818 134.4011 107.46686 147.86244 107.46909 115.6939 82.77042 102.23258 82.76818 134.4011 82.76818 134.4011" style="fill:#1c729c;"/><polygon points="111.17217 90.52938 82.77042 102.23258 107.46909 115.6939 135.87084 103.9907 111.17217 90.52938 111.17217 90.52938" style="fill:#167aa5;"/><polygon points="84.24333 102.28143 111.06925 91.2274 134.39857 103.94147 107.57202 114.99588 84.24333 102.28143 84.24333 102.28143" style="fill:none; stroke:#010101; stroke-miterlimit:10; stroke-width:.01px;"/><polygon points="111.06954 91.22742 84.24373 102.28146 107.57204 114.99572 134.39787 103.94168 111.06954 91.22742 111.06954 91.22742" style="fill:#3d936a;"/><line x1="158.66671" y1="147.50628" x2="122.74743" y2="127.87347" style="fill:none; stroke:#3799cc; stroke-miterlimit:10; stroke-width:2px;"/><polygon points="182.89101 126.38013 147.63584 142.52614 179.43691 159.73126 214.69207 143.58528 182.89101 126.38013 182.89101 126.38013" style="fill:#43af7d;"/><polygon points="147.63584 142.52614 147.63662 184.07564 179.43769 201.28076 179.43691 159.73126 147.63584 142.52614 147.63584 142.52614" style="fill:#73c596;"/><polygon points="179.43769 201.28076 214.69285 185.13478 214.69207 143.58528 179.43691 159.73126 179.43769 201.28076 179.43769 201.28076" style="fill:#359165;"/><line x1="200.02329" y1="171.33378" x2="229.35811" y2="187.04526" style="fill:none; stroke:#0599ce; stroke-miterlimit:10; stroke-width:2px;"/><polygon points="245.96284 173.01419 226.03539 182.14078 243.70282 191.69884 263.6303 182.57225 245.96284 173.01419 245.96284 173.01419" style="fill:#218dbd;"/><polygon points="226.03539 182.14078 226.03614 205.62628 243.70358 215.18434 243.70282 191.69884 226.03539 182.14078 226.03539 182.14078" style="fill:#48bcec;"/><polygon points="243.70358 215.18434 263.63103 206.05775 263.6303 182.57225 243.70282 191.69884 243.70358 215.18434 243.70358 215.18434" style="fill:#17729a;"/><line x1="127.61701" y1="186.63746" x2="161.74697" y2="171.31556" style="fill:none; stroke:#5aa580; stroke-miterlimit:10; stroke-width:2px;"/><line x1="61.59198" y1="139.45046" x2="93.78103" y2="125.27751" style="fill:none; stroke:#369acc; stroke-miterlimit:10; stroke-width:2px;"/><polygon points="43.02754 126.38013 7.77267 142.52681 39.57408 159.73133 74.82894 143.58461 43.02754 126.38013 43.02754 126.38013" style="fill:#43af7d;"/><polygon points="7.77267 142.52681 7.77426 184.07628 39.57567 201.28079 39.57408 159.73133 7.77267 142.52681 7.77267 142.52681" style="fill:#73c596;"/><polygon points="39.57567 201.28079 74.83053 185.13411 74.82894 143.58461 39.57408 159.73133 39.57567 201.28079 39.57567 201.28079" style="fill:#359165;"/><line x1="100.37939" y1="193.84089" x2="60.2433" y2="172.98723" style="fill:none; stroke:#6fc498; stroke-miterlimit:10; stroke-width:2px;"/><polygon points="112.9589 159.78019 77.70404 175.92687 109.50544 193.13139 144.76032 176.98467 112.9589 159.78019 112.9589 159.78019" style="fill:#43af7d;"/><polygon points="77.70404 175.92687 77.70563 217.47634 109.50703 234.68085 109.50544 193.13139 77.70404 175.92687 77.70404 175.92687" style="fill:#73c596;"/><polygon points="109.50703 234.68085 144.76191 218.53417 144.76032 176.98467 109.50544 193.13139 109.50703 234.68085 109.50703 234.68085" style="fill:#359165;"/></svg>