<svg width="1224" height="400" viewBox="0 0 1224 400" fill="none" xmlns="http://www.w3.org/2000/svg">
<path d="M400 200C400 310.457 400 400 200.062 400C-11.8722 400 0.124064 310.457 0.124064 200C0.124064 10.4584 89.6393 0 200.062 0C310.485 0 400 25 400 200Z" fill="#FA4600"/>
<path d="M254.04 316L201.34 185.1L151.36 316H119.4L187.74 151.1L169.04 104.52C166.773 99.9867 164.167 96.9267 161.22 95.34C158.273 93.7533 153.74 92.96 147.62 92.96H145.24V74.94C148.187 74.7133 152.947 74.6 159.52 74.6C169.493 74.6 177.2 75.96 182.64 78.68C188.08 81.1733 192.273 86.3867 195.22 94.32L283.62 316H254.04Z" fill="white"/>
<path d="M600.32 315.2L550.72 192L503.68 315.2H473.6L537.92 160L520.32 116.16C518.187 111.894 515.733 109.014 512.96 107.52C510.187 106.027 505.92 105.28 500.16 105.28H497.92V88.3202C500.693 88.1068 505.173 88.0002 511.36 88.0002C520.747 88.0002 528 89.2802 533.12 91.8402C538.24 94.1869 542.187 99.0935 544.96 106.56L628.16 315.2H600.32ZM699.29 318.4C684.57 318.4 673.157 317.014 665.05 314.24C657.157 311.467 651.397 306.56 647.77 299.52C644.357 292.48 642.65 282.347 642.65 269.12C642.65 257.387 644.25 248.32 647.45 241.92C650.863 235.307 656.517 230.614 664.41 227.84C672.517 225.067 683.93 223.68 698.65 223.68H745.05V199.04C745.05 193.28 743.877 188.907 741.53 185.92C739.397 182.72 735.663 180.48 730.33 179.2C725.21 177.92 717.637 177.28 707.61 177.28C691.61 177.28 673.903 178.56 654.49 181.12V160C675.61 158.08 694.703 157.12 711.77 157.12C729.69 157.12 742.917 158.507 751.45 161.28C759.983 163.84 765.85 168.427 769.05 175.04C772.25 181.654 773.85 191.894 773.85 205.76V315.2H746.01V300.48C743.663 312.427 728.09 318.4 699.29 318.4ZM704.09 299.52C714.543 299.52 723.397 298.774 730.65 297.28C740.25 295.36 745.05 290.88 745.05 283.84V241.6H700.57C691.397 241.6 684.783 242.347 680.73 243.84C676.677 245.12 674.01 247.68 672.73 251.52C671.45 255.36 670.81 261.547 670.81 270.08C670.81 277.76 671.557 283.734 673.05 288C674.543 292.054 677.21 295.04 681.05 296.96C684.89 298.667 690.65 299.52 698.33 299.52H704.09ZM823.797 160.32H852.597V179.2C855.584 164.48 872.544 157.12 903.478 157.12C923.317 157.12 937.184 160.747 945.077 168C953.184 175.04 957.238 186.24 957.238 201.6V315.2H928.438V203.2C928.438 199.147 928.118 195.84 927.477 193.28C926.837 190.72 925.557 188.16 923.637 185.6C919.371 180.267 909.877 177.6 895.158 177.6C883.851 177.6 875.104 178.454 868.917 180.16C862.944 181.654 858.677 184.214 856.117 187.84C853.771 191.467 852.597 196.587 852.597 203.2V315.2H823.797V160.32ZM1072.19 318.4C1058.97 318.4 1048.62 317.014 1041.15 314.24C1033.69 311.254 1028.25 306.347 1024.83 299.52C1021.63 292.48 1020.03 282.667 1020.03 270.08V179.2H985.475V160.32H1020.03V112.32H1049.15V160.32H1104.52V179.2H1049.15V271.68C1049.15 279.36 1050.01 285.12 1051.71 288.96C1053.63 292.8 1056.83 295.574 1061.31 297.28C1066.01 298.774 1072.73 299.52 1081.47 299.52C1084.25 299.52 1091.93 298.667 1104.52 296.96V315.84C1093.64 317.547 1082.86 318.4 1072.19 318.4ZM1135.98 160.32H1163.18V185.6C1163.18 180.694 1165.32 176.107 1169.58 171.84C1173.85 167.36 1179.29 163.84 1185.9 161.28C1192.52 158.507 1199.02 157.12 1205.42 157.12H1219.5V181.76H1203.5C1189.85 181.76 1179.93 183.574 1173.74 187.2C1167.77 190.614 1164.78 196.907 1164.78 206.08V315.2H1135.98V160.32Z" fill="black"/>
</svg>
