<svg width="127" height="41" viewBox="0 0 127 41" fill="none" xmlns="http://www.w3.org/2000/svg">
<path fill-rule="evenodd" clip-rule="evenodd" d="M0.694583 22.4805C0.311365 22.4805 0 22.7896 0 23.17V31.754C0 32.1345 0.311365 32.4436 0.694583 32.4436C1.0778 32.4436 1.38917 32.1345 1.38917 31.754V23.17C1.38917 22.7896 1.0778 22.4805 0.694583 22.4805Z" fill="url(#paint0_linear_33_22273)"/>
<path fill-rule="evenodd" clip-rule="evenodd" d="M2.78321 18.457C2.39999 18.457 2.08862 18.7662 2.08862 19.1466V35.7772C2.08862 36.1577 2.39999 36.4668 2.78321 36.4668C3.16642 36.4668 3.47779 36.1577 3.47779 35.7772V19.1466C3.47779 18.7662 3.16642 18.457 2.78321 18.457Z" fill="url(#paint1_linear_33_22273)"/>
<path fill-rule="evenodd" clip-rule="evenodd" d="M4.87647 14.4248C4.49325 14.4248 4.18188 14.7339 4.18188 15.1144V25.8384C4.18188 26.2189 4.49325 26.528 4.87647 26.528C5.25969 26.528 5.57105 26.2189 5.57105 25.8384V15.1144C5.57105 14.7339 5.25969 14.4248 4.87647 14.4248Z" fill="url(#paint2_linear_33_22273)"/>
<path fill-rule="evenodd" clip-rule="evenodd" d="M6.96503 34.541C6.58181 34.541 6.27045 34.8501 6.27045 35.2306V37.8367C6.27045 38.2172 6.58181 38.5263 6.96503 38.5263C7.34825 38.5263 7.65961 38.2172 7.65961 37.8367V35.2306C7.65961 34.8501 7.34825 34.541 6.96503 34.541Z" fill="url(#paint3_linear_33_22273)"/>
<path fill-rule="evenodd" clip-rule="evenodd" d="M9.05835 34.541C8.67513 34.541 8.36377 34.8501 8.36377 35.2306V39.8103C8.36377 40.1908 8.67513 40.4999 9.05835 40.4999C9.44157 40.4999 9.75293 40.1908 9.75293 39.8103V35.2306C9.75293 34.8501 9.44157 34.541 9.05835 34.541Z" fill="url(#paint4_linear_33_22273)"/>
<path fill-rule="evenodd" clip-rule="evenodd" d="M11.1516 4.46582C10.7684 4.46582 10.457 4.77494 10.457 5.15539V39.81C10.457 40.1905 10.7684 40.4996 11.1516 40.4996C11.5348 40.4996 11.8462 40.1905 11.8462 39.81V5.15539C11.8462 4.77494 11.5348 4.46582 11.1516 4.46582Z" fill="url(#paint5_linear_33_22273)"/>
<path fill-rule="evenodd" clip-rule="evenodd" d="M13.245 0.5C12.8618 0.5 12.5504 0.809119 12.5504 1.18957V39.8104C12.5504 40.1909 12.8618 40.5 13.245 40.5C13.6282 40.5 13.9396 40.1909 13.9396 39.8104V1.18957C13.9396 0.809119 13.6282 0.5 13.245 0.5Z" fill="url(#paint6_linear_33_22273)"/>
<path fill-rule="evenodd" clip-rule="evenodd" d="M23.6972 18.457C23.314 18.457 23.0026 18.7662 23.0026 19.1466V35.7772C23.0026 36.1577 23.314 36.4668 23.6972 36.4668C24.0804 36.4668 24.3918 36.1577 24.3918 35.7772V19.1466C24.3918 18.7662 24.0804 18.457 23.6972 18.457Z" fill="url(#paint7_linear_33_22273)"/>
<path fill-rule="evenodd" clip-rule="evenodd" d="M21.6039 14.4248C21.2207 14.4248 20.9094 14.7339 20.9094 15.1144V37.8418C20.9094 38.2222 21.2207 38.5313 21.6039 38.5313C21.9872 38.5313 22.2985 38.2222 22.2985 37.8418V15.1144C22.2985 14.7339 21.9872 14.4248 21.6039 14.4248Z" fill="url(#paint8_linear_33_22273)"/>
<path fill-rule="evenodd" clip-rule="evenodd" d="M19.5153 12.4795C19.1321 12.4795 18.8207 12.7886 18.8207 13.1691V37.8368C18.8207 38.2172 19.1321 38.5263 19.5153 38.5263C19.8985 38.5263 20.2099 38.2172 20.2099 37.8368V13.1691C20.2099 12.7886 19.8985 12.4795 19.5153 12.4795Z" fill="url(#paint9_linear_33_22273)"/>
<path fill-rule="evenodd" clip-rule="evenodd" d="M17.4269 8.45117C17.0437 8.45117 16.7323 8.76029 16.7323 9.14075V39.8101C16.7323 40.1906 17.0437 40.4997 17.4269 40.4997C17.8101 40.4997 18.1215 40.1906 18.1215 39.8101V9.14075C18.1215 8.76029 17.8101 8.45117 17.4269 8.45117Z" fill="url(#paint10_linear_33_22273)"/>
<path fill-rule="evenodd" clip-rule="evenodd" d="M15.3335 4.46582C14.9503 4.46582 14.6389 4.77494 14.6389 5.15539V39.81C14.6389 40.1905 14.9503 40.4996 15.3335 40.4996C15.7167 40.4996 16.0281 40.1905 16.0281 39.81V5.15539C16.0281 4.77494 15.7167 4.46582 15.3335 4.46582Z" fill="url(#paint11_linear_33_22273)"/>
<path fill-rule="evenodd" clip-rule="evenodd" d="M25.7858 22.4805C25.4026 22.4805 25.0912 22.7896 25.0912 23.17V31.754C25.0912 32.1345 25.4026 32.4436 25.7858 32.4436C26.169 32.4436 26.4804 32.1345 26.4804 31.754V23.17C26.4804 22.7896 26.169 22.4805 25.7858 22.4805Z" fill="url(#paint12_linear_33_22273)"/>
<path fill-rule="evenodd" clip-rule="evenodd" d="M4.87647 32.4775C4.49325 32.4775 4.18188 32.7867 4.18188 33.1671V37.8372C4.18188 38.2176 4.49325 38.5268 4.87647 38.5268C5.25969 38.5268 5.57105 38.2176 5.57105 37.8372V33.1671C5.57105 32.7867 5.25969 32.4775 4.87647 32.4775Z" fill="url(#paint13_linear_33_22273)"/>
<path fill-rule="evenodd" clip-rule="evenodd" d="M6.96503 12.4795C6.58181 12.4795 6.27045 12.7886 6.27045 13.1691V29.8234C6.27045 30.2039 6.58181 30.513 6.96503 30.513C7.34825 30.513 7.65961 30.2039 7.65961 29.8234V13.1691C7.65961 12.7886 7.34825 12.4795 6.96503 12.4795Z" fill="url(#paint14_linear_33_22273)"/>
<path fill-rule="evenodd" clip-rule="evenodd" d="M9.05835 8.45117C8.67513 8.45117 8.36377 8.76029 8.36377 9.14075V31.8158C8.36377 32.201 8.67513 32.5149 9.05835 32.5149C9.44157 32.5149 9.75293 32.2058 9.75293 31.8158V9.14075C9.75293 8.76029 9.44157 8.45117 9.05835 8.45117Z" fill="url(#paint15_linear_33_22273)"/>
<path fill-rule="evenodd" clip-rule="evenodd" d="M121.969 18.1628V11.4858C121.969 11.2718 122.141 11.1006 122.357 11.1006H126.615C126.831 11.1006 127.008 11.2718 127.008 11.4858V34.7839C127.008 34.9979 126.826 35.1738 126.615 35.1738H124.517C123.459 35.1738 122.558 34.5175 122.199 33.5997C122.146 33.4713 122.041 33.3857 121.906 33.3572C121.772 33.3286 121.643 33.3667 121.547 33.4665C120.225 34.8267 118.261 35.4544 116.355 35.4544C113.179 35.4544 110.53 33.7376 109.088 30.9413C107.617 28.0879 107.608 24.036 109.088 21.1731C110.544 18.3673 113.207 16.7408 116.388 16.7408C119.569 16.7408 119.952 17.3448 121.317 18.4624C121.437 18.5622 121.595 18.5765 121.734 18.5147C121.873 18.4433 121.959 18.3149 121.959 18.158L121.969 18.1628ZM121.998 26.1047C121.998 24.3309 121.341 22.6474 119.737 21.7343C118.371 20.9543 116.69 20.9401 115.315 21.7153C113.758 22.6093 113.064 24.2928 113.064 26.0382C113.064 30.1328 116.762 32.1682 119.737 30.4705C121.341 29.5574 121.998 27.8834 121.998 26.1V26.1047Z" fill="#F3F4F6"/>
<path fill-rule="evenodd" clip-rule="evenodd" d="M64.1796 18.0717V17.4202C64.1796 17.2062 64.3616 17.035 64.5724 17.035H68.7925C69.0081 17.035 69.1854 17.2062 69.1854 17.4202V40.1095C69.1854 40.3236 69.0033 40.4995 68.7925 40.4995H66.6801C65.2957 40.4995 64.1796 39.3867 64.1796 38.0171V34.0318C64.1796 33.8749 64.0981 33.7417 63.9592 33.6799C63.8203 33.6085 63.6622 33.6323 63.5425 33.7274C63.1066 34.0794 62.6227 34.379 62.1198 34.6405C61.0276 35.1922 59.83 35.43 58.6085 35.43C57.387 35.43 55.653 35.0305 54.3596 34.2315C53.0279 33.4088 52.0268 32.277 51.2986 30.8978C50.5083 29.3998 50.1777 27.7543 50.1777 26.0708C50.1777 24.3873 50.513 22.7466 51.3178 21.2533C52.0555 19.8884 53.071 18.7708 54.4075 17.9576C55.7248 17.1634 57.1667 16.7734 58.7091 16.7734C60.2516 16.7734 61.0899 16.9874 62.1725 17.5153C62.6658 17.7579 63.1305 18.0385 63.5568 18.3761C63.6766 18.4665 63.8299 18.4855 63.9688 18.4141C64.1077 18.3523 64.1891 18.2192 64.1891 18.067L64.1796 18.0717ZM64.1796 26.1041C64.1796 25.1625 64.0071 24.2351 63.5329 23.4171C63.1305 22.7085 62.594 22.1188 61.8707 21.7146C61.1953 21.3341 60.4719 21.1439 59.6911 21.1439C58.9103 21.1439 58.2109 21.3389 57.5499 21.7146C56.8361 22.1188 56.2949 22.6943 55.8877 23.3981C55.4134 24.2113 55.241 25.1387 55.241 26.0708C55.241 27.0029 55.4134 27.9445 55.8877 28.7768C56.2901 29.4854 56.8266 30.0846 57.5499 30.4888C58.2109 30.8645 58.9247 31.0595 59.6911 31.0595C60.4576 31.0595 61.1953 30.8693 61.8707 30.4888C62.5892 30.0846 63.1305 29.4949 63.5329 28.7863C64.0023 27.9683 64.1796 27.0409 64.1796 26.0993V26.1041Z" fill="#F3F4F6"/>
<path fill-rule="evenodd" clip-rule="evenodd" d="M47.3801 17.4202V34.7832C47.3801 34.9972 47.1981 35.1732 46.9873 35.1732H44.8892C43.5192 35.1732 42.4031 34.0651 42.4031 32.7002V17.4155C42.4031 17.2015 42.5755 17.0303 42.7911 17.0303H46.9825C47.1981 17.0303 47.3753 17.2015 47.3753 17.4155L47.3801 17.4202Z" fill="#F3F4F6"/>
<path fill-rule="evenodd" clip-rule="evenodd" d="M44.9228 15.4041C44.1036 15.4041 43.3707 15.152 42.7815 14.5861C42.2019 14.0392 41.9241 13.3449 41.9241 12.5507C41.9241 11.7565 42.2019 11.0669 42.7815 10.5152C43.3755 9.94931 44.1036 9.69727 44.9228 9.69727C45.7419 9.69727 46.4652 9.94931 47.0592 10.5152C47.6388 11.0669 47.9262 11.7565 47.9262 12.5507C47.9262 13.3449 47.6436 14.0392 47.0592 14.5861C46.4652 15.152 45.7419 15.4041 44.9228 15.4041Z" fill="#F3F4F6"/>
<path fill-rule="evenodd" clip-rule="evenodd" d="M102.741 15.4041C101.922 15.4041 101.189 15.152 100.6 14.5861C100.02 14.0392 99.7421 13.3449 99.7421 12.5507C99.7421 11.7565 100.02 11.0669 100.6 10.5152C101.193 9.94931 101.922 9.69727 102.741 9.69727C103.56 9.69727 104.283 9.94931 104.877 10.5152C105.457 11.0669 105.744 11.7565 105.744 12.5507C105.744 13.3449 105.462 14.0392 104.877 14.5861C104.283 15.152 103.555 15.4041 102.741 15.4041Z" fill="#F3F4F6"/>
<path fill-rule="evenodd" clip-rule="evenodd" d="M38.4463 11.4897V34.7878C38.4463 35.0018 38.2738 35.1777 38.0535 35.1777H35.9554C34.5854 35.1777 33.4692 34.0697 33.4692 32.7048V11.4897C33.4692 11.2757 33.6417 11.1045 33.862 11.1045H38.0487C38.269 11.1045 38.4415 11.2757 38.4415 11.4897H38.4463Z" fill="#F3F4F6"/>
<path fill-rule="evenodd" clip-rule="evenodd" d="M105.198 17.4202V34.7832C105.198 34.9972 105.016 35.1732 104.805 35.1732H102.707C101.337 35.1732 100.221 34.0651 100.221 32.7002V17.4155C100.221 17.2015 100.394 17.0303 100.609 17.0303H104.801C105.016 17.0303 105.193 17.2015 105.193 17.4155L105.198 17.4202Z" fill="#F3F4F6"/>
<path fill-rule="evenodd" clip-rule="evenodd" d="M84.3415 24.9771L81.7404 34.8832C81.6925 35.0544 81.544 35.1781 81.3571 35.1781H79.0674C77.3813 35.1781 76.1166 34.1746 75.7334 32.8906L71.1875 17.5345C71.1492 17.4156 71.1683 17.292 71.245 17.1921C71.3264 17.0875 71.4366 17.0352 71.5659 17.0352H75.8005C75.9873 17.0352 76.1358 17.1541 76.1837 17.3348L78.7081 28.1444C78.7465 28.3251 78.9046 28.444 79.0866 28.444C79.2734 28.4488 79.4315 28.3299 79.4746 28.1492L82.2098 17.33C82.2577 17.1493 82.4062 17.0352 82.593 17.0352H87.1054C87.2922 17.0352 87.4407 17.1493 87.4886 17.33L90.1664 28.1016C90.2143 28.2823 90.3676 28.4012 90.5496 28.4012C90.7364 28.3965 90.8945 28.2728 90.9328 28.0969L93.4525 17.3395C93.5004 17.1588 93.6489 17.0399 93.8357 17.0399H97.8116C97.9409 17.0399 98.0511 17.0922 98.1229 17.1969C98.2044 17.2967 98.2235 17.4156 98.1852 17.5393L93.074 34.9022C93.0213 35.0687 92.8728 35.1828 92.6956 35.1828H90.4729C88.9305 35.1828 87.5988 34.5028 87.2539 33.1997L85.0935 24.9867C85.0456 24.8154 84.8971 24.6966 84.7103 24.6966C84.5235 24.6966 84.3798 24.8107 84.3319 24.9867L84.3415 24.9771Z" fill="#F3F4F6"/>
<defs>
<linearGradient id="paint0_linear_33_22273" x1="0.694582" y1="42.4781" x2="0.694582" y2="-0.113763" gradientUnits="userSpaceOnUse">
<stop stop-color="#4EEC91"/>
<stop offset="0.4" stop-color="#19B5FE"/>
<stop offset="1" stop-color="#0287D0"/>
</linearGradient>
<linearGradient id="paint1_linear_33_22273" x1="2.78321" y1="42.478" x2="2.78321" y2="-0.113886" gradientUnits="userSpaceOnUse">
<stop stop-color="#4EEC91"/>
<stop offset="0.4" stop-color="#19B5FE"/>
<stop offset="1" stop-color="#0287D0"/>
</linearGradient>
<linearGradient id="paint2_linear_33_22273" x1="4.87647" y1="42.4785" x2="4.87647" y2="-0.1133" gradientUnits="userSpaceOnUse">
<stop stop-color="#4EEC91"/>
<stop offset="0.4" stop-color="#19B5FE"/>
<stop offset="1" stop-color="#0287D0"/>
</linearGradient>
<linearGradient id="paint3_linear_33_22273" x1="6.96503" y1="42.4782" x2="6.96503" y2="-0.113627" gradientUnits="userSpaceOnUse">
<stop stop-color="#4EEC91"/>
<stop offset="0.4" stop-color="#19B5FE"/>
<stop offset="1" stop-color="#0287D0"/>
</linearGradient>
<linearGradient id="paint4_linear_33_22273" x1="9.05835" y1="42.4782" x2="9.05835" y2="-0.113618" gradientUnits="userSpaceOnUse">
<stop stop-color="#4EEC91"/>
<stop offset="0.4" stop-color="#19B5FE"/>
<stop offset="1" stop-color="#0287D0"/>
</linearGradient>
<linearGradient id="paint5_linear_33_22273" x1="11.1516" y1="42.4779" x2="11.1516" y2="-0.113898" gradientUnits="userSpaceOnUse">
<stop stop-color="#4EEC91"/>
<stop offset="0.4" stop-color="#19B5FE"/>
<stop offset="1" stop-color="#0287D0"/>
</linearGradient>
<linearGradient id="paint6_linear_33_22273" x1="13.245" y1="42.4784" x2="13.245" y2="-0.113483" gradientUnits="userSpaceOnUse">
<stop stop-color="#4EEC91"/>
<stop offset="0.4" stop-color="#19B5FE"/>
<stop offset="1" stop-color="#0287D0"/>
</linearGradient>
<linearGradient id="paint7_linear_33_22273" x1="23.6972" y1="42.478" x2="23.6972" y2="-0.113886" gradientUnits="userSpaceOnUse">
<stop stop-color="#4EEC91"/>
<stop offset="0.4" stop-color="#19B5FE"/>
<stop offset="1" stop-color="#0287D0"/>
</linearGradient>
<linearGradient id="paint8_linear_33_22273" x1="21.6039" y1="42.4786" x2="21.6039" y2="-0.113307" gradientUnits="userSpaceOnUse">
<stop stop-color="#4EEC91"/>
<stop offset="0.4" stop-color="#19B5FE"/>
<stop offset="1" stop-color="#0287D0"/>
</linearGradient>
<linearGradient id="paint9_linear_33_22273" x1="19.5153" y1="42.4783" x2="19.5153" y2="-0.113541" gradientUnits="userSpaceOnUse">
<stop stop-color="#4EEC91"/>
<stop offset="0.4" stop-color="#19B5FE"/>
<stop offset="1" stop-color="#0287D0"/>
</linearGradient>
<linearGradient id="paint10_linear_33_22273" x1="17.4269" y1="42.478" x2="17.4269" y2="-0.113803" gradientUnits="userSpaceOnUse">
<stop stop-color="#4EEC91"/>
<stop offset="0.4" stop-color="#19B5FE"/>
<stop offset="1" stop-color="#0287D0"/>
</linearGradient>
<linearGradient id="paint11_linear_33_22273" x1="15.3335" y1="42.4779" x2="15.3335" y2="-0.113898" gradientUnits="userSpaceOnUse">
<stop stop-color="#4EEC91"/>
<stop offset="0.4" stop-color="#19B5FE"/>
<stop offset="1" stop-color="#0287D0"/>
</linearGradient>
<linearGradient id="paint12_linear_33_22273" x1="25.7858" y1="42.4781" x2="25.7858" y2="-0.113763" gradientUnits="userSpaceOnUse">
<stop stop-color="#4EEC91"/>
<stop offset="0.4" stop-color="#19B5FE"/>
<stop offset="1" stop-color="#0287D0"/>
</linearGradient>
<linearGradient id="paint13_linear_33_22273" x1="4.87647" y1="42.4787" x2="4.87647" y2="-0.113095" gradientUnits="userSpaceOnUse">
<stop stop-color="#4EEC91"/>
<stop offset="0.4" stop-color="#19B5FE"/>
<stop offset="1" stop-color="#0287D0"/>
</linearGradient>
<linearGradient id="paint14_linear_33_22273" x1="6.96503" y1="42.4783" x2="6.96503" y2="-0.11354" gradientUnits="userSpaceOnUse">
<stop stop-color="#4EEC91"/>
<stop offset="0.4" stop-color="#19B5FE"/>
<stop offset="1" stop-color="#0287D0"/>
</linearGradient>
<linearGradient id="paint15_linear_33_22273" x1="9.05835" y1="42.4781" x2="9.05835" y2="-0.113805" gradientUnits="userSpaceOnUse">
<stop stop-color="#4EEC91"/>
<stop offset="0.4" stop-color="#19B5FE"/>
<stop offset="1" stop-color="#0287D0"/>
</linearGradient>
</defs>
</svg>
