<svg width="381" height="79" viewBox="0 0 381 79" fill="none" xmlns="http://www.w3.org/2000/svg">
<path d="M119.768 77.3393V25.8594H128.768L144.968 55.9794L161.168 25.8594H169.868V77.3393H161.168V41.0993L147.728 66.1194H141.908L128.468 41.0993V77.3393H119.768ZM189.908 78.1793C187.148 78.1793 184.808 77.6394 182.828 76.6194C180.848 75.5994 179.348 74.1594 178.388 72.2994C177.368 70.4394 176.888 68.3994 176.888 66.1194C176.888 62.2794 178.028 59.4593 180.308 57.5993C182.588 55.7393 185.948 54.7794 190.328 54.7794H202.328V52.6793C202.328 49.7993 201.668 47.7593 200.408 46.6793C199.148 45.5993 197.108 45.0594 194.348 45.0594C191.888 45.0594 190.088 45.4194 188.888 46.1994C187.748 46.9794 187.028 48.0594 186.848 49.3794H179.108C179.228 47.1594 179.948 45.1793 181.208 43.4993C182.468 41.8193 184.268 40.4994 186.548 39.4794C188.828 38.5194 191.588 38.0394 194.708 38.0394C197.828 38.0394 200.588 38.5194 202.928 39.4794C205.268 40.4394 207.068 41.9394 208.388 44.0394C209.708 46.1394 210.308 48.8394 210.308 52.1994V67.4993C210.308 69.5393 210.308 71.3393 210.368 72.8393C210.368 74.3393 210.548 75.8394 210.728 77.2794H203.468C203.348 76.1394 203.228 75.2394 203.168 74.4594C203.108 73.6794 203.048 72.7194 203.048 71.5794C202.148 73.3794 200.528 74.8793 198.308 76.1993C196.028 77.4593 193.268 78.1194 189.968 78.1194L189.908 78.1793ZM192.068 71.2193C193.928 71.2193 195.608 70.9194 197.108 70.2594C198.608 69.5994 199.868 68.6994 200.828 67.4394C201.788 66.1794 202.268 64.6793 202.268 62.8793V60.7794H191.768C189.728 60.7794 188.108 61.1994 186.848 62.0994C185.588 62.9394 184.988 64.2594 184.988 65.9394C184.988 67.5594 185.528 68.8194 186.668 69.7794C187.808 70.7394 189.608 71.2193 192.068 71.2193ZM234.188 78.1793C230.828 78.1793 227.708 77.4593 224.828 76.0193C221.948 74.5793 219.668 72.4193 217.928 69.5393C216.188 66.6593 215.288 62.9393 215.288 58.4993V57.0594C215.288 52.7994 216.128 49.2594 217.808 46.4394C219.488 43.6194 221.708 41.5194 224.468 40.1394C227.228 38.7594 230.228 38.0993 233.468 38.0993C239.348 38.0993 243.788 39.6593 246.968 42.8393C250.088 45.9593 251.648 50.4593 251.648 56.3393V60.4193H223.448C223.568 63.0593 224.108 65.1593 225.128 66.7193C226.148 68.3393 227.468 69.4794 229.028 70.1394C230.648 70.8594 232.328 71.2193 234.188 71.2193C236.948 71.2193 238.988 70.7994 240.248 69.8994C241.508 68.9994 242.408 67.9194 242.888 66.4794H250.868C250.088 70.3194 248.168 73.1993 245.168 75.1793C242.168 77.1593 238.448 78.1793 234.188 78.1793ZM233.828 45.0594C232.028 45.0594 230.348 45.3593 228.848 46.0193C227.288 46.6793 226.028 47.6393 225.068 49.0193C224.108 50.3993 223.568 52.1994 223.448 54.4794H243.608C243.608 52.0794 243.128 50.1593 242.228 48.8393C241.388 47.4593 240.188 46.5594 238.748 45.9594C237.308 45.3594 235.628 45.1194 233.828 45.1194V45.0594ZM271.568 78.1793C268.748 78.1793 266.348 77.8793 264.308 77.2193C262.268 76.5593 260.588 75.7194 259.268 74.6394C257.948 73.5594 256.928 72.2994 256.208 70.9194C255.488 69.5394 255.068 68.0394 254.888 66.4794H262.868C263.228 67.8594 264.008 68.9393 265.328 69.8393C266.648 70.7393 268.688 71.1593 271.568 71.1593C274.748 71.1593 277.028 70.7393 278.348 69.8393C279.668 68.9393 280.328 67.8594 280.328 66.4194C280.328 65.5794 280.028 64.7994 279.428 64.0794C278.828 63.3594 277.808 62.6993 276.368 62.1593C274.928 61.6193 272.948 61.1994 270.428 60.8994C268.268 60.5994 266.288 60.1794 264.488 59.6394C262.688 59.0994 261.188 58.3193 259.928 57.4193C258.668 56.5193 257.708 55.3794 257.048 54.0594C256.388 52.7394 256.028 51.1794 256.028 49.3794C256.028 47.2794 256.568 45.4193 257.768 43.7393C258.908 42.0593 260.648 40.6793 262.988 39.6593C265.328 38.6393 268.208 38.0993 271.688 38.0993C275.168 38.0993 277.868 38.6394 280.028 39.7194C282.188 40.7994 283.808 42.2394 284.948 43.9794C286.088 45.7194 286.748 47.6993 286.988 49.7393H279.008C278.648 48.2393 277.808 47.0993 276.668 46.2593C275.468 45.4193 273.848 44.9993 271.748 44.9993C268.868 44.9993 266.888 45.4194 265.808 46.3194C264.668 47.2194 264.128 48.1794 264.128 49.3794C264.128 50.6394 264.728 51.7194 265.988 52.6194C267.248 53.5194 269.708 54.1794 273.368 54.5394C275.648 54.8394 277.688 55.2594 279.548 55.8594C281.408 56.4594 282.968 57.1794 284.288 58.1394C285.608 59.0994 286.628 60.2394 287.348 61.5594C288.068 62.9394 288.428 64.5594 288.428 66.4194C288.428 68.5794 287.828 70.5593 286.568 72.3593C285.308 74.0993 283.508 75.5393 280.988 76.5593C278.528 77.5793 275.408 78.1194 271.688 78.1194L271.568 78.1793ZM308.288 77.7594C305.408 77.7594 303.008 77.3393 301.208 76.4993C299.408 75.6593 298.088 74.3994 297.188 72.5994C296.348 70.8594 295.928 68.5794 295.928 65.7594V45.5993H290.468V38.7593H295.928V30.0594H303.908V38.7593H313.688V45.5993H303.908V64.6793C303.908 66.9593 304.328 68.5194 305.168 69.4194C306.008 70.3194 307.628 70.7394 310.088 70.7394C311.528 70.7394 312.968 70.6793 314.468 70.4993V77.3393C313.568 77.4593 312.608 77.5194 311.648 77.5794C310.688 77.6394 309.548 77.6993 308.288 77.6993V77.7594ZM319.148 77.3393V38.6994H326.528V45.2393C327.068 43.8594 327.788 42.6593 328.748 41.5793C329.708 40.4993 330.848 39.5994 332.228 38.9394C333.608 38.2794 335.168 37.9193 336.908 37.9193C338.108 37.9193 339.008 37.9194 339.608 38.0394C340.208 38.1594 340.628 38.2193 340.868 38.3393V45.5993C340.028 45.3593 339.308 45.1794 338.588 45.0594C337.928 44.9394 337.088 44.8794 336.128 44.8794C334.028 44.8794 332.348 45.3594 330.968 46.3194C329.588 47.2794 328.628 48.4793 327.968 49.9193C327.368 51.4193 327.008 52.9793 327.008 54.6593V77.3393H319.028H319.148ZM361.508 78.1793C357.968 78.1793 354.788 77.4594 351.908 75.9594C349.028 74.4594 346.808 72.2993 345.128 69.3593C343.448 66.4193 342.608 62.8193 342.608 58.4993V57.0594C342.608 52.9794 343.448 49.5593 345.128 46.7393C346.808 43.9193 349.088 41.7594 351.908 40.3194C354.788 38.8794 357.968 38.1593 361.508 38.1593C365.048 38.1593 368.288 38.8794 371.108 40.3194C373.928 41.7594 376.208 43.9193 377.828 46.7393C379.448 49.5593 380.348 53.0394 380.348 57.0594V58.4993C380.348 62.8193 379.508 66.4193 377.828 69.3593C376.148 72.2993 373.928 74.5194 371.108 75.9594C368.288 77.4594 365.048 78.1793 361.508 78.1793ZM361.508 71.2193C363.368 71.2193 365.108 70.7994 366.728 69.8994C368.348 68.9994 369.728 67.6794 370.748 65.8194C371.768 63.9594 372.248 61.4993 372.248 58.4993V57.0594C372.248 54.2994 371.768 52.0194 370.748 50.2794C369.728 48.5394 368.408 47.2194 366.728 46.3794C365.108 45.5394 363.368 45.1194 361.508 45.1194C359.648 45.1194 357.908 45.5394 356.288 46.3794C354.668 47.2194 353.288 48.5394 352.268 50.2794C351.248 52.0194 350.768 54.2994 350.768 57.0594V58.4993C350.768 61.4993 351.248 63.9594 352.268 65.8194C353.288 67.6794 354.608 69.0594 356.288 69.8994C357.908 70.7394 359.648 71.2193 361.508 71.2193Z" fill="white"/>
<path d="M23.102 56.16L12.182 67.08L3.24195 58.14L22.562 38.82H0.00195312V25.86H29.402V0H42.0619V10.38C42.0619 27.54 35.222 43.98 23.102 56.16ZM35.582 67.26V77.64H48.242V51.78H77.642V38.82H55.082L74.4019 19.5L65.4619 10.56L54.542 21.48C42.422 33.6 35.582 50.1 35.582 67.26Z" fill="white"/>
</svg>
