<svg width="620" height="156" viewBox="0 0 620 156" fill="none" xmlns="http://www.w3.org/2000/svg">
<path d="M136.298 19.1428L91.7589 40.1077C90.9078 40.5327 90.7659 41.8076 91.617 42.2326C96.8652 44.924 112.61 50.4486 121.121 63.9058C121.121 63.9058 101.83 45.6323 78 45.6323C54.1702 45.6323 34.8794 63.9058 34.8794 63.9058C43.3901 50.4486 59.1347 44.924 64.383 42.2326C65.234 41.8076 65.234 40.5327 64.2411 40.1077L19.7021 19.1428C18.9929 18.8594 18 19.4261 18 20.276V82.1794C18 100.311 27.2198 117.31 42.6808 126.942C42.8227 127.084 42.9645 127.084 43.1064 127.226C57.4326 136.008 71.3333 137 78 137C85.0922 137 98.5674 136.008 112.894 127.226C113.035 127.084 113.177 127.084 113.319 126.942C128.78 117.452 138 100.311 138 82.1794V20.276C137.858 19.2844 137.007 18.7178 136.298 19.1428Z" fill="#89AAFF"/>
<path fill-rule="evenodd" clip-rule="evenodd" d="M33.8429 85.689C35.1905 84.7252 37.0643 85.0363 38.0282 86.3839C38.7069 87.3328 43.4118 93.5792 51.1002 93.3465C51.1146 93.3461 51.129 93.3458 51.1434 93.3455C58.5082 93.2288 62.9847 87.3064 63.6445 86.3839C64.6083 85.0363 66.4822 84.7252 67.8298 85.689C69.1775 86.6529 69.4886 88.5268 68.5247 89.8744C67.7666 90.9343 61.7543 99.1669 51.2601 99.3444C40.2384 99.6663 33.8873 90.908 33.148 89.8744C32.1841 88.5268 32.4952 86.6529 33.8429 85.689Z" fill="#001947"/>
<path fill-rule="evenodd" clip-rule="evenodd" d="M88.169 85.689C89.5167 84.7252 91.3905 85.0363 92.3544 86.3839C93.0331 87.3328 97.738 93.5792 105.426 93.3465C105.441 93.3461 105.455 93.3458 105.47 93.3455C112.834 93.2288 117.311 87.3064 117.971 86.3839C118.935 85.0363 120.808 84.7252 122.156 85.689C123.504 86.6529 123.815 88.5268 122.851 89.8744C122.093 90.9343 116.081 99.1669 105.586 99.3444C94.5646 99.6663 88.2135 90.908 87.4742 89.8744C86.5103 88.5268 86.8214 86.6529 88.169 85.689Z" fill="#001947"/>
<path d="M69.4728 102.578L77.4161 107.961C77.9835 108.386 78.8345 108.386 79.26 107.961L87.2033 102.578C88.1962 101.87 87.6288 100.595 86.2104 100.595H70.3239C69.1891 100.595 68.4799 101.87 69.4728 102.578Z" fill="#001947"/>
<path d="M249.838 57.2069C246.22 53.4828 241.568 51.5172 235.883 51.5172C231.851 51.5172 228.233 52.3448 225.132 53.8966C222.031 55.4483 219.447 57.6207 217.586 60.5172C214.589 54.5172 209.317 51.5172 201.771 51.5172C198.049 51.6207 194.948 52.2414 192.467 53.4828C189.986 54.7241 187.816 56.4828 186.058 58.7586V56.0681C186.058 53.8975 184.299 52.1379 182.128 52.1379H172V101.484C172 103.654 173.76 105.414 175.93 105.414H186.575V76.3448C186.575 72.4138 187.506 69.3103 189.366 67.0345C191.227 64.7586 193.811 63.5172 197.016 63.5172C203.218 63.5172 206.319 67.5517 206.319 75.6207V101.484C206.319 103.654 208.079 105.414 210.249 105.414H220.894V76.2414C220.894 72.3103 221.825 69.2069 223.789 66.931C225.649 64.6552 228.233 63.5172 231.438 63.5172C237.537 63.5172 240.638 67.5517 240.638 75.6207V101.484C240.638 103.654 242.398 105.414 244.568 105.414H255.213V76.1379C255.213 67.3448 253.352 61.0345 249.838 57.2069Z" fill="white"/>
<path d="M279.769 32.3793C278.115 30.8276 276.151 30 273.774 30C271.293 30 269.329 30.8276 267.675 32.3793C266.021 33.931 265.297 35.8966 265.297 38.1724C265.297 40.5517 266.021 42.5172 267.675 44.069C269.329 45.7241 271.293 46.4483 273.774 46.4483C276.151 46.4483 278.115 45.7241 279.769 44.069C281.32 42.5172 282.147 40.5517 282.147 38.1724C282.147 35.8966 281.32 33.931 279.769 32.3793ZM266.434 52.1379V101.38C266.434 103.551 268.194 105.31 270.365 105.31H281.01V56.0681C281.01 53.8975 279.25 52.1379 277.08 52.1379H266.434Z" fill="white"/>
<path d="M339.027 57.3103C334.996 53.4828 329.931 51.5172 323.728 51.5172C319.8 51.5172 316.596 52.2414 314.012 53.4828C311.324 54.7241 309.153 56.4828 307.292 58.7586V56.0681C307.292 53.8975 305.533 52.1379 303.362 52.1379H293.234V101.38C293.234 103.551 294.994 105.31 297.164 105.31H307.809V78.1034C307.809 73.5517 308.843 69.931 310.91 67.3448C312.978 64.8621 315.872 63.5172 319.697 63.5172C326.829 63.5172 330.447 68.1724 330.447 77.2759V101.38C330.447 103.551 332.207 105.31 334.378 105.31H345.023V76.4483C345.023 67.5517 342.955 61.2414 339.027 57.3103Z" fill="white"/>
<path d="M368.161 87.6207H354.31C354.517 93.3103 356.997 97.7586 361.649 101.069C366.197 104.379 372.193 105.931 379.636 105.931C384.391 105.931 388.525 105.31 392.143 103.862C395.761 102.414 398.552 100.448 400.62 97.7586C402.687 95.1724 403.721 92.1724 403.721 88.6552C403.721 83.2759 401.757 79.4483 397.932 77.1724C394.107 74.8966 388.629 73.3448 381.496 72.5172C378.085 72.2069 375.707 71.8965 374.26 71.5862C372.813 71.3793 371.573 70.8621 370.746 70.2414C369.815 69.6207 369.402 68.6897 369.402 67.4483C369.402 65.7931 370.229 64.3448 371.883 63.3103C373.537 62.2759 375.811 61.7586 378.602 61.7586C381.496 61.7586 383.977 62.4828 385.838 63.7241C387.698 64.9655 388.836 66.6207 389.042 68.5862H402.894C402.48 63.2069 400.103 59.069 395.658 55.9655C391.213 52.9655 385.424 51.4138 378.188 51.3103C373.64 51.3103 369.712 52.0345 366.301 53.4828C362.786 54.931 360.099 57 358.238 59.6897C356.377 62.3793 355.447 65.3793 355.447 68.7931C355.447 72.3103 356.377 75 358.238 77.069C360.099 79.1379 362.579 80.6897 365.681 81.6207C368.782 82.6552 372.606 83.3793 377.361 84C380.773 84.4138 383.254 84.8276 384.804 85.1379C386.251 85.4483 387.492 85.9655 388.319 86.5862C389.146 87.3103 389.559 88.3448 389.559 89.6897C389.559 91.5517 388.629 93 386.871 94.0345C385.011 95.069 382.633 95.4827 379.532 95.4827C376.224 95.4827 373.64 94.7586 371.573 93.3103C369.505 91.8621 368.368 90 368.161 87.6207Z" fill="white"/>
<path d="M407.384 52.1379L423.865 102.6C424.393 104.217 425.901 105.31 427.601 105.31H440.256L449.766 73.2414L458.247 102.475C458.734 104.155 460.272 105.31 462.021 105.31H474.575L490.35 57.2948C491.185 54.753 489.292 52.1379 486.616 52.1379H477.159L466.305 89.6897L457.351 55.0835C456.902 53.3493 455.337 52.1379 453.546 52.1379H443.46L433.433 89.5862L423.598 54.9933C423.118 53.3036 421.574 52.1379 419.818 52.1379H407.384Z" fill="white"/>
<path d="M549.094 93H547.44C546.2 93 545.373 92.7931 544.856 92.2759C544.236 91.8621 544.029 90.931 544.029 89.5862V70.8621C544.029 64.6552 541.962 59.7931 537.827 56.4828C533.692 53.1724 527.903 51.5172 520.461 51.5172C513.225 51.5172 507.539 53.069 503.198 56.069C498.856 59.069 496.375 63.3103 495.962 68.6897H510.02C510.33 66.7241 511.364 65.1724 513.121 63.931C514.775 62.7931 517.049 62.1724 519.737 62.1724C522.735 62.1724 525.112 62.8966 526.973 64.3448C528.73 65.7931 529.661 67.6552 529.661 70.0345V72.6207H519.117C511.157 72.6207 505.059 74.1724 500.924 77.2759C496.789 80.3793 494.721 84.7241 494.721 90.3103C494.721 95.2759 496.479 99.2069 500.097 101.897C503.715 104.586 508.47 105.931 514.465 105.931C518.393 105.931 521.805 105.207 524.699 103.552C527.49 102 529.867 99.7241 531.831 96.6207C531.625 102.414 534.933 105.31 541.652 105.31H545.164C547.335 105.31 549.094 103.551 549.094 101.38V93ZM529.661 82.3448V83.3793C529.557 87.1034 528.42 90 526.249 92.1724C523.975 94.3448 520.978 95.3793 517.256 95.3793C514.775 95.3793 512.915 94.8621 511.467 93.7241C510.02 92.6897 509.4 91.1379 509.4 89.2759C509.4 87.1034 510.227 85.4483 511.881 84.2069C513.535 82.9655 515.912 82.3448 519.014 82.3448H529.661Z" fill="white"/>
<path d="M600.112 54.931C596.391 52.6552 592.256 51.5172 587.501 51.5172C583.78 51.5172 580.575 52.2414 577.784 53.6897C574.993 55.1379 572.719 57.1034 570.962 59.4828V56.0681C570.962 53.8975 569.202 52.1379 567.032 52.1379H556.8V122.07C556.8 124.24 558.56 126 560.73 126H571.375V98.5862C575.2 103.552 580.575 105.931 587.398 105.931C592.153 105.931 596.391 104.897 600.112 102.621C603.834 100.345 606.728 97.2414 608.796 93.1034C610.863 89.069 612 84.3103 612 78.8276C612 73.4483 610.863 68.5862 608.796 64.4483C606.728 60.3103 603.834 57.2069 600.112 54.931ZM593.6 89.7931C591.119 92.6897 588.018 94.0345 584.09 94.0345C580.162 94.0345 576.957 92.6897 574.683 89.7931C572.306 87 571.169 83.2759 571.169 78.6207C571.169 74.069 572.306 70.4483 574.683 67.6552C576.957 64.8621 580.162 63.4138 584.09 63.4138C588.018 63.4138 591.119 64.8621 593.6 67.6552C595.978 70.4483 597.218 74.069 597.218 78.6207C597.218 83.1724 595.978 86.8966 593.6 89.7931Z" fill="white"/>
</svg>
