<?xml version="1.0" encoding="UTF-8"?>
<!DOCTYPE svg PUBLIC "-//W3C//DTD SVG 1.1//EN" "http://www.w3.org/Graphics/SVG/1.1/DTD/svg11.dtd">
<svg xmlns="http://www.w3.org/2000/svg" version="1.1" width="2126px" height="2126px" style="shape-rendering:geometricPrecision; text-rendering:geometricPrecision; image-rendering:optimizeQuality; fill-rule:evenodd; clip-rule:evenodd" xmlns:xlink="http://www.w3.org/1999/xlink">
<g><path style="opacity:0.999" fill="#24b11b" d="M 1016.5,-0.5 C 1047.5,-0.5 1078.5,-0.5 1109.5,-0.5C 1394.41,16.0682 1635.91,126.068 1834,329.5C 2013.8,522.549 2110.97,751.549 2125.5,1016.5C 2125.5,1046.83 2125.5,1077.17 2125.5,1107.5C 2109.14,1393.33 1998.81,1635.5 1794.5,1834C 1590.27,2022.96 1348.27,2120.13 1068.5,2125.5C 1064.5,2125.5 1060.5,2125.5 1056.5,2125.5C 778.213,2119.84 537.213,2023.34 333.5,1836C 133.637,1643.4 23.1369,1407.9 2,1129.5C 1.17415,1110.67 0.340821,1092.01 -0.5,1073.5C -0.5,1065.83 -0.5,1058.17 -0.5,1050.5C 6.36609,773.574 103.199,533.907 290,331.5C 488.398,126.912 730.564,16.2457 1016.5,-0.5 Z"/></g>
<g><path style="opacity:1" fill="#fefefe" d="M 1169.5,432.5 C 1197.26,445.206 1223.26,460.706 1247.5,479C 1374.76,575.9 1481.26,691.4 1567,825.5C 1637.01,937.86 1680.68,1059.86 1698,1191.5C 1709.99,1279.3 1711.66,1367.3 1703,1455.5C 1699.12,1491.79 1692.12,1527.45 1682,1562.5C 1678.47,1574.08 1673.97,1585.25 1668.5,1596C 1652.99,1593.72 1637.99,1589.39 1623.5,1583C 1574.13,1558.93 1529.13,1528.6 1488.5,1492C 1368.69,1382.59 1277.86,1252.76 1216,1102.5C 1182.05,1011.37 1160.39,917.371 1151,820.5C 1140.34,718.079 1141.01,615.745 1153,513.5C 1156.52,486.064 1162.02,459.064 1169.5,432.5 Z"/></g>
<g><path style="opacity:1" fill="#fefefe" d="M 973.5,648.5 C 977.302,649.779 980.469,652.112 983,655.5C 1007.72,684.555 1029.72,715.555 1049,748.5C 1108.31,850.099 1144.64,959.432 1158,1076.5C 1170.43,1240.8 1130.43,1390.8 1038,1526.5C 1026.05,1542.72 1013.39,1558.38 1000,1573.5C 992.046,1581.63 983.713,1589.3 975,1596.5C 945.333,1576.17 920.333,1551.17 900,1521.5C 857.797,1458.74 827.797,1390.41 810,1316.5C 775.27,1173.65 783.27,1033.32 834,895.5C 860.048,825.734 893.714,760.068 935,698.5C 947.116,681.262 959.949,664.595 973.5,648.5 Z"/></g>
<g><path style="opacity:1" fill="#fefefe" d="M 736.5,892.5 C 737.79,893.058 738.623,894.058 739,895.5C 750.875,935.955 757.542,977.288 759,1019.5C 764.648,1124.25 747.981,1225.25 709,1322.5C 668.699,1415.14 608.532,1492.3 528.5,1554C 505.675,1571.45 480.842,1585.61 454,1596.5C 447.981,1587.8 442.981,1578.47 439,1568.5C 426.965,1536.27 420.299,1502.93 419,1468.5C 415.144,1299.69 468.811,1152.36 580,1026.5C 626.077,974.221 678.244,929.554 736.5,892.5 Z"/></g>
</svg>
