<svg width="73" height="14" viewBox="0 0 73 14" fill="none" xmlns="http://www.w3.org/2000/svg">
<path d="M20.1218 13.2374V3.99783L26.7743 13.2374H29.1581V0.493164H26.9591V9.72638L20.2512 0.493164H17.9043V13.2374H20.1218Z" fill="white"/>
<path d="M44.2299 3.53585H44.2857V13.2374H46.5032V0.493164H43.2322L39.5177 10.7243L35.7481 0.493164H32.4404V13.2374H34.6579V3.53585L38.2614 13.2559H40.6822L44.2299 3.53585Z" fill="white"/>
<path d="M49.7915 0.493164V13.2374H52.0276V9.37527L53.9307 7.32408L57.6823 13.2374H60.3432L55.4829 5.55008L59.8441 0.493164H57.017L53.7459 4.44133L52.0276 6.6034V0.493164H49.7915Z" fill="white"/>
<path d="M71.9586 4.33C71.9586 1.44724 70.0927 0.486328 67.487 0.486328L62.0356 0.492701V13.237H64.2717V8.21062H67.1541L69.6307 13.237H72.0882V13.1076L69.4087 7.93343C70.8685 7.50841 71.9586 6.3627 71.9586 4.33ZM64.2717 2.3712H67.487C68.8729 2.3712 69.6859 3.05493 69.6859 4.34848C69.6859 5.64202 68.8358 6.32575 67.487 6.32575H64.2717V2.3712Z" fill="white"/>
<path d="M0.912109 5.79643V0.486328H12.5943V5.79643H10.4703V7.38947L7.28424 5.79643V7.38947L4.09817 5.79643V7.38947L0.912109 5.79643Z" fill="white"/>
<path d="M0.912109 11.1077V13.2317H12.5943V11.1077H0.912109Z" fill="white"/>
</svg>
