<svg xmlns="http://www.w3.org/2000/svg" viewBox="0 0 152.782 16.984" overflow="visible"><g><path d="M 3.26 7.767 C 5.06 7.767 6.519 6.308 6.519 4.507 C 6.519 2.707 5.06 1.248 3.26 1.248 C 1.459 1.248 0 2.707 0 4.507 C 0 6.308 1.459 7.767 3.26 7.767 Z M 10.45 16.719 C 12.25 16.719 13.709 15.26 13.709 13.46 C 13.709 11.659 12.25 10.2 10.45 10.2 C 8.649 10.2 7.19 11.659 7.19 13.46 C 7.19 15.26 8.649 16.719 10.45 16.719 Z M 18.061 7.767 C 19.861 7.767 21.32 6.308 21.32 4.507 C 21.32 2.707 19.861 1.248 18.061 1.248 C 16.26 1.248 14.801 2.707 14.801 4.507 C 14.801 6.308 16.26 7.767 18.061 7.767 Z M 32.939 16.719 C 34.74 16.719 36.199 15.26 36.199 13.46 C 36.199 11.659 34.74 10.2 32.939 10.2 C 31.139 10.2 29.68 11.659 29.68 13.46 C 29.68 15.26 31.139 16.719 32.939 16.719 Z M 25.75 7.767 C 27.55 7.767 29.009 6.308 29.009 4.507 C 29.009 2.707 27.55 1.248 25.75 1.248 C 23.949 1.248 22.49 2.707 22.49 4.507 C 22.49 6.308 23.949 7.767 25.75 7.767 Z M 18.139 16.719 C 19.939 16.719 21.398 15.26 21.398 13.46 C 21.398 11.659 19.939 10.2 18.139 10.2 C 16.338 10.2 14.879 11.659 14.879 13.46 C 14.879 15.26 16.338 16.719 18.139 16.719 Z" fill="rgb(253,83,0)"/><path d="M 55.351 0.094 L 54.572 0.094 C 54.01 0.094 53.573 0.53 53.573 1.076 L 53.573 8.89 C 53.573 9.233 53.293 9.514 52.934 9.514 L 52.154 9.514 C 51.795 9.514 51.515 9.233 51.515 8.89 L 51.515 5.786 C 51.515 5.24 51.078 4.804 50.517 4.804 L 49.737 4.804 C 49.378 4.804 49.097 4.523 49.097 4.18 L 49.097 3.431 C 49.097 2.885 48.661 2.449 48.099 2.449 L 47.319 2.449 C 46.961 2.449 46.68 2.168 46.68 1.825 L 46.68 1.076 C 46.68 0.53 46.243 0.094 45.682 0.094 L 44.902 0.094 C 44.34 0.094 43.904 0.53 43.904 1.076 L 43.904 15.939 C 43.904 16.485 44.34 16.922 44.902 16.922 L 45.682 16.922 C 46.243 16.922 46.68 16.485 46.68 15.939 L 46.68 5.786 C 46.68 5.443 46.961 5.162 47.319 5.162 L 48.099 5.162 C 48.458 5.162 48.739 5.443 48.739 5.786 L 48.739 8.89 C 48.739 9.436 49.175 9.872 49.737 9.872 L 50.517 9.872 C 50.875 9.872 51.156 10.153 51.156 10.496 L 51.156 11.245 C 51.156 11.791 51.593 12.228 52.154 12.228 L 52.934 12.228 C 53.293 12.228 53.573 12.508 53.573 12.851 L 53.573 15.955 C 53.573 16.501 54.01 16.938 54.572 16.938 L 55.351 16.938 C 55.913 16.938 56.35 16.501 56.35 15.955 L 56.35 1.061 C 56.35 0.515 55.913 0.078 55.351 0.078 Z" fill="rgb(26,26,26)"/><path d="M 70.012 14.661 L 70.667 14.661 C 71.135 14.661 71.509 15.035 71.509 15.503 L 71.509 16.142 C 71.509 16.61 71.135 16.984 70.667 16.984 L 70.012 16.984 C 69.544 16.984 69.17 16.61 69.17 16.142 L 69.17 15.503 C 69.17 15.035 69.544 14.661 70.012 14.661 Z" fill="rgb(253,83,0)"/><path d="M 69.747 13.6 L 69.747 3.447 C 69.747 2.901 69.31 2.464 68.749 2.464 L 67.969 2.464 C 67.61 2.464 67.329 2.183 67.329 1.84 L 67.329 1.092 C 67.329 0.546 66.893 0.109 66.331 0.109 L 60.732 0.109 C 60.171 0.109 59.734 0.546 59.734 1.092 L 59.734 1.84 C 59.734 2.183 59.453 2.464 59.094 2.464 L 58.315 2.464 C 57.753 2.464 57.317 2.901 57.317 3.447 L 57.317 13.6 C 57.317 14.146 57.753 14.583 58.315 14.583 L 59.094 14.583 C 59.453 14.583 59.734 14.863 59.734 15.206 L 59.734 15.955 C 59.734 16.501 60.171 16.938 60.732 16.938 L 66.331 16.938 C 66.893 16.938 67.329 16.501 67.329 15.955 L 67.329 15.206 C 67.329 14.863 67.61 14.583 67.969 14.583 L 68.749 14.583 C 69.31 14.583 69.747 14.146 69.747 13.6 Z M 66.986 13.6 C 66.986 13.943 66.705 14.224 66.347 14.224 L 60.748 14.224 C 60.389 14.224 60.108 13.943 60.108 13.6 L 60.108 3.447 C 60.108 3.104 60.389 2.823 60.748 2.823 L 66.347 2.823 C 66.705 2.823 66.986 3.104 66.986 3.447 Z M 82.271 0.125 L 81.491 0.125 C 80.929 0.125 80.493 0.561 80.493 1.107 L 80.493 13.616 C 80.493 13.959 80.212 14.239 79.853 14.239 L 79.073 14.239 C 78.715 14.239 78.434 13.959 78.434 13.616 L 78.434 5.802 C 78.434 5.256 77.997 4.819 77.436 4.819 L 76.656 4.819 C 76.094 4.819 75.658 5.256 75.658 5.802 L 75.658 13.616 C 75.658 13.959 75.377 14.239 75.018 14.239 L 74.239 14.239 C 73.88 14.239 73.599 13.959 73.599 13.616 L 73.599 1.092 C 73.599 0.546 73.162 0.109 72.601 0.109 L 71.821 0.109 C 71.26 0.109 70.823 0.546 70.823 1.092 L 70.823 13.6 C 70.823 14.146 71.26 14.583 71.821 14.583 L 72.601 14.583 C 72.96 14.583 73.24 14.863 73.24 15.206 L 73.24 15.955 C 73.24 16.501 73.677 16.938 74.239 16.938 L 75.018 16.938 C 75.58 16.938 76.017 16.501 76.017 15.955 L 76.017 15.206 C 76.017 14.863 76.297 14.583 76.656 14.583 L 77.436 14.583 C 77.794 14.583 78.075 14.863 78.075 15.206 L 78.075 15.955 C 78.075 16.501 78.512 16.938 79.073 16.938 L 79.853 16.938 C 80.415 16.938 80.851 16.501 80.851 15.955 L 80.851 15.206 C 80.851 14.863 81.132 14.583 81.491 14.583 L 82.271 14.583 C 82.832 14.583 83.269 14.146 83.269 13.6 L 83.269 1.092 C 83.269 0.546 82.832 0.109 82.271 0.109 Z M 99.177 0.125 L 95.995 0.125 C 95.434 0.125 94.997 0.561 94.997 1.107 L 94.997 1.856 C 94.997 2.199 94.717 2.48 94.358 2.48 L 93.578 2.48 C 93.219 2.48 92.939 2.199 92.939 1.856 L 92.939 1.107 C 92.939 0.561 92.502 0.125 91.94 0.125 L 88.759 0.125 C 88.197 0.125 87.761 0.561 87.761 1.107 L 87.761 1.856 C 87.761 2.402 88.197 2.839 88.759 2.839 L 91.94 2.839 C 92.299 2.839 92.58 3.119 92.58 3.462 L 92.58 15.971 C 92.58 16.517 93.017 16.953 93.578 16.953 L 94.358 16.953 C 94.919 16.953 95.356 16.517 95.356 15.971 L 95.356 3.447 C 95.356 3.104 95.637 2.823 95.995 2.823 L 99.177 2.823 C 99.739 2.823 100.175 2.386 100.175 1.84 L 100.175 1.092 C 100.175 0.546 99.739 0.109 99.177 0.109 Z M 112.45 0.125 L 111.67 0.125 C 111.108 0.125 110.672 0.561 110.672 1.107 L 110.672 8.921 C 110.672 9.264 110.391 9.545 110.032 9.545 L 109.252 9.545 C 108.894 9.545 108.613 9.264 108.613 8.921 L 108.613 5.817 C 108.613 5.272 108.176 4.835 107.615 4.835 L 106.835 4.835 C 106.476 4.835 106.195 4.554 106.195 4.211 L 106.195 3.462 C 106.195 2.917 105.759 2.48 105.197 2.48 L 104.417 2.48 C 104.059 2.48 103.778 2.199 103.778 1.856 L 103.778 1.107 C 103.778 0.561 103.341 0.125 102.78 0.125 L 102 0.125 C 101.439 0.125 101.002 0.561 101.002 1.107 L 101.002 15.971 C 101.002 16.517 101.439 16.953 102 16.953 L 102.78 16.953 C 103.341 16.953 103.778 16.517 103.778 15.971 L 103.778 5.817 C 103.778 5.474 104.059 5.194 104.417 5.194 L 105.197 5.194 C 105.556 5.194 105.837 5.474 105.837 5.817 L 105.837 8.921 C 105.837 9.467 106.273 9.904 106.835 9.904 L 107.615 9.904 C 107.973 9.904 108.254 10.184 108.254 10.528 L 108.254 11.276 C 108.254 11.822 108.691 12.259 109.252 12.259 L 110.032 12.259 C 110.391 12.259 110.672 12.539 110.672 12.883 L 110.672 15.986 C 110.672 16.532 111.108 16.969 111.67 16.969 L 112.45 16.969 C 113.011 16.969 113.448 16.532 113.448 15.986 L 113.448 1.092 C 113.448 0.546 113.011 0.109 112.45 0.109 Z M 125.706 0.125 L 117.721 0.125 C 117.16 0.125 116.723 0.561 116.723 1.107 L 116.723 1.856 C 116.723 2.199 116.427 2.48 116.052 2.48 L 115.304 2.48 C 114.742 2.48 114.306 2.917 114.306 3.462 L 114.306 4.211 C 114.306 4.757 114.742 5.194 115.304 5.194 L 116.052 5.194 C 116.427 5.194 116.723 5.474 116.723 5.817 L 116.723 6.566 C 116.723 7.112 117.16 7.549 117.721 7.549 L 118.47 7.549 C 118.844 7.549 119.14 7.829 119.14 8.172 L 119.14 8.921 C 119.14 9.264 118.844 9.545 118.47 9.545 L 115.304 9.545 C 114.742 9.545 114.306 9.982 114.306 10.528 L 114.306 13.631 C 114.306 14.177 114.742 14.614 115.304 14.614 L 116.052 14.614 C 116.427 14.614 116.723 14.894 116.723 15.238 L 116.723 15.986 C 116.723 16.532 117.16 16.969 117.721 16.969 L 125.706 16.969 C 126.268 16.969 126.736 16.532 126.736 15.986 L 126.736 15.238 C 126.736 14.692 126.283 14.255 125.706 14.255 L 117.721 14.255 C 117.362 14.255 117.082 13.974 117.082 13.631 L 117.082 12.883 C 117.082 12.539 117.362 12.259 117.721 12.259 L 118.47 12.259 C 119.031 12.259 119.499 11.822 119.499 11.276 L 119.499 10.528 C 119.499 10.184 119.78 9.904 120.139 9.904 L 123.305 9.904 C 123.866 9.904 124.334 9.467 124.334 8.921 L 124.334 8.172 C 124.334 7.627 123.882 7.19 123.305 7.19 L 120.139 7.19 C 119.78 7.19 119.499 6.909 119.499 6.566 L 119.499 5.817 C 119.499 5.272 119.047 4.835 118.47 4.835 L 117.721 4.835 C 117.362 4.835 117.082 4.554 117.082 4.211 L 117.082 3.462 C 117.082 3.119 117.362 2.839 117.721 2.839 L 125.706 2.839 C 126.268 2.839 126.736 2.402 126.736 1.856 L 126.736 1.107 C 126.736 0.561 126.283 0.125 125.706 0.125 Z M 151.004 5.194 L 151.752 5.194 C 152.314 5.194 152.782 4.757 152.782 4.211 L 152.782 3.462 C 152.782 2.917 152.329 2.48 151.752 2.48 L 151.004 2.48 C 150.645 2.48 150.364 2.199 150.364 1.856 L 150.364 1.107 C 150.364 0.561 149.912 0.125 149.335 0.125 L 143.767 0.125 C 143.205 0.125 142.769 0.546 142.769 1.107 L 142.769 1.856 C 142.769 2.199 142.472 2.48 142.098 2.48 L 141.35 2.48 C 140.788 2.48 140.351 2.917 140.351 3.462 L 140.351 6.566 C 140.351 7.112 140.788 7.549 141.35 7.549 L 142.098 7.549 C 142.472 7.549 142.769 7.829 142.769 8.172 L 142.769 8.921 C 142.769 9.467 143.205 9.904 143.767 9.904 L 149.335 9.904 C 149.709 9.904 150.005 10.184 150.005 10.528 L 150.005 13.631 C 150.005 13.974 149.709 14.255 149.335 14.255 L 143.783 14.255 C 143.408 14.255 143.112 13.974 143.112 13.631 L 143.112 12.883 C 143.112 12.337 142.675 11.9 142.114 11.9 L 141.365 11.9 C 140.804 11.9 140.336 12.337 140.336 12.883 L 140.336 13.631 C 140.336 14.177 140.788 14.614 141.365 14.614 L 142.114 14.614 C 142.472 14.614 142.753 14.894 142.753 15.238 L 142.753 15.986 C 142.753 16.532 143.205 16.969 143.783 16.969 L 149.35 16.969 C 149.912 16.969 150.349 16.548 150.349 15.986 L 150.349 15.238 C 150.349 14.894 150.645 14.614 151.019 14.614 L 151.768 14.614 C 152.329 14.614 152.766 14.177 152.766 13.631 L 152.766 10.528 C 152.766 9.982 152.329 9.545 151.768 9.545 L 151.019 9.545 C 150.645 9.545 150.349 9.264 150.349 8.921 L 150.349 8.172 C 150.349 7.627 149.912 7.19 149.35 7.19 L 143.783 7.19 C 143.408 7.19 143.112 6.909 143.112 6.566 L 143.112 3.462 C 143.112 3.119 143.408 2.839 143.783 2.839 L 149.335 2.839 C 149.709 2.839 150.005 3.119 150.005 3.462 L 150.005 4.211 C 150.005 4.757 150.442 5.194 151.004 5.194 Z M 86.918 3.572 L 84.205 3.572 L 84.205 16.953 L 86.918 16.953 Z M 85.14 2.714 L 85.92 2.714 C 86.482 2.714 86.918 2.277 86.918 1.731 L 86.918 0.983 C 86.918 0.437 86.482 0 85.92 0 L 85.14 0 C 84.579 0 84.142 0.437 84.142 0.983 L 84.142 1.731 C 84.142 2.277 84.579 2.714 85.14 2.714 Z M 138.573 2.48 L 137.825 2.48 C 137.466 2.48 137.185 2.199 137.185 1.856 L 137.185 1.107 C 137.185 0.561 136.733 0.125 136.156 0.125 L 130.588 0.125 C 130.027 0.125 129.59 0.546 129.59 1.107 L 129.59 1.856 C 129.59 2.199 129.294 2.48 128.919 2.48 L 128.171 2.48 C 127.609 2.48 127.172 2.917 127.172 3.462 L 127.172 6.566 C 127.172 7.112 127.609 7.549 128.171 7.549 L 128.919 7.549 C 129.294 7.549 129.59 7.829 129.59 8.172 L 129.59 8.921 C 129.59 9.467 130.027 9.904 130.588 9.904 L 136.156 9.904 C 136.53 9.904 136.827 10.184 136.827 10.528 L 136.827 13.631 C 136.827 13.974 136.53 14.255 136.156 14.255 L 130.604 14.255 C 130.229 14.255 129.933 13.974 129.933 13.631 L 129.933 12.883 C 129.933 12.337 129.496 11.9 128.935 11.9 L 128.186 11.9 C 127.625 11.9 127.157 12.337 127.157 12.883 L 127.157 13.631 C 127.157 14.177 127.609 14.614 128.186 14.614 L 128.935 14.614 C 129.294 14.614 129.574 14.894 129.574 15.238 L 129.574 15.986 C 129.574 16.532 130.027 16.969 130.604 16.969 L 136.172 16.969 C 136.733 16.969 137.17 16.548 137.17 15.986 L 137.17 15.238 C 137.17 14.894 137.466 14.614 137.84 14.614 L 138.589 14.614 C 139.15 14.614 139.587 14.177 139.587 13.631 L 139.587 10.528 C 139.587 9.982 139.15 9.545 138.589 9.545 L 137.84 9.545 C 137.466 9.545 137.17 9.264 137.17 8.921 L 137.17 8.172 C 137.17 7.627 136.733 7.19 136.172 7.19 L 130.604 7.19 C 130.229 7.19 129.933 6.909 129.933 6.566 L 129.933 3.462 C 129.933 3.119 130.229 2.839 130.604 2.839 L 136.156 2.839 C 136.53 2.839 136.827 3.119 136.827 3.462 L 136.827 4.211 C 136.827 4.757 137.263 5.194 137.825 5.194 L 138.573 5.194 C 139.135 5.194 139.603 4.757 139.603 4.211 L 139.603 3.462 C 139.603 2.917 139.15 2.48 138.573 2.48 Z" fill="rgb(26,26,26)"/></g></svg>
