<?xml version="1.0" encoding="UTF-8"?>
<!-- Generated by Pixelmator Pro 3.5.8 -->
<svg width="625" height="120" viewBox="0 0 625 120" xmlns="http://www.w3.org/2000/svg">
    <path id="Path" fill="#001938" stroke="none" d="M 0 80.400002 L 39.599998 80.400002 L 39.599998 120 L 0 120 Z"/>
    <path id="path1" fill="#001938" stroke="none" d="M 39.700001 0 L 39.700001 0 L 39.700001 80.400002 L 120 80.400002 L 120 0 L 39.700001 0 Z M 80.400002 39.699997 L 80.400002 39.699997 L 80.400002 39.699997 L 80.400002 39.699997 Z"/>
    <path id="path2" fill="#001938" stroke="none" d="M 527 103.599998 L 548.400024 28 L 571.700012 28 L 593.099976 103.599998 L 579.299988 103.599998 L 574.599976 86.300003 L 545.5 86.300003 L 540.799988 103.599998 L 527 103.599998 Z M 548.599976 74.400002 L 571.400024 74.400002 L 560.900024 36.099998 L 559 36.099998 L 548.599976 74.400002 Z"/>
    <path id="path3" fill="#001938" stroke="none" d="M 434.700012 103.599998 L 434.700012 28 L 459.700012 28 L 474.799988 94.900002 L 476.700012 94.900002 L 492 28 L 517 28 L 517 103.599998 L 504.100006 103.599998 L 504.100006 37.400002 L 502.200012 37.400002 L 487 103.599998 L 464.700012 103.599998 L 449.600006 37.400002 L 447.700012 37.400002 L 447.700012 103.599998 L 434.700012 103.599998 Z"/>
    <path id="path4" fill="#001938" stroke="none" d="M 286 103.599998 L 307.299988 28 L 330.600006 28 L 352 103.599998 L 338.200012 103.599998 L 333.5 86.300003 L 304.399994 86.300003 L 299.700012 103.599998 L 286 103.599998 Z M 307.600006 74.400002 L 330.399994 74.400002 L 319.899994 36.099998 L 318 36.099998 L 307.600006 74.400002 Z"/>
    <path id="path5" fill="#001938" stroke="none" d="M 221.100006 103.599998 L 221.100006 28 L 254.399994 28 C 259.299988 28 263.600006 28.800003 267.200012 30.5 C 270.799988 32.199997 273.700012 34.5 275.700012 37.5 C 277.799988 40.5 278.799988 44 278.799988 48.199997 L 278.799988 49.400002 C 278.799988 54.099998 277.700012 57.799999 275.299988 60.599998 C 272.899994 63.400002 270.200012 65.5 267 66.800003 L 267 68.5 C 269.899994 68.599998 272.200012 69.599998 273.799988 71.400002 C 275.5 73.199997 276.399994 75.599998 276.399994 78.599998 L 276.399994 103.599998 L 263 103.599998 L 263 80.5 C 263 78.699997 262.5 77.300003 261.399994 76.199997 C 260.399994 75 258.799988 74.5 256.600006 74.5 L 234.600006 74.5 L 234.600006 103.699997 L 221.100006 103.699997 Z M 234.5 62.700001 L 253 62.700001 C 256.899994 62.700001 259.899994 61.700001 262 59.799999 C 264.200012 57.799999 265.299988 55.099998 265.299988 51.800003 L 265.299988 50.800003 C 265.299988 47.400002 264.200012 44.800003 262.100006 42.800003 C 259.899994 40.800003 256.899994 39.800003 253 39.800003 L 234.5 39.800003 L 234.5 62.700001 Z"/>
    <path id="path6" fill="#001938" stroke="none" d="M 154 103.599998 L 154 28 L 185.5 28 C 190.399994 28 194.699997 28.900002 198.399994 30.800003 C 202.100006 32.699997 205 35.300003 207.199997 38.800003 C 209.399994 42.199997 210.399994 46.199997 210.399994 50.900002 L 210.399994 52.400002 C 210.399994 57 209.300003 61 207.100006 64.5 C 204.899994 68 202 70.599998 198.199997 72.5 C 194.5 74.400002 190.300003 75.300003 185.5 75.300003 L 167.5 75.300003 L 167.5 103.599998 L 154 103.599998 Z M 167.5 63.5 L 184.199997 63.5 C 188.100006 63.5 191.100006 62.5 193.399994 60.5 C 195.800003 58.5 197 55.699997 197 52.199997 L 197 51.099998 C 197 47.599998 195.899994 44.800003 193.5 42.800003 C 191.199997 40.800003 188.100006 39.800003 184.100006 39.800003 L 167.399994 39.800003 L 167.399994 63.5 Z"/>
    <path id="path7" fill="#001938" stroke="none" d="M 607.900024 43.400002 L 607.900024 28 L 613.5 28 L 616.299988 41.5 L 616.700012 41.5 L 619.5 28 L 625.099976 28 L 625.099976 43.400002 L 622.200012 43.400002 L 622.200012 30.099998 L 621.799988 30.099998 L 619.099976 43.400002 L 614.099976 43.400002 L 611.400024 30.099998 L 611 30.099998 L 611 43.400002 L 607.900024 43.400002 Z"/>
    <path id="path8" fill="#001938" stroke="none" d="M 598.299988 43.400002 L 598.299988 30.599998 L 593.700012 30.599998 L 593.700012 28 L 606 28 L 606 30.599998 L 601.400024 30.599998 L 601.400024 43.400002 L 598.299988 43.400002 Z"/>
    <path id="path9" fill="#001938" stroke="none" d="M 388 105 C 382.5 105 377.5 103.900002 373.100006 101.599998 C 368.799988 99.199997 365.299988 95.900002 362.700012 91.400002 C 360.200012 86.900002 358.899994 81.400002 358.899994 74.900002 L 358.899994 57.099998 C 358.899994 47.400002 361.700012 40 367.399994 34.800003 C 373.100006 29.599998 380.700012 27 390.200012 27 C 399.700012 27 407.100006 29.5 412.200012 34.400002 C 417.299988 39.300003 419.899994 45.800003 419.899994 54.099998 L 419.899994 54.5 L 406.700012 54.5 L 406.700012 53.599998 C 406.700012 50.699997 406.100006 48.199997 404.899994 45.900002 C 403.700012 43.599998 401.899994 41.800003 399.399994 40.5 C 396.899994 39.099998 393.899994 38.5 390.100006 38.5 C 384.600006 38.5 380.200012 40.099998 377 43.400002 C 373.899994 46.599998 372.299988 51.099998 372.299988 56.799999 L 372.299988 75 C 372.299988 80.599998 373.899994 85.099998 377 88.5 C 380.200012 91.900002 384.600006 93.5 390.299988 93.5 C 396 93.5 400.100006 92 402.700012 89.099998 C 405.299988 86.199997 406.600006 82.400002 406.600006 77.900002 L 406.600006 76.599998 L 387 76.599998 L 387 65.800003 L 420 65.800003 L 420 103.5 L 407.700012 103.5 L 407.700012 96.099998 L 405.799988 96.099998 C 405.200012 97.400002 404.299988 98.699997 403 100.199997 C 401.700012 101.599998 399.899994 102.699997 397.5 103.599998 C 395.200012 104.5 392.100006 105 388 105 Z"/>
</svg>
