<svg width="409" height="144" viewBox="0 0 409 144" fill="none" xmlns="http://www.w3.org/2000/svg">
<path d="M170.818 58.6688C170.818 51.9667 173.578 46.5131 179.097 42.3078C184.682 38.1026 191.976 36 200.978 36C210.045 36 217.437 38.2012 223.154 42.6035C228.936 47.0059 231.827 51.6053 231.827 56.4019C231.827 56.9932 231.597 57.5189 231.137 57.9788C230.743 58.3731 230.283 58.5702 229.757 58.5702H210.045C208.534 58.5702 207.154 58.0117 205.906 56.8947C204.657 55.7777 202.982 55.2192 200.879 55.2192C197.725 55.2192 196.148 56.1391 196.148 57.9788C196.148 58.9644 196.904 59.7858 198.415 60.4428C199.992 61.0999 202.883 61.6913 207.088 62.2169C216.879 63.4653 223.844 65.7651 227.983 69.1161C232.188 72.4014 234.291 77.428 234.291 84.1958C234.291 90.8978 231.203 96.3843 225.026 100.655C218.916 104.86 210.899 106.963 200.978 106.963C191.056 106.963 183.27 104.926 177.619 100.852C171.968 96.7786 169.143 91.8177 169.143 85.9698C169.143 85.3785 169.34 84.8857 169.734 84.4914C170.194 84.0315 170.72 83.8015 171.311 83.8015H190.038C191.417 83.8015 192.929 84.4586 194.571 85.7727C196.28 87.0869 198.612 87.7439 201.569 87.7439C206.497 87.7439 208.961 86.824 208.961 84.9842C208.961 83.8015 208.074 82.9145 206.3 82.3231C204.526 81.6661 201.175 81.009 196.247 80.3519C179.294 78.1179 170.818 70.8902 170.818 58.6688Z" fill="black"/>
<path d="M260.281 36.9856H281.669C284.034 36.9856 285.513 38.0698 286.104 40.2381L308.083 103.119C308.149 103.316 308.182 103.645 308.182 104.105C308.182 104.499 307.952 104.926 307.492 105.386C307.097 105.78 306.605 105.977 306.013 105.977H287.78C285.808 105.977 284.527 105.156 283.936 103.513L281.57 97.0085H260.38L258.015 103.513C257.423 105.156 256.142 105.977 254.171 105.977H235.937C235.346 105.977 234.82 105.78 234.36 105.386C233.966 104.926 233.769 104.499 233.769 104.105C233.769 103.645 233.802 103.316 233.867 103.119L255.846 40.2381C256.438 38.0698 257.916 36.9856 260.281 36.9856ZM265.407 77.7894H276.544L270.926 59.4572L265.407 77.7894Z" fill="black"/>
<path d="M333.921 105.977H313.815C313.092 105.977 312.468 105.715 311.942 105.189C311.417 104.663 311.154 104.039 311.154 103.316V39.6467C311.154 38.9239 311.417 38.2997 311.942 37.7741C312.468 37.2484 313.092 36.9856 313.815 36.9856H333.921C334.644 36.9856 335.268 37.2484 335.794 37.7741C336.319 38.2997 336.582 38.9239 336.582 39.6467V103.316C336.582 104.039 336.319 104.663 335.794 105.189C335.268 105.715 334.644 105.977 333.921 105.977Z" fill="black"/>
<path d="M380.313 61.6256C381.035 60.7714 381.397 59.7529 381.397 58.5702C381.397 57.3875 381.035 56.3362 380.313 55.4163C379.656 54.4307 378.67 53.9379 377.356 53.9379H369.077V62.9068H377.356C378.67 62.9068 379.656 62.4797 380.313 61.6256ZM369.077 79.3663V89.0252H378.243C379.754 89.0252 380.871 88.5324 381.594 87.5468C382.382 86.4955 382.777 85.3456 382.777 84.0972V83.9986C382.777 82.7502 382.35 81.6661 381.495 80.7462C380.707 79.8263 379.623 79.3663 378.243 79.3663H369.077ZM380.805 105.977H347.098C346.375 105.977 345.751 105.715 345.225 105.189C344.7 104.663 344.437 104.039 344.437 103.316V39.6467C344.437 38.9239 344.7 38.2997 345.225 37.7741C345.751 37.2484 346.375 36.9856 347.098 36.9856H379.82C389.15 36.9856 396.017 38.694 400.419 42.1107C404.887 45.4617 407.121 50.554 407.121 57.3875V57.6832C407.121 60.5085 406.3 63.0383 404.657 65.2723C403.014 67.4406 401.207 69.0176 399.236 70.0032C401.864 71.0545 404.066 72.9271 405.84 75.6211C407.679 78.2493 408.599 81.1404 408.599 84.2943C408.599 98.7498 399.335 105.977 380.805 105.977Z" fill="black"/>
<path fill-rule="evenodd" clip-rule="evenodd" d="M67.6246 5.8009C59.8901 -1.93364 47.3499 -1.93363 39.6154 5.80091L5.80091 39.6154C-1.93363 47.3499 -1.93364 59.8901 5.80091 67.6246L39.6154 101.439C47.3499 109.174 59.8901 109.174 67.6246 101.439C75.3592 93.7045 75.3591 81.1643 67.6246 73.4298L64.722 70.5272C55.3844 61.1896 55.3844 46.0503 64.722 36.7127L67.6246 33.8102C75.3592 26.0756 75.3592 13.5354 67.6246 5.8009ZM77.5182 138.045C85.2528 145.78 97.7929 145.78 105.527 138.045L139.342 104.231C147.076 96.4964 147.076 83.9562 139.342 76.2217L105.527 42.4072C97.7929 34.6727 85.2528 34.6727 77.5182 42.4072C69.7837 50.1418 69.7837 62.682 77.5182 70.4165L80.4208 73.3191C89.7584 82.6567 89.7584 97.7959 80.4208 107.134L77.5182 110.036C69.7837 117.771 69.7837 130.311 77.5182 138.045Z" fill="url(#paint0_linear_1_27)"/>
<defs>
<linearGradient id="paint0_linear_1_27" x1="-15.4258" y1="-11.1557" x2="137.881" y2="164.661" gradientUnits="userSpaceOnUse">
<stop stop-color="#19B8EA"/>
<stop offset="0.5" stop-color="#4F37EA"/>
<stop offset="1" stop-color="#D714E8"/>
</linearGradient>
</defs>
</svg>
