<svg xmlns="http://www.w3.org/2000/svg" xmlns:xlink="http://www.w3.org/1999/xlink" width="600" zoomAndPan="magnify" viewBox="0 0 450 457.91998" height="600" preserveAspectRatio="xMidYMid meet" version="1.0"><defs><clipPath id="45122f0e6b"><path d="M 0.0390625 0 L 449.960938 0 L 449.960938 449.921875 L 0.0390625 449.921875 Z M 0.0390625 0 " clip-rule="nonzero"/></clipPath><clipPath id="b90209abde"><path d="M 221.289062 102.277344 L 316.769531 102.277344 L 316.769531 220.402344 L 221.289062 220.402344 Z M 221.289062 102.277344 " clip-rule="nonzero"/></clipPath><clipPath id="8d6a0135b7"><path d="M 221.6875 220.402344 L 221.289062 177.144531 L 316.769531 102.277344 " clip-rule="nonzero"/></clipPath><linearGradient x1="86.410334" gradientTransform="matrix(1.695537, 0, 0, -1.691371, 74.776243, 1869.073346)" y1="1008.51001" x2="142.72481" gradientUnits="userSpaceOnUse" y2="1008.51001" id="c769b217e9"><stop stop-opacity="1" stop-color="rgb(13.328552%, 60.389709%, 77.249146%)" offset="0"/><stop stop-opacity="1" stop-color="rgb(13.328552%, 60.4599%, 77.322388%)" offset="0.015625"/><stop stop-opacity="1" stop-color="rgb(13.328552%, 60.684204%, 77.745056%)" offset="0.0195313"/><stop stop-opacity="1" stop-color="rgb(13.328552%, 60.836792%, 78.096008%)" offset="0.0234375"/><stop stop-opacity="1" stop-color="rgb(13.328552%, 60.992432%, 78.248596%)" offset="0.03125"/><stop stop-opacity="1" stop-color="rgb(13.328552%, 61.302185%, 78.414917%)" offset="0.0390625"/><stop stop-opacity="1" stop-color="rgb(13.328552%, 61.51123%, 78.523254%)" offset="0.046875"/><stop stop-opacity="1" stop-color="rgb(13.528442%, 61.764526%, 78.970337%)" offset="0.0507813"/><stop stop-opacity="1" stop-color="rgb(13.729858%, 61.959839%, 79.322815%)" offset="0.0546875"/><stop stop-opacity="1" stop-color="rgb(13.729858%, 61.968994%, 79.475403%)" offset="0.0625"/><stop stop-opacity="1" stop-color="rgb(13.729858%, 62.129211%, 79.779053%)" offset="0.0703125"/><stop stop-opacity="1" stop-color="rgb(13.729858%, 62.437439%, 79.96521%)" offset="0.078125"/><stop stop-opacity="1" stop-color="rgb(13.729858%, 62.670898%, 80.075073%)" offset="0.0859375"/><stop stop-opacity="1" stop-color="rgb(13.729858%, 62.944031%, 80.499268%)" offset="0.0898438"/><stop stop-opacity="1" stop-color="rgb(13.729858%, 63.139343%, 80.847168%)" offset="0.09375"/><stop stop-opacity="1" stop-color="rgb(13.729858%, 63.28125%, 81.013489%)" offset="0.109375"/><stop stop-opacity="1" stop-color="rgb(13.729858%, 63.575745%, 81.278992%)" offset="0.117188"/><stop stop-opacity="1" stop-color="rgb(13.729858%, 63.822937%, 81.530762%)" offset="0.125"/><stop stop-opacity="1" stop-color="rgb(13.923645%, 64.11438%, 82.029724%)" offset="0.128906"/><stop stop-opacity="1" stop-color="rgb(14.118958%, 64.309692%, 82.377625%)" offset="0.132812"/><stop stop-opacity="1" stop-color="rgb(14.118958%, 64.309692%, 82.533264%)" offset="0.140625"/><stop stop-opacity="1" stop-color="rgb(14.118958%, 64.434814%, 82.719421%)" offset="0.148438"/><stop stop-opacity="1" stop-color="rgb(14.118958%, 64.715576%, 82.829285%)" offset="0.15625"/><stop stop-opacity="1" stop-color="rgb(14.118958%, 65.020752%, 83.256531%)" offset="0.160156"/><stop stop-opacity="1" stop-color="rgb(14.118958%, 65.17334%, 83.604431%)" offset="0.164063"/><stop stop-opacity="1" stop-color="rgb(14.118958%, 65.325928%, 83.755493%)" offset="0.171875"/><stop stop-opacity="1" stop-color="rgb(14.118958%, 65.586853%, 84.017944%)" offset="0.1875"/><stop stop-opacity="1" stop-color="rgb(14.118958%, 65.788269%, 84.217834%)" offset="0.195312"/><stop stop-opacity="1" stop-color="rgb(14.118958%, 66.073608%, 84.527588%)" offset="0.199219"/><stop stop-opacity="1" stop-color="rgb(14.118958%, 66.268921%, 84.745789%)" offset="0.203125"/><stop stop-opacity="1" stop-color="rgb(14.118958%, 66.400146%, 84.922791%)" offset="0.21875"/><stop stop-opacity="1" stop-color="rgb(14.118958%, 66.600037%, 85.183716%)" offset="0.226562"/><stop stop-opacity="1" stop-color="rgb(14.31427%, 66.7099%, 85.420227%)" offset="0.234375"/><stop stop-opacity="1" stop-color="rgb(14.509583%, 66.905212%, 85.725403%)" offset="0.25"/><stop stop-opacity="1" stop-color="rgb(14.509583%, 67.254639%, 86.073303%)" offset="0.265625"/><stop stop-opacity="1" stop-color="rgb(14.509583%, 67.643738%, 86.491394%)" offset="0.269531"/><stop stop-opacity="1" stop-color="rgb(14.509583%, 67.83905%, 86.714172%)" offset="0.273438"/><stop stop-opacity="1" stop-color="rgb(14.509583%, 67.83905%, 86.86676%)" offset="0.28125"/><stop stop-opacity="1" stop-color="rgb(14.509583%, 67.974854%, 87.039185%)" offset="0.289063"/><stop stop-opacity="1" stop-color="rgb(14.509583%, 68.174744%, 87.147522%)" offset="0.296875"/><stop stop-opacity="1" stop-color="rgb(14.509583%, 68.284607%, 87.390137%)" offset="0.304688"/><stop stop-opacity="1" stop-color="rgb(14.509583%, 68.479919%, 87.690735%)" offset="0.3125"/><stop stop-opacity="1" stop-color="rgb(14.509583%, 68.742371%, 87.954712%)" offset="0.328125"/><stop stop-opacity="1" stop-color="rgb(14.509583%, 68.936157%, 88.154602%)" offset="0.335938"/><stop stop-opacity="1" stop-color="rgb(14.535522%, 69.213867%, 88.461304%)" offset="0.339844"/><stop stop-opacity="1" stop-color="rgb(14.562988%, 69.40918%, 88.684082%)" offset="0.34375"/><stop stop-opacity="1" stop-color="rgb(14.730835%, 69.544983%, 88.851929%)" offset="0.359375"/><stop stop-opacity="1" stop-color="rgb(14.898682%, 69.792175%, 89.213562%)" offset="0.375"/><stop stop-opacity="1" stop-color="rgb(14.898682%, 70.051575%, 89.604187%)" offset="0.390625"/><stop stop-opacity="1" stop-color="rgb(14.898682%, 70.333862%, 89.936829%)" offset="0.40625"/><stop stop-opacity="1" stop-color="rgb(14.898682%, 70.529175%, 90.168762%)" offset="0.414063"/><stop stop-opacity="1" stop-color="rgb(14.898682%, 70.588684%, 90.414429%)" offset="0.421875"/><stop stop-opacity="1" stop-color="rgb(14.898682%, 70.735168%, 90.577698%)" offset="0.4375"/><stop stop-opacity="1" stop-color="rgb(14.898682%, 70.930481%, 90.644836%)" offset="0.445313"/><stop stop-opacity="1" stop-color="rgb(14.898682%, 70.985413%, 90.846252%)" offset="0.453125"/><stop stop-opacity="1" stop-color="rgb(14.898682%, 71.144104%, 91.143799%)" offset="0.46875"/><stop stop-opacity="1" stop-color="rgb(14.898682%, 71.350098%, 91.351318%)" offset="0.484375"/><stop stop-opacity="1" stop-color="rgb(14.898682%, 71.557617%, 91.557312%)" offset="0.5"/><stop stop-opacity="1" stop-color="rgb(14.898682%, 71.734619%, 91.734314%)" offset="0.515625"/><stop stop-opacity="1" stop-color="rgb(14.898682%, 71.759033%, 91.932678%)" offset="0.53125"/><stop stop-opacity="1" stop-color="rgb(15.037537%, 71.90094%, 92.271423%)" offset="0.546875"/><stop stop-opacity="1" stop-color="rgb(15.232849%, 72.10083%, 92.492676%)" offset="0.5625"/><stop stop-opacity="1" stop-color="rgb(15.289307%, 72.309875%, 92.700195%)" offset="0.578125"/><stop stop-opacity="1" stop-color="rgb(15.289307%, 72.515869%, 92.906189%)" offset="0.59375"/><stop stop-opacity="1" stop-color="rgb(15.289307%, 72.723389%, 93.112183%)" offset="0.609375"/><stop stop-opacity="1" stop-color="rgb(15.289307%, 72.906494%, 93.42041%)" offset="0.625"/><stop stop-opacity="1" stop-color="rgb(15.289307%, 72.938538%, 93.652344%)" offset="0.640625"/><stop stop-opacity="1" stop-color="rgb(15.289307%, 73.071289%, 93.859863%)" offset="0.65625"/><stop stop-opacity="1" stop-color="rgb(15.289307%, 73.266602%, 94.055176%)" offset="0.6875"/><stop stop-opacity="1" stop-color="rgb(15.289307%, 73.519897%, 94.30542%)" offset="0.75"/><stop stop-opacity="1" stop-color="rgb(15.466309%, 73.892212%, 94.673157%)" offset="0.875"/><stop stop-opacity="1" stop-color="rgb(15.666199%, 74.09668%, 94.876099%)" offset="0.9375"/><stop stop-opacity="1" stop-color="rgb(15.689087%, 74.304199%, 95.083618%)" offset="1"/></linearGradient></defs><g clip-path="url(#45122f0e6b)"><path fill="#ffffff" d="M 0.0390625 0 L 449.960938 0 L 449.960938 449.921875 L 0.0390625 449.921875 Z M 0.0390625 0 " fill-opacity="1" fill-rule="nonzero"/><path fill="#ffffff" d="M 0.0390625 0 L 449.960938 0 L 449.960938 449.921875 L 0.0390625 449.921875 Z M 0.0390625 0 " fill-opacity="1" fill-rule="nonzero"/><rect x="-45" width="540" fill="#ffffff" y="-45.791998" height="549.503976" fill-opacity="1"/><rect x="-45" width="540" fill="#ffffff" y="-45.791998" height="549.503976" fill-opacity="1"/><rect x="-45" width="540" fill="#237197" y="-45.791998" height="549.503976" fill-opacity="1"/></g><path fill="#28bef3" d="M 317.484375 102.304688 L 221.546875 220.617188 L 169.632812 168.304688 C 168.941406 167.601562 168.320312 166.839844 167.773438 166.015625 C 167.230469 165.195312 166.769531 164.324219 166.394531 163.414062 C 166.019531 162.5 165.734375 161.558594 165.542969 160.589844 C 165.351562 159.621094 165.257812 158.644531 165.257812 157.65625 C 165.257812 156.667969 165.351562 155.691406 165.542969 154.722656 C 165.734375 153.753906 166.019531 152.8125 166.394531 151.898438 C 166.769531 150.984375 167.230469 150.117188 167.773438 149.296875 C 168.320312 148.472656 168.941406 147.710938 169.632812 147.007812 C 170.324219 146.308594 171.078125 145.683594 171.894531 145.136719 C 172.707031 144.585938 173.570312 144.121094 174.476562 143.742188 C 175.382812 143.363281 176.320312 143.078125 177.285156 142.886719 C 178.246094 142.691406 179.21875 142.59375 180.203125 142.59375 C 181.1875 142.59375 182.160156 142.691406 183.125 142.886719 C 184.085938 143.078125 185.023438 143.363281 185.929688 143.742188 C 186.835938 144.121094 187.699219 144.585938 188.511719 145.136719 C 189.328125 145.683594 190.082031 146.308594 190.773438 147.007812 L 221.546875 177.355469 L 317.53125 102.265625 " fill-opacity="1" fill-rule="nonzero"/><path fill="#fcfcfc" d="M 249.378906 113.144531 L 262.078125 86.191406 C 255.894531 83.539062 249.515625 81.484375 242.945312 80.027344 C 236.375 78.570312 229.726562 77.738281 223 77.527344 L 222.382812 77.527344 L 223.300781 107.296875 C 232.335938 107.722656 241.027344 109.671875 249.378906 113.144531 Z M 249.378906 113.144531 " fill-opacity="1" fill-rule="nonzero"/><path fill="#fcfcfc" d="M 141.484375 182.582031 C 141.757812 174.085938 143.378906 165.855469 146.351562 157.890625 L 119.058594 145.953125 C 118.234375 148.074219 117.480469 150.21875 116.789062 152.390625 C 116.101562 154.558594 115.480469 156.746094 114.933594 158.957031 C 114.382812 161.164062 113.902344 163.386719 113.492188 165.625 C 113.082031 167.863281 112.742188 170.113281 112.476562 172.375 C 112.207031 174.632812 112.011719 176.902344 111.890625 179.171875 C 111.765625 181.445312 111.710938 183.71875 111.730469 185.996094 C 111.75 188.269531 111.84375 190.542969 112.007812 192.8125 C 112.167969 195.085938 112.40625 197.347656 112.710938 199.601562 C 113.015625 201.855469 113.394531 204.101562 113.84375 206.332031 C 114.292969 208.5625 114.808594 210.777344 115.398438 212.976562 C 115.988281 215.175781 116.644531 217.351562 117.371094 219.507812 C 118.097656 221.667969 118.890625 223.796875 119.75 225.90625 C 120.609375 228.011719 121.539062 230.089844 122.53125 232.136719 C 123.523438 234.183594 124.578125 236.199219 125.699219 238.183594 C 126.816406 240.164062 128 242.105469 129.242188 244.015625 C 130.484375 245.921875 131.785156 247.785156 133.144531 249.609375 L 156.324219 230.914062 C 153.789062 227.4375 151.5625 223.777344 149.636719 219.929688 C 147.710938 216.082031 146.117188 212.101562 144.855469 207.992188 C 143.59375 203.878906 142.679688 199.691406 142.113281 195.425781 C 141.546875 191.160156 141.339844 186.878906 141.484375 182.582031 Z M 141.484375 182.582031 " fill-opacity="1" fill-rule="nonzero"/><path fill="#fcfcfc" d="M 225.027344 262.945312 L 224.792969 292.726562 C 231.609375 292.410156 238.332031 291.445312 244.964844 289.835938 C 251.59375 288.226562 258.011719 286.003906 264.21875 283.167969 L 250.90625 256.503906 C 242.65625 260.164062 234.03125 262.308594 225.027344 262.945312 Z M 225.027344 262.945312 " fill-opacity="1" fill-rule="nonzero"/><path fill="#fcfcfc" d="M 162.511719 238.410156 L 139.316406 257.117188 C 139.800781 257.664062 140.296875 258.214844 140.804688 258.75 C 143.1875 261.308594 145.6875 263.746094 148.304688 266.058594 C 150.925781 268.371094 153.652344 270.550781 156.484375 272.597656 C 159.316406 274.644531 162.242188 276.546875 165.261719 278.308594 C 168.28125 280.066406 171.378906 281.675781 174.554688 283.128906 C 177.734375 284.585938 180.972656 285.882812 184.277344 287.023438 C 187.582031 288.160156 190.933594 289.136719 194.332031 289.945312 C 197.730469 290.753906 201.164062 291.398438 204.625 291.871094 C 208.085938 292.34375 211.5625 292.648438 215.054688 292.78125 L 215.289062 263.082031 C 210.304688 262.816406 205.390625 262.078125 200.546875 260.863281 C 195.707031 259.652344 191.023438 257.988281 186.503906 255.875 C 181.980469 253.761719 177.699219 251.234375 173.664062 248.296875 C 169.628906 245.359375 165.910156 242.0625 162.511719 238.410156 Z M 162.511719 238.410156 " fill-opacity="1" fill-rule="nonzero"/><path fill="#fcfcfc" d="M 213.578125 107.386719 L 212.664062 77.683594 C 210.324219 77.832031 207.988281 78.058594 205.664062 78.359375 C 203.335938 78.660156 201.019531 79.039062 198.71875 79.492188 C 196.417969 79.945312 194.132812 80.472656 191.863281 81.074219 C 189.597656 81.675781 187.351562 82.351562 185.125 83.097656 C 182.902344 83.847656 180.703125 84.667969 178.535156 85.558594 C 176.363281 86.449219 174.226562 87.410156 172.117188 88.441406 C 170.007812 89.472656 167.9375 90.570312 165.902344 91.734375 C 163.863281 92.902344 161.867188 94.132812 159.914062 95.429688 C 157.957031 96.722656 156.046875 98.082031 154.175781 99.503906 C 152.308594 100.921875 150.492188 102.402344 148.71875 103.941406 C 146.949219 105.480469 145.230469 107.078125 143.5625 108.726562 C 141.894531 110.378906 140.285156 112.082031 138.726562 113.839844 C 137.171875 115.59375 135.675781 117.398438 134.234375 119.253906 C 132.796875 121.105469 131.421875 123.003906 130.105469 124.949219 C 128.792969 126.890625 127.542969 128.875 126.355469 130.902344 C 125.171875 132.925781 124.050781 134.988281 123 137.085938 L 150.316406 149.035156 C 151.847656 146.113281 153.558594 143.300781 155.445312 140.59375 C 157.332031 137.890625 159.382812 135.3125 161.597656 132.867188 C 163.8125 130.421875 166.171875 128.125 168.675781 125.976562 C 171.179688 123.828125 173.808594 121.847656 176.566406 120.035156 C 179.320312 118.21875 182.179688 116.585938 185.140625 115.132812 C 188.101562 113.679688 191.144531 112.421875 194.265625 111.351562 C 197.386719 110.285156 200.566406 109.417969 203.796875 108.753906 C 207.027344 108.089844 210.289062 107.628906 213.578125 107.378906 Z M 213.578125 107.386719 " fill-opacity="1" fill-rule="nonzero"/><path fill="#fcfcfc" d="M 326.929688 191.976562 L 297.179688 191.359375 C 296.929688 194.441406 296.5 197.496094 295.886719 200.527344 C 295.277344 203.558594 294.488281 206.542969 293.519531 209.480469 C 292.554688 212.417969 291.414062 215.289062 290.105469 218.089844 C 288.800781 220.894531 287.328125 223.609375 285.699219 226.234375 C 284.066406 228.863281 282.285156 231.382812 280.355469 233.796875 C 278.421875 236.214844 276.355469 238.507812 274.152344 240.675781 C 271.949219 242.84375 269.625 244.875 267.179688 246.769531 C 264.734375 248.664062 262.183594 250.402344 259.53125 251.992188 L 272.863281 278.679688 C 280.171875 274.488281 286.898438 269.511719 293.046875 263.75 C 295.527344 261.441406 297.894531 259.015625 300.148438 256.480469 C 302.398438 253.945312 304.523438 251.308594 306.523438 248.574219 C 308.527344 245.835938 310.390625 243.007812 312.125 240.09375 C 313.855469 237.179688 315.445312 234.1875 316.894531 231.121094 C 318.339844 228.054688 319.640625 224.929688 320.789062 221.738281 C 321.9375 218.546875 322.933594 215.3125 323.777344 212.027344 C 324.617188 208.742188 325.300781 205.425781 325.828125 202.074219 C 326.355469 198.726562 326.722656 195.359375 326.929688 191.976562 Z M 326.929688 191.976562 " fill-opacity="1" fill-rule="nonzero"/><path fill="#fcfcfc" d="M 297.359375 181.667969 L 327.101562 182.289062 C 326.9375 175.53125 326.140625 168.851562 324.710938 162.242188 C 323.28125 155.636719 321.242188 149.222656 318.597656 143.003906 L 291.789062 156.085938 C 295.109375 164.292969 296.964844 172.820312 297.359375 181.667969 Z M 297.359375 181.667969 " fill-opacity="1" fill-rule="nonzero"/><g clip-path="url(#b90209abde)"><g clip-path="url(#8d6a0135b7)"><path fill="url(#c769b217e9)" d="M 221.289062 220.402344 L 221.289062 102.277344 L 316.769531 102.277344 L 316.769531 220.402344 Z M 221.289062 220.402344 " fill-rule="nonzero"/></g></g><path fill="#ffffff" d="M 60.226562 367.085938 C 68.9375 367.085938 74.246094 362.824219 74.246094 355.960938 C 74.246094 348.761719 68.128906 346.28125 61.78125 344.839844 C 56.585938 343.628906 52.953125 342.996094 52.953125 338.902344 C 52.953125 335.445312 56.011719 333.195312 60.6875 333.195312 C 61.660156 333.1875 62.617188 333.289062 63.566406 333.507812 C 64.511719 333.726562 65.421875 334.054688 66.289062 334.488281 C 67.160156 334.921875 67.964844 335.453125 68.707031 336.078125 C 69.453125 336.707031 70.109375 337.410156 70.683594 338.195312 C 70.796875 338.371094 73.453125 337.042969 73.453125 334.90625 C 73.453125 332.199219 68.953125 328.28125 60.644531 328.28125 C 52.679688 328.28125 47.203125 332.773438 47.203125 339.113281 C 47.203125 346.664062 53.199219 348.691406 58.96875 350.003906 C 63.933594 351.160156 68.320312 352.136719 68.320312 356.347656 C 68.320312 360.035156 65.378906 362.179688 60.183594 362.179688 C 59.085938 362.195312 58 362.078125 56.929688 361.832031 C 55.859375 361.582031 54.835938 361.210938 53.855469 360.710938 C 52.875 360.214844 51.96875 359.609375 51.136719 358.890625 C 50.304688 358.171875 49.570312 357.367188 48.933594 356.472656 C 48.765625 356.242188 46.222656 357.679688 46.222656 359.640625 C 46.203125 362.707031 51.222656 367.085938 60.226562 367.085938 Z M 97.652344 367.085938 C 107.578125 367.085938 112.480469 361.148438 112.480469 358.382812 C 112.480469 355.617188 108.902344 354.925781 108.785156 355.214844 C 107.230469 359.25 103.015625 361.726562 97.996094 361.726562 C 90.5 361.726562 85.015625 355.894531 85.015625 347.664062 C 85.015625 339.433594 90.324219 333.660156 97.878906 333.660156 C 102.09375 333.660156 106.308594 335.675781 108.441406 339.425781 C 108.558594 339.652344 111.902344 338.960938 111.902344 336.195312 C 111.902344 333.601562 107.171875 328.28125 97.828125 328.28125 C 86.632812 328.28125 78.84375 336.347656 78.84375 347.765625 C 78.84375 359.132812 86.574219 367.085938 97.652344 367.085938 Z M 135.5625 367.085938 C 146.644531 367.085938 154.488281 359.074219 154.488281 347.664062 C 154.488281 336.253906 146.753906 328.296875 135.621094 328.296875 C 124.601562 328.296875 116.699219 336.367188 116.699219 347.78125 C 116.707031 359.132812 124.433594 367.085938 135.570312 367.085938 Z M 135.621094 361.839844 C 128.0625 361.839844 122.707031 355.960938 122.707031 347.675781 C 122.707031 339.390625 128.011719 333.554688 135.570312 333.554688 C 143.125 333.554688 148.484375 339.492188 148.484375 347.792969 C 148.484375 356.097656 143.183594 361.839844 135.628906 361.839844 Z M 166.789062 347.089844 L 166.789062 333.945312 L 174.464844 333.945312 C 179.941406 333.945312 182.714844 336.195312 182.714844 340.519531 C 182.714844 344.550781 180.117188 347.089844 174.636719 347.089844 Z M 177.578125 351.179688 C 184.847656 350.601562 188.714844 346.570312 188.714844 340.226562 C 188.714844 332.851562 183.871094 329.046875 174.75 329.046875 L 164.144531 329.046875 C 162.238281 329.046875 160.96875 330.371094 160.96875 332.378906 L 160.96875 363.503906 C 160.96875 365.460938 161.835938 366.558594 163.46875 366.558594 L 164.277344 366.558594 C 166.007812 366.558594 166.871094 365.460938 166.871094 363.847656 L 166.871094 351.753906 L 170.96875 351.753906 L 181.183594 364.253906 C 182.433594 365.917969 183.492188 366.558594 185.042969 366.558594 C 187.542969 366.558594 188.792969 364.472656 188.507812 364.136719 Z M 198.109375 366.335938 L 220.09375 366.335938 C 221.9375 366.335938 222.804688 365.414062 222.804688 363.746094 L 222.804688 363.457031 C 222.804688 361.898438 221.9375 361.09375 220.09375 361.09375 L 200.886719 361.09375 L 200.886719 349.796875 L 215.46875 349.796875 C 217.3125 349.796875 218.238281 348.929688 218.238281 347.320312 L 218.238281 347.144531 C 218.238281 345.589844 217.371094 344.78125 215.46875 344.78125 L 200.886719 344.78125 L 200.886719 334.367188 L 219.753906 334.367188 C 221.601562 334.367188 222.527344 333.503906 222.527344 331.867188 L 222.527344 331.519531 C 222.527344 329.964844 221.601562 329.042969 219.753906 329.042969 L 198.117188 329.042969 C 196.214844 329.042969 194.941406 330.367188 194.941406 332.375 L 194.941406 363.035156 C 194.941406 365.070312 196.214844 366.335938 198.117188 366.335938 Z M 246.167969 367.085938 C 256.089844 367.085938 260.992188 361.148438 260.992188 358.382812 C 260.992188 355.617188 257.414062 354.925781 257.300781 355.214844 C 255.746094 359.25 251.53125 361.726562 246.511719 361.726562 C 239.015625 361.726562 233.53125 355.894531 233.53125 347.664062 C 233.53125 339.433594 238.839844 333.660156 246.394531 333.660156 C 250.609375 333.660156 254.820312 335.675781 256.957031 339.425781 C 257.074219 339.652344 260.417969 338.960938 260.417969 336.195312 C 260.417969 333.601562 255.6875 328.28125 246.339844 328.28125 C 235.148438 328.28125 227.359375 336.347656 227.359375 347.765625 C 227.367188 359.132812 235.097656 367.085938 246.175781 367.085938 Z M 269.199219 366.570312 L 270.066406 366.570312 C 271.796875 366.570312 272.664062 365.644531 272.664062 363.863281 L 272.664062 350.257812 L 292.339844 350.257812 L 292.339844 363.863281 C 292.339844 365.644531 293.199219 366.570312 294.835938 366.570312 L 295.703125 366.570312 C 297.433594 366.570312 298.300781 365.644531 298.300781 363.863281 L 298.300781 331.527344 C 298.300781 329.738281 297.433594 328.816406 295.703125 328.816406 L 294.835938 328.816406 C 293.222656 328.816406 292.339844 329.738281 292.339844 331.527344 L 292.339844 345.070312 L 272.671875 345.070312 L 272.671875 331.527344 C 272.671875 329.738281 271.804688 328.816406 270.074219 328.816406 L 269.207031 328.816406 C 267.59375 328.816406 266.710938 329.738281 266.710938 331.527344 L 266.710938 363.863281 C 266.730469 365.644531 267.59375 366.570312 269.207031 366.570312 Z M 314.234375 350.601562 L 320.296875 334.8125 L 326.292969 350.601562 Z M 327.742188 355.386719 L 331.027344 363.863281 C 331.835938 365.996094 333.21875 366.628906 334.542969 366.628906 C 336.335938 366.628906 338.007812 365.304688 337.835938 364.839844 L 324.449219 330.605469 C 323.988281 329.390625 323.121094 328.699219 320.355469 328.699219 C 317.589844 328.699219 316.71875 329.390625 316.253906 330.605469 L 302.988281 364.839844 C 302.8125 365.359375 304.484375 366.628906 306.214844 366.628906 C 307.464844 366.628906 308.757812 365.996094 309.507812 363.914062 L 312.792969 355.386719 Z M 345.617188 366.570312 L 346.425781 366.570312 C 348.15625 366.570312 349.019531 365.644531 349.019531 363.863281 L 349.019531 331.527344 C 349.019531 329.738281 348.15625 328.816406 346.425781 328.816406 L 345.617188 328.816406 C 343.949219 328.816406 343.078125 329.738281 343.078125 331.527344 L 343.078125 363.863281 C 343.085938 365.644531 343.953125 366.570312 345.625 366.570312 Z M 359.914062 366.570312 L 360.546875 366.570312 C 362.28125 366.570312 363.085938 365.644531 363.085938 363.863281 L 363.085938 337.292969 L 382.53125 364.785156 C 383.457031 366.035156 383.914062 366.574219 385.707031 366.574219 L 386.167969 366.574219 C 387.898438 366.574219 388.933594 365.324219 388.933594 363.242188 L 388.933594 331.527344 C 388.933594 329.738281 388.125 328.816406 386.507812 328.816406 L 385.816406 328.816406 C 384.089844 328.816406 383.339844 329.738281 383.339844 331.527344 L 383.339844 357.234375 L 364.875 331.0625 C 363.78125 329.5625 363.085938 328.816406 361.296875 328.816406 L 360.316406 328.816406 C 358.472656 328.816406 357.488281 330.140625 357.488281 332.148438 L 357.488281 363.851562 C 357.496094 365.644531 358.246094 366.570312 359.921875 366.570312 Z M 359.914062 366.570312 " fill-opacity="1" fill-rule="nonzero"/></svg>