<svg xmlns="http://www.w3.org/2000/svg" xmlns:xlink="http://www.w3.org/1999/xlink" width="600" zoomAndPan="magnify" viewBox="0 0 450 457.91998" height="600" preserveAspectRatio="xMidYMid meet" version="1.0"><defs><clipPath id="5f5744bb87"><path d="M 0.0390625 0 L 449.960938 0 L 449.960938 449.921875 L 0.0390625 449.921875 Z M 0.0390625 0 " clip-rule="nonzero"/></clipPath><clipPath id="55b5f18e85"><path d="M 221 102 L 317 102 L 317 221 L 221 221 Z M 221 102 " clip-rule="nonzero"/></clipPath><clipPath id="e37bd42abc"><path d="M 221.722656 220.453125 L 221.320312 177.1875 L 316.816406 102.296875 " clip-rule="nonzero"/></clipPath><linearGradient x1="86.514602" gradientTransform="matrix(1.693663, 0, 0, 1.693822, 74.792171, 40.275402)" y1="71.495003" x2="142.899001" gradientUnits="userSpaceOnUse" y2="71.495003" id="9182e8a4da"><stop stop-opacity="1" stop-color="rgb(13.328552%, 60.389709%, 77.249146%)" offset="0"/><stop stop-opacity="1" stop-color="rgb(13.346863%, 60.505676%, 77.401733%)" offset="0.0078125"/><stop stop-opacity="1" stop-color="rgb(13.383484%, 60.73761%, 77.705383%)" offset="0.015625"/><stop stop-opacity="1" stop-color="rgb(13.418579%, 60.971069%, 78.010559%)" offset="0.0234375"/><stop stop-opacity="1" stop-color="rgb(13.4552%, 61.204529%, 78.315735%)" offset="0.03125"/><stop stop-opacity="1" stop-color="rgb(13.491821%, 61.436462%, 78.619385%)" offset="0.0390625"/><stop stop-opacity="1" stop-color="rgb(13.526917%, 61.669922%, 78.924561%)" offset="0.046875"/><stop stop-opacity="1" stop-color="rgb(13.563538%, 61.903381%, 79.229736%)" offset="0.0546875"/><stop stop-opacity="1" stop-color="rgb(13.600159%, 62.135315%, 79.534912%)" offset="0.0625"/><stop stop-opacity="1" stop-color="rgb(13.635254%, 62.368774%, 79.838562%)" offset="0.0703125"/><stop stop-opacity="1" stop-color="rgb(13.671875%, 62.602234%, 80.143738%)" offset="0.078125"/><stop stop-opacity="1" stop-color="rgb(13.708496%, 62.835693%, 80.448914%)" offset="0.0859375"/><stop stop-opacity="1" stop-color="rgb(13.743591%, 63.067627%, 80.752563%)" offset="0.09375"/><stop stop-opacity="1" stop-color="rgb(13.780212%, 63.301086%, 81.057739%)" offset="0.101562"/><stop stop-opacity="1" stop-color="rgb(13.816833%, 63.534546%, 81.362915%)" offset="0.109375"/><stop stop-opacity="1" stop-color="rgb(13.851929%, 63.766479%, 81.668091%)" offset="0.117188"/><stop stop-opacity="1" stop-color="rgb(13.88855%, 63.999939%, 81.971741%)" offset="0.125"/><stop stop-opacity="1" stop-color="rgb(13.925171%, 64.233398%, 82.276917%)" offset="0.132812"/><stop stop-opacity="1" stop-color="rgb(13.960266%, 64.466858%, 82.582092%)" offset="0.140625"/><stop stop-opacity="1" stop-color="rgb(13.996887%, 64.698792%, 82.885742%)" offset="0.148437"/><stop stop-opacity="1" stop-color="rgb(14.033508%, 64.932251%, 83.190918%)" offset="0.15625"/><stop stop-opacity="1" stop-color="rgb(14.068604%, 65.16571%, 83.496094%)" offset="0.164062"/><stop stop-opacity="1" stop-color="rgb(14.103699%, 65.394592%, 83.795166%)" offset="0.171875"/><stop stop-opacity="1" stop-color="rgb(14.135742%, 65.597534%, 84.051514%)" offset="0.179687"/><stop stop-opacity="1" stop-color="rgb(14.163208%, 65.774536%, 84.269714%)" offset="0.1875"/><stop stop-opacity="1" stop-color="rgb(14.189148%, 65.951538%, 84.487915%)" offset="0.195312"/><stop stop-opacity="1" stop-color="rgb(14.216614%, 66.12854%, 84.706116%)" offset="0.203125"/><stop stop-opacity="1" stop-color="rgb(14.24408%, 66.305542%, 84.924316%)" offset="0.210937"/><stop stop-opacity="1" stop-color="rgb(14.271545%, 66.482544%, 85.142517%)" offset="0.21875"/><stop stop-opacity="1" stop-color="rgb(14.297485%, 66.659546%, 85.360718%)" offset="0.226562"/><stop stop-opacity="1" stop-color="rgb(14.324951%, 66.836548%, 85.578918%)" offset="0.234375"/><stop stop-opacity="1" stop-color="rgb(14.352417%, 67.01355%, 85.795593%)" offset="0.242187"/><stop stop-opacity="1" stop-color="rgb(14.379883%, 67.190552%, 86.013794%)" offset="0.25"/><stop stop-opacity="1" stop-color="rgb(14.405823%, 67.367554%, 86.231995%)" offset="0.257812"/><stop stop-opacity="1" stop-color="rgb(14.433289%, 67.546082%, 86.450195%)" offset="0.265625"/><stop stop-opacity="1" stop-color="rgb(14.460754%, 67.723083%, 86.668396%)" offset="0.273438"/><stop stop-opacity="1" stop-color="rgb(14.48822%, 67.900085%, 86.886597%)" offset="0.28125"/><stop stop-opacity="1" stop-color="rgb(14.51416%, 68.077087%, 87.104797%)" offset="0.289062"/><stop stop-opacity="1" stop-color="rgb(14.541626%, 68.254089%, 87.322998%)" offset="0.296875"/><stop stop-opacity="1" stop-color="rgb(14.569092%, 68.431091%, 87.541199%)" offset="0.304687"/><stop stop-opacity="1" stop-color="rgb(14.596558%, 68.608093%, 87.759399%)" offset="0.3125"/><stop stop-opacity="1" stop-color="rgb(14.622498%, 68.785095%, 87.9776%)" offset="0.320312"/><stop stop-opacity="1" stop-color="rgb(14.649963%, 68.962097%, 88.194275%)" offset="0.328125"/><stop stop-opacity="1" stop-color="rgb(14.677429%, 69.139099%, 88.412476%)" offset="0.335937"/><stop stop-opacity="1" stop-color="rgb(14.704895%, 69.316101%, 88.630676%)" offset="0.34375"/><stop stop-opacity="1" stop-color="rgb(14.730835%, 69.493103%, 88.848877%)" offset="0.351562"/><stop stop-opacity="1" stop-color="rgb(14.758301%, 69.670105%, 89.067078%)" offset="0.359375"/><stop stop-opacity="1" stop-color="rgb(14.785767%, 69.847107%, 89.285278%)" offset="0.367187"/><stop stop-opacity="1" stop-color="rgb(14.813232%, 70.024109%, 89.503479%)" offset="0.375"/><stop stop-opacity="1" stop-color="rgb(14.839172%, 70.201111%, 89.72168%)" offset="0.382812"/><stop stop-opacity="1" stop-color="rgb(14.866638%, 70.378113%, 89.93988%)" offset="0.390625"/><stop stop-opacity="1" stop-color="rgb(14.897156%, 70.582581%, 90.202332%)" offset="0.40625"/><stop stop-opacity="1" stop-color="rgb(14.926147%, 70.782471%, 90.475464%)" offset="0.421875"/><stop stop-opacity="1" stop-color="rgb(14.950562%, 70.948792%, 90.715027%)" offset="0.4375"/><stop stop-opacity="1" stop-color="rgb(14.97345%, 71.116638%, 90.953064%)" offset="0.453125"/><stop stop-opacity="1" stop-color="rgb(14.997864%, 71.284485%, 91.192627%)" offset="0.46875"/><stop stop-opacity="1" stop-color="rgb(15.022278%, 71.450806%, 91.43219%)" offset="0.484375"/><stop stop-opacity="1" stop-color="rgb(15.045166%, 71.618652%, 91.671753%)" offset="0.5"/><stop stop-opacity="1" stop-color="rgb(15.06958%, 71.784973%, 91.911316%)" offset="0.515625"/><stop stop-opacity="1" stop-color="rgb(15.092468%, 71.95282%, 92.149353%)" offset="0.53125"/><stop stop-opacity="1" stop-color="rgb(15.116882%, 72.120667%, 92.388916%)" offset="0.546875"/><stop stop-opacity="1" stop-color="rgb(15.141296%, 72.286987%, 92.628479%)" offset="0.5625"/><stop stop-opacity="1" stop-color="rgb(15.164185%, 72.454834%, 92.868042%)" offset="0.578125"/><stop stop-opacity="1" stop-color="rgb(15.188599%, 72.621155%, 93.107605%)" offset="0.59375"/><stop stop-opacity="1" stop-color="rgb(15.211487%, 72.789001%, 93.345642%)" offset="0.609375"/><stop stop-opacity="1" stop-color="rgb(15.235901%, 72.956848%, 93.585205%)" offset="0.625"/><stop stop-opacity="1" stop-color="rgb(15.260315%, 73.123169%, 93.824768%)" offset="0.640625"/><stop stop-opacity="1" stop-color="rgb(15.283203%, 73.274231%, 94.038391%)" offset="0.65625"/><stop stop-opacity="1" stop-color="rgb(15.312195%, 73.396301%, 94.184875%)" offset="0.6875"/><stop stop-opacity="1" stop-color="rgb(15.365601%, 73.554993%, 94.343567%)" offset="0.75"/><stop stop-opacity="1" stop-color="rgb(15.437317%, 73.76709%, 94.554138%)" offset="0.8125"/><stop stop-opacity="1" stop-color="rgb(15.509033%, 73.979187%, 94.763184%)" offset="0.875"/><stop stop-opacity="1" stop-color="rgb(15.58075%, 74.191284%, 94.973755%)" offset="0.9375"/><stop stop-opacity="1" stop-color="rgb(15.652466%, 74.401855%, 95.184326%)" offset="1"/></linearGradient></defs><g clip-path="url(#5f5744bb87)"><path fill="#ffffff" d="M 0.0390625 0 L 449.960938 0 L 449.960938 449.921875 L 0.0390625 449.921875 Z M 0.0390625 0 " fill-opacity="1" fill-rule="nonzero"/><path fill="#ffffff" d="M 0.0390625 0 L 449.960938 0 L 449.960938 449.921875 L 0.0390625 449.921875 Z M 0.0390625 0 " fill-opacity="1" fill-rule="nonzero"/></g><path fill="#28bef3" d="M 317.546875 102.320312 L 221.59375 220.648438 L 169.664062 168.320312 C 166.859375 165.496094 165.285156 161.664062 165.285156 157.667969 C 165.285156 153.671875 166.859375 149.84375 169.664062 147.015625 C 172.464844 144.191406 176.269531 142.605469 180.234375 142.605469 C 184.199219 142.605469 188 144.191406 190.804688 147.015625 L 221.578125 177.375 L 317.574219 102.265625 " fill-opacity="1" fill-rule="nonzero"/><path fill="#123841" d="M 249.414062 113.164062 L 262.101562 86.203125 C 249.730469 80.898438 236.476562 77.957031 223.019531 77.539062 L 222.402344 77.539062 L 223.316406 107.316406 C 232.289062 107.738281 241.121094 109.71875 249.414062 113.164062 Z M 249.414062 113.164062 " fill-opacity="1" fill-rule="nonzero"/><path fill="#123841" d="M 141.507812 182.621094 C 141.777344 174.179688 143.421875 165.839844 146.375 157.929688 L 119.078125 145.984375 C 112.453125 163.046875 110.269531 181.511719 112.734375 199.648438 C 115.195312 217.785156 122.226562 234.996094 133.164062 249.671875 L 156.347656 230.96875 C 146.140625 216.960938 140.917969 199.941406 141.507812 182.621094 Z M 141.507812 182.621094 " fill-opacity="1" fill-rule="nonzero"/><path fill="#123841" d="M 225.058594 263.011719 L 224.824219 292.800781 C 238.457031 292.160156 251.84375 288.914062 264.253906 283.238281 L 250.941406 256.574219 C 242.75 260.203125 233.996094 262.382812 225.058594 263.011719 Z M 225.058594 263.011719 " fill-opacity="1" fill-rule="nonzero"/><path fill="#123841" d="M 162.535156 238.464844 L 139.332031 257.179688 C 139.820312 257.726562 140.316406 258.277344 140.824219 258.8125 C 160.101562 279.539062 186.804688 291.777344 215.085938 292.855469 L 215.320312 263.148438 C 195.191406 262.074219 176.265625 253.222656 162.535156 238.464844 Z M 162.535156 238.464844 " fill-opacity="1" fill-rule="nonzero"/><path fill="#123841" d="M 213.609375 107.402344 L 212.691406 77.695312 C 193.859375 78.898438 175.667969 85.019531 159.933594 95.445312 C 144.203125 105.867188 131.472656 120.234375 123.019531 137.109375 L 150.34375 149.066406 C 156.496094 137.328125 165.527344 127.347656 176.59375 120.0625 C 187.660156 112.773438 200.398438 108.417969 213.609375 107.402344 Z M 213.609375 107.402344 " fill-opacity="1" fill-rule="nonzero"/><path fill="#123841" d="M 326.96875 192.019531 L 297.222656 191.402344 C 296.222656 203.777344 292.285156 215.738281 285.734375 226.289062 C 279.1875 236.835938 270.21875 245.667969 259.570312 252.054688 L 272.898438 278.75 C 280.183594 274.570312 286.960938 269.558594 293.085938 263.816406 C 313.171875 245.117188 325.300781 219.414062 326.96875 192.019531 Z M 326.96875 192.019531 " fill-opacity="1" fill-rule="nonzero"/><path fill="#123841" d="M 297.398438 181.710938 L 327.148438 182.328125 C 326.816406 168.8125 323.929688 155.476562 318.640625 143.035156 L 291.828125 156.117188 C 295.125 164.269531 297.007812 172.925781 297.398438 181.710938 Z M 297.398438 181.710938 " fill-opacity="1" fill-rule="nonzero"/><g clip-path="url(#55b5f18e85)"><g clip-path="url(#e37bd42abc)"><path fill="url(#9182e8a4da)" d="M 221.320312 102.296875 L 221.320312 220.453125 L 316.816406 220.453125 L 316.816406 102.296875 Z M 221.320312 102.296875 " fill-rule="nonzero"/></g></g><path fill="#66cef5" d="M 60.011719 366.925781 C 68.71875 366.925781 74.023438 362.667969 74.023438 355.824219 C 74.023438 348.632812 67.910156 346.160156 61.570312 344.722656 C 56.382812 343.515625 52.75 342.882812 52.75 338.796875 C 52.75 335.347656 55.804688 333.101562 60.472656 333.101562 C 64.796875 333.101562 68.488281 335.289062 70.449219 338.105469 C 70.5625 338.28125 73.214844 336.957031 73.214844 334.828125 C 73.214844 332.125 68.71875 328.214844 60.417969 328.214844 C 52.460938 328.214844 46.984375 332.699219 46.984375 339.027344 C 46.984375 346.5625 52.980469 348.574219 58.746094 349.898438 C 63.703125 351.050781 68.082031 352.027344 68.082031 356.226562 C 68.082031 359.90625 65.144531 362.035156 59.957031 362.035156 C 54.824219 362.035156 50.847656 359.445312 48.714844 356.339844 C 48.542969 356.109375 46.003906 357.546875 46.003906 359.503906 C 46.003906 362.554688 51.019531 366.925781 60.011719 366.925781 Z M 97.410156 366.925781 C 107.324219 366.925781 112.226562 361 112.226562 358.238281 C 112.226562 355.476562 108.652344 354.789062 108.535156 355.074219 C 106.980469 359.101562 102.773438 361.574219 97.757812 361.574219 C 90.261719 361.574219 84.785156 355.765625 84.785156 347.539062 C 84.785156 339.257812 90.089844 333.5625 97.640625 333.5625 C 101.847656 333.5625 106.058594 335.578125 108.191406 339.316406 C 108.304688 339.546875 111.648438 338.855469 111.648438 336.09375 C 111.648438 333.503906 106.921875 328.214844 97.582031 328.214844 C 86.398438 328.214844 78.617188 336.265625 78.617188 347.65625 C 78.617188 358.988281 86.34375 366.925781 97.410156 366.925781 Z M 135.296875 366.925781 C 146.367188 366.925781 154.207031 358.929688 154.207031 347.539062 C 154.207031 336.152344 146.480469 328.214844 135.355469 328.214844 C 124.34375 328.214844 116.445312 336.265625 116.445312 347.65625 C 116.445312 358.988281 124.171875 366.925781 135.296875 366.925781 Z M 135.355469 361.691406 C 127.804688 361.691406 122.441406 355.824219 122.441406 347.539062 C 122.441406 339.199219 127.746094 333.449219 135.296875 333.449219 C 142.851562 333.449219 148.210938 339.371094 148.210938 347.65625 C 148.210938 355.9375 142.90625 361.691406 135.355469 361.691406 Z M 166.496094 346.964844 L 166.496094 333.851562 L 174.164062 333.851562 C 179.640625 333.851562 182.410156 336.09375 182.410156 340.40625 C 182.410156 344.433594 179.8125 346.964844 174.339844 346.964844 Z M 177.277344 351.050781 C 184.542969 350.472656 188.402344 346.449219 188.402344 340.121094 C 188.402344 332.757812 183.5625 328.960938 174.453125 328.960938 L 163.847656 328.960938 C 161.945312 328.960938 160.675781 330.285156 160.675781 332.296875 L 160.675781 363.359375 C 160.675781 365.3125 161.539062 366.40625 163.152344 366.40625 L 163.960938 366.40625 C 165.691406 366.40625 166.554688 365.3125 166.554688 363.703125 L 166.554688 351.625 L 170.648438 351.625 L 180.851562 364.105469 C 182.121094 365.773438 183.15625 366.40625 184.714844 366.40625 C 187.195312 366.40625 188.460938 364.335938 188.171875 363.992188 Z M 197.792969 366.175781 L 219.757812 366.175781 C 221.601562 366.175781 222.464844 365.257812 222.464844 363.589844 L 222.464844 363.300781 C 222.464844 361.746094 221.601562 360.941406 219.757812 360.941406 L 200.558594 360.941406 L 200.558594 349.667969 L 215.144531 349.667969 C 216.988281 349.667969 217.910156 348.804688 217.910156 347.195312 L 217.910156 347.023438 C 217.910156 345.46875 217.046875 344.664062 215.144531 344.664062 L 200.558594 344.664062 L 200.558594 334.253906 L 219.410156 334.253906 C 221.253906 334.253906 222.179688 333.390625 222.179688 331.78125 L 222.179688 331.433594 C 222.179688 329.882812 221.253906 328.960938 219.410156 328.960938 L 197.792969 328.960938 C 195.890625 328.960938 194.621094 330.285156 194.621094 332.296875 L 194.621094 362.898438 C 194.621094 364.910156 195.890625 366.175781 197.792969 366.175781 Z M 245.808594 366.925781 C 255.722656 366.925781 260.625 361 260.625 358.238281 C 260.625 355.476562 257.050781 354.789062 256.933594 355.074219 C 255.378906 359.101562 251.167969 361.574219 246.15625 361.574219 C 238.660156 361.574219 233.183594 355.765625 233.183594 347.539062 C 233.183594 339.257812 238.488281 333.5625 246.039062 333.5625 C 250.246094 333.5625 254.457031 335.578125 256.589844 339.316406 C 256.703125 339.546875 260.046875 338.855469 260.046875 336.09375 C 260.046875 333.503906 255.320312 328.214844 245.980469 328.214844 C 234.796875 328.214844 227.015625 336.265625 227.015625 347.65625 C 227.015625 358.988281 234.738281 366.925781 245.808594 366.925781 Z M 268.824219 366.40625 L 269.6875 366.40625 C 271.417969 366.40625 272.28125 365.484375 272.28125 363.703125 L 272.28125 350.128906 L 291.941406 350.128906 L 291.941406 363.703125 C 291.941406 365.484375 292.804688 366.40625 294.417969 366.40625 L 295.285156 366.40625 C 297.011719 366.40625 297.878906 365.484375 297.878906 363.703125 L 297.878906 331.433594 C 297.878906 329.652344 297.011719 328.730469 295.285156 328.730469 L 294.417969 328.730469 C 292.804688 328.730469 291.941406 329.652344 291.941406 331.433594 L 291.941406 344.953125 L 272.28125 344.953125 L 272.28125 331.433594 C 272.28125 329.652344 271.417969 328.730469 269.6875 328.730469 L 268.824219 328.730469 C 267.210938 328.730469 266.34375 329.652344 266.34375 331.433594 L 266.34375 363.703125 C 266.34375 365.484375 267.210938 366.40625 268.824219 366.40625 Z M 313.820312 350.472656 L 319.875 334.714844 L 325.871094 350.472656 Z M 327.3125 355.246094 L 330.597656 363.703125 C 331.402344 365.832031 332.789062 366.464844 334.113281 366.464844 C 335.902344 366.464844 337.574219 365.140625 337.398438 364.679688 L 324.023438 330.515625 C 323.5625 329.304688 322.699219 328.617188 319.933594 328.617188 C 317.222656 328.617188 316.300781 329.304688 315.839844 330.515625 L 302.582031 364.679688 C 302.40625 365.199219 304.078125 366.464844 305.808594 366.464844 C 307.078125 366.464844 308.34375 365.832031 309.09375 363.761719 L 312.378906 355.246094 Z M 345.175781 366.40625 L 345.984375 366.40625 C 347.710938 366.40625 348.578125 365.484375 348.578125 363.703125 L 348.578125 331.433594 C 348.578125 329.652344 347.710938 328.730469 345.984375 328.730469 L 345.175781 328.730469 C 343.503906 328.730469 342.640625 329.652344 342.640625 331.433594 L 342.640625 363.703125 C 342.640625 365.484375 343.503906 366.40625 345.175781 366.40625 Z M 359.460938 366.40625 L 360.09375 366.40625 C 361.824219 366.40625 362.628906 365.484375 362.628906 363.703125 L 362.628906 337.1875 L 382.058594 364.625 C 382.980469 365.890625 383.441406 366.40625 385.230469 366.40625 L 385.691406 366.40625 C 387.417969 366.40625 388.457031 365.140625 388.457031 363.070312 L 388.457031 331.433594 C 388.457031 329.652344 387.648438 328.730469 386.035156 328.730469 L 385.34375 328.730469 C 383.613281 328.730469 382.863281 329.652344 382.863281 331.433594 L 382.863281 357.089844 L 364.417969 330.976562 C 363.324219 329.480469 362.628906 328.730469 360.84375 328.730469 L 359.863281 328.730469 C 358.019531 328.730469 357.039062 330.054688 357.039062 332.066406 L 357.039062 363.703125 C 357.039062 365.484375 357.789062 366.40625 359.460938 366.40625 Z M 359.460938 366.40625 " fill-opacity="1" fill-rule="nonzero"/></svg>