<svg width="1245" height="728" viewBox="0 0 1245 728" fill="none" xmlns="http://www.w3.org/2000/svg">
<path d="M631.731 523.304C664.72 523.304 691.462 519.806 691.462 515.492C691.462 511.177 664.72 507.68 631.731 507.68C598.742 507.68 572 511.177 572 515.492C572 519.806 598.742 523.304 631.731 523.304Z" fill="url(#paint0_radial_1459_753)"/>
<path d="M508.272 53.621C538.319 23.3785 576.244 5.9394 615.386 1.28468C629.658 -0.428227 644.095 -0.428227 658.367 1.28468C686.171 5.66337 712.904 18.6444 734.329 40.2051C738.574 44.4779 742.477 48.9511 746.046 53.6058C769.647 84.3512 778.659 122.784 773.08 159.39C768.809 187.579 755.9 214.691 734.329 236.403L713.054 257.816C754.954 215.508 754.912 147.025 712.945 104.77C697.659 89.384 678.913 79.6019 659.231 75.4123C644.497 72.2852 629.241 72.2852 614.521 75.4123C583.487 80.0519 553.616 94.3904 529.735 118.428C517.503 130.74 507.81 144.617 500.65 159.432C473.09 216.298 482.794 286.833 529.735 334.08L508.272 312.478C437.243 241.005 437.243 125.113 508.272 53.621Z" fill="url(#paint1_linear_1459_753)"/>
<path d="M499.118 159.182C506.297 144.27 516.006 130.302 528.264 117.91C552.196 93.715 582.129 79.2826 613.23 74.6127C593.495 78.8297 574.72 88.6758 559.391 104.178C517.279 146.736 517.279 215.75 559.391 258.309L635.618 335.384L711.97 258.21L733.29 236.657C754.907 214.803 767.842 187.514 772.123 159.14C777.717 122.29 768.682 83.61 745.032 52.6635C741.455 47.9821 737.54 43.4759 733.29 39.1751C711.823 17.4733 685.03 4.40734 657.167 0C696.392 4.68137 734.4 22.2384 764.495 52.6635C835.671 124.635 835.671 241.289 764.495 313.245L743.082 334.893C743.055 334.92 743.014 334.962 742.988 334.988L635.618 443.52L528.264 334.973C481.224 287.417 471.5 216.42 499.118 159.182Z" fill="url(#paint2_linear_1459_753)"/>
<path d="M142 593.957C142 597.69 140.667 600.824 138 603.357C135.467 606.024 132.333 607.357 128.6 607.357H48.6C46.0667 607.49 43.9333 608.09 42.2 609.157C40.6 610.09 39.4 611.224 38.6 612.557C37.8 613.757 37.4 615.024 37.4 616.357C37.4 617.69 37.8 619.024 38.6 620.357C39.4 621.557 40.6 622.69 42.2 623.757C43.9333 624.69 46.0667 625.224 48.6 625.357H105.4C114.733 625.624 122.4 627.824 128.4 631.957C134.533 635.957 138.867 640.624 141.4 645.957C144.067 651.157 145.4 656.49 145.4 661.957C145.4 667.29 144.067 672.624 141.4 677.957C138.733 683.157 134.4 687.824 128.4 691.957C122.4 695.957 114.733 697.957 105.4 697.957H104.2C103.4 698.09 102.6 698.157 101.8 698.157H26.2C22.4667 698.157 19.2667 696.89 16.6 694.357C14.0667 691.69 12.8 688.49 12.8 684.757C12.8 681.024 14.1333 677.89 16.8 675.357C19.3333 672.69 22.4667 671.357 26.2 671.357H106.6C109.133 671.49 111.2 671.024 112.8 669.957C114.533 668.89 115.8 667.69 116.6 666.357C117.4 664.89 117.8 663.424 117.8 661.957C117.8 661.024 117.4 659.757 116.6 658.157C115.8 656.424 114.533 655.024 112.8 653.957C111.2 652.89 109.133 652.29 106.6 652.157H49.8C40.4667 651.89 32.7333 649.757 26.6 645.757C20.6 641.757 16.2667 637.224 13.6 632.157C11.0667 626.957 9.8 621.69 9.8 616.357C9.8 611.157 11.1333 606.024 13.8 600.957C16.4667 595.757 20.8 591.157 26.8 587.157C32.8 583.157 40.4667 581.024 49.8 580.757H51C51.8 580.624 52.6 580.557 53.4 580.557H128.6C132.333 580.557 135.467 581.89 138 584.557C140.667 587.09 142 590.224 142 593.957ZM163.6 685.157C163.6 681.424 164.867 678.29 167.4 675.757C170.067 673.09 173.267 671.757 177 671.757H215.4V607.357H177C173.267 607.357 170.133 606.024 167.6 603.357C164.933 600.824 163.6 597.69 163.6 593.957C163.6 590.224 164.867 587.09 167.4 584.557C170.067 581.89 173.267 580.557 177 580.557H280.6C284.333 580.557 287.533 581.824 290.2 584.357C292.733 587.024 294 590.224 294 593.957C294 597.69 292.667 600.89 290 603.557C287.467 606.09 284.333 607.357 280.6 607.357H242.4V671.757H280.6C284.333 671.757 287.533 673.024 290.2 675.557C292.733 678.224 294 681.424 294 685.157C294 688.89 292.667 692.09 290 694.757C287.467 697.29 284.333 698.557 280.6 698.557H177C173.267 698.557 170.133 697.224 167.6 694.557C164.933 692.024 163.6 688.89 163.6 685.157ZM401.4 580.557C410.733 581.09 418.4 584.69 424.4 591.357C430.4 597.89 434.733 605.357 437.4 613.757C440.067 622.157 441.4 630.757 441.4 639.557C441.4 648.357 440.067 656.957 437.4 665.357C434.867 673.757 430.533 681.29 424.4 687.957C418.4 694.49 410.733 698.024 401.4 698.557H327.8C324.2 698.424 321.133 697.157 318.6 694.757C316.2 692.224 314.933 689.157 314.8 685.557V635.957C314.933 632.224 316.333 629.157 319 626.757C321.667 624.224 324.867 622.957 328.6 622.957C332.2 623.09 335.267 624.424 337.8 626.957C340.333 629.357 341.667 632.357 341.8 635.957V666.357C341.8 669.957 343.667 671.757 347.4 671.757H394.6C399.667 671.49 403.867 669.557 407.2 665.957C410.533 662.357 412.933 658.29 414.4 653.757C416 649.09 416.8 644.357 416.8 639.557C416.8 634.757 416 630.09 414.4 625.557C412.933 620.89 410.533 616.757 407.2 613.157C403.867 609.557 399.667 607.624 394.6 607.357H327.8C319.8 606.69 315.467 602.357 314.8 594.357C314.8 590.624 316 587.424 318.4 584.757C320.933 582.09 324.067 580.69 327.8 580.557H401.4ZM508.2 667.557C508.2 663.824 509.467 660.69 512 658.157C514.667 655.49 517.867 654.157 521.6 654.157H552.2L547 639.357C544.867 633.89 542.733 628.757 540.6 623.957C538.6 619.024 536.267 614.557 533.6 610.557C531.2 606.557 528.467 604.424 525.4 604.157C522.2 604.424 519.333 606.557 516.8 610.557C514.267 614.557 511.933 619.024 509.8 623.957C507.8 628.757 505.733 633.89 503.6 639.357L484.6 691.357C483.267 694.157 481.533 696.49 479.4 698.357C477.4 700.09 474.333 700.957 470.2 700.957C466.333 700.957 463.133 699.624 460.6 696.957C458.2 694.29 457.133 691.09 457.4 687.357C457.533 685.624 457.933 684.024 458.6 682.557L480.6 625.757C486.733 610.824 492.867 598.757 499 589.557C505 580.49 513.8 575.89 525.4 575.757C536.867 575.89 545.6 580.49 551.6 589.557C557.733 598.49 563.867 610.557 570 625.757L592 682.557C592.667 684.024 593.067 685.624 593.2 687.357C593.467 691.09 592.333 694.29 589.8 696.957C587.4 699.624 584.267 700.957 580.4 700.957C576 700.957 572.733 700.09 570.6 698.357C568.6 696.49 566.933 694.157 565.6 691.357L561.8 680.957H521.6C517.867 680.957 514.733 679.624 512.2 676.957C509.533 674.424 508.2 671.29 508.2 667.557ZM677 575.157C683.933 575.157 690.733 575.957 697.4 577.557C704.2 579.157 710.667 581.557 716.8 584.757C722.933 587.824 728.333 591.957 733 597.157C737.8 602.357 740.4 608.557 740.8 615.757V624.157V687.957C740 695.957 735.6 700.29 727.6 700.957C723.867 700.957 720.6 699.757 717.8 697.357C715.133 694.824 713.8 691.69 713.8 687.957V621.957C713.533 617.824 711.933 614.424 709 611.757C706.2 608.957 703 606.757 699.4 605.157C695.933 603.557 692.267 602.357 688.4 601.557C684.667 600.757 680.867 600.357 677 600.357C673.133 600.357 669.267 600.757 665.4 601.557C661.667 602.357 658 603.557 654.4 605.157C650.933 606.757 647.733 608.957 644.8 611.757C642 614.424 640.467 617.824 640.2 621.957V687.957C639.533 695.957 635.2 700.29 627.2 700.957C623.467 700.957 620.2 699.757 617.4 697.357C614.733 694.824 613.4 691.69 613.4 687.957V624.157V615.757C613.8 608.557 616.333 602.357 621 597.157C625.667 591.957 631.067 587.824 637.2 584.757C643.333 581.557 649.733 579.157 656.4 577.557C663.2 575.957 670.067 575.157 677 575.157Z" fill="#182023"/>
<mask id="path-5-outside-1_1459_753" maskUnits="userSpaceOnUse" x="764.609" y="570" width="476" height="134" fill="black">
<rect fill="white" x="764.609" y="570" width="476" height="134"/>
<path d="M782.609 576.4C786.343 576.4 789.543 577.667 792.209 580.2C794.876 582.6 796.276 585.667 796.409 589.4V637.6C796.276 643.067 796.609 648.133 797.409 652.8C798.343 657.333 800.476 661.4 803.809 665C807.143 668.6 811.343 670.533 816.409 670.8H880.409C884.143 670.933 887.209 672.333 889.609 675C892.143 677.667 893.409 680.867 893.409 684.6C893.276 688.2 891.943 691.267 889.409 693.8C887.009 696.2 884.009 697.467 880.409 697.6H809.609C800.276 697.067 792.543 693.933 786.409 688.2C780.409 682.333 776.076 675.2 773.409 666.8C770.876 658.4 769.543 649.467 769.409 640V589.4C769.543 585.8 770.876 582.8 773.409 580.4C775.943 577.867 779.009 576.533 782.609 576.4ZM975.841 666.6C975.841 662.867 977.108 659.733 979.641 657.2C982.308 654.533 985.508 653.2 989.241 653.2H1019.84L1014.64 638.4C1012.51 632.933 1010.37 627.8 1008.24 623C1006.24 618.067 1003.91 613.6 1001.24 609.6C998.841 605.6 996.108 603.467 993.041 603.2C989.841 603.467 986.975 605.6 984.441 609.6C981.908 613.6 979.575 618.067 977.441 623C975.441 627.8 973.375 632.933 971.241 638.4L952.241 690.4C950.908 693.2 949.175 695.533 947.041 697.4C945.041 699.133 941.975 700 937.841 700C933.975 700 930.775 698.667 928.241 696C925.841 693.333 924.775 690.133 925.041 686.4C925.175 684.667 925.575 683.067 926.241 681.6L948.241 624.8C954.375 609.867 960.508 597.8 966.641 588.6C972.641 579.533 981.441 574.933 993.041 574.8C1004.51 574.933 1013.24 579.533 1019.24 588.6C1025.37 597.533 1031.51 609.6 1037.64 624.8L1059.64 681.6C1060.31 683.067 1060.71 684.667 1060.84 686.4C1061.11 690.133 1059.97 693.333 1057.44 696C1055.04 698.667 1051.91 700 1048.04 700C1043.64 700 1040.37 699.133 1038.24 697.4C1036.24 695.533 1034.57 693.2 1033.24 690.4L1029.44 680H989.241C985.508 680 982.375 678.667 979.841 676C977.175 673.467 975.841 670.333 975.841 666.6ZM1232.67 644.8C1235.21 650.133 1236.47 655.533 1236.47 661C1236.47 666.333 1235.14 671.667 1232.47 677C1229.81 682.2 1225.47 686.867 1219.47 691C1213.47 695 1205.81 697 1196.47 697H1195.27C1194.47 697.133 1193.67 697.2 1192.87 697.2H1112.47C1108.87 697.067 1105.81 695.8 1103.27 693.4C1100.87 690.867 1099.61 687.8 1099.47 684.2V592.6C1099.61 589 1100.87 586 1103.27 583.6C1105.81 581.067 1108.87 579.733 1112.47 579.6H1181.27C1182.07 579.6 1182.87 579.667 1183.67 579.8H1184.87C1194.21 580.067 1201.87 582.2 1207.87 586.2C1213.87 590.2 1218.21 594.8 1220.87 600C1223.54 605.067 1224.87 610.2 1224.87 615.4C1224.87 620.733 1223.61 625.933 1221.07 631C1220.94 631.267 1220.81 631.467 1220.67 631.6C1226.14 635.467 1230.14 639.867 1232.67 644.8ZM1197.67 670.4C1200.21 670.533 1202.27 670.067 1203.87 669C1205.61 667.933 1206.87 666.733 1207.67 665.4C1208.47 663.933 1208.87 662.467 1208.87 661C1208.87 660.067 1208.47 658.8 1207.67 657.2C1206.87 655.467 1205.61 654.067 1203.87 653C1202.27 651.933 1200.21 651.333 1197.67 651.2H1184.87H1126.47V665C1126.47 668.6 1128.34 670.4 1132.07 670.4H1133.67H1197.67ZM1192.47 622.6C1194.07 621.667 1195.27 620.6 1196.07 619.4C1196.87 618.067 1197.27 616.733 1197.27 615.4C1197.27 614.067 1196.87 612.8 1196.07 611.6C1195.27 610.267 1194.01 609.133 1192.27 608.2C1190.67 607.133 1188.61 606.533 1186.07 606.4H1132.07C1128.34 606.4 1126.47 608.2 1126.47 611.8V624.4H1186.07C1188.61 624.267 1190.74 623.667 1192.47 622.6Z"/>
</mask>
<path d="M782.609 576.4C786.343 576.4 789.543 577.667 792.209 580.2C794.876 582.6 796.276 585.667 796.409 589.4V637.6C796.276 643.067 796.609 648.133 797.409 652.8C798.343 657.333 800.476 661.4 803.809 665C807.143 668.6 811.343 670.533 816.409 670.8H880.409C884.143 670.933 887.209 672.333 889.609 675C892.143 677.667 893.409 680.867 893.409 684.6C893.276 688.2 891.943 691.267 889.409 693.8C887.009 696.2 884.009 697.467 880.409 697.6H809.609C800.276 697.067 792.543 693.933 786.409 688.2C780.409 682.333 776.076 675.2 773.409 666.8C770.876 658.4 769.543 649.467 769.409 640V589.4C769.543 585.8 770.876 582.8 773.409 580.4C775.943 577.867 779.009 576.533 782.609 576.4ZM975.841 666.6C975.841 662.867 977.108 659.733 979.641 657.2C982.308 654.533 985.508 653.2 989.241 653.2H1019.84L1014.64 638.4C1012.51 632.933 1010.37 627.8 1008.24 623C1006.24 618.067 1003.91 613.6 1001.24 609.6C998.841 605.6 996.108 603.467 993.041 603.2C989.841 603.467 986.975 605.6 984.441 609.6C981.908 613.6 979.575 618.067 977.441 623C975.441 627.8 973.375 632.933 971.241 638.4L952.241 690.4C950.908 693.2 949.175 695.533 947.041 697.4C945.041 699.133 941.975 700 937.841 700C933.975 700 930.775 698.667 928.241 696C925.841 693.333 924.775 690.133 925.041 686.4C925.175 684.667 925.575 683.067 926.241 681.6L948.241 624.8C954.375 609.867 960.508 597.8 966.641 588.6C972.641 579.533 981.441 574.933 993.041 574.8C1004.51 574.933 1013.24 579.533 1019.24 588.6C1025.37 597.533 1031.51 609.6 1037.64 624.8L1059.64 681.6C1060.31 683.067 1060.71 684.667 1060.84 686.4C1061.11 690.133 1059.97 693.333 1057.44 696C1055.04 698.667 1051.91 700 1048.04 700C1043.64 700 1040.37 699.133 1038.24 697.4C1036.24 695.533 1034.57 693.2 1033.24 690.4L1029.44 680H989.241C985.508 680 982.375 678.667 979.841 676C977.175 673.467 975.841 670.333 975.841 666.6ZM1232.67 644.8C1235.21 650.133 1236.47 655.533 1236.47 661C1236.47 666.333 1235.14 671.667 1232.47 677C1229.81 682.2 1225.47 686.867 1219.47 691C1213.47 695 1205.81 697 1196.47 697H1195.27C1194.47 697.133 1193.67 697.2 1192.87 697.2H1112.47C1108.87 697.067 1105.81 695.8 1103.27 693.4C1100.87 690.867 1099.61 687.8 1099.47 684.2V592.6C1099.61 589 1100.87 586 1103.27 583.6C1105.81 581.067 1108.87 579.733 1112.47 579.6H1181.27C1182.07 579.6 1182.87 579.667 1183.67 579.8H1184.87C1194.21 580.067 1201.87 582.2 1207.87 586.2C1213.87 590.2 1218.21 594.8 1220.87 600C1223.54 605.067 1224.87 610.2 1224.87 615.4C1224.87 620.733 1223.61 625.933 1221.07 631C1220.94 631.267 1220.81 631.467 1220.67 631.6C1226.14 635.467 1230.14 639.867 1232.67 644.8ZM1197.67 670.4C1200.21 670.533 1202.27 670.067 1203.87 669C1205.61 667.933 1206.87 666.733 1207.67 665.4C1208.47 663.933 1208.87 662.467 1208.87 661C1208.87 660.067 1208.47 658.8 1207.67 657.2C1206.87 655.467 1205.61 654.067 1203.87 653C1202.27 651.933 1200.21 651.333 1197.67 651.2H1184.87H1126.47V665C1126.47 668.6 1128.34 670.4 1132.07 670.4H1133.67H1197.67ZM1192.47 622.6C1194.07 621.667 1195.27 620.6 1196.07 619.4C1196.87 618.067 1197.27 616.733 1197.27 615.4C1197.27 614.067 1196.87 612.8 1196.07 611.6C1195.27 610.267 1194.01 609.133 1192.27 608.2C1190.67 607.133 1188.61 606.533 1186.07 606.4H1132.07C1128.34 606.4 1126.47 608.2 1126.47 611.8V624.4H1186.07C1188.61 624.267 1190.74 623.667 1192.47 622.6Z" fill="url(#paint3_linear_1459_753)"/>
<path d="M782.609 576.4V572.56H782.538L782.467 572.563L782.609 576.4ZM792.209 580.2L789.565 582.984L789.602 583.02L789.641 583.054L792.209 580.2ZM796.409 589.4H800.249V589.331L800.247 589.263L796.409 589.4ZM796.409 637.6L800.248 637.694L800.249 637.647V637.6H796.409ZM797.409 652.8L793.625 653.449L793.635 653.512L793.648 653.574L797.409 652.8ZM816.409 670.8L816.208 674.635L816.308 674.64H816.409V670.8ZM880.409 670.8L880.546 666.962L880.478 666.96H880.409V670.8ZM889.609 675L886.755 677.569L886.79 677.607L886.825 677.645L889.609 675ZM893.409 684.6L897.247 684.742L897.249 684.671V684.6H893.409ZM889.409 693.8L892.125 696.515L889.409 693.8ZM880.409 697.6V701.44H880.48L880.552 701.437L880.409 697.6ZM809.609 697.6L809.39 701.434L809.5 701.44H809.609V697.6ZM786.409 688.2L783.725 690.946L783.756 690.976L783.787 691.005L786.409 688.2ZM773.409 666.8L769.733 667.909L769.741 667.935L769.749 667.962L773.409 666.8ZM769.409 640H765.569V640.027L765.57 640.054L769.409 640ZM769.409 589.4L765.572 589.258L765.569 589.329V589.4H769.409ZM773.409 580.4L776.05 583.188L776.088 583.152L776.125 583.115L773.409 580.4ZM782.609 576.4V580.24C785.375 580.24 787.623 581.14 789.565 582.984L792.209 580.2L794.854 577.416C791.462 574.193 787.311 572.56 782.609 572.56V576.4ZM792.209 580.2L789.641 583.054C791.498 584.726 792.474 586.796 792.572 589.537L796.409 589.4L800.247 589.263C800.078 584.538 798.254 580.474 794.778 577.346L792.209 580.2ZM796.409 589.4H792.569V637.6H796.409H800.249V589.4H796.409ZM796.409 637.6L792.571 637.506C792.432 643.184 792.777 648.503 793.625 653.449L797.409 652.8L801.194 652.151C800.442 647.764 800.12 642.949 800.248 637.694L796.409 637.6ZM797.409 652.8L793.648 653.574C794.731 658.836 797.212 663.527 800.992 667.609L803.809 665L806.627 662.391C803.74 659.273 801.954 655.831 801.17 652.026L797.409 652.8ZM803.809 665L800.992 667.609C805.03 671.97 810.181 674.317 816.208 674.635L816.409 670.8L816.611 666.965C812.505 666.749 809.256 665.23 806.627 662.391L803.809 665ZM816.409 670.8V674.64H880.409V670.8V666.96H816.409V670.8ZM880.409 670.8L880.272 674.638C883.014 674.735 885.083 675.711 886.755 677.569L889.609 675L892.464 672.431C889.336 668.956 885.272 667.131 880.546 666.962L880.409 670.8ZM889.609 675L886.825 677.645C888.669 679.586 889.569 681.835 889.569 684.6H893.409H897.249C897.249 679.899 895.616 675.747 892.393 672.355L889.609 675ZM893.409 684.6L889.572 684.458C889.474 687.095 888.538 689.241 886.694 691.085L889.409 693.8L892.125 696.515C895.348 693.292 897.078 689.305 897.247 684.742L893.409 684.6ZM889.409 693.8L886.694 691.085C885.024 692.755 882.964 693.663 880.267 693.763L880.409 697.6L880.552 701.437C885.055 701.271 888.994 699.645 892.125 696.515L889.409 693.8ZM880.409 697.6V693.76H809.609V697.6V701.44H880.409V697.6ZM809.609 697.6L809.828 693.766C801.283 693.278 794.434 690.444 789.032 685.395L786.409 688.2L783.787 691.005C790.652 697.422 799.269 700.855 809.39 701.434L809.609 697.6ZM786.409 688.2L789.094 685.454C783.567 680.05 779.555 673.469 777.069 665.638L773.409 666.8L769.749 667.962C772.597 676.931 777.252 684.617 783.725 690.946L786.409 688.2ZM773.409 666.8L777.086 665.691C774.664 657.659 773.378 649.083 773.249 639.946L769.409 640L765.57 640.054C765.708 649.85 767.089 659.141 769.733 667.909L773.409 666.8ZM769.409 640H773.249V589.4H769.409H765.569V640H769.409ZM769.409 589.4L773.247 589.542C773.344 586.91 774.273 584.872 776.05 583.188L773.409 580.4L770.768 577.612C767.48 580.728 765.741 584.69 765.572 589.258L769.409 589.4ZM773.409 580.4L776.125 583.115C777.968 581.272 780.114 580.335 782.752 580.237L782.609 576.4L782.467 572.563C777.905 572.732 773.917 574.462 770.694 577.685L773.409 580.4ZM979.641 657.2L982.357 659.915L979.641 657.2ZM1019.84 653.2V657.04H1025.26L1023.46 651.927L1019.84 653.2ZM1014.64 638.4L1018.26 637.127L1018.24 637.065L1018.22 637.004L1014.64 638.4ZM1008.24 623L1004.68 624.443L1004.71 624.502L1004.73 624.56L1008.24 623ZM1001.24 609.6L997.949 611.576L997.996 611.654L998.046 611.73L1001.24 609.6ZM993.041 603.2L993.374 599.374L993.048 599.346L992.722 599.373L993.041 603.2ZM977.441 623L973.917 621.476L973.907 621.499L973.897 621.523L977.441 623ZM971.241 638.4L967.664 637.004L967.649 637.043L967.635 637.082L971.241 638.4ZM952.241 690.4L955.708 692.051L955.786 691.888L955.848 691.718L952.241 690.4ZM947.041 697.4L949.556 700.302L949.563 700.296L949.57 700.29L947.041 697.4ZM928.241 696L925.387 698.569L925.422 698.607L925.457 698.645L928.241 696ZM925.041 686.4L921.213 686.105L921.212 686.116L921.211 686.126L925.041 686.4ZM926.241 681.6L929.737 683.189L929.783 683.089L929.822 682.987L926.241 681.6ZM948.241 624.8L944.689 623.341L944.675 623.377L944.661 623.413L948.241 624.8ZM966.641 588.6L969.836 590.73L969.844 590.719L966.641 588.6ZM993.041 574.8L993.086 570.96L993.042 570.96L992.997 570.96L993.041 574.8ZM1019.24 588.6L1016.04 590.719L1016.06 590.746L1016.08 590.773L1019.24 588.6ZM1037.64 624.8L1041.22 623.413L1041.21 623.388L1041.2 623.363L1037.64 624.8ZM1059.64 681.6L1056.06 682.987L1056.1 683.089L1056.15 683.189L1059.64 681.6ZM1060.84 686.4L1064.67 686.126L1064.67 686.116L1064.67 686.105L1060.84 686.4ZM1057.44 696L1054.66 693.355L1054.62 693.393L1054.59 693.431L1057.44 696ZM1038.24 697.4L1035.62 700.207L1035.72 700.297L1035.82 700.38L1038.24 697.4ZM1033.24 690.4L1029.63 691.718L1029.7 691.888L1029.77 692.051L1033.24 690.4ZM1029.44 680L1033.05 678.682L1032.13 676.16H1029.44V680ZM979.841 676L982.625 673.355L982.558 673.284L982.486 673.216L979.841 676ZM975.841 666.6H979.681C979.681 663.837 980.577 661.695 982.357 659.915L979.641 657.2L976.926 654.485C973.64 657.771 972.001 661.896 972.001 666.6H975.841ZM979.641 657.2L982.357 659.915C984.311 657.961 986.538 657.04 989.241 657.04V653.2V649.36C984.478 649.36 980.305 651.106 976.926 654.485L979.641 657.2ZM989.241 653.2V657.04H1019.84V653.2V649.36H989.241V653.2ZM1019.84 653.2L1023.46 651.927L1018.26 637.127L1014.64 638.4L1011.02 639.673L1016.22 654.473L1019.84 653.2ZM1014.64 638.4L1018.22 637.004C1016.07 631.489 1013.91 626.3 1011.75 621.44L1008.24 623L1004.73 624.56C1006.84 629.3 1008.95 634.378 1011.06 639.796L1014.64 638.4ZM1008.24 623L1011.8 621.557C1009.71 616.408 1007.26 611.708 1004.44 607.47L1001.24 609.6L998.046 611.73C1000.55 615.492 1002.77 619.725 1004.68 624.443L1008.24 623ZM1001.24 609.6L1004.53 607.624C1001.84 603.134 998.201 599.794 993.374 599.374L993.041 603.2L992.709 607.026C994.015 607.139 995.843 608.066 997.949 611.576L1001.24 609.6ZM993.041 603.2L992.722 599.373C987.834 599.781 984.056 603.032 981.197 607.545L984.441 609.6L987.685 611.655C989.893 608.168 991.848 607.153 993.36 607.027L993.041 603.2ZM984.441 609.6L981.197 607.545C978.544 611.735 976.119 616.383 973.917 621.476L977.441 623L980.966 624.524C983.03 619.751 985.273 615.465 987.685 611.655L984.441 609.6ZM977.441 623L973.897 621.523C971.884 626.353 969.807 631.514 967.664 637.004L971.241 638.4L974.819 639.796C976.943 634.353 978.998 629.247 980.986 624.477L977.441 623ZM971.241 638.4L967.635 637.082L948.635 689.082L952.241 690.4L955.848 691.718L974.848 639.718L971.241 638.4ZM952.241 690.4L948.774 688.749C947.645 691.121 946.216 693.019 944.513 694.51L947.041 697.4L949.57 700.29C952.133 698.047 954.171 695.279 955.708 692.051L952.241 690.4ZM947.041 697.4L944.526 694.498C943.524 695.367 941.545 696.16 937.841 696.16V700V703.84C942.404 703.84 946.558 702.9 949.556 700.302L947.041 697.4ZM937.841 700V696.16C934.967 696.16 932.793 695.216 931.025 693.355L928.241 696L925.457 698.645C928.756 702.117 932.983 703.84 937.841 703.84V700ZM928.241 696L931.096 693.431C929.427 691.577 928.676 689.417 928.872 686.674L925.041 686.4L921.211 686.126C920.874 690.85 922.256 695.09 925.387 698.569L928.241 696ZM925.041 686.4L928.87 686.695C928.972 685.373 929.27 684.216 929.737 683.189L926.241 681.6L922.746 680.011C921.879 681.918 921.378 683.96 921.213 686.105L925.041 686.4ZM926.241 681.6L929.822 682.987L951.822 626.187L948.241 624.8L944.661 623.413L922.661 680.213L926.241 681.6ZM948.241 624.8L951.793 626.259C957.87 611.464 963.892 599.647 969.836 590.73L966.641 588.6L963.446 586.47C957.124 595.953 950.879 608.27 944.689 623.341L948.241 624.8ZM966.641 588.6L969.844 590.719C975.087 582.796 982.657 578.76 993.086 578.64L993.041 574.8L992.997 570.96C980.226 571.107 970.196 576.271 963.439 586.481L966.641 588.6ZM993.041 574.8L992.997 578.64C1003.27 578.759 1010.79 582.781 1016.04 590.719L1019.24 588.6L1022.44 586.481C1015.7 576.285 1005.74 571.107 993.086 570.96L993.041 574.8ZM1019.24 588.6L1016.08 590.773C1021.99 599.391 1028 611.179 1034.08 626.237L1037.64 624.8L1041.2 623.363C1035.01 608.021 1028.76 595.675 1022.41 586.427L1019.24 588.6ZM1037.64 624.8L1034.06 626.187L1056.06 682.987L1059.64 681.6L1063.22 680.213L1041.22 623.413L1037.64 624.8ZM1059.64 681.6L1056.15 683.189C1056.61 684.216 1056.91 685.373 1057.01 686.695L1060.84 686.4L1064.67 686.105C1064.51 683.96 1064 681.918 1063.14 680.011L1059.64 681.6ZM1060.84 686.4L1057.01 686.674C1057.2 689.352 1056.43 691.487 1054.66 693.355L1057.44 696L1060.23 698.645C1063.52 695.18 1065.01 690.915 1064.67 686.126L1060.84 686.4ZM1057.44 696L1054.59 693.431C1052.98 695.221 1050.91 696.16 1048.04 696.16V700V703.84C1052.9 703.84 1057.11 702.113 1060.3 698.569L1057.44 696ZM1048.04 700V696.16C1044.03 696.16 1041.81 695.349 1040.66 694.42L1038.24 697.4L1035.82 700.38C1038.94 702.917 1043.25 703.84 1048.04 703.84V700ZM1038.24 697.4L1040.86 694.593C1039.26 693.096 1037.86 691.172 1036.71 688.749L1033.24 690.4L1029.77 692.051C1031.29 695.228 1033.23 697.971 1035.62 700.207L1038.24 697.4ZM1033.24 690.4L1036.85 689.082L1033.05 678.682L1029.44 680L1025.83 681.318L1029.63 691.718L1033.24 690.4ZM1029.44 680V676.16H989.241V680V683.84H1029.44V680ZM989.241 680V676.16C986.543 676.16 984.422 675.246 982.625 673.355L979.841 676L977.057 678.645C980.328 682.087 984.473 683.84 989.241 683.84V680ZM979.841 676L982.486 673.216C980.595 671.42 979.681 669.299 979.681 666.6H975.841H972.001C972.001 671.368 973.754 675.513 977.197 678.784L979.841 676ZM1232.67 644.8L1236.14 643.152L1236.12 643.099L1236.09 643.046L1232.67 644.8ZM1232.47 677L1235.89 678.752L1235.9 678.735L1235.91 678.717L1232.47 677ZM1219.47 691L1221.6 694.195L1221.63 694.179L1221.65 694.162L1219.47 691ZM1195.27 697V693.16H1194.96L1194.64 693.212L1195.27 697ZM1112.47 697.2L1112.33 701.037L1112.4 701.04H1112.47V697.2ZM1103.27 693.4L1100.49 696.041L1100.56 696.116L1100.63 696.188L1103.27 693.4ZM1099.47 684.2H1095.63V684.271L1095.64 684.342L1099.47 684.2ZM1099.47 592.6L1095.64 592.458L1095.63 592.529V592.6H1099.47ZM1103.27 583.6L1100.56 580.885L1103.27 583.6ZM1112.47 579.6V575.76H1112.4L1112.33 575.763L1112.47 579.6ZM1183.67 579.8L1183.04 583.588L1183.36 583.64H1183.67V579.8ZM1184.87 579.8L1184.98 575.962L1184.93 575.96H1184.87V579.8ZM1220.87 600L1217.46 601.752L1217.47 601.77L1217.48 601.788L1220.87 600ZM1221.07 631L1217.64 629.283L1221.07 631ZM1220.67 631.6L1217.96 628.885L1214.74 632.105L1218.46 634.735L1220.67 631.6ZM1197.67 670.4L1197.88 666.565L1197.77 666.56H1197.67V670.4ZM1203.87 669L1201.86 665.73L1201.8 665.766L1201.74 665.805L1203.87 669ZM1207.67 665.4L1210.97 667.376L1211.01 667.308L1211.04 667.239L1207.67 665.4ZM1207.67 657.2L1204.19 658.809L1204.21 658.864L1204.24 658.917L1207.67 657.2ZM1203.87 653L1201.74 656.195L1201.8 656.234L1201.86 656.27L1203.87 653ZM1197.67 651.2L1197.88 647.365L1197.77 647.36H1197.67V651.2ZM1126.47 651.2V647.36H1122.63V651.2H1126.47ZM1192.47 622.6L1190.54 619.283L1190.5 619.306L1190.46 619.33L1192.47 622.6ZM1196.07 619.4L1199.27 621.53L1199.32 621.454L1199.37 621.376L1196.07 619.4ZM1196.07 611.6L1192.78 613.576L1192.83 613.654L1192.88 613.73L1196.07 611.6ZM1192.27 608.2L1190.14 611.395L1190.29 611.495L1190.45 611.581L1192.27 608.2ZM1186.07 606.4L1186.28 602.565L1186.17 602.56H1186.07V606.4ZM1126.47 624.4H1122.63V628.24H1126.47V624.4ZM1186.07 624.4V628.24H1186.17L1186.28 628.235L1186.07 624.4ZM1232.67 644.8L1229.2 646.448C1231.51 651.308 1232.63 656.148 1232.63 661H1236.47H1240.31C1240.31 654.919 1238.9 648.959 1236.14 643.152L1232.67 644.8ZM1236.47 661H1232.63C1232.63 665.67 1231.47 670.419 1229.04 675.283L1232.47 677L1235.91 678.717C1238.81 672.914 1240.31 666.997 1240.31 661H1236.47ZM1232.47 677L1229.06 675.248C1226.74 679.76 1222.9 683.977 1217.29 687.838L1219.47 691L1221.65 694.162C1228.05 689.756 1232.87 684.64 1235.89 678.752L1232.47 677ZM1219.47 691L1217.34 687.805C1212.14 691.277 1205.27 693.16 1196.47 693.16V697V700.84C1206.34 700.84 1214.81 698.723 1221.6 694.195L1219.47 691ZM1196.47 697V693.16H1195.27V697V700.84H1196.47V697ZM1195.27 697L1194.64 693.212C1194.05 693.311 1193.46 693.36 1192.87 693.36V697.2V701.04C1193.89 701.04 1194.9 700.955 1195.9 700.788L1195.27 697ZM1192.87 697.2V693.36H1112.47V697.2V701.04H1192.87V697.2ZM1112.47 697.2L1112.62 693.363C1109.92 693.263 1107.75 692.348 1105.91 690.612L1103.27 693.4L1100.63 696.188C1103.87 699.252 1107.83 700.871 1112.33 701.037L1112.47 697.2ZM1103.27 693.4L1106.06 690.759C1104.33 688.927 1103.41 686.758 1103.31 684.058L1099.47 684.2L1095.64 684.342C1095.8 688.842 1097.42 692.806 1100.49 696.041L1103.27 693.4ZM1099.47 684.2H1103.31V592.6H1099.47H1095.63V684.2H1099.47ZM1099.47 592.6L1103.31 592.742C1103.41 590.045 1104.32 587.985 1105.99 586.315L1103.27 583.6L1100.56 580.885C1097.43 584.015 1095.8 587.955 1095.64 592.458L1099.47 592.6ZM1103.27 583.6L1105.99 586.315C1107.83 584.472 1109.98 583.535 1112.62 583.437L1112.47 579.6L1112.33 575.763C1107.77 575.932 1103.78 577.662 1100.56 580.885L1103.27 583.6ZM1112.47 579.6V583.44H1181.27V579.6V575.76H1112.47V579.6ZM1181.27 579.6V583.44C1181.86 583.44 1182.45 583.489 1183.04 583.588L1183.67 579.8L1184.3 576.012C1183.3 575.845 1182.29 575.76 1181.27 575.76V579.6ZM1183.67 579.8V583.64H1184.87V579.8V575.96H1183.67V579.8ZM1184.87 579.8L1184.76 583.638C1193.59 583.89 1200.5 585.897 1205.74 589.395L1207.87 586.2L1210 583.005C1203.25 578.503 1194.83 576.243 1184.98 575.962L1184.87 579.8ZM1207.87 586.2L1205.74 589.395C1211.32 593.116 1215.15 597.257 1217.46 601.752L1220.87 600L1224.29 598.248C1221.26 592.343 1216.42 587.284 1210 583.005L1207.87 586.2ZM1220.87 600L1217.48 601.788C1219.88 606.36 1221.03 610.884 1221.03 615.4H1224.87H1228.71C1228.71 609.516 1227.2 603.773 1224.27 598.212L1220.87 600ZM1224.87 615.4H1221.03C1221.03 620.1 1219.92 624.715 1217.64 629.283L1221.07 631L1224.51 632.717C1227.29 627.151 1228.71 621.366 1228.71 615.4H1224.87ZM1221.07 631L1217.64 629.283C1217.63 629.306 1217.64 629.279 1217.68 629.22C1217.72 629.164 1217.81 629.038 1217.96 628.885L1220.67 631.6L1223.39 634.315C1223.93 633.771 1224.28 633.165 1224.51 632.717L1221.07 631ZM1220.67 631.6L1218.46 634.735C1223.52 638.318 1227.06 642.274 1229.26 646.554L1232.67 644.8L1236.09 643.046C1233.22 637.46 1228.76 632.615 1222.89 628.465L1220.67 631.6ZM1197.67 670.4L1197.47 674.235C1200.57 674.398 1203.52 673.848 1206 672.195L1203.87 669L1201.74 665.805C1201.02 666.286 1199.85 666.669 1197.88 666.565L1197.67 670.4ZM1203.87 669L1205.89 672.27C1207.99 670.977 1209.77 669.375 1210.97 667.376L1207.67 665.4L1204.38 663.424C1203.98 664.092 1203.23 664.889 1201.86 665.73L1203.87 669ZM1207.67 665.4L1211.04 667.239C1212.11 665.287 1212.71 663.194 1212.71 661H1208.87H1205.03C1205.03 661.739 1204.84 662.579 1204.3 663.561L1207.67 665.4ZM1208.87 661H1212.71C1212.71 659.142 1211.97 657.213 1211.11 655.483L1207.67 657.2L1204.24 658.917C1204.58 659.594 1204.79 660.119 1204.91 660.506C1205.04 660.91 1205.03 661.053 1205.03 661H1208.87ZM1207.67 657.2L1211.16 655.591C1210.02 653.124 1208.22 651.165 1205.89 649.73L1203.87 653L1201.86 656.27C1202.99 656.968 1203.73 657.809 1204.19 658.809L1207.67 657.2ZM1203.87 653L1206 649.805C1203.67 648.252 1200.88 647.524 1197.88 647.365L1197.67 651.2L1197.47 655.035C1199.53 655.143 1200.87 655.614 1201.74 656.195L1203.87 653ZM1197.67 651.2V647.36H1184.87V651.2V655.04H1197.67V651.2ZM1184.87 651.2V647.36H1126.47V651.2V655.04H1184.87V651.2ZM1126.47 651.2H1122.63V665H1126.47H1130.31V651.2H1126.47ZM1126.47 665H1122.63C1122.63 667.428 1123.27 669.946 1125.21 671.814C1127.12 673.657 1129.65 674.24 1132.07 674.24V670.4V666.56C1131.44 666.56 1131.03 666.482 1130.8 666.407C1130.69 666.37 1130.62 666.337 1130.58 666.317C1130.55 666.298 1130.54 666.287 1130.54 666.286C1130.54 666.285 1130.53 666.28 1130.52 666.262C1130.51 666.242 1130.48 666.195 1130.45 666.108C1130.39 665.926 1130.31 665.579 1130.31 665H1126.47ZM1132.07 670.4V674.24H1133.67V670.4V666.56H1132.07V670.4ZM1133.67 670.4V674.24H1197.67V670.4V666.56H1133.67V670.4ZM1192.47 622.6L1194.41 625.917C1196.37 624.77 1198.07 623.334 1199.27 621.53L1196.07 619.4L1192.88 617.27C1192.48 617.866 1191.77 618.563 1190.54 619.283L1192.47 622.6ZM1196.07 619.4L1199.37 621.376C1200.46 619.546 1201.11 617.538 1201.11 615.4H1197.27H1193.43C1193.43 615.929 1193.28 616.587 1192.78 617.424L1196.07 619.4ZM1197.27 615.4H1201.11C1201.11 613.246 1200.45 611.247 1199.27 609.47L1196.07 611.6L1192.88 613.73C1193.29 614.353 1193.43 614.887 1193.43 615.4H1197.27ZM1196.07 611.6L1199.37 609.624C1198.13 607.56 1196.28 605.994 1194.09 604.819L1192.27 608.2L1190.45 611.581C1191.74 612.273 1192.42 612.973 1192.78 613.576L1196.07 611.6ZM1192.27 608.2L1194.4 605.005C1192.07 603.452 1189.28 602.724 1186.28 602.565L1186.07 606.4L1185.87 610.235C1187.93 610.343 1189.27 610.814 1190.14 611.395L1192.27 608.2ZM1186.07 606.4V602.56H1132.07V606.4V610.24H1186.07V606.4ZM1132.07 606.4V602.56C1129.65 602.56 1127.12 603.143 1125.21 604.986C1123.27 606.854 1122.63 609.372 1122.63 611.8H1126.47H1130.31C1130.31 611.221 1130.39 610.874 1130.45 610.692C1130.48 610.605 1130.51 610.558 1130.52 610.538C1130.53 610.52 1130.54 610.515 1130.54 610.514C1130.54 610.513 1130.55 610.502 1130.58 610.483C1130.62 610.463 1130.69 610.43 1130.8 610.393C1131.03 610.318 1131.44 610.24 1132.07 610.24V606.4ZM1126.47 611.8H1122.63V624.4H1126.47H1130.31V611.8H1126.47ZM1126.47 624.4V628.24H1186.07V624.4V620.56H1126.47V624.4ZM1186.07 624.4L1186.28 628.235C1189.29 628.076 1192.09 627.347 1194.49 625.87L1192.47 622.6L1190.46 619.33C1189.39 619.987 1187.92 620.458 1185.87 620.565L1186.07 624.4Z" fill="#499FD5" mask="url(#path-5-outside-1_1459_753)"/>
<defs>
<radialGradient id="paint0_radial_1459_753" cx="0" cy="0" r="1" gradientUnits="userSpaceOnUse" gradientTransform="translate(759.37 644.806) scale(2.09465 2.12592)">
<stop offset="0.1561" stop-color="#79B465" stop-opacity="0.1"/>
<stop offset="0.8774" stop-color="#5FAC8C" stop-opacity="0.1"/>
</radialGradient>
<linearGradient id="paint1_linear_1459_753" x1="837.644" y1="289.292" x2="301.21" y2="16.4866" gradientUnits="userSpaceOnUse">
<stop stop-color="#2E9AD5"/>
<stop offset="0.3209" stop-color="#45A5D2"/>
<stop offset="0.9528" stop-color="#70C5CB"/>
<stop offset="1" stop-color="#72C9CA"/>
</linearGradient>
<linearGradient id="paint2_linear_1459_753" x1="481.891" y1="310.986" x2="835.631" y2="123.258" gradientUnits="userSpaceOnUse">
<stop offset="0.0116" stop-color="#2E9AD5"/>
<stop offset="0.328" stop-color="#45A5D2"/>
<stop offset="0.4148" stop-color="#4BA9D1"/>
<stop offset="1" stop-color="#72C9CA"/>
</linearGradient>
<linearGradient id="paint3_linear_1459_753" x1="1243.99" y1="688.253" x2="821.603" y2="418.73" gradientUnits="userSpaceOnUse">
<stop stop-color="#6DC4CB"/>
<stop offset="1" stop-color="#3BA0D3"/>
</linearGradient>
</defs>
</svg>
