<svg width="785" height="80" viewBox="0 0 785 80" fill="none" xmlns="http://www.w3.org/2000/svg">
<path d="M128.59 62.9055C124.477 62.9055 120.832 62.1712 117.656 60.7026C114.48 59.234 111.981 57.0837 110.158 54.2514C108.388 51.3667 107.503 47.8789 107.503 43.7879V41.821H115.86V43.7879C115.86 47.6691 117.005 50.58 119.296 52.5206C121.639 54.4612 124.737 55.4315 128.59 55.4315C132.495 55.4315 135.437 54.6186 137.416 52.9926C139.394 51.3143 140.384 49.1639 140.384 46.5414C140.384 44.8106 139.915 43.3945 138.978 42.2931C138.041 41.1917 136.713 40.3262 134.995 39.6969C133.276 39.015 131.22 38.3856 128.825 37.8087L125.935 37.1006C122.446 36.2615 119.4 35.2387 116.797 34.0324C114.246 32.7736 112.267 31.1215 110.861 29.076C109.455 27.0305 108.753 24.408 108.753 21.2086C108.753 17.9568 109.534 15.177 111.096 12.8693C112.71 10.5615 114.923 8.77827 117.734 7.51949C120.546 6.26072 123.852 5.63134 127.653 5.63134C131.454 5.63134 134.838 6.28695 137.806 7.59817C140.826 8.90939 143.195 10.85 144.914 13.42C146.632 15.99 147.491 19.2156 147.491 23.0968V25.929H139.134V23.0968C139.134 20.7366 138.639 18.8222 137.65 17.3537C136.713 15.8851 135.385 14.8099 133.667 14.1281C131.949 13.4462 129.944 13.1053 127.653 13.1053C124.321 13.1053 121.717 13.8134 119.843 15.2295C118.021 16.5931 117.109 18.5075 117.109 20.9726C117.109 22.651 117.5 24.0409 118.281 25.1423C119.114 26.1913 120.312 27.0567 121.874 27.7385C123.436 28.4204 125.388 29.0235 127.731 29.548L130.621 30.2561C134.162 31.0428 137.286 32.0656 139.993 33.3243C142.701 34.5307 144.835 36.1828 146.398 38.2807C147.96 40.3787 148.741 43.0798 148.741 46.3841C148.741 49.6884 147.907 52.573 146.241 55.0381C144.627 57.5032 142.31 59.4439 139.29 60.86C136.27 62.2236 132.704 62.9055 128.59 62.9055Z" fill="white"/>
<path d="M157.83 80V23.0181H165.718V28.6039H166.968C167.957 26.8731 169.441 25.3259 171.419 23.9622C173.45 22.5985 176.34 21.9167 180.089 21.9167C183.317 21.9167 186.259 22.7034 188.914 24.2769C191.622 25.8504 193.782 28.1319 195.397 31.1215C197.063 34.0586 197.896 37.6251 197.896 41.821V43.0011C197.896 47.197 197.089 50.7898 195.475 53.7794C193.861 56.7165 191.7 58.9718 188.992 60.5453C186.285 62.1187 183.317 62.9055 180.089 62.9055C177.589 62.9055 175.481 62.5908 173.762 61.9614C172.044 61.332 170.664 60.5453 169.623 59.6012C168.582 58.6047 167.749 57.5819 167.124 56.5329H165.874V75.2416L157.83 80ZM177.746 55.8249C181.286 55.8249 184.176 54.6972 186.415 52.4419C188.654 50.1866 189.773 46.961 189.773 42.7651V42.0571C189.773 37.9136 188.628 34.7142 186.337 32.4589C184.098 30.2036 181.234 29.076 177.746 29.076C174.309 29.076 171.445 30.2036 169.154 32.4589C166.915 34.7142 165.796 37.9136 165.796 42.0571V42.7651C165.796 46.961 166.915 50.1866 169.154 52.4419C171.445 54.6972 174.309 55.8249 177.746 55.8249Z" fill="white"/>
<path d="M225.514 62.9055C221.609 62.9055 218.199 62.0925 215.283 60.4666C212.367 58.7882 210.076 56.4543 208.41 53.4647C206.796 50.4226 205.989 46.9086 205.989 42.9225V41.9784C205.989 37.9398 206.796 34.4258 208.41 31.4362C210.024 28.3941 212.263 26.0602 215.127 24.4342C218.043 22.7559 221.401 21.9167 225.202 21.9167C228.899 21.9167 232.127 22.7559 234.887 24.4342C237.698 26.0602 239.885 28.3417 241.447 31.2788C243.009 34.216 243.79 37.6514 243.79 41.585V44.6533H214.19C214.294 48.0625 215.413 50.7898 217.548 52.8353C219.735 54.8284 222.442 55.8249 225.671 55.8249C228.691 55.8249 230.956 55.143 232.465 53.7794C234.028 52.4157 235.225 50.8422 236.058 49.059L242.697 52.5206C241.968 53.9892 240.9 55.5364 239.495 57.1623C238.141 58.7882 236.345 60.1519 234.106 61.2533C231.867 62.3548 229.003 62.9055 225.514 62.9055ZM214.268 38.4381H235.59C235.381 35.501 234.34 33.2194 232.465 31.5935C230.591 29.9152 228.144 29.076 225.124 29.076C222.104 29.076 219.631 29.9152 217.704 31.5935C215.83 33.2194 214.684 35.501 214.268 38.4381Z" fill="white"/>
<path d="M271.359 62.9055C267.662 62.9055 264.304 62.1187 261.284 60.5453C258.316 58.9718 255.947 56.6903 254.177 53.7007C252.458 50.7111 251.599 47.1184 251.599 42.9225V41.8997C251.599 37.7038 252.458 34.1373 254.177 31.2002C255.947 28.2106 258.316 25.929 261.284 24.3556C264.304 22.7297 267.662 21.9167 271.359 21.9167C275.056 21.9167 278.206 22.5985 280.809 23.9622C283.413 25.3259 285.495 27.1354 287.057 29.3907C288.671 31.646 289.713 34.1373 290.181 36.8646L282.371 38.5168C282.111 36.7859 281.564 35.2125 280.731 33.7964C279.898 32.3802 278.726 31.2526 277.217 30.4134C275.707 29.5742 273.806 29.1546 271.515 29.1546C269.276 29.1546 267.246 29.6791 265.423 30.7281C263.653 31.7246 262.247 33.1932 261.206 35.1338C260.164 37.022 259.644 39.3297 259.644 42.0571V42.7651C259.644 45.4925 260.164 47.8264 261.206 49.767C262.247 51.7076 263.653 53.1762 265.423 54.1727C267.246 55.1693 269.276 55.6675 271.515 55.6675C274.899 55.6675 277.477 54.8021 279.247 53.0713C281.017 51.2881 282.137 49.0328 282.606 46.3054L290.416 48.1149C289.791 50.7898 288.671 53.2549 287.057 55.5102C285.495 57.7655 283.413 59.575 280.809 60.9386C278.206 62.2499 275.056 62.9055 271.359 62.9055Z" fill="white"/>
<path d="M312.694 61.804C310.35 61.804 308.476 61.096 307.07 59.6799C305.716 58.2638 305.04 56.3756 305.04 54.0154V29.8627H294.418V23.0181H305.04V12.4058L313.084 7.73309V23.0181H324.565V29.8627H313.084V52.5993C313.084 54.1727 313.813 54.9595 315.271 54.9595H323.315V61.804H312.694Z" fill="white"/>
<path d="M334.016 61.804V23.0181H341.904V27.5812H343.154C343.779 25.9553 344.768 24.7752 346.122 24.0409C347.528 23.2542 349.246 22.8608 351.276 22.8608H355.884V30.1774H350.964C348.361 30.1774 346.226 30.9117 344.56 32.3802C342.893 33.7964 342.06 35.9992 342.06 38.9888V61.804H334.016Z" fill="white"/>
<path d="M378.98 62.5121C376.065 62.5121 373.461 61.8565 371.17 60.5453C368.879 59.2341 367.083 57.3721 365.781 54.9595C364.48 52.5468 363.829 49.6621 363.829 46.3054V23.0181H371.873V45.7547C371.873 49.1114 372.706 51.6027 374.372 53.2287C376.039 54.8021 378.356 55.5889 381.324 55.5889C384.604 55.5889 387.233 54.4874 389.212 52.2846C391.242 50.0293 392.258 46.8037 392.258 42.6078V23.0181H400.302V61.804H392.414V55.9822H391.164C390.435 57.5557 389.134 59.0505 387.259 60.4666C385.385 61.8303 382.625 62.5121 378.98 62.5121Z" fill="white"/>
<path d="M412.194 61.804V23.0181H420.082V27.5812H421.332C422.061 26.2175 423.232 25.0112 424.846 23.9622C426.46 22.9132 428.647 22.3887 431.407 22.3887C434.271 22.3887 436.562 22.9919 438.28 24.1982C440.05 25.3521 441.378 26.8469 442.263 28.6826H443.513C444.398 26.8993 445.673 25.4046 447.34 24.1982C449.058 22.9919 451.479 22.3887 454.603 22.3887C457.102 22.3887 459.315 22.9132 461.242 23.9622C463.168 24.9587 464.704 26.4798 465.85 28.5253C466.995 30.5183 467.568 33.0096 467.568 35.9992V61.804H459.523V36.6286C459.523 34.2684 458.873 32.4589 457.571 31.2002C456.321 29.8889 454.525 29.2333 452.182 29.2333C449.683 29.2333 447.678 30.0463 446.168 31.6722C444.658 33.2981 443.903 35.6321 443.903 38.6741V61.804H435.859V36.6286C435.859 34.2684 435.208 32.4589 433.906 31.2002C432.656 29.8889 430.86 29.2333 428.517 29.2333C426.018 29.2333 424.013 30.0463 422.503 31.6722C420.993 33.2981 420.238 35.6321 420.238 38.6741V61.804H412.194Z" fill="white"/>
<path d="M498.71 61.804V6.73276H532.45V14.4427H507.145V30.3347H530.419V38.0447H507.145V61.804H498.71Z" fill="white"/>
<path d="M540.893 61.804V23.0181H548.938V61.804H540.893Z" fill="white"/>
<path d="M560.876 61.804V23.0181H568.764V28.84H570.014C570.743 27.2665 572.045 25.7979 573.919 24.4342C575.794 23.0706 578.579 22.3887 582.276 22.3887C585.192 22.3887 587.769 23.0444 590.008 24.3556C592.299 25.6668 594.095 27.5287 595.397 29.9414C596.699 32.3016 597.35 35.16 597.35 38.5168V61.804H589.305V39.1461C589.305 35.7894 588.472 33.3243 586.806 31.7509C585.14 30.1249 582.849 29.312 579.933 29.312C576.601 29.312 573.919 30.4134 571.889 32.6163C569.91 34.8191 568.921 38.0185 568.921 42.2144V61.804H560.876Z" fill="white"/>
<path d="M620.877 62.9055C618.117 62.9055 615.644 62.4334 613.457 61.4894C611.322 60.5453 609.604 59.1554 608.302 57.3197C607.053 55.484 606.428 53.2549 606.428 50.6324C606.428 47.9576 607.053 45.7547 608.302 44.0239C609.604 42.2406 611.348 40.9032 613.535 40.0116C615.774 39.1199 618.299 38.6741 621.111 38.6741H632.826V36.1566C632.826 33.9013 632.149 32.0918 630.795 30.7281C629.442 29.3644 627.359 28.6826 624.547 28.6826C621.788 28.6826 619.679 29.3382 618.221 30.6494C616.763 31.9607 615.8 33.6652 615.331 35.7632L607.834 33.3243C608.458 31.2264 609.448 29.3382 610.801 27.6599C612.207 25.929 614.056 24.5391 616.347 23.4902C618.638 22.4412 621.397 21.9167 624.625 21.9167C629.624 21.9167 633.555 23.2017 636.419 25.7717C639.282 28.3417 640.714 31.9869 640.714 36.7073V52.678C640.714 54.2514 641.443 55.0381 642.901 55.0381H646.181V61.804H640.168C638.345 61.804 636.861 61.332 635.716 60.3879C634.57 59.4438 633.998 58.1589 633.998 56.5329V56.2969H632.826C632.409 57.0837 631.785 58.0015 630.952 59.0505C630.119 60.0995 628.895 61.0173 627.281 61.804C625.667 62.5383 623.532 62.9055 620.877 62.9055ZM622.048 56.2182C625.276 56.2182 627.88 55.3004 629.858 53.4647C631.837 51.5765 632.826 49.0065 632.826 45.7547V44.968H621.579C619.445 44.968 617.726 45.44 616.425 46.3841C615.123 47.2757 614.472 48.6132 614.472 50.3964C614.472 52.1797 615.149 53.5958 616.503 54.6448C617.857 55.6938 619.705 56.2182 622.048 56.2182Z" fill="white"/>
<path d="M654.003 61.804V23.0181H661.891V28.84H663.141C663.87 27.2665 665.172 25.7979 667.046 24.4342C668.921 23.0706 671.706 22.3887 675.403 22.3887C678.319 22.3887 680.896 23.0444 683.135 24.3556C685.426 25.6668 687.222 27.5287 688.524 29.9414C689.826 32.3016 690.477 35.16 690.477 38.5168V61.804H682.432V39.1461C682.432 35.7894 681.599 33.3243 679.933 31.7509C678.267 30.1249 675.976 29.312 673.06 29.312C669.728 29.312 667.046 30.4134 665.016 32.6163C663.037 34.8191 662.048 38.0185 662.048 42.2144V61.804H654.003Z" fill="white"/>
<path d="M719.939 62.9055C716.242 62.9055 712.884 62.1187 709.864 60.5453C706.896 58.9718 704.527 56.6903 702.757 53.7007C701.039 50.7111 700.18 47.1184 700.18 42.9225V41.8997C700.18 37.7038 701.039 34.1373 702.757 31.2002C704.527 28.2106 706.896 25.929 709.864 24.3556C712.884 22.7297 716.242 21.9167 719.939 21.9167C723.636 21.9167 726.786 22.5985 729.39 23.9622C731.993 25.3259 734.076 27.1354 735.638 29.3907C737.252 31.646 738.293 34.1373 738.762 36.8646L730.952 38.5168C730.691 36.7859 730.145 35.2125 729.312 33.7964C728.478 32.3802 727.307 31.2526 725.797 30.4134C724.287 29.5742 722.387 29.1546 720.096 29.1546C717.857 29.1546 715.826 29.6791 714.004 30.7281C712.233 31.7246 710.827 33.1932 709.786 35.1338C708.745 37.022 708.224 39.3297 708.224 42.0571V42.7651C708.224 45.4925 708.745 47.8264 709.786 49.767C710.827 51.7076 712.233 53.1762 714.004 54.1727C715.826 55.1693 717.857 55.6675 720.096 55.6675C723.48 55.6675 726.057 54.8021 727.828 53.0713C729.598 51.2881 730.717 49.0328 731.186 46.3054L738.996 48.1149C738.371 50.7898 737.252 53.2549 735.638 55.5102C734.076 57.7655 731.993 59.575 729.39 60.9386C726.786 62.2499 723.636 62.9055 719.939 62.9055Z" fill="white"/>
<path d="M765.925 62.9055C762.02 62.9055 758.61 62.0925 755.694 60.4666C752.778 58.7882 750.487 56.4543 748.821 53.4647C747.207 50.4226 746.4 46.9086 746.4 42.9225V41.9784C746.4 37.9398 747.207 34.4258 748.821 31.4362C750.435 28.3941 752.674 26.0602 755.538 24.4342C758.454 22.7559 761.812 21.9167 765.613 21.9167C769.31 21.9167 772.538 22.7559 775.298 24.4342C778.109 26.0602 780.296 28.3417 781.858 31.2788C783.42 34.216 784.201 37.6514 784.201 41.585V44.6533H754.601C754.705 48.0625 755.824 50.7898 757.959 52.8353C760.146 54.8284 762.853 55.8249 766.082 55.8249C769.102 55.8249 771.366 55.143 772.876 53.7794C774.438 52.4157 775.636 50.8422 776.469 49.059L783.108 52.5206C782.379 53.9892 781.311 55.5364 779.906 57.1623C778.552 58.7882 776.755 60.1519 774.517 61.2533C772.278 62.3548 769.414 62.9055 765.925 62.9055ZM754.679 38.4381H776C775.792 35.501 774.751 33.2194 772.876 31.5935C771.002 29.9152 768.555 29.076 765.535 29.076C762.515 29.076 760.042 29.9152 758.115 31.5935C756.241 33.2194 755.095 35.501 754.679 38.4381Z" fill="white"/>
<path d="M540.385 8.32232H549.548V17.5522H540.385V8.32232Z" fill="white"/>
<path d="M6.56974 70.7174L0.201177 65.6851L0.201172 5.15764L6.56974 0.125592L6.56974 70.7174Z" fill="white"/>
<path d="M36.2551 70.8365L21.4074 65.7816L21.4074 5.05471L36.2551 0L36.2551 70.8365Z" fill="white"/>
<path d="M70.5206 70.8365L42.6339 66.0026L42.6339 5.05471L70.5206 0L70.5206 70.8365Z" fill="white"/>
</svg>
