<svg width="784" height="81" viewBox="0 0 784 81" fill="none" xmlns="http://www.w3.org/2000/svg">
<path d="M128.389 63.175C124.276 63.175 120.631 62.4407 117.455 60.9721C114.279 59.5036 111.78 57.3532 109.957 54.5209C108.187 51.6363 107.302 48.1484 107.302 44.0574V42.0906H115.659V44.0574C115.659 47.9386 116.804 50.8495 119.095 52.7901C121.438 54.7307 124.536 55.701 128.389 55.701C132.294 55.701 135.236 54.8881 137.215 53.2622C139.193 51.5838 140.183 49.4334 140.183 46.811C140.183 45.0802 139.714 43.664 138.777 42.5626C137.839 41.4612 136.512 40.5958 134.793 39.9664C133.075 39.2846 131.019 38.6552 128.623 38.0782L125.734 37.3702C122.245 36.531 119.199 35.5082 116.596 34.3019C114.044 33.0431 112.066 31.391 110.66 29.3455C109.254 27.3 108.551 24.6776 108.551 21.4782C108.551 18.2263 109.332 15.4466 110.894 13.1388C112.508 10.8311 114.721 9.0478 117.533 7.78902C120.345 6.53025 123.651 5.90087 127.452 5.90087C131.253 5.90087 134.637 6.55648 137.605 7.8677C140.625 9.17892 142.994 11.1195 144.712 13.6895C146.431 16.2595 147.29 19.4851 147.29 23.3663V26.1986H138.933V23.3663C138.933 21.0061 138.438 19.0918 137.449 17.6232C136.512 16.1546 135.184 15.0794 133.466 14.3976C131.748 13.7157 129.743 13.3748 127.452 13.3748C124.12 13.3748 121.516 14.0829 119.642 15.499C117.819 16.8627 116.908 18.7771 116.908 21.2422C116.908 22.9205 117.299 24.3104 118.08 25.4118C118.913 26.4608 120.11 27.3262 121.672 28.0081C123.234 28.6899 125.187 29.2931 127.53 29.8175L130.42 30.5256C133.96 31.3123 137.084 32.3351 139.792 33.5939C142.5 34.8002 144.634 36.4523 146.196 38.5503C147.758 40.6482 148.539 43.3493 148.539 46.6536C148.539 49.9579 147.706 52.8426 146.04 55.3077C144.426 57.7728 142.109 59.7134 139.089 61.1295C136.069 62.4932 132.503 63.175 128.389 63.175Z" fill="#060606"/>
<path d="M157.628 80.2695V23.2877H165.517V28.8735H166.766C167.756 27.1427 169.24 25.5954 171.218 24.2317C173.249 22.8681 176.139 22.1862 179.887 22.1862C183.116 22.1862 186.057 22.973 188.713 24.5464C191.42 26.1199 193.581 28.4014 195.195 31.391C196.862 34.3281 197.695 37.8947 197.695 42.0906V43.2707C197.695 47.4666 196.888 51.0593 195.273 54.0489C193.659 56.986 191.499 59.2413 188.791 60.8148C186.083 62.3883 183.116 63.175 179.887 63.175C177.388 63.175 175.279 62.8603 173.561 62.2309C171.843 61.6015 170.463 60.8148 169.422 59.8707C168.38 58.8742 167.547 57.8514 166.923 56.8025H165.673V75.5111L157.628 80.2695ZM177.544 56.0944C181.085 56.0944 183.975 54.9668 186.214 52.7115C188.453 50.4562 189.572 47.2306 189.572 43.0346V42.3266C189.572 38.1831 188.427 34.9837 186.136 32.7284C183.897 30.4731 181.033 29.3455 177.544 29.3455C174.108 29.3455 171.244 30.4731 168.953 32.7284C166.714 34.9837 165.595 38.1831 165.595 42.3266V43.0346C165.595 47.2306 166.714 50.4562 168.953 52.7115C171.244 54.9668 174.108 56.0944 177.544 56.0944Z" fill="#060606"/>
<path d="M225.313 63.175C221.408 63.175 217.998 62.362 215.082 60.7361C212.166 59.0578 209.875 56.7238 208.209 53.7342C206.595 50.6922 205.788 47.1781 205.788 43.192V42.2479C205.788 38.2094 206.595 34.6953 208.209 31.7057C209.823 28.6637 212.062 26.3297 214.926 24.7038C217.842 23.0254 221.2 22.1862 225.001 22.1862C228.698 22.1862 231.926 23.0254 234.685 24.7038C237.497 26.3297 239.684 28.6112 241.246 31.5484C242.808 34.4855 243.589 37.9209 243.589 41.8545V44.9228H213.989C214.093 48.332 215.212 51.0593 217.347 53.1048C219.534 55.0979 222.241 56.0944 225.469 56.0944C228.489 56.0944 230.754 55.4126 232.264 54.0489C233.826 52.6852 235.024 51.1118 235.857 49.3285L242.496 52.7901C241.767 54.2587 240.699 55.8059 239.293 57.4319C237.94 59.0578 236.143 60.4214 233.904 61.5229C231.666 62.6243 228.802 63.175 225.313 63.175ZM214.067 38.7076H235.388C235.18 35.7705 234.139 33.489 232.264 31.863C230.39 30.1847 227.943 29.3455 224.923 29.3455C221.903 29.3455 219.43 30.1847 217.503 31.863C215.629 33.489 214.483 35.7705 214.067 38.7076Z" fill="#060606"/>
<path d="M271.158 63.175C267.461 63.175 264.103 62.3883 261.083 60.8148C258.115 59.2413 255.746 56.9598 253.975 53.9702C252.257 50.9807 251.398 47.3879 251.398 43.192V42.1692C251.398 37.9733 252.257 34.4068 253.975 31.4697C255.746 28.4801 258.115 26.1986 261.083 24.6251C264.103 22.9992 267.461 22.1862 271.158 22.1862C274.855 22.1862 278.005 22.8681 280.608 24.2317C283.211 25.5954 285.294 27.4049 286.856 29.6602C288.47 31.9155 289.512 34.4068 289.98 37.1342L282.17 38.7863C281.91 37.0555 281.363 35.482 280.53 34.0659C279.697 32.6498 278.525 31.5221 277.015 30.6829C275.505 29.8438 273.605 29.4242 271.314 29.4242C269.075 29.4242 267.044 29.9487 265.222 30.9976C263.452 31.9942 262.046 33.4627 261.004 35.4033C259.963 37.2915 259.442 39.5993 259.442 42.3266V43.0346C259.442 45.762 259.963 48.096 261.004 50.0366C262.046 51.9772 263.452 53.4457 265.222 54.4423C267.044 55.4388 269.075 55.9371 271.314 55.9371C274.698 55.9371 277.276 55.0717 279.046 53.3408C280.816 51.5576 281.936 49.3023 282.404 46.5749L290.215 48.3844C289.59 51.0593 288.47 53.5244 286.856 55.7797C285.294 58.035 283.211 59.8445 280.608 61.2082C278.005 62.5194 274.855 63.175 271.158 63.175Z" fill="#060606"/>
<path d="M312.492 62.0736C310.149 62.0736 308.275 61.3655 306.869 59.9494C305.515 58.5333 304.838 56.6451 304.838 54.2849V30.1322H294.217V23.2877H304.838V12.6753L312.883 8.00262V23.2877H324.364V30.1322H312.883V52.8688C312.883 54.4423 313.612 55.229 315.07 55.229H323.114V62.0736H312.492Z" fill="#060606"/>
<path d="M333.815 62.0736V23.2877H341.703V27.8507H342.953C343.577 26.2248 344.567 25.0447 345.921 24.3104C347.326 23.5237 349.045 23.1303 351.075 23.1303H355.683V30.4469H350.763C348.159 30.4469 346.025 31.1812 344.358 32.6498C342.692 34.0659 341.859 36.2687 341.859 39.2583V62.0736H333.815Z" fill="#060606"/>
<path d="M378.779 62.7816C375.864 62.7816 373.26 62.126 370.969 60.8148C368.678 59.5036 366.882 57.6417 365.58 55.229C364.278 52.8164 363.628 49.9317 363.628 46.5749V23.2877H371.672V46.0242C371.672 49.381 372.505 51.8723 374.171 53.4982C375.837 55.0717 378.154 55.8584 381.122 55.8584C384.403 55.8584 387.032 54.757 389.011 52.5541C391.041 50.2988 392.057 47.0732 392.057 42.8773V23.2877H400.101V62.0736H392.213V56.2518H390.963C390.234 57.8252 388.932 59.32 387.058 60.7361C385.184 62.0998 382.424 62.7816 378.779 62.7816Z" fill="#060606"/>
<path d="M411.993 62.0736V23.2877H419.881V27.8507H421.131C421.859 26.487 423.031 25.2807 424.645 24.2317C426.259 23.1828 428.446 22.6583 431.206 22.6583C434.069 22.6583 436.36 23.2614 438.079 24.4678C439.849 25.6216 441.177 27.1164 442.062 28.9521H443.311C444.197 27.1689 445.472 25.6741 447.138 24.4678C448.857 23.2614 451.278 22.6583 454.402 22.6583C456.901 22.6583 459.114 23.1828 461.04 24.2317C462.967 25.2283 464.503 26.7493 465.648 28.7948C466.794 30.7878 467.367 33.2792 467.367 36.2687V62.0736H459.322V36.8981C459.322 34.5379 458.671 32.7285 457.37 31.4697C456.12 30.1585 454.324 29.5028 451.981 29.5028C449.481 29.5028 447.477 30.3158 445.967 31.9417C444.457 33.5676 443.702 35.9016 443.702 38.9436V62.0736H435.657V36.8981C435.657 34.5379 435.007 32.7285 433.705 31.4697C432.455 30.1585 430.659 29.5028 428.316 29.5028C425.817 29.5028 423.812 30.3158 422.302 31.9417C420.792 33.5676 420.037 35.9016 420.037 38.9436V62.0736H411.993Z" fill="#060606"/>
<path d="M498.509 62.0736V7.00229H532.249V14.7123H506.944V30.6043H530.218V38.3143H506.944V62.0736H498.509Z" fill="#060606"/>
<path d="M540.692 62.0736V23.2877H548.737V62.0736H540.692Z" fill="#060606"/>
<path d="M560.675 62.0736V23.2877H568.563V29.1095H569.813C570.542 27.536 571.844 26.0674 573.718 24.7038C575.592 23.3401 578.378 22.6583 582.075 22.6583C584.991 22.6583 587.568 23.3139 589.807 24.6251C592.098 25.9363 593.894 27.7983 595.196 30.2109C596.498 32.5711 597.148 35.4296 597.148 38.7863V62.0736H589.104V39.4157C589.104 36.059 588.271 33.5939 586.605 32.0204C584.939 30.3945 582.648 29.5815 579.732 29.5815C576.399 29.5815 573.718 30.6829 571.687 32.8858C569.709 35.0886 568.72 38.288 568.72 42.4839V62.0736H560.675Z" fill="#060606"/>
<path d="M620.675 63.175C617.916 63.175 615.443 62.703 613.256 61.7589C611.121 60.8148 609.403 59.4249 608.101 57.5892C606.851 55.7535 606.227 53.5244 606.227 50.902C606.227 48.2271 606.851 46.0242 608.101 44.2934C609.403 42.5102 611.147 41.1727 613.334 40.2811C615.573 39.3895 618.098 38.9436 620.91 38.9436H632.625V36.4261C632.625 34.1708 631.948 32.3613 630.594 30.9976C629.241 29.634 627.158 28.9521 624.346 28.9521C621.587 28.9521 619.478 29.6077 618.02 30.919C616.562 32.2302 615.599 33.9348 615.13 36.0327L607.632 33.5939C608.257 31.4959 609.247 29.6077 610.6 27.9294C612.006 26.1986 613.854 24.8087 616.145 23.7597C618.436 22.7107 621.196 22.1862 624.424 22.1862C629.423 22.1862 633.354 23.4712 636.218 26.0412C639.081 28.6112 640.513 32.2564 640.513 36.9768V52.9475C640.513 54.5209 641.242 55.3077 642.7 55.3077H645.98V62.0736H639.966C638.144 62.0736 636.66 61.6015 635.515 60.6575C634.369 59.7134 633.796 58.4284 633.796 56.8025V56.5665H632.625C632.208 57.3532 631.584 58.271 630.75 59.32C629.917 60.369 628.694 61.2868 627.08 62.0736C625.466 62.8079 623.331 63.175 620.675 63.175ZM621.847 56.4878C625.075 56.4878 627.679 55.5699 629.657 53.7342C631.636 51.8461 632.625 49.2761 632.625 46.0242V45.2375H621.378C619.244 45.2375 617.525 45.7095 616.224 46.6536C614.922 47.5452 614.271 48.8827 614.271 50.666C614.271 52.4492 614.948 53.8653 616.302 54.9143C617.655 55.9633 619.504 56.4878 621.847 56.4878Z" fill="#060606"/>
<path d="M653.802 62.0736V23.2877H661.69V29.1095H662.94C663.669 27.536 664.971 26.0674 666.845 24.7038C668.719 23.3401 671.505 22.6583 675.202 22.6583C678.118 22.6583 680.695 23.3139 682.934 24.6251C685.225 25.9363 687.021 27.7983 688.323 30.2109C689.625 32.5711 690.275 35.4296 690.275 38.7863V62.0736H682.231V39.4157C682.231 36.059 681.398 33.5939 679.732 32.0204C678.066 30.3945 675.775 29.5815 672.859 29.5815C669.527 29.5815 666.845 30.6829 664.814 32.8858C662.836 35.0886 661.847 38.288 661.847 42.4839V62.0736H653.802Z" fill="#060606"/>
<path d="M719.738 63.175C716.041 63.175 712.683 62.3883 709.663 60.8148C706.695 59.2413 704.326 56.9598 702.556 53.9702C700.838 50.9807 699.979 47.3879 699.979 43.192V42.1692C699.979 37.9733 700.838 34.4068 702.556 31.4697C704.326 28.4801 706.695 26.1986 709.663 24.6251C712.683 22.9992 716.041 22.1862 719.738 22.1862C723.435 22.1862 726.585 22.8681 729.188 24.2317C731.792 25.5954 733.875 27.4049 735.437 29.6602C737.051 31.9155 738.092 34.4068 738.561 37.1342L730.75 38.7863C730.49 37.0555 729.943 35.482 729.11 34.0659C728.277 32.6498 727.106 31.5221 725.596 30.6829C724.086 29.8438 722.185 29.4242 719.894 29.4242C717.656 29.4242 715.625 29.9487 713.802 30.9976C712.032 31.9942 710.626 33.4627 709.585 35.4033C708.544 37.2915 708.023 39.5993 708.023 42.3266V43.0346C708.023 45.762 708.544 48.096 709.585 50.0366C710.626 51.9772 712.032 53.4457 713.802 54.4423C715.625 55.4388 717.656 55.9371 719.894 55.9371C723.279 55.9371 725.856 55.0717 727.626 53.3408C729.397 51.5576 730.516 49.3023 730.985 46.5749L738.795 48.3844C738.17 51.0593 737.051 53.5244 735.437 55.7797C733.875 58.035 731.792 59.8445 729.188 61.2082C726.585 62.5194 723.435 63.175 719.738 63.175Z" fill="#060606"/>
<path d="M765.724 63.175C761.819 63.175 758.409 62.362 755.493 60.7361C752.577 59.0578 750.286 56.7238 748.62 53.7342C747.006 50.6922 746.199 47.1781 746.199 43.192V42.2479C746.199 38.2094 747.006 34.6953 748.62 31.7057C750.234 28.6637 752.473 26.3297 755.337 24.7038C758.252 23.0254 761.611 22.1862 765.412 22.1862C769.109 22.1862 772.337 23.0254 775.096 24.7038C777.908 26.3297 780.095 28.6112 781.657 31.5484C783.219 34.4855 784 37.9209 784 41.8545V44.9228H754.399C754.504 48.332 755.623 51.0593 757.758 53.1048C759.945 55.0979 762.652 56.0944 765.88 56.0944C768.9 56.0944 771.165 55.4126 772.675 54.0489C774.237 52.6852 775.435 51.1118 776.268 49.3285L782.907 52.7901C782.178 54.2587 781.11 55.8059 779.704 57.4319C778.351 59.0578 776.554 60.4214 774.315 61.5229C772.076 62.6243 769.213 63.175 765.724 63.175ZM754.477 38.7076H775.799C775.591 35.7705 774.55 33.489 772.675 31.863C770.801 30.1847 768.354 29.3455 765.334 29.3455C762.314 29.3455 759.841 30.1847 757.914 31.863C756.04 33.489 754.894 35.7705 754.477 38.7076Z" fill="#060606"/>
<path d="M540.184 8.59185H549.347V17.8217H540.184V8.59185Z" fill="#060606"/>
<path d="M6.36857 70.987L5.06501e-06 65.9547L0 5.42717L6.36856 0.395123L6.36857 70.987Z" fill="#060606"/>
<path d="M36.054 71.1061L21.2062 66.0511L21.2062 5.32424L36.0539 0.269531L36.054 71.1061Z" fill="#060606"/>
<path d="M70.3195 71.1061L42.4327 66.2721L42.4327 5.32424L70.3194 0.269531L70.3195 71.1061Z" fill="#060606"/>
</svg>
