<svg width="278" height="46" viewBox="0 0 278 46" fill="none" xmlns="http://www.w3.org/2000/svg">
<path d="M32.1859 39.5674C32.1878 39.4955 32.1698 39.4245 32.1338 39.3622C32.0978 39.2999 32.0453 39.2487 31.9821 39.2144L19.1775 31.8309C18.6802 31.5441 18.116 31.393 17.5417 31.393C16.9674 31.393 16.4032 31.5441 15.9059 31.8309L9.02114 35.8002C8.95712 35.8345 8.90403 35.8861 8.86792 35.9491C8.8318 36.0121 8.81411 36.084 8.81685 36.1565V37.973C8.81529 38.0456 8.83414 38.1171 8.87128 38.1795C8.90841 38.2419 8.96233 38.2927 9.0269 38.326L22.1245 45.5893C22.6186 45.8631 23.1752 46.0046 23.7403 45.9999C24.3054 45.9952 24.8596 45.8445 25.3491 45.5624L31.9845 41.7368C32.0479 41.7027 32.1005 41.6516 32.1365 41.5892C32.1725 41.5269 32.1904 41.4558 32.1883 41.3839V39.5678L32.1859 39.5674Z" fill="#6B7495"/>
<path d="M17.5393 31.3932C18.1136 31.3934 18.6777 31.5443 19.1752 31.8309L31.9797 39.2144C32.0419 39.2501 32.0935 39.3015 32.1294 39.3634C32.1654 39.4254 32.1843 39.4957 32.1843 39.5673C32.1843 39.6389 32.1654 39.7093 32.1294 39.7713C32.0935 39.8332 32.0419 39.8846 31.9797 39.9203L25.3448 43.7459C24.8554 44.0279 24.3011 44.1786 23.7361 44.1833C23.171 44.188 22.6143 44.0466 22.1202 43.7727L9.02264 36.5095C8.95939 36.4745 8.90657 36.4234 8.8696 36.3614C8.83263 36.2994 8.81284 36.2287 8.81225 36.1565C8.81167 36.0843 8.83031 36.0133 8.86627 35.9507C8.90223 35.8881 8.95421 35.8361 9.01689 35.8002L15.9016 31.8309C16.3992 31.5443 16.9635 31.3934 17.5379 31.3932" fill="#B7B7C7"/>
<path d="M40.9971 28.273C40.9885 27.7793 40.8514 27.2963 40.5991 26.8717C40.3468 26.447 39.9881 26.0953 39.5583 25.8511L35.3343 23.4153C35.5672 24.0941 35.7279 24.7954 35.8139 25.5077L19.5492 16.1296C18.4316 15.4853 17.1639 15.1461 15.8735 15.1461C14.5831 15.1461 13.3154 15.4853 12.1979 16.1296L3.89791 20.9154L3.86338 20.0859C3.8641 19.7536 3.88011 19.4215 3.91134 19.0907L1.43963 20.5165C0.991795 20.771 0.621478 21.1421 0.368122 21.5901C0.114766 22.0382 -0.0121422 22.5465 0.000914944 23.061V24.8837C0.00914797 25.3862 0.150633 25.8775 0.410952 26.3076C0.67127 26.7376 1.04111 27.0911 1.48279 27.3319L2.24147 27.7529L3.27351 29.5158C3.66959 30.1926 4.24031 30.7508 4.92611 31.1322L22.7038 41.0261C23.375 41.3983 24.1313 41.5906 24.8991 41.5843C25.6668 41.5779 26.4198 41.373 27.0847 40.9897L35.6033 36.0511C36.024 35.8074 36.4096 35.5077 36.7495 35.1603L38.7599 33.1048L39.5607 32.6431C40.006 32.39 40.3747 32.0216 40.6279 31.5767C40.8811 31.1318 41.0095 30.627 40.9995 30.1154L40.9971 28.273Z" fill="#6B7495"/>
<path d="M40.9971 28.273C40.9885 27.7793 40.8514 27.2963 40.5991 26.8717C40.3468 26.447 39.9881 26.0953 39.5583 25.8511L35.3343 23.4153C35.5672 24.0941 35.7279 24.7954 35.8139 25.5077L19.5492 16.1296C18.4316 15.4853 17.1639 15.1461 15.8735 15.1461C14.5831 15.1461 13.3154 15.4853 12.1979 16.1296L3.89791 20.9154L3.86338 20.0859C3.8641 19.7536 3.88011 19.4215 3.91134 19.0907L1.43963 20.5165C0.991795 20.771 0.621478 21.1421 0.368122 21.5901C0.114766 22.0382 -0.0121422 22.5465 0.000914944 23.061V24.8837C0.00914797 25.3862 0.150633 25.8775 0.410952 26.3076C0.67127 26.7376 1.04111 27.0911 1.48279 27.3319L21.9494 38.6823C23.0595 39.2978 24.3103 39.6157 25.5799 39.605C26.8496 39.5943 28.0948 39.2555 29.1943 38.6215L39.5607 32.6431C40.006 32.39 40.3747 32.0216 40.6279 31.5767C40.8811 31.1318 41.0095 30.627 40.9995 30.1154L40.9971 28.273Z" fill="#B7B7C7"/>
<path d="M19.5492 14.3135L39.5603 25.8512C39.9973 26.1035 40.3602 26.4662 40.6125 26.9028C40.8648 27.3395 40.9976 27.8348 40.9976 28.3389C40.9976 28.843 40.8648 29.3383 40.6125 29.775C40.3602 30.2116 39.9973 30.5743 39.5603 30.8266L29.1924 36.8045C28.0929 37.4384 26.8476 37.7772 25.578 37.7878C24.3083 37.7984 23.0576 37.4804 21.9476 36.8648L1.4809 25.5145C1.03638 25.2675 0.665384 24.9072 0.40571 24.4703C0.146035 24.0335 0.00696753 23.5357 0.00267814 23.0277C-0.00161125 22.5198 0.129031 22.0197 0.381292 21.5786C0.633553 21.1374 0.998415 20.7709 1.4387 20.5165L12.1979 14.3135C13.3154 13.669 14.5831 13.3297 15.8736 13.3297C17.164 13.3297 18.4317 13.669 19.5492 14.3135Z" fill="#ECF0F1"/>
<path d="M15.8734 15.5654C16.7708 15.5657 17.6525 15.8016 18.43 16.2493L38.441 27.7869C38.5376 27.8429 38.6177 27.9233 38.6734 28.0199C38.7291 28.1166 38.7584 28.2261 38.7584 28.3377C38.7584 28.4492 38.7291 28.5587 38.6734 28.6554C38.6177 28.752 38.5376 28.8324 38.441 28.8884L28.0732 34.8677C27.3085 35.3088 26.4425 35.5445 25.5595 35.5518C24.6766 35.5592 23.8067 35.338 23.0348 34.9099L2.56813 23.5595C2.46951 23.5048 2.38718 23.4249 2.32954 23.3281C2.27191 23.2312 2.24103 23.1208 2.24005 23.0082C2.23908 22.8955 2.26804 22.7846 2.32399 22.6868C2.37995 22.589 2.46088 22.5077 2.55854 22.4513L13.3168 16.2483C14.0942 15.8006 14.9759 15.5648 15.8734 15.5644" fill="#B7B7C7"/>
<path d="M25.5165 35.554C26.4138 35.554 27.2957 35.3179 28.0731 34.8701L34.1665 31.3568L18.4303 22.2837C17.6531 21.8354 16.7713 21.5994 15.8737 21.5994C14.9762 21.5994 14.0944 21.8354 13.3171 22.2837L6.91678 25.9737L23.0352 34.9118C23.7944 35.3324 24.6482 35.5534 25.5165 35.554Z" fill="#6B7495"/>
<path d="M24.4643 20.0859C24.4643 25.7673 19.8528 30.3726 14.1636 30.3726C8.47447 30.3726 3.86338 25.7673 3.86338 20.0859C3.86338 14.4045 8.47447 9.79925 14.1636 9.79925C19.8528 9.79925 24.4643 14.4045 24.4643 20.0859Z" fill="#F5B7B1"/>
<path d="M14.1636 9.79925C8.47495 9.79925 3.86339 14.4045 3.86291 20.0854C3.86291 20.3498 3.87586 20.6123 3.89552 20.8694C3.94348 21.2526 4.16552 22.198 5.19037 21.7794C6.47849 21.2526 7.19593 20.1602 8.12918 22.2104C9.06242 24.2607 10.8853 25.0518 12.8189 24.9584C14.7525 24.865 14.9856 23.2856 16.525 22.8411C18.0645 22.3967 18.0175 23.8651 19.6504 23.7133C21.2833 23.5614 20.9563 21.9777 21.7025 20.9992C22.4487 20.0208 22.7288 21.0471 23.9416 20.9034C24.1541 20.8699 24.3406 20.7435 24.4509 20.5591C24.4585 20.4013 24.4625 20.2434 24.4629 20.0854C24.4624 14.405 19.8518 9.80021 14.1636 9.79925Z" fill="#53390E"/>
<path d="M35.892 26.7467C35.8918 28.7811 35.2876 30.7698 34.1557 32.4613C33.0238 34.1528 31.4151 35.4712 29.533 36.2497C27.6508 37.0283 25.5798 37.232 23.5818 36.8352C21.5837 36.4384 19.7483 35.4589 18.3076 34.0205C16.8672 32.5818 15.8864 30.7489 15.4891 28.7535C15.0917 26.7581 15.2958 24.6898 16.0755 22.8103C16.8551 20.9307 18.1754 19.3242 19.8693 18.1939C21.5631 17.0635 23.5546 16.4602 25.5918 16.46C31.2805 16.4605 35.892 21.0658 35.892 26.7467Z" fill="#F9E79F"/>
<path d="M25.5918 16.46C22.86 16.4603 20.2397 17.5442 18.3081 19.4733C16.3765 21.4023 15.2913 24.0187 15.2911 26.7467L15.3237 27.5302C15.3717 27.9134 15.5942 28.8588 16.6186 28.4402C17.9072 27.9134 18.6246 26.821 19.5574 28.8712C20.4902 30.9215 22.3135 31.7126 24.2471 31.6192C26.1808 31.5259 26.4143 29.9464 27.9533 29.5019C29.4922 29.0575 29.4457 30.5259 31.0781 30.3741C32.7106 30.2222 32.384 28.6385 33.1302 27.66C33.8764 26.6816 34.1565 27.7079 35.3693 27.5642C35.4743 27.5477 35.5744 27.5083 35.6624 27.4487C35.7504 27.3892 35.8243 27.3111 35.8786 27.2199L35.8906 26.7458C35.8897 21.0658 31.2795 16.461 25.5918 16.46Z" fill="#7D5516"/>
<path d="M39.5608 25.8511L35.3367 23.4154C35.6568 24.3493 35.8402 25.3246 35.881 26.3109L38.441 27.7869C38.5376 27.8429 38.6177 27.9233 38.6734 28.0199C38.7291 28.1166 38.7584 28.2261 38.7584 28.3377C38.7584 28.4492 38.7291 28.5587 38.6734 28.6554C38.6177 28.752 38.5376 28.8324 38.441 28.8884L28.0731 34.8682C27.3084 35.3091 26.4425 35.5445 25.5595 35.5518C24.6766 35.5592 23.8067 35.338 23.0348 34.9099L2.56809 23.5605C2.46947 23.5058 2.38714 23.4259 2.3295 23.3291C2.27187 23.2322 2.24098 23.1218 2.24001 23.0092C2.23903 22.8965 2.268 22.7856 2.32395 22.6878C2.3799 22.5899 2.46084 22.5087 2.5585 22.4523L3.98139 21.6328C3.90336 21.1209 3.86409 20.6038 3.86389 20.0859C3.86437 19.7536 3.88038 19.4215 3.91185 19.0907L1.43963 20.5165C0.999093 20.7708 0.633752 21.1373 0.381292 21.5786C0.129031 22.0197 -0.00161125 22.5198 0.00267814 23.0277C0.00691935 23.5359 0.145907 24.0342 0.405696 24.4711C0.665486 24.9081 1.03666 25.2684 1.48138 25.5154L21.9476 36.8658C23.0576 37.4813 24.3083 37.7993 25.578 37.7887C26.8476 37.7782 28.0929 37.4394 29.1924 36.8054L39.5608 30.8266C39.9978 30.5743 40.3607 30.2116 40.613 29.775C40.8653 29.3383 40.9981 28.843 40.9981 28.3389C40.9981 27.8347 40.8653 27.3395 40.613 26.9028C40.3607 26.4661 39.9978 26.1035 39.5608 25.8511Z" fill="#ECF0F1"/>
<path d="M29.3953 16.6822C29.3953 17.6899 28.9945 18.6562 28.281 19.3687C27.5675 20.0812 26.5999 20.4815 25.5909 20.4815C24.5819 20.4815 23.6142 20.0812 22.9007 19.3687C22.1872 18.6562 21.7864 17.6899 21.7864 16.6822C21.7864 15.6746 22.1872 14.7083 22.9007 13.9958C23.6142 13.2833 24.5819 12.883 25.5909 12.883C26.5999 12.883 27.5675 13.2833 28.281 13.9958C28.9945 14.7083 29.3953 15.6746 29.3953 16.6822Z" fill="#E74C3C"/>
<path d="M25.5913 15.3418C25.5913 15.6974 25.4499 16.0385 25.198 16.29C24.9462 16.5414 24.6047 16.6827 24.2485 16.6827C23.8924 16.6827 23.5508 16.5414 23.299 16.29C23.0472 16.0385 22.9057 15.6974 22.9057 15.3418C22.9057 15.0765 22.9845 14.8172 23.132 14.5967C23.2796 14.3762 23.4893 14.2043 23.7346 14.1028C23.98 14.0013 24.25 13.9747 24.5105 14.0265C24.771 14.0782 25.0103 14.2059 25.1981 14.3935C25.3228 14.518 25.4217 14.6659 25.4891 14.8286C25.5566 14.9913 25.5913 15.1656 25.5913 15.3418Z" fill="#ECF0F1"/>
<path d="M17.9681 9.79926C17.9681 10.2982 17.8697 10.7922 17.6785 11.2532C17.4873 11.7141 17.2071 12.1329 16.8538 12.4857C16.5006 12.8385 16.0812 13.1184 15.6196 13.3093C15.158 13.5002 14.6633 13.5985 14.1637 13.5985C13.6641 13.5985 13.1694 13.5002 12.7078 13.3093C12.2462 13.1184 11.8268 12.8385 11.4735 12.4857C11.1203 12.1329 10.84 11.7141 10.6488 11.2532C10.4577 10.7922 10.3593 10.2982 10.3593 9.79926C10.3593 8.79163 10.7601 7.82528 11.4735 7.11278C12.187 6.40028 13.1547 6 14.1637 6C15.1727 6 16.1404 6.40028 16.8538 7.11278C17.5673 7.82528 17.9681 8.79163 17.9681 9.79926Z" fill="#E74C3C"/>
<path d="M14.1631 8.45827C14.1631 8.81392 14.0216 9.155 13.7698 9.40648C13.518 9.65796 13.1764 9.79924 12.8203 9.79924C12.4642 9.79924 12.1226 9.65796 11.8708 9.40648C11.619 9.155 11.4775 8.81392 11.4775 8.45827C11.4775 8.19304 11.5562 7.93376 11.7038 7.71322C11.8513 7.49268 12.0611 7.32079 12.3064 7.21928C12.5518 7.11778 12.8218 7.09123 13.0823 7.14297C13.3428 7.19472 13.5821 7.32245 13.7699 7.51001C13.8945 7.63454 13.9935 7.78238 14.0609 7.94508C14.1284 8.10779 14.1631 8.28217 14.1631 8.45827Z" fill="#ECF0F1"/>
<path d="M59.84 39.76C58.4267 39.76 57.1867 39.5867 56.12 39.24C55.08 38.8933 54.1867 38.48 53.44 38C52.72 37.4933 52.1467 37 51.72 36.52C51.2933 36.04 51 35.68 50.84 35.44C50.3867 34.8533 50.1067 34.3467 50 33.92C49.8933 33.4667 49.9467 33.0133 50.16 32.56C50.4 32.1067 50.8 31.6133 51.36 31.08C51.92 30.6 52.44 30.3467 52.92 30.32C53.4267 30.2667 53.92 30.3867 54.4 30.68C54.88 30.9733 55.3467 31.3867 55.8 31.92C56.44 32.6933 57.0667 33.24 57.68 33.56C58.32 33.8533 58.9867 34 59.68 34C60.56 34 61.3067 33.8933 61.92 33.68C62.5333 33.4667 63 33.1333 63.32 32.68C63.64 32.2 63.8 31.6 63.8 30.88C63.8 30.2933 63.5733 29.8267 63.12 29.48C62.6933 29.1067 62.1067 28.7867 61.36 28.52C60.64 28.2533 59.8267 28 58.92 27.76C58.04 27.4933 57.16 27.1867 56.28 26.84C55.6667 26.6267 55.08 26.36 54.52 26.04C53.96 25.72 53.4267 25.36 52.92 24.96C52.4133 24.56 51.9733 24.08 51.6 23.52C51.2533 22.96 50.9733 22.32 50.76 21.6C50.5733 20.88 50.48 20.0533 50.48 19.12C50.48 17.5467 50.8667 16.1467 51.64 14.92C52.4133 13.6933 53.48 12.7333 54.84 12.04C56.2267 11.32 57.8133 10.96 59.6 10.96C60.8 10.96 61.84 11.0667 62.72 11.28C63.6267 11.4933 64.3867 11.7467 65 12.04C65.6133 12.3333 66.0933 12.6267 66.44 12.92C66.8133 13.1867 67.0667 13.4 67.2 13.56C67.9467 14.2533 68.36 14.8533 68.44 15.36C68.52 15.84 68.24 16.52 67.6 17.4C66.9333 18.3333 66.2667 18.8533 65.6 18.96C64.96 19.0667 64.2267 18.84 63.4 18.28C63.08 17.9867 62.76 17.72 62.44 17.48C62.12 17.24 61.7333 17.0533 61.28 16.92C60.8533 16.76 60.28 16.68 59.56 16.68C59.1333 16.68 58.7333 16.7467 58.36 16.88C57.9867 16.9867 57.6667 17.1467 57.4 17.36C57.1333 17.5733 56.92 17.84 56.76 18.16C56.6 18.4533 56.52 18.7867 56.52 19.16C56.52 19.7733 56.72 20.2667 57.12 20.64C57.5467 21.0133 58.0933 21.32 58.76 21.56C59.4533 21.7733 60.2133 21.9867 61.04 22.2C61.8933 22.3867 62.76 22.6133 63.64 22.88C64.44 23.1467 65.2133 23.48 65.96 23.88C66.7067 24.2533 67.3733 24.7333 67.96 25.32C68.5467 25.9067 69.0133 26.64 69.36 27.52C69.7333 28.4 69.92 29.48 69.92 30.76C69.92 32.36 69.6133 33.7333 69 34.88C68.3867 36.0267 67.5733 36.96 66.56 37.68C65.5467 38.4 64.4533 38.92 63.28 39.24C62.1067 39.5867 60.96 39.76 59.84 39.76ZM81.0759 39.32C79.8493 39.32 78.6893 39.08 77.5959 38.6C76.5293 38.12 75.5959 37.4533 74.7959 36.6C73.9959 35.72 73.3693 34.6933 72.9159 33.52C72.4893 32.32 72.2759 31.0133 72.2759 29.6V22.36C72.2759 21.8267 72.3293 21.3333 72.4359 20.88C72.5426 20.4267 72.7959 20.0533 73.1959 19.76C73.6226 19.4667 74.3293 19.32 75.3159 19.32C76.3026 19.32 76.9959 19.4667 77.3959 19.76C77.8226 20.0533 78.0759 20.44 78.1559 20.92C78.2626 21.3733 78.3159 21.8667 78.3159 22.4V29.6C78.3159 30.3733 78.4493 31.0533 78.7159 31.64C79.0093 32.2 79.4226 32.6267 79.9559 32.92C80.5159 33.2133 81.1693 33.36 81.9159 33.36C82.6893 33.36 83.3426 33.2133 83.8759 32.92C84.4359 32.6 84.8626 32.16 85.1559 31.6C85.4759 31.04 85.6359 30.3733 85.6359 29.6V22.32C85.6359 21.7867 85.6893 21.2933 85.7959 20.84C85.9026 20.3867 86.1559 20.0267 86.5559 19.76C86.9826 19.4667 87.6893 19.32 88.6759 19.32C89.6626 19.32 90.3559 19.4667 90.7559 19.76C91.1826 20.0533 91.4359 20.44 91.5159 20.92C91.6226 21.3733 91.6759 21.8533 91.6759 22.36V36.44C91.6759 36.9467 91.6226 37.4267 91.5159 37.88C91.4359 38.3067 91.1826 38.6533 90.7559 38.92C90.3293 39.1867 89.6359 39.32 88.6759 39.32C87.9559 39.32 87.3959 39.24 86.9959 39.08C86.5959 38.92 86.3026 38.72 86.1159 38.48C85.9293 38.24 85.8093 37.9867 85.7559 37.72C85.7293 37.4533 85.7159 37.2133 85.7159 37L86.2359 36.56C86.1559 36.6667 85.9826 36.8667 85.7159 37.16C85.4493 37.4533 85.0893 37.7733 84.6359 38.12C84.2093 38.44 83.7026 38.72 83.1159 38.96C82.5293 39.2 81.8493 39.32 81.0759 39.32ZM97.8588 39.32C96.8721 39.32 96.1654 39.1867 95.7388 38.92C95.3388 38.6267 95.0854 38.2533 94.9788 37.8C94.8988 37.32 94.8588 36.8267 94.8588 36.32V22.24C94.8588 21.7333 94.9121 21.2667 95.0188 20.84C95.1254 20.3867 95.3788 20.0267 95.7788 19.76C96.2054 19.4933 96.9121 19.36 97.8988 19.36C98.7521 19.36 99.3788 19.48 99.7788 19.72C100.179 19.9333 100.432 20.2 100.539 20.52C100.672 20.84 100.739 21.1467 100.739 21.44C100.739 21.7067 100.765 21.8933 100.819 22L100.579 22.76C100.632 22.36 100.832 21.96 101.179 21.56C101.552 21.1333 102.005 20.76 102.539 20.44C103.099 20.0933 103.685 19.8267 104.299 19.64C104.939 19.4533 105.565 19.36 106.179 19.36C107.459 19.36 108.592 19.6 109.579 20.08C110.592 20.5333 111.445 21.2 112.139 22.08C112.832 22.96 113.352 24 113.699 25.2C114.072 26.3733 114.259 27.6667 114.259 29.08V36.36C114.259 36.8667 114.205 37.36 114.099 37.84C114.019 38.2933 113.765 38.6533 113.339 38.92C112.939 39.1867 112.245 39.32 111.259 39.32C110.245 39.32 109.525 39.1867 109.099 38.92C108.699 38.6267 108.445 38.2533 108.339 37.8C108.232 37.32 108.179 36.8267 108.179 36.32V29.08C108.179 28.28 108.045 27.6 107.779 27.04C107.512 26.48 107.112 26.0533 106.579 25.76C106.045 25.44 105.392 25.28 104.619 25.28C103.845 25.28 103.179 25.44 102.619 25.76C102.059 26.08 101.619 26.52 101.299 27.08C101.005 27.64 100.859 28.3067 100.859 29.08V36.36C100.859 36.8667 100.805 37.36 100.699 37.84C100.619 38.2933 100.365 38.6533 99.9388 38.92C99.5388 39.1867 98.8454 39.32 97.8588 39.32ZM125.958 39.32C124.758 39.32 123.598 39.0667 122.478 38.56C121.384 38.0267 120.411 37.2933 119.558 36.36C118.704 35.4267 118.024 34.36 117.518 33.16C117.038 31.9333 116.798 30.64 116.798 29.28C116.798 27.9733 117.038 26.7333 117.518 25.56C118.024 24.36 118.704 23.3067 119.558 22.4C120.438 21.4667 121.424 20.7333 122.518 20.2C123.611 19.6667 124.758 19.4 125.958 19.4C127.238 19.4 128.358 19.6667 129.318 20.2C130.304 20.7067 131.131 21.4133 131.798 22.32C132.464 23.2267 132.958 24.28 133.278 25.48C133.624 26.68 133.811 27.9333 133.838 29.24C133.864 30.6 133.704 31.88 133.358 33.08C133.038 34.28 132.544 35.3467 131.878 36.28C131.211 37.2133 130.384 37.96 129.398 38.52C128.438 39.0533 127.291 39.32 125.958 39.32ZM126.758 33.4C127.478 33.4 128.118 33.2267 128.678 32.88C129.264 32.5067 129.731 32.0133 130.078 31.4C130.451 30.7867 130.638 30.1067 130.638 29.36C130.638 28.5867 130.464 27.9067 130.118 27.32C129.771 26.7067 129.304 26.2267 128.718 25.88C128.131 25.5333 127.464 25.36 126.718 25.36C125.998 25.36 125.331 25.5333 124.718 25.88C124.131 26.2267 123.664 26.7067 123.318 27.32C122.998 27.9067 122.838 28.5867 122.838 29.36C122.838 30.1067 123.011 30.7867 123.358 31.4C123.704 32.0133 124.184 32.5067 124.798 32.88C125.411 33.2267 126.064 33.4 126.758 33.4ZM133.758 39.36C132.851 39.36 132.171 39.2133 131.718 38.92C131.264 38.6267 130.971 38.1733 130.838 37.56V13.32C130.838 12.8133 130.864 12.3333 130.918 11.88C130.998 11.4 131.238 11.0133 131.638 10.72C132.038 10.4267 132.731 10.28 133.718 10.28C134.704 10.28 135.398 10.4267 135.798 10.72C136.224 10.9867 136.478 11.3467 136.558 11.8C136.664 12.2533 136.718 12.7467 136.718 13.28V36.32C136.718 36.8267 136.664 37.32 136.558 37.8C136.478 38.2533 136.224 38.6267 135.798 38.92C135.398 39.2133 134.718 39.36 133.758 39.36ZM156.14 39.32C155.153 39.32 154.42 39.1467 153.94 38.8C153.486 38.4533 153.26 38.0267 153.26 37.52L153.66 36.84C153.5 37.1067 153.193 37.44 152.74 37.84C152.286 38.2133 151.7 38.56 150.98 38.88C150.26 39.1733 149.366 39.32 148.3 39.32C147.073 39.32 145.9 39.0533 144.78 38.52C143.686 37.9867 142.713 37.2533 141.86 36.32C141.006 35.36 140.326 34.28 139.82 33.08C139.34 31.88 139.1 30.6133 139.1 29.28C139.1 27.9733 139.34 26.7333 139.82 25.56C140.326 24.36 141.006 23.3067 141.86 22.4C142.74 21.4667 143.726 20.7333 144.82 20.2C145.913 19.6667 147.073 19.4 148.3 19.4C149.286 19.4 150.126 19.5467 150.82 19.84C151.513 20.1067 152.086 20.4267 152.54 20.8C153.02 21.1733 153.38 21.5333 153.62 21.88L153.3 21.32C153.273 20.68 153.486 20.2 153.94 19.88C154.42 19.5333 155.166 19.36 156.18 19.36C157.14 19.36 157.82 19.5067 158.22 19.8C158.646 20.0933 158.9 20.48 158.98 20.96C159.086 21.44 159.14 21.9467 159.14 22.48V36.28C159.14 36.7867 159.086 37.28 158.98 37.76C158.9 38.24 158.646 38.6267 158.22 38.92C157.82 39.1867 157.126 39.32 156.14 39.32ZM149.18 33.36C149.873 33.36 150.5 33.1867 151.06 32.84C151.646 32.4667 152.1 31.9733 152.42 31.36C152.766 30.7467 152.94 30.0667 152.94 29.32C152.94 28.5467 152.766 27.8667 152.42 27.28C152.073 26.6667 151.606 26.1867 151.02 25.84C150.433 25.4667 149.793 25.28 149.1 25.28C148.326 25.28 147.633 25.4667 147.02 25.84C146.433 26.2133 145.953 26.7067 145.58 27.32C145.233 27.9333 145.06 28.6267 145.06 29.4C145.06 30.12 145.233 30.7867 145.58 31.4C145.953 31.9867 146.446 32.4667 147.06 32.84C147.7 33.1867 148.406 33.36 149.18 33.36ZM172.279 39.72C170.412 39.72 168.799 39.4133 167.439 38.8C166.105 38.1867 165.012 37.3867 164.159 36.4C163.305 35.3867 162.665 34.2667 162.239 33.04C161.839 31.8133 161.639 30.5867 161.639 29.36C161.639 27.36 162.092 25.5867 162.999 24.04C163.905 22.4933 165.159 21.28 166.759 20.4C168.359 19.4933 170.199 19.04 172.279 19.04C173.825 19.04 175.159 19.2933 176.279 19.8C177.425 20.28 178.359 20.92 179.079 21.72C179.825 22.4933 180.372 23.3333 180.719 24.24C181.092 25.1467 181.279 26.0133 181.279 26.84C181.279 28.3067 180.919 29.4 180.199 30.12C179.505 30.8133 178.612 31.16 177.519 31.16H167.999C168.052 31.8533 168.292 32.44 168.719 32.92C169.172 33.4 169.732 33.7733 170.399 34.04C171.065 34.3067 171.772 34.44 172.519 34.44C173.159 34.44 173.719 34.4133 174.199 34.36C174.679 34.28 175.092 34.1867 175.439 34.08C175.785 33.9467 176.105 33.8267 176.399 33.72C176.692 33.5867 176.945 33.48 177.159 33.4C177.399 33.32 177.625 33.2667 177.839 33.24C178.239 33.2133 178.599 33.3333 178.919 33.6C179.265 33.84 179.572 34.2133 179.839 34.72C180.025 35.0133 180.145 35.2933 180.199 35.56C180.279 35.8267 180.319 36.0933 180.319 36.36C180.319 37 179.985 37.5733 179.319 38.08C178.679 38.5867 177.759 38.9867 176.559 39.28C175.385 39.5733 173.959 39.72 172.279 39.72ZM167.999 27.88H174.319C174.745 27.88 175.052 27.8133 175.239 27.68C175.452 27.52 175.559 27.2267 175.559 26.8C175.559 26.32 175.412 25.9067 175.119 25.56C174.825 25.1867 174.425 24.9067 173.919 24.72C173.439 24.5067 172.879 24.4 172.239 24.4C171.412 24.4 170.679 24.56 170.039 24.88C169.399 25.2 168.892 25.6267 168.519 26.16C168.172 26.6933 167.999 27.2667 167.999 27.88ZM197.092 39.36C196.132 39.36 195.438 39.2267 195.012 38.96C194.585 38.6667 194.318 38.28 194.212 37.8C194.105 37.32 194.052 36.8267 194.052 36.32V14.44C194.052 13.9067 194.092 13.4133 194.172 12.96C194.278 12.5067 194.545 12.1333 194.972 11.84C195.398 11.5467 196.105 11.4 197.092 11.4C198.105 11.4 198.812 11.5467 199.212 11.84C199.638 12.1333 199.892 12.5067 199.972 12.96C200.078 13.4133 200.132 13.9067 200.132 14.44V34.08H211.092C211.545 34.08 211.972 34.12 212.372 34.2C212.772 34.28 213.092 34.5067 213.332 34.88C213.598 35.2533 213.732 35.8667 213.732 36.72C213.732 37.5467 213.598 38.16 213.332 38.56C213.065 38.9333 212.732 39.16 212.332 39.24C211.958 39.32 211.545 39.36 211.092 39.36H197.092ZM232.429 39.32C231.442 39.32 230.709 39.1467 230.229 38.8C229.775 38.4533 229.549 38.0267 229.549 37.52L229.949 36.84C229.789 37.1067 229.482 37.44 229.029 37.84C228.575 38.2133 227.989 38.56 227.269 38.88C226.549 39.1733 225.655 39.32 224.589 39.32C223.362 39.32 222.189 39.0533 221.069 38.52C219.975 37.9867 219.002 37.2533 218.149 36.32C217.295 35.36 216.615 34.28 216.109 33.08C215.629 31.88 215.389 30.6133 215.389 29.28C215.389 27.9733 215.629 26.7333 216.109 25.56C216.615 24.36 217.295 23.3067 218.149 22.4C219.029 21.4667 220.015 20.7333 221.109 20.2C222.202 19.6667 223.362 19.4 224.589 19.4C225.575 19.4 226.415 19.5467 227.109 19.84C227.802 20.1067 228.375 20.4267 228.829 20.8C229.309 21.1733 229.669 21.5333 229.909 21.88L229.589 21.32C229.562 20.68 229.775 20.2 230.229 19.88C230.709 19.5333 231.455 19.36 232.469 19.36C233.429 19.36 234.109 19.5067 234.509 19.8C234.935 20.0933 235.189 20.48 235.269 20.96C235.375 21.44 235.429 21.9467 235.429 22.48V36.28C235.429 36.7867 235.375 37.28 235.269 37.76C235.189 38.24 234.935 38.6267 234.509 38.92C234.109 39.1867 233.415 39.32 232.429 39.32ZM225.469 33.36C226.162 33.36 226.789 33.1867 227.349 32.84C227.935 32.4667 228.389 31.9733 228.709 31.36C229.055 30.7467 229.229 30.0667 229.229 29.32C229.229 28.5467 229.055 27.8667 228.709 27.28C228.362 26.6667 227.895 26.1867 227.309 25.84C226.722 25.4667 226.082 25.28 225.389 25.28C224.615 25.28 223.922 25.4667 223.309 25.84C222.722 26.2133 222.242 26.7067 221.869 27.32C221.522 27.9333 221.349 28.6267 221.349 29.4C221.349 30.12 221.522 30.7867 221.869 31.4C222.242 31.9867 222.735 32.4667 223.349 32.84C223.989 33.1867 224.695 33.36 225.469 33.36ZM249.368 39.32C248.061 39.32 246.901 39.0533 245.888 38.52C244.901 37.96 244.074 37.2133 243.408 36.28C242.768 35.3467 242.274 34.28 241.928 33.08C241.608 31.88 241.461 30.6 241.488 29.24C241.488 27.9333 241.661 26.68 242.008 25.48C242.354 24.28 242.848 23.2267 243.488 22.32C244.154 21.4133 244.968 20.7067 245.928 20.2C246.914 19.6667 248.061 19.4 249.368 19.4C250.541 19.4 251.674 19.6667 252.768 20.2C253.888 20.7333 254.874 21.4667 255.728 22.4C256.581 23.3067 257.248 24.36 257.728 25.56C258.234 26.7333 258.488 27.9733 258.488 29.28C258.488 30.64 258.234 31.9333 257.728 33.16C257.248 34.36 256.581 35.4267 255.728 36.36C254.874 37.2933 253.901 38.0267 252.808 38.56C251.714 39.0667 250.568 39.32 249.368 39.32ZM248.528 33.4C249.274 33.4 249.941 33.2267 250.528 32.88C251.114 32.5067 251.581 32.0133 251.928 31.4C252.301 30.7867 252.488 30.1067 252.488 29.36C252.488 28.5867 252.314 27.9067 251.968 27.32C251.621 26.7067 251.154 26.2267 250.568 25.88C249.981 25.5333 249.314 25.36 248.568 25.36C247.848 25.36 247.181 25.5333 246.568 25.88C245.981 26.2267 245.514 26.7067 245.168 27.32C244.848 27.9067 244.688 28.5867 244.688 29.36C244.688 30.1067 244.861 30.7867 245.208 31.4C245.554 32.0133 246.021 32.5067 246.608 32.88C247.194 33.2267 247.834 33.4 248.528 33.4ZM241.568 39.36C240.608 39.36 239.914 39.2133 239.488 38.92C239.061 38.6267 238.794 38.2533 238.688 37.8C238.608 37.32 238.568 36.8267 238.568 36.32V13.32C238.568 12.76 238.621 12.2533 238.728 11.8C238.834 11.3467 239.088 10.9867 239.488 10.72C239.914 10.4267 240.621 10.28 241.608 10.28C242.568 10.28 243.248 10.4267 243.648 10.72C244.048 11.0133 244.288 11.4 244.368 11.88C244.448 12.3333 244.474 12.8133 244.448 13.32V37.56C244.314 38.1733 244.034 38.6267 243.608 38.92C243.181 39.2133 242.501 39.36 241.568 39.36ZM268.387 39.68C267.667 39.68 266.88 39.6 266.027 39.44C265.2 39.28 264.387 39.0533 263.587 38.76C262.787 38.44 262.12 38.08 261.587 37.68C261.054 37.2533 260.747 36.7733 260.667 36.24C260.614 35.9733 260.614 35.6933 260.667 35.4C260.747 35.08 260.88 34.76 261.067 34.44C261.254 34.0933 261.48 33.7333 261.747 33.36C261.96 33.0667 262.2 32.88 262.467 32.8C262.734 32.72 263.04 32.7333 263.387 32.84C263.814 32.92 264.24 33.0667 264.667 33.28C265.12 33.4667 265.56 33.68 265.987 33.92C266.44 34.1333 266.907 34.3333 267.387 34.52C267.867 34.68 268.36 34.76 268.867 34.76C269.614 34.76 270.187 34.6533 270.587 34.44C271.014 34.2 271.227 33.88 271.227 33.48C271.227 33.1867 271.134 32.9467 270.947 32.76C270.787 32.5733 270.547 32.4133 270.227 32.28C269.934 32.12 269.587 31.9867 269.187 31.88C268.787 31.7733 268.347 31.6667 267.867 31.56C267.414 31.4267 266.947 31.2933 266.467 31.16C265.8 30.9733 265.16 30.7333 264.547 30.44C263.934 30.1467 263.374 29.7733 262.867 29.32C262.36 28.84 261.96 28.2667 261.667 27.6C261.374 26.9067 261.227 26.0667 261.227 25.08C261.227 23.7733 261.534 22.68 262.147 21.8C262.76 20.92 263.654 20.2533 264.827 19.8C266 19.32 267.427 19.08 269.107 19.08C269.587 19.08 270.067 19.1067 270.547 19.16C271.027 19.2133 271.494 19.3067 271.947 19.44C272.427 19.5733 272.894 19.7333 273.347 19.92C273.8 20.1067 274.254 20.3333 274.707 20.6C275.507 20.9733 275.92 21.48 275.947 22.12C275.974 22.76 275.747 23.4133 275.267 24.08C274.974 24.5333 274.667 24.8667 274.347 25.08C274.027 25.2667 273.694 25.32 273.347 25.24C272.92 25.1333 272.454 24.96 271.947 24.72C271.467 24.48 270.947 24.2533 270.387 24.04C269.854 23.8267 269.32 23.72 268.787 23.72C268.334 23.72 267.947 23.7867 267.627 23.92C267.307 24.0267 267.067 24.1867 266.907 24.4C266.747 24.5867 266.667 24.8133 266.667 25.08C266.667 25.4267 266.76 25.7067 266.947 25.92C267.16 26.1067 267.44 26.2667 267.787 26.4C268.134 26.5333 268.534 26.6533 268.987 26.76C269.44 26.8667 269.934 26.9733 270.467 27.08C271.187 27.2133 271.92 27.4 272.667 27.64C273.44 27.8533 274.134 28.1733 274.747 28.6C275.387 29.0267 275.894 29.6 276.267 30.32C276.667 31.04 276.867 31.9867 276.867 33.16C276.867 35.2667 276.134 36.88 274.667 38C273.2 39.12 271.107 39.68 268.387 39.68Z" fill="white"/>
</svg>
