<?xml version="1.0" encoding="UTF-8"?><svg xmlns="http://www.w3.org/2000/svg" viewBox="0 0 1141.96 193.18"><g id="Logo"><g><path id="Path_662" d="m155.14,162c0-.7-.4-1.4-1-1.7l-61.7-35.6c-4.9-2.8-10.9-2.8-15.8,0l-33.2,19.2c-.6.3-1,1-1,1.7v8.8c0,.7.4,1.4,1,1.7l63.1,35.1c4.8,2.7,10.7,2.6,15.5-.1l32-18.5c.6-.3,1-1,1-1.7l.1-8.9h0Z" fill="#6b7495"/><path id="Path_663" d="m84.54,122.5c2.8,0,5.5.7,7.9,2.1l61.7,35.6c.9.5,1.3,1.7.7,2.7-.2.3-.4.5-.7.7l-32,18.5c-4.8,2.8-10.7,2.8-15.5.1l-63.1-35.1c-.9-.5-1.3-1.7-.8-2.7.2-.3.4-.6.7-.7l33.2-19.2c2.4-1.2,5.2-2,7.9-2" fill="#b7b7c7"/><path id="Path_664" d="m197.64,107.5c-.1-4.8-2.7-9.3-6.9-11.7l-20.4-11.8c1.1,3.3,1.9,6.7,2.3,10.1l-78.4-45.2c-11-6.3-24.5-6.3-35.4,0l-40,23.1c-.1-1.3-.2-2.7-.2-4,0-1.6.1-3.2.2-4.8l-11.9,6.9C2.54,72.6-.06,77.3.04,82.3v8.8c.1,4.9,2.8,9.4,7.1,11.8l3.7,2,5,8.5c1.9,3.3,4.7,6,8,7.8l85.7,47.7c6.6,3.7,14.6,3.6,21.1-.2l41.1-23.8c2-1.2,3.9-2.6,5.5-4.3l9.7-9.9,3.9-2.2c4.4-2.5,7-7.2,6.9-12.2l-.1-8.8Z" fill="#6b7495"/><path id="Path_665" d="m197.64,107.5c-.1-4.8-2.7-9.3-6.9-11.7l-20.4-11.8c1.1,3.3,1.9,6.7,2.3,10.1l-78.4-45.2c-11-6.3-24.5-6.3-35.4,0l-40,23.1c-.1-1.3-.2-2.7-.2-4,0-1.6.1-3.2.2-4.8l-11.9,6.9C2.54,72.6-.06,77.3.04,82.3v8.8c.1,4.9,2.8,9.4,7.1,11.8l98.6,54.8c10.9,6,24.1,5.9,34.9-.3l50-28.8c4.4-2.5,7-7.2,6.9-12.2l.1-8.9Z" fill="#b7b7c7"/><path id="Path_666" d="m94.24,40.1l96.4,55.7c6.6,3.8,8.9,12.3,5.1,18.9-1.2,2.1-3,3.9-5.1,5.1l-50,28.8c-10.8,6.2-24,6.3-34.9.3L7.14,94.2c-6.7-3.7-9.1-12.2-5.4-18.9,1.2-2.2,3-4,5.2-5.3l51.8-29.9c11-6.3,24.5-6.3,35.5,0Z" fill="#ecf0f1"/><path id="Path_667" d="m76.54,46.2c4.3,0,8.6,1.1,12.3,3.3l96.4,55.7c1.5.8,2,2.7,1.1,4.2-.3.5-.7.9-1.1,1.1l-50,28.8c-7.5,4.3-16.7,4.4-24.3.2L12.44,84.7c-1.5-.8-2-2.7-1.2-4.2.3-.5.7-.9,1.2-1.2l51.8-29.9c3.7-2.1,8-3.2,12.3-3.2" fill="#b7b7c7"/><path id="Path_668" d="m123.04,142.6c4.3,0,8.6-1.1,12.3-3.3l29.4-17-75.9-43.7c-7.6-4.4-17-4.4-24.6,0l-30.9,17.8,77.7,43.1c3.7,2,7.8,3.1,12,3.1Z" fill="#6b7495"/><path id="Path_669" d="m117.94,68c0,27.4-22.2,49.6-49.6,49.6s-49.6-22.2-49.6-49.6,22.2-49.6,49.6-49.6c27.4-.1,49.6,22.2,49.6,49.6Z" fill="#f5b7b1"/><path id="Path_670" d="m68.24,18.3c-27.4,0-49.6,22.2-49.6,49.6,0,1.3.1,2.5.2,3.8.2,1.9,1.3,6.4,6.2,4.4,6.2-2.5,9.7-7.8,14.2,2.1s13.3,13.7,22.6,13.3,10.4-8.1,17.9-10.2,7.2,4.9,15.1,4.2c7.9-.7,6.3-8.4,9.9-13.1s4.9.2,10.8-.5c1-.2,1.9-.8,2.5-1.7,0-.8.1-1.5.1-2.3-.2-27.3-22.4-49.6-49.9-49.6q.1,0,0,0Z" fill="#53390e"/><path id="Path_671" d="m173.04,100.1c0,27.4-22.2,49.6-49.6,49.6s-49.6-22.2-49.6-49.6,22.2-49.6,49.6-49.6,49.6,22.2,49.6,49.6h0Z" fill="#f9e79f"/><path id="Path_672" d="m123.34,50.5c-27.4,0-49.6,22.2-49.6,49.6h0c0,1.3.1,2.5.2,3.8.2,1.9,1.3,6.4,6.2,4.4,6.2-2.5,9.7-7.8,14.2,2.1s13.3,13.7,22.6,13.3,10.4-8.1,17.9-10.2c7.4-2.1,7.2,4.9,15.1,4.2s6.3-8.4,9.9-13.1,4.9.2,10.8-.5c1-.2,1.9-.8,2.5-1.7,0-.8.1-1.5.1-2.3-.2-27.4-22.5-49.6-49.9-49.6Z" fill="#7d5516"/><path id="Path_673" d="m190.64,95.8l-20.3-11.8c1.5,4.5,2.4,9.2,2.6,14l12.3,7.1c1.5.8,2,2.7,1.1,4.2-.3.5-.7.9-1.1,1.1l-50,28.8c-7.5,4.3-16.7,4.4-24.3.2L12.44,84.7c-1.5-.8-2-2.7-1.2-4.2.3-.5.7-.9,1.2-1.2l6.9-4c-.4-2.5-.6-5-.6-7.5,0-1.6.1-3.2.2-4.8l-12,7.1c-6.6,3.8-8.9,12.3-5,18.9,1.3,2.2,3.1,4,5.3,5.2l98.6,54.8c10.9,6,24.1,5.9,34.9-.3l50-28.8c6.6-3.8,8.9-12.3,5.1-18.9-1.3-2.2-3-4-5.2-5.2Z" fill="#ecf0f1"/><path id="Path_674" d="m141.74,51.6c0,10.1-8.2,18.3-18.3,18.3s-18.3-8.2-18.3-18.3,8.2-18.3,18.3-18.3c10-.1,18.3,8.1,18.3,18.3q0-.1,0,0Z" fill="#e74c3c"/><path id="Path_675" d="m123.34,45.1c0,3.6-2.9,6.5-6.5,6.5s-6.5-2.9-6.5-6.5,2.9-6.5,6.5-6.5,6.5,2.9,6.5,6.5h0Z" fill="#ecf0f1"/><path id="Path_676" d="m86.64,18.3c0,10.1-8.2,18.3-18.3,18.3s-18.3-8.2-18.3-18.3c-.1-10.1,8.1-18.3,18.2-18.3s18.4,8.2,18.4,18.3h0Z" fill="#e74c3c"/><path id="Path_677" d="m68.34,11.9c0,3.6-2.9,6.5-6.5,6.5s-6.5-2.9-6.5-6.5,2.9-6.5,6.5-6.5c3.6,0,6.5,2.9,6.5,6.5h0Z" fill="#ecf0f1"/></g></g><g id="Sundae_Labs"><text transform="translate(207.48 145.14)" fill="#141414" font-family="FredokaOne-Regular, &apos;Fredoka One&apos;" font-size="153.72"><tspan x="0" y="0">Sundae Labs</tspan></text></g></svg>