<svg width="1843" height="388" viewBox="0 0 1843 388" fill="none" xmlns="http://www.w3.org/2000/svg">
<path d="M407.08 0L348.5 77.68C334.44 96.33 312.44 107.29 289.08 107.29H128.99C98.9 107.29 73.38 131.91 73.97 162C74.54 191.15 98.33 214.59 127.59 214.59C69.06 214.59 21.48 167.7 20.35 109.41C19.18 49.24 69.56 0 129.74 0H407.08ZM0 387.96L58.58 310.28C72.64 291.63 94.64 280.67 118 280.67H278.09C308.18 280.67 333.7 256.05 333.11 225.96C332.54 196.81 308.75 173.37 279.49 173.37C338.02 173.37 385.6 220.26 386.73 278.55C387.9 338.72 337.52 387.96 277.34 387.96H0Z" fill="white"/>
<path d="M744.151 177.36H653.211C607.941 177.36 589.021 172.52 589.021 142.55C589.021 116.22 605.061 103.42 638.051 103.42H785.971C795.181 103.42 803.771 98.7703 808.811 91.0503L827.581 62.2803H640.751C579.641 62.2803 548.661 88.3603 548.661 139.79C548.661 163.75 555.821 182.21 569.931 194.64C584.341 207.33 606.131 213.77 634.691 213.77H725.631C770.021 213.77 789.821 219.02 789.821 250.15C789.821 276.48 773.781 289.28 740.791 289.28H577.191C568.091 289.28 559.591 293.82 554.531 301.38L535.371 330.02H738.101C769.561 330.02 792.301 323.39 807.631 309.75C822.381 296.63 829.861 276.71 829.861 250.54C829.861 201.97 801.031 177.35 744.171 177.35L744.151 177.36Z" fill="white"/>
<path d="M1129.66 212.85C1129.66 245.06 1124.72 263.06 1112.6 274.99C1099.24 288.14 1076.29 294.01 1038.19 294.01C1000.09 294.01 973.321 287.91 956.671 274.81C940.461 262.05 932.911 242.37 932.911 212.85V62.2803H891.531V212.85C891.531 254.16 903.041 283.98 926.731 304.01C950.871 324.43 987.331 334.35 1038.19 334.35C1126.56 334.35 1171.37 293.47 1171.37 212.85V62.2803H1129.66V212.85Z" fill="white"/>
<path d="M1527.39 152.37C1527.39 121.85 1516.16 98.36 1494.01 82.54C1470.58 65.8 1441.27 62.29 1420.82 62.29H1242.84V266.4H1243.51V330.03H1284.89V243.23H1410.64L1483.25 321.52C1488.28 326.94 1495.34 330.02 1502.74 330.02H1547.67L1454.76 234.73C1500.36 228.15 1527.4 197.67 1527.4 152.35L1527.39 152.37ZM1485 154.72C1485 171.33 1477.26 184.07 1461.99 192.6C1448.55 200.1 1429.65 204.07 1407.34 204.07H1284.88V103.42H1407.34C1432.6 103.42 1451.04 107 1463.72 114.37C1478.04 122.69 1485 135.89 1485 154.72Z" fill="white"/>
<path d="M1643.93 103.42H1799.99C1809.71 103.42 1818.79 98.54 1824.15 90.44L1842.78 62.29H1602.55V330.04H1643.93V218.5H1789.17C1798.92 218.5 1808.01 213.6 1813.37 205.45L1830.3 179.72H1643.93V103.42Z" fill="white"/>
</svg>
