<svg id="Layer_1" data-name="Layer 1" xmlns="http://www.w3.org/2000/svg" viewBox="0 0 4754.44 1585.44">
  <defs>
    <style>
      .cls-1 {
        fill: #fff;
      }
    </style>
  </defs>
  <g>
    <g>
      <g>
        <path class="cls-1" d="M2261.33,679.13q-3.82-7.59-9.15-17.88t-13-24.74q-49.6-93.6-116-97.4V924.93q0,13.7,21.36,76.86H1964.54q22.11-45.66,22.12-76.86V539.11h-1.52q-61-1.53-122.84,115.67-3.83,8.38-8.4,16.74t-8.39,16.74a2.19,2.19,0,0,1-1.52.76q-6.87,0-6.11-.76.75-34.25,2.29-81T1844,499.53h417.34l6.1,118q1.53,26.64,2.29,41.09c.5,9.65.77,15.73.77,18.27v.76a2.28,2.28,0,0,0-1.53-.76A18,18,0,0,0,2261.33,679.13Z" transform="translate(-288.63 -207.28)"/>
        <path class="cls-1" d="M2631.36,1002.55q16-22.83,16-49.46,0-14.45-6.1-37.29-3.06-8.37-5.72-17.51T2629.83,880q-23.65,21.32-68.66,21.31-9.93,0-38.15-6.85-29-6.84-38.15-6.85-42,0-42,51.75,0,28.15,11.44,39.57,6.11,6.1,11.83,11.42t11.82,11.41H2345.25q38.13-28.9,48.06-60.88,22.13-73,57.23-182.64t84.69-258.74h125.89L2790.06,931q16,51.75,38.15,71.53Zm-83.93-417.78-55.69,166.65q-5.35,16.76-13.35,40.34t-19.46,55.55q29-14.44,48.83-14.46,7.62,3,36.62,8.37t38.91,5.33q25.93,0,29.76-18.26c1-4.57,1.26-7.1.76-7.62Z" transform="translate(-288.63 -207.28)"/>
        <path class="cls-1" d="M3306.92,740.77q-15.27,28.17-30.9,56.31t-30.89,57.08q-7.65,16.74-19.46,40.71t-27.09,56.69q15.26,32.73,20.6,51l-185.4-.76q10.68-19.78,10.68-47.18,0-4.58-54.93-162.09-26-73.82-42-119.48t-22.89-63.92a455.75,455.75,0,0,0-57.22-108.82h197.6q-15.27,24.36-15.25,41.09,0,42.63,124.36,347.77,16-16,39.67-105,23.64-85.23,23.65-115.68,0-41.84-21.36-74.57-24.42-38.05-63.32-38a45.63,45.63,0,0,0-20.61,4.56,15.31,15.31,0,0,1-3-9.89q0-22.83,31.29-44.9,29-19.77,53.4-19.78,56.46,0,92.32,38.05,35.09,37.29,35.1,95.12Q3341.26,670,3306.92,740.77Z" transform="translate(-288.63 -207.28)"/>
        <path class="cls-1" d="M3886.83,1001.79,3558,1003.31q-43.5,0-69.82-.38t-37-1.14q25.93-22.06,29-63.16.77-9.14,1.15-13.32t.38-2.66V563.46q0-44.9-28.23-63.93h421.92q3,24.38,5.72,47.19t5,42.61q3,24.36,4.2,37.67t1.14,16.36v.76q-104.54-106.53-189.21-109.58H3616v200.9q13-22.83,36.24-39.19t46.93-16.36q19.05,0,58,6.85t57.22,6.85q20.61,0,49.6-22.07,0,39.57-28.24,64.68-31.29,27.4-68.66,27.4-42-7.59-85.45-15.22c-1.53-.5-4.33-.76-8.4-.76q-13.72,0-28.61,7.61T3616,770.45l-.76,190.25q19.83.76,37.39.76h57.22a69.07,69.07,0,0,0,12.2-.76q52.65-5.33,107.58-57.08,13.74-12.93,34.34-36.53t47.3-57.83Z" transform="translate(-288.63 -207.28)"/>
        <path class="cls-1" d="M4471.61,1008.64q-30.52,12.93-59.51,12.94-61.05,0-87.74-42.62-14.51-23.58-26.7-92.84-12.22-67-32.43-94.36t-50-27.4q-13.74,0-30.52,12.18V934.82q0,38.82,19.07,67.73H4021.46a93.93,93.93,0,0,1,3.82-9.51q2.28-4.95,4.57-10.28,12.2-31.95,12.21-56.31V565q0-39.56-22.12-65.45h367.75q42.72,0,76.29,28.16,36.63,31.21,36.63,70.78,0,47.92-39.68,76.09-29,21.32-87.74,35-22.14,3.81-44.64,8.37t-44.63,8.37v1.52q8.39,1.54,20.22,3.81t27.08,5.33q53.4,11.41,93.09,71.53,32.79,48.71,47.3,111.87a54.34,54.34,0,0,0,5.34,14.84,135,135,0,0,0,9.16,14.83q12.2,16.76,25.18,16.75l3.81,3Q4506,994.19,4471.61,1008.64ZM4319,549.76q-19.86-12.93-48.07-12.94h-87.74l-.76,171.23c0,4.06.12,7.61.38,10.65a72.8,72.8,0,0,0,1.14,8.37c2-1,4.58-2.15,7.63-3.42s6.61-2.92,10.69-4.95q3-2.28,8-5.32t11.06-6.85q30.51-17.5,49.21-29.3t25.56-17.12q45.78-35,45.78-69.26Q4341.91,565,4319,549.76Z" transform="translate(-288.63 -207.28)"/>
        <path class="cls-1" d="M5015.6,564.22q-3.06,12.94-3.05,70v47.18q.75,16,.76,28.16v292.22h-58.75q-9.15-21.3-16-36.91t-12.21-26.25q-9.15-17.5-18.31-32T4890.47,880q-12.21-16-31.28-36.53t-45-44.89q-29-28.15-48.45-48t-30.14-32q-41.2-47.94-58-95.12V924.17q0,23.6,27.47,76.86h-88.5q22.89-60.1,22.89-76.86V561.94q0-17.51-26.71-61.64h153.36q14.49,47.94,44.25,83.7,11.45,13.71,47.31,47.19,23.64,22.08,40.05,38T4924,695.87q34.34,38.8,51.88,76.1V712.61q0-49.46.77-139.26c-.51-2-1-4.43-1.53-7.23s-1.27-6-2.29-9.51q-9.15-38-24.41-55.55h94.61Q5019.4,544.43,5015.6,564.22Z" transform="translate(-288.63 -207.28)"/>
      </g>
      <g>
        <path class="cls-1" d="M2234.29,1569.29Q2176.45,1618,2098.83,1618q-30.45,0-91.32-19.79-59.35-19.79-89.8-19.78t-49.46,30.44q-14.48-4.57-22.07-22.83a63.92,63.92,0,0,1-8.37-31.2,83.45,83.45,0,0,1,6.84-33.87,86.14,86.14,0,0,1,19-27.4,87.14,87.14,0,0,1,28.16-18.26,90.62,90.62,0,0,1,34.24-6.47q28.14,0,68.49,22.83,8.37,5.34,19.79,12.56t24.35,17.12q22.07,15.24,33.86,24.35t14.84,10.66q32.72,19.8,54,19.78a73.18,73.18,0,0,0,25.88-4.56,65,65,0,0,0,21.31-12.94,69.3,69.3,0,0,0,14.84-19.4,51.43,51.43,0,0,0,5.7-24q0-60.1-90.56-84.47-42.63-10.63-84.47-21.3t-84.47-21.31q-90.57-38.82-90.55-135.46,0-73,59.35-118,54-40.33,129.37-40.33,17.51,0,33.11,1.14a227.27,227.27,0,0,1,30.05,4.18q36.52,6.1,57.46,9.51t28.54,3.43h9.13a32,32,0,0,0,7.61-.76q7.59-.75,14.84-1.52a94,94,0,0,0,13.32-2.29q27.39-4.56,28.15-4.56,6.09,0,6.09,3.8,0,43.38-28.92,79.15-31.21,38.81-73,38.81-49.49,0-62.41-19.79v-9.89q0-64.68-76.85-64.69-30.45,0-52.51,12.18-27.4,15.22-27.4,42.62,0,50.22,88.28,72.29,149.9,36.53,164.37,44.13,88.28,41.1,88.28,139.27Q2295.93,1518.31,2234.29,1569.29Z" transform="translate(-288.63 -207.28)"/>
        <path class="cls-1" d="M2760.13,1283.92q-3.83-7.59-9.13-17.88t-12.94-24.74q-49.47-93.58-115.67-97.4v385.82q0,13.69,21.3,76.86H2464.1q22.07-45.66,22.07-76.86V1143.9h-1.52q-60.9-1.51-122.52,115.67-3.83,8.39-8.37,16.74t-8.37,16.74a2.21,2.21,0,0,1-1.53.77c-4.56,0-6.6-.25-6.08-.77q.73-34.23,2.28-81t3.8-107.68h416.27l6.09,118q1.52,26.65,2.28,41.1t.76,18.26v.76a2.24,2.24,0,0,0-1.52-.76A17.91,17.91,0,0,0,2760.13,1283.92Z" transform="translate(-288.63 -207.28)"/>
        <path class="cls-1" d="M3226.61,1197.17V1459q0,81.43-57.18,122.52-49.57,35.77-134.2,35.77-85.39,0-138.76-28.16-70.16-36.52-70.15-113.39V1183.47q0-15.21-6.84-41.85-6.86-25.87-16-36.53H2991a122.69,122.69,0,0,0-9.25,16.74,129.74,129.74,0,0,0-7.72,21.31q-3.09,11.41-5,22.83a125.1,125.1,0,0,0-1.92,20.55v290.7q0,19,9.89,38.8,28.14,57.84,101.21,57.84,110.34,0,110.35-116.43V1197.17q0-52.51-30.57-92.08h101.34Q3226.6,1134.78,3226.61,1197.17Z" transform="translate(-288.63 -207.28)"/>
        <path class="cls-1" d="M3712.12,1522.87q-65.46,83.73-149.92,83.71h-57.08q-34.23,0-79.9.76t-79.91.77h-57.07a34.4,34.4,0,0,1-4.95-.39c-1.78-.26-3.93-.62-6.46-1.14q22.07-57.07,22.07-74.58V1179.67q0-42.62-22.07-75.34h278.52q94.35,0,158.29,80.66,59.36,75.35,59.36,172Q3773,1443.73,3712.12,1522.87Zm-229.06-383.54h-44.14l.76,433h9.89c4.06,0,8.87-.25,14.46-.76q7.6-.75,13.7-.76h9.89q65.45,0,99.69-75.34Q3614,1436.13,3614,1362.3,3614,1139.34,3483.06,1139.33Z" transform="translate(-288.63 -207.28)"/>
        <path class="cls-1" d="M3974.65,1176.62V1182a17.06,17.06,0,0,1,.76,5.32V1528.2q0,51,24.35,79.91H3811q27.41-41.1,27.4-81.43V1187.27q0-54-22.83-82.94h185.68Q3974.64,1140.11,3974.65,1176.62Z" transform="translate(-288.63 -207.28)"/>
        <path class="cls-1" d="M4476.13,1541.9q-70.77,79.15-177.3,79.14-115.69,0-182.64-79.9-62.41-73.82-62.41-192.53,0-112.62,67-186.45,67-75.33,178.08-75.34,113.37,0,181.11,79.91,63.93,75.35,63.92,191Q4543.86,1465,4476.13,1541.9ZM4388.62,1201q-22.08-79.12-95.12-79.14-58.6,0-79.91,59.36-12.94,37.29-12.93,108.06,0,54,.76,91.32t2.28,59.36q11.42,149.16,96.65,149.15,55.53,0,76.86-39.57,14.45-25.11,19-89.8,2.28-35,2.28-105v-15.23Q4398.51,1236,4388.62,1201Z" transform="translate(-288.63 -207.28)"/>
        <path class="cls-1" d="M4981.42,1569.29Q4923.59,1618,4846,1618q-30.45,0-91.32-19.79-59.35-19.79-89.8-19.78t-49.47,30.44q-14.46-4.57-22.06-22.83a63.92,63.92,0,0,1-8.37-31.2,83.45,83.45,0,0,1,6.84-33.87,86.14,86.14,0,0,1,19-27.4,87.14,87.14,0,0,1,28.16-18.26,90.62,90.62,0,0,1,34.24-6.47q28.14,0,68.49,22.83,8.37,5.34,19.79,12.56t24.35,17.12q22.07,15.24,33.86,24.35t14.84,10.66q32.71,19.8,54,19.78a73.18,73.18,0,0,0,25.88-4.56,65,65,0,0,0,21.31-12.94,69.48,69.48,0,0,0,14.84-19.4,51.43,51.43,0,0,0,5.7-24q0-60.1-90.56-84.47-42.63-10.63-84.47-21.3t-84.47-21.31q-90.57-38.82-90.56-135.46,0-73,59.36-118,54-40.33,129.37-40.33,17.51,0,33.11,1.14a227.27,227.27,0,0,1,30.05,4.18q36.52,6.1,57.46,9.51t28.54,3.43h9.13a32,32,0,0,0,7.61-.76q7.59-.75,14.84-1.52a94,94,0,0,0,13.32-2.29q27.39-4.56,28.15-4.56,6.09,0,6.09,3.8,0,43.38-28.92,79.15-31.21,38.81-73,38.81-49.49,0-62.41-19.79v-9.89q0-64.68-76.86-64.69-30.44,0-52.5,12.18-27.4,15.22-27.4,42.62,0,50.22,88.28,72.29,149.9,36.53,164.37,44.13,88.28,41.1,88.28,139.27Q5043.07,1518.31,4981.42,1569.29Z" transform="translate(-288.63 -207.28)"/>
      </g>
    </g>
    <g>
      <path class="cls-1" d="M873.66,207.28A316.12,316.12,0,0,1,878,276.1c-.57,12.15-3.92,68.33-36.09,133.43-20.57,41.63-43.71,68.26-69.91,98.41-24.11,27.73-45.12,47.34-74.11,73.17-78,69.51-110.83,92.22-155.19,131-41.91,36.59-90,78.58-134.22,137.86-30.38,40.74-98.85,134.91-116.29,275.1-2.7,21.75-13.36,118.36,23,236,9.8,31.66,38.23,114.09,107.32,199.6,22.75,28.17,95,112.41,220.56,171.86A647,647,0,0,0,872,1792.72a350.38,350.38,0,0,1-125.67-99.94c-48.19-61.32-62.08-121.72-68.14-149.47a392.12,392.12,0,0,1,73.31-323.77,190.1,190.1,0,0,0,10.77,52.53c16.14,45,45.51,72.81,61.67,85.94a413.1,413.1,0,0,1-24.61-130.77c-2.85-126.89,55-217.94,72.67-245a440.23,440.23,0,0,1,47.63-60.51c9.71-9.54,22.68-23,36.91-40,15.5-18.5,49.21-61.19,75.85-117.53,50.34-106.47,50.11-208.24,48.42-247-2.59-59.2-5-115.38-40-175.64C990.06,254.38,906.25,219,873.66,207.28Z" transform="translate(-288.63 -207.28)"/>
      <path class="cls-1" d="M1031.13,1157.25a280.62,280.62,0,0,1-41.23-122.84c-1.42-16.1-6.25-86.74,33.88-159.82a275.38,275.38,0,0,1,25-37.72c6.2-7.82,13.89-18.06,22.15-30.46a513.36,513.36,0,0,0,27.69-47.54c25.85-51.64,36.76-112,37.85-118.15,16.17-92.26.12-166.86-6.09-192.11a464.82,464.82,0,0,0-61.21-141.54,536.9,536.9,0,0,1,87.58,85.19c10.67,13.06,61.89,77,96.35,177.28,9.94,29,25.75,76,29.11,139.67,1.65,31.28,3,62.56-8.2,101.82-6.21,21.69-19.15,65-56.31,99.69-6,5.57-25.21,17.87-63.69,42.46-50.2,32.07-55.55,33.57-68.31,46.15a189.86,189.86,0,0,0-44.31,69.23A191.93,191.93,0,0,0,1031.13,1157.25Z" transform="translate(-288.63 -207.28)"/>
      <path class="cls-1" d="M1132.75,1789c31.57-27,94.81-89,122.62-188.07,7.62-27.14,22.38-82.1,9-151.12-12.24-63.13-41.7-105.4-48.4-114.73-15.67-21.8-31.54-36.94-50.79-55.31-13.58-13-35.44-31.47-78.61-68-8.61-7.29-15.75-13.3-20.58-17.37a252.67,252.67,0,0,1,33.23-89.19c27.41-44.92,65.36-74.89,90.45-87.93,2.76-1.43,8.21-4.14,16-8.61a325.76,325.76,0,0,0,49.85-35.08c34.94-30.43,57.41-72.16,62.1-81.12,38.77-74,36.29-149.65,33.59-181.34a732.94,732.94,0,0,1,92.35,84.26c24.29,26.29,67,73.2,103.72,144.16,14.51,28.07,52.21,106.61,63.56,216.34,13.18,127.46-16.85,223.1-23,241.89a552.91,552.91,0,0,1-73.9,147.29c-8.87,12.56-44.12,61.37-103.8,110.8C1310.59,1738.4,1202.57,1773.31,1132.75,1789Z" transform="translate(-288.63 -207.28)"/>
    </g>
  </g>
</svg>
