<svg xmlns="http://www.w3.org/2000/svg" xmlns:xlink="http://www.w3.org/1999/xlink" width="1080" zoomAndPan="magnify" viewBox="0 0 810 809.999993" height="1080" preserveAspectRatio="xMidYMid meet" version="1.0"><defs><clipPath id="0036beb674"><path d="M 1 22.816406 L 720 22.816406 L 720 772 L 1 772 Z M 1 22.816406 " clip-rule="nonzero"/></clipPath></defs><g clip-path="url(#0036beb674)"><path fill="#5800ff" d="M 376.773438 24.277344 C 357.78125 25.945312 322.292969 33.878906 302.464844 40.769531 C 198.71875 76.878906 122.949219 162.464844 99.777344 269.753906 C 93.515625 298.769531 93.515625 352.207031 99.988281 399.175781 C 102.28125 417.335938 104.371094 432.78125 104.371094 433.824219 C 104.371094 434.660156 99.152344 439.042969 92.890625 443.425781 C 38.617188 480.582031 2.296875 566.582031 1.253906 659.890625 C 1.042969 690.992188 2.085938 694.332031 15.238281 704.144531 C 22.960938 709.777344 39.660156 709.777344 47.382812 704.144531 C 59.910156 694.75 61.160156 690.785156 62.832031 660.308594 C 65.542969 611.460938 72.433594 579.941406 86.210938 551.34375 L 92.890625 537.359375 L 93.933594 644.859375 C 94.558594 703.933594 95.394531 752.570312 95.601562 752.777344 C 95.8125 752.988281 98.941406 756.535156 102.492188 760.710938 C 113.972656 773.652344 132.757812 774.695312 145.910156 763.007812 C 156.136719 753.824219 156.554688 750.484375 156.761719 669.492188 C 156.761719 610 157.390625 594.554688 159.269531 597.476562 C 186.40625 639.433594 201.226562 658.21875 226.066406 682.851562 C 265.726562 722.304688 309.144531 749.230469 354.648438 763.214844 C 370.511719 768.226562 376.359375 768.851562 404.957031 768.851562 C 444.824219 769.0625 460.898438 765.304688 497.84375 747.351562 C 529.15625 731.90625 553.996094 714.371094 581.964844 687.652344 C 628.097656 643.609375 659.617188 596.222656 683.414062 534.855469 C 700.320312 491.4375 711.800781 431.527344 718.273438 354.292969 C 725.160156 269.128906 695.3125 184.378906 636.238281 121.96875 C 569.859375 51.621094 474.046875 15.511719 376.773438 24.277344 Z M 456.722656 276.644531 C 535.835938 287.082031 596.578125 316.929688 615.992188 355.128906 C 626.429688 375.585938 628.722656 405.851562 621.417969 423.597656 C 611.191406 447.601562 587.183594 459.082031 546.898438 458.875 C 518.507812 458.875 498.886719 454.699219 468.410156 442.382812 C 421.238281 423.386719 392.429688 423.179688 347.34375 441.546875 C 315.195312 454.488281 305.386719 456.996094 279.292969 458.457031 C 242.554688 460.542969 216.253906 452.609375 200.597656 434.660156 C 191.207031 424.222656 187.449219 412.53125 187.449219 395 C 187.65625 368.28125 200.597656 342.398438 222.933594 324.445312 C 256.332031 297.515625 319.164062 277.894531 386.167969 273.511719 C 410.589844 272.050781 426.246094 272.675781 456.722656 276.644531 Z M 456.722656 276.644531 " fill-opacity="1" fill-rule="nonzero"/></g><path fill="#5800ff" d="M 299.542969 338.011719 C 292.445312 340.933594 283.675781 351.789062 281.796875 359.722656 C 278.042969 376.421875 290.148438 394.582031 306.640625 397.503906 C 317.703125 399.382812 332.3125 392.910156 338.160156 383.519531 C 344.421875 373.707031 343.167969 354.921875 335.863281 347.199219 C 326.261719 336.761719 311.230469 333.003906 299.542969 338.011719 Z M 299.542969 338.011719 " fill-opacity="1" fill-rule="nonzero"/><path fill="#5800ff" d="M 487.199219 338.847656 C 471.75 345.738281 465.074219 368.28125 474.257812 381.640625 C 481.980469 393.121094 489.496094 397.503906 500.976562 397.503906 C 512.457031 397.503906 519.972656 393.121094 527.695312 381.847656 C 535.835938 369.742188 532.078125 350.746094 519.34375 341.5625 C 512.246094 336.34375 495.757812 334.882812 487.199219 338.847656 Z M 487.199219 338.847656 " fill-opacity="1" fill-rule="nonzero"/></svg>