<?xml version="1.0" encoding="UTF-8"?>
<svg width="106px" height="72px" viewBox="0 0 106 72" version="1.1" xmlns="http://www.w3.org/2000/svg" xmlns:xlink="http://www.w3.org/1999/xlink">
    <!-- Generator: Sketch 63.1 (92452) - https://sketch.com -->
    <title>Group</title>
    <desc>Created with Sketch.</desc>
    <defs>
        <linearGradient x1="33.2186777%" y1="78.1720869%" x2="75.1175993%" y2="50%" id="linearGradient-1">
            <stop stop-color="#FF0065" offset="0%"></stop>
            <stop stop-color="#DD61FC" offset="100%"></stop>
        </linearGradient>
        <linearGradient x1="50%" y1="45.2002284%" x2="92.7732741%" y2="50%" id="linearGradient-2">
            <stop stop-color="#B10151" offset="0%"></stop>
            <stop stop-color="#750126" offset="100%"></stop>
        </linearGradient>
        <linearGradient x1="33.6943916%" y1="80.1839729%" x2="66.6778888%" y2="54.5809932%" id="linearGradient-3">
            <stop stop-color="#80F3FD" offset="0%"></stop>
            <stop stop-color="#00D0FF" offset="100%"></stop>
        </linearGradient>
        <linearGradient x1="32.3319263%" y1="50%" x2="76.8025373%" y2="61.076389%" id="linearGradient-4">
            <stop stop-color="#0080BB" offset="0%"></stop>
            <stop stop-color="#004985" offset="100%"></stop>
        </linearGradient>
    </defs>
    <g id="txpipe" stroke="none" stroke-width="1" fill="none" fill-rule="evenodd">
        <g id="opcion-2" transform="translate(-26.000000, -182.000000)">
            <g id="Group" transform="translate(26.000000, 182.000000)">
                <g id="arrow-right" transform="translate(55.000000, 0.000000)">
                    <path d="M12.931255,1.06300976 C19.6532,-1.58840782 23.9828711,0.347678035 34.8337542,11.1278124 L35.575255,11.8680098 C47.643255,23.9680098 50.164255,27.7090098 50.712255,34.3270098 L50.7487467,34.8198362 C51.2241135,42.1498465 48.4140316,46.7475417 36.2443847,58.748231 L34.3391348,60.6162506 C23.3643679,71.3203072 20.6380314,72.8424624 13.361863,71.0100098 C10.2964784,70.2378944 7.7489145,68.3929338 4.79359296,65.3664738 L4.4369379,64.9976204 L0.043,59.952 L23.358,36.3386898 L10.5146958,23.1605006 C4.88994482,17.4255525 0.29909375,12.9742753 0.017,13 L5.32907052e-14,13.004 L5.32907052e-14,12.94 L0.0135729907,12.9552946 L5.29725496,7.10100976 C8.12025496,4.32300976 11.556255,1.60500976 12.931255,1.06300976 Z" id="Path" fill="url(#linearGradient-1)"></path>
                    <path d="M12.931255,1.06300976 C19.6532,-1.58840782 23.9828711,0.347678035 34.8337542,11.1278124 L35.575255,11.8680098 C39.0943119,17.0643461 35.0218936,25.2212395 23.358,36.3386898 L10.5146958,23.1605006 C4.88994482,17.4255525 0.29909375,12.9742753 0.017,13 L4.26325641e-14,13.004 L4.26325641e-14,12.94 L0.0135729907,12.9552946 L5.29725496,7.10100976 C8.12025496,4.32300976 11.556255,1.60500976 12.931255,1.06300976 Z" id="Path" fill="url(#linearGradient-2)"></path>
                </g>
                <g id="arrow-right" transform="translate(25.500000, 36.000000) scale(-1, -1) translate(-25.500000, -36.000000) ">
                    <path d="M12.931255,1.06300976 C19.6532,-1.58840782 23.9828711,0.347678035 34.8337542,11.1278124 L35.575255,11.8680098 C47.643255,23.9680098 50.164255,27.7090098 50.712255,34.3270098 L50.7487467,34.8198362 C51.2241135,42.1498465 48.4140316,46.7475417 36.2443847,58.748231 L34.3391348,60.6162506 C23.3643679,71.3203072 20.6380314,72.8424624 13.361863,71.0100098 C10.2964784,70.2378944 7.7489145,68.3929338 4.79359296,65.3664738 L4.4369379,64.9976204 L0.043,59.952 L23.358,36.3386898 L10.5146958,23.1605006 C4.88994482,17.4255525 0.29909375,12.9742753 0.017,13 L5.32907052e-14,13.004 L5.32907052e-14,12.94 L0.0135729907,12.9552946 L5.29725496,7.10100976 C8.12025496,4.32300976 11.556255,1.60500976 12.931255,1.06300976 Z" id="Path" fill="url(#linearGradient-3)"></path>
                    <path d="M12.931255,1.06300976 C19.6532,-1.58840782 23.9828711,0.347678035 34.8337542,11.1278124 L35.575255,11.8680098 C39.0943119,17.0643461 35.0218936,25.2212395 23.358,36.3386898 L10.5146958,23.1605006 C4.88994482,17.4255525 0.29909375,12.9742753 0.017,13 L4.26325641e-14,13.004 L4.26325641e-14,12.94 L0.0135729907,12.9552946 L5.29725496,7.10100976 C8.12025496,4.32300976 11.556255,1.60500976 12.931255,1.06300976 Z" id="Path" fill="url(#linearGradient-4)"></path>
                </g>
            </g>
        </g>
    </g>
</svg>