<svg width="976" height="191" viewBox="0 0 976 191" fill="none" xmlns="http://www.w3.org/2000/svg">
<path d="M41.6468 125.96C41.6468 135.003 43.3539 142.247 46.7681 147.691C50.1823 153.043 55.9034 155.719 63.9313 155.719C72.1438 155.719 77.911 153.043 81.2329 147.691C84.6471 142.247 86.3542 135.003 86.3542 125.96V73.3632H127.878V130.389C127.878 142.57 125.34 153.181 120.265 162.224C115.282 171.175 108.039 178.095 98.5345 182.986C89.0301 187.877 77.4957 190.322 63.9313 190.322C50.4591 190.322 38.9709 187.877 29.4665 182.986C19.9622 178.095 12.7186 171.175 7.73573 162.224C2.75287 153.181 0.261446 142.57 0.261446 130.389V73.3632H41.6468V125.96ZM142.673 73.3632H162.051V26.7181H203.713V73.3632H229.181V107.966H203.713V139.663C203.713 144.369 204.405 148.198 205.789 151.151C207.173 154.012 209.711 155.442 213.402 155.442C215.893 155.442 218.016 154.888 219.769 153.781C221.522 152.674 222.583 151.935 222.952 151.566L237.347 181.463C236.701 182.017 234.671 183.032 231.257 184.509C227.935 185.985 223.691 187.323 218.523 188.523C213.356 189.722 207.589 190.322 201.222 190.322C189.872 190.322 180.506 187.138 173.124 180.771C165.742 174.312 162.051 164.393 162.051 151.013V107.966H142.673V73.3632ZM338.605 125.96L386.911 187H340.266L313.414 151.982L286.562 187H243.1L291.268 129.282L247.944 73.3632H295.005L316.044 102.568L338.051 73.3632H380.682L338.605 125.96ZM458.929 190.322C446.472 190.322 435.399 187.784 425.71 182.709C416.113 177.542 408.546 170.483 403.01 161.532C397.566 152.489 394.844 142.154 394.844 130.528C394.844 118.901 397.566 108.566 403.01 99.5232C408.546 90.3879 416.113 83.1905 425.71 77.9308C435.399 72.6711 446.472 70.0413 458.929 70.0413C471.386 70.0413 482.367 72.6711 491.871 77.9308C501.375 83.1905 508.803 90.3879 514.155 99.5232C519.507 108.566 522.183 118.901 522.183 130.528C522.183 142.154 519.507 152.489 514.155 161.532C508.803 170.483 501.375 177.542 491.871 182.709C482.367 187.784 471.386 190.322 458.929 190.322ZM458.929 155.719C463.727 155.719 467.879 154.658 471.386 152.535C474.892 150.413 477.614 147.414 479.552 143.538C481.49 139.663 482.459 135.28 482.459 130.389C482.459 125.406 481.49 120.977 479.552 117.102C477.614 113.226 474.892 110.181 471.386 107.966C467.879 105.752 463.727 104.644 458.929 104.644C454.13 104.644 449.932 105.752 446.333 107.966C442.827 110.181 440.058 113.226 438.028 117.102C436.091 120.977 435.122 125.406 435.122 130.389C435.122 135.28 436.091 139.663 438.028 143.538C440.058 147.414 442.827 150.413 446.333 152.535C449.932 154.658 454.13 155.719 458.929 155.719ZM676.444 4.29522H717.553L789.666 187H745.512L732.225 150.321H661.911L648.485 187H604.193L676.444 4.29522ZM675.752 114.057H718.522L697.345 54.1238H696.929L675.752 114.057ZM882.813 84.8514H975.965V96.4781C975.965 109.581 973.75 121.808 969.321 133.157C964.984 144.507 958.756 154.473 950.636 163.055C942.515 171.636 932.826 178.326 921.569 183.124C910.311 187.923 897.854 190.322 884.197 190.322C870.079 190.322 857.253 187.923 845.719 183.124C834.277 178.234 824.403 171.452 816.098 162.778C807.794 154.104 801.427 144.046 796.997 132.604C792.568 121.069 790.354 108.705 790.354 95.5092C790.354 82.4061 792.568 70.1335 796.997 58.6914C801.427 47.157 807.794 37.099 816.098 28.5174C824.403 19.8436 834.277 13.1075 845.719 8.3092C857.253 3.41861 870.079 0.973311 884.197 0.973311C895.732 0.973311 905.882 2.21903 914.648 4.71046C923.507 7.20189 931.119 10.5238 937.486 14.6762C943.853 18.8286 949.251 23.3962 953.681 28.379C958.11 33.2696 961.801 38.0679 964.754 42.774L925.444 61.3213C921.661 55.5079 916.494 50.4328 909.942 46.0959C903.483 41.7589 894.901 39.5905 884.197 39.5905C876.723 39.5905 869.849 41.0669 863.574 44.0197C857.392 46.9725 852.04 51.0326 847.518 56.2C842.997 61.2751 839.49 67.2269 836.999 74.0552C834.6 80.7913 833.4 87.9426 833.4 95.5092C833.4 103.168 834.6 110.365 836.999 117.102C839.49 123.838 842.997 129.789 847.518 134.957C852.04 140.124 857.392 144.184 863.574 147.137C869.849 149.998 876.723 151.428 884.197 151.428C890.749 151.428 896.701 150.597 902.053 148.937C907.405 147.276 912.018 144.876 915.894 141.739C919.862 138.602 922.953 134.911 925.168 130.666C927.474 126.329 928.859 121.577 929.32 116.41H882.813V84.8514Z" fill="#ffffff"/>
</svg>
