<?xml version="1.0" encoding="UTF-8" standalone="no"?>
<svg
   width="873"
   height="304"
   viewBox="0 0 873 304"
   fill="none"
   version="1.1"
   id="svg11"
   sodipodi:docname="vellumLabs.svg"
   inkscape:version="1.4.2 (ebf0e940, 2025-05-08)"
   xmlns:inkscape="http://www.inkscape.org/namespaces/inkscape"
   xmlns:sodipodi="http://sodipodi.sourceforge.net/DTD/sodipodi-0.dtd"
   xmlns="http://www.w3.org/2000/svg"
   xmlns:svg="http://www.w3.org/2000/svg">
  <defs
     id="defs11" />
  <sodipodi:namedview
     id="namedview11"
     pagecolor="#ffffff"
     bordercolor="#000000"
     borderopacity="0.25"
     inkscape:showpageshadow="2"
     inkscape:pageopacity="0.0"
     inkscape:pagecheckerboard="0"
     inkscape:deskcolor="#d1d1d1"
     showguides="true"
     inkscape:document-units="px"
     inkscape:zoom="2.6955915"
     inkscape:cx="153.21313"
     inkscape:cy="103.50233"
     inkscape:window-width="2560"
     inkscape:window-height="1317"
     inkscape:window-x="0"
     inkscape:window-y="31"
     inkscape:window-maximized="1"
     inkscape:current-layer="svg11" />
  <path
     d="M234.625 63.4648C234.625 63.4648 253.129 64.6347 261.475 70.8448C278.899 82.3258 290.948 91.0898 293.347 107.59C294.877 118.119 295.156 133.436 295.035 146.055C295.045 150.405 295.085 154.745 295.135 159.095C295.195 164.335 295.225 169.585 295.235 174.835C295.245 176.835 295.265 178.835 295.285 180.825C295.325 183.635 295.325 186.435 295.325 189.235C295.355 189.465 295.355 189.465 295.385 191.715C295.305 198.195 292.865 201.715 288.625 206.465C287.875 207.365 287.125 208.265 286.355 209.185C282.395 213.595 278.395 217.725 273.865 221.545C270.481 224.436 267.259 227.509 264.015 230.555C253.905 239.965 245.925 239.615 232.705 239.575H228.475C224.665 239.575 220.855 239.575 217.035 239.565C213.055 239.565 209.065 239.555 205.075 239.555C197.525 239.555 189.975 239.545 182.435 239.535C173.835 239.525 165.245 239.525 156.645 239.515C138.975 239.505 121.295 239.485 103.625 239.465V223.465C106.285 223.455 106.285 223.455 109.005 223.455C125.735 223.415 142.465 223.355 159.195 223.285C167.795 223.245 176.395 223.205 185.005 223.195C192.495 223.185 199.995 223.155 207.495 223.115C211.465 223.085 215.435 223.075 219.405 223.075C223.145 223.075 226.875 223.055 230.615 223.025C232.635 223.015 234.655 223.015 236.675 223.025C250.105 222.875 256.305 216.415 265.625 207.465C266.145 206.965 266.675 206.475 267.205 205.965C268.735 204.515 270.245 203.055 271.755 201.595C272.635 200.725 273.525 199.865 274.445 198.975C278.485 194.325 278.925 189.955 278.945 183.975C278.955 183.235 278.965 182.495 278.975 181.735C279.005 179.305 279.025 176.875 279.035 174.445C279.045 172.755 279.055 171.055 279.065 169.355C279.085 165.795 279.095 162.245 279.105 158.685C279.115 154.145 279.165 149.605 279.225 145.065C279.255 141.555 279.265 138.045 279.275 134.545C279.275 132.865 279.295 131.195 279.325 129.525C279.455 120.125 278.728 113.056 272.625 105.465C263.908 95.457 253.154 84.488 234.548 81.5418L234.625 63.4648Z"
     fill="#1D6BA7"
     id="path1" />
  <path
     d="M 74.099196,95.792324 91.686119,95.822784 91.6252,108.465 c 0,0 -0.14,4.06 -0.15,6.08 0,1.25 -0.01,2.5 -0.02,3.78 0,1.38 0,2.76 -0.01,4.14 0,1.46 -0.01,2.92 -0.02,4.37 -0.02,4.78 -0.03,9.56 -0.04,14.33 0,1.65 -0.01,2.3 -0.01,4.94 -0.02,7.74 -0.03,15.48 -0.04,23.21 -0.01,8.92 -0.04,17.85 -0.08,26.77 -0.03,6.9 -0.04,13.8 -0.05,20.7 0,4.12 -0.01,8.24 -0.03,12.36 -0.03,3.88 -0.03,7.76 -0.02,11.63 0,1.42 -0.01,2.84 -0.02,4.26 -0.08,9.19 0.48,15.32 6.27,22.7 0.59,0.58 1.18,1.16 1.79,1.76 0.65,0.64 1.2998,1.29 1.9698,1.96 1,0.96 1,0.96 2.02,1.95 0.67,0.67 1.35,1.34 2.04,2.03 3.71,3.76 9.169,8.953 9.169,8.953 4.513,2.277 9.448,3.186 14.461,3.267 12.29,0.114 24.58,0.276 36.87,0.33 1.14,0.03 2.28,0.05 3.46,0.07 9.51,-0.02 17.03,-2.69 23.94,-9.4 3.32,-3.19 6.5,-6.19 6.5,-6.19 0.98,-1.02 1.98,-2.02 3,-3 4.06,-5.36 6.91,-10.61 9,-17 h 17 c -2.31,18.44 -14.91,30.39 -28.81,41.61 -7.85,5.88 -14.68,9.49 -24.5,9.55 -1.28,0.01 -2.56,0.02 -3.87,0.03 -1.4,0.01 -2.79,0.01 -4.18,0.01 -1.44,0.01 -2.87,0.01 -4.31,0.02 -15.759,0.052 -29.352,0.1 -29.43,0.1 -8.35,0.22 -16.441,0.909 -23.9,-3.32 -0.97,-0.52 -1.94,-1.03 -2.94,-1.56 -0.68,-0.48 -1.36,-0.95 -2.06,-1.44 -2.017,-1.67 -2.65,-2.361 -4.6444,-4.232 -4.2401,-3.953 -21.3555,-22.695 -21.8754,-23.418 -5.3831,-7.488 -3.75,-18.1 -3.71,-26.97 v -4.7 c 0,-4.23 0.01,-8.47 0.03,-12.7 0.01,-4.43 0.01,-8.86 0.01,-13.3 0.01,-8.38 0.03,-16.76 0.05,-25.14 0.02,-9.55 0.03,-19.1 0.04,-28.65 0.02,-19.63 -0.426004,-62.562676 -0.426004,-62.562676 z"
     fill="#1d6ba7"
     id="path2"
     sodipodi:nodetypes="cccccccccccccccccccccccccccccccccccccccccsccccc" />
  <path
     d="M134.755 0.004652C228.856 0.004652 60.8487 0.0908549 154.285 0.094652C192.38 -0.607899 191.315 3.5413 214.125 26.9047C220.875 33.8247 226.246 43.7777 226.196 53.5277C226.158 206.337 226.368 144.261 226.235 210.753L207.956 210.625C206.946 208.385 207.605 120.975 207.595 118.665C207.555 111.215 207.505 103.765 207.435 96.3047C207.395 91.7947 207.365 87.2847 207.355 82.7647C207.335 78.4047 207.305 74.0347 207.255 69.6747C207.235 68.0147 207.235 66.3647 207.235 64.7047C207.203 44.4458 203.111 38.3761 195.305 29.3447C191.045 24.5247 186.175 19.6147 179.625 18.4647C171.493 18.0275 158.098 18.4109 132.005 17.9847C119.719 17.6583 111.967 23.8524 104.742 30.8331C98.9122 36.4665 93.6246 52.4646 93.6246 52.4646L73.8399 52.4196C73.7858 42.647 99.7823 -0.514954 134.755 0.004652Z"
     fill="#1D6BA7"
     id="path3" />
  <path
     d="M 58.7671,239.504 C 38.3214,242.361 27.4848,226.98 14.8659,214.235 0.232136,199.268 0.667271,198.507 0.551201,189.283 c -0.01,-0.845 -0.010003,-1.68 -0.019303,-2.535 -0.01,-0.885 -0.019299,-1.76 -0.028999,-2.675 -0.029,-2.917 -0.048395,-5.844 -0.067695,-8.761 -0.01,-0.996 -0.010003,-1.992 -0.019303,-3.028 -0.029,-5.28 -0.058,-10.571 -0.0774,-15.852 -0.01,-4.375 -0.048403,-8.74 -0.096703,-13.116 -0.058,-5.27 -0.087095,-10.551 -0.096695,-15.831 -0.01,-2.012 -0.029,-4.024 -0.0484004,-6.025 C 0.0580026,118.633 0.0579987,115.817 0.0579987,113 0.0289987,112.769 0.029,112.769 0,110.506 0.0774,103.988 2.43735,100.448 6.53829,95.67 7.26369,94.7647 7.9891,93.8594 8.73384,92.9341 12.564,88.4983 16.4328,84.3443 20.8142,80.502 c 1.712,-1.5289 3.3755,-3.0779 5.0295,-4.6772 0.5029,-0.4928 1.9731,-0.9857 1.5281,-1.4886 0.9963,-0.9656 1.9828,-1.9312 2.9694,-2.8968 9.7784,-9.4649 17.4966,-9.1129 30.2831,-9.0726 h 4.0912 c 3.6851,0 7.3701,0 11.0648,0.0104 3.8495,0 7.7086,0.0104 11.5678,0.0104 7.3023,0 14.6049,0.0105 21.8979,0.0202 8.317,0.0104 16.626,0.0104 24.944,0.0202 17.09,0.0105 57.03113,0.235888 57.03113,0.235888 l -0.005,15.978535 c 0,0 -8.31799,-0.06032 -10.94899,-0.06032 -16.181,0.0402 -32.362,0.1006 -48.544,0.171 -8.318,0.0402 -16.636,0.0804 -24.963,0.0906 -7.2445,0.0104 -14.4985,0.0402 -21.7526,0.0804 -3.8398,0.0303 -7.6795,0.0403 -11.5193,0.0403 -3.6174,0 -7.2251,0.0202 -10.8424,0.0503 -1.9537,0.0104 -3.9075,0.0104 -5.8612,0 -12.9896,0.1509 -18.9862,6.6486 -28.0005,15.6508 -0.503,0.5029 -1.0156,0.9958 -1.5282,1.5088 -1.4799,1.4584 -2.9403,2.9269 -4.4008,4.3957 -0.8511,0.875 -1.712,1.74 -2.6018,2.635 -3.9075,4.677 -4.333,9.073 -4.3524,15.088 -0.01,0.744 -0.0193,1.488 -0.029,2.253 -0.029,2.444 -0.0484,4.888 -0.058,7.332 -0.01,1.7 -0.0193,3.41 -0.029,5.12 -0.0193,3.581 -0.029,7.151 -0.0387,10.732 -0.01,4.567 -0.058,9.133 -0.116,13.7 -0.029,3.53 -0.0388,7.061 -0.0485,10.581 0,1.69 -0.0193,3.37 -0.0484,5.049 -0.1257,9.455 -0.1063,16.949 6.4803,24.201 0.7834,0.935 1.5765,1.881 2.389,2.846 0.7641,0.775 1.5185,1.559 2.3116,2.364 1.2574,1.308 1.2574,1.308 2.5438,2.635 0.8608,0.875 1.7216,1.75 2.6114,2.656 0.8705,0.895 1.741,1.8 2.6405,2.725 8.2243,8.464 24.378,10.914 24.378,10.914 l -0.1206,18.105 z"
     fill="#1d6ba7"
     id="path4"
     sodipodi:nodetypes="ccccccccccccccccccccscsccccccccsccccccccccccccccccccccc" />
  <path
     d="m 106.85897,203.6282 c -0.0942,1.72075 0.49733,3.40903 1.64484,4.69528 1.14752,1.28572 2.75781,2.06521 4.47802,2.16677 0.12617,0 0.25757,0 0.37641,0 1.27053,-6.2e-4 2.51333,-0.3743 3.57499,-1.07371 1.06113,-0.69939 1.89402,-1.69456 2.39554,-2.8625 0.50204,-1.16741 0.65071,-2.45679 0.42822,-3.70796 -0.22301,-1.25116 -0.80724,-2.41019 -1.68148,-3.33261 -0.87373,-0.92293 -1.99873,-1.56945 -3.23628,-1.86 -1.23756,-0.29002 -2.53271,-0.2115 -3.72576,0.22616 -1.19358,0.43764 -2.23221,1.21557 -2.98815,2.23692 -0.75646,1.02187 -1.19619,2.24215 -1.26635,3.51165 z"
     fill="#1d6ba7"
     id="path5"
     style="stroke-width:0.523501" />
  <path
     d="m 131.81225,111.22718 c -2.2431,-0.12688 -4.44461,0.64197 -6.1208,2.13806 -1.67619,1.49609 -2.68928,3.59662 -2.81686,5.83974 -0.12756,2.2431 0.6406,4.4446 2.13601,6.12147 1.49541,1.67688 3.59594,2.69064 5.83905,2.8189 0.16441,0 0.33565,0 0.48642,0 2.20559,0 4.32454,-0.86027 5.9059,-2.39798 1.58137,-1.5377 2.50098,-3.6314 2.56306,-5.83631 0.0621,-2.20491 -0.73815,-4.34706 -2.23082,-5.9714 -1.492,-1.62366 -3.5591,-2.60195 -5.76196,-2.72612 z"
     fill="#1d6ba7"
     id="path6"
     style="stroke-width:0.682211" />
  <path
     d="m 107.54833,105.30724 c 0.52088,1.03287 1.30823,1.90869 2.28038,2.53584 0.97214,0.62716 2.09399,0.98366 3.25041,1.03234 1.15589,0.0487 2.30393,-0.21149 3.32529,-0.75488 1.02187,-0.54287 1.88041,-1.34854 2.48663,-2.33429 0.60621,-0.98523 0.93864,-2.11442 0.96271,-3.27136 0.024,-1.15694 -0.26123,-2.29921 -0.82608,-3.309048 -0.56434,-1.00984 -1.38832,-1.850579 -2.38665,-2.435329 -0.99831,-0.585282 -2.13483,-0.893097 -3.29177,-0.892571 -1.10983,5.17e-4 -2.2008,0.285306 -3.16928,0.827131 -0.969,0.54182 -1.78252,1.322369 -2.36413,2.267799 -0.58161,0.94493 -0.91141,2.023328 -0.95853,3.132118 -0.0466,1.10877 0.19107,2.21126 0.69102,3.20225 z"
     fill="#1d6ba7"
     id="path7"
     style="stroke-width:0.523501"
     sodipodi:nodetypes="csccccccscccc" />
  <path
     d="m 107.91961,132.69238 c -0.79101,1.20877 -1.15642,2.64682 -1.03862,4.08645 0.11831,1.44016 0.713,2.79917 1.69039,3.86292 0.97737,1.06375 2.28193,1.77152 3.70638,2.01077 1.42498,0.23924 2.88868,-0.003 4.15975,-0.68945 1.27157,-0.68631 2.27775,-1.77676 2.85988,-3.09913 0.58161,-1.32236 0.70621,-2.80073 0.35336,-4.20162 -0.35284,-1.40088 -1.1627,-2.64421 -2.30184,-3.53311 -1.13861,-0.88891 -2.54159,-1.37263 -3.98594,-1.37471 -1.07998,-5.3e-4 -2.14268,0.26803 -3.09284,0.78105 -0.95068,0.51252 -1.75792,1.25379 -2.35052,2.15683 z"
     fill="#1d6ba7"
     id="path8"
     style="stroke-width:0.523501" />
  <path
     d="m 138.89671,148.87326 c -0.75384,-1.49746 -1.93544,-2.7384 -3.39468,-3.56456 -1.45924,-0.82615 -3.13067,-1.20069 -4.80276,-1.07653 -1.6721,0.12348 -3.26984,0.74089 -4.59128,1.77307 -1.32145,1.03219 -2.30657,2.43345 -2.83187,4.02572 -0.5253,1.59229 -0.56623,3.30464 -0.11734,4.9208 0.44821,1.61547 1.36579,3.06176 2.63607,4.15603 1.27096,1.09426 2.83732,1.78671 4.50191,1.99068 1.6639,0.20331 3.35169,-0.0914 4.84847,-0.84661 0.99739,-0.49596 1.887,-1.18501 2.61696,-2.02753 0.72929,-0.84185 1.28461,-1.82083 1.63391,-2.87893 0.34861,-1.05812 0.48437,-2.17489 0.39841,-3.28621 -0.0853,-1.11065 -0.39091,-2.194 -0.8978,-3.18593 z"
     fill="#1d6ba7"
     id="path9"
     style="stroke-width:0.682211" />
  <path
     d="m 118.7917,173.68085 c 0.79259,-1.21034 1.15956,-2.64998 1.04177,-4.09221 -0.11726,-1.44173 -0.71248,-2.80336 -1.6909,-3.8692 -0.97896,-1.06533 -2.28457,-1.77415 -3.71163,-2.01392 -1.42654,-0.23975 -2.89236,0.003 -4.1655,0.68998 -1.27316,0.68736 -2.28089,1.77938 -2.86356,3.10384 -0.58213,1.32394 -0.70672,2.80492 -0.35283,4.2079 0.35389,1.40246 1.16531,2.64735 2.30655,3.53678 1.1407,0.88995 2.54578,1.37366 3.99222,1.37471 1.08102,0.004 2.1453,-0.26227 3.09598,-0.7753 0.9512,-0.51356 1.75844,-1.25694 2.3479,-2.16258 z"
     fill="#1d6ba7"
     id="path10"
     style="stroke-width:0.523501" />
  <path
     d="M424.322 113L445.76 41H466.635L434.947 132H421.197L424.322 113ZM404.572 41L425.947 113L429.197 132H415.322L383.822 41H404.572ZM536.197 117.375V132H487.76V117.375H536.197ZM493.885 41V132H475.135V41H493.885ZM529.885 78.0625V92.3125H487.76V78.0625H529.885ZM536.135 41V55.6875H487.76V41H536.135ZM605.635 117.375V132H559.822V117.375H605.635ZM565.885 41V132H547.135V41H565.885ZM674.885 117.375V132H629.072V117.375H674.885ZM635.135 41V132H616.385V41H635.135ZM733.76 41H752.447V101.125C752.447 108.125 750.947 114.021 747.947 118.812C744.989 123.604 740.885 127.208 735.635 129.625C730.426 132.042 724.426 133.25 717.635 133.25C710.843 133.25 704.801 132.042 699.51 129.625C694.26 127.208 690.135 123.604 687.135 118.812C684.176 114.021 682.697 108.125 682.697 101.125V41H701.447V101.125C701.447 105.208 702.093 108.542 703.385 111.125C704.676 113.708 706.531 115.604 708.947 116.812C711.406 118.021 714.301 118.625 717.635 118.625C721.051 118.625 723.947 118.021 726.322 116.812C728.739 115.604 730.572 113.708 731.822 111.125C733.114 108.542 733.76 105.208 733.76 101.125V41ZM776.447 41H792.322L815.697 107.812L839.072 41H854.947L822.072 132H809.322L776.447 41ZM767.885 41H783.697L786.572 106.125V132H767.885V41ZM847.697 41H863.572V132H844.822V106.125L847.697 41ZM450.01 245.375V260H404.197V245.375H450.01ZM410.26 169V260H391.51V169H410.26ZM499.01 184.562L474.26 260H454.322L488.135 169H500.822L499.01 184.562ZM519.572 260L494.76 184.562L492.76 169H505.572L539.572 260H519.572ZM518.447 226.125V240.812H470.385V226.125H518.447ZM583.635 220.062H560.26L560.135 207.188H579.76C583.218 207.188 586.051 206.75 588.26 205.875C590.468 204.958 592.114 203.646 593.197 201.938C594.322 200.188 594.885 198.062 594.885 195.562C594.885 192.729 594.343 190.438 593.26 188.688C592.218 186.938 590.572 185.667 588.322 184.875C586.114 184.083 583.26 183.688 579.76 183.688H566.76V260H548.01V169H579.76C585.051 169 589.781 169.5 593.947 170.5C598.156 171.5 601.718 173.021 604.635 175.062C607.551 177.104 609.781 179.688 611.322 182.812C612.864 185.896 613.635 189.562 613.635 193.812C613.635 197.562 612.781 201.021 611.072 204.188C609.406 207.354 606.76 209.938 603.135 211.938C599.551 213.938 594.864 215.042 589.072 215.25L583.635 220.062ZM582.822 260H555.135L562.447 245.375H582.822C586.114 245.375 588.801 244.854 590.885 243.812C592.968 242.729 594.51 241.271 595.51 239.438C596.51 237.604 597.01 235.5 597.01 233.125C597.01 230.458 596.551 228.146 595.635 226.188C594.76 224.229 593.343 222.729 591.385 221.688C589.426 220.604 586.843 220.062 583.635 220.062H565.572L565.697 207.188H588.197L592.51 212.25C598.051 212.167 602.51 213.146 605.885 215.188C609.301 217.188 611.781 219.792 613.322 223C614.906 226.208 615.697 229.646 615.697 233.312C615.697 239.146 614.426 244.062 611.885 248.062C609.343 252.021 605.614 255 600.697 257C595.822 259 589.864 260 582.822 260ZM677.135 236.188C677.135 234.562 676.885 233.104 676.385 231.812C675.926 230.479 675.051 229.271 673.76 228.188C672.468 227.062 670.656 225.958 668.322 224.875C665.989 223.792 662.968 222.667 659.26 221.5C655.135 220.167 651.218 218.667 647.51 217C643.843 215.333 640.593 213.396 637.76 211.188C634.968 208.938 632.76 206.333 631.135 203.375C629.551 200.417 628.76 196.979 628.76 193.062C628.76 189.271 629.593 185.833 631.26 182.75C632.926 179.625 635.26 176.958 638.26 174.75C641.26 172.5 644.801 170.771 648.885 169.562C653.01 168.354 657.531 167.75 662.447 167.75C669.156 167.75 675.01 168.958 680.01 171.375C685.01 173.792 688.885 177.104 691.635 181.312C694.426 185.521 695.822 190.333 695.822 195.75H677.197C677.197 193.083 676.635 190.75 675.51 188.75C674.426 186.708 672.76 185.104 670.51 183.938C668.301 182.771 665.51 182.188 662.135 182.188C658.885 182.188 656.176 182.688 654.01 183.688C651.843 184.646 650.218 185.958 649.135 187.625C648.051 189.25 647.51 191.083 647.51 193.125C647.51 194.667 647.885 196.062 648.635 197.312C649.426 198.562 650.593 199.729 652.135 200.812C653.676 201.896 655.572 202.917 657.822 203.875C660.072 204.833 662.676 205.771 665.635 206.688C670.593 208.188 674.947 209.875 678.697 211.75C682.489 213.625 685.656 215.729 688.197 218.062C690.739 220.396 692.656 223.042 693.947 226C695.239 228.958 695.885 232.312 695.885 236.062C695.885 240.021 695.114 243.562 693.572 246.688C692.031 249.812 689.801 252.458 686.885 254.625C683.968 256.792 680.489 258.438 676.447 259.562C672.406 260.688 667.885 261.25 662.885 261.25C658.385 261.25 653.947 260.667 649.572 259.5C645.197 258.292 641.218 256.479 637.635 254.062C634.093 251.646 631.26 248.562 629.135 244.812C627.01 241.062 625.947 236.625 625.947 231.5H644.76C644.76 234.333 645.197 236.729 646.072 238.688C646.947 240.646 648.176 242.229 649.76 243.438C651.385 244.646 653.301 245.521 655.51 246.062C657.76 246.604 660.218 246.875 662.885 246.875C666.135 246.875 668.801 246.417 670.885 245.5C673.01 244.583 674.572 243.312 675.572 241.688C676.614 240.062 677.135 238.229 677.135 236.188Z"
     fill="#1D6BA7"
     id="path11" />
  <path
     d="m 138.89671,181.87879 c -0.75384,-1.49746 -1.93544,-2.7384 -3.39468,-3.56456 -1.45924,-0.82615 -3.13067,-1.20069 -4.80276,-1.07653 -1.6721,0.12348 -3.26984,0.74089 -4.59128,1.77307 -1.32145,1.03219 -2.30657,2.43345 -2.83187,4.02572 -0.5253,1.59229 -0.56623,3.30464 -0.11734,4.9208 0.44821,1.61547 1.36579,3.06176 2.63607,4.15603 1.27096,1.09426 2.83732,1.78671 4.50191,1.99068 1.66391,0.20331 3.35169,-0.0914 4.84847,-0.84661 0.99739,-0.49596 1.887,-1.18501 2.61696,-2.02753 0.72929,-0.84185 1.28461,-1.82083 1.63391,-2.87893 0.34861,-1.05812 0.48437,-2.17489 0.39841,-3.28621 -0.0853,-1.11065 -0.39091,-2.194 -0.8978,-3.18593 z"
     fill="#1d6ba7"
     id="path14"
     style="stroke-width:0.682211" />
  <path
     d="m 142.27213,203.76464 c -0.0942,1.72075 0.49733,3.40903 1.64484,4.69528 1.14752,1.28572 2.75781,2.06521 4.47802,2.16677 0.12617,0 0.25757,0 0.37641,0 1.27053,-6.2e-4 2.51333,-0.3743 3.57499,-1.07371 1.06113,-0.69939 1.89402,-1.69456 2.39554,-2.8625 0.50204,-1.16741 0.65071,-2.45679 0.42822,-3.70796 -0.22301,-1.25116 -0.80724,-2.41019 -1.68148,-3.33261 -0.87373,-0.92293 -1.99873,-1.56945 -3.23628,-1.86 -1.23756,-0.29002 -2.53271,-0.2115 -3.72576,0.22616 -1.19358,0.43764 -2.23221,1.21557 -2.98815,2.23692 -0.75646,1.02187 -1.19619,2.24215 -1.26635,3.51165 z"
     fill="#1d6ba7"
     id="path18"
     style="stroke-width:0.523501" />
  <path
     d="m 142.96149,105.30724 c 0.52088,1.03287 1.30823,1.90869 2.28038,2.53584 0.97214,0.62716 2.09399,0.98366 3.25041,1.03234 1.15589,0.0487 2.30393,-0.21149 3.32529,-0.75488 1.02187,-0.54287 1.88041,-1.34854 2.48663,-2.33429 0.60621,-0.98523 0.93864,-2.11442 0.96271,-3.27136 0.024,-1.15694 -0.26123,-2.29921 -0.82608,-3.309048 -0.56434,-1.00984 -1.38832,-1.850579 -2.38665,-2.435329 -0.99831,-0.585282 -2.13483,-0.893097 -3.29177,-0.892571 -1.10983,5.17e-4 -2.2008,0.285306 -3.16928,0.827131 -0.969,0.54182 -1.78252,1.322369 -2.36413,2.267799 -0.58161,0.944928 -0.91141,2.023328 -0.95853,3.132118 -0.0466,1.10877 0.19107,2.21126 0.69102,3.20225 z"
     fill="#1d6ba7"
     id="path19"
     style="stroke-width:0.523501"
     sodipodi:nodetypes="csccccccscccc" />
  <path
     d="m 143.33277,132.73786 c -0.79101,1.20877 -1.15642,2.64682 -1.03862,4.08645 0.11831,1.44016 0.713,2.79917 1.69039,3.86292 0.97737,1.06375 2.28193,1.77152 3.70638,2.01077 1.42498,0.23924 2.88868,-0.003 4.15975,-0.68945 1.27157,-0.68631 2.27775,-1.77676 2.85988,-3.09913 0.58161,-1.32236 0.70621,-2.80073 0.35336,-4.20162 -0.35284,-1.40088 -1.1627,-2.64421 -2.30184,-3.53311 -1.13861,-0.88891 -2.54159,-1.37263 -3.98594,-1.37471 -1.07998,-5.3e-4 -2.14268,0.26803 -3.09284,0.78105 -0.95068,0.51252 -1.75792,1.25379 -2.35052,2.15683 z"
     fill="#1d6ba7"
     id="path20"
     style="stroke-width:0.523501" />
  <path
     d="m 154.20486,173.77181 c 0.79259,-1.21034 1.15956,-2.64998 1.04177,-4.09221 -0.11726,-1.44173 -0.71248,-2.80336 -1.6909,-3.8692 -0.97896,-1.06533 -2.28457,-1.77415 -3.71163,-2.01392 -1.42654,-0.23975 -2.89236,0.003 -4.1655,0.68998 -1.27316,0.68736 -2.28089,1.77938 -2.86356,3.10384 -0.58213,1.32394 -0.70672,2.80492 -0.35283,4.2079 0.35389,1.40246 1.16531,2.64735 2.30655,3.53678 1.1407,0.88995 2.54578,1.37366 3.99222,1.37471 1.08102,0.004 2.1453,-0.26227 3.09598,-0.7753 0.9512,-0.51356 1.75844,-1.25694 2.3479,-2.16258 z"
     fill="#1d6ba7"
     id="path21"
     style="stroke-width:0.523501" />
  <path
     d="m 167.81562,111.22718 c -2.2431,-0.12688 -4.44461,0.64197 -6.1208,2.13806 -1.67619,1.49609 -2.68928,3.59662 -2.81686,5.83974 -0.12756,2.2431 0.6406,4.4446 2.13601,6.12147 1.49541,1.67688 3.59594,2.69064 5.83905,2.8189 0.16441,0 0.33565,0 0.48642,0 2.20559,0 4.32454,-0.86027 5.9059,-2.39798 1.58137,-1.5377 2.50098,-3.6314 2.56306,-5.83631 0.0621,-2.20491 -0.73815,-4.34706 -2.23082,-5.9714 -1.492,-1.62366 -3.5591,-2.60195 -5.76196,-2.72612 z"
     fill="#1d6ba7"
     id="path22"
     style="stroke-width:0.682211" />
  <path
     d="m 174.90009,148.87326 c -0.75384,-1.49746 -1.93544,-2.7384 -3.39468,-3.56456 -1.45924,-0.82615 -3.13067,-1.20069 -4.80276,-1.07653 -1.6721,0.12348 -3.26984,0.74089 -4.59128,1.77307 -1.32145,1.03219 -2.30657,2.43345 -2.83187,4.02572 -0.5253,1.59229 -0.56623,3.30464 -0.11734,4.9208 0.44821,1.61547 1.36579,3.06176 2.63607,4.15603 1.27096,1.09426 2.83732,1.78671 4.50191,1.99068 1.6639,0.20331 3.35169,-0.0914 4.84847,-0.84661 0.99739,-0.49596 1.887,-1.18501 2.61696,-2.02753 0.72929,-0.84185 1.28461,-1.82083 1.63391,-2.87893 0.34861,-1.05812 0.48437,-2.17489 0.39841,-3.28621 -0.0853,-1.11065 -0.39091,-2.194 -0.8978,-3.18593 z"
     fill="#1d6ba7"
     id="path23"
     style="stroke-width:0.682211" />
  <path
     d="m 174.90009,181.87879 c -0.75384,-1.49746 -1.93544,-2.7384 -3.39468,-3.56456 -1.45924,-0.82615 -3.13067,-1.20069 -4.80276,-1.07653 -1.6721,0.12348 -3.26984,0.74089 -4.59128,1.77307 -1.32145,1.03219 -2.30657,2.43345 -2.83187,4.02572 -0.5253,1.59229 -0.56623,3.30464 -0.11734,4.9208 0.44821,1.61547 1.36579,3.06176 2.63607,4.15603 1.27096,1.09426 2.83732,1.78671 4.50191,1.99068 1.66391,0.20331 3.35169,-0.0914 4.84847,-0.84661 0.99739,-0.49596 1.887,-1.18501 2.61696,-2.02753 0.72929,-0.84185 1.28461,-1.82083 1.63391,-2.87893 0.34861,-1.05812 0.48437,-2.17489 0.39841,-3.28621 -0.0853,-1.11065 -0.39091,-2.194 -0.8978,-3.18593 z"
     fill="#1d6ba7"
     id="path24"
     style="stroke-width:0.682211" />
  <path
     d="m 175.58673,203.76464 c -0.0942,1.72075 0.49733,3.40903 1.64484,4.69528 1.14752,1.28572 2.75781,2.06521 4.47802,2.16677 0.12617,0 0.25757,0 0.37641,0 1.27053,-6.2e-4 2.51333,-0.3743 3.57499,-1.07371 1.06113,-0.69939 1.89402,-1.69456 2.39554,-2.8625 0.50204,-1.16741 0.65071,-2.45679 0.42822,-3.70796 -0.22301,-1.25116 -0.80724,-2.41019 -1.68148,-3.33261 -0.87373,-0.92293 -1.99873,-1.56945 -3.23628,-1.86 -1.23756,-0.29002 -2.53271,-0.2115 -3.72576,0.22616 -1.19358,0.43764 -2.23221,1.21557 -2.98815,2.23692 -0.75646,1.02187 -1.19619,2.24215 -1.26635,3.51165 z"
     fill="#1d6ba7"
     id="path25"
     style="stroke-width:0.523501" />
  <path
     d="m 176.27609,105.30724 c 0.52088,1.03287 1.30823,1.90869 2.28038,2.53584 0.97214,0.62716 2.09399,0.98366 3.25041,1.03234 1.15589,0.0487 2.30393,-0.21149 3.32529,-0.75488 1.02187,-0.54287 1.88041,-1.34854 2.48663,-2.33429 0.60621,-0.98523 0.93864,-2.11442 0.96271,-3.27136 0.024,-1.15694 -0.26123,-2.29921 -0.82608,-3.309048 -0.56434,-1.00984 -1.38832,-1.850579 -2.38665,-2.435329 -0.99831,-0.585282 -2.13483,-0.893097 -3.29177,-0.892571 -1.10983,5.17e-4 -2.2008,0.285306 -3.16928,0.827131 -0.969,0.54182 -1.78252,1.322369 -2.36413,2.267799 -0.58161,0.944928 -0.91141,2.023328 -0.95853,3.132118 -0.0466,1.10877 0.19107,2.21126 0.69102,3.20225 z"
     fill="#1d6ba7"
     id="path26"
     style="stroke-width:0.523501"
     sodipodi:nodetypes="csscccccscccc" />
  <path
     d="m 176.64737,132.73786 c -0.79101,1.20877 -1.15642,2.64682 -1.03862,4.08645 0.11831,1.44016 0.713,2.79917 1.69039,3.86292 0.97737,1.06375 2.28193,1.77152 3.70638,2.01077 1.42498,0.23924 2.88868,-0.003 4.15975,-0.68945 1.27157,-0.68631 2.27775,-1.77676 2.85988,-3.09913 0.58161,-1.32236 0.70621,-2.80073 0.35336,-4.20162 -0.35284,-1.40088 -1.1627,-2.64421 -2.30184,-3.53311 -1.13861,-0.88891 -2.54159,-1.37263 -3.98594,-1.37471 -1.07998,-5.3e-4 -2.14268,0.26803 -3.09284,0.78105 -0.95068,0.51252 -1.75792,1.25379 -2.35052,2.15683 z"
     fill="#1d6ba7"
     id="path27"
     style="stroke-width:0.523501" />
  <path
     d="m 187.51946,173.77181 c 0.79259,-1.21034 1.15956,-2.64998 1.04177,-4.09221 -0.11726,-1.44173 -0.71248,-2.80336 -1.6909,-3.8692 -0.97896,-1.06533 -2.28457,-1.77415 -3.71163,-2.01392 -1.42654,-0.23975 -2.89236,0.003 -4.1655,0.68998 -1.27316,0.68736 -2.28089,1.77938 -2.86356,3.10384 -0.58213,1.32394 -0.70672,2.80492 -0.35283,4.2079 0.35389,1.40246 1.16531,2.64735 2.30655,3.53678 1.1407,0.88995 2.54578,1.37366 3.99222,1.37471 1.08102,0.004 2.1453,-0.26227 3.09598,-0.7753 0.9512,-0.51356 1.75844,-1.25694 2.3479,-2.16258 z"
     fill="#1d6ba7"
     id="path28"
     style="stroke-width:0.523501" />
</svg>
