<?xml version="1.0" encoding="UTF-8"?><svg id="Layer_1" xmlns="http://www.w3.org/2000/svg" viewBox="0 0 300 300"><defs><style>.cls-1{fill:#09101d;}</style></defs><g><polygon class="cls-1" points="48.35 267.66 33.06 225.39 23.41 225.39 43.79 279.63 52.9 279.63 73.28 225.39 63.78 225.39 48.35 267.66"/><polygon class="cls-1" points="84.32 279.63 118.92 279.63 118.92 271.79 93.26 271.79 93.26 256.17 116.71 256.17 116.71 248.41 93.26 248.41 93.26 233.23 118.92 233.23 118.92 225.39 84.32 225.39 84.32 279.63"/><path class="cls-1" d="M164.61,251.92c-2.03-1.22-4.34-2.3-6.89-3.21-2.94-.98-5.55-1.84-7.78-2.57-2.06-.72-3.68-1.61-4.79-2.63-.95-.91-1.41-2.25-1.41-4.08,0-2.19,.7-3.84,2.14-5.03,1.57-1.27,3.52-1.89,6.04-1.82,1.99,0,3.63,.38,4.9,1.14,1.3,.76,2.23,1.7,2.86,2.91,.63,1.18,.94,2.34,.94,3.54v1.38h9.25l-.02-1.4c-.05-2.99-.84-5.7-2.34-8.05-1.45-2.37-3.55-4.25-6.21-5.58-2.59-1.32-5.67-1.99-9.16-1.99s-6.66,.67-9.28,1.98c-2.63,1.29-4.7,3.14-6.15,5.51-1.46,2.33-2.18,5.03-2.12,8.01,0,3.63,1.09,6.64,3.25,8.97,2.06,2.16,5.21,3.99,9.37,5.42,2.1,.74,4.15,1.41,6.09,2,1.87,.56,3.51,1.22,4.91,1.96,1.31,.68,2.35,1.57,3.12,2.67,.71,.98,1.06,2.37,1.06,4.12,0,2.1-.78,3.81-2.39,5.21-1.64,1.43-4.06,2.16-7.18,2.16-2.4,0-4.43-.44-6-1.28-1.54-.9-2.73-2.09-3.53-3.51-.82-1.5-1.23-3.16-1.23-4.93v-1.38h-9.23v1.38c0,3.48,.84,6.59,2.49,9.26s4.02,4.76,7.04,6.25c2.97,1.46,6.49,2.2,10.46,2.2s7.55-.75,10.28-2.22c2.81-1.49,4.95-3.44,6.36-5.82,1.39-2.41,2.1-4.99,2.1-7.67,0-3.13-.64-5.77-1.88-7.82-1.19-2.06-2.89-3.76-5.04-5.05Z"/><path class="cls-1" d="M214.65,227.53c-2.78-1.42-6.33-2.14-10.55-2.14h-18.29v54.23h8.93v-21.47h9.36c4.27,0,7.85-.72,10.64-2.15,2.83-1.49,4.95-3.51,6.3-6,1.33-2.45,2.01-5.22,2.01-8.23s-.7-5.87-2.08-8.31c-1.36-2.49-3.48-4.49-6.32-5.94Zm-19.91,5.77h9.21c3.71,0,6.32,.75,7.79,2.26,1.5,1.46,2.23,3.49,2.23,6.22s-.73,4.72-2.24,6.23h0c-1.44,1.44-4.06,2.17-7.77,2.17h-9.21v-16.88Z"/><path class="cls-1" d="M264.15,256.91c3.2-1.21,5.65-3.08,7.28-5.54,1.91-2.82,2.89-6.02,2.89-9.52,0-3.01-.67-5.8-2-8.3-1.35-2.54-3.45-4.57-6.24-6.02-2.73-1.42-6.26-2.14-10.49-2.14h-18v54.23h8.93v-21.25h8.35l10.44,21.25h10.39l-11.55-22.71Zm1.01-14.99c0,2.65-.77,4.74-2.34,6.4-1.53,1.62-4.12,2.44-7.68,2.44h-8.62v-17.39h8.55c3.66,0,6.27,.77,7.79,2.33,1.55,1.51,2.3,3.54,2.3,6.22Z"/></g><polygon class="cls-1" points="229.5 19.99 150.02 127.4 150.02 126.96 70.5 19.49 3.48 19.49 24.15 47.44 44.09 47.44 149.98 186.94 149.98 187.51 255.91 47.94 275.85 47.94 296.52 19.99 229.5 19.99"/></svg>