<?xml version="1.0" encoding="UTF-8"?>
<!-- Generated by Pixelmator Pro 3.6.6 -->
<svg width="123" height="107" viewBox="0 0 123 107" xmlns="http://www.w3.org/2000/svg">
    <path id="Path" fill="#932445" fill-rule="evenodd" stroke="none" d="M 122.729996 0.449997 C 122.570007 1.360001 122.399994 2.259995 122.229996 3.160004 C 115.610001 20.660004 90.309998 35.839996 61.82 46.230003 C 31.739998 35.32 5.150002 19.070007 0.169998 0.389999 C -0.950001 21.110001 3.669998 41.220001 12.93 58.839996 C 12.900002 58.839996 12.880001 58.839996 12.849998 58.849998 C 15.790001 64.470001 19.209999 69.839996 23.07 74.889999 C 23.099998 74.889999 23.139999 74.879997 23.169998 74.870003 C 23.200001 74.910004 23.240002 74.959999 23.27 75 C 23.209999 75.010002 23.16 75.019997 23.099998 75.029999 C 27.440002 80.730003 32.349998 86.019997 37.75 90.830002 C 37.709999 90.830002 37.68 90.850006 37.639999 90.860001 C 44.699997 97.100006 52.610001 102.509995 61.260002 106.899994 C 61.339996 106.860001 61.419998 106.820007 61.5 106.770004 C 61.540001 106.789993 61.580002 106.809998 61.610001 106.830002 C 70.260002 102.440002 78.18 97.029999 85.239998 90.789993 C 90.75 85.919998 95.740005 80.540001 100.160004 74.75 C 104.020004 69.699997 107.440002 64.330002 110.380005 58.709999 C 110.369995 58.709999 110.360001 58.709999 110.350006 58.709999 C 119.100006 41.889999 123.580002 22.660004 122.800003 2.309998 C 122.759995 2.130005 122.619995 1.009995 122.720001 0.459991"/>
    <path id="path1" fill="#ffc06c" fill-rule="evenodd" stroke="none" opacity="0.8" d="M 85.25 90.800003 C 41.309998 80.470001 7.810001 44.870003 0.16 0.389999 C -2.25 44.919998 21.860001 86.669998 61.620003 106.839996 C 70.269997 102.449997 78.190002 97.039993 85.25 90.800003"/>
    <path id="path2" fill="#ffa25f" fill-rule="evenodd" stroke="none" opacity="0.8" d="M 0.169998 0.380005 C 7.82 44.860001 41.32 80.459999 85.260002 90.789993 C 90.770004 85.919998 95.759995 80.540001 100.179993 74.75 C 56.239998 66.260002 7.82 36.970001 0.169998 0.380005"/>
    <path id="path3" fill="#ff8c43" fill-rule="evenodd" stroke="none" opacity="0.8" d="M 0.169998 0.380005 C 7.82 36.970001 56.239998 66.25 100.179993 74.75 C 104.039993 69.699997 107.460007 64.330002 110.399994 58.709999 C 66.459999 52.050003 7.82 29.080002 0.169998 0.389999"/>
    <path id="path4" fill="#b72e49" fill-rule="evenodd" stroke="none" opacity="0.8" d="M 122.729996 0.459991 C 115.089996 44.940002 81.959999 80.75 38.019997 91.080002 C 32.510002 86.209999 27.519997 80.830002 23.099998 75.040001 C 67.040001 66.550003 115.080002 37.059998 122.720001 0.470001"/>
    <path id="path5" fill="#932445" fill-rule="evenodd" stroke="none" opacity="0.8" d="M 38.029999 91.080002 C 37.940002 91 37.849998 90.919998 37.760002 90.839996 C 37.720001 90.839996 37.690002 90.860001 37.650002 90.869995 C 44.709999 97.110001 52.93 102.529999 61.589996 106.919998 C 100.820007 87.020004 124.539993 47.370003 122.820007 2.320007 C 119 22.740005 109.350006 41.169998 96.119995 56.110001 C 81.019997 73.160004 61.160004 85.650002 38.029999 91.089996 Z"/>
    <path id="path6" fill="#db3f4c" fill-rule="evenodd" stroke="none" opacity="0.8" d="M 122.210007 4.290009 C 122.539993 3.050003 122.490005 1.729996 122.729996 0.459991 C 115.089996 29.160004 56.790001 52.18 12.849998 58.839996 C 15.790001 64.459999 19.34 69.980003 23.189999 75.029999 C 32.43 73.239998 41.720001 70.559998 51.010002 67.019997 C 84.669998 54.190002 114.419998 31.57 122.210007 4.270004 Z"/>
</svg>
