<svg width="3328" height="600" viewBox="0 0 599 108" fill="none" xmlns="http://www.w3.org/2000/svg">
<path d="M46.928 27.2461L22.9557 59.9237L0 27.2461V2.44531L22.7152 34.9613L46.8843 2.44531L71.0534 34.9613L93.7687 2.44531V27.2461L70.8129 59.9237L46.928 27.2461Z" fill="white"/>
<path d="M120.361 2.44531V58.7008H104.966V2.44531H120.361Z" fill="white"/>
<path d="M146.992 28.5874V58.5824H131.556V2.45483L177.61 34.2002V2.44531H193.135V59.9237L146.992 28.5874Z" fill="white"/>
<path d="M238.535 59.9241C217.144 59.9241 201.531 46.0165 201.531 29.9669C201.531 13.9174 216.182 0 239.497 0C249.038 0 256.653 1.62829 265.91 5.89266V18.8699C253.874 13.9174 247.496 12.0857 239.651 12.0857C226.445 12.0857 216.674 20.7113 216.674 29.9281C216.674 38.893 225.427 47.7707 239.41 47.7707C243.507 47.7748 247.589 47.3156 251.555 46.4041V37.6815H232.189V25.9933H265.91V54.5743C257.34 58.1189 247.993 59.9456 238.535 59.9241V59.9241Z" fill="white"/>
<path d="M301.302 2.44531C319.79 2.44531 332.439 11.5759 332.439 22.9147C332.439 30.1826 327.164 36.6153 318.453 40.3309L333.494 59.9552L335.887 77.045L320.269 66.6759L302.737 43.5087H293.645V59.1488H278.506V2.50297L301.302 2.44531ZM303.216 31.45C312.221 31.45 317.354 27.8976 317.354 22.9147C317.354 17.7493 312.275 14.4561 303.216 14.4561H293.645V31.45H303.216Z" fill="white"/>
<path d="M356.881 2.44531V58.7008H341.486V2.44531H356.881Z" fill="white"/>
<path d="M387.804 2.44531C411.261 2.44531 425.455 17.0597 425.455 30.5778C425.455 44.0959 411.206 58.7008 387.804 58.7008H368.074V2.45486L387.804 2.44531ZM387.804 46.7843C403.149 46.7843 410.822 38.1281 410.822 30.5778C410.822 23.0275 403.292 14.3714 387.804 14.3714H383.365V46.7843H387.804Z" fill="white"/>
<path d="M477.241 2.44531L474.407 14.3714H448.786V24.448H471.563V36.374H448.786V46.7843H477.241V58.7008H433.855V2.45486L477.241 2.44531Z" fill="white"/>
<path d="M511.283 2.44531C529.779 2.44531 542.422 11.5759 542.422 22.9147C542.422 30.1826 537.156 36.6153 528.43 40.3309L543.423 59.9552L545.816 77.045L530.204 66.6759L512.665 43.5087H503.559V59.1488H488.436V2.50297L511.283 2.44531ZM513.198 31.45C522.207 31.45 527.288 27.8976 527.288 22.9147C527.288 17.7493 522.207 14.4561 513.198 14.4561H503.559V31.45H513.198Z" fill="white"/>
<path d="M571.743 34.4058C562.812 31.0718 551.469 26.8947 551.469 16.1368C551.469 7.34639 559.718 0 572.228 0C580.763 0 588.614 2.64593 595.596 5.89268V18.87C589.881 16.1369 579.309 11.6108 572.712 11.6108C568.737 11.6108 566.799 13.491 566.799 16.1368C566.799 20.2365 572.999 21.855 579.595 24.4136C587.304 27.4859 598.999 32.012 598.999 42.3434C598.999 52.2484 588.614 59.9243 575.421 59.9243C565.631 59.9243 557.68 56.7647 550.016 51.7347V37.9918C555.83 41.7426 566.116 48.3136 575.135 48.3136C580.564 48.3136 583.67 45.6677 583.67 42.4985C583.67 39.184 579.893 37.3909 571.743 34.4058Z" fill="white"/>
<path d="M82.7403 84.7637H62.0342V87.2778H70.6653V107.238H73.9347V87.2778H82.3479L82.7403 84.7637Z" fill="white"/>
<path d="M108.818 94.7438H93.692V84.7637H90.4226V107.238H93.692V97.2578H108.818V107.238H112.088V84.7637H108.818V94.7438Z" fill="white"/>
<path d="M126.722 97.2578H137.663V94.7438H126.722V87.2778H141.107L140.715 84.7637H123.496V107.238H141.107L141.5 104.724H126.722V97.2578Z" fill="white"/>
<path d="M172.269 84.5733C169.958 84.5733 167.735 84.6875 165.251 85.0304V107.047C167.343 107.314 169.523 107.428 171.659 107.428C182.077 107.428 187.831 102.438 187.831 95.3913C187.831 89.1443 182.644 84.5733 172.269 84.5733ZM171.702 104.914C170.612 104.914 169.566 104.876 168.52 104.762V87.2397C169.784 87.1254 170.961 87.0873 172.269 87.0873C180.377 87.0873 184.562 90.287 184.562 95.7722C184.562 101.41 179.941 104.914 171.702 104.914Z" fill="white"/>
<path d="M200.698 97.2578H211.64V94.7438H200.698V87.2778H215.084L214.691 84.7637H197.473V107.238H215.084L215.476 104.724H200.698V97.2578Z" fill="white"/>
<path d="M235.608 95.8484L245.547 84.7637H241.667L233.733 93.8296L225.8 84.7637H221.746L231.597 95.8865L221.571 107.238H225.451L233.516 97.9435L241.667 107.238H245.765L235.608 95.8484Z" fill="white"/>
<path d="M279.155 107.619C286.958 107.619 292.538 102.591 292.538 95.6199C292.538 89.1062 287.22 84.3828 279.853 84.3828C272.094 84.3828 266.47 89.4109 266.47 96.3817C266.47 102.895 271.788 107.619 279.155 107.619ZM279.286 105.105C273.706 105.105 269.74 101.296 269.74 96.0389C269.74 90.7441 273.968 86.8969 279.722 86.8969C285.302 86.8969 289.269 90.706 289.269 95.9627C289.269 101.257 285.04 105.105 279.286 105.105Z" fill="white"/>
<path d="M321.535 102.895L305.45 84.7637H302.224V107.238H305.45V89.1062L321.535 107.238H324.804V84.7637H321.535V102.895Z" fill="white"/>
<path d="M361.693 107.619C365.049 107.619 368.536 106.781 370.672 105.143L369.583 102.972C367.839 104.229 365.136 105.105 362.172 105.105C356.244 105.105 352.102 101.791 352.102 96.2293C352.102 90.8203 355.764 86.8969 362.303 86.8969C364.831 86.8969 367.316 87.3159 369.365 88.2682V85.6779C367.447 84.878 365.006 84.3828 362.652 84.3828C353.628 84.3828 348.833 89.8299 348.833 96.3817C348.833 102.972 353.846 107.619 361.693 107.619Z" fill="white"/>
<path d="M401.548 107.238L390.171 84.7637H386.901L375.437 107.238H378.88L381.539 101.943H395.402L398.017 107.238H401.548ZM388.514 88.0396L394.137 99.4291H382.804L388.514 88.0396Z" fill="white"/>
<path d="M429.714 107.238L422.522 98.4768C424.963 96.915 427.012 94.6676 427.012 91.6583C427.012 87.9634 424.091 84.5733 416.463 84.5733C413.934 84.5733 411.711 84.6495 409.444 84.9542V107.238H412.714V99.4291H419.296L425.704 107.238H429.714ZM412.714 87.2016C414.109 87.1254 415.198 87.0873 416.68 87.0873C421.214 87.0873 423.742 88.8776 423.742 91.8488C423.742 94.0581 422.129 95.8484 419.645 96.915H412.714V87.2016Z" fill="white"/>
<path d="M445.194 84.5733C442.884 84.5733 440.66 84.6875 438.176 85.0304V107.047C440.268 107.314 442.448 107.428 444.584 107.428C455.002 107.428 460.756 102.438 460.756 95.3913C460.756 89.1443 455.569 84.5733 445.194 84.5733ZM444.627 104.914C443.537 104.914 442.491 104.876 441.445 104.762V87.2397C442.709 87.1254 443.886 87.0873 445.194 87.0873C453.302 87.0873 457.487 90.287 457.487 95.7722C457.487 101.41 452.866 104.914 444.627 104.914Z" fill="white"/>
<path d="M492.638 107.238L481.26 84.7637H477.991L466.526 107.238H469.97L472.629 101.943H486.491L489.107 107.238H492.638ZM479.604 88.0396L485.227 99.4291H473.893L479.604 88.0396Z" fill="white"/>
<path d="M519.845 102.895L503.76 84.7637H500.534V107.238H503.76V89.1062L519.845 107.238H523.114V84.7637H519.845V102.895Z" fill="white"/>
<path d="M545.486 107.619C553.288 107.619 558.868 102.591 558.868 95.6199C558.868 89.1062 553.55 84.3828 546.183 84.3828C538.424 84.3828 532.8 89.4109 532.8 96.3817C532.8 102.895 538.119 107.619 545.486 107.619ZM545.616 105.105C540.037 105.105 536.07 101.296 536.07 96.0389C536.07 90.7441 540.298 86.8969 546.052 86.8969C551.632 86.8969 555.599 90.706 555.599 95.9627C555.599 101.257 551.37 105.105 545.616 105.105Z" fill="white"/>
</svg>
