<svg width="3328" height="600" viewBox="0 0 599 108" fill="none" xmlns="http://www.w3.org/2000/svg">
<path d="M46.9281 27.2462L22.9557 59.9238L0 27.2462V2.44531L22.7152 34.9613L46.8844 2.44531L71.0535 34.9613L93.7687 2.44531V27.2462L70.813 59.9238L46.9281 27.2462Z" fill="#131313"/>
<path d="M120.361 2.44531V58.7009H104.966V2.44531H120.361Z" fill="#131313"/>
<path d="M146.991 28.5874V58.5824H131.555V2.45483L177.609 34.2002V2.44531H193.134V59.9238L146.991 28.5874Z" fill="#131313"/>
<path d="M238.535 59.9242C217.144 59.9242 201.531 46.0165 201.531 29.9669C201.531 13.9174 216.182 0 239.497 0C249.038 0 256.653 1.62829 265.91 5.89266V18.8699C253.874 13.9174 247.496 12.0857 239.651 12.0857C226.445 12.0857 216.674 20.7113 216.674 29.9281C216.674 38.893 225.427 47.7707 239.41 47.7707C243.507 47.7749 247.589 47.3156 251.555 46.4041V37.6815H232.189V25.9934H265.91V54.5743C257.34 58.119 247.993 59.9457 238.535 59.9242V59.9242Z" fill="#131313"/>
<path d="M301.302 2.44531C319.791 2.44531 332.439 11.5759 332.439 22.9147C332.439 30.1826 327.164 36.6153 318.453 40.3309L333.494 59.9553L335.887 77.0451L320.269 66.676L302.737 43.5088H293.645V59.1488H278.506V2.50297L301.302 2.44531ZM303.216 31.45C312.221 31.45 317.354 27.8976 317.354 22.9147C317.354 17.7494 312.275 14.4562 303.216 14.4562H293.645V31.45H303.216Z" fill="#131313"/>
<path d="M356.881 2.44531V58.7009H341.486V2.44531H356.881Z" fill="#131313"/>
<path d="M387.802 2.44531C411.259 2.44531 425.453 17.0598 425.453 30.5779C425.453 44.096 411.204 58.7009 387.802 58.7009H368.072V2.45486L387.802 2.44531ZM387.802 46.7843C403.148 46.7843 410.82 38.1282 410.82 30.5779C410.82 23.0276 403.29 14.3714 387.802 14.3714H383.363V46.7843H387.802Z" fill="#131313"/>
<path d="M477.241 2.44531L474.407 14.3714H448.786V24.4481H471.563V36.374H448.786V46.7843H477.241V58.7009H433.855V2.45486L477.241 2.44531Z" fill="#131313"/>
<path d="M511.283 2.44531C529.779 2.44531 542.422 11.5759 542.422 22.9147C542.422 30.1826 537.156 36.6153 528.43 40.3309L543.423 59.9553L545.816 77.0451L530.204 66.676L512.665 43.5088H503.559V59.1488H488.436V2.50297L511.283 2.44531ZM513.198 31.45C522.207 31.45 527.288 27.8976 527.288 22.9147C527.288 17.7494 522.207 14.4562 513.198 14.4562H503.559V31.45H513.198Z" fill="#131313"/>
<path d="M571.743 34.4058C562.812 31.0719 551.469 26.8947 551.469 16.1368C551.469 7.3464 559.718 0 572.228 0C580.763 0 588.614 2.64593 595.596 5.89268V18.87C589.881 16.1369 579.309 11.6109 572.712 11.6109C568.737 11.6109 566.799 13.491 566.799 16.1368C566.799 20.2365 572.999 21.855 579.595 24.4137C587.304 27.486 598.999 32.012 598.999 42.3435C598.999 52.2485 588.615 59.9244 575.422 59.9244C565.631 59.9244 557.68 56.7648 550.016 51.7348V37.9919C555.83 41.7426 566.116 48.3136 575.135 48.3136C580.564 48.3136 583.67 45.6678 583.67 42.4986C583.67 39.184 579.893 37.3909 571.743 34.4058Z" fill="#131313"/>
<path d="M82.7393 84.7676H62.0332V87.2817H70.6644V107.242H73.9338V87.2817H82.347L82.7393 84.7676Z" fill="#131313"/>
<path d="M108.817 94.7477H93.691V84.7676H90.4217V107.242H93.691V97.2617H108.817V107.242H112.087V84.7676H108.817V94.7477Z" fill="#131313"/>
<path d="M126.721 97.2617H137.663V94.7477H126.721V87.2817H141.106L140.714 84.7676H123.495V107.242H141.106L141.499 104.728H126.721V97.2617Z" fill="#131313"/>
<path d="M172.268 84.5772C169.958 84.5772 167.734 84.6915 165.25 85.0343V107.051C167.342 107.318 169.522 107.432 171.658 107.432C182.076 107.432 187.83 102.442 187.83 95.3952C187.83 89.1482 182.643 84.5772 172.268 84.5772ZM171.701 104.918C170.611 104.918 169.565 104.88 168.519 104.766V87.2436C169.783 87.1293 170.96 87.0912 172.268 87.0912C180.376 87.0912 184.561 90.2909 184.561 95.7762C184.561 101.414 179.94 104.918 171.701 104.918Z" fill="#131313"/>
<path d="M200.698 97.2617H211.639V94.7477H200.698V87.2817H215.083L214.691 84.7676H197.472V107.242H215.083L215.475 104.728H200.698V97.2617Z" fill="#131313"/>
<path d="M235.607 95.8523L245.546 84.7676H241.666L233.733 93.8335L225.799 84.7676H221.745L231.597 95.8904L221.571 107.242H225.45L233.515 97.9474L241.666 107.242H245.764L235.607 95.8523Z" fill="#131313"/>
<path d="M279.155 107.623C286.958 107.623 292.537 102.595 292.537 95.6238C292.537 89.1101 287.219 84.3867 279.852 84.3867C272.093 84.3867 266.469 89.4148 266.469 96.3856C266.469 102.899 271.788 107.623 279.155 107.623ZM279.285 105.109C273.706 105.109 269.739 101.299 269.739 96.0428C269.739 90.748 273.967 86.9008 279.721 86.9008C285.301 86.9008 289.268 90.71 289.268 95.9666C289.268 101.261 285.039 105.109 279.285 105.109Z" fill="#131313"/>
<path d="M321.534 102.899L305.449 84.7676H302.223V107.242H305.449V89.1101L321.534 107.242H324.804V84.7676H321.534V102.899Z" fill="#131313"/>
<path d="M361.692 107.623C365.048 107.623 368.536 106.785 370.672 105.147L369.582 102.976C367.838 104.233 365.136 105.109 362.171 105.109C356.243 105.109 352.102 101.795 352.102 96.2333C352.102 90.8242 355.763 86.9008 362.302 86.9008C364.83 86.9008 367.315 87.3198 369.364 88.2721V85.6818C367.446 84.8819 365.005 84.3867 362.651 84.3867C353.627 84.3867 348.832 89.8338 348.832 96.3856C348.832 102.976 353.845 107.623 361.692 107.623Z" fill="#131313"/>
<path d="M401.547 107.242L390.17 84.7676H386.9L375.436 107.242H378.88L381.539 101.947H395.401L398.016 107.242H401.547ZM388.513 88.0435L394.137 99.433H382.803L388.513 88.0435Z" fill="#131313"/>
<path d="M429.714 107.242L422.521 98.4807C424.962 96.9189 427.011 94.6715 427.011 91.6622C427.011 87.9673 424.09 84.5772 416.462 84.5772C413.934 84.5772 411.71 84.6534 409.444 84.9581V107.242H412.713V99.433H419.295L425.703 107.242H429.714ZM412.713 87.2055C414.108 87.1293 415.198 87.0912 416.68 87.0912C421.213 87.0912 423.742 88.8815 423.742 91.8527C423.742 94.062 422.129 95.8523 419.644 96.9189H412.713V87.2055Z" fill="#131313"/>
<path d="M445.193 84.5772C442.883 84.5772 440.66 84.6915 438.175 85.0343V107.051C440.267 107.318 442.447 107.432 444.583 107.432C455.001 107.432 460.755 102.442 460.755 95.3952C460.755 89.1482 455.568 84.5772 445.193 84.5772ZM444.627 104.918C443.537 104.918 442.491 104.88 441.444 104.766V87.2436C442.708 87.1293 443.885 87.0912 445.193 87.0912C453.301 87.0912 457.486 90.2909 457.486 95.7762C457.486 101.414 452.865 104.918 444.627 104.918Z" fill="#131313"/>
<path d="M492.637 107.242L481.26 84.7676H477.99L466.526 107.242H469.969L472.628 101.947H486.491L489.106 107.242H492.637ZM479.603 88.0435L485.227 99.433H473.893L479.603 88.0435Z" fill="#131313"/>
<path d="M519.844 102.899L503.759 84.7676H500.533V107.242H503.759V89.1101L519.844 107.242H523.114V84.7676H519.844V102.899Z" fill="#131313"/>
<path d="M545.485 107.623C553.288 107.623 558.868 102.595 558.868 95.6238C558.868 89.1101 553.549 84.3867 546.182 84.3867C538.423 84.3867 532.8 89.4148 532.8 96.3856C532.8 102.899 538.118 107.623 545.485 107.623ZM545.616 105.109C540.036 105.109 536.069 101.299 536.069 96.0428C536.069 90.748 540.298 86.9008 546.052 86.9008C551.631 86.9008 555.598 90.71 555.598 95.9666C555.598 101.261 551.37 105.109 545.616 105.109Z" fill="#131313"/>
</svg>
