<svg width="216" height="30" viewBox="0 0 216 30" fill="none" xmlns="http://www.w3.org/2000/svg">
<g id="GradientHorizontal">
<g id="ribbon mark">
<path id="Vector" d="M8.05663 21.4691C6.30392 20.4975 6.23724 14.0582 8.3043 8.23806C8.3043 8.23806 2.75088 7.72368 0.655252 14.4487C-0.735483 18.9067 0.274229 22.9932 1.94121 26.1938C4.38928 31.1471 7.18028 24.584 8.05663 21.4691Z" fill="url(#paint0_linear_213_473)"/>
<path id="Vector_2" d="M31.4802 19.6783C35.9382 3.92303 37.9195 0.09375 37.9195 0.09375C26.7174 2.29416 24.7552 7.95236 22.3452 15.649C21.907 17.0493 20.8211 20.4023 19.8495 23.3743C19.7828 23.5838 19.7161 23.7934 19.6399 24.003C18.5635 26.8511 15.963 26.9559 15.0391 25.6223C15.5153 26.7178 16.8966 28.3085 18.1349 28.9277C22.7167 31.3377 28.8607 29.6707 31.4707 19.6688L31.4802 19.6783Z" fill="url(#paint1_linear_213_473)"/>
<path id="Vector_3" d="M19.4013 12.8579C18.7345 14.9726 17.982 17.4969 17.1533 20.4498C16.6103 22.4121 15.8483 24.0505 14.9434 25.4031C14.9434 25.4031 15.1434 25.8413 15.3149 26.1366C15.9531 27.2415 18.5917 26.851 19.6585 24.0219C19.7252 23.8123 19.7919 23.6028 19.8681 23.3932C20.0872 22.7359 20.3063 22.0596 20.5254 21.3833C19.0775 19.5925 18.5726 16.3538 19.4109 12.8674L19.4013 12.8579Z" fill="#200050"/>
<path id="Vector_4" d="M17.1534 20.4405C20.2016 9.52416 22.3258 4.45654 22.3258 4.45654C12.886 5.89491 11.3428 10.4767 9.29484 16.9541C6.91344 26.4987 4.46536 28.9278 2.12207 26.5273C3.26514 28.442 4.82734 29.185 5.43697 29.4231C9.78064 31.1472 14.9721 28.261 17.1439 20.4405H17.1534Z" fill="url(#paint2_linear_213_473)"/>
</g>
<path id="WM" d="M60.581 15.7346L59.6665 19.1638L57.1708 12.0863H55.6181L53.2272 19.1638L52.2747 15.7251L50.9506 12.0863H48.293L52.2556 22.7168H54.1988L56.4088 16.7729L58.6854 22.7168H60.6286L64.4865 12.0863H61.8288L60.5714 15.7346H60.581ZM101.951 12.0863H99.5787V22.7359H107.275V20.5545H101.951V12.0768V12.0863ZM73.4691 11.8291C70.0589 11.8291 67.7252 13.9438 67.7252 17.4111C67.7252 20.8784 70.0685 22.9931 73.4691 22.9931C76.8697 22.9931 79.213 20.8784 79.213 17.4111C79.213 13.9438 76.8697 11.8291 73.4691 11.8291ZM73.4691 20.8498C71.4497 20.8498 70.0494 19.4019 70.0494 17.4111C70.0494 15.4202 71.4497 13.9533 73.4691 13.9533C75.4885 13.9533 76.8888 15.4583 76.8888 17.4111C76.8888 19.3924 75.5361 20.8498 73.4691 20.8498ZM93.4347 15.6774C93.4347 13.8104 92.063 12.0863 89.5006 12.0863H84.4521V22.7359H86.824V19.24H88.5386L91.2534 22.7359H93.8824V22.5549L90.9676 19.0209C93.0061 18.2874 93.4157 17.0586 93.4347 15.6774ZM89.5292 17.2301H86.824V14.1248H89.5006C90.6056 14.1248 91.0819 15.0106 91.0914 15.7346C91.0914 16.4014 90.6151 17.2301 89.5292 17.2301ZM197.054 12.0863H194.682V22.7359H202.369V20.5545H197.054V12.0768V12.0863ZM210.228 20.545V18.3922H215.477V16.3061H210.228V14.2486H215.791V12.0672H207.904V22.7168H216V20.526H210.228V20.545ZM185.633 22.7359H187.986V12.0863H185.633V22.7359ZM178.212 17.1539C179.232 16.6871 179.622 15.8584 179.622 14.9725C179.622 13.0007 177.946 12.0863 175.926 12.0863H170.678V22.7359H176.012C178.136 22.7359 179.565 21.9548 179.889 20.2402C180.118 19.0114 179.556 17.6397 178.203 17.1539H178.212ZM173.011 14.1438H175.926C176.822 14.1438 177.279 14.601 177.279 15.2202C177.279 15.8394 176.822 16.2299 175.898 16.2299H173.011V14.1438ZM175.926 20.6688H173.011V18.2017H175.898C176.946 18.2017 177.488 18.7066 177.488 19.4496C177.488 20.1926 176.984 20.6688 175.917 20.6688H175.926ZM141.863 16.1918L138.757 12.0958H136.043V22.7454H138.415V15.3059L141.587 19.4781H142.015L145.302 15.3345V22.7454H147.673V12.0958H144.987L141.872 16.1918H141.863ZM159.276 11.8291C155.865 11.8291 153.532 13.9438 153.532 17.4111C153.532 20.8784 155.875 22.9931 159.276 22.9931C162.676 22.9931 165.019 20.8784 165.019 17.4111C165.019 13.9438 162.676 11.8291 159.276 11.8291ZM159.276 20.8498C157.256 20.8498 155.856 19.4019 155.856 17.4111C155.856 15.4202 157.256 13.9533 159.276 13.9533C161.295 13.9533 162.695 15.4583 162.695 17.4111C162.695 19.3924 161.343 20.8498 159.276 20.8498ZM117.144 12.0863H112.781V22.7359H117.144C120.868 22.7359 122.431 20.1164 122.431 17.3349C122.431 14.5534 120.802 12.0863 117.144 12.0863ZM117.144 20.545H115.124V14.2295H117.144C119.363 14.2295 120.087 15.7632 120.087 17.3063C120.087 18.8495 119.449 20.545 117.144 20.545Z" fill="#5A2FBA"/>
</g>
<defs>
<linearGradient id="paint0_linear_213_473" x1="-0.125846" y1="-4.74531" x2="7.72324" y2="30.1755" gradientUnits="userSpaceOnUse">
<stop stop-color="#FFAF5B"/>
<stop offset="1" stop-color="#F6642D"/>
</linearGradient>
<linearGradient id="paint1_linear_213_473" x1="29.737" y1="7.3713" x2="17.2966" y2="37.3769" gradientUnits="userSpaceOnUse">
<stop stop-color="#5A2FBA"/>
<stop offset="1" stop-color="#2F0C6A"/>
</linearGradient>
<linearGradient id="paint2_linear_213_473" x1="18.4203" y1="-4.3451" x2="8.15176" y2="28.5086" gradientUnits="userSpaceOnUse">
<stop stop-color="#F6642D"/>
<stop offset="1" stop-color="#D42E58"/>
</linearGradient>
</defs>
</svg>
