<svg xmlns="http://www.w3.org/2000/svg" xmlns:xlink="http://www.w3.org/1999/xlink" width="68" height="58">
  <defs>
    <path id="a" d="M0 0h3.4v3.412H0z"/>
    <path id="c" d="M0 0h3.4v3.412H0z"/>
    <path id="e" d="M0 0h3.4v3.412H0z"/>
    <path id="g" d="M0 0h3.4v3.412H0z"/>
    <path id="i" d="M0 0h3.4v3.412H0z"/>
    <path id="k" d="M0 0h3.4v3.412H0z"/>
    <path id="m" d="M0 0h3.4v3.412H0z"/>
    <path id="o" d="M0 0h3.4v3.412H0z"/>
    <path id="q" d="M0 0h3.4v3.412H0z"/>
    <path id="s" d="M0 0h3.4v3.412H0z"/>
    <path id="u" d="M0 0h3.4v3.412H0z"/>
    <path id="w" d="M0 0h3.4v3.412H0z"/>
    <path id="y" d="M0 0h3.4v3.412H0z"/>
    <path id="A" d="M0 0h3.4v3.412H0z"/>
  </defs>
  <g fill="none" fill-rule="evenodd">
    <path fill="#0033AD" d="M44.85 47.765h-30.2l1.7-3.412H42.5c.644 0 1.232-.365 1.52-.943l2.93-5.88h3l-5.1 10.235zM9.55 30.706h3L5.1 45.656l-1.5-3.009 5.95-11.94zm5.75 2.109l1.5 3.009-5.95 11.941h-3l7.45-14.95zm12.55 8.126h-9.8l1.7-3.411h9.8l-1.7 3.411zm26.296-6.014a1.7 1.7 0 00-1.446-.81h-6.8c-.644 0-1.233.366-1.52.944l-2.93 5.88h-9.8l2.17-4.354a1.71 1.71 0 00-.074-1.66 1.7 1.7 0 00-1.446-.81H19.75l-2.93-5.88c-.005-.01-.012-.017-.018-.026a1.626 1.626 0 00-.238-.346c-.018-.02-.039-.038-.058-.057a1.561 1.561 0 00-.261-.216 1.465 1.465 0 00-.102-.066c-.029-.016-.053-.037-.083-.051a1.598 1.598 0 00-.258-.1c-.014-.005-.027-.011-.042-.015a1.625 1.625 0 00-.43-.062c-.01 0-.019-.004-.03-.004H8.5c-.644 0-1.233.365-1.52.943L.18 41.884c-.24.48-.24 1.046 0 1.526l3.4 6.824c.004.01.013.017.017.026.066.125.144.241.239.347.018.02.039.037.058.055.079.08.166.154.262.217.034.024.066.046.102.066.028.016.052.037.082.052.063.032.13.047.194.07.045.016.087.037.133.048.143.04.288.062.432.062H45.9c.644 0 1.232-.365 1.52-.943l6.8-13.647a1.71 1.71 0 00-.074-1.66zM33.35 10.236h4.7l1.7 3.411h-8.1l1.7-3.411zM35.7 5.52l.65 1.303h-1.3l.65-1.303zM22.1 17.059h4.05l-2.17 4.355c-.42.843-.08 1.867.76 2.288.839.422 1.86.08 2.28-.762l2.93-5.88h11.5l2.93 5.88a1.699 1.699 0 002.281.763 1.71 1.71 0 00.76-2.29l-2.17-4.354H49.3c.94 0 1.7-.763 1.7-1.706 0-.942-.76-1.706-1.7-1.706h-5.75l-1.7-3.411h4.05c.94 0 1.7-.764 1.7-1.706 0-.943-.76-1.706-1.7-1.706h-5.75L37.22.944a1.695 1.695 0 00-3.04-.001l-2.93 5.88H25.5c-.94 0-1.7.764-1.7 1.707 0 .942.76 1.706 1.7 1.706h4.05l-1.7 3.411H22.1c-.94 0-1.7.764-1.7 1.706 0 .943.76 1.706 1.7 1.706z"/>
    <path fill="#FF5553" d="M1.797.003A1.7 1.7 0 00.003 1.609a1.705 1.705 0 001.6 1.8l.098.003c.9 0 1.645-.707 1.696-1.609A1.7 1.7 0 002.968.57 1.685 1.685 0 001.797.003m6.8 0a1.7 1.7 0 00-1.794 1.606 1.705 1.705 0 001.6 1.8l.098.003c.9 0 1.645-.707 1.696-1.609A1.7 1.7 0 009.768.57 1.685 1.685 0 008.597.003m6.8 0a1.7 1.7 0 00-1.794 1.606 1.705 1.705 0 001.6 1.8l.098.003c.9 0 1.645-.707 1.696-1.609A1.7 1.7 0 0016.568.57a1.685 1.685 0 00-1.171-.567m6.8 0a1.7 1.7 0 00-1.794 1.606 1.705 1.705 0 001.6 1.8l.098.003c.9 0 1.645-.707 1.696-1.609A1.7 1.7 0 0023.368.57a1.685 1.685 0 00-1.171-.567m6.8 0a1.7 1.7 0 00-1.794 1.606 1.705 1.705 0 001.6 1.8l.098.003c.9 0 1.645-.707 1.696-1.609A1.7 1.7 0 0030.168.57a1.685 1.685 0 00-1.171-.567m13.6 0a1.7 1.7 0 00-1.794 1.606 1.705 1.705 0 001.6 1.8l.098.003c.9 0 1.645-.707 1.696-1.609A1.7 1.7 0 0043.768.57a1.685 1.685 0 00-1.171-.567m6.8 0a1.7 1.7 0 00-1.794 1.606 1.705 1.705 0 001.6 1.8l.098.003c.9 0 1.645-.707 1.696-1.609A1.7 1.7 0 0050.568.57a1.685 1.685 0 00-1.171-.567m6.8 0a1.7 1.7 0 00-1.794 1.606 1.705 1.705 0 001.6 1.8l.098.003c.9 0 1.645-.707 1.696-1.609A1.7 1.7 0 0057.368.57a1.685 1.685 0 00-1.171-.567m6.8 0a1.7 1.7 0 00-1.794 1.606 1.705 1.705 0 001.6 1.8l.098.003c.9 0 1.645-.707 1.696-1.609A1.7 1.7 0 0064.168.57a1.685 1.685 0 00-1.171-.567m-57.8 6.823a1.702 1.702 0 00-1.794 1.607 1.706 1.706 0 001.6 1.8l.098.002c.9 0 1.645-.706 1.696-1.608a1.7 1.7 0 00-1.6-1.801m6.8 0a1.702 1.702 0 00-1.794 1.607 1.706 1.706 0 001.6 1.8l.098.002c.9 0 1.645-.706 1.696-1.608a1.7 1.7 0 00-1.6-1.801m6.8 0a1.702 1.702 0 00-1.794 1.607 1.706 1.706 0 001.6 1.8l.098.002c.9 0 1.645-.706 1.696-1.608a1.7 1.7 0 00-1.6-1.801m34 0a1.702 1.702 0 00-1.794 1.607 1.706 1.706 0 001.6 1.8l.098.002c.9 0 1.645-.706 1.696-1.608a1.7 1.7 0 00-1.6-1.801m6.8 0a1.702 1.702 0 00-1.794 1.607 1.706 1.706 0 001.6 1.8l.098.002c.9 0 1.645-.706 1.696-1.608a1.7 1.7 0 00-1.6-1.801"/>
    <g transform="translate(64.6 6.824)">
      <mask id="b" fill="#fff">
        <use xlink:href="#a"/>
      </mask>
      <path fill="#FF5553" d="M1.797.003A1.7 1.7 0 00.003 1.609a1.705 1.705 0 001.6 1.8l.098.003c.9 0 1.645-.707 1.696-1.609A1.7 1.7 0 002.968.57 1.685 1.685 0 001.797.003" mask="url(#b)"/>
    </g>
    <path fill="#FF5553" d="M1.797 13.65a1.7 1.7 0 00-1.794 1.606 1.705 1.705 0 001.6 1.8l.098.003c.9 0 1.645-.707 1.696-1.609a1.7 1.7 0 00-.429-1.233 1.685 1.685 0 00-1.171-.567m6.8 0a1.7 1.7 0 00-1.794 1.606 1.705 1.705 0 001.6 1.8l.098.003c.9 0 1.645-.707 1.696-1.609a1.7 1.7 0 00-.429-1.233 1.685 1.685 0 00-1.171-.567m6.8 0a1.7 1.7 0 00-1.794 1.606 1.705 1.705 0 001.6 1.8l.098.003c.9 0 1.645-.707 1.696-1.609a1.7 1.7 0 00-.429-1.233 1.685 1.685 0 00-1.171-.567m40.8 0a1.7 1.7 0 00-1.794 1.606 1.705 1.705 0 001.6 1.8l.098.003c.9 0 1.645-.707 1.696-1.609a1.7 1.7 0 00-.429-1.233 1.685 1.685 0 00-1.171-.567m6.8 0a1.7 1.7 0 00-1.794 1.606 1.705 1.705 0 001.6 1.8l.098.003c.9 0 1.645-.707 1.696-1.609a1.7 1.7 0 00-.429-1.233 1.685 1.685 0 00-1.171-.567m-57.8 6.824a1.7 1.7 0 00-1.794 1.606 1.706 1.706 0 001.6 1.8l.098.003c.9 0 1.645-.707 1.696-1.61a1.696 1.696 0 00-.429-1.232 1.68 1.68 0 00-1.171-.567m6.8 0a1.7 1.7 0 00-1.794 1.606 1.706 1.706 0 001.6 1.8l.098.003c.9 0 1.645-.707 1.696-1.61a1.696 1.696 0 00-.429-1.232 1.68 1.68 0 00-1.171-.567m6.8 0a1.7 1.7 0 00-1.794 1.606 1.706 1.706 0 001.6 1.8l.098.003c.9 0 1.645-.707 1.696-1.61a1.696 1.696 0 00-.429-1.232 1.68 1.68 0 00-1.171-.567m13.6 0a1.7 1.7 0 00-1.794 1.606 1.706 1.706 0 001.6 1.8l.098.003c.9 0 1.645-.707 1.696-1.61a1.696 1.696 0 00-.429-1.232 1.68 1.68 0 00-1.171-.567m6.8 0a1.7 1.7 0 00-1.794 1.606 1.706 1.706 0 001.6 1.8l.098.003c.9 0 1.645-.707 1.696-1.61a1.696 1.696 0 00-.429-1.232 1.68 1.68 0 00-1.171-.567m13.6 0a1.7 1.7 0 00-1.794 1.606 1.706 1.706 0 001.6 1.8l.098.003c.9 0 1.645-.707 1.696-1.61a1.696 1.696 0 00-.429-1.232 1.68 1.68 0 00-1.171-.567m6.8 0a1.7 1.7 0 00-1.794 1.606 1.706 1.706 0 001.6 1.8l.098.003c.9 0 1.645-.707 1.696-1.61a1.696 1.696 0 00-.429-1.232 1.68 1.68 0 00-1.171-.567"/>
    <g transform="translate(64.6 20.47)">
      <mask id="d" fill="#fff">
        <use xlink:href="#c"/>
      </mask>
      <path fill="#FF5553" d="M1.797.003A1.7 1.7 0 00.003 1.609a1.705 1.705 0 001.6 1.8l.098.003c.9 0 1.645-.707 1.696-1.609A1.7 1.7 0 002.968.57 1.685 1.685 0 001.797.003" mask="url(#d)"/>
    </g>
    <path fill="#FF5553" d="M1.797 27.297a1.7 1.7 0 00-1.794 1.606 1.705 1.705 0 001.6 1.8l.098.003c.9 0 1.645-.707 1.696-1.609a1.7 1.7 0 00-.429-1.233 1.685 1.685 0 00-1.171-.567m20.4 0a1.7 1.7 0 00-1.794 1.606 1.705 1.705 0 001.6 1.8l.098.003c.9 0 1.645-.707 1.696-1.609a1.7 1.7 0 00-.429-1.233 1.685 1.685 0 00-1.171-.567m6.8 0a1.7 1.7 0 00-1.794 1.606 1.705 1.705 0 001.6 1.8l.098.003c.9 0 1.645-.707 1.696-1.609a1.7 1.7 0 00-.429-1.233 1.685 1.685 0 00-1.171-.567m6.8 0a1.7 1.7 0 00-1.794 1.606 1.705 1.705 0 001.6 1.8l.098.003c.9 0 1.645-.707 1.696-1.609a1.7 1.7 0 00-.429-1.233 1.685 1.685 0 00-1.171-.567m6.8 0a1.7 1.7 0 00-1.794 1.606 1.705 1.705 0 001.6 1.8l.098.003c.9 0 1.645-.707 1.696-1.609a1.7 1.7 0 00-.429-1.233 1.685 1.685 0 00-1.171-.567m6.8 0a1.7 1.7 0 00-1.794 1.606 1.705 1.705 0 001.6 1.8l.098.003c.9 0 1.645-.707 1.696-1.609a1.7 1.7 0 00-.429-1.233 1.685 1.685 0 00-1.171-.567m6.8 0a1.7 1.7 0 00-1.794 1.606 1.705 1.705 0 001.6 1.8l.098.003c.9 0 1.645-.707 1.696-1.609a1.7 1.7 0 00-.429-1.233 1.685 1.685 0 00-1.171-.567m6.8 0a1.7 1.7 0 00-1.794 1.606 1.705 1.705 0 001.6 1.8l.098.003c.9 0 1.645-.707 1.696-1.609a1.7 1.7 0 00-.429-1.233 1.685 1.685 0 00-1.171-.567m-23.8 6.823a1.702 1.702 0 00-1.794 1.607 1.706 1.706 0 001.6 1.8l.098.003c.9 0 1.645-.707 1.696-1.61a1.696 1.696 0 00-.429-1.232 1.685 1.685 0 00-1.171-.567m20.4-.001a1.702 1.702 0 00-1.794 1.607 1.706 1.706 0 001.6 1.8l.098.003c.9 0 1.645-.707 1.696-1.61a1.696 1.696 0 00-.429-1.232 1.685 1.685 0 00-1.171-.567"/>
    <g transform="translate(64.6 34.118)">
      <mask id="f" fill="#fff">
        <use xlink:href="#e"/>
      </mask>
      <path fill="#FF5553" d="M1.797.003A1.7 1.7 0 00.003 1.609a1.705 1.705 0 001.6 1.8l.098.003c.9 0 1.645-.707 1.696-1.609A1.7 1.7 0 002.968.57 1.685 1.685 0 001.797.003" mask="url(#f)"/>
    </g>
    <path fill="#FF5553" d="M56.197 40.944a1.701 1.701 0 00-1.794 1.606 1.704 1.704 0 001.6 1.8l.098.003c.9 0 1.645-.707 1.696-1.609a1.7 1.7 0 00-.429-1.233 1.685 1.685 0 00-1.171-.567m6.8 0a1.701 1.701 0 00-1.794 1.606 1.704 1.704 0 001.6 1.8l.098.003c.9 0 1.645-.707 1.696-1.609a1.7 1.7 0 00-.429-1.233 1.685 1.685 0 00-1.171-.567m-10.2 6.824a1.7 1.7 0 00-1.794 1.606 1.706 1.706 0 001.6 1.8l.098.003c.9 0 1.645-.707 1.696-1.61a1.697 1.697 0 00-.429-1.232 1.685 1.685 0 00-1.171-.567m6.8 0a1.7 1.7 0 00-1.794 1.606 1.706 1.706 0 001.6 1.8l.098.003c.9 0 1.645-.707 1.696-1.61a1.697 1.697 0 00-.429-1.232 1.685 1.685 0 00-1.171-.567"/>
    <g transform="translate(64.6 47.765)">
      <mask id="h" fill="#fff">
        <use xlink:href="#g"/>
      </mask>
      <path fill="#FF5553" d="M1.797.003A1.7 1.7 0 00.003 1.609a1.705 1.705 0 001.6 1.8l.098.003c.9 0 1.645-.707 1.696-1.609A1.7 1.7 0 002.968.57 1.685 1.685 0 001.797.003" mask="url(#h)"/>
    </g>
    <g transform="translate(0 54.588)">
      <mask id="j" fill="#fff">
        <use xlink:href="#i"/>
      </mask>
      <path fill="#FF5553" d="M1.797.003A1.7 1.7 0 00.003 1.609a1.705 1.705 0 001.6 1.8l.098.003c.9 0 1.645-.707 1.696-1.609A1.7 1.7 0 002.968.57 1.685 1.685 0 001.797.003" mask="url(#j)"/>
    </g>
    <g transform="translate(6.8 54.588)">
      <mask id="l" fill="#fff">
        <use xlink:href="#k"/>
      </mask>
      <path fill="#FF5553" d="M1.797.003A1.7 1.7 0 00.003 1.609a1.705 1.705 0 001.6 1.8l.098.003c.9 0 1.645-.707 1.696-1.609A1.7 1.7 0 002.968.57 1.685 1.685 0 001.797.003" mask="url(#l)"/>
    </g>
    <g transform="translate(13.6 54.588)">
      <mask id="n" fill="#fff">
        <use xlink:href="#m"/>
      </mask>
      <path fill="#FF5553" d="M1.797.003A1.7 1.7 0 00.003 1.609a1.705 1.705 0 001.6 1.8l.098.003c.9 0 1.645-.707 1.696-1.609A1.7 1.7 0 002.968.57 1.685 1.685 0 001.797.003" mask="url(#n)"/>
    </g>
    <g transform="translate(20.4 54.588)">
      <mask id="p" fill="#fff">
        <use xlink:href="#o"/>
      </mask>
      <path fill="#FF5553" d="M1.797.003A1.7 1.7 0 00.003 1.609a1.705 1.705 0 001.6 1.8l.098.003c.9 0 1.645-.707 1.696-1.609A1.7 1.7 0 002.968.57 1.685 1.685 0 001.797.003" mask="url(#p)"/>
    </g>
    <g transform="translate(27.2 54.588)">
      <mask id="r" fill="#fff">
        <use xlink:href="#q"/>
      </mask>
      <path fill="#FF5553" d="M1.797.003A1.7 1.7 0 00.003 1.609a1.705 1.705 0 001.6 1.8l.098.003c.9 0 1.645-.707 1.696-1.609A1.7 1.7 0 002.968.57 1.685 1.685 0 001.797.003" mask="url(#r)"/>
    </g>
    <g transform="translate(34 54.588)">
      <mask id="t" fill="#fff">
        <use xlink:href="#s"/>
      </mask>
      <path fill="#FF5553" d="M1.797.003A1.7 1.7 0 00.003 1.609a1.705 1.705 0 001.6 1.8l.098.003c.9 0 1.645-.707 1.696-1.609A1.7 1.7 0 002.968.57 1.685 1.685 0 001.797.003" mask="url(#t)"/>
    </g>
    <g transform="translate(40.8 54.588)">
      <mask id="v" fill="#fff">
        <use xlink:href="#u"/>
      </mask>
      <path fill="#FF5553" d="M1.797.003A1.7 1.7 0 00.003 1.609a1.705 1.705 0 001.6 1.8l.098.003c.9 0 1.645-.707 1.696-1.609A1.7 1.7 0 002.968.57 1.685 1.685 0 001.797.003" mask="url(#v)"/>
    </g>
    <g transform="translate(47.6 54.588)">
      <mask id="x" fill="#fff">
        <use xlink:href="#w"/>
      </mask>
      <path fill="#FF5553" d="M1.797.003A1.7 1.7 0 00.003 1.609a1.705 1.705 0 001.6 1.8l.098.003c.9 0 1.645-.707 1.696-1.609A1.7 1.7 0 002.968.57 1.685 1.685 0 001.797.003" mask="url(#x)"/>
    </g>
    <g transform="translate(54.4 54.588)">
      <mask id="z" fill="#fff">
        <use xlink:href="#y"/>
      </mask>
      <path fill="#FF5553" d="M1.797.003A1.7 1.7 0 00.003 1.609a1.705 1.705 0 001.6 1.8l.098.003c.9 0 1.645-.707 1.696-1.609A1.7 1.7 0 002.968.57 1.685 1.685 0 001.797.003" mask="url(#z)"/>
    </g>
    <g transform="translate(61.2 54.588)">
      <mask id="B" fill="#fff">
        <use xlink:href="#A"/>
      </mask>
      <path fill="#FF5553" d="M1.797.003A1.7 1.7 0 00.003 1.609a1.705 1.705 0 001.6 1.8l.098.003c.9 0 1.645-.707 1.696-1.609A1.7 1.7 0 002.968.57 1.685 1.685 0 001.797.003" mask="url(#B)"/>
    </g>
  </g>
</svg>
