<svg xmlns="http://www.w3.org/2000/svg" viewBox="0 0 68 61">
  <g fill="none" fill-rule="evenodd">
    <path fill="#0033AD" d="M3.579 57.412V39.47H30.42c.475 0 .93-.19 1.266-.526l6.634-6.65h26.1v25.117H3.58zm0-53.824H64.42v25.118H37.58c-.475 0-.93.19-1.266.525l-6.634 6.651H3.58V3.588zM66.21 0H1.789C.801 0 0 .803 0 1.794v57.412C0 60.197.801 61 1.79 61h64.42c.989 0 1.79-.803 1.79-1.794V1.794C68 .803 67.199 0 66.21 0z"/>
    <path fill="#0033AD" d="M9.05 7.18a1.792 1.792 0 00-1.89 1.689c-.055.987.7 1.837 1.686 1.893l.102.003c.948 0 1.732-.743 1.786-1.692a1.787 1.787 0 00-.452-1.297 1.769 1.769 0 00-1.233-.597m7.158.001a1.795 1.795 0 00-.203 3.582l.102.003c.948 0 1.732-.743 1.786-1.692a1.787 1.787 0 00-.452-1.297 1.772 1.772 0 00-1.233-.597m7.158.001a1.794 1.794 0 00-.203 3.582l.102.003a1.793 1.793 0 001.334-2.989 1.772 1.772 0 00-1.233-.597m7.158.001a1.794 1.794 0 00-.204 3.582l.103.003a1.793 1.793 0 001.334-2.989 1.772 1.772 0 00-1.233-.597m7.157.001a1.791 1.791 0 00-1.888 1.689c-.055.987.7 1.837 1.685 1.893l.103.003a1.793 1.793 0 001.334-2.989 1.772 1.772 0 00-1.233-.597m7.158.001a1.795 1.795 0 00-.204 3.582l.103.003a1.793 1.793 0 001.334-2.989 1.772 1.772 0 00-1.233-.597m7.157.001a1.795 1.795 0 00-.203 3.582l.103.003c.947 0 1.731-.743 1.785-1.692a1.782 1.782 0 00-.451-1.297 1.773 1.773 0 00-1.234-.597m7.158.001a1.795 1.795 0 00-.203 3.582l.102.003c.948 0 1.732-.743 1.786-1.692a1.786 1.786 0 00-.451-1.297 1.773 1.773 0 00-1.234-.597M9.05 14.356a1.795 1.795 0 00-.204 3.582l.102.003a1.792 1.792 0 001.334-2.988 1.769 1.769 0 00-1.233-.597m7.158 0a1.794 1.794 0 00-.203 3.582l.102.003a1.792 1.792 0 001.334-2.988 1.772 1.772 0 00-1.233-.597m7.158 0a1.79 1.79 0 00-1.888 1.69 1.793 1.793 0 001.685 1.892l.102.003a1.792 1.792 0 001.334-2.988 1.772 1.772 0 00-1.233-.597m7.158 0a1.79 1.79 0 00-1.888 1.69 1.793 1.793 0 001.684 1.892l.103.003a1.792 1.792 0 001.334-2.988 1.772 1.772 0 00-1.233-.597m7.157 0a1.795 1.795 0 00-.203 3.582l.103.003a1.793 1.793 0 001.334-2.988 1.772 1.772 0 00-1.233-.597m7.158 0a1.794 1.794 0 00-.204 3.582l.103.003a1.793 1.793 0 001.334-2.988 1.772 1.772 0 00-1.233-.597m7.157 0a1.794 1.794 0 00-.203 3.582l.103.003c.947 0 1.731-.743 1.785-1.691a1.78 1.78 0 00-.451-1.297 1.773 1.773 0 00-1.234-.597m7.158 0a1.794 1.794 0 00-.203 3.582l.102.003c.948 0 1.732-.743 1.786-1.691.028-.48-.134-.94-.451-1.297a1.773 1.773 0 00-1.234-.597M9.05 21.532a1.796 1.796 0 00-.204 3.583l.102.003c.948 0 1.732-.743 1.786-1.692a1.787 1.787 0 00-.452-1.297 1.769 1.769 0 00-1.233-.597m7.158 0a1.795 1.795 0 00-.203 3.583l.102.003c.948 0 1.732-.743 1.786-1.692a1.787 1.787 0 00-.452-1.297 1.772 1.772 0 00-1.233-.597m7.158 0a1.794 1.794 0 00-.203 3.583l.102.003a1.793 1.793 0 001.334-2.989 1.772 1.772 0 00-1.233-.597m7.158 0a1.79 1.79 0 00-1.888 1.69 1.794 1.794 0 001.684 1.893l.103.003a1.793 1.793 0 001.334-2.989 1.772 1.772 0 00-1.233-.597m7.157 0a1.795 1.795 0 00-.203 3.583l.103.003a1.793 1.793 0 001.334-2.989 1.772 1.772 0 00-1.233-.597m7.158 0a1.795 1.795 0 00-.204 3.583l.103.003a1.793 1.793 0 001.334-2.989 1.772 1.772 0 00-1.233-.597m7.157 0a1.795 1.795 0 00-.203 3.583l.103.003c.947 0 1.731-.743 1.785-1.692a1.782 1.782 0 00-.451-1.297 1.773 1.773 0 00-1.234-.597m7.158 0a1.795 1.795 0 00-.203 3.583l.102.003c.948 0 1.732-.743 1.786-1.692a1.786 1.786 0 00-.451-1.297 1.773 1.773 0 00-1.234-.597M9.05 28.709a1.795 1.795 0 00-.204 3.582l.102.003a1.792 1.792 0 001.334-2.988 1.769 1.769 0 00-1.233-.597m7.158 0a1.794 1.794 0 00-.203 3.582l.102.003a1.792 1.792 0 001.334-2.988 1.772 1.772 0 00-1.233-.597m7.158 0a1.79 1.79 0 00-1.888 1.689 1.794 1.794 0 001.685 1.893l.102.003a1.792 1.792 0 001.334-2.988 1.772 1.772 0 00-1.233-.597m7.158 0a1.79 1.79 0 00-1.888 1.689 1.793 1.793 0 001.684 1.893l.103.003a1.792 1.792 0 001.334-2.988 1.772 1.772 0 00-1.233-.597"/>
    <path fill="#FF5553" d="M37.68 35.885a1.795 1.795 0 00-.203 3.583l.103.003a1.793 1.793 0 001.334-2.989 1.772 1.772 0 00-1.233-.597m7.158 0a1.795 1.795 0 00-.204 3.583l.103.003a1.793 1.793 0 001.334-2.989 1.772 1.772 0 00-1.233-.597m7.157 0a1.795 1.795 0 00-.203 3.583l.103.003c.947 0 1.731-.743 1.785-1.692a1.782 1.782 0 00-.451-1.297 1.773 1.773 0 00-1.234-.597m7.158 0a1.795 1.795 0 00-.203 3.583l.102.003c.948 0 1.732-.743 1.786-1.692a1.786 1.786 0 00-.451-1.297 1.773 1.773 0 00-1.234-.597M9.05 43.062a1.792 1.792 0 00-1.89 1.689c-.055.987.7 1.837 1.686 1.893l.102.003a1.792 1.792 0 001.334-2.988 1.769 1.769 0 00-1.233-.597m7.158 0a1.795 1.795 0 00-.203 3.582l.102.003a1.792 1.792 0 001.334-2.988 1.772 1.772 0 00-1.233-.597m7.158 0a1.794 1.794 0 00-.203 3.582l.102.003a1.793 1.793 0 001.334-2.988 1.772 1.772 0 00-1.233-.597m7.158 0a1.794 1.794 0 00-.204 3.582l.103.003a1.793 1.793 0 001.334-2.988 1.772 1.772 0 00-1.233-.597m7.157 0a1.792 1.792 0 00-1.888 1.689c-.055.987.7 1.837 1.685 1.893l.103.003a1.793 1.793 0 001.334-2.988 1.772 1.772 0 00-1.233-.597m7.158 0a1.795 1.795 0 00-.204 3.582l.103.003a1.793 1.793 0 001.334-2.988 1.772 1.772 0 00-1.233-.597m7.157 0a1.795 1.795 0 00-.203 3.582l.103.003c.947 0 1.731-.743 1.785-1.692a1.78 1.78 0 00-.451-1.296 1.773 1.773 0 00-1.234-.597m7.158 0a1.795 1.795 0 00-.203 3.582l.102.003c.948 0 1.732-.743 1.786-1.692a1.784 1.784 0 00-.451-1.296 1.773 1.773 0 00-1.234-.597M9.05 50.238a1.796 1.796 0 00-.204 3.583c.034.002.069.002.102.002.948 0 1.732-.742 1.786-1.691a1.787 1.787 0 00-.452-1.297 1.769 1.769 0 00-1.233-.597m7.158 0a1.795 1.795 0 00-.203 3.583c.034.002.068.002.102.002.948 0 1.732-.742 1.786-1.691a1.787 1.787 0 00-.452-1.297 1.772 1.772 0 00-1.233-.597m7.158 0a1.794 1.794 0 00-.203 3.583c.034.002.068.002.102.002a1.792 1.792 0 001.334-2.988 1.772 1.772 0 00-1.233-.597m7.158 0a1.79 1.79 0 00-1.888 1.69 1.794 1.794 0 001.684 1.893c.035.002.07.002.103.002a1.792 1.792 0 001.334-2.988 1.772 1.772 0 00-1.233-.597m7.157 0a1.795 1.795 0 00-.203 3.583c.035.002.07.002.103.002a1.792 1.792 0 001.334-2.988 1.772 1.772 0 00-1.233-.597m7.158 0a1.795 1.795 0 00-.204 3.583c.035.002.069.002.103.002a1.792 1.792 0 001.334-2.988 1.772 1.772 0 00-1.233-.597m7.157 0a1.795 1.795 0 00-.203 3.583c.035.002.069.002.103.002a1.79 1.79 0 001.785-1.691 1.782 1.782 0 00-.451-1.297 1.773 1.773 0 00-1.234-.597m7.158 0a1.795 1.795 0 00-.203 3.583c.034.002.069.002.102.002.948 0 1.732-.742 1.786-1.691a1.786 1.786 0 00-.451-1.297 1.773 1.773 0 00-1.234-.597"/>
  </g>
</svg>
