<svg xmlns="http://www.w3.org/2000/svg" viewBox="0 0 120 110">
  <g fill="#FF5553">
    <circle cx="15" cy="15" r="2.5"/>
    <circle cx="25" cy="15" r="2.5"/>
    <circle cx="35" cy="15" r="2.5"/>
    <circle cx="45" cy="15" r="2.5"/>
    <circle cx="55" cy="15" r="2.5"/>
    <circle cx="65" cy="15" r="2.5"/>
    <circle cx="75" cy="15" r="2.5"/>
    <circle cx="85" cy="15" r="2.5"/>
    <circle cx="95" cy="15" r="2.5"/>
    <circle cx="105" cy="15" r="2.5"/>
    <circle cx="45" cy="35" r="2.5"/>
    <circle cx="45" cy="45" r="2.5"/>
    <circle cx="95" cy="45" r="2.5"/>
    <circle cx="45" cy="65" r="2.5"/>
    <circle cx="95" cy="75" r="2.5"/>
    <circle cx="15" cy="95" r="2.5"/>
    <circle cx="25" cy="95" r="2.5"/>
    <circle cx="35" cy="95" r="2.5"/>
    <circle cx="45" cy="95" r="2.5"/>
    <circle cx="55" cy="95" r="2.5"/>
    <circle cx="65" cy="95" r="2.5"/>
    <circle cx="75" cy="95" r="2.5"/>
    <circle cx="85" cy="95" r="2.5"/>
    <circle cx="95" cy="95" r="2.5"/>
    <circle cx="105" cy="95" r="2.5"/>
  </g>
  <g fill="none" stroke="#0033AD" stroke-width="5" stroke-linecap="round" stroke-linejoin="round">
    <rect x="15" y="25" width="90" height="60"/>
    <rect x="55" y="25" width="10" height="60"/>
    <line x1="25" y1="35" x2="35" y2="35"/>
    <line x1="25" y1="45" x2="35" y2="45"/>
    <line x1="25" y1="55" x2="45" y2="55"/>
    <line x1="25" y1="65" x2="35" y2="65"/>
    <line x1="25" y1="75" x2="45" y2="75"/>
    <line x1="75" y1="75" x2="85" y2="75"/>
    <line x1="75" y1="65" x2="95" y2="65"/>
    <line x1="75" y1="55" x2="95" y2="55"/>
    <line x1="75" y1="45" x2="85" y2="45"/>
    <line x1="75" y1="35" x2="95" y2="35"/>
  </g>
</svg>
