<svg xmlns="http://www.w3.org/2000/svg" xmlns:xlink="http://www.w3.org/1999/xlink" viewBox="0 0 68 61">
  <defs>
    <path id="a" d="M0 0h68v61H0z"/>
  </defs>
  <g fill="none" fill-rule="evenodd">
    <mask id="b" fill="#fff">
      <use xlink:href="#a"/>
    </mask>
    <path fill="#0033AD" d="M60.842 57.412h3.58v-3.588h-3.58v3.588zm-50.105 0h3.579v-3.588h-3.58v3.588zm0-53.824H64.42v46.647H10.737V3.588zM66.21 0H8.947c-.988 0-1.79.803-1.79 1.794v12.559H1.79c-.988 0-1.789.803-1.789 1.794s.801 1.794 1.79 1.794h5.368v17.941h-5.37c-.988 0-1.789.803-1.789 1.794 0 .992.801 1.795 1.79 1.795h5.368v19.735c0 .991.8 1.794 1.79 1.794h7.157c.989 0 1.79-.803 1.79-1.794v-5.382h39.368v5.382c0 .991.801 1.794 1.79 1.794h7.158c.988 0 1.789-.803 1.789-1.794V1.794C68 .803 67.199 0 66.21 0z" mask="url(#b)"/>
    <path fill="#0033AD" d="M50.105 13.356v5.636l-2.81-2.817c.826-.814 1.849-1.845 2.81-2.82zm6.422 2.755a211.49 211.49 0 00-2.843 2.842V13.27a708.461 708.461 0 012.843 2.84zm-6.422 7.956v20.786c0 .991.801 1.794 1.79 1.794.988 0 1.79-.803 1.79-1.794V24.06c2.425-2.463 5.9-5.974 6.459-6.49.236-.182.429-.425.552-.711.49-1.137-.006-1.637-1.48-3.125-.672-.677-1.57-1.575-2.47-2.471-1.795-1.788-3.594-3.569-3.594-3.569-.027-.026-.059-.045-.087-.07-.058-.05-.115-.103-.18-.146-.042-.028-.088-.048-.133-.072-.057-.032-.113-.066-.174-.092-.061-.025-.126-.04-.19-.059-.047-.013-.093-.033-.143-.043a1.64 1.64 0 00-.244-.023c-.035-.003-.07-.011-.106-.011h-.017c-.076 0-.15.013-.224.023-.041.006-.084.006-.124.014-.046.01-.089.028-.133.042-.07.02-.139.036-.203.064-.023.01-.043.025-.065.035-.083.04-.165.08-.24.132-.029.02-.053.046-.08.067-.065.05-.13.1-.187.157l-.008.007c-1.999 2.054-6.049 6.179-7.068 7.09a1.796 1.796 0 00-.075 2.608l6.634 6.65zm-32.21-9.714h3.579v-3.588h-3.58v3.588zm-1.79 3.588h7.158c.989 0 1.79-.803 1.79-1.794V8.971c0-.991-.801-1.795-1.79-1.795h-7.158c-.988 0-1.79.804-1.79 1.795v7.176c0 .991.802 1.794 1.79 1.794zm16.105-3.588h3.58v-3.588h-3.58v3.588zm-1.789 3.588h7.158c.988 0 1.79-.803 1.79-1.794V8.971c0-.991-.802-1.795-1.79-1.795H30.42c-.988 0-1.79.804-1.79 1.795v7.176c0 .991.802 1.794 1.79 1.794zm1.789 10.765h3.58v-3.588h-3.58v3.588zm-1.789 3.588h7.158c.988 0 1.79-.803 1.79-1.794v-7.176c0-.992-.802-1.795-1.79-1.795H30.42c-.988 0-1.79.803-1.79 1.795V30.5c0 .991.802 1.794 1.79 1.794zm-12.526-3.588h3.579v-3.588h-3.58v3.588zm-1.79 3.588h7.158c.989 0 1.79-.803 1.79-1.794v-7.176c0-.992-.801-1.795-1.79-1.795h-7.158c-.988 0-1.79.803-1.79 1.795V30.5c0 .991.802 1.794 1.79 1.794zm1.79 10.765h3.579V39.47h-3.58v3.588zm-1.79 3.588h7.158c.989 0 1.79-.803 1.79-1.794v-7.177c0-.99-.801-1.794-1.79-1.794h-7.158c-.988 0-1.79.803-1.79 1.794v7.177c0 .991.802 1.794 1.79 1.794zm16.105-3.588h3.58V39.47h-3.58v3.588zm-1.789 3.588h7.158c.988 0 1.79-.803 1.79-1.794v-7.177c0-.99-.802-1.794-1.79-1.794H30.42c-.988 0-1.79.803-1.79 1.794v7.177c0 .991.802 1.794 1.79 1.794z" mask="url(#b)"/>
    <path fill="#FF5553" d="M1.891.003a1.794 1.794 0 00-.203 3.582l.102.003c.948 0 1.732-.743 1.786-1.691A1.79 1.79 0 001.89.003m.001 7.177A1.788 1.788 0 00.003 8.868c-.056.987.7 1.837 1.685 1.893l.102.003c.948 0 1.732-.743 1.786-1.692a1.79 1.79 0 00-1.685-1.894m42.948.002a1.79 1.79 0 00-1.889 1.689c-.055.987.7 1.837 1.685 1.893l.103.003a1.793 1.793 0 001.334-2.989 1.772 1.772 0 00-1.233-.597m14.315.001a1.795 1.795 0 00-.203 3.582l.102.003c.948 0 1.732-.743 1.786-1.692a1.782 1.782 0 00-.451-1.297 1.773 1.773 0 00-1.234-.597M1.891 21.532a1.795 1.795 0 00-.203 3.583l.102.003c.948 0 1.732-.743 1.786-1.692a1.79 1.79 0 00-1.685-1.894m42.948 0a1.795 1.795 0 00-.204 3.583l.103.003a1.793 1.793 0 001.334-2.989 1.772 1.772 0 00-1.233-.597m14.315 0a1.795 1.795 0 00-.203 3.583l.102.003c.948 0 1.732-.743 1.786-1.692a1.782 1.782 0 00-.451-1.297 1.773 1.773 0 00-1.234-.597M1.891 28.709a1.794 1.794 0 00-.203 3.582l.102.003c.948 0 1.732-.743 1.786-1.691a1.789 1.789 0 00-1.685-1.894m42.948 0a1.795 1.795 0 00-.204 3.582l.103.003a1.793 1.793 0 001.334-2.988 1.772 1.772 0 00-1.233-.597m14.315 0a1.794 1.794 0 00-.203 3.582l.102.003c.948 0 1.732-.743 1.786-1.691a1.78 1.78 0 00-.451-1.297 1.773 1.773 0 00-1.234-.597m-14.315 7.176a1.795 1.795 0 00-.204 3.583l.103.003a1.793 1.793 0 001.334-2.989 1.772 1.772 0 00-1.233-.597m14.315 0a1.795 1.795 0 00-.203 3.583l.102.003c.948 0 1.732-.743 1.786-1.692a1.782 1.782 0 00-.451-1.297 1.773 1.773 0 00-1.234-.597M1.891 43.062A1.79 1.79 0 00.003 44.75c-.056.987.7 1.837 1.685 1.893l.102.003c.948 0 1.732-.743 1.786-1.692a1.788 1.788 0 00-.451-1.296 1.773 1.773 0 00-1.234-.597m42.948.001a1.79 1.79 0 00-1.889 1.689c-.055.987.7 1.837 1.685 1.893l.103.003a1.793 1.793 0 001.334-2.988 1.772 1.772 0 00-1.233-.597m14.315 0a1.795 1.795 0 00-.203 3.582l.102.003c.948 0 1.732-.743 1.786-1.692a1.78 1.78 0 00-.451-1.296 1.773 1.773 0 00-1.234-.597M1.891 50.238a1.795 1.795 0 00-.203 3.583c.034.002.069.002.102.002.948 0 1.732-.742 1.786-1.691a1.79 1.79 0 00-1.685-1.894m0 7.177a1.795 1.795 0 00-.203 3.582L1.79 61c.948 0 1.732-.743 1.786-1.692a1.788 1.788 0 00-.451-1.296 1.773 1.773 0 00-1.234-.597m21.474 0a1.794 1.794 0 00-.203 3.582l.102.003a1.792 1.792 0 001.334-2.988 1.772 1.772 0 00-1.233-.597m7.158 0a1.794 1.794 0 00-.203 3.582l.102.003a1.793 1.793 0 001.334-2.988 1.772 1.772 0 00-1.233-.597m7.157 0a1.792 1.792 0 00-1.888 1.689c-.055.987.7 1.837 1.685 1.893l.103.003a1.793 1.793 0 001.334-2.988 1.772 1.772 0 00-1.233-.597m7.158 0a1.79 1.79 0 00-1.889 1.689c-.055.987.7 1.837 1.685 1.893l.103.003a1.793 1.793 0 001.334-2.988 1.772 1.772 0 00-1.233-.597m7.158 0a1.795 1.795 0 00-.204 3.582l.103.003c.947 0 1.731-.743 1.785-1.692a1.78 1.78 0 00-.451-1.296 1.772 1.772 0 00-1.233-.597" mask="url(#b)"/>
  </g>
</svg>
