<?xml version="1.0" encoding="UTF-8"?>
<svg width="95px" height="85px" viewBox="0 0 95 85" version="1.1" xmlns="http://www.w3.org/2000/svg" xmlns:xlink="http://www.w3.org/1999/xlink">
    <!-- Generator: Sketch 63.1 (92452) - https://sketch.com -->
    <title>icon_opportunity</title>
    <desc>Created with Sketch.</desc>
    <defs>
        <polygon id="path-1" points="0.000444614539 0.000164577992 5 0.000164577992 5 4.9995 0.000444614539 4.9995"></polygon>
        <polygon id="path-3" points="0.000444614539 0.000164577992 5 0.000164577992 5 4.9995 0.000444614539 4.9995"></polygon>
        <polygon id="path-5" points="0.000444614539 0.000164577992 5 0.000164577992 5 4.9995 0.000444614539 4.9995"></polygon>
        <polygon id="path-7" points="0.000444614539 0.000164577992 5 0.000164577992 5 4.9995 0.000444614539 4.9995"></polygon>
        <polygon id="path-9" points="0.000444614539 0.000164577992 5 0.000164577992 5 4.9995 0.000444614539 4.9995"></polygon>
        <polygon id="path-11" points="0.000444614539 0.000164577992 5 0.000164577992 5 4.9995 0.000444614539 4.9995"></polygon>
        <polygon id="path-13" points="0.000444614539 0.000164577992 5 0.000164577992 5 4.9995 0.000444614539 4.9995"></polygon>
        <polygon id="path-15" points="0 0 35 0 35 54.9995 0 54.9995"></polygon>
    </defs>
    <g id="Cardano-Pages" stroke="none" stroke-width="1" fill="none" fill-rule="evenodd">
        <g id="icon_opportunity">
            <path d="M2.6426,0.0048 C1.2576,-0.0762 0.0816,0.9878 0.0046,2.3588 C-0.0744,3.7338 0.9826,4.9178 2.3586,4.9958 C2.4066,4.9988 2.4546,4.9998 2.5016,4.9998 C3.8256,4.9998 4.9206,3.9648 4.9966,2.6428 C5.0346,1.9758 4.8096,1.3338 4.3656,0.8358 C3.9216,0.3378 3.3096,0.0418 2.6426,0.0048" id="Fill-1" fill="#FF5553"></path>
            <path d="M12.6426,0.0048 C11.2576,-0.0762 10.0816,0.9878 10.0046,2.3588 C9.9256,3.7338 10.9826,4.9178 12.3586,4.9958 C12.4066,4.9988 12.4546,4.9998 12.5016,4.9998 C13.8256,4.9998 14.9206,3.9648 14.9966,2.6428 C15.0346,1.9758 14.8096,1.3338 14.3656,0.8358 C13.9216,0.3378 13.3096,0.0418 12.6426,0.0048" id="Fill-3" fill="#FF5553"></path>
            <path d="M22.6426,0.0048 C21.2576,-0.0762 20.0816,0.9878 20.0046,2.3588 C19.9256,3.7338 20.9826,4.9178 22.3586,4.9958 C22.4066,4.9988 22.4546,4.9998 22.5016,4.9998 C23.8256,4.9998 24.9206,3.9648 24.9966,2.6428 C25.0346,1.9758 24.8096,1.3338 24.3656,0.8358 C23.9216,0.3378 23.3096,0.0418 22.6426,0.0048" id="Fill-5" fill="#FF5553"></path>
            <path d="M32.6426,0.0048 C31.2576,-0.0762 30.0816,0.9878 30.0046,2.3588 C29.9256,3.7338 30.9826,4.9178 32.3586,4.9958 C32.4066,4.9988 32.4546,4.9998 32.5016,4.9998 C33.8256,4.9998 34.9206,3.9648 34.9966,2.6428 C35.0346,1.9758 34.8096,1.3338 34.3656,0.8358 C33.9216,0.3378 33.3096,0.0418 32.6426,0.0048" id="Fill-7" fill="#FF5553"></path>
            <path d="M42.6426,0.0048 C41.2576,-0.0762 40.0816,0.9878 40.0046,2.3588 C39.9256,3.7338 40.9826,4.9178 42.3586,4.9958 C42.4066,4.9988 42.4546,4.9998 42.5016,4.9998 C43.8256,4.9998 44.9206,3.9648 44.9966,2.6428 C45.0346,1.9758 44.8096,1.3338 44.3656,0.8358 C43.9216,0.3378 43.3096,0.0418 42.6426,0.0048" id="Fill-9" fill="#FF5553"></path>
            <path d="M52.6426,0.0048 C51.2576,-0.0762 50.0816,0.9878 50.0046,2.3588 C49.9256,3.7338 50.9826,4.9178 52.3586,4.9958 C52.4066,4.9988 52.4546,4.9998 52.5016,4.9998 C53.8256,4.9998 54.9206,3.9648 54.9966,2.6428 C55.0346,1.9758 54.8096,1.3338 54.3656,0.8358 C53.9216,0.3378 53.3096,0.0418 52.6426,0.0048" id="Fill-11" fill="#FF5553"></path>
            <path d="M62.6426,0.0048 C61.2576,-0.0762 60.0816,0.9878 60.0046,2.3588 C59.9256,3.7338 60.9826,4.9178 62.3586,4.9958 C62.4066,4.9988 62.4546,4.9998 62.5016,4.9998 C63.8256,4.9998 64.9206,3.9648 64.9966,2.6428 C65.0346,1.9758 64.8096,1.3338 64.3656,0.8358 C63.9216,0.3378 63.3096,0.0418 62.6426,0.0048" id="Fill-13" fill="#FF5553"></path>
            <g id="Group-17" transform="translate(90.000000, 0.000300)">
                <mask id="mask-2" fill="white">
                    <use xlink:href="#path-1"></use>
                </mask>
                <g id="Clip-16"></g>
                <path d="M2.6426,0.0045 C1.2576,-0.0765 0.0816,0.9875 0.0046,2.3585 C-0.0744,3.7335 0.9826,4.9175 2.3586,4.9955 C2.4066,4.9985 2.4546,4.9995 2.5016,4.9995 C3.8256,4.9995 4.9206,3.9645 4.9966,2.6425 C5.0346,1.9755 4.8096,1.3335 4.3656,0.8355 C3.9216,0.3375 3.3096,0.0415 2.6426,0.0045" id="Fill-15" fill="#FF5553" mask="url(#mask-2)"></path>
            </g>
            <path d="M2.6426,10.0048 C1.2576,9.9238 0.0816,10.9878 0.0046,12.3588 C-0.0744,13.7338 0.9826,14.9178 2.3586,14.9958 C2.4066,14.9988 2.4546,14.9998 2.5016,14.9998 C3.8256,14.9998 4.9206,13.9648 4.9966,12.6428 C5.0346,11.9758 4.8096,11.3338 4.3656,10.8358 C3.9216,10.3378 3.3096,10.0418 2.6426,10.0048" id="Fill-18" fill="#FF5553"></path>
            <path d="M52.6426,10.0048 C51.2576,9.9238 50.0816,10.9878 50.0046,12.3588 C49.9256,13.7338 50.9826,14.9178 52.3586,14.9958 C52.4066,14.9988 52.4546,14.9998 52.5016,14.9998 C53.8256,14.9998 54.9206,13.9648 54.9966,12.6428 C55.0346,11.9758 54.8096,11.3338 54.3656,10.8358 C53.9216,10.3378 53.3096,10.0418 52.6426,10.0048" id="Fill-20" fill="#FF5553"></path>
            <path d="M72.6426,10.0048 C71.2576,9.9238 70.0816,10.9878 70.0046,12.3588 C69.9256,13.7338 70.9826,14.9178 72.3586,14.9958 C72.4066,14.9988 72.4546,14.9998 72.5016,14.9998 C73.8256,14.9998 74.9206,13.9648 74.9966,12.6428 C75.0346,11.9758 74.8096,11.3338 74.3656,10.8358 C73.9216,10.3378 73.3096,10.0418 72.6426,10.0048" id="Fill-22" fill="#FF5553"></path>
            <path d="M82.6426,10.0048 C81.2576,9.9238 80.0816,10.9878 80.0046,12.3588 C79.9256,13.7338 80.9826,14.9178 82.3586,14.9958 C82.4066,14.9988 82.4546,14.9998 82.5016,14.9998 C83.8256,14.9998 84.9206,13.9648 84.9966,12.6428 C85.0346,11.9758 84.8096,11.3338 84.3656,10.8358 C83.9216,10.3378 83.3096,10.0418 82.6426,10.0048" id="Fill-24" fill="#FF5553"></path>
            <path d="M12.6426,20.0048 C11.2576,19.9238 10.0816,20.9878 10.0046,22.3588 C9.9256,23.7338 10.9826,24.9178 12.3586,24.9958 C12.4066,24.9988 12.4546,24.9998 12.5016,24.9998 C13.8256,24.9998 14.9206,23.9648 14.9966,22.6428 C15.0346,21.9758 14.8096,21.3338 14.3656,20.8358 C13.9216,20.3378 13.3096,20.0418 12.6426,20.0048" id="Fill-26" fill="#FF5553"></path>
            <path d="M22.6426,20.0048 C21.2576,19.9238 20.0816,20.9878 20.0046,22.3588 C19.9256,23.7338 20.9826,24.9178 22.3586,24.9958 C22.4066,24.9988 22.4546,24.9998 22.5016,24.9998 C23.8256,24.9998 24.9206,23.9648 24.9966,22.6428 C25.0346,21.9758 24.8096,21.3338 24.3656,20.8358 C23.9216,20.3378 23.3096,20.0418 22.6426,20.0048" id="Fill-28" fill="#FF5553"></path>
            <path d="M32.6426,20.0048 C31.2576,19.9238 30.0816,20.9878 30.0046,22.3588 C29.9256,23.7338 30.9826,24.9178 32.3586,24.9958 C32.4066,24.9988 32.4546,24.9998 32.5016,24.9998 C33.8256,24.9998 34.9206,23.9648 34.9966,22.6428 C35.0346,21.9758 34.8096,21.3338 34.3656,20.8358 C33.9216,20.3378 33.3096,20.0418 32.6426,20.0048" id="Fill-30" fill="#FF5553"></path>
            <path d="M42.6426,20.0048 C41.2576,19.9238 40.0816,20.9878 40.0046,22.3588 C39.9256,23.7338 40.9826,24.9178 42.3586,24.9958 C42.4066,24.9988 42.4546,24.9998 42.5016,24.9998 C43.8256,24.9998 44.9206,23.9648 44.9966,22.6428 C45.0346,21.9758 44.8096,21.3338 44.3656,20.8358 C43.9216,20.3378 43.3096,20.0418 42.6426,20.0048" id="Fill-32" fill="#FF5553"></path>
            <path d="M72.6426,20.0048 C71.2576,19.9238 70.0816,20.9878 70.0046,22.3588 C69.9256,23.7338 70.9826,24.9178 72.3586,24.9958 C72.4066,24.9988 72.4546,24.9998 72.5016,24.9998 C73.8256,24.9998 74.9206,23.9648 74.9966,22.6428 C75.0346,21.9758 74.8096,21.3338 74.3656,20.8358 C73.9216,20.3378 73.3096,20.0418 72.6426,20.0048" id="Fill-34" fill="#FF5553"></path>
            <path d="M82.6426,20.0048 C81.2576,19.9238 80.0816,20.9878 80.0046,22.3588 C79.9256,23.7338 80.9826,24.9178 82.3586,24.9958 C82.4066,24.9988 82.4546,24.9998 82.5016,24.9998 C83.8256,24.9998 84.9206,23.9648 84.9966,22.6428 C85.0346,21.9758 84.8096,21.3338 84.3656,20.8358 C83.9216,20.3378 83.3096,20.0418 82.6426,20.0048" id="Fill-36" fill="#FF5553"></path>
            <path d="M32.6426,30.0048 C31.2576,29.9238 30.0816,30.9878 30.0046,32.3588 C29.9256,33.7338 30.9826,34.9178 32.3586,34.9958 C32.4066,34.9988 32.4546,34.9998 32.5016,34.9998 C33.8256,34.9998 34.9206,33.9648 34.9966,32.6428 C35.0346,31.9758 34.8096,31.3338 34.3656,30.8358 C33.9216,30.3378 33.3096,30.0418 32.6426,30.0048" id="Fill-38" fill="#FF5553"></path>
            <path d="M62.6426,30.0048 C61.2576,29.9238 60.0816,30.9878 60.0046,32.3588 C59.9256,33.7338 60.9826,34.9178 62.3586,34.9958 C62.4066,34.9988 62.4546,34.9998 62.5016,34.9998 C63.8256,34.9998 64.9206,33.9648 64.9966,32.6428 C65.0346,31.9758 64.8096,31.3338 64.3656,30.8358 C63.9216,30.3378 63.3096,30.0418 62.6426,30.0048" id="Fill-40" fill="#FF5553"></path>
            <g id="Group-44" transform="translate(90.000000, 30.000300)">
                <mask id="mask-4" fill="white">
                    <use xlink:href="#path-3"></use>
                </mask>
                <g id="Clip-43"></g>
                <path d="M2.6426,0.0045 C1.2576,-0.0765 0.0816,0.9875 0.0046,2.3585 C-0.0744,3.7335 0.9826,4.9175 2.3586,4.9955 C2.4066,4.9985 2.4546,4.9995 2.5016,4.9995 C3.8256,4.9995 4.9206,3.9645 4.9966,2.6425 C5.0346,1.9755 4.8096,1.3335 4.3656,0.8355 C3.9216,0.3375 3.3096,0.0415 2.6426,0.0045" id="Fill-42" fill="#FF5553" mask="url(#mask-4)"></path>
            </g>
            <path d="M22.6426,40.0048 C21.2576,39.9238 20.0816,40.9878 20.0046,42.3588 C19.9256,43.7338 20.9826,44.9178 22.3586,44.9958 C22.4066,44.9988 22.4546,44.9998 22.5016,44.9998 C23.8256,44.9998 24.9206,43.9648 24.9966,42.6428 C25.0346,41.9758 24.8096,41.3338 24.3656,40.8358 C23.9216,40.3378 23.3096,40.0418 22.6426,40.0048" id="Fill-45" fill="#FF5553"></path>
            <path d="M32.6426,40.0048 C31.2576,39.9238 30.0816,40.9878 30.0046,42.3588 C29.9256,43.7338 30.9826,44.9178 32.3586,44.9958 C32.4066,44.9988 32.4546,44.9998 32.5016,44.9998 C33.8256,44.9998 34.9206,43.9648 34.9966,42.6428 C35.0346,41.9758 34.8096,41.3338 34.3656,40.8358 C33.9216,40.3378 33.3096,40.0418 32.6426,40.0048" id="Fill-47" fill="#FF5553"></path>
            <path d="M42.6426,40.0048 C41.2576,39.9238 40.0816,40.9878 40.0046,42.3588 C39.9256,43.7338 40.9826,44.9178 42.3586,44.9958 C42.4066,44.9988 42.4546,44.9998 42.5016,44.9998 C43.8256,44.9998 44.9206,43.9648 44.9966,42.6428 C45.0346,41.9758 44.8096,41.3338 44.3656,40.8358 C43.9216,40.3378 43.3096,40.0418 42.6426,40.0048" id="Fill-49" fill="#FF5553"></path>
            <path d="M62.6426,40.0048 C61.2576,39.9238 60.0816,40.9878 60.0046,42.3588 C59.9256,43.7338 60.9826,44.9178 62.3586,44.9958 C62.4066,44.9988 62.4546,44.9998 62.5016,44.9998 C63.8256,44.9998 64.9206,43.9648 64.9966,42.6428 C65.0346,41.9758 64.8096,41.3338 64.3656,40.8358 C63.9216,40.3378 63.3096,40.0418 62.6426,40.0048" id="Fill-51" fill="#FF5553"></path>
            <g id="Group-55" transform="translate(90.000000, 40.000300)">
                <mask id="mask-6" fill="white">
                    <use xlink:href="#path-5"></use>
                </mask>
                <g id="Clip-54"></g>
                <path d="M2.6426,0.0045 C1.2576,-0.0765 0.0816,0.9875 0.0046,2.3585 C-0.0744,3.7335 0.9826,4.9175 2.3586,4.9955 C2.4066,4.9985 2.4546,4.9995 2.5016,4.9995 C3.8256,4.9995 4.9206,3.9645 4.9966,2.6425 C5.0346,1.9755 4.8096,1.3335 4.3656,0.8355 C3.9216,0.3375 3.3096,0.0415 2.6426,0.0045" id="Fill-53" fill="#FF5553" mask="url(#mask-6)"></path>
            </g>
            <path d="M12.6426,50.0048 C11.2576,49.9238 10.0816,50.9878 10.0046,52.3588 C9.9256,53.7338 10.9826,54.9178 12.3586,54.9958 C12.4066,54.9988 12.4546,54.9998 12.5016,54.9998 C13.8256,54.9998 14.9206,53.9648 14.9966,52.6428 C15.0346,51.9758 14.8096,51.3338 14.3656,50.8358 C13.9216,50.3378 13.3096,50.0418 12.6426,50.0048" id="Fill-56" fill="#FF5553"></path>
            <path d="M32.6426,50.0048 C31.2576,49.9238 30.0816,50.9878 30.0046,52.3588 C29.9256,53.7338 30.9826,54.9178 32.3586,54.9958 C32.4066,54.9988 32.4546,54.9998 32.5016,54.9998 C33.8256,54.9998 34.9206,53.9648 34.9966,52.6428 C35.0346,51.9758 34.8096,51.3338 34.3656,50.8358 C33.9216,50.3378 33.3096,50.0418 32.6426,50.0048" id="Fill-58" fill="#FF5553"></path>
            <path d="M42.6426,50.0048 C41.2576,49.9238 40.0816,50.9878 40.0046,52.3588 C39.9256,53.7338 40.9826,54.9178 42.3586,54.9958 C42.4066,54.9988 42.4546,54.9998 42.5016,54.9998 C43.8256,54.9998 44.9206,53.9648 44.9966,52.6428 C45.0346,51.9758 44.8096,51.3338 44.3656,50.8358 C43.9216,50.3378 43.3096,50.0418 42.6426,50.0048" id="Fill-60" fill="#FF5553"></path>
            <g id="Group-64" transform="translate(90.000000, 50.000300)">
                <mask id="mask-8" fill="white">
                    <use xlink:href="#path-7"></use>
                </mask>
                <g id="Clip-63"></g>
                <path d="M2.6426,0.0045 C1.2576,-0.0765 0.0816,0.9875 0.0046,2.3585 C-0.0744,3.7335 0.9826,4.9175 2.3586,4.9955 C2.4066,4.9985 2.4546,4.9995 2.5016,4.9995 C3.8256,4.9995 4.9206,3.9645 4.9966,2.6425 C5.0346,1.9755 4.8096,1.3335 4.3656,0.8355 C3.9216,0.3375 3.3096,0.0415 2.6426,0.0045" id="Fill-62" fill="#FF5553" mask="url(#mask-8)"></path>
            </g>
            <path d="M12.6426,60.0048 C11.2576,59.9238 10.0816,60.9878 10.0046,62.3588 C9.9256,63.7338 10.9826,64.9178 12.3586,64.9958 C12.4066,64.9988 12.4546,64.9998 12.5016,64.9998 C13.8256,64.9998 14.9206,63.9648 14.9966,62.6428 C15.0346,61.9758 14.8096,61.3338 14.3656,60.8358 C13.9216,60.3378 13.3096,60.0418 12.6426,60.0048" id="Fill-65" fill="#FF5553"></path>
            <path d="M22.6426,60.0048 C21.2576,59.9238 20.0816,60.9878 20.0046,62.3588 C19.9256,63.7338 20.9826,64.9178 22.3586,64.9958 C22.4066,64.9988 22.4546,64.9998 22.5016,64.9998 C23.8256,64.9998 24.9206,63.9648 24.9966,62.6428 C25.0346,61.9758 24.8096,61.3338 24.3656,60.8358 C23.9216,60.3378 23.3096,60.0418 22.6426,60.0048" id="Fill-67" fill="#FF5553"></path>
            <path d="M32.6426,60.0048 C31.2576,59.9238 30.0816,60.9878 30.0046,62.3588 C29.9256,63.7338 30.9826,64.9178 32.3586,64.9958 C32.4066,64.9988 32.4546,64.9998 32.5016,64.9998 C33.8256,64.9998 34.9206,63.9648 34.9966,62.6428 C35.0346,61.9758 34.8096,61.3338 34.3656,60.8358 C33.9216,60.3378 33.3096,60.0418 32.6426,60.0048" id="Fill-69" fill="#FF5553"></path>
            <path d="M42.6426,60.0048 C41.2576,59.9238 40.0816,60.9878 40.0046,62.3588 C39.9256,63.7338 40.9826,64.9178 42.3586,64.9958 C42.4066,64.9988 42.4546,64.9998 42.5016,64.9998 C43.8256,64.9998 44.9206,63.9648 44.9966,62.6428 C45.0346,61.9758 44.8096,61.3338 44.3656,60.8358 C43.9216,60.3378 43.3096,60.0418 42.6426,60.0048" id="Fill-71" fill="#FF5553"></path>
            <path d="M62.6426,60.0048 C61.2576,59.9238 60.0816,60.9878 60.0046,62.3588 C59.9256,63.7338 60.9826,64.9178 62.3586,64.9958 C62.4066,64.9988 62.4546,64.9998 62.5016,64.9998 C63.8256,64.9998 64.9206,63.9648 64.9966,62.6428 C65.0346,61.9758 64.8096,61.3338 64.3656,60.8358 C63.9216,60.3378 63.3096,60.0418 62.6426,60.0048" id="Fill-73" fill="#FF5553"></path>
            <path d="M72.6426,60.0048 C71.2576,59.9238 70.0816,60.9878 70.0046,62.3588 C69.9256,63.7338 70.9826,64.9178 72.3586,64.9958 C72.4066,64.9988 72.4546,64.9998 72.5016,64.9998 C73.8256,64.9998 74.9206,63.9648 74.9966,62.6428 C75.0346,61.9758 74.8096,61.3338 74.3656,60.8358 C73.9216,60.3378 73.3096,60.0418 72.6426,60.0048" id="Fill-75" fill="#FF5553"></path>
            <path d="M82.6426,60.0048 C81.2576,59.9238 80.0816,60.9878 80.0046,62.3588 C79.9256,63.7338 80.9826,64.9178 82.3586,64.9958 C82.4066,64.9988 82.4546,64.9998 82.5016,64.9998 C83.8256,64.9998 84.9206,63.9648 84.9966,62.6428 C85.0346,61.9758 84.8096,61.3338 84.3656,60.8358 C83.9216,60.3378 83.3096,60.0418 82.6426,60.0048" id="Fill-77" fill="#FF5553"></path>
            <g id="Group-81" transform="translate(90.000000, 60.000300)">
                <mask id="mask-10" fill="white">
                    <use xlink:href="#path-9"></use>
                </mask>
                <g id="Clip-80"></g>
                <path d="M2.6426,0.0045 C1.2576,-0.0765 0.0816,0.9875 0.0046,2.3585 C-0.0744,3.7335 0.9826,4.9175 2.3586,4.9955 C2.4066,4.9985 2.4546,4.9995 2.5016,4.9995 C3.8256,4.9995 4.9206,3.9645 4.9966,2.6425 C5.0346,1.9755 4.8096,1.3335 4.3656,0.8355 C3.9216,0.3375 3.3096,0.0415 2.6426,0.0045" id="Fill-79" fill="#FF5553" mask="url(#mask-10)"></path>
            </g>
            <path d="M2.6426,70.0048 C1.2576,69.9238 0.0816,70.9878 0.0046,72.3588 C-0.0744,73.7338 0.9826,74.9178 2.3586,74.9958 C2.4066,74.9988 2.4546,74.9998 2.5016,74.9998 C3.8256,74.9998 4.9206,73.9648 4.9966,72.6428 C5.0346,71.9758 4.8096,71.3338 4.3656,70.8358 C3.9216,70.3378 3.3096,70.0418 2.6426,70.0048" id="Fill-82" fill="#FF5553"></path>
            <path d="M22.6426,70.0048 C21.2576,69.9238 20.0816,70.9878 20.0046,72.3588 C19.9256,73.7338 20.9826,74.9178 22.3586,74.9958 C22.4066,74.9988 22.4546,74.9998 22.5016,74.9998 C23.8256,74.9998 24.9206,73.9648 24.9966,72.6428 C25.0346,71.9758 24.8096,71.3338 24.3656,70.8358 C23.9216,70.3378 23.3096,70.0418 22.6426,70.0048" id="Fill-84" fill="#FF5553"></path>
            <path d="M32.6426,70.0048 C31.2576,69.9238 30.0816,70.9878 30.0046,72.3588 C29.9256,73.7338 30.9826,74.9178 32.3586,74.9958 C32.4066,74.9988 32.4546,74.9998 32.5016,74.9998 C33.8256,74.9998 34.9206,73.9648 34.9966,72.6428 C35.0346,71.9758 34.8096,71.3338 34.3656,70.8358 C33.9216,70.3378 33.3096,70.0418 32.6426,70.0048" id="Fill-86" fill="#FF5553"></path>
            <path d="M62.6426,70.0048 C61.2576,69.9238 60.0816,70.9878 60.0046,72.3588 C59.9256,73.7338 60.9826,74.9178 62.3586,74.9958 C62.4066,74.9988 62.4546,74.9998 62.5016,74.9998 C63.8256,74.9998 64.9206,73.9648 64.9966,72.6428 C65.0346,71.9758 64.8096,71.3338 64.3656,70.8358 C63.9216,70.3378 63.3096,70.0418 62.6426,70.0048" id="Fill-88" fill="#FF5553"></path>
            <path d="M72.6426,70.0048 C71.2576,69.9238 70.0816,70.9878 70.0046,72.3588 C69.9256,73.7338 70.9826,74.9178 72.3586,74.9958 C72.4066,74.9988 72.4546,74.9998 72.5016,74.9998 C73.8256,74.9998 74.9206,73.9648 74.9966,72.6428 C75.0346,71.9758 74.8096,71.3338 74.3656,70.8358 C73.9216,70.3378 73.3096,70.0418 72.6426,70.0048" id="Fill-90" fill="#FF5553"></path>
            <path d="M82.6426,70.0048 C81.2576,69.9238 80.0816,70.9878 80.0046,72.3588 C79.9256,73.7338 80.9826,74.9178 82.3586,74.9958 C82.4066,74.9988 82.4546,74.9998 82.5016,74.9998 C83.8256,74.9998 84.9206,73.9648 84.9966,72.6428 C85.0346,71.9758 84.8096,71.3338 84.3656,70.8358 C83.9216,70.3378 83.3096,70.0418 82.6426,70.0048" id="Fill-92" fill="#FF5553"></path>
            <g id="Group-96" transform="translate(90.000000, 70.000300)">
                <mask id="mask-12" fill="white">
                    <use xlink:href="#path-11"></use>
                </mask>
                <g id="Clip-95"></g>
                <path d="M2.6426,0.0045 C1.2576,-0.0765 0.0816,0.9875 0.0046,2.3585 C-0.0744,3.7335 0.9826,4.9175 2.3586,4.9955 C2.4066,4.9985 2.4546,4.9995 2.5016,4.9995 C3.8256,4.9995 4.9206,3.9645 4.9966,2.6425 C5.0346,1.9755 4.8096,1.3335 4.3656,0.8355 C3.9216,0.3375 3.3096,0.0415 2.6426,0.0045" id="Fill-94" fill="#FF5553" mask="url(#mask-12)"></path>
            </g>
            <path d="M2.6426,80.0048 C1.2576,79.9238 0.0816,80.9878 0.0046,82.3588 C-0.0744,83.7338 0.9826,84.9178 2.3586,84.9958 C2.4066,84.9988 2.4546,84.9998 2.5016,84.9998 C3.8256,84.9998 4.9206,83.9648 4.9966,82.6428 C5.0346,81.9758 4.8096,81.3338 4.3656,80.8358 C3.9216,80.3378 3.3096,80.0418 2.6426,80.0048" id="Fill-97" fill="#FF5553"></path>
            <path d="M22.6426,80.0048 C21.2576,79.9238 20.0816,80.9878 20.0046,82.3588 C19.9256,83.7338 20.9826,84.9178 22.3586,84.9958 C22.4066,84.9988 22.4546,84.9998 22.5016,84.9998 C23.8256,84.9998 24.9206,83.9648 24.9966,82.6428 C25.0346,81.9758 24.8096,81.3338 24.3656,80.8358 C23.9216,80.3378 23.3096,80.0418 22.6426,80.0048" id="Fill-99" fill="#FF5553"></path>
            <path d="M32.6426,80.0048 C31.2576,79.9238 30.0816,80.9878 30.0046,82.3588 C29.9256,83.7338 30.9826,84.9178 32.3586,84.9958 C32.4066,84.9988 32.4546,84.9998 32.5016,84.9998 C33.8256,84.9998 34.9206,83.9648 34.9966,82.6428 C35.0346,81.9758 34.8096,81.3338 34.3656,80.8358 C33.9216,80.3378 33.3096,80.0418 32.6426,80.0048" id="Fill-101" fill="#FF5553"></path>
            <path d="M52.6426,80.0048 C51.2576,79.9238 50.0816,80.9878 50.0046,82.3588 C49.9256,83.7338 50.9826,84.9178 52.3586,84.9958 C52.4066,84.9988 52.4546,84.9998 52.5016,84.9998 C53.8256,84.9998 54.9206,83.9648 54.9966,82.6428 C55.0346,81.9758 54.8096,81.3338 54.3656,80.8358 C53.9216,80.3378 53.3096,80.0418 52.6426,80.0048" id="Fill-103" fill="#FF5553"></path>
            <path d="M62.6426,80.0048 C61.2576,79.9238 60.0816,80.9878 60.0046,82.3588 C59.9256,83.7338 60.9826,84.9178 62.3586,84.9958 C62.4066,84.9988 62.4546,84.9998 62.5016,84.9998 C63.8256,84.9998 64.9206,83.9648 64.9966,82.6428 C65.0346,81.9758 64.8096,81.3338 64.3656,80.8358 C63.9216,80.3378 63.3096,80.0418 62.6426,80.0048" id="Fill-105" fill="#FF5553"></path>
            <path d="M72.6426,80.0048 C71.2576,79.9238 70.0816,80.9878 70.0046,82.3588 C69.9256,83.7338 70.9826,84.9178 72.3586,84.9958 C72.4066,84.9988 72.4546,84.9998 72.5016,84.9998 C73.8256,84.9998 74.9206,83.9648 74.9966,82.6428 C75.0346,81.9758 74.8096,81.3338 74.3656,80.8358 C73.9216,80.3378 73.3096,80.0418 72.6426,80.0048" id="Fill-107" fill="#FF5553"></path>
            <path d="M82.6426,80.0048 C81.2576,79.9238 80.0816,80.9878 80.0046,82.3588 C79.9256,83.7338 80.9826,84.9178 82.3586,84.9958 C82.4066,84.9988 82.4546,84.9998 82.5016,84.9998 C83.8256,84.9998 84.9206,83.9648 84.9966,82.6428 C85.0346,81.9758 84.8096,81.3338 84.3656,80.8358 C83.9216,80.3378 83.3096,80.0418 82.6426,80.0048" id="Fill-109" fill="#FF5553"></path>
            <g id="Group-113" transform="translate(90.000000, 80.000300)">
                <mask id="mask-14" fill="white">
                    <use xlink:href="#path-13"></use>
                </mask>
                <g id="Clip-112"></g>
                <path d="M2.6426,0.0045 C1.2576,-0.0765 0.0816,0.9875 0.0046,2.3585 C-0.0744,3.7335 0.9826,4.9175 2.3586,4.9955 C2.4066,4.9985 2.4546,4.9995 2.5016,4.9995 C3.8256,4.9995 4.9206,3.9645 4.9966,2.6425 C5.0346,1.9755 4.8096,1.3335 4.3656,0.8355 C3.9216,0.3375 3.3096,0.0415 2.6426,0.0045" id="Fill-111" fill="#FF5553" mask="url(#mask-14)"></path>
            </g>
            <path d="M55,41.4648 L55,22.4998 C55,21.8368 54.736,21.2008 54.268,20.7328 L44.268,10.7328 C43.799,10.2638 43.163,9.9998 42.5,9.9998 L12.5,9.9998 C11.837,9.9998 11.201,10.2638 10.732,10.7328 L0.732,20.7328 C0.264,21.2008 0,21.8368 0,22.4998 L0,62.4998 C0,63.1628 0.264,63.7988 0.732,64.2678 L10,73.5348 L10,82.4998 C10,83.8808 11.119,84.9998 12.5,84.9998 C13.881,84.9998 15,83.8808 15,82.4998 L15,72.4998 C15,71.8368 14.736,71.2008 14.268,70.7328 L5,61.4648 L5,23.5348 L13.535,14.9998 L41.465,14.9998 L50,23.5348 L50,29.9998 L42.5,29.9998 C41.119,29.9998 40,31.1188 40,32.4998 C40,33.8808 41.119,34.9998 42.5,34.9998 L50,34.9998 L50,42.4998 C50,43.1628 50.264,43.7988 50.732,44.2678 L56.465,49.9998 L52.5,49.9998 C51.119,49.9998 50,51.1188 50,52.4998 L50,69.9998 L42.5,69.9998 C41.119,69.9998 40,71.1188 40,72.4998 L40,82.4998 C40,83.8808 41.119,84.9998 42.5,84.9998 C43.881,84.9998 45,83.8808 45,82.4998 L45,74.9998 L52.5,74.9998 C53.881,74.9998 55,73.8808 55,72.4998 L55,54.9998 L62.5,54.9998 C63.511,54.9998 64.423,54.3908 64.81,53.4568 C65.196,52.5228 64.982,51.4468 64.268,50.7328 L55,41.4648 Z" id="Fill-114" fill="#0033AD"></path>
            <path d="M22.5,34.9999 C23.881,34.9999 25,33.8809 25,32.4999 C25,31.1189 23.881,29.9999 22.5,29.9999 L12.5,29.9999 C11.119,29.9999 10,31.1189 10,32.4999 L10,42.4999 C10,43.1629 10.264,43.7989 10.732,44.2679 L20.732,54.2679 C21.221,54.7559 21.86,54.9999 22.5,54.9999 C23.14,54.9999 23.779,54.7559 24.268,54.2679 C25.244,53.2909 25.244,51.7089 24.268,50.7319 L15,41.4649 L15,34.9999 L22.5,34.9999 Z" id="Fill-116" fill="#0033AD"></path>
            <g id="Group-120" transform="translate(60.000000, 0.000300)">
                <mask id="mask-16" fill="white">
                    <use xlink:href="#path-15"></use>
                </mask>
                <g id="Clip-119"></g>
                <path d="M30,21.4645 L20.732,30.7325 C20.264,31.2005 20,31.8365 20,32.4995 L20,39.9995 L15,39.9995 L15,32.4995 C15,31.8365 14.736,31.2005 14.268,30.7325 L5,21.4645 L5,13.5345 L13.535,4.9995 L21.465,4.9995 L30,13.5345 L30,21.4645 Z M15,49.9995 L20,49.9995 L20,44.9995 L15,44.9995 L15,49.9995 Z M34.268,10.7325 L24.268,0.7325 C23.799,0.2635 23.163,-0.0005 22.5,-0.0005 L12.5,-0.0005 C11.837,-0.0005 11.201,0.2635 10.732,0.7325 L0.732,10.7325 C0.264,11.2005 0,11.8365 0,12.4995 L0,22.4995 C0,23.1625 0.264,23.7985 0.732,24.2675 L10,33.5345 L10,42.4995 L10,52.4995 C10,53.8805 11.119,54.9995 12.5,54.9995 L22.5,54.9995 C23.881,54.9995 25,53.8805 25,52.4995 L25,42.4995 L25,33.5345 L34.268,24.2675 C34.736,23.7985 35,23.1625 35,22.4995 L35,12.4995 C35,11.8365 34.736,11.2005 34.268,10.7325 L34.268,10.7325 Z" id="Fill-118" fill="#0033AD" mask="url(#mask-16)"></path>
            </g>
        </g>
    </g>
</svg>