<?xml version="1.0" encoding="UTF-8"?>
<svg width="95px" height="85px" viewBox="0 0 95 85" version="1.1" xmlns="http://www.w3.org/2000/svg" xmlns:xlink="http://www.w3.org/1999/xlink">
    <!-- Generator: Sketch 63.1 (92452) - https://sketch.com -->
    <title>icon_people</title>
    <desc>Created with Sketch.</desc>
    <defs>
        <polygon id="path-1" points="0.000244614539 0.00046453195 5 0.00046453195 5 4.9998 0.000244614539 4.9998"></polygon>
        <polygon id="path-3" points="0.000444614539 0.000264577992 5 0.000264577992 5 4.9996 0.000444614539 4.9996"></polygon>
        <polygon id="path-5" points="0.000444614539 0.000264577992 5 0.000264577992 5 4.9996 0.000444614539 4.9996"></polygon>
        <polygon id="path-7" points="0.000444614539 0.000264577992 5 0.000264577992 5 4.9996 0.000444614539 4.9996"></polygon>
        <polygon id="path-9" points="0.000444614539 0.000264577992 5 0.000264577992 5 4.9996 0.000444614539 4.9996"></polygon>
        <polygon id="path-11" points="0.000444614539 0.000264577992 5 0.000264577992 5 4.9996 0.000444614539 4.9996"></polygon>
        <polygon id="path-13" points="0.000444614539 0.000264577992 5 0.000264577992 5 4.9996 0.000444614539 4.9996"></polygon>
        <polygon id="path-15" points="0 85.0003 95 85.0003 95 0.0003 0 0.0003"></polygon>
    </defs>
    <g id="Cardano-Pages" stroke="none" stroke-width="1" fill="none" fill-rule="evenodd">
        <g id="Cardano---Home-Page" transform="translate(-430.000000, -3036.000000)">
            <g id="icon_people" transform="translate(430.000000, 3036.000000)">
                <path d="M2.6426,0.0049 C1.2576,-0.0761 0.0816,0.9879 0.0046,2.3589 C-0.0744,3.7339 0.9826,4.9179 2.3586,4.9959 C2.4066,4.9989 2.4546,4.9999 2.5016,4.9999 C3.8256,4.9999 4.9206,3.9649 4.9966,2.6429 C5.0346,1.9759 4.8096,1.3339 4.3656,0.8359 C3.9206,0.3379 3.3096,0.0419 2.6426,0.0049" id="Fill-1" fill="#FF5553"></path>
                <path d="M32.6426,0.0049 C31.2576,-0.0761 30.0816,0.9879 30.0046,2.3589 C29.9256,3.7339 30.9826,4.9179 32.3586,4.9959 C32.4066,4.9989 32.4546,4.9999 32.5016,4.9999 C33.8256,4.9999 34.9206,3.9649 34.9966,2.6429 C35.0346,1.9759 34.8096,1.3339 34.3656,0.8359 C33.9206,0.3379 33.3096,0.0419 32.6426,0.0049" id="Fill-3" fill="#FF5553"></path>
                <path d="M42.6426,0.0049 C41.2576,-0.0761 40.0816,0.9879 40.0046,2.3589 C39.9256,3.7339 40.9826,4.9179 42.3586,4.9959 C42.4066,4.9989 42.4546,4.9999 42.5016,4.9999 C43.8256,4.9999 44.9206,3.9649 44.9966,2.6429 C45.0346,1.9759 44.8096,1.3339 44.3656,0.8359 C43.9206,0.3379 43.3096,0.0419 42.6426,0.0049" id="Fill-5" fill="#FF5553"></path>
                <path d="M52.6426,0.0049 C51.2576,-0.0761 50.0816,0.9879 50.0046,2.3589 C49.9256,3.7339 50.9826,4.9179 52.3586,4.9959 C52.4066,4.9989 52.4546,4.9999 52.5016,4.9999 C53.8256,4.9999 54.9206,3.9649 54.9966,2.6429 C55.0346,1.9759 54.8096,1.3339 54.3656,0.8359 C53.9206,0.3379 53.3096,0.0419 52.6426,0.0049" id="Fill-7" fill="#FF5553"></path>
                <path d="M62.6426,0.0049 C61.2576,-0.0761 60.0816,0.9879 60.0046,2.3589 C59.9256,3.7339 60.9826,4.9179 62.3586,4.9959 C62.4066,4.9989 62.4546,4.9999 62.5016,4.9999 C63.8256,4.9999 64.9206,3.9649 64.9966,2.6429 C65.0346,1.9759 64.8096,1.3339 64.3656,0.8359 C63.9206,0.3379 63.3096,0.0419 62.6426,0.0049" id="Fill-9" fill="#FF5553"></path>
                <path d="M72.6426,0.0049 C71.2576,-0.0761 70.0816,0.9879 70.0046,2.3589 C69.9256,3.7339 70.9826,4.9179 72.3586,4.9959 C72.4066,4.9989 72.4546,4.9999 72.5016,4.9999 C73.8256,4.9999 74.9206,3.9649 74.9966,2.6429 C75.0346,1.9759 74.8096,1.3339 74.3656,0.8359 C73.9206,0.3379 73.3096,0.0419 72.6426,0.0049" id="Fill-11" fill="#FF5553"></path>
                <path d="M82.6426,0.0049 C81.2576,-0.0761 80.0816,0.9879 80.0046,2.3589 C79.9256,3.7339 80.9826,4.9179 82.3586,4.9959 C82.4066,4.9989 82.4546,4.9999 82.5016,4.9999 C83.8256,4.9999 84.9206,3.9649 84.9966,2.6429 C85.0346,1.9759 84.8096,1.3339 84.3656,0.8359 C83.9206,0.3379 83.3096,0.0419 82.6426,0.0049" id="Fill-13" fill="#FF5553"></path>
                <g id="Group-17" transform="translate(90.000000, 0.000300)">
                    <mask id="mask-2" fill="white">
                        <use xlink:href="#path-1"></use>
                    </mask>
                    <g id="Clip-16"></g>
                    <path d="M2.3584,4.9958 C2.4064,4.9988 2.4544,4.9998 2.5024,4.9998 C3.8254,4.9998 4.9214,3.9648 4.9964,2.6418 C5.0344,1.9748 4.8094,1.3338 4.3654,0.8358 C3.9204,0.3378 3.3094,0.0418 2.6424,0.0048 C1.2574,-0.0762 0.0824,0.9878 0.0044,2.3578 C-0.0746,3.7338 0.9824,4.9178 2.3584,4.9958" id="Fill-15" fill="#FF5553" mask="url(#mask-2)"></path>
                </g>
                <path d="M2.6426,10.0049 C1.2576,9.9239 0.0816,10.9879 0.0046,12.3589 C-0.0744,13.7339 0.9826,14.9179 2.3586,14.9959 C2.4066,14.9989 2.4546,14.9999 2.5016,14.9999 C3.8256,14.9999 4.9206,13.9649 4.9966,12.6429 C5.0346,11.9759 4.8096,11.3339 4.3656,10.8359 C3.9206,10.3379 3.3096,10.0419 2.6426,10.0049" id="Fill-18" fill="#FF5553"></path>
                <path d="M72.6426,10.0049 C71.2576,9.9239 70.0816,10.9879 70.0046,12.3589 C69.9256,13.7339 70.9826,14.9179 72.3586,14.9959 C72.4066,14.9989 72.4546,14.9999 72.5016,14.9999 C73.8256,14.9999 74.9206,13.9649 74.9966,12.6429 C75.0346,11.9759 74.8096,11.3339 74.3656,10.8359 C73.9206,10.3379 73.3096,10.0419 72.6426,10.0049" id="Fill-20" fill="#FF5553"></path>
                <path d="M82.6426,10.0049 C81.2576,9.9239 80.0816,10.9879 80.0046,12.3589 C79.9256,13.7339 80.9826,14.9179 82.3586,14.9959 C82.4066,14.9989 82.4546,14.9999 82.5016,14.9999 C83.8256,14.9999 84.9206,13.9649 84.9966,12.6429 C85.0346,11.9759 84.8096,11.3339 84.3656,10.8359 C83.9206,10.3379 83.3096,10.0419 82.6426,10.0049" id="Fill-22" fill="#FF5553"></path>
                <g id="Group-26" transform="translate(90.000000, 10.000300)">
                    <mask id="mask-4" fill="white">
                        <use xlink:href="#path-3"></use>
                    </mask>
                    <g id="Clip-25"></g>
                    <path d="M2.6426,0.0046 C1.2576,-0.0764 0.0816,0.9876 0.0046,2.3586 C-0.0744,3.7336 0.9826,4.9176 2.3586,4.9956 C2.4066,4.9986 2.4546,4.9996 2.5016,4.9996 C3.8256,4.9996 4.9206,3.9646 4.9966,2.6426 C5.0346,1.9756 4.8096,1.3336 4.3656,0.8356 C3.9206,0.3376 3.3096,0.0416 2.6426,0.0046" id="Fill-24" fill="#FF5553" mask="url(#mask-4)"></path>
                </g>
                <path d="M42.6426,20.0049 C41.2576,19.9239 40.0816,20.9879 40.0046,22.3589 C39.9256,23.7339 40.9826,24.9179 42.3586,24.9959 C42.4066,24.9989 42.4546,24.9999 42.5016,24.9999 C43.8256,24.9999 44.9206,23.9649 44.9966,22.6429 C45.0346,21.9759 44.8096,21.3339 44.3656,20.8359 C43.9206,20.3379 43.3096,20.0419 42.6426,20.0049" id="Fill-27" fill="#FF5553"></path>
                <path d="M52.6426,20.0049 C51.2576,19.9239 50.0816,20.9879 50.0046,22.3589 C49.9256,23.7339 50.9826,24.9179 52.3586,24.9959 C52.4066,24.9989 52.4546,24.9999 52.5016,24.9999 C53.8256,24.9999 54.9206,23.9649 54.9966,22.6429 C55.0346,21.9759 54.8096,21.3339 54.3656,20.8359 C53.9206,20.3379 53.3096,20.0419 52.6426,20.0049" id="Fill-29" fill="#FF5553"></path>
                <g id="Group-33" transform="translate(90.000000, 20.000300)">
                    <mask id="mask-6" fill="white">
                        <use xlink:href="#path-5"></use>
                    </mask>
                    <g id="Clip-32"></g>
                    <path d="M2.6426,0.0046 C1.2576,-0.0764 0.0816,0.9876 0.0046,2.3586 C-0.0744,3.7336 0.9826,4.9176 2.3586,4.9956 C2.4066,4.9986 2.4546,4.9996 2.5016,4.9996 C3.8256,4.9996 4.9206,3.9646 4.9966,2.6426 C5.0346,1.9756 4.8096,1.3336 4.3656,0.8356 C3.9206,0.3376 3.3096,0.0416 2.6426,0.0046" id="Fill-31" fill="#FF5553" mask="url(#mask-6)"></path>
                </g>
                <path d="M42.6426,30.0049 C41.2576,29.9239 40.0816,30.9879 40.0046,32.3589 C39.9256,33.7339 40.9826,34.9179 42.3586,34.9959 C42.4066,34.9989 42.4546,34.9999 42.5016,34.9999 C43.8256,34.9999 44.9206,33.9649 44.9966,32.6429 C45.0346,31.9759 44.8096,31.3339 44.3656,30.8359 C43.9206,30.3379 43.3096,30.0419 42.6426,30.0049" id="Fill-34" fill="#FF5553"></path>
                <path d="M52.6426,30.0049 C51.2576,29.9239 50.0816,30.9879 50.0046,32.3589 C49.9256,33.7339 50.9826,34.9179 52.3586,34.9959 C52.4066,34.9989 52.4546,34.9999 52.5016,34.9999 C53.8256,34.9999 54.9206,33.9649 54.9966,32.6429 C55.0346,31.9759 54.8096,31.3339 54.3656,30.8359 C53.9206,30.3379 53.3096,30.0419 52.6426,30.0049" id="Fill-36" fill="#FF5553"></path>
                <path d="M62.6426,30.0049 C61.2576,29.9239 60.0816,30.9879 60.0046,32.3589 C59.9256,33.7339 60.9826,34.9179 62.3586,34.9959 C62.4066,34.9989 62.4546,34.9999 62.5016,34.9999 C63.8256,34.9999 64.9206,33.9649 64.9966,32.6429 C65.0346,31.9759 64.8096,31.3339 64.3656,30.8359 C63.9206,30.3379 63.3096,30.0419 62.6426,30.0049" id="Fill-38" fill="#FF5553"></path>
                <g id="Group-42" transform="translate(90.000000, 30.000300)">
                    <mask id="mask-8" fill="white">
                        <use xlink:href="#path-7"></use>
                    </mask>
                    <g id="Clip-41"></g>
                    <path d="M2.6426,0.0046 C1.2576,-0.0764 0.0816,0.9876 0.0046,2.3586 C-0.0744,3.7336 0.9826,4.9176 2.3586,4.9956 C2.4066,4.9986 2.4546,4.9996 2.5016,4.9996 C3.8256,4.9996 4.9206,3.9646 4.9966,2.6426 C5.0346,1.9756 4.8096,1.3336 4.3656,0.8356 C3.9206,0.3376 3.3096,0.0416 2.6426,0.0046" id="Fill-40" fill="#FF5553" mask="url(#mask-8)"></path>
                </g>
                <path d="M12.6426,40.0049 C11.2576,39.9239 10.0816,40.9879 10.0046,42.3589 C9.9256,43.7339 10.9826,44.9179 12.3586,44.9959 C12.4066,44.9989 12.4546,44.9999 12.5016,44.9999 C13.8256,44.9999 14.9206,43.9649 14.9966,42.6429 C15.0346,41.9759 14.8096,41.3339 14.3656,40.8359 C13.9206,40.3379 13.3096,40.0419 12.6426,40.0049" id="Fill-43" fill="#FF5553"></path>
                <path d="M22.6426,40.0049 C21.2576,39.9239 20.0816,40.9879 20.0046,42.3589 C19.9256,43.7339 20.9826,44.9179 22.3586,44.9959 C22.4066,44.9989 22.4546,44.9999 22.5016,44.9999 C23.8256,44.9999 24.9206,43.9649 24.9966,42.6429 C25.0346,41.9759 24.8096,41.3339 24.3656,40.8359 C23.9206,40.3379 23.3096,40.0419 22.6426,40.0049" id="Fill-45" fill="#FF5553"></path>
                <path d="M32.6426,40.0049 C31.2576,39.9239 30.0816,40.9879 30.0046,42.3589 C29.9256,43.7339 30.9826,44.9179 32.3586,44.9959 C32.4066,44.9989 32.4546,44.9999 32.5016,44.9999 C33.8256,44.9999 34.9206,43.9649 34.9966,42.6429 C35.0346,41.9759 34.8096,41.3339 34.3656,40.8359 C33.9206,40.3379 33.3096,40.0419 32.6426,40.0049" id="Fill-47" fill="#FF5553"></path>
                <path d="M42.6426,40.0049 C41.2576,39.9239 40.0816,40.9879 40.0046,42.3589 C39.9256,43.7339 40.9826,44.9179 42.3586,44.9959 C42.4066,44.9989 42.4546,44.9999 42.5016,44.9999 C43.8256,44.9999 44.9206,43.9649 44.9966,42.6429 C45.0346,41.9759 44.8096,41.3339 44.3656,40.8359 C43.9206,40.3379 43.3096,40.0419 42.6426,40.0049" id="Fill-49" fill="#FF5553"></path>
                <path d="M52.6426,40.0049 C51.2576,39.9239 50.0816,40.9879 50.0046,42.3589 C49.9256,43.7339 50.9826,44.9179 52.3586,44.9959 C52.4066,44.9989 52.4546,44.9999 52.5016,44.9999 C53.8256,44.9999 54.9206,43.9649 54.9966,42.6429 C55.0346,41.9759 54.8096,41.3339 54.3656,40.8359 C53.9206,40.3379 53.3096,40.0419 52.6426,40.0049" id="Fill-51" fill="#FF5553"></path>
                <path d="M12.6426,50.0049 C11.2576,49.9239 10.0816,50.9879 10.0046,52.3589 C9.9256,53.7339 10.9826,54.9179 12.3586,54.9959 C12.4066,54.9989 12.4546,54.9999 12.5016,54.9999 C13.8256,54.9999 14.9206,53.9649 14.9966,52.6429 C15.0346,51.9759 14.8096,51.3339 14.3656,50.8359 C13.9206,50.3379 13.3096,50.0419 12.6426,50.0049" id="Fill-53" fill="#FF5553"></path>
                <path d="M42.6426,50.0049 C41.2576,49.9239 40.0816,50.9879 40.0046,52.3589 C39.9256,53.7339 40.9826,54.9179 42.3586,54.9959 C42.4066,54.9989 42.4546,54.9999 42.5016,54.9999 C43.8256,54.9999 44.9206,53.9649 44.9966,52.6429 C45.0346,51.9759 44.8096,51.3339 44.3656,50.8359 C43.9206,50.3379 43.3096,50.0419 42.6426,50.0049" id="Fill-55" fill="#FF5553"></path>
                <path d="M52.6426,50.0049 C51.2576,49.9239 50.0816,50.9879 50.0046,52.3589 C49.9256,53.7339 50.9826,54.9179 52.3586,54.9959 C52.4066,54.9989 52.4546,54.9999 52.5016,54.9999 C53.8256,54.9999 54.9206,53.9649 54.9966,52.6429 C55.0346,51.9759 54.8096,51.3339 54.3656,50.8359 C53.9206,50.3379 53.3096,50.0419 52.6426,50.0049" id="Fill-57" fill="#FF5553"></path>
                <path d="M42.6426,60.0049 C41.2576,59.9239 40.0816,60.9879 40.0046,62.3589 C39.9256,63.7339 40.9826,64.9179 42.3586,64.9959 C42.4066,64.9989 42.4546,64.9999 42.5016,64.9999 C43.8256,64.9999 44.9206,63.9649 44.9966,62.6429 C45.0346,61.9759 44.8096,61.3339 44.3656,60.8359 C43.9206,60.3379 43.3096,60.0419 42.6426,60.0049" id="Fill-59" fill="#FF5553"></path>
                <path d="M52.6426,60.0049 C51.2576,59.9239 50.0816,60.9879 50.0046,62.3589 C49.9256,63.7339 50.9826,64.9179 52.3586,64.9959 C52.4066,64.9989 52.4546,64.9999 52.5016,64.9999 C53.8256,64.9999 54.9206,63.9649 54.9966,62.6429 C55.0346,61.9759 54.8096,61.3339 54.3656,60.8359 C53.9206,60.3379 53.3096,60.0419 52.6426,60.0049" id="Fill-61" fill="#FF5553"></path>
                <path d="M62.6426,60.0049 C61.2576,59.9239 60.0816,60.9879 60.0046,62.3589 C59.9256,63.7339 60.9826,64.9179 62.3586,64.9959 C62.4066,64.9989 62.4546,64.9999 62.5016,64.9999 C63.8256,64.9999 64.9206,63.9649 64.9966,62.6429 C65.0346,61.9759 64.8096,61.3339 64.3656,60.8359 C63.9206,60.3379 63.3096,60.0419 62.6426,60.0049" id="Fill-63" fill="#FF5553"></path>
                <path d="M82.6426,60.0049 C81.2576,59.9239 80.0816,60.9879 80.0046,62.3589 C79.9256,63.7339 80.9826,64.9179 82.3586,64.9959 C82.4066,64.9989 82.4546,64.9999 82.5016,64.9999 C83.8256,64.9999 84.9206,63.9649 84.9966,62.6429 C85.0346,61.9759 84.8096,61.3339 84.3656,60.8359 C83.9206,60.3379 83.3096,60.0419 82.6426,60.0049" id="Fill-65" fill="#FF5553"></path>
                <g id="Group-69" transform="translate(90.000000, 60.000300)">
                    <mask id="mask-10" fill="white">
                        <use xlink:href="#path-9"></use>
                    </mask>
                    <g id="Clip-68"></g>
                    <path d="M2.6426,0.0046 C1.2576,-0.0764 0.0816,0.9876 0.0046,2.3586 C-0.0744,3.7336 0.9826,4.9176 2.3586,4.9956 C2.4066,4.9986 2.4546,4.9996 2.5016,4.9996 C3.8256,4.9996 4.9206,3.9646 4.9966,2.6426 C5.0346,1.9756 4.8096,1.3336 4.3656,0.8356 C3.9206,0.3376 3.3096,0.0416 2.6426,0.0046" id="Fill-67" fill="#FF5553" mask="url(#mask-10)"></path>
                </g>
                <path d="M2.6426,70.0049 C1.2576,69.9239 0.0816,70.9879 0.0046,72.3589 C-0.0744,73.7339 0.9826,74.9179 2.3586,74.9959 C2.4066,74.9989 2.4546,74.9999 2.5016,74.9999 C3.8256,74.9999 4.9206,73.9649 4.9966,72.6429 C5.0346,71.9759 4.8096,71.3339 4.3656,70.8359 C3.9206,70.3379 3.3096,70.0419 2.6426,70.0049" id="Fill-70" fill="#FF5553"></path>
                <path d="M82.6426,70.0049 C81.2576,69.9239 80.0816,70.9879 80.0046,72.3589 C79.9256,73.7339 80.9826,74.9179 82.3586,74.9959 C82.4066,74.9989 82.4546,74.9999 82.5016,74.9999 C83.8256,74.9999 84.9206,73.9649 84.9966,72.6429 C85.0346,71.9759 84.8096,71.3339 84.3656,70.8359 C83.9206,70.3379 83.3096,70.0419 82.6426,70.0049" id="Fill-72" fill="#FF5553"></path>
                <g id="Group-76" transform="translate(90.000000, 70.000300)">
                    <mask id="mask-12" fill="white">
                        <use xlink:href="#path-11"></use>
                    </mask>
                    <g id="Clip-75"></g>
                    <path d="M2.6426,0.0046 C1.2576,-0.0764 0.0816,0.9876 0.0046,2.3586 C-0.0744,3.7336 0.9826,4.9176 2.3586,4.9956 C2.4066,4.9986 2.4546,4.9996 2.5016,4.9996 C3.8256,4.9996 4.9206,3.9646 4.9966,2.6426 C5.0346,1.9756 4.8096,1.3336 4.3656,0.8356 C3.9206,0.3376 3.3096,0.0416 2.6426,0.0046" id="Fill-74" fill="#FF5553" mask="url(#mask-12)"></path>
                </g>
                <path d="M2.6426,80.0049 C1.2576,79.9239 0.0816,80.9879 0.0046,82.3589 C-0.0744,83.7339 0.9826,84.9179 2.3586,84.9959 C2.4066,84.9989 2.4546,84.9999 2.5016,84.9999 C3.8256,84.9999 4.9206,83.9649 4.9966,82.6429 C5.0346,81.9759 4.8096,81.3339 4.3656,80.8359 C3.9206,80.3379 3.3096,80.0419 2.6426,80.0049" id="Fill-77" fill="#FF5553"></path>
                <path d="M52.6426,80.0049 C51.2576,79.9239 50.0816,80.9879 50.0046,82.3589 C49.9256,83.7339 50.9826,84.9179 52.3586,84.9959 C52.4066,84.9989 52.4546,84.9999 52.5016,84.9999 C53.8256,84.9999 54.9206,83.9649 54.9966,82.6429 C55.0346,81.9759 54.8096,81.3339 54.3656,80.8359 C53.9206,80.3379 53.3096,80.0419 52.6426,80.0049" id="Fill-79" fill="#FF5553"></path>
                <path d="M62.6426,80.0049 C61.2576,79.9239 60.0816,80.9879 60.0046,82.3589 C59.9256,83.7339 60.9826,84.9179 62.3586,84.9959 C62.4066,84.9989 62.4546,84.9999 62.5016,84.9999 C63.8256,84.9999 64.9206,83.9649 64.9966,82.6429 C65.0346,81.9759 64.8096,81.3339 64.3656,80.8359 C63.9206,80.3379 63.3096,80.0419 62.6426,80.0049" id="Fill-81" fill="#FF5553"></path>
                <path d="M72.6426,80.0049 C71.2576,79.9239 70.0816,80.9879 70.0046,82.3589 C69.9256,83.7339 70.9826,84.9179 72.3586,84.9959 C72.4066,84.9989 72.4546,84.9999 72.5016,84.9999 C73.8256,84.9999 74.9206,83.9649 74.9966,82.6429 C75.0346,81.9759 74.8096,81.3339 74.3656,80.8359 C73.9206,80.3379 73.3096,80.0419 72.6426,80.0049" id="Fill-83" fill="#FF5553"></path>
                <path d="M82.6426,80.0049 C81.2576,79.9239 80.0816,80.9879 80.0046,82.3589 C79.9256,83.7339 80.9826,84.9179 82.3586,84.9959 C82.4066,84.9989 82.4546,84.9999 82.5016,84.9999 C83.8256,84.9999 84.9206,83.9649 84.9966,82.6429 C85.0346,81.9759 84.8096,81.3339 84.3656,80.8359 C83.9206,80.3379 83.3096,80.0419 82.6426,80.0049" id="Fill-85" fill="#FF5553"></path>
                <g id="Group-89" transform="translate(90.000000, 80.000300)">
                    <mask id="mask-14" fill="white">
                        <use xlink:href="#path-13"></use>
                    </mask>
                    <g id="Clip-88"></g>
                    <path d="M2.6426,0.0046 C1.2576,-0.0764 0.0816,0.9876 0.0046,2.3586 C-0.0744,3.7336 0.9826,4.9176 2.3586,4.9956 C2.4066,4.9986 2.4546,4.9996 2.5016,4.9996 C3.8256,4.9996 4.9206,3.9646 4.9966,2.6426 C5.0346,1.9756 4.8096,1.3336 4.3656,0.8356 C3.9206,0.3376 3.3096,0.0416 2.6426,0.0046" id="Fill-87" fill="#FF5553" mask="url(#mask-14)"></path>
                </g>
                <mask id="mask-16" fill="white">
                    <use xlink:href="#path-15"></use>
                </mask>
                <g id="Clip-91"></g>
                <path d="M15,10.0003 L20,10.0003 L20,5.0003 L15,5.0003 L15,10.0003 Z M12.5,15.0003 L22.5,15.0003 C23.881,15.0003 25,13.8813 25,12.5003 L25,2.5003 C25,1.1193 23.881,0.0003 22.5,0.0003 L12.5,0.0003 C11.119,0.0003 10,1.1193 10,2.5003 L10,12.5003 C10,13.8813 11.119,15.0003 12.5,15.0003 L12.5,15.0003 Z" id="Fill-90" fill="#0033AD" mask="url(#mask-16)"></path>
                <path d="M75,30.0003 L80,30.0003 L80,25.0003 L75,25.0003 L75,30.0003 Z M72.5,35.0003 L82.5,35.0003 C83.881,35.0003 85,33.8813 85,32.5003 L85,22.5003 C85,21.1193 83.881,20.0003 82.5,20.0003 L72.5,20.0003 C71.119,20.0003 70,21.1193 70,22.5003 L70,32.5003 C70,33.8813 71.119,35.0003 72.5,35.0003 L72.5,35.0003 Z" id="Fill-92" fill="#0033AD" mask="url(#mask-16)"></path>
                <path d="M25,60.0003 L30,60.0003 L30,55.0003 L25,55.0003 L25,60.0003 Z M32.5,50.0003 L22.5,50.0003 C21.119,50.0003 20,51.1193 20,52.5003 L20,62.5003 C20,63.8813 21.119,65.0003 22.5,65.0003 L32.5,65.0003 C33.881,65.0003 35,63.8813 35,62.5003 L35,52.5003 C35,51.1193 33.881,50.0003 32.5,50.0003 L32.5,50.0003 Z" id="Fill-93" fill="#0033AD" mask="url(#mask-16)"></path>
                <path d="M5,30.0003 L30,30.0003 L30,25.0003 L5,25.0003 L5,30.0003 Z M2.5,35.0003 L32.5,35.0003 C33.881,35.0003 35,33.8813 35,32.5003 L35,22.5003 C35,21.1193 33.881,20.0003 32.5,20.0003 L2.5,20.0003 C1.119,20.0003 0,21.1193 0,22.5003 L0,32.5003 C0,33.8813 1.119,35.0003 2.5,35.0003 L2.5,35.0003 Z" id="Fill-94" fill="#0033AD" mask="url(#mask-16)"></path>
                <path d="M65,50.0003 L90,50.0003 L90,45.0003 L65,45.0003 L65,50.0003 Z M92.5,40.0003 L62.5,40.0003 C61.119,40.0003 60,41.1193 60,42.5003 L60,52.5003 C60,53.8813 61.119,55.0003 62.5,55.0003 L92.5,55.0003 C93.881,55.0003 95,53.8813 95,52.5003 L95,42.5003 C95,41.1193 93.881,40.0003 92.5,40.0003 L92.5,40.0003 Z" id="Fill-95" fill="#0033AD" mask="url(#mask-16)"></path>
                <path d="M15,80.0003 L40,80.0003 L40,75.0003 L15,75.0003 L15,80.0003 Z M42.5,70.0003 L12.5,70.0003 C11.119,70.0003 10,71.1193 10,72.5003 L10,82.5003 C10,83.8813 11.119,85.0003 12.5,85.0003 L42.5,85.0003 C43.881,85.0003 45,83.8813 45,82.5003 L45,72.5003 C45,71.1193 43.881,70.0003 42.5,70.0003 L42.5,70.0003 Z" id="Fill-96" fill="#0033AD" mask="url(#mask-16)"></path>
                <path d="M72.5,60 C71.119,60 70,61.119 70,62.5 L70,70 L52.5,70 C51.119,70 50,71.119 50,72.5 C50,73.881 51.119,75 52.5,75 L72.5,75 C73.881,75 75,73.881 75,72.5 L75,62.5 C75,61.119 73.881,60 72.5,60" id="Fill-97" fill="#0033AD" mask="url(#mask-16)"></path>
                <path d="M15,62.5 C15,61.119 13.881,60 12.5,60 L5,60 L5,42.5 C5,41.119 3.881,40 2.5,40 C1.119,40 0,41.119 0,42.5 L0,62.5 C0,63.881 1.119,65 2.5,65 L12.5,65 C13.881,65 15,63.881 15,62.5" id="Fill-98" fill="#0033AD" mask="url(#mask-16)"></path>
                <path d="M32.5,15 L60,15 L60,22.5 C60,23.881 61.119,25 62.5,25 C63.881,25 65,23.881 65,22.5 L65,12.5 C65,11.119 63.881,10 62.5,10 L32.5,10 C31.119,10 30,11.119 30,12.5 C30,13.881 31.119,15 32.5,15" id="Fill-99" fill="#0033AD" mask="url(#mask-16)"></path>
            </g>
        </g>
    </g>
</svg>