<svg xmlns="http://www.w3.org/2000/svg" xmlns:xlink="http://www.w3.org/1999/xlink" width="68" height="61">
  <defs>
    <path id="a" d="M0 0h17.895v32.294H0z"/>
    <path id="c" d="M0 0h3.579v3.588H0z"/>
    <path id="e" d="M0 0h3.579v3.588H0z"/>
    <path id="g" d="M0 0h3.579v3.588H0z"/>
    <path id="i" d="M0 0h3.579v3.588H0z"/>
    <path id="k" d="M0 0h3.579v3.588H0z"/>
    <path id="m" d="M0 0h3.579v3.588H0z"/>
    <path id="o" d="M0 0h3.579v3.588H0z"/>
    <path id="q" d="M0 0h3.579v3.588H0z"/>
    <path id="s" d="M0 0h3.579v3.588H0z"/>
    <path id="u" d="M0 0h3.579v3.588H0z"/>
    <path id="w" d="M0 0h3.579v3.588H0z"/>
    <path id="y" d="M0 0h3.579v3.588H0z"/>
    <path id="A" d="M0 0h3.579v3.588H0z"/>
    <path id="C" d="M0 0h3.579v3.588H0z"/>
    <path id="E" d="M0 0h3.579v3.588H0z"/>
  </defs>
  <g fill="none" fill-rule="evenodd">
    <path fill="#0033AD" d="M42.947 57.412H25.053V10.765h17.894v46.647zM32.211 7.176h3.579V3.588h-3.58v3.588zm12.526 0h-5.369V1.794c0-.991-.8-1.794-1.789-1.794h-7.158c-.988 0-1.79.803-1.79 1.794v5.382h-5.368c-.988 0-1.79.804-1.79 1.795v50.235c0 .991.802 1.794 1.79 1.794h21.474c.988 0 1.79-.803 1.79-1.794V8.97c0-.991-.802-1.795-1.79-1.795z"/>
    <path fill="#0033AD" d="M30.421 14.353c-.988 0-1.79.803-1.79 1.794s.802 1.794 1.79 1.794h7.158c.989 0 1.79-.803 1.79-1.794s-.801-1.794-1.79-1.794h-7.158zm7.158 7.177h-7.158c-.988 0-1.79.802-1.79 1.794 0 .99.802 1.794 1.79 1.794h7.158c.989 0 1.79-.803 1.79-1.794 0-.992-.801-1.795-1.79-1.795m0 7.177h-7.158c-.988 0-1.79.803-1.79 1.794s.802 1.794 1.79 1.794h7.158c.989 0 1.79-.803 1.79-1.794s-.801-1.794-1.79-1.794m0 7.176h-7.158c-.988 0-1.79.803-1.79 1.794 0 .992.802 1.795 1.79 1.795h7.158c.989 0 1.79-.803 1.79-1.795 0-.99-.801-1.794-1.79-1.794m0 7.177h-7.158c-.988 0-1.79.803-1.79 1.794s.802 1.794 1.79 1.794h7.158c.989 0 1.79-.803 1.79-1.794s-.801-1.794-1.79-1.794m0 7.176h-7.158c-.988 0-1.79.803-1.79 1.794s.802 1.795 1.79 1.795h7.158c.989 0 1.79-.804 1.79-1.795 0-.99-.801-1.794-1.79-1.794M17.84 15.726a1.73 1.73 0 00-.067-.215c-.012-.032-.022-.064-.036-.094a1.945 1.945 0 00-.145-.27c-.006-.007-.014-.015-.02-.025a1.897 1.897 0 00-.178-.215c-.021-.023-.046-.044-.069-.066a1.8 1.8 0 00-.17-.142c-.028-.02-.054-.04-.083-.058a1.797 1.797 0 00-.225-.123c-.018-.008-.036-.02-.054-.027 0 0-.002 0-.003-.002-.003-.001-.007 0-.01-.002a1.764 1.764 0 00-.443-.11 1.656 1.656 0 00-.121-.013c-.037-.002-.073-.011-.11-.011H8.948c-.989 0-1.79.803-1.79 1.794s.801 1.794 1.79 1.794h2.838L.524 29.231a1.799 1.799 0 000 2.537L14.84 46.121a1.782 1.782 0 002.53 0c.7-.7.7-1.836 0-2.537L4.32 30.5l9.996-10.022v2.846c0 .99.801 1.794 1.79 1.794.988 0 1.79-.803 1.79-1.794v-7.177c0-.11-.015-.217-.034-.322-.006-.034-.014-.066-.022-.1"/>
    <g transform="translate(50.105 14.353)">
      <mask id="b" fill="#fff">
        <use xlink:href="#a"/>
      </mask>
      <path fill="#0033AD" d="M17.37 14.879L3.056.526a1.783 1.783 0 00-2.53 0c-.7.7-.7 1.836 0 2.536l13.05 13.085L3.579 26.17v-2.845c0-.991-.801-1.794-1.79-1.794-.988 0-1.79.803-1.79 1.794V30.5c0 .11.014.217.033.323.006.033.015.066.023.098.018.074.04.146.066.215.013.032.023.063.037.094.041.093.089.184.145.269l.022.027a1.71 1.71 0 00.416.422c.028.02.053.04.082.058.072.047.15.089.23.125.017.008.031.017.048.024l.003.002c.03.013.061.018.091.028.08.028.16.057.243.074.116.023.234.035.35.035h7.16c.989 0 1.79-.803 1.79-1.794 0-.99-.801-1.794-1.79-1.794H6.11l11.26-11.29c.7-.701.7-1.836 0-2.537" mask="url(#b)"/>
    </g>
    <mask id="d" fill="#fff">
      <use xlink:href="#c"/>
    </mask>
    <path fill="#FF5553" d="M1.891.003a1.794 1.794 0 00-.203 3.582l.102.003c.948 0 1.732-.743 1.786-1.691A1.79 1.79 0 001.89.003" mask="url(#d)"/>
    <g transform="translate(7.158)">
      <mask id="f" fill="#fff">
        <use xlink:href="#e"/>
      </mask>
      <path fill="#FF5553" d="M1.891.003a1.794 1.794 0 00-.203 3.582l.102.003c.948 0 1.732-.743 1.786-1.691A1.79 1.79 0 001.89.003" mask="url(#f)"/>
    </g>
    <g transform="translate(14.316)">
      <mask id="h" fill="#fff">
        <use xlink:href="#g"/>
      </mask>
      <path fill="#FF5553" d="M1.891.003a1.794 1.794 0 00-.203 3.582l.102.003c.948 0 1.732-.743 1.786-1.691A1.79 1.79 0 001.89.003" mask="url(#h)"/>
    </g>
    <g transform="translate(21.474)">
      <mask id="j" fill="#fff">
        <use xlink:href="#i"/>
      </mask>
      <path fill="#FF5553" d="M1.891.003a1.794 1.794 0 00-.203 3.582l.102.003c.948 0 1.732-.743 1.786-1.691A1.79 1.79 0 001.89.003" mask="url(#j)"/>
    </g>
    <g transform="translate(42.947)">
      <mask id="l" fill="#fff">
        <use xlink:href="#k"/>
      </mask>
      <path fill="#FF5553" d="M1.89.003a1.79 1.79 0 00-1.886 1.69 1.794 1.794 0 001.788 1.895c.947 0 1.731-.743 1.785-1.691A1.782 1.782 0 003.126.6 1.781 1.781 0 001.89.003" mask="url(#l)"/>
    </g>
    <g transform="translate(50.105)">
      <mask id="n" fill="#fff">
        <use xlink:href="#m"/>
      </mask>
      <path fill="#FF5553" d="M1.89.003a1.79 1.79 0 00-1.886 1.69 1.794 1.794 0 001.788 1.895c.947 0 1.731-.743 1.785-1.691A1.782 1.782 0 003.126.6 1.781 1.781 0 001.89.003" mask="url(#n)"/>
    </g>
    <g transform="translate(57.263)">
      <mask id="p" fill="#fff">
        <use xlink:href="#o"/>
      </mask>
      <path fill="#FF5553" d="M1.89.003a1.79 1.79 0 00-1.886 1.69 1.794 1.794 0 001.788 1.895c.947 0 1.731-.743 1.785-1.691A1.782 1.782 0 003.126.6 1.781 1.781 0 001.89.003" mask="url(#p)"/>
    </g>
    <g transform="translate(64.421)">
      <mask id="r" fill="#fff">
        <use xlink:href="#q"/>
      </mask>
      <path fill="#FF5553" d="M1.89.003a1.79 1.79 0 00-1.886 1.69 1.794 1.794 0 001.788 1.895c.947 0 1.731-.743 1.785-1.691A1.782 1.782 0 003.126.6 1.781 1.781 0 001.89.003" mask="url(#r)"/>
    </g>
    <path fill="#FF5553" d="M1.891 7.18A1.788 1.788 0 00.003 8.868c-.056.987.7 1.837 1.685 1.893l.102.003c.948 0 1.732-.743 1.786-1.692a1.79 1.79 0 00-1.685-1.894m7.159.002a1.792 1.792 0 00-1.89 1.689c-.055.987.7 1.837 1.686 1.893l.102.003c.948 0 1.732-.743 1.786-1.692a1.787 1.787 0 00-.452-1.297 1.769 1.769 0 00-1.233-.597m7.158.001a1.795 1.795 0 00-.203 3.582l.102.003c.948 0 1.732-.743 1.786-1.692a1.787 1.787 0 00-.452-1.297 1.77 1.77 0 00-1.233-.597m35.789.001a1.795 1.795 0 10-.1 3.585c.948 0 1.731-.743 1.785-1.692a1.785 1.785 0 00-.45-1.297 1.779 1.779 0 00-1.235-.597m7.158.001a1.795 1.795 0 10-.1 3.585c.948 0 1.731-.743 1.785-1.692a1.785 1.785 0 00-.45-1.297 1.78 1.78 0 00-1.235-.597"/>
    <g transform="translate(64.421 7.176)">
      <mask id="t" fill="#fff">
        <use xlink:href="#s"/>
      </mask>
      <path fill="#FF5553" d="M1.89.003a1.79 1.79 0 00-1.886 1.69 1.794 1.794 0 001.788 1.895c.947 0 1.731-.743 1.785-1.691A1.782 1.782 0 003.126.6 1.781 1.781 0 001.89.003" mask="url(#t)"/>
    </g>
    <path fill="#FF5553" d="M1.891 14.356a1.794 1.794 0 00-.203 3.582l.102.003c.948 0 1.732-.743 1.786-1.691a1.789 1.789 0 00-1.685-1.894m57.263 0a1.794 1.794 0 10-.1 3.585 1.79 1.79 0 001.785-1.691c.028-.48-.133-.94-.45-1.297a1.78 1.78 0 00-1.235-.597"/>
    <g transform="translate(64.421 14.353)">
      <mask id="v" fill="#fff">
        <use xlink:href="#u"/>
      </mask>
      <path fill="#FF5553" d="M1.89.003a1.79 1.79 0 00-1.886 1.69 1.794 1.794 0 001.788 1.895c.947 0 1.731-.743 1.785-1.691A1.782 1.782 0 003.126.6 1.781 1.781 0 001.89.003" mask="url(#v)"/>
    </g>
    <path fill="#FF5553" d="M1.891 21.532a1.795 1.795 0 00-.203 3.583l.102.003c.948 0 1.732-.743 1.786-1.692a1.79 1.79 0 00-1.685-1.894m50.105 0a1.795 1.795 0 10-.1 3.586c.948 0 1.731-.743 1.785-1.692a1.785 1.785 0 00-.45-1.297 1.779 1.779 0 00-1.235-.597"/>
    <g transform="translate(64.421 21.53)">
      <mask id="x" fill="#fff">
        <use xlink:href="#w"/>
      </mask>
      <path fill="#FF5553" d="M1.89.003a1.79 1.79 0 00-1.886 1.69 1.794 1.794 0 001.788 1.895c.947 0 1.731-.743 1.785-1.691A1.782 1.782 0 003.126.6 1.781 1.781 0 001.89.003" mask="url(#x)"/>
    </g>
    <path fill="#FF5553" d="M9.05 28.709a1.795 1.795 0 00-.204 3.582l.102.003a1.792 1.792 0 001.334-2.988 1.769 1.769 0 00-1.233-.597m7.158 0a1.794 1.794 0 00-.203 3.582l.102.003a1.792 1.792 0 001.334-2.988 1.77 1.77 0 00-1.233-.597m35.789 0a1.794 1.794 0 10-.1 3.585 1.79 1.79 0 001.785-1.691c.028-.48-.133-.94-.45-1.297a1.779 1.779 0 00-1.235-.597m7.158 0a1.794 1.794 0 10-.1 3.585 1.79 1.79 0 001.785-1.691c.028-.48-.133-.94-.45-1.297a1.78 1.78 0 00-1.235-.597M1.891 35.885a1.795 1.795 0 00-.203 3.583l.102.003c.948 0 1.732-.743 1.786-1.692a1.79 1.79 0 00-1.685-1.894m14.316 0a1.795 1.795 0 00-.203 3.583l.102.003c.948 0 1.732-.743 1.786-1.692a1.787 1.787 0 00-.452-1.297 1.77 1.77 0 00-1.233-.597"/>
    <g transform="translate(64.421 35.882)">
      <mask id="z" fill="#fff">
        <use xlink:href="#y"/>
      </mask>
      <path fill="#FF5553" d="M1.89.003a1.79 1.79 0 00-1.886 1.69 1.794 1.794 0 001.788 1.895c.947 0 1.731-.743 1.785-1.691A1.782 1.782 0 003.126.6 1.781 1.781 0 001.89.003" mask="url(#z)"/>
    </g>
    <path fill="#FF5553" d="M1.891 43.062A1.79 1.79 0 00.003 44.75c-.056.987.7 1.837 1.685 1.893l.102.003c.948 0 1.732-.743 1.786-1.692a1.788 1.788 0 00-.451-1.296 1.773 1.773 0 00-1.234-.597m7.159.001a1.792 1.792 0 00-1.89 1.689c-.055.987.7 1.837 1.686 1.893l.102.003a1.792 1.792 0 001.334-2.988 1.769 1.769 0 00-1.233-.597"/>
    <g transform="translate(64.421 43.059)">
      <mask id="B" fill="#fff">
        <use xlink:href="#A"/>
      </mask>
      <path fill="#FF5553" d="M1.89.003a1.79 1.79 0 00-1.886 1.69 1.794 1.794 0 001.788 1.895c.947 0 1.731-.743 1.785-1.691A1.782 1.782 0 003.126.6 1.781 1.781 0 001.89.003" mask="url(#B)"/>
    </g>
    <path fill="#FF5553" d="M1.891 50.238a1.795 1.795 0 00-.203 3.583c.034.002.069.002.102.002.948 0 1.732-.742 1.786-1.691a1.79 1.79 0 00-1.685-1.894m7.159 0a1.796 1.796 0 00-.204 3.583c.034.002.069.002.102.002.948 0 1.732-.742 1.786-1.691a1.787 1.787 0 00-.452-1.297 1.769 1.769 0 00-1.233-.597m7.158 0a1.795 1.795 0 00-.203 3.583c.034.002.068.002.102.002.948 0 1.732-.742 1.786-1.691a1.787 1.787 0 00-.452-1.297 1.77 1.77 0 00-1.233-.597m35.789 0a1.795 1.795 0 10-.1 3.585 1.79 1.79 0 001.785-1.691 1.785 1.785 0 00-.45-1.297 1.779 1.779 0 00-1.235-.597m7.158 0a1.795 1.795 0 10-.1 3.585 1.79 1.79 0 001.785-1.691 1.785 1.785 0 00-.45-1.297 1.78 1.78 0 00-1.235-.597"/>
    <g transform="translate(64.421 50.235)">
      <mask id="D" fill="#fff">
        <use xlink:href="#C"/>
      </mask>
      <path fill="#FF5553" d="M1.89.003a1.79 1.79 0 00-1.886 1.69 1.794 1.794 0 001.788 1.895c.947 0 1.731-.743 1.785-1.691A1.782 1.782 0 003.126.6 1.781 1.781 0 001.89.003" mask="url(#D)"/>
    </g>
    <path fill="#FF5553" d="M1.891 57.415a1.795 1.795 0 00-.203 3.582L1.79 61c.948 0 1.732-.743 1.786-1.692a1.788 1.788 0 00-.451-1.296 1.773 1.773 0 00-1.234-.597m7.159 0a1.792 1.792 0 00-1.89 1.689c-.055.987.7 1.837 1.686 1.893l.102.003a1.792 1.792 0 001.334-2.988 1.769 1.769 0 00-1.233-.597m7.158 0a1.795 1.795 0 00-.203 3.582l.102.003a1.792 1.792 0 001.334-2.988 1.77 1.77 0 00-1.233-.597m35.789 0a1.795 1.795 0 10-.1 3.585c.948 0 1.731-.743 1.785-1.692a1.783 1.783 0 00-.45-1.296 1.779 1.779 0 00-1.235-.597m7.158 0a1.795 1.795 0 10-.1 3.585c.948 0 1.731-.743 1.785-1.692a1.783 1.783 0 00-.45-1.296 1.78 1.78 0 00-1.235-.597"/>
    <g transform="translate(64.421 57.412)">
      <mask id="F" fill="#fff">
        <use xlink:href="#E"/>
      </mask>
      <path fill="#FF5553" d="M1.89.003a1.79 1.79 0 00-1.886 1.69 1.794 1.794 0 001.788 1.895c.947 0 1.731-.743 1.785-1.691A1.782 1.782 0 003.126.6 1.781 1.781 0 001.89.003" mask="url(#F)"/>
    </g>
  </g>
</svg>
