<?xml version="1.0" encoding="UTF-8"?>
<svg width="95px" height="85px" viewBox="0 0 95 85" version="1.1" xmlns="http://www.w3.org/2000/svg" xmlns:xlink="http://www.w3.org/1999/xlink">
    <!-- Generator: Sketch 63.1 (92452) - https://sketch.com -->
    <title>icon_research</title>
    <desc>Created with Sketch.</desc>
    <defs>
        <polygon id="path-1" points="0.000338935353 0.00046453195 5 0.00046453195 5 4.9998 0.000338935353 4.9998"></polygon>
        <polygon id="path-3" points="0.000538935353 0.000264577992 5 0.000264577992 5 4.9996 0.000538935353 4.9996"></polygon>
        <polygon id="path-5" points="0.000538935353 0.000264577992 5 0.000264577992 5 4.9996 0.000538935353 4.9996"></polygon>
        <polygon id="path-7" points="0 84.9999 95 84.9999 95 -0.0001 0 -0.0001"></polygon>
    </defs>
    <g id="Cardano-Pages" stroke="none" stroke-width="1" fill="none" fill-rule="evenodd">
        <g id="Cardano---Home-Page" transform="translate(-1015.000000, -3036.000000)">
            <g id="icon_research" transform="translate(1015.000000, 3036.000000)">
                <path d="M2.6426,0.0045 C1.2576,-0.0765 0.0816,0.9875 0.0046,2.3585 C-0.0744,3.7335 0.9826,4.9175 2.3586,4.9955 C2.4066,4.9985 2.4546,4.9995 2.5016,4.9995 C3.8256,4.9995 4.9206,3.9645 4.9966,2.6425 C5.0346,1.9755 4.8096,1.3335 4.3656,0.8355 C3.9206,0.3375 3.3096,0.0415 2.6426,0.0045" id="Fill-1" fill="#FF5553"></path>
                <path d="M12.6426,0.0045 C11.2576,-0.0765 10.0816,0.9875 10.0046,2.3585 C9.9256,3.7335 10.9826,4.9175 12.3586,4.9955 C12.4066,4.9985 12.4546,4.9995 12.5016,4.9995 C13.8256,4.9995 14.9206,3.9645 14.9966,2.6425 C15.0346,1.9755 14.8096,1.3335 14.3656,0.8355 C13.9206,0.3375 13.3096,0.0415 12.6426,0.0045" id="Fill-3" fill="#FF5553"></path>
                <path d="M22.6426,0.0045 C21.2576,-0.0765 20.0816,0.9875 20.0046,2.3585 C19.9256,3.7335 20.9826,4.9175 22.3586,4.9955 C22.4066,4.9985 22.4546,4.9995 22.5016,4.9995 C23.8256,4.9995 24.9206,3.9645 24.9966,2.6425 C25.0346,1.9755 24.8096,1.3335 24.3656,0.8355 C23.9206,0.3375 23.3096,0.0415 22.6426,0.0045" id="Fill-5" fill="#FF5553"></path>
                <path d="M32.6426,0.0045 C31.2576,-0.0765 30.0816,0.9875 30.0046,2.3585 C29.9256,3.7335 30.9826,4.9175 32.3586,4.9955 C32.4066,4.9985 32.4546,4.9995 32.5016,4.9995 C33.8256,4.9995 34.9206,3.9645 34.9966,2.6425 C35.0346,1.9755 34.8096,1.3335 34.3656,0.8355 C33.9206,0.3375 33.3096,0.0415 32.6426,0.0045" id="Fill-7" fill="#FF5553"></path>
                <path d="M42.6426,0.0045 C41.2576,-0.0765 40.0816,0.9875 40.0046,2.3585 C39.9256,3.7335 40.9826,4.9175 42.3586,4.9955 C42.4066,4.9985 42.4546,4.9995 42.5016,4.9995 C43.8256,4.9995 44.9206,3.9645 44.9966,2.6425 C45.0346,1.9755 44.8096,1.3335 44.3656,0.8355 C43.9206,0.3375 43.3096,0.0415 42.6426,0.0045" id="Fill-9" fill="#FF5553"></path>
                <path d="M52.6426,0.0045 C51.2576,-0.0765 50.0816,0.9875 50.0046,2.3585 C49.9256,3.7335 50.9826,4.9175 52.3586,4.9955 C52.4066,4.9985 52.4546,4.9995 52.5016,4.9995 C53.8256,4.9995 54.9206,3.9645 54.9966,2.6425 C55.0346,1.9755 54.8096,1.3335 54.3656,0.8355 C53.9206,0.3375 53.3096,0.0415 52.6426,0.0045" id="Fill-11" fill="#FF5553"></path>
                <path d="M62.6426,0.0045 C61.2576,-0.0765 60.0816,0.9875 60.0046,2.3585 C59.9256,3.7335 60.9826,4.9175 62.3586,4.9955 C62.4066,4.9985 62.4546,4.9995 62.5016,4.9995 C63.8256,4.9995 64.9206,3.9645 64.9966,2.6425 C65.0346,1.9755 64.8096,1.3335 64.3656,0.8355 C63.9206,0.3375 63.3096,0.0415 62.6426,0.0045" id="Fill-13" fill="#FF5553"></path>
                <path d="M72.6426,0.0045 C71.2576,-0.0765 70.0816,0.9875 70.0046,2.3585 C69.9256,3.7335 70.9826,4.9175 72.3586,4.9955 C72.4066,4.9985 72.4546,4.9995 72.5016,4.9995 C73.8256,4.9995 74.9206,3.9645 74.9966,2.6425 C75.0346,1.9755 74.8096,1.3335 74.3656,0.8355 C73.9206,0.3375 73.3096,0.0415 72.6426,0.0045" id="Fill-15" fill="#FF5553"></path>
                <path d="M82.6426,0.0045 C81.2576,-0.0765 80.0816,0.9875 80.0046,2.3585 C79.9256,3.7335 80.9826,4.9175 82.3586,4.9955 C82.4066,4.9985 82.4546,4.9995 82.5016,4.9995 C83.8256,4.9995 84.9206,3.9645 84.9966,2.6425 C85.0346,1.9755 84.8096,1.3335 84.3656,0.8355 C83.9206,0.3375 83.3096,0.0415 82.6426,0.0045" id="Fill-17" fill="#FF5553"></path>
                <g id="Group-21" transform="translate(90.000000, -0.000100)">
                    <mask id="mask-2" fill="white">
                        <use xlink:href="#path-1"></use>
                    </mask>
                    <g id="Clip-20"></g>
                    <path d="M2.3584,4.9958 C2.4064,4.9988 2.4544,4.9998 2.5024,4.9998 C3.8254,4.9998 4.9214,3.9648 4.9964,2.6418 C5.0344,1.9748 4.8094,1.3338 4.3654,0.8358 C3.9204,0.3378 3.3094,0.0418 2.6424,0.0048 C1.2574,-0.0762 0.0824,0.9878 0.0044,2.3578 C-0.0736,3.7338 0.9814,4.9178 2.3584,4.9958" id="Fill-19" fill="#FF5553" mask="url(#mask-2)"></path>
                </g>
                <path d="M42.6426,20.0045 C41.2576,19.9235 40.0816,20.9875 40.0046,22.3585 C39.9256,23.7335 40.9826,24.9175 42.3586,24.9955 C42.4066,24.9985 42.4546,24.9995 42.5016,24.9995 C43.8256,24.9995 44.9206,23.9645 44.9966,22.6425 C45.0346,21.9755 44.8096,21.3335 44.3656,20.8355 C43.9206,20.3375 43.3096,20.0415 42.6426,20.0045" id="Fill-22" fill="#FF5553"></path>
                <path d="M42.6426,30.0045 C41.2576,29.9235 40.0816,30.9875 40.0046,32.3585 C39.9256,33.7335 40.9826,34.9175 42.3586,34.9955 C42.4066,34.9985 42.4546,34.9995 42.5016,34.9995 C43.8256,34.9995 44.9206,33.9645 44.9966,32.6425 C45.0346,31.9755 44.8096,31.3335 44.3656,30.8355 C43.9206,30.3375 43.3096,30.0415 42.6426,30.0045" id="Fill-24" fill="#FF5553"></path>
                <path d="M82.6426,40.0045 C81.2576,39.9235 80.0816,40.9875 80.0046,42.3585 C79.9256,43.7335 80.9826,44.9175 82.3586,44.9955 C82.4066,44.9985 82.4546,44.9995 82.5016,44.9995 C83.8256,44.9995 84.9206,43.9645 84.9966,42.6425 C85.0346,41.9755 84.8096,41.3335 84.3656,40.8355 C83.9206,40.3375 83.3096,40.0415 82.6426,40.0045" id="Fill-26" fill="#FF5553"></path>
                <g id="Group-30" transform="translate(90.000000, 39.999900)">
                    <mask id="mask-4" fill="white">
                        <use xlink:href="#path-3"></use>
                    </mask>
                    <g id="Clip-29"></g>
                    <path d="M2.6426,0.0046 C1.2576,-0.0764 0.0816,0.9876 0.0046,2.3586 C-0.0734,3.7336 0.9816,4.9176 2.3586,4.9956 C2.4066,4.9986 2.4546,4.9996 2.5016,4.9996 C3.8256,4.9996 4.9206,3.9646 4.9966,2.6426 C5.0346,1.9756 4.8096,1.3336 4.3656,0.8356 C3.9206,0.3376 3.3096,0.0416 2.6426,0.0046" id="Fill-28" fill="#FF5553" mask="url(#mask-4)"></path>
                </g>
                <path d="M42.6426,50.0045 C41.2576,49.9235 40.0816,50.9875 40.0046,52.3585 C39.9256,53.7335 40.9826,54.9175 42.3586,54.9955 C42.4066,54.9985 42.4546,54.9995 42.5016,54.9995 C43.8256,54.9995 44.9206,53.9645 44.9966,52.6425 C45.0346,51.9755 44.8096,51.3335 44.3656,50.8355 C43.9206,50.3375 43.3096,50.0415 42.6426,50.0045" id="Fill-31" fill="#FF5553"></path>
                <path d="M32.6426,70.0045 C31.2576,69.9235 30.0816,70.9875 30.0046,72.3585 C29.9256,73.7335 30.9826,74.9175 32.3586,74.9955 C32.4066,74.9985 32.4546,74.9995 32.5016,74.9995 C33.8256,74.9995 34.9206,73.9645 34.9966,72.6425 C35.0346,71.9755 34.8096,71.3335 34.3656,70.8355 C33.9206,70.3375 33.3096,70.0415 32.6426,70.0045" id="Fill-33" fill="#FF5553"></path>
                <path d="M42.6426,70.0045 C41.2576,69.9235 40.0816,70.9875 40.0046,72.3585 C39.9256,73.7335 40.9826,74.9175 42.3586,74.9955 C42.4066,74.9985 42.4546,74.9995 42.5016,74.9995 C43.8256,74.9995 44.9206,73.9645 44.9966,72.6425 C45.0346,71.9755 44.8096,71.3335 44.3656,70.8355 C43.9206,70.3375 43.3096,70.0415 42.6426,70.0045" id="Fill-35" fill="#FF5553"></path>
                <path d="M62.6426,80.0045 C61.2576,79.9235 60.0816,80.9875 60.0046,82.3585 C59.9256,83.7335 60.9826,84.9175 62.3586,84.9955 C62.4066,84.9985 62.4546,84.9995 62.5016,84.9995 C63.8256,84.9995 64.9206,83.9645 64.9966,82.6425 C65.0346,81.9755 64.8096,81.3335 64.3656,80.8355 C63.9206,80.3375 63.3096,80.0415 62.6426,80.0045" id="Fill-37" fill="#FF5553"></path>
                <path d="M72.6426,80.0045 C71.2576,79.9235 70.0816,80.9875 70.0046,82.3585 C69.9256,83.7335 70.9826,84.9175 72.3586,84.9955 C72.4066,84.9985 72.4546,84.9995 72.5016,84.9995 C73.8256,84.9995 74.9206,83.9645 74.9966,82.6425 C75.0346,81.9755 74.8096,81.3335 74.3656,80.8355 C73.9206,80.3375 73.3096,80.0415 72.6426,80.0045" id="Fill-39" fill="#FF5553"></path>
                <path d="M82.6426,80.0045 C81.2576,79.9235 80.0816,80.9875 80.0046,82.3585 C79.9256,83.7335 80.9826,84.9175 82.3586,84.9955 C82.4066,84.9985 82.4546,84.9995 82.5016,84.9995 C83.8256,84.9995 84.9206,83.9645 84.9966,82.6425 C85.0346,81.9755 84.8096,81.3335 84.3656,80.8355 C83.9206,80.3375 83.3096,80.0415 82.6426,80.0045" id="Fill-41" fill="#FF5553"></path>
                <g id="Group-45" transform="translate(90.000000, 79.999900)">
                    <mask id="mask-6" fill="white">
                        <use xlink:href="#path-5"></use>
                    </mask>
                    <g id="Clip-44"></g>
                    <path d="M2.6426,0.0046 C1.2576,-0.0764 0.0816,0.9876 0.0046,2.3586 C-0.0734,3.7336 0.9816,4.9176 2.3586,4.9956 C2.4066,4.9986 2.4546,4.9996 2.5016,4.9996 C3.8256,4.9996 4.9206,3.9646 4.9966,2.6426 C5.0346,1.9756 4.8096,1.3336 4.3656,0.8356 C3.9206,0.3376 3.3096,0.0416 2.6426,0.0046" id="Fill-43" fill="#FF5553" mask="url(#mask-6)"></path>
                </g>
                <path d="M72.3584,24.9957 C72.4064,24.9987 72.4544,24.9997 72.5024,24.9997 C73.8254,24.9997 74.9214,23.9647 74.9964,22.6417 C75.0344,21.9747 74.8094,21.3337 74.3654,20.8357 C73.9204,20.3377 73.3094,20.0417 72.6424,20.0047 C71.2574,19.9237 70.0824,20.9877 70.0044,22.3577 C69.9254,23.7337 70.9824,24.9177 72.3584,24.9957" id="Fill-46" fill="#0033AD"></path>
                <path d="M82.3584,24.9957 C82.4064,24.9987 82.4544,24.9997 82.5024,24.9997 C83.8254,24.9997 84.9214,23.9647 84.9964,22.6417 C85.0344,21.9747 84.8094,21.3337 84.3654,20.8357 C83.9204,20.3377 83.3094,20.0417 82.6424,20.0047 C81.2574,19.9237 80.0824,20.9877 80.0044,22.3577 C79.9254,23.7337 80.9824,24.9177 82.3584,24.9957" id="Fill-48" fill="#0033AD"></path>
                <path d="M70.0049,62.358 C69.9259,63.734 70.9829,64.918 72.3589,64.996 C72.4059,64.999 72.4539,65 72.5019,65 C73.8249,65 74.9209,63.964 74.9959,62.642 C75.0339,61.975 74.8099,61.334 74.3649,60.836 C73.9209,60.337 73.3099,60.042 72.6429,60.004 C71.2579,59.923 70.0819,60.988 70.0049,62.358" id="Fill-50" fill="#0033AD"></path>
                <path d="M82.3584,64.9957 C82.4064,64.9987 82.4544,64.9997 82.5024,64.9997 C83.8254,64.9997 84.9214,63.9647 84.9964,62.6417 C85.0344,61.9747 84.8094,61.3337 84.3654,60.8357 C83.9204,60.3377 83.3094,60.0417 82.6424,60.0047 C81.2574,59.9237 80.0824,60.9877 80.0044,62.3577 C79.9254,63.7337 80.9824,64.9177 82.3584,64.9957" id="Fill-52" fill="#0033AD"></path>
                <mask id="mask-8" fill="white">
                    <use xlink:href="#path-7"></use>
                </mask>
                <g id="Clip-55"></g>
                <path d="M5,79.9999 L50,79.9999 L50,14.9999 L5,14.9999 L5,79.9999 Z M52.5,9.9999 L2.5,9.9999 C1.119,9.9999 0,11.1189 0,12.4999 L0,82.4999 C0,83.8809 1.119,84.9999 2.5,84.9999 L52.5,84.9999 C53.881,84.9999 55,83.8809 55,82.4999 L55,12.4999 C55,11.1189 53.881,9.9999 52.5,9.9999 L52.5,9.9999 Z" id="Fill-54" fill="#0033AD" mask="url(#mask-8)"></path>
                <path d="M12.5,54.9996 L32.5,54.9996 C33.881,54.9996 35,53.8806 35,52.4996 C35,51.1186 33.881,49.9996 32.5,49.9996 L12.5,49.9996 C11.119,49.9996 10,51.1186 10,52.4996 C10,53.8806 11.119,54.9996 12.5,54.9996" id="Fill-56" fill="#0033AD" mask="url(#mask-8)"></path>
                <path d="M12.5,74.9996 L22.5,74.9996 C23.881,74.9996 25,73.8806 25,72.4996 C25,71.1186 23.881,69.9996 22.5,69.9996 L12.5,69.9996 C11.119,69.9996 10,71.1186 10,72.4996 C10,73.8806 11.119,74.9996 12.5,74.9996" id="Fill-57" fill="#0033AD" mask="url(#mask-8)"></path>
                <path d="M12.5,64.9996 L42.5,64.9996 C43.881,64.9996 45,63.8806 45,62.4996 C45,61.1186 43.881,59.9996 42.5,59.9996 L12.5,59.9996 C11.119,59.9996 10,61.1186 10,62.4996 C10,63.8806 11.119,64.9996 12.5,64.9996" id="Fill-58" fill="#0033AD" mask="url(#mask-8)"></path>
                <path d="M12.5,44.9996 L42.5,44.9996 C43.881,44.9996 45,43.8806 45,42.4996 C45,41.1186 43.881,39.9996 42.5,39.9996 L12.5,39.9996 C11.119,39.9996 10,41.1186 10,42.4996 C10,43.8806 11.119,44.9996 12.5,44.9996" id="Fill-59" fill="#0033AD" mask="url(#mask-8)"></path>
                <path d="M15,29.9999 L30,29.9999 L30,24.9999 L15,24.9999 L15,29.9999 Z M12.5,34.9999 L32.5,34.9999 C33.881,34.9999 35,33.8809 35,32.4999 L35,22.4999 C35,21.1189 33.881,19.9999 32.5,19.9999 L12.5,19.9999 C11.119,19.9999 10,21.1189 10,22.4999 L10,32.4999 C10,33.8809 11.119,34.9999 12.5,34.9999 L12.5,34.9999 Z" id="Fill-60" fill="#0033AD" mask="url(#mask-8)"></path>
                <path d="M90,29.9996 L72.5,29.9996 C71.837,29.9996 71.201,30.2636 70.732,30.7316 L65,36.4646 L65,14.9996 L90,14.9996 L90,29.9996 Z M92.5,9.9996 L62.5,9.9996 C61.119,9.9996 60,11.1186 60,12.4996 L60,42.4996 C60,43.5106 60.609,44.4226 61.543,44.8096 C61.853,44.9376 62.178,44.9996 62.499,44.9996 C63.15,44.9996 63.789,44.7456 64.268,44.2676 L73.535,34.9996 L92.5,34.9996 C93.881,34.9996 95,33.8806 95,32.4996 L95,12.4996 C95,11.1186 93.881,9.9996 92.5,9.9996 L92.5,9.9996 Z" id="Fill-61" fill="#0033AD" mask="url(#mask-8)"></path>
                <path d="M90,69.9996 L65,69.9996 L65,53.5346 L70,48.5346 L70,52.4996 C70,53.8806 71.119,54.9996 72.5,54.9996 L90,54.9996 L90,69.9996 Z M92.5,49.9996 L75,49.9996 L75,42.4996 C75,41.4886 74.391,40.5766 73.457,40.1896 C72.521,39.8046 71.447,40.0186 70.732,40.7316 L60.732,50.7316 C60.264,51.2006 60,51.8366 60,52.4996 L60,72.4996 C60,73.8806 61.119,74.9996 62.5,74.9996 L92.5,74.9996 C93.881,74.9996 95,73.8806 95,72.4996 L95,52.4996 C95,51.1186 93.881,49.9996 92.5,49.9996 L92.5,49.9996 Z" id="Fill-62" fill="#0033AD" mask="url(#mask-8)"></path>
            </g>
        </g>
    </g>
</svg>