<svg xmlns="http://www.w3.org/2000/svg" viewBox="0 0 120 110">
  <g fill="#FF5553">
    <circle cx="15" cy="15" r="2.5"/>
    <circle cx="45" cy="15" r="2.5"/>
    <circle cx="55" cy="15" r="2.5"/>
    <circle cx="65" cy="15" r="2.5"/>
    <circle cx="75" cy="15" r="2.5"/>
    <circle cx="85" cy="15" r="2.5"/>
    <circle cx="95" cy="15" r="2.5"/>
    <circle cx="105" cy="15" r="2.5"/>
    <circle cx="15" cy="25" r="2.5"/>
    <circle cx="45" cy="25" r="2.5"/>
    <circle cx="55" cy="25" r="2.5"/>
    <circle cx="65" cy="25" r="2.5"/>
    <circle cx="85" cy="25" r="2.5"/>
    <circle cx="95" cy="25" r="2.5"/>
    <circle cx="105" cy="25" r="2.5"/>
    <circle cx="15" cy="35" r="2.5"/>
    <circle cx="95" cy="35" r="2.5"/>
    <circle cx="105" cy="35" r="2.5"/>
    <circle cx="15" cy="45" r="2.5"/>
    <circle cx="65" cy="45" r="2.5"/>
    <circle cx="85" cy="45" r="2.5"/>
    <circle cx="95" cy="45" r="2.5"/>
    <circle cx="105" cy="45" r="2.5"/>
    <circle cx="15" cy="55" r="2.5"/>
    <circle cx="65" cy="55" r="2.5"/>
    <circle cx="75" cy="55" r="2.5"/>
    <circle cx="85" cy="55" r="2.5"/>
    <circle cx="105" cy="55" r="2.5"/>
    <circle cx="15" cy="65" r="2.5"/>
    <circle cx="65" cy="65" r="2.5"/>
    <circle cx="75" cy="65" r="2.5"/>
    <circle cx="15" cy="75" r="2.5"/>
    <circle cx="65" cy="75" r="2.5"/>
    <circle cx="75" cy="75" r="2.5"/>
    <circle cx="85" cy="75" r="2.5"/>
    <circle cx="105" cy="75" r="2.5"/>
    <circle cx="15" cy="95" r="2.5"/>
    <circle cx="25" cy="95" r="2.5"/>
    <circle cx="35" cy="95" r="2.5"/>
    <circle cx="45" cy="95" r="2.5"/>
    <circle cx="55" cy="95" r="2.5"/>
    <circle cx="65" cy="95" r="2.5"/>
    <circle cx="75" cy="95" r="2.5"/>
    <circle cx="85" cy="95" r="2.5"/>
    <circle cx="95" cy="95" r="2.5"/>
    <circle cx="105" cy="95" r="2.5"/>
  </g>
  <g fill="none" stroke="#0033AD" stroke-width="5" stroke-linecap="round" stroke-linejoin="round">
    <line x1="15" y1="85" x2="105" y2="85"/>
    <polyline points="25,85 25,15 35,15 35,75"/>
    <polyline points="45,85 45,35 55,35 55,75"/>
    <line x1="75" y1="25" x2="75" y2="45"/>
    <polyline points="65,35 75,45 85,35"/>
    <polyline points="85,65 95,55 105,65"/>
    <line x1="95" y1="55" x2="95" y2="75"/>
  </g>
</svg>
