<?xml version="1.0" encoding="UTF-8"?>
<svg width="95px" height="85px" viewBox="0 0 95 85" version="1.1" xmlns="http://www.w3.org/2000/svg" xmlns:xlink="http://www.w3.org/1999/xlink">
    <!-- Generator: Sketch 63.1 (92452) - https://sketch.com -->
    <title>icon_technology</title>
    <desc>Created with Sketch.</desc>
    <defs>
        <polygon id="path-1" points="0.000244614539 0.00046453195 5 0.00046453195 5 4.9998 0.000244614539 4.9998"></polygon>
        <polygon id="path-3" points="0.000444614539 0.000264577992 5 0.000264577992 5 4.9996 0.000444614539 4.9996"></polygon>
        <polygon id="path-5" points="0.000444614539 0.000264577992 5 0.000264577992 5 4.9996 0.000444614539 4.9996"></polygon>
        <polygon id="path-7" points="0.000444614539 0.000264577992 5 0.000264577992 5 4.9996 0.000444614539 4.9996"></polygon>
        <polygon id="path-9" points="0.000444614539 0.000264577992 5 0.000264577992 5 4.9996 0.000444614539 4.9996"></polygon>
        <polygon id="path-11" points="0.000444614539 0.000264577992 5 0.000264577992 5 4.9996 0.000444614539 4.9996"></polygon>
        <polygon id="path-13" points="0.000444614539 0.000264577992 5 0.000264577992 5 4.9996 0.000444614539 4.9996"></polygon>
        <polygon id="path-15" points="0.000444614539 0.000264577992 5 0.000264577992 5 4.9996 0.000444614539 4.9996"></polygon>
        <polygon id="path-17" points="0.000444614539 0.000264577992 5 0.000264577992 5 4.9996 0.000444614539 4.9996"></polygon>
        <polygon id="path-19" points="0 0 25 0 25 24.9995 0 24.9995"></polygon>
    </defs>
    <g id="Cardano-Pages" stroke="none" stroke-width="1" fill="none" fill-rule="evenodd">
        <g id="icon_technology">
            <path d="M2.6426,0.0049 C1.2576,-0.0761 0.0816,0.9879 0.0046,2.3589 C-0.0744,3.7339 0.9826,4.9179 2.3586,4.9959 C2.4066,4.9989 2.4546,4.9999 2.5016,4.9999 C3.8256,4.9999 4.9206,3.9649 4.9966,2.6429 C5.0346,1.9759 4.8096,1.3339 4.3656,0.8359 C3.9206,0.3379 3.3096,0.0419 2.6426,0.0049" id="Fill-1" fill="#FF5553"></path>
            <path d="M12.6426,0.0049 C11.2576,-0.0761 10.0816,0.9879 10.0046,2.3589 C9.9256,3.7339 10.9826,4.9179 12.3586,4.9959 C12.4066,4.9989 12.4546,4.9999 12.5016,4.9999 C13.8256,4.9999 14.9206,3.9649 14.9966,2.6429 C15.0346,1.9759 14.8096,1.3339 14.3656,0.8359 C13.9206,0.3379 13.3096,0.0419 12.6426,0.0049" id="Fill-3" fill="#FF5553"></path>
            <path d="M22.6426,0.0049 C21.2576,-0.0761 20.0816,0.9879 20.0046,2.3589 C19.9256,3.7339 20.9826,4.9179 22.3586,4.9959 C22.4066,4.9989 22.4546,4.9999 22.5016,4.9999 C23.8256,4.9999 24.9206,3.9649 24.9966,2.6429 C25.0346,1.9759 24.8096,1.3339 24.3656,0.8359 C23.9206,0.3379 23.3096,0.0419 22.6426,0.0049" id="Fill-5" fill="#FF5553"></path>
            <path d="M32.6426,0.0049 C31.2576,-0.0761 30.0816,0.9879 30.0046,2.3589 C29.9256,3.7339 30.9826,4.9179 32.3586,4.9959 C32.4066,4.9989 32.4546,4.9999 32.5016,4.9999 C33.8256,4.9999 34.9206,3.9649 34.9966,2.6429 C35.0346,1.9759 34.8096,1.3339 34.3656,0.8359 C33.9206,0.3379 33.3096,0.0419 32.6426,0.0049" id="Fill-7" fill="#FF5553"></path>
            <path d="M52.6426,0.0049 C51.2576,-0.0761 50.0816,0.9879 50.0046,2.3589 C49.9256,3.7339 50.9826,4.9179 52.3586,4.9959 C52.4066,4.9989 52.4546,4.9999 52.5016,4.9999 C53.8256,4.9999 54.9206,3.9649 54.9966,2.6429 C55.0346,1.9759 54.8096,1.3339 54.3656,0.8359 C53.9206,0.3379 53.3096,0.0419 52.6426,0.0049" id="Fill-9" fill="#FF5553"></path>
            <path d="M62.6426,0.0049 C61.2576,-0.0761 60.0816,0.9879 60.0046,2.3589 C59.9256,3.7339 60.9826,4.9179 62.3586,4.9959 C62.4066,4.9989 62.4546,4.9999 62.5016,4.9999 C63.8256,4.9999 64.9206,3.9649 64.9966,2.6429 C65.0346,1.9759 64.8096,1.3339 64.3656,0.8359 C63.9206,0.3379 63.3096,0.0419 62.6426,0.0049" id="Fill-11" fill="#FF5553"></path>
            <path d="M72.6426,0.0049 C71.2576,-0.0761 70.0816,0.9879 70.0046,2.3589 C69.9256,3.7339 70.9826,4.9179 72.3586,4.9959 C72.4066,4.9989 72.4546,4.9999 72.5016,4.9999 C73.8256,4.9999 74.9206,3.9649 74.9966,2.6429 C75.0346,1.9759 74.8096,1.3339 74.3656,0.8359 C73.9206,0.3379 73.3096,0.0419 72.6426,0.0049" id="Fill-13" fill="#FF5553"></path>
            <path d="M82.6426,0.0049 C81.2576,-0.0761 80.0816,0.9879 80.0046,2.3589 C79.9256,3.7339 80.9826,4.9179 82.3586,4.9959 C82.4066,4.9989 82.4546,4.9999 82.5016,4.9999 C83.8256,4.9999 84.9206,3.9649 84.9966,2.6429 C85.0346,1.9759 84.8096,1.3339 84.3656,0.8359 C83.9206,0.3379 83.3096,0.0419 82.6426,0.0049" id="Fill-15" fill="#FF5553"></path>
            <g id="Group-19" transform="translate(90.000000, 0.000300)">
                <mask id="mask-2" fill="white">
                    <use xlink:href="#path-1"></use>
                </mask>
                <g id="Clip-18"></g>
                <path d="M2.3584,4.9958 C2.4064,4.9988 2.4544,4.9998 2.5024,4.9998 C3.8254,4.9998 4.9214,3.9648 4.9964,2.6418 C5.0344,1.9748 4.8094,1.3338 4.3654,0.8358 C3.9204,0.3378 3.3094,0.0418 2.6424,0.0048 C1.2574,-0.0762 0.0824,0.9878 0.0044,2.3578 C-0.0746,3.7338 0.9824,4.9178 2.3584,4.9958" id="Fill-17" fill="#FF5553" mask="url(#mask-2)"></path>
            </g>
            <path d="M2.6426,10.0049 C1.2576,9.9239 0.0816,10.9879 0.0046,12.3589 C-0.0744,13.7339 0.9826,14.9179 2.3586,14.9959 C2.4066,14.9989 2.4546,14.9999 2.5016,14.9999 C3.8256,14.9999 4.9206,13.9649 4.9966,12.6429 C5.0346,11.9759 4.8096,11.3339 4.3656,10.8359 C3.9206,10.3379 3.3096,10.0419 2.6426,10.0049" id="Fill-20" fill="#FF5553"></path>
            <path d="M42.6426,10.0049 C41.2576,9.9239 40.0816,10.9879 40.0046,12.3589 C39.9256,13.7339 40.9826,14.9179 42.3586,14.9959 C42.4066,14.9989 42.4546,14.9999 42.5016,14.9999 C43.8256,14.9999 44.9206,13.9649 44.9966,12.6429 C45.0346,11.9759 44.8096,11.3339 44.3656,10.8359 C43.9206,10.3379 43.3096,10.0419 42.6426,10.0049" id="Fill-22" fill="#FF5553"></path>
            <path d="M82.6426,10.0049 C81.2576,9.9239 80.0816,10.9879 80.0046,12.3589 C79.9256,13.7339 80.9826,14.9179 82.3586,14.9959 C82.4066,14.9989 82.4546,14.9999 82.5016,14.9999 C83.8256,14.9999 84.9206,13.9649 84.9966,12.6429 C85.0346,11.9759 84.8096,11.3339 84.3656,10.8359 C83.9206,10.3379 83.3096,10.0419 82.6426,10.0049" id="Fill-24" fill="#FF5553"></path>
            <g id="Group-28" transform="translate(90.000000, 10.000300)">
                <mask id="mask-4" fill="white">
                    <use xlink:href="#path-3"></use>
                </mask>
                <g id="Clip-27"></g>
                <path d="M2.6426,0.0046 C1.2576,-0.0764 0.0816,0.9876 0.0046,2.3586 C-0.0744,3.7336 0.9826,4.9176 2.3586,4.9956 C2.4066,4.9986 2.4546,4.9996 2.5016,4.9996 C3.8256,4.9996 4.9206,3.9646 4.9966,2.6426 C5.0346,1.9756 4.8096,1.3336 4.3656,0.8356 C3.9206,0.3376 3.3096,0.0416 2.6426,0.0046" id="Fill-26" fill="#FF5553" mask="url(#mask-4)"></path>
            </g>
            <path d="M2.6426,20.0049 C1.2576,19.9239 0.0816,20.9879 0.0046,22.3589 C-0.0744,23.7339 0.9826,24.9179 2.3586,24.9959 C2.4066,24.9989 2.4546,24.9999 2.5016,24.9999 C3.8256,24.9999 4.9206,23.9649 4.9966,22.6429 C5.0346,21.9759 4.8096,21.3339 4.3656,20.8359 C3.9206,20.3379 3.3096,20.0419 2.6426,20.0049" id="Fill-29" fill="#FF5553"></path>
            <path d="M22.6426,20.0049 C21.2576,19.9239 20.0816,20.9879 20.0046,22.3589 C19.9256,23.7339 20.9826,24.9179 22.3586,24.9959 C22.4066,24.9989 22.4546,24.9999 22.5016,24.9999 C23.8256,24.9999 24.9206,23.9649 24.9966,22.6429 C25.0346,21.9759 24.8096,21.3339 24.3656,20.8359 C23.9206,20.3379 23.3096,20.0419 22.6426,20.0049" id="Fill-31" fill="#FF5553"></path>
            <path d="M32.6426,20.0049 C31.2576,19.9239 30.0816,20.9879 30.0046,22.3589 C29.9256,23.7339 30.9826,24.9179 32.3586,24.9959 C32.4066,24.9989 32.4546,24.9999 32.5016,24.9999 C33.8256,24.9999 34.9206,23.9649 34.9966,22.6429 C35.0346,21.9759 34.8096,21.3339 34.3656,20.8359 C33.9206,20.3379 33.3096,20.0419 32.6426,20.0049" id="Fill-33" fill="#FF5553"></path>
            <path d="M52.6426,20.0049 C51.2576,19.9239 50.0816,20.9879 50.0046,22.3589 C49.9256,23.7339 50.9826,24.9179 52.3586,24.9959 C52.4066,24.9989 52.4546,24.9999 52.5016,24.9999 C53.8256,24.9999 54.9206,23.9649 54.9966,22.6429 C55.0346,21.9759 54.8096,21.3339 54.3656,20.8359 C53.9206,20.3379 53.3096,20.0419 52.6426,20.0049" id="Fill-35" fill="#FF5553"></path>
            <path d="M62.6426,20.0049 C61.2576,19.9239 60.0816,20.9879 60.0046,22.3589 C59.9256,23.7339 60.9826,24.9179 62.3586,24.9959 C62.4066,24.9989 62.4546,24.9999 62.5016,24.9999 C63.8256,24.9999 64.9206,23.9649 64.9966,22.6429 C65.0346,21.9759 64.8096,21.3339 64.3656,20.8359 C63.9206,20.3379 63.3096,20.0419 62.6426,20.0049" id="Fill-37" fill="#FF5553"></path>
            <path d="M82.6426,20.0049 C81.2576,19.9239 80.0816,20.9879 80.0046,22.3589 C79.9256,23.7339 80.9826,24.9179 82.3586,24.9959 C82.4066,24.9989 82.4546,24.9999 82.5016,24.9999 C83.8256,24.9999 84.9206,23.9649 84.9966,22.6429 C85.0346,21.9759 84.8096,21.3339 84.3656,20.8359 C83.9206,20.3379 83.3096,20.0419 82.6426,20.0049" id="Fill-39" fill="#FF5553"></path>
            <g id="Group-43" transform="translate(90.000000, 20.000300)">
                <mask id="mask-6" fill="white">
                    <use xlink:href="#path-5"></use>
                </mask>
                <g id="Clip-42"></g>
                <path d="M2.6426,0.0046 C1.2576,-0.0764 0.0816,0.9876 0.0046,2.3586 C-0.0744,3.7336 0.9826,4.9176 2.3586,4.9956 C2.4066,4.9986 2.4546,4.9996 2.5016,4.9996 C3.8256,4.9996 4.9206,3.9646 4.9966,2.6426 C5.0346,1.9756 4.8096,1.3336 4.3656,0.8356 C3.9206,0.3376 3.3096,0.0416 2.6426,0.0046" id="Fill-41" fill="#FF5553" mask="url(#mask-6)"></path>
            </g>
            <path d="M2.6426,30.0049 C1.2576,29.9239 0.0816,30.9879 0.0046,32.3589 C-0.0744,33.7339 0.9826,34.9179 2.3586,34.9959 C2.4066,34.9989 2.4546,34.9999 2.5016,34.9999 C3.8256,34.9999 4.9206,33.9649 4.9966,32.6429 C5.0346,31.9759 4.8096,31.3339 4.3656,30.8359 C3.9206,30.3379 3.3096,30.0419 2.6426,30.0049" id="Fill-44" fill="#FF5553"></path>
            <path d="M22.6426,30.0049 C21.2576,29.9239 20.0816,30.9879 20.0046,32.3589 C19.9256,33.7339 20.9826,34.9179 22.3586,34.9959 C22.4066,34.9989 22.4546,34.9999 22.5016,34.9999 C23.8256,34.9999 24.9206,33.9649 24.9966,32.6429 C25.0346,31.9759 24.8096,31.3339 24.3656,30.8359 C23.9206,30.3379 23.3096,30.0419 22.6426,30.0049" id="Fill-46" fill="#FF5553"></path>
            <path d="M32.6426,30.0049 C31.2576,29.9239 30.0816,30.9879 30.0046,32.3589 C29.9256,33.7339 30.9826,34.9179 32.3586,34.9959 C32.4066,34.9989 32.4546,34.9999 32.5016,34.9999 C33.8256,34.9999 34.9206,33.9649 34.9966,32.6429 C35.0346,31.9759 34.8096,31.3339 34.3656,30.8359 C33.9206,30.3379 33.3096,30.0419 32.6426,30.0049" id="Fill-48" fill="#FF5553"></path>
            <path d="M42.6426,30.0049 C41.2576,29.9239 40.0816,30.9879 40.0046,32.3589 C39.9256,33.7339 40.9826,34.9179 42.3586,34.9959 C42.4066,34.9989 42.4546,34.9999 42.5016,34.9999 C43.8256,34.9999 44.9206,33.9649 44.9966,32.6429 C45.0346,31.9759 44.8096,31.3339 44.3656,30.8359 C43.9206,30.3379 43.3096,30.0419 42.6426,30.0049" id="Fill-50" fill="#FF5553"></path>
            <path d="M52.6426,30.0049 C51.2576,29.9239 50.0816,30.9879 50.0046,32.3589 C49.9256,33.7339 50.9826,34.9179 52.3586,34.9959 C52.4066,34.9989 52.4546,34.9999 52.5016,34.9999 C53.8256,34.9999 54.9206,33.9649 54.9966,32.6429 C55.0346,31.9759 54.8096,31.3339 54.3656,30.8359 C53.9206,30.3379 53.3096,30.0419 52.6426,30.0049" id="Fill-52" fill="#FF5553"></path>
            <path d="M62.6426,30.0049 C61.2576,29.9239 60.0816,30.9879 60.0046,32.3589 C59.9256,33.7339 60.9826,34.9179 62.3586,34.9959 C62.4066,34.9989 62.4546,34.9999 62.5016,34.9999 C63.8256,34.9999 64.9206,33.9649 64.9966,32.6429 C65.0346,31.9759 64.8096,31.3339 64.3656,30.8359 C63.9206,30.3379 63.3096,30.0419 62.6426,30.0049" id="Fill-54" fill="#FF5553"></path>
            <path d="M82.6426,30.0049 C81.2576,29.9239 80.0816,30.9879 80.0046,32.3589 C79.9256,33.7339 80.9826,34.9179 82.3586,34.9959 C82.4066,34.9989 82.4546,34.9999 82.5016,34.9999 C83.8256,34.9999 84.9206,33.9649 84.9966,32.6429 C85.0346,31.9759 84.8096,31.3339 84.3656,30.8359 C83.9206,30.3379 83.3096,30.0419 82.6426,30.0049" id="Fill-56" fill="#FF5553"></path>
            <g id="Group-60" transform="translate(90.000000, 30.000300)">
                <mask id="mask-8" fill="white">
                    <use xlink:href="#path-7"></use>
                </mask>
                <g id="Clip-59"></g>
                <path d="M2.6426,0.0046 C1.2576,-0.0764 0.0816,0.9876 0.0046,2.3586 C-0.0744,3.7336 0.9826,4.9176 2.3586,4.9956 C2.4066,4.9986 2.4546,4.9996 2.5016,4.9996 C3.8256,4.9996 4.9206,3.9646 4.9966,2.6426 C5.0346,1.9756 4.8096,1.3336 4.3656,0.8356 C3.9206,0.3376 3.3096,0.0416 2.6426,0.0046" id="Fill-58" fill="#FF5553" mask="url(#mask-8)"></path>
            </g>
            <path d="M12.6426,40.0049 C11.2576,39.9239 10.0816,40.9879 10.0046,42.3589 C9.9256,43.7339 10.9826,44.9179 12.3586,44.9959 C12.4066,44.9989 12.4546,44.9999 12.5016,44.9999 C13.8256,44.9999 14.9206,43.9649 14.9966,42.6429 C15.0346,41.9759 14.8096,41.3339 14.3656,40.8359 C13.9206,40.3379 13.3096,40.0419 12.6426,40.0049" id="Fill-61" fill="#FF5553"></path>
            <path d="M32.6426,40.0049 C31.2576,39.9239 30.0816,40.9879 30.0046,42.3589 C29.9256,43.7339 30.9826,44.9179 32.3586,44.9959 C32.4066,44.9989 32.4546,44.9999 32.5016,44.9999 C33.8256,44.9999 34.9206,43.9649 34.9966,42.6429 C35.0346,41.9759 34.8096,41.3339 34.3656,40.8359 C33.9206,40.3379 33.3096,40.0419 32.6426,40.0049" id="Fill-63" fill="#FF5553"></path>
            <path d="M42.6426,40.0049 C41.2576,39.9239 40.0816,40.9879 40.0046,42.3589 C39.9256,43.7339 40.9826,44.9179 42.3586,44.9959 C42.4066,44.9989 42.4546,44.9999 42.5016,44.9999 C43.8256,44.9999 44.9206,43.9649 44.9966,42.6429 C45.0346,41.9759 44.8096,41.3339 44.3656,40.8359 C43.9206,40.3379 43.3096,40.0419 42.6426,40.0049" id="Fill-65" fill="#FF5553"></path>
            <path d="M52.6426,40.0049 C51.2576,39.9239 50.0816,40.9879 50.0046,42.3589 C49.9256,43.7339 50.9826,44.9179 52.3586,44.9959 C52.4066,44.9989 52.4546,44.9999 52.5016,44.9999 C53.8256,44.9999 54.9206,43.9649 54.9966,42.6429 C55.0346,41.9759 54.8096,41.3339 54.3656,40.8359 C53.9206,40.3379 53.3096,40.0419 52.6426,40.0049" id="Fill-67" fill="#FF5553"></path>
            <path d="M72.6426,40.0049 C71.2576,39.9239 70.0816,40.9879 70.0046,42.3589 C69.9256,43.7339 70.9826,44.9179 72.3586,44.9959 C72.4066,44.9989 72.4546,44.9999 72.5016,44.9999 C73.8256,44.9999 74.9206,43.9649 74.9966,42.6429 C75.0346,41.9759 74.8096,41.3339 74.3656,40.8359 C73.9206,40.3379 73.3096,40.0419 72.6426,40.0049" id="Fill-69" fill="#FF5553"></path>
            <g id="Group-73" transform="translate(90.000000, 40.000300)">
                <mask id="mask-10" fill="white">
                    <use xlink:href="#path-9"></use>
                </mask>
                <g id="Clip-72"></g>
                <path d="M2.6426,0.0046 C1.2576,-0.0764 0.0816,0.9876 0.0046,2.3586 C-0.0744,3.7336 0.9826,4.9176 2.3586,4.9956 C2.4066,4.9986 2.4546,4.9996 2.5016,4.9996 C3.8256,4.9996 4.9206,3.9646 4.9966,2.6426 C5.0346,1.9756 4.8096,1.3336 4.3656,0.8356 C3.9206,0.3376 3.3096,0.0416 2.6426,0.0046" id="Fill-71" fill="#FF5553" mask="url(#mask-10)"></path>
            </g>
            <path d="M2.6426,50.0049 C1.2576,49.9239 0.0816,50.9879 0.0046,52.3589 C-0.0744,53.7339 0.9826,54.9179 2.3586,54.9959 C2.4066,54.9989 2.4546,54.9999 2.5016,54.9999 C3.8256,54.9999 4.9206,53.9649 4.9966,52.6429 C5.0346,51.9759 4.8096,51.3339 4.3656,50.8359 C3.9206,50.3379 3.3096,50.0419 2.6426,50.0049" id="Fill-74" fill="#FF5553"></path>
            <path d="M22.6426,50.0049 C21.2576,49.9239 20.0816,50.9879 20.0046,52.3589 C19.9256,53.7339 20.9826,54.9179 22.3586,54.9959 C22.4066,54.9989 22.4546,54.9999 22.5016,54.9999 C23.8256,54.9999 24.9206,53.9649 24.9966,52.6429 C25.0346,51.9759 24.8096,51.3339 24.3656,50.8359 C23.9206,50.3379 23.3096,50.0419 22.6426,50.0049" id="Fill-76" fill="#FF5553"></path>
            <path d="M32.6426,50.0049 C31.2576,49.9239 30.0816,50.9879 30.0046,52.3589 C29.9256,53.7339 30.9826,54.9179 32.3586,54.9959 C32.4066,54.9989 32.4546,54.9999 32.5016,54.9999 C33.8256,54.9999 34.9206,53.9649 34.9966,52.6429 C35.0346,51.9759 34.8096,51.3339 34.3656,50.8359 C33.9206,50.3379 33.3096,50.0419 32.6426,50.0049" id="Fill-78" fill="#FF5553"></path>
            <path d="M42.6426,50.0049 C41.2576,49.9239 40.0816,50.9879 40.0046,52.3589 C39.9256,53.7339 40.9826,54.9179 42.3586,54.9959 C42.4066,54.9989 42.4546,54.9999 42.5016,54.9999 C43.8256,54.9999 44.9206,53.9649 44.9966,52.6429 C45.0346,51.9759 44.8096,51.3339 44.3656,50.8359 C43.9206,50.3379 43.3096,50.0419 42.6426,50.0049" id="Fill-80" fill="#FF5553"></path>
            <path d="M52.6426,50.0049 C51.2576,49.9239 50.0816,50.9879 50.0046,52.3589 C49.9256,53.7339 50.9826,54.9179 52.3586,54.9959 C52.4066,54.9989 52.4546,54.9999 52.5016,54.9999 C53.8256,54.9999 54.9206,53.9649 54.9966,52.6429 C55.0346,51.9759 54.8096,51.3339 54.3656,50.8359 C53.9206,50.3379 53.3096,50.0419 52.6426,50.0049" id="Fill-82" fill="#FF5553"></path>
            <path d="M62.6426,50.0049 C61.2576,49.9239 60.0816,50.9879 60.0046,52.3589 C59.9256,53.7339 60.9826,54.9179 62.3586,54.9959 C62.4066,54.9989 62.4546,54.9999 62.5016,54.9999 C63.8256,54.9999 64.9206,53.9649 64.9966,52.6429 C65.0346,51.9759 64.8096,51.3339 64.3656,50.8359 C63.9206,50.3379 63.3096,50.0419 62.6426,50.0049" id="Fill-84" fill="#FF5553"></path>
            <path d="M82.6426,50.0049 C81.2576,49.9239 80.0816,50.9879 80.0046,52.3589 C79.9256,53.7339 80.9826,54.9179 82.3586,54.9959 C82.4066,54.9989 82.4546,54.9999 82.5016,54.9999 C83.8256,54.9999 84.9206,53.9649 84.9966,52.6429 C85.0346,51.9759 84.8096,51.3339 84.3656,50.8359 C83.9206,50.3379 83.3096,50.0419 82.6426,50.0049" id="Fill-86" fill="#FF5553"></path>
            <g id="Group-90" transform="translate(90.000000, 50.000300)">
                <mask id="mask-12" fill="white">
                    <use xlink:href="#path-11"></use>
                </mask>
                <g id="Clip-89"></g>
                <path d="M2.6426,0.0046 C1.2576,-0.0764 0.0816,0.9876 0.0046,2.3586 C-0.0744,3.7336 0.9826,4.9176 2.3586,4.9956 C2.4066,4.9986 2.4546,4.9996 2.5016,4.9996 C3.8256,4.9996 4.9206,3.9646 4.9966,2.6426 C5.0346,1.9756 4.8096,1.3336 4.3656,0.8356 C3.9206,0.3376 3.3096,0.0416 2.6426,0.0046" id="Fill-88" fill="#FF5553" mask="url(#mask-12)"></path>
            </g>
            <path d="M2.6426,60.0049 C1.2576,59.9239 0.0816,60.9879 0.0046,62.3589 C-0.0744,63.7339 0.9826,64.9179 2.3586,64.9959 C2.4066,64.9989 2.4546,64.9999 2.5016,64.9999 C3.8256,64.9999 4.9206,63.9649 4.9966,62.6429 C5.0346,61.9759 4.8096,61.3339 4.3656,60.8359 C3.9206,60.3379 3.3096,60.0419 2.6426,60.0049" id="Fill-91" fill="#FF5553"></path>
            <path d="M22.6426,60.0049 C21.2576,59.9239 20.0816,60.9879 20.0046,62.3589 C19.9256,63.7339 20.9826,64.9179 22.3586,64.9959 C22.4066,64.9989 22.4546,64.9999 22.5016,64.9999 C23.8256,64.9999 24.9206,63.9649 24.9966,62.6429 C25.0346,61.9759 24.8096,61.3339 24.3656,60.8359 C23.9206,60.3379 23.3096,60.0419 22.6426,60.0049" id="Fill-93" fill="#FF5553"></path>
            <path d="M32.6426,60.0049 C31.2576,59.9239 30.0816,60.9879 30.0046,62.3589 C29.9256,63.7339 30.9826,64.9179 32.3586,64.9959 C32.4066,64.9989 32.4546,64.9999 32.5016,64.9999 C33.8256,64.9999 34.9206,63.9649 34.9966,62.6429 C35.0346,61.9759 34.8096,61.3339 34.3656,60.8359 C33.9206,60.3379 33.3096,60.0419 32.6426,60.0049" id="Fill-95" fill="#FF5553"></path>
            <path d="M52.6426,60.0049 C51.2576,59.9239 50.0816,60.9879 50.0046,62.3589 C49.9256,63.7339 50.9826,64.9179 52.3586,64.9959 C52.4066,64.9989 52.4546,64.9999 52.5016,64.9999 C53.8256,64.9999 54.9206,63.9649 54.9966,62.6429 C55.0346,61.9759 54.8096,61.3339 54.3656,60.8359 C53.9206,60.3379 53.3096,60.0419 52.6426,60.0049" id="Fill-97" fill="#FF5553"></path>
            <path d="M62.6426,60.0049 C61.2576,59.9239 60.0816,60.9879 60.0046,62.3589 C59.9256,63.7339 60.9826,64.9179 62.3586,64.9959 C62.4066,64.9989 62.4546,64.9999 62.5016,64.9999 C63.8256,64.9999 64.9206,63.9649 64.9966,62.6429 C65.0346,61.9759 64.8096,61.3339 64.3656,60.8359 C63.9206,60.3379 63.3096,60.0419 62.6426,60.0049" id="Fill-99" fill="#FF5553"></path>
            <path d="M82.6426,60.0049 C81.2576,59.9239 80.0816,60.9879 80.0046,62.3589 C79.9256,63.7339 80.9826,64.9179 82.3586,64.9959 C82.4066,64.9989 82.4546,64.9999 82.5016,64.9999 C83.8256,64.9999 84.9206,63.9649 84.9966,62.6429 C85.0346,61.9759 84.8096,61.3339 84.3656,60.8359 C83.9206,60.3379 83.3096,60.0419 82.6426,60.0049" id="Fill-101" fill="#FF5553"></path>
            <g id="Group-105" transform="translate(90.000000, 60.000300)">
                <mask id="mask-14" fill="white">
                    <use xlink:href="#path-13"></use>
                </mask>
                <g id="Clip-104"></g>
                <path d="M2.6426,0.0046 C1.2576,-0.0764 0.0816,0.9876 0.0046,2.3586 C-0.0744,3.7336 0.9826,4.9176 2.3586,4.9956 C2.4066,4.9986 2.4546,4.9996 2.5016,4.9996 C3.8256,4.9996 4.9206,3.9646 4.9966,2.6426 C5.0346,1.9756 4.8096,1.3336 4.3656,0.8356 C3.9206,0.3376 3.3096,0.0416 2.6426,0.0046" id="Fill-103" fill="#FF5553" mask="url(#mask-14)"></path>
            </g>
            <path d="M2.6426,70.0049 C1.2576,69.9239 0.0816,70.9879 0.0046,72.3589 C-0.0744,73.7339 0.9826,74.9179 2.3586,74.9959 C2.4066,74.9989 2.4546,74.9999 2.5016,74.9999 C3.8256,74.9999 4.9206,73.9649 4.9966,72.6429 C5.0346,71.9759 4.8096,71.3339 4.3656,70.8359 C3.9206,70.3379 3.3096,70.0419 2.6426,70.0049" id="Fill-106" fill="#FF5553"></path>
            <path d="M42.6426,70.0049 C41.2576,69.9239 40.0816,70.9879 40.0046,72.3589 C39.9256,73.7339 40.9826,74.9179 42.3586,74.9959 C42.4066,74.9989 42.4546,74.9999 42.5016,74.9999 C43.8256,74.9999 44.9206,73.9649 44.9966,72.6429 C45.0346,71.9759 44.8096,71.3339 44.3656,70.8359 C43.9206,70.3379 43.3096,70.0419 42.6426,70.0049" id="Fill-108" fill="#FF5553"></path>
            <path d="M82.6426,70.0049 C81.2576,69.9239 80.0816,70.9879 80.0046,72.3589 C79.9256,73.7339 80.9826,74.9179 82.3586,74.9959 C82.4066,74.9989 82.4546,74.9999 82.5016,74.9999 C83.8256,74.9999 84.9206,73.9649 84.9966,72.6429 C85.0346,71.9759 84.8096,71.3339 84.3656,70.8359 C83.9206,70.3379 83.3096,70.0419 82.6426,70.0049" id="Fill-110" fill="#FF5553"></path>
            <g id="Group-114" transform="translate(90.000000, 70.000300)">
                <mask id="mask-16" fill="white">
                    <use xlink:href="#path-15"></use>
                </mask>
                <g id="Clip-113"></g>
                <path d="M2.6426,0.0046 C1.2576,-0.0764 0.0816,0.9876 0.0046,2.3586 C-0.0744,3.7336 0.9826,4.9176 2.3586,4.9956 C2.4066,4.9986 2.4546,4.9996 2.5016,4.9996 C3.8256,4.9996 4.9206,3.9646 4.9966,2.6426 C5.0346,1.9756 4.8096,1.3336 4.3656,0.8356 C3.9206,0.3376 3.3096,0.0416 2.6426,0.0046" id="Fill-112" fill="#FF5553" mask="url(#mask-16)"></path>
            </g>
            <path d="M2.6426,80.0049 C1.2576,79.9239 0.0816,80.9879 0.0046,82.3589 C-0.0744,83.7339 0.9826,84.9179 2.3586,84.9959 C2.4066,84.9989 2.4546,84.9999 2.5016,84.9999 C3.8256,84.9999 4.9206,83.9649 4.9966,82.6429 C5.0346,81.9759 4.8096,81.3339 4.3656,80.8359 C3.9206,80.3379 3.3096,80.0419 2.6426,80.0049" id="Fill-115" fill="#FF5553"></path>
            <path d="M12.6426,80.0049 C11.2576,79.9239 10.0816,80.9879 10.0046,82.3589 C9.9256,83.7339 10.9826,84.9179 12.3586,84.9959 C12.4066,84.9989 12.4546,84.9999 12.5016,84.9999 C13.8256,84.9999 14.9206,83.9649 14.9966,82.6429 C15.0346,81.9759 14.8096,81.3339 14.3656,80.8359 C13.9206,80.3379 13.3096,80.0419 12.6426,80.0049" id="Fill-117" fill="#FF5553"></path>
            <path d="M22.6426,80.0049 C21.2576,79.9239 20.0816,80.9879 20.0046,82.3589 C19.9256,83.7339 20.9826,84.9179 22.3586,84.9959 C22.4066,84.9989 22.4546,84.9999 22.5016,84.9999 C23.8256,84.9999 24.9206,83.9649 24.9966,82.6429 C25.0346,81.9759 24.8096,81.3339 24.3656,80.8359 C23.9206,80.3379 23.3096,80.0419 22.6426,80.0049" id="Fill-119" fill="#FF5553"></path>
            <path d="M32.6426,80.0049 C31.2576,79.9239 30.0816,80.9879 30.0046,82.3589 C29.9256,83.7339 30.9826,84.9179 32.3586,84.9959 C32.4066,84.9989 32.4546,84.9999 32.5016,84.9999 C33.8256,84.9999 34.9206,83.9649 34.9966,82.6429 C35.0346,81.9759 34.8096,81.3339 34.3656,80.8359 C33.9206,80.3379 33.3096,80.0419 32.6426,80.0049" id="Fill-121" fill="#FF5553"></path>
            <path d="M52.6426,80.0049 C51.2576,79.9239 50.0816,80.9879 50.0046,82.3589 C49.9256,83.7339 50.9826,84.9179 52.3586,84.9959 C52.4066,84.9989 52.4546,84.9999 52.5016,84.9999 C53.8256,84.9999 54.9206,83.9649 54.9966,82.6429 C55.0346,81.9759 54.8096,81.3339 54.3656,80.8359 C53.9206,80.3379 53.3096,80.0419 52.6426,80.0049" id="Fill-123" fill="#FF5553"></path>
            <path d="M62.6426,80.0049 C61.2576,79.9239 60.0816,80.9879 60.0046,82.3589 C59.9256,83.7339 60.9826,84.9179 62.3586,84.9959 C62.4066,84.9989 62.4546,84.9999 62.5016,84.9999 C63.8256,84.9999 64.9206,83.9649 64.9966,82.6429 C65.0346,81.9759 64.8096,81.3339 64.3656,80.8359 C63.9206,80.3379 63.3096,80.0419 62.6426,80.0049" id="Fill-125" fill="#FF5553"></path>
            <path d="M72.6426,80.0049 C71.2576,79.9239 70.0816,80.9879 70.0046,82.3589 C69.9256,83.7339 70.9826,84.9179 72.3586,84.9959 C72.4066,84.9989 72.4546,84.9999 72.5016,84.9999 C73.8256,84.9999 74.9206,83.9649 74.9966,82.6429 C75.0346,81.9759 74.8096,81.3339 74.3656,80.8359 C73.9206,80.3379 73.3096,80.0419 72.6426,80.0049" id="Fill-127" fill="#FF5553"></path>
            <path d="M82.6426,80.0049 C81.2576,79.9239 80.0816,80.9879 80.0046,82.3589 C79.9256,83.7339 80.9826,84.9179 82.3586,84.9959 C82.4066,84.9989 82.4546,84.9999 82.5016,84.9999 C83.8256,84.9999 84.9206,83.9649 84.9966,82.6429 C85.0346,81.9759 84.8096,81.3339 84.3656,80.8359 C83.9206,80.3379 83.3096,80.0419 82.6426,80.0049" id="Fill-129" fill="#FF5553"></path>
            <g id="Group-133" transform="translate(90.000000, 80.000300)">
                <mask id="mask-18" fill="white">
                    <use xlink:href="#path-17"></use>
                </mask>
                <g id="Clip-132"></g>
                <path d="M2.6426,0.0046 C1.2576,-0.0764 0.0816,0.9876 0.0046,2.3586 C-0.0744,3.7336 0.9826,4.9176 2.3586,4.9956 C2.4066,4.9986 2.4546,4.9996 2.5016,4.9996 C3.8256,4.9996 4.9206,3.9646 4.9966,2.6426 C5.0346,1.9756 4.8096,1.3336 4.3656,0.8356 C3.9206,0.3376 3.3096,0.0416 2.6426,0.0046" id="Fill-131" fill="#FF5553" mask="url(#mask-18)"></path>
            </g>
            <path d="M12.5,48.9648 L6.035,42.4998 L12.5,36.0348 L18.965,42.4998 L12.5,48.9648 Z M14.268,30.7328 C13.291,29.7558 11.709,29.7558 10.732,30.7328 L0.732,40.7328 C-0.244,41.7088 -0.244,43.2908 0.732,44.2678 L10.732,54.2678 C11.221,54.7558 11.86,54.9998 12.5,54.9998 C13.14,54.9998 13.779,54.7558 14.268,54.2678 L24.268,44.2678 C25.244,43.2908 25.244,41.7088 24.268,40.7328 L14.268,30.7328 Z" id="Fill-134" fill="#0033AD"></path>
            <path d="M72.5,48.9648 L66.035,42.4998 L72.5,36.0348 L78.965,42.4998 L72.5,48.9648 Z M84.268,40.7328 L74.268,30.7328 C73.291,29.7558 71.709,29.7558 70.732,30.7328 L60.732,40.7328 C59.756,41.7088 59.756,43.2908 60.732,44.2678 L70.732,54.2678 C71.221,54.7558 71.86,54.9998 72.5,54.9998 C73.14,54.9998 73.779,54.7558 74.268,54.2678 L84.268,44.2678 C85.244,43.2908 85.244,41.7088 84.268,40.7328 L84.268,40.7328 Z" id="Fill-136" fill="#0033AD"></path>
            <g id="Group-140" transform="translate(30.000000, 0.000300)">
                <mask id="mask-20" fill="white">
                    <use xlink:href="#path-19"></use>
                </mask>
                <g id="Clip-139"></g>
                <path d="M12.5,18.9645 L6.035,12.4995 L12.5,6.0345 L18.965,12.4995 L12.5,18.9645 Z M14.268,0.7325 C13.291,-0.2445 11.709,-0.2445 10.732,0.7325 L0.732,10.7325 C-0.244,11.7085 -0.244,13.2905 0.732,14.2675 L10.732,24.2675 C11.221,24.7555 11.86,24.9995 12.5,24.9995 C13.14,24.9995 13.779,24.7555 14.268,24.2675 L24.268,14.2675 C25.244,13.2905 25.244,11.7085 24.268,10.7325 L14.268,0.7325 Z" id="Fill-138" fill="#0033AD" mask="url(#mask-20)"></path>
            </g>
            <path d="M42.5,78.9648 L36.035,72.4998 L42.5,66.0348 L48.965,72.4998 L42.5,78.9648 Z M44.268,60.7328 C43.291,59.7558 41.709,59.7558 40.732,60.7328 L30.732,70.7328 C29.756,71.7088 29.756,73.2908 30.732,74.2678 L40.732,84.2678 C41.221,84.7558 41.86,84.9998 42.5,84.9998 C43.14,84.9998 43.779,84.7558 44.268,84.2678 L54.268,74.2678 C55.244,73.2908 55.244,71.7088 54.268,70.7328 L44.268,60.7328 Z" id="Fill-141" fill="#0033AD"></path>
            <path d="M22.5,10 L12.5,10 C11.119,10 10,11.119 10,12.5 L10,22.5 C10,23.881 11.119,25 12.5,25 C13.881,25 15,23.881 15,22.5 L15,15 L22.5,15 C23.881,15 25,13.881 25,12.5 C25,11.119 23.881,10 22.5,10" id="Fill-143" fill="#0033AD"></path>
            <path d="M62.5,15 L70,15 L70,22.5 C70,23.881 71.119,25 72.5,25 C73.881,25 75,23.881 75,22.5 L75,12.5 C75,11.119 73.881,10 72.5,10 L62.5,10 C61.119,10 60,11.119 60,12.5 C60,13.881 61.119,15 62.5,15" id="Fill-145" fill="#0033AD"></path>
            <path d="M72.5,60 C71.119,60 70,61.119 70,62.5 L70,70 L62.5,70 C61.119,70 60,71.119 60,72.5 C60,73.881 61.119,75 62.5,75 L72.5,75 C73.881,75 75,73.881 75,72.5 L75,62.5 C75,61.119 73.881,60 72.5,60" id="Fill-147" fill="#0033AD"></path>
            <path d="M22.5,70 L15,70 L15,62.5 C15,61.119 13.881,60 12.5,60 C11.119,60 10,61.119 10,62.5 L10,72.5 C10,73.881 11.119,75 12.5,75 L22.5,75 C23.881,75 25,73.881 25,72.5 C25,71.119 23.881,70 22.5,70" id="Fill-149" fill="#0033AD"></path>
        </g>
    </g>
</svg>