<?xml version="1.0" encoding="UTF-8"?>
<!-- Generated by Pixelmator Pro 3.6.7 -->
<svg width="144" height="76" viewBox="0 0 144 76" xmlns="http://www.w3.org/2000/svg">
    <g id="Group">
        <g id="g1">
            <path id="Path" fill="#0033ad" fill-rule="evenodd" stroke="none" d="M 100.412003 39.646 L 101.772003 36.158001 L 111.316002 36.158001 L 112.628998 39.646 L 100.412003 39.646 Z M 109.980003 32.813 L 102.991997 32.813 L 106.531998 23.726997 L 109.980003 32.813 Z M 90.07 41.235001 C 90.024002 42.185001 90.796997 42.943001 91.900002 42.966999 L 95.627998 42.966999 L 91.032997 54.639999 C 90.705002 55.518002 91.079002 56.466999 91.922997 56.799999 C 92.111 56.846001 92.346001 56.894001 92.532997 56.894001 C 93.212997 56.894001 93.822998 56.514 94.056999 55.849998 L 99.122002 42.943001 L 113.966003 42.943001 L 118.843002 55.707001 C 119.082176 56.339863 119.690475 56.756569 120.366997 56.750999 C 120.555 56.750999 120.742996 56.750999 120.93 56.657001 C 121.779404 56.313286 122.196709 55.352322 121.867996 54.497002 L 117.459999 42.919998 L 121.235001 42.919998 C 122.150002 42.919998 122.900002 42.137001 122.852997 41.188 C 122.806 40.263 121.985001 39.598 121.094002 39.598 L 116.169998 39.598 L 114.857002 36.134998 L 118.07 36.134998 C 118.984001 36.134998 119.734001 35.351002 119.686996 34.403 C 119.640999 33.477001 118.82 32.813 117.929001 32.813 L 113.521004 32.813 L 108.126999 18.483002 C 107.869003 17.865997 107.259003 17.438999 106.602997 17.438999 C 105.922997 17.438999 105.313004 17.865997 105.079002 18.483002 L 99.449997 32.837002 L 94.947998 32.837002 C 94.032997 32.837002 93.281998 33.619999 93.329002 34.569 C 93.375999 35.493999 94.196999 36.159 95.088997 36.159 L 98.160004 36.159 L 96.800003 39.646 L 91.830002 39.646 C 90.915001 39.646 90.117996 40.334 90.070999 41.236 Z"/>
            <path id="path1" fill="#0033ad" fill-rule="evenodd" stroke="none" d="M 72.056999 38.304001 C 72.056999 19.332001 87.490997 3.898003 106.461998 3.898003 C 125.432999 3.898003 140.867004 19.332001 140.867004 38.304001 C 140.867004 57.273998 125.432999 72.709 106.461998 72.709 C 87.490997 72.709 72.056999 57.275002 72.056999 38.304001 M 0 37.902 C 0 58.633999 16.806999 75.440002 37.537998 75.440002 C 52.897999 75.440002 66.098999 66.212997 71.912003 53.000999 C 77.630997 66.428001 90.946999 75.841003 106.461998 75.841003 C 127.194 75.841003 144.001007 59.035 144.001007 38.304001 C 144 17.571999 127.194 0.764999 106.461998 0.764999 C 91.101997 0.764999 77.897003 9.992996 72.085999 23.207001 C 66.366997 9.779999 53.054001 0.363998 37.537998 0.363998 C 16.806999 0.363998 0 17.169998 0 37.902"/>
        </g>
        <g id="daedalus-header-logo">
            <path id="path2" fill="#fafbfc" fill-rule="evenodd" stroke="none" d="M 17.602314 15.327003 L 18.616518 15.917175 L 13.763121 26.324226 L 18.251608 30.639942 L 18.243963 30.647587 L 18.892748 31.256618 L 19.091002 31.440605 L 20.01194 32.318729 L 18.834648 32.828381 L 12.340689 26.58823 L 15.231932 20.386806 L 9.539143 27.872543 L 19.153179 38.04108 L 25.871895 36.254757 L 26.136402 38.217419 C 26.538713 37.186935 27.081345 36.216923 27.748934 35.334839 L 28.615339 36.132442 C 27.687681 37.386234 27.049417 38.830032 26.746454 40.359985 L 25.20731 40.118412 L 24.873491 37.726624 L 18.767883 39.344254 L 8 27.952557 L 17.602314 15.327003 Z M 31.464283 29.011105 L 33.065094 28.918858 L 36.698898 32.264706 C 36.189247 32.337585 35.653603 32.433399 35.245377 32.521568 L 34.759678 32.069511 C 33.434589 32.391609 32.210411 32.951206 31.134027 33.702431 L 30.263546 32.878326 C 31.323233 32.115017 32.498924 31.527344 33.745476 31.137871 L 32.629852 30.110928 L 31.464283 29.010593 Z M 23.544323 29.470806 L 29.963873 29.10284 L 29.905771 29.148708 L 31.020885 30.206741 L 26.139969 30.490108 L 28.693316 33.008286 L 28.70096 33.012363 L 29.326811 33.62904 C 29.326811 33.62904 29.334455 33.625473 29.338531 33.621902 L 30.197292 34.426643 C 29.907606 34.677837 29.632458 34.945328 29.373188 35.22781 L 28.0481 34.012806 L 24.562094 30.582355 L 23.831764 30.62822 L 21.173941 31.800926 L 20.253004 30.927387 L 23.544323 29.470806 Z M 36.096493 33.556671 C 36.613277 33.456779 37.33596 33.399189 37.868542 33.357399 L 37.868542 49.314026 C 37.460823 49.248791 37.063805 49.125961 36.687172 48.976639 L 36.687172 34.618271 C 35.207584 34.915974 33.818974 35.558159 32.63393 36.492764 L 34.001831 37.745995 C 34.46978 37.394512 34.97541 37.096226 35.509373 36.856651 L 35.509373 38.163906 C 34.215858 38.87664 33.195133 39.998096 32.606918 41.352787 L 31.522383 40.889004 C 31.904865 40.011288 32.44482 39.211025 33.115547 38.527794 L 32.742485 38.190407 L 32.754208 38.18684 L 30.892963 36.481041 C 32.318745 35.037346 34.12196 34.023941 36.096493 33.556671 Z M 28.040453 41.751839 C 28.382429 40.118412 29.10919 38.627686 30.115749 37.358658 L 30.978586 38.152184 C 30.117292 39.266029 29.51334 40.556782 29.2101 41.931747 L 34.992588 42.805286 L 34.992588 46.82235 L 33.807652 46.82235 L 33.807652 43.805729 L 32.086056 43.541222 C 32.081978 43.671692 32.074333 43.80624 32.074333 43.936199 C 32.074333 45.530891 32.645142 47.002762 33.609398 48.152534 C 34.243469 48.902229 35.033905 49.504105 35.925247 49.915924 L 35.925247 49.923058 C 36.010868 49.961792 36.088337 49.995934 36.16988 50.030083 C 36.240211 50.061172 36.310036 50.084106 36.379856 50.111122 C 36.442032 50.13813 36.504211 50.161064 36.570465 50.183998 C 36.609196 50.191643 36.648441 50.218147 36.687172 50.226299 L 36.687172 50.222221 C 37.07196 50.348614 37.467957 50.440861 37.868542 50.502022 L 37.868542 52.334213 C 37.467609 52.289604 37.07196 52.206135 36.687172 52.084991 L 36.687172 51.44487 C 35.130692 51.016483 33.740593 50.126419 32.700184 48.892036 C 32.408962 48.542885 32.14761 48.169865 31.91889 47.776924 L 31.837345 47.818714 L 29.202457 49.171833 C 28.314951 47.617706 27.836237 45.863823 27.811113 44.074318 L 29.000635 44.25779 C 29.037634 45.403549 29.285202 46.532719 29.730963 47.58886 L 31.417904 46.73061 C 31.071014 45.83979 30.893003 44.892174 30.892963 43.936199 C 30.892963 43.748138 30.897041 43.552944 30.912333 43.365391 L 29.03529 43.085083 L 27.352427 42.824654 L 27.352427 42.82822 L 26.766329 42.740562 L 27.395237 47.343719 L 30.208506 51.429581 L 30.659544 52.68689 L 29.443521 52.778625 L 29.144356 51.958092 L 26.272478 47.772842 L 25.378551 41.325771 L 26.591009 41.517403 L 26.598654 41.532688 L 28.040964 41.751839 Z M 29.83952 50.161064 L 30.904688 49.609116 C 31.048407 49.807877 31.196207 49.996445 31.359295 50.183998 C 32.603138 51.593117 34.232445 52.607094 36.046036 53.100723 C 36.628567 53.311722 37.238617 53.453403 37.868542 53.510994 L 37.868542 59.631889 L 31.518305 58.608513 L 29.83952 53.909538 L 31.056051 53.794357 L 32.396431 57.573921 L 36.687172 58.259911 L 36.687172 54.446198 C 34.223526 53.993629 32.047321 52.736835 30.473013 50.946434 C 30.248318 50.695992 30.037027 50.43383 29.840029 50.161064 Z"/>
            <path id="path3" fill="#fafbfc" fill-rule="evenodd" stroke="none" d="M 39.443359 56.422623 C 39.902046 56.610683 40.290401 56.940426 40.570198 57.342541 C 40.846428 57.741089 41.001869 58.224236 41.001869 58.749176 C 41.001869 59.454533 40.725639 60.091084 40.255745 60.550785 C 39.770138 61.024231 39.119083 61.2897 38.44088 61.290798 C 37.763897 61.289604 37.114147 61.024075 36.630093 60.550785 C 36.145157 60.077114 35.872997 59.427055 35.875813 58.749176 C 35.87801 58.262238 36.019676 57.786125 36.284042 57.377197 C 36.542908 56.983578 36.907978 56.671341 37.336979 56.476646 L 36.828346 55.42218 C 36.203461 55.716709 35.671162 56.176743 35.289204 56.752365 C 34.902077 57.346474 34.695484 58.04007 34.694443 58.749176 C 34.694443 59.784271 35.114395 60.692467 35.790192 61.363678 C 36.4953 62.062019 37.447971 62.453167 38.440372 62.451782 C 39.478527 62.451782 40.414753 62.033867 41.091061 61.363678 C 41.767365 60.692467 42.190884 59.784271 42.190884 58.749176 C 42.190884 57.990307 41.953899 57.281387 41.549747 56.683563 C 41.135071 56.093575 40.564621 55.630402 39.902046 55.345734 L 39.443359 56.422623 Z"/>
            <g id="g2">
                <path id="path4" fill="#fafbfc" fill-rule="evenodd" stroke="none" d="M 59.397175 15.327003 L 69 27.952557 L 58.231094 39.344254 L 52.126511 37.726624 L 51.796257 40.118412 L 50.261189 40.359985 C 49.957951 38.80759 49.297443 37.373947 48.384148 36.132442 L 49.258709 35.334839 C 49.930706 36.213341 50.472439 37.1842 50.867165 38.217419 L 51.135242 36.255264 L 57.858543 38.04108 L 67.468498 27.872543 L 61.783356 20.386806 L 64.666954 26.58823 L 58.172997 32.828381 L 56.999779 32.318729 L 57.920719 31.440605 L 58.114895 31.25713 L 58.763683 30.647587 L 58.763683 30.639942 L 63.244522 26.323719 L 58.398769 15.917175 L 59.397686 15.327003 Z M 40.301613 32.264706 L 43.946629 28.918858 L 45.543873 29.010593 L 44.3783 30.110928 L 43.255035 31.137871 C 44.505569 31.526455 45.685261 32.114147 46.748684 32.878326 L 45.874126 33.702431 C 44.805389 32.951206 43.565922 32.391609 42.252552 32.069511 L 41.762779 32.521568 C 41.278812 32.419216 40.79147 32.333546 40.301613 32.264706 Z M 47.105949 29.148708 L 47.04377 29.10284 L 53.463833 29.470806 L 56.751072 30.927387 L 55.838287 31.800926 L 53.168232 30.62822 L 52.437904 30.582355 L 48.963623 34.012299 L 47.646175 35.22781 C 47.380688 34.946156 47.100498 34.678726 46.806782 34.426643 L 47.665546 33.621395 C 47.665546 33.625473 47.677265 33.629547 47.688988 33.629547 L 48.303116 33.027653 L 48.318405 33.008286 L 50.860031 30.490616 L 45.990833 30.206741 L 47.105949 29.148708 Z M 39.143177 37.320435 L 39.143177 33.357399 C 39.496876 33.3839 39.923962 33.42263 40.324547 33.468502 L 40.324547 34.618271 L 40.316902 34.618271 L 40.316902 36.427528 C 41.288994 36.691757 42.201656 37.139267 43.005814 37.745995 L 44.377792 36.492252 C 43.514633 35.817055 42.543705 35.292393 41.505913 34.940369 L 41.505913 33.713642 C 43.252197 34.237633 44.84026 35.188789 46.1264 36.481041 L 44.257004 38.18684 L 44.257004 38.190407 L 43.895664 38.527794 C 44.498245 39.144299 44.995792 39.855328 45.368549 40.632648 C 45.411362 40.716743 45.446526 40.804913 45.485264 40.889004 L 44.400723 41.352787 C 44.364929 41.278912 44.332615 41.2034 44.303894 41.126499 C 43.637638 39.756157 42.530422 38.6493 41.159863 37.98349 C 40.524094 37.664135 39.844467 37.440857 39.143177 37.320942 Z M 46.02549 38.152184 L 46.891895 37.358658 C 47.898457 38.627686 48.624702 40.118412 48.963112 41.751839 L 50.412556 41.532688 L 50.412556 41.517403 L 51.633167 41.325771 L 50.739243 47.772842 L 47.851566 51.958603 L 47.568199 52.779137 L 46.347588 52.68689 L 46.802708 51.429581 L 49.60833 47.343719 L 50.237747 42.740562 L 49.654709 42.82822 L 49.654709 42.824654 L 47.975922 43.085083 L 46.095314 43.365391 C 46.102959 43.552944 46.107037 43.748138 46.107037 43.936199 C 46.107037 44.917274 45.932224 45.86013 45.593815 46.73061 L 47.269035 47.58886 C 47.711922 46.557838 47.960629 45.435081 48.007008 44.258301 L 49.188377 44.074318 C 49.176762 45.864098 48.701614 47.620331 47.809265 49.171833 L 45.162651 47.818714 L 45.084675 47.776924 C 44.855335 48.171394 44.59898 48.547005 44.303894 48.892036 C 43.266937 50.130699 41.875286 51.02182 40.316391 51.445381 L 40.316391 52.084991 C 39.947407 52.203739 39.543251 52.291912 39.143177 52.334213 L 39.143177 38.512505 C 39.543251 38.593029 39.947407 38.715858 40.316902 38.884548 L 40.316902 50.226299 C 41.518898 49.836571 42.587734 49.118011 43.402321 48.152023 C 44.389896 46.969513 44.929253 45.476852 44.925667 43.936199 L 44.925667 43.541222 L 43.196423 43.80624 L 43.196423 46.82235 L 42.015053 46.82235 L 42.015053 42.805286 L 47.793468 41.932255 C 47.491894 40.556728 46.887775 39.265621 46.024982 38.152691 Z M 45.640705 50.183998 C 45.803795 49.995934 45.951591 49.808388 46.102959 49.609116 L 47.171692 50.161064 C 46.965794 50.429142 46.763973 50.701294 46.542274 50.946434 C 44.964397 52.736835 42.788197 53.994141 40.316902 54.446198 L 40.316902 58.259911 L 44.607136 57.573921 L 45.951591 53.794357 L 47.164047 53.909538 L 45.485264 58.608513 L 39.143177 59.631889 L 39.143177 53.511505 C 39.763138 53.453648 40.372993 53.315742 40.957531 53.101234 C 42.803993 52.599228 44.424171 51.572285 45.640705 50.184509 Z"/>
            </g>
        </g>
    </g>
</svg>
