<?xml version="1.0" encoding="UTF-8"?>
<!-- Generated by Pixelmator Pro 3.3.10 -->
<svg width="144" height="76" viewBox="0 0 144 76" xmlns="http://www.w3.org/2000/svg">
    <g id="Group">
        <g id="g1">
            <path id="Path" fill="#0033ad" fill-rule="evenodd" stroke="none" d="M 100.412003 39.646 L 101.772003 36.158001 L 111.316002 36.158001 L 112.628998 39.646 L 100.412003 39.646 Z M 109.980003 32.813 L 102.991997 32.813 L 106.531998 23.726997 L 109.980003 32.813 Z M 90.07 41.235001 C 90.024002 42.185001 90.796997 42.943001 91.900002 42.966999 L 95.627998 42.966999 L 91.032997 54.639999 C 90.705002 55.518002 91.079002 56.466999 91.922997 56.799999 C 92.111 56.846001 92.346001 56.894001 92.532997 56.894001 C 93.212997 56.894001 93.822998 56.514 94.056999 55.849998 L 99.122002 42.943001 L 113.966003 42.943001 L 118.843002 55.707001 C 119.082176 56.339863 119.690475 56.756569 120.366997 56.750999 C 120.555 56.750999 120.742996 56.750999 120.93 56.657001 C 121.779404 56.313286 122.196709 55.352322 121.867996 54.497002 L 117.459999 42.919998 L 121.235001 42.919998 C 122.150002 42.919998 122.900002 42.137001 122.852997 41.188 C 122.806 40.263 121.985001 39.598 121.094002 39.598 L 116.169998 39.598 L 114.857002 36.134998 L 118.07 36.134998 C 118.984001 36.134998 119.734001 35.351002 119.686996 34.403 C 119.640999 33.477001 118.82 32.813 117.929001 32.813 L 113.521004 32.813 L 108.126999 18.483002 C 107.869003 17.865997 107.259003 17.438999 106.602997 17.438999 C 105.922997 17.438999 105.313004 17.865997 105.079002 18.483002 L 99.449997 32.837002 L 94.947998 32.837002 C 94.032997 32.837002 93.281998 33.619999 93.329002 34.569 C 93.375999 35.493999 94.196999 36.159 95.088997 36.159 L 98.160004 36.159 L 96.800003 39.646 L 91.830002 39.646 C 90.915001 39.646 90.117996 40.334 90.070999 41.236 Z"/>
            <path id="path1" fill="#0033ad" fill-rule="evenodd" stroke="none" d="M 72.056999 38.304001 C 72.056999 19.332001 87.490997 3.898003 106.461998 3.898003 C 125.432999 3.898003 140.867004 19.332001 140.867004 38.304001 C 140.867004 57.273998 125.432999 72.709 106.461998 72.709 C 87.490997 72.709 72.056999 57.275002 72.056999 38.304001 M 0 37.902 C 0 58.633999 16.806999 75.440002 37.537998 75.440002 C 52.897999 75.440002 66.098999 66.212997 71.912003 53.000999 C 77.630997 66.428001 90.946999 75.841003 106.461998 75.841003 C 127.194 75.841003 144.001007 59.035 144.001007 38.304001 C 144 17.571999 127.194 0.764999 106.461998 0.764999 C 91.101997 0.764999 77.897003 9.992996 72.085999 23.207001 C 66.366997 9.779999 53.054001 0.363998 37.537998 0.363998 C 16.806999 0.363998 0 17.169998 0 37.902"/>
        </g>
    </g>
    <g id="g2">
        <radialGradient id="radialGradient1" cx="36.996809" cy="38.999564" r="25.00231" fx="36.996809" fy="38.999564" gradientUnits="userSpaceOnUse">
            <stop offset="1e-05" stop-color="#ffffff" stop-opacity="0.973927"/>
            <stop offset="0.11" stop-color="#ffffff" stop-opacity="0.986545"/>
            <stop offset="0.25" stop-color="#ffffff" stop-opacity="1"/>
            <stop offset="0.39" stop-color="#ffffff" stop-opacity="0.909854"/>
            <stop offset="0.54" stop-color="#ffffff" stop-opacity="0.99537"/>
            <stop offset="0.7" stop-color="#ffffff" stop-opacity="0.933924"/>
            <stop offset="0.86" stop-color="#d5d5d5" stop-opacity="0.996282"/>
            <stop offset="1" stop-color="#ffffff" stop-opacity="0.929745"/>
        </radialGradient>
        <path id="Path-copy-3" fill="url(#radialGradient1)" stroke="none" d="M 20.106678 36.183887 C 19.850937 36.833778 19.630432 37.497162 19.446142 38.170799 C 18.631916 41.140598 18.493999 44.255154 19.042547 47.28521 C 19.06811 47.435837 19.097712 47.586586 19.129999 47.73584 C 19.245689 48.308975 19.38829 48.882111 19.555107 49.443123 C 19.73941 50.067257 19.958689 50.695518 20.210268 51.309029 C 21.896122 55.448975 24.895723 58.92041 28.747541 61.188824 C 29.648556 61.721081 30.590073 62.181591 31.563215 62.566349 C 35.232281 64.017746 39.242973 64.376633 43.111416 63.599617 C 46.979858 62.822605 50.54092 60.942947 53.365093 58.187523 C 55.141876 56.454994 56.584023 54.409458 57.618793 52.153793 C 57.442665 52.33942 57.261036 52.5238 57.080784 52.704052 C 54.091606 55.638103 50.32629 57.656761 46.228218 58.522404 C 46.042591 58.613907 45.854214 58.697281 45.664585 58.780781 C 42.767159 60.037804 39.569855 60.437061 36.452301 59.931297 C 33.334621 59.425545 30.42757 58.035896 28.076155 55.927357 C 27.80715 55.687977 27.545645 55.437721 27.291891 55.17672 L 27.177513 55.056969 C 24.864223 52.654549 23.337696 49.60437 22.8013 46.312565 C 22.752874 46.017563 22.712061 45.72068 22.678886 45.421925 C 22.614534 44.829041 22.581747 44.233154 22.580671 43.636768 C 22.567972 40.390965 23.516336 37.214031 25.306231 34.506233 C 25.756113 33.821972 26.257622 33.172962 26.806257 32.564953 C 27.037636 32.308071 27.279766 32.052444 27.532646 31.806313 C 30.561949 28.831013 34.625145 27.143608 38.870842 27.097729 C 38.936718 27.097729 39.01347 27.097729 39.088722 27.097729 L 39.263599 27.097729 C 42.872284 27.126232 46.370972 28.342754 49.218895 30.559166 C 49.120144 30.19416 49.008518 29.832653 48.883892 29.474899 C 48.783012 29.192394 48.676636 28.916515 48.559635 28.643509 C 47.905872 27.078232 46.986607 25.637707 45.842087 24.38562 L 45.776211 24.335846 C 44.815945 24.002277 43.831429 23.74321 42.831409 23.560959 C 40.243118 23.084763 37.58757 23.108959 35.008526 23.632259 C 33.800381 23.875774 32.617359 24.230194 31.474463 24.691002 C 30.924204 24.911633 30.388821 25.153786 29.882936 25.412075 C 28.767292 25.977562 27.706274 26.644974 26.713381 27.405865 L 26.62463 27.473114 C 25.996618 27.963749 25.396608 28.489254 24.827347 29.047016 C 23.555876 30.289913 22.453182 31.694187 21.547491 33.224213 C 21.030144 34.100353 20.580399 35.014618 20.202192 35.959133 L 20.191429 36.182514 L 20.106678 36.183887 Z M 32.421482 20.696819 C 31.192333 20.695755 29.965687 20.807434 28.756916 21.030453 C 28.598164 21.056011 28.444786 21.085613 28.291409 21.12059 C 27.726398 21.236294 27.157389 21.380234 26.593628 21.549732 C 26.265373 21.645252 25.938492 21.751541 25.614363 21.864544 C 25.290106 21.977547 24.991476 22.093231 24.683346 22.218346 C 20.532486 23.89101 17.057789 26.899853 14.808911 30.769043 C 14.522356 31.256054 14.249264 31.768562 14.001735 32.291946 C 13.802631 32.707577 13.615628 33.131336 13.447475 33.555096 C 11.534417 38.358303 11.517067 43.708771 13.398936 48.524101 C 15.280794 53.339561 18.921396 57.260506 23.584265 59.493793 L 23.866768 59.628296 C 23.678427 59.449417 23.491438 59.266415 23.309822 59.080788 C 20.373283 56.087234 18.353584 52.316669 17.488733 48.213474 C 17.412056 48.078972 17.313843 47.862343 17.219679 47.644463 C 17.070351 47.301331 16.935823 46.951576 16.809359 46.593697 C 16.085958 44.547783 15.773829 42.379124 15.890867 40.212212 C 16.007919 38.0453 16.551853 35.922886 17.491421 33.96685 C 17.810987 33.300217 18.17317 32.654953 18.575727 32.034943 C 19.029022 31.341431 19.534519 30.683418 20.087841 30.066784 C 20.364971 29.756027 20.651512 29.457397 20.952868 29.170891 C 21.513752 28.629383 22.114063 28.130249 22.748837 27.677616 C 23.718592 26.983479 24.761097 26.397034 25.857864 25.928673 C 28.428661 23.969429 31.409212 22.616852 34.576645 21.972157 C 35.751411 21.727787 36.944183 21.580208 38.143082 21.53091 L 37.873947 21.452881 C 36.099918 20.951412 34.265137 20.696995 32.421482 20.696819 Z M 35.886913 56.481621 L 36.156044 56.555618 C 39.12347 57.373882 42.2369 57.515511 45.266327 56.970001 L 45.349831 56.95525 C 45.484333 56.929626 45.618835 56.905376 45.753334 56.875877 C 46.310345 56.764122 46.860481 56.624245 47.444366 56.450745 C 48.028252 56.277115 48.609386 56.079361 49.193272 55.845352 L 49.392399 56.114365 L 49.271271 55.812981 C 51.737816 54.818962 53.983852 53.347813 55.880764 51.483906 C 57.15366 50.237759 58.258427 48.830734 59.16732 47.298706 C 59.692204 46.408066 60.147839 45.478424 60.53009 44.51791 C 62.005619 40.843472 62.380375 36.819027 61.608612 32.935207 C 60.836849 29.051392 58.951813 25.475964 56.183392 22.644806 C 54.456989 20.874813 52.419952 19.437046 50.174038 18.403091 C 52.689583 20.805035 54.600868 23.768337 55.751637 27.050606 C 56.073143 27.963871 56.336021 28.896763 56.538525 29.843529 C 56.611275 29.978031 56.706779 30.187912 56.796902 30.396412 C 57.319416 31.619682 57.692047 32.901585 57.906799 34.214355 C 58.053299 35.108746 58.127052 36.013386 58.127426 36.919777 C 58.133675 40.15646 57.186161 43.323265 55.40313 46.024689 C 54.953369 46.708946 54.451488 47.357582 53.901855 47.964592 C 53.670475 48.222847 53.428219 48.478477 53.175343 48.724731 L 53.058338 48.834984 C 51.62994 50.213009 49.96291 51.319778 48.13863 52.101418 C 46.348721 53.44569 44.362064 54.505707 42.248901 55.243973 C 41.330635 55.567848 40.392368 55.831608 39.43985 56.033607 C 38.269581 56.278862 37.081436 56.429119 35.886913 56.482994 L 35.886913 56.481621 Z M 28.197281 53.65657 C 29.161922 53.995823 30.15144 54.259953 31.156958 54.446209 C 33.758755 54.938965 36.432175 54.913841 39.02422 54.372208 C 39.926483 54.183701 40.815376 53.936199 41.685139 53.630943 C 41.991894 53.523315 42.294651 53.407692 42.59053 53.287937 C 43.111164 53.078056 43.618423 52.84668 44.101307 52.601799 C 47.60162 50.846268 50.516918 48.112347 52.493328 44.731789 C 52.777084 44.252907 53.04884 43.740398 53.300465 43.206261 C 53.49147 42.802753 53.664978 42.407124 53.829102 42.003616 L 53.851974 41.940365 C 55.276505 38.395676 55.666012 34.519611 54.975372 30.762299 L 54.975372 30.752918 C 54.952496 30.606293 54.922871 30.462288 54.890621 30.317039 C 54.777618 29.757401 54.633617 29.181641 54.46011 28.601757 C 54.361862 28.272125 54.258358 27.945248 54.142609 27.618362 C 54.036358 27.319736 53.92598 27.025108 53.806351 26.734474 C 52.147072 22.586266 49.156147 19.107079 45.304077 16.843903 C 44.784695 16.535824 44.25206 16.253319 43.721928 16.000401 C 43.330544 15.813396 42.936287 15.637169 42.535404 15.478428 C 37.726196 13.539661 32.358978 13.505421 27.525394 15.382675 C 22.69186 17.259937 18.754755 20.907738 16.514742 25.584278 C 16.47304 25.671719 16.431328 25.759174 16.390976 25.853336 C 18.794943 23.332878 21.76152 21.417408 25.047977 20.263638 C 25.954742 19.945992 26.880259 19.684513 27.819275 19.480671 C 27.968527 19.398613 28.193281 19.296371 28.421909 19.200855 C 28.746166 19.066326 29.078423 18.931805 29.416052 18.814747 C 30.337442 18.491558 31.284836 18.248505 32.247974 18.088299 C 36.349548 17.424385 40.550869 18.32563 44.019306 20.613419 C 44.698692 21.056698 45.343204 21.551422 45.94709 22.093231 C 46.24847 22.362301 46.539974 22.641666 46.82148 22.931358 C 48.197506 24.363022 49.302898 26.032127 50.083912 27.857868 C 50.230541 28.202251 50.366417 28.549255 50.487419 28.905762 C 50.810925 29.819031 51.053055 30.759045 51.211182 31.714813 C 51.263683 32.012066 51.302685 32.314823 51.336308 32.616077 C 51.675316 35.67313 51.14468 38.763809 49.805405 41.532734 C 49.127396 42.948631 48.25338 44.262032 47.208988 45.434052 C 45.679337 47.134209 43.814926 48.499855 41.732517 49.445374 C 39.650105 50.390884 37.394817 50.895645 35.108025 50.928272 C 34.291889 50.939396 33.476124 50.888649 32.667732 50.776268 C 30.966204 50.540642 29.311802 50.041382 27.764149 49.296371 C 26.711882 48.792358 25.714989 48.180099 24.789597 47.469585 C 25.405233 49.778252 26.573879 51.902161 28.194532 53.657822 L 28.197281 53.65657 Z M 24.33359 44.777538 C 25.539234 46.005562 26.950636 47.012703 28.504036 47.753342 C 28.850168 47.919342 29.200924 48.071346 29.556055 48.209473 C 27.065762 45.558556 25.524359 42.156868 25.173103 38.536808 C 24.451067 40.534714 24.164837 42.664001 24.33359 44.781666 L 24.33359 44.777538 Z M 44.444439 29.792404 C 46.922359 32.442322 48.465008 35.830509 48.836765 39.439445 C 49.558651 37.461037 49.847656 35.35075 49.68428 33.251091 L 49.68428 33.244339 C 48.204002 31.733063 46.417347 30.556042 44.444439 29.792404 Z"/>
    </g>
</svg>
