<svg xmlns="http://www.w3.org/2000/svg" width="144" height="76">
  <g fill="none" fill-rule="evenodd">
    <g fill="#0033AD">
      <path d="M100.412 39.646l1.36-3.488h9.544l1.313 3.488h-12.217zm9.568-6.833h-6.988l3.54-9.086 3.448 9.086zm-19.91 8.422c-.046.95.727 1.708 1.83 1.732h3.728L91.033 54.64c-.328.878.046 1.827.89 2.16.188.046.423.094.61.094.68 0 1.29-.38 1.524-1.044l5.065-12.907h14.844l4.877 12.764a1.615 1.615 0 001.524 1.044c.188 0 .376 0 .563-.094a1.68 1.68 0 00.938-2.16L117.46 42.92h3.775c.915 0 1.665-.783 1.618-1.732-.047-.925-.868-1.59-1.759-1.59h-4.924l-1.313-3.463h3.213c.914 0 1.664-.784 1.617-1.732-.046-.926-.867-1.59-1.758-1.59h-4.408l-5.394-14.33c-.258-.617-.868-1.044-1.524-1.044-.68 0-1.29.427-1.524 1.044L99.45 32.837h-4.502c-.915 0-1.666.783-1.619 1.732.047.925.868 1.59 1.76 1.59h3.071l-1.36 3.487h-4.97c-.915 0-1.712.688-1.759 1.59z"/>
      <path d="M72.057 38.304c0-18.972 15.434-34.406 34.405-34.406 18.971 0 34.405 15.434 34.405 34.406 0 18.97-15.434 34.405-34.405 34.405-18.971 0-34.405-15.434-34.405-34.405M0 37.902C0 58.634 16.807 75.44 37.538 75.44c15.36 0 28.561-9.227 34.374-22.439 5.719 13.427 19.035 22.84 34.55 22.84 20.732 0 37.539-16.806 37.539-37.537C144 17.572 127.194.765 106.462.765c-15.36 0-28.565 9.228-34.376 22.442C66.367 9.78 53.054.364 37.538.364 16.807.364 0 17.17 0 37.902"/>
    </g>
    <path fill="#F5F7F9" fill-rule="nonzero" d="M49.57 51.426l-3.546 2.461L19.91 35.843c-.005-.035-.007-.07-.01-.106v-1.61c.002-.52.001-1.042 0-1.563v-1.64l29.67 20.501zm-7.288-23.288c-1.576 1.08-3.167 2.14-4.743 3.22-.214.145-.36.149-.574 0-1.948-1.355-3.907-2.695-5.858-4.047-2.054-1.424-4.102-2.859-6.154-4.287L22.043 21H15c.374.262.682.481.992.696 1.839 1.276 3.68 2.55 5.518 3.827 1.82 1.264 3.64 2.53 5.458 3.797 1.712 1.191 3.42 2.387 5.133 3.575 1.627 1.128 3.26 2.245 4.885 3.375.18.124.3.121.479 0 1.314-.901 2.64-1.784 3.955-2.685 3.252-2.229 6.498-4.465 9.748-6.696 2.362-1.62 4.727-3.238 7.09-4.858.488-.335.976-.676 1.488-1.031h-7.071c-3.464 2.38-6.927 4.762-10.393 7.138zM19.94 42.926c-.026.062-.038.078-.038.094v2.957c0 .59 0 1.18.003 1.768 0 .032.011.068.026.103l17.43 12.045c.006 0 .011-.004.017-.004l3.546-2.462L19.94 42.926zm34.819-11.992l-12.972 8.98c.065.073.095.121.138.152 1.096.777 2.191 1.554 3.292 2.322.027.019.073.024.12.02l9.39-6.502c.015-.026.023-.057.032-.087v-4.885zm.01 12.18l-4.332 2.993 3.37 2.39.962-.667v-4.716z"/>
  </g>
</svg>
