<svg xmlns="http://www.w3.org/2000/svg" viewBox="0 0 640 640"><path fill-rule="evenodd" d="M320 52a36 36 0 1 1 0 72 36 36 0 0 1 0-72Zm-16 64h32v52h-32ZM48 296a16 16 0 0 1 16-16h16v128H64a16 16 0 0 1-16-16V296Zm512-16h16a16 16 0 0 1 16 16v96a16 16 0 0 1-16 16h-16V280ZM160 168h320a64 64 0 0 1 64 64v224a64 64 0 0 1-64 64H160a64 64 0 0 1-64-64V232a64 64 0 0 1 64-64Zm64 108a44 44 0 1 0 0 88 44 44 0 0 0 0-88Zm192 0a44 44 0 1 0 0 88 44 44 0 0 0 0-88ZM224 416h192a16 16 0 0 1 16 16 16 16 0 0 1-16 16H224a16 16 0 0 1-16-16 16 16 0 0 1 16-16Z"/></svg>
