<svg width="1373" height="880" viewBox="0 0 1373 880" fill="none" xmlns="http://www.w3.org/2000/svg">
<g clip-path="url(#clip0_497_985)">
<rect width="1373" height="880" transform="translate(1373 880) rotate(-180)" fill="#000629"/>
<g clip-path="url(#clip1_497_985)">
<rect width="1383.45" height="2359.47" transform="translate(1378.97 1056.47) rotate(-180)" fill="#000629"/>
<path d="M-71.9997 -654.761L-71.9998 652.574C-71.9998 1161.53 340.593 1574.13 849.552 1574.13C1358.51 1574.13 1771.1 1161.53 1771.1 652.574L1771.1 -654.761C1771.1 -1163.72 1358.51 -1576.31 849.552 -1576.31C340.593 -1576.31 -71.9996 -1163.72 -71.9997 -654.761Z" fill="url(#paint0_linear_497_985)"/>
<path d="M60.8228 -532.387L60.8227 530.197C60.8227 973.218 419.962 1332.36 862.983 1332.36C1306 1332.36 1665.14 973.219 1665.14 530.198L1665.14 -532.386C1665.14 -975.406 1306 -1334.55 862.983 -1334.55C419.962 -1334.55 60.8228 -975.408 60.8228 -532.387Z" fill="url(#paint1_linear_497_985)" fill-opacity="0.6"/>
<path d="M160.718 -489.104L160.718 486.916C160.718 867.348 469.119 1175.75 849.551 1175.75C1229.98 1175.75 1538.38 867.348 1538.38 486.916L1538.38 -489.103C1538.38 -869.536 1229.98 -1177.94 849.551 -1177.94C469.119 -1177.94 160.718 -869.536 160.718 -489.104Z" fill="#000629"/>
<path d="M160.718 -489.104L160.718 486.916C160.718 867.348 469.119 1175.75 849.551 1175.75C1229.98 1175.75 1538.38 867.348 1538.38 486.916L1538.38 -489.103C1538.38 -869.536 1229.98 -1177.94 849.551 -1177.94C469.119 -1177.94 160.718 -869.536 160.718 -489.104Z" fill="url(#paint2_linear_497_985)"/>
<path d="M313.398 -488.779L313.398 485.607C313.398 781.816 553.523 1021.94 849.732 1021.94C1145.94 1021.94 1386.07 781.816 1386.07 485.607L1386.07 -488.778C1386.07 -784.987 1145.94 -1025.11 849.733 -1025.11C553.523 -1025.11 313.398 -784.988 313.398 -488.779Z" fill="#000629"/>
<path d="M313.398 -488.779L313.398 485.607C313.398 781.816 553.523 1021.94 849.732 1021.94C1145.94 1021.94 1386.07 781.816 1386.07 485.607L1386.07 -488.778C1386.07 -784.987 1145.94 -1025.11 849.733 -1025.11C553.523 -1025.11 313.398 -784.988 313.398 -488.779Z" fill="url(#paint3_linear_497_985)"/>
<path d="M466.527 -488.336L466.527 486.149C466.527 697.656 637.987 869.117 849.494 869.117C1061 869.117 1232.46 697.657 1232.46 486.149L1232.46 -488.336C1232.46 -699.843 1061 -871.304 849.494 -871.304C637.987 -871.304 466.527 -699.843 466.527 -488.336Z" fill="#000629"/>
<path d="M466.527 -488.336L466.527 486.149C466.527 697.656 637.987 869.117 849.494 869.117C1061 869.117 1232.46 697.657 1232.46 486.149L1232.46 -488.336C1232.46 -699.843 1061 -871.304 849.494 -871.304C637.987 -871.304 466.527 -699.843 466.527 -488.336Z" fill="url(#paint4_linear_497_985)"/>
<path d="M619.748 -488.299L619.748 485.996C619.748 612.897 722.621 715.771 849.523 715.771C976.424 715.771 1079.3 612.897 1079.3 485.996L1079.3 -488.299C1079.3 -615.201 976.424 -718.074 849.523 -718.074C722.622 -718.074 619.748 -615.2 619.748 -488.299Z" fill="#000629"/>
<path d="M619.748 -488.299L619.748 485.996C619.748 612.897 722.621 715.771 849.523 715.771C976.424 715.771 1079.3 612.897 1079.3 485.996L1079.3 -488.299C1079.3 -615.201 976.424 -718.074 849.523 -718.074C722.622 -718.074 619.748 -615.2 619.748 -488.299Z" fill="url(#paint5_linear_497_985)"/>
<path d="M772.912 -488.147L772.912 485.902C772.912 528.197 807.199 562.484 849.494 562.484C891.789 562.484 926.076 528.197 926.076 485.902L926.076 -488.147C926.076 -530.442 891.789 -564.729 849.494 -564.729C807.199 -564.729 772.912 -530.442 772.912 -488.147Z" fill="url(#paint6_linear_497_985)"/>
<path d="M924.917 469.756C924.917 427.72 890.841 393.644 848.805 393.644V393.644C806.77 393.644 772.693 427.72 772.693 469.755V469.755C772.693 511.791 806.77 545.867 848.805 545.867V545.867C890.841 545.867 924.917 511.791 924.917 469.756V469.756Z" fill="#FFFAF3"/>
<rect width="804" height="1003" transform="matrix(-1 0 0 1 1379 -78)" fill="url(#paint7_linear_497_985)"/>
</g>
<rect x="-16" y="-2" width="1110" height="1003" fill="url(#paint8_linear_497_985)"/>
</g>
<defs>
<linearGradient id="paint0_linear_497_985" x1="849.552" y1="1574.13" x2="427.205" y2="-269.724" gradientUnits="userSpaceOnUse">
<stop stop-color="#0033AD"/>
<stop offset="1" stop-color="#0033AD" stop-opacity="0"/>
</linearGradient>
<linearGradient id="paint1_linear_497_985" x1="965.212" y1="1457.21" x2="516.655" y2="-284.508" gradientUnits="userSpaceOnUse">
<stop stop-color="#0033AD"/>
<stop offset="1" stop-color="#0033AD" stop-opacity="0"/>
</linearGradient>
<linearGradient id="paint2_linear_497_985" x1="1062.22" y1="1175.66" x2="849.551" y2="-1177.94" gradientUnits="userSpaceOnUse">
<stop stop-color="#0033AD"/>
<stop offset="0.497178" stop-color="#0033AD" stop-opacity="0"/>
</linearGradient>
<linearGradient id="paint3_linear_497_985" x1="1127.88" y1="960.753" x2="1328.4" y2="-810.137" gradientUnits="userSpaceOnUse">
<stop stop-color="#0033AD"/>
<stop offset="0.556338" stop-color="#0033AD" stop-opacity="0"/>
</linearGradient>
<linearGradient id="paint4_linear_497_985" x1="1286.08" y1="886.133" x2="1490.59" y2="-245.973" gradientUnits="userSpaceOnUse">
<stop offset="0.0469336" stop-color="#0033AD"/>
<stop offset="0.633382" stop-color="#0033AD" stop-opacity="0"/>
</linearGradient>
<linearGradient id="paint5_linear_497_985" x1="1062.54" y1="686.084" x2="1393" y2="-335.45" gradientUnits="userSpaceOnUse">
<stop offset="0.0255096" stop-color="#0033AD"/>
<stop offset="0.578508" stop-color="#0033AD" stop-opacity="0"/>
</linearGradient>
<linearGradient id="paint6_linear_497_985" x1="973.42" y1="752.564" x2="647.333" y2="-564.471" gradientUnits="userSpaceOnUse">
<stop stop-color="#0033AD"/>
<stop offset="0.798791" stop-color="#0033AD" stop-opacity="0"/>
</linearGradient>
<linearGradient id="paint7_linear_497_985" x1="53.3599" y1="478" x2="562.218" y2="491.059" gradientUnits="userSpaceOnUse">
<stop stop-color="#000629"/>
<stop offset="0.825558" stop-color="#000629" stop-opacity="0"/>
</linearGradient>
<linearGradient id="paint8_linear_497_985" x1="73.5404" y1="476" x2="764.923" y2="500.121" gradientUnits="userSpaceOnUse">
<stop stop-color="#000629"/>
<stop offset="0.825558" stop-color="#000629" stop-opacity="0"/>
</linearGradient>
<clipPath id="clip0_497_985">
<rect width="1373" height="880" fill="white" transform="translate(1373 880) rotate(-180)"/>
</clipPath>
<clipPath id="clip1_497_985">
<rect width="1383.45" height="2359.47" fill="white" transform="translate(1378.97 1056.47) rotate(-180)"/>
</clipPath>
</defs>
</svg>
