<svg preserveAspectRatio="none" width="100%" height="100%" overflow="visible" style="display: block;" viewBox="0 0 30 30" fill="none" xmlns="http://www.w3.org/2000/svg">
<g id="Frame" clip-path="url(#clip0_0_103)">
<path id="Vector" d="M23.5511 25.1753C23.5525 25.1214 23.5393 25.0682 23.513 25.0215C23.4867 24.9747 23.4483 24.9364 23.402 24.9106L14.0323 19.373C13.6684 19.1578 13.2556 19.0446 12.8353 19.0446C12.4151 19.0446 12.0022 19.1578 11.6383 19.373L6.6005 22.3499C6.55365 22.3757 6.5148 22.4144 6.48838 22.4617C6.46195 22.5089 6.449 22.5628 6.45101 22.6172V23.9796C6.44986 24.034 6.46366 24.0877 6.49084 24.1345C6.51801 24.1813 6.55746 24.2193 6.60471 24.2443L16.1887 29.6918C16.5503 29.8972 16.9576 30.0033 17.3711 29.9998C17.7846 29.9963 18.1902 29.8832 18.5484 29.6717L23.4037 26.8025C23.4501 26.7769 23.4886 26.7385 23.515 26.6918C23.5413 26.645 23.5544 26.5917 23.5529 26.5378V25.1757L23.5511 25.1753Z" fill="var(--fill-0, #6B7495)"/>
<path id="Vector_2" d="M12.8336 19.0447C13.2538 19.0448 13.6666 19.158 14.0306 19.373L23.4002 24.9106C23.4457 24.9374 23.4835 24.9759 23.5098 25.0224C23.536 25.0689 23.5499 25.1216 23.5499 25.1753C23.5499 25.229 23.536 25.2818 23.5098 25.3283C23.4835 25.3748 23.4457 25.4133 23.4002 25.4401L18.5452 28.3093C18.187 28.5208 17.7815 28.6338 17.368 28.6374C16.9545 28.6409 16.5471 28.5348 16.1856 28.3294L6.60155 22.8819C6.55527 22.8557 6.51662 22.8174 6.48956 22.7709C6.46251 22.7244 6.44803 22.6713 6.4476 22.6172C6.44717 22.5631 6.46081 22.5098 6.48713 22.4628C6.51344 22.4159 6.55147 22.3769 6.59734 22.3499L11.6352 19.373C11.9993 19.158 12.4122 19.0448 12.8325 19.0447" fill="var(--fill-0, #B7B7C7)"/>
<path id="Vector_3" d="M29.9986 16.7045C29.9923 16.3343 29.892 15.972 29.7074 15.6535C29.5228 15.335 29.2603 15.0712 28.9458 14.8881L25.8549 13.0613C26.0253 13.5703 26.1429 14.0963 26.2058 14.6306L14.3043 7.59689C13.4865 7.11367 12.5589 6.85928 11.6147 6.85928C10.6704 6.85928 9.74277 7.11367 8.92501 7.59689L2.8516 11.1863L2.82633 10.5642C2.82686 10.315 2.83857 10.0659 2.86142 9.81777L1.05277 10.8871C0.725068 11.078 0.454092 11.3563 0.268701 11.6923C0.0833094 12.0284 -0.00955449 12.4097 0 12.7955V14.1625C0.00602445 14.5394 0.109555 14.9079 0.300041 15.2304C0.490527 15.553 0.761157 15.8181 1.08435 15.9987L1.63951 16.3145L2.39469 17.6366C2.68452 18.1442 3.10214 18.5629 3.60397 18.8489L16.6127 26.2694C17.1038 26.5486 17.6572 26.6928 18.219 26.688C18.7808 26.6833 19.3318 26.5296 19.8183 26.2421L26.0518 22.5382C26.3596 22.3554 26.6417 22.1306 26.8905 21.8701L28.3615 20.3284L28.9476 19.9822C29.2734 19.7923 29.5432 19.516 29.7285 19.1823C29.9137 18.8487 30.0077 18.4701 30.0004 18.0863L29.9986 16.7045Z" fill="var(--fill-0, #6B7495)"/>
<path id="Vector_4" d="M29.9986 16.7045C29.9923 16.3343 29.892 15.972 29.7074 15.6535C29.5228 15.335 29.2603 15.0712 28.9458 14.8881L25.8549 13.0613C26.0253 13.5703 26.1429 14.0963 26.2058 14.6306L14.3043 7.59689C13.4865 7.11367 12.5589 6.85928 11.6147 6.85928C10.6704 6.85928 9.74277 7.11367 8.92501 7.59689L2.8516 11.1863L2.82633 10.5642C2.82686 10.315 2.83857 10.0659 2.86142 9.81777L1.05277 10.8871C0.725068 11.078 0.454092 11.3563 0.268701 11.6923C0.0833094 12.0284 -0.00955449 12.4097 0 12.7955V14.1625C0.00602445 14.5394 0.109555 14.9079 0.300041 15.2304C0.490527 15.553 0.761157 15.8181 1.08435 15.9987L16.0607 24.5116C16.8729 24.9732 17.7882 25.2116 18.7172 25.2036C19.6463 25.1956 20.5575 24.9415 21.362 24.4659L28.9476 19.9822C29.2734 19.7922 29.5431 19.5159 29.7284 19.1823C29.9136 18.8486 30.0076 18.47 30.0004 18.0863L29.9986 16.7045Z" fill="var(--fill-0, #B7B7C7)"/>
<path id="Vector_5" d="M14.3043 6.23484L28.9472 14.8881C29.267 15.0773 29.5326 15.3494 29.7172 15.6769C29.9018 16.0044 29.999 16.3758 29.999 16.7539C29.999 17.132 29.9018 17.5035 29.7172 17.831C29.5326 18.1585 29.267 18.4305 28.9472 18.6197L21.3606 23.1032C20.556 23.5786 19.6448 23.8327 18.7158 23.8406C17.7867 23.8486 16.8715 23.6101 16.0593 23.1484L1.08295 14.6356C0.757674 14.4503 0.486199 14.1801 0.296185 13.8525C0.10617 13.5249 0.00440828 13.1515 0.00126956 12.7705C-0.00186917 12.3895 0.0937271 12.0145 0.278317 11.6836C0.462907 11.3528 0.729892 11.0779 1.05207 10.8871L8.92501 6.23484C9.74272 5.75144 10.6704 5.49695 11.6147 5.49695C12.5589 5.49695 13.4866 5.75144 14.3043 6.23484Z" fill="var(--fill-0, #ECF0F1)"/>
<path id="Vector_6" d="M11.6145 7.17376C12.2712 7.17402 12.9163 7.3509 13.4852 7.68669L28.1282 16.34C28.1988 16.382 28.2575 16.4422 28.2982 16.5147C28.339 16.5872 28.3604 16.6694 28.3604 16.753C28.3604 16.8367 28.339 16.9188 28.2982 16.9913C28.2575 17.0638 28.1988 17.1241 28.1282 17.1661L20.5416 21.6506C19.9821 21.9814 19.3484 22.1582 18.7023 22.1637C18.0561 22.1692 17.4196 22.0034 16.8548 21.6822L1.87849 13.1694C1.80632 13.1284 1.74608 13.0685 1.7039 12.9958C1.66173 12.9232 1.63913 12.8404 1.63842 12.7559C1.6377 12.6714 1.6589 12.5882 1.69984 12.5148C1.74078 12.4415 1.8 12.3805 1.87147 12.3382L9.74371 7.68597C10.3126 7.35018 10.9578 7.1733 11.6145 7.17305" fill="var(--fill-0, #B7B7C7)"/>
<path id="Vector_7" d="M18.6708 22.1653C19.3274 22.1653 19.9727 21.9882 20.5416 21.6524L25.0004 19.0174L13.4856 12.2125C12.9168 11.8763 12.2716 11.6993 11.6148 11.6993C10.958 11.6993 10.3128 11.8763 9.74406 12.2125L5.06065 14.9801L16.8552 21.6836C17.4107 21.9991 18.0355 22.1648 18.6708 22.1653Z" fill="var(--fill-0, #6B7495)"/>
<path id="Vector_8" d="M17.9009 10.5642C17.9009 14.8253 14.5264 18.2792 10.3634 18.2792C6.20045 18.2792 2.82598 14.8253 2.82598 10.5642C2.82598 6.30309 6.20045 2.8491 10.3634 2.8491C14.5264 2.8491 17.9009 6.30309 17.9009 10.5642Z" fill="var(--fill-0, #F5B7B1)"/>
<path id="Vector_9" d="M10.3634 2.8491C6.2008 2.8491 2.82633 6.30309 2.82598 10.5638C2.82598 10.7621 2.83545 10.9589 2.84984 11.1518C2.88493 11.4392 3.04741 12.1482 3.79733 11.8343C4.73991 11.4392 5.26489 10.6198 5.94778 12.1575C6.63068 13.6952 7.96453 14.2886 9.37945 14.2186C10.7944 14.1485 10.9649 12.9639 12.0914 12.6306C13.2178 12.2973 13.1835 13.3985 14.3783 13.2847C15.5732 13.1708 15.3339 11.983 15.8799 11.2491C16.426 10.5153 16.6309 11.2851 17.5184 11.1773C17.6739 11.1522 17.8104 11.0573 17.8911 10.919C17.8966 10.8007 17.8996 10.6823 17.8998 10.5638C17.8995 6.30344 14.5257 2.84982 10.3634 2.8491Z" fill="var(--fill-0, #53390E)"/>
<path id="Vector_10" d="M26.263 15.5598C26.2629 17.0856 25.8207 18.5771 24.9925 19.8458C24.1642 21.1144 22.987 22.1032 21.6098 22.6871C20.2326 23.271 18.7171 23.4238 17.2551 23.1262C15.793 22.8286 14.45 22.094 13.3958 21.0152C12.3418 19.9361 11.624 18.5614 11.3333 17.0649C11.0426 15.5683 11.1919 14.0171 11.7624 12.6074C12.3329 11.1977 13.299 9.99284 14.5385 9.1451C15.778 8.29735 17.2352 7.84483 18.7259 7.84473C22.8886 7.84509 26.263 11.2991 26.263 15.5598Z" fill="var(--fill-0, #F9E79F)"/>
<path id="Vector_11" d="M18.7256 7.84473C16.7266 7.84492 14.8096 8.65783 13.3961 10.1047C11.9827 11.5515 11.1885 13.5137 11.1885 15.5598L11.2123 16.1474C11.2474 16.4348 11.4102 17.1438 12.1598 16.8299C13.1027 16.4348 13.6277 15.6155 14.3103 17.1532C14.9928 18.6909 16.327 19.2843 17.7419 19.2142C19.1569 19.1442 19.3277 17.9596 20.4539 17.6262C21.58 17.2929 21.5459 18.3942 22.7405 18.2803C23.935 18.1664 23.696 16.9786 24.2421 16.2448C24.7881 15.5109 24.993 16.2807 25.8805 16.1729C25.9574 16.1605 26.0306 16.131 26.095 16.0863C26.1594 16.0417 26.2134 15.9831 26.2532 15.9147L26.262 15.5591C26.2613 11.2991 22.8875 7.84545 18.7256 7.84473Z" fill="var(--fill-0, #7D5516)"/>
<path id="Vector_12" d="M28.9476 14.8881L25.8567 13.0613C26.0909 13.7617 26.2251 14.4932 26.255 15.2329L28.1285 16.34C28.1992 16.382 28.2578 16.4422 28.2986 16.5147C28.3393 16.5872 28.3608 16.6694 28.3608 16.753C28.3608 16.8367 28.3393 16.9188 28.2986 16.9913C28.2578 17.0638 28.1992 17.1241 28.1285 17.1661L20.5416 21.651C19.982 21.9816 19.3483 22.1583 18.7022 22.1638C18.0561 22.1693 17.4196 22.0033 16.8548 21.6822L1.87849 13.1701C1.80632 13.1291 1.74608 13.0692 1.7039 12.9965C1.66173 12.9239 1.63913 12.8411 1.63842 12.7566C1.6377 12.6721 1.6589 12.5889 1.69984 12.5156C1.74078 12.4422 1.8 12.3812 1.87147 12.3389L2.91266 11.7244C2.85556 11.3404 2.82682 10.9526 2.82668 10.5642C2.82703 10.3149 2.83874 10.0659 2.86177 9.81777L1.05277 10.8871C0.730409 11.0778 0.463241 11.3527 0.278506 11.6836C0.0937704 12.0145 -0.00192433 12.3897 0.00117914 12.7708C0.0042826 13.1519 0.106073 13.5254 0.296172 13.8531C0.486271 14.1808 0.757877 14.4511 1.0833 14.6363L16.0593 23.1491C16.8715 23.6108 17.7867 23.8493 18.7158 23.8414C19.6448 23.8334 20.556 23.5794 21.3606 23.1039L28.9476 18.6197C29.2674 18.4305 29.5329 18.1585 29.7176 17.831C29.9022 17.5035 29.9993 17.132 29.9993 16.7539C29.9993 16.3758 29.9022 16.0044 29.7176 15.6769C29.5329 15.3494 29.2674 15.0773 28.9476 14.8881Z" fill="var(--fill-0, #ECF0F1)"/>
<path id="Vector_13" d="M21.5091 8.0114C21.5091 8.76712 21.2158 9.4919 20.6937 10.0263C20.1716 10.5607 19.4635 10.8609 18.7252 10.8609C17.9869 10.8609 17.2788 10.5607 16.7567 10.0263C16.2346 9.4919 15.9413 8.76712 15.9413 8.0114C15.9413 7.25567 16.2346 6.5309 16.7567 5.99652C17.2788 5.46215 17.9869 5.16194 18.7252 5.16194C19.4635 5.16194 20.1716 5.46215 20.6937 5.99652C21.2158 6.5309 21.5091 7.25567 21.5091 8.0114Z" fill="var(--fill-0, #E74C3C)"/>
<path id="Vector_14" d="M18.7256 7.00602C18.7256 7.27276 18.622 7.52857 18.4378 7.71718C18.2535 7.9058 18.0036 8.01176 17.743 8.01176C17.4824 8.01176 17.2325 7.9058 17.0482 7.71718C16.8639 7.52857 16.7604 7.27276 16.7604 7.00602C16.7604 6.8071 16.818 6.61263 16.926 6.44723C17.0339 6.28182 17.1874 6.1529 17.367 6.07678C17.5465 6.00065 17.7441 5.98073 17.9347 6.01954C18.1253 6.05836 18.3004 6.15415 18.4378 6.29482C18.5291 6.38822 18.6014 6.4991 18.6508 6.62113C18.7002 6.74316 18.7256 6.87394 18.7256 7.00602Z" fill="var(--fill-0, #ECF0F1)"/>
<path id="Vector_15" d="M13.1473 2.8491C13.1473 3.2233 13.0753 3.59383 12.9354 3.93955C12.7955 4.28526 12.5904 4.59938 12.3319 4.86398C12.0734 5.12858 11.7665 5.33847 11.4288 5.48166C11.091 5.62486 10.729 5.69857 10.3634 5.69857C9.99786 5.69857 9.63585 5.62486 9.2981 5.48166C8.96034 5.33847 8.65345 5.12858 8.39495 4.86398C8.13644 4.59938 7.93138 4.28526 7.79148 3.93955C7.65158 3.59383 7.57957 3.2233 7.57957 2.8491C7.57957 2.09338 7.87287 1.36861 8.39495 0.834229C8.91702 0.299851 9.62511 -0.000359131 10.3634 -0.000359131C11.1018 -0.000359131 11.8099 0.299851 12.3319 0.834229C12.854 1.36861 13.1473 2.09338 13.1473 2.8491Z" fill="var(--fill-0, #E74C3C)"/>
<path id="Vector_16" d="M10.3631 1.84337C10.3631 2.11011 10.2596 2.36592 10.0753 2.55453C9.89103 2.74314 9.6411 2.8491 9.38051 2.8491C9.11991 2.8491 8.86998 2.74314 8.68571 2.55453C8.50144 2.36592 8.39792 2.11011 8.39792 1.84337C8.39791 1.64444 8.45553 1.44998 8.56349 1.28457C8.67146 1.11917 8.82492 0.99025 9.00448 0.914122C9.18403 0.837995 9.3816 0.818077 9.57222 0.85689C9.76283 0.895703 9.93791 0.991501 10.0753 1.13217C10.1666 1.22557 10.2389 1.33645 10.2883 1.45848C10.3377 1.5805 10.3631 1.71129 10.3631 1.84337Z" fill="var(--fill-0, #ECF0F1)"/>
</g>
<defs>
<clipPath id="clip0_0_103">
<rect width="30" height="30" fill="white"/>
</clipPath>
</defs>
</svg>
