<svg width="20" height="22" viewBox="0 0 20 22" fill="none" xmlns="http://www.w3.org/2000/svg">
<path d="M0.280251 0V0.814619H19.4691V0H0.280251Z" fill="black"/>
<path d="M0.00012207 21.1533V22H19.4691V21.1533H0.00012207Z" fill="black"/>
<path d="M9.73489 2.40796C4.99807 2.40732 1.14385 6.2632 1.14285 11C1.14222 15.738 4.99692 19.5927 9.73489 19.5921C14.4729 19.5927 18.3276 15.738 18.327 11C18.326 6.2632 14.4717 2.40732 9.73489 2.40796ZM9.73489 3.3502C13.9809 3.34963 17.416 6.78614 17.4168 11.0321C17.4174 15.2792 13.9819 18.7037 9.73489 18.7032C5.48784 18.7037 2.05241 15.2792 2.05298 11.0321C2.05387 6.78614 5.48889 3.34963 9.73489 3.3502Z" fill="black"/>
</svg>
