<svg width="30" height="16" viewBox="0 0 30 16" fill="none" xmlns="http://www.w3.org/2000/svg">
<path d="M2.24046 16V8.28154C2.24046 4.98353 4.85163 2.3013 8.0635 2.3013C11.2745 2.3013 13.8865 4.98446 13.8865 8.28154V16H16.127V8.28154C16.127 3.70852 12.5165 0.000924586 8.0635 0.000924586C3.61053 0.000924586 0 3.70852 0 8.28154V16H2.24046ZM21.9356 0.000924586C19.9215 -0.00136348 17.9802 0.772539 16.4968 2.16908C16.9514 2.82647 17.3266 3.53193 17.6197 4.27067C18.1643 3.65042 18.8301 3.15449 19.5738 2.81505C20.3174 2.47562 21.1224 2.30026 21.9365 2.30038C25.1475 2.30038 27.7595 4.98353 27.7595 8.27969V15.9982H30V8.27969C30 3.7076 26.3895 0 21.9365 0L21.9356 0.000924586Z" fill="black"/>
</svg>
