<svg preserveAspectRatio="none" width="100%" height="100%" overflow="visible" style="display: block;" viewBox="0 0 25 24.6472" fill="none" xmlns="http://www.w3.org/2000/svg">
<g id="Group 3">
<path id="Vector" d="M12.113 0.00601752C12.1582 0.00429035 12.2033 0.00288674 12.2485 0.00180671C14.7533 -0.0403997 17.2147 0.65771 19.3243 2.00863C20.0284 2.47374 20.6877 3.00346 21.2934 3.59092C23.6023 5.82356 24.9342 8.8791 24.9978 12.0903C25.0579 15.2451 23.8795 18.2978 21.7153 20.594C21.2291 21.1074 20.7063 21.5849 20.1509 22.0224C18.1035 23.6024 15.4685 24.5858 12.8777 24.6394C12.1098 24.673 11.1441 24.5956 10.3889 24.4621C4.75675 23.4651 0.317358 18.7661 0.0168696 12.9714C-0.154993 9.71505 0.991959 6.52669 3.19885 4.12601C5.53641 1.53869 8.65422 0.186214 12.113 0.00601752Z" fill="var(--fill-0, black)"/>
<path id="Vector_2" d="M12.1583 1.5142L12.4131 1.49966C11.7442 2.18226 12.2689 2.92149 12.6048 3.61457C12.1504 3.97231 11.0832 4.3468 10.5193 4.53754C8.75287 5.13503 7.20598 6.21475 6.0857 7.70956C4.90884 9.27987 4.27844 11.1363 4.20343 13.0909C4.18365 13.6063 4.15888 14.107 4.23352 14.6254C4.00218 14.4707 3.8076 14.365 3.58456 14.1905C3.55246 14.1657 3.52111 14.1399 3.49053 14.1132C2.7692 13.482 2.45602 12.452 2.39786 11.5234C2.25173 9.18973 3.16577 6.80052 4.70757 5.06227C6.62169 2.93743 9.3022 1.66094 12.1583 1.5142Z" fill="var(--fill-0, #FEFEFE)"/>
<path id="Vector_3" d="M11.8062 23.4369C15.3418 23.1096 18.4208 21.5517 20.6894 18.8151C22.3504 16.8114 23.5538 14.1857 23.6764 11.5666C23.6838 11.4055 23.6832 11.1943 23.7094 11.0413C24.7538 16.7246 20.6533 22.4767 15.0009 23.436C14.078 23.5928 12.7599 23.6212 11.8295 23.5023L11.8062 23.4369Z" fill="var(--fill-0, #FEFEFE)"/>
<path id="Vector_4" d="M19.0724 3.03317C19.1451 3.06358 19.323 3.23304 19.3902 3.28914C21.6347 5.16356 21.9745 7.53588 19.9611 9.75884C18.5542 11.3121 17.1976 12.0536 15.3156 12.9297C15.0191 13.0645 14.7638 13.1869 14.4472 13.2713C14.7266 13.0884 15.0657 12.9358 15.3617 12.7707C18.2323 11.169 21.3288 7.49347 19.6833 4.03386C19.6043 3.86855 19.5144 3.70864 19.4143 3.55517C19.3281 3.42534 19.1143 3.15932 19.0724 3.03317Z" fill="var(--fill-0, #FEFEFE)"/>
</g>
</svg>
