<svg preserveAspectRatio="none" width="100%" height="100%" overflow="visible" style="display: block;" viewBox="0 0 30 29" fill="none" xmlns="http://www.w3.org/2000/svg">
<g id="image 11 [Vectorized]" clip-path="url(#clip0_0_83)">
<path id="Vector" d="M12.6485 29C11.5766 28.7586 10.6954 28.5632 9.65814 28.1786C6.62087 27.0273 4.04617 24.959 2.31444 22.2793C0.222542 19.0182 -0.450043 15.0855 0.44424 11.3442C1.36017 7.56389 3.78683 4.29113 7.19057 2.24565C10.5383 0.240944 14.567 -0.400343 18.3998 0.461361C22.2946 1.35134 25.6651 3.70535 27.77 7.0055C29.8417 10.2728 30.5002 14.2008 29.6025 17.9363C28.666 21.7265 26.2152 25.0007 22.7892 27.0383C20.9174 28.1528 19.4633 28.5279 17.3872 29H12.6485Z" fill="var(--fill-0, #1CBD43)"/>
<path id="Vector_2" d="M13.9198 1.33495C21.4911 0.741502 28.1228 6.21726 28.726 13.5602C29.3292 20.9033 23.6752 27.3282 16.1026 27.9048C8.54222 28.4803 1.93015 23.0081 1.3279 15.677C0.725653 8.3459 6.36094 1.92744 13.9198 1.33495Z" fill="var(--fill-0, #F7F6F6)"/>
<path id="Vector_3" d="M17.4548 10.6217C18.3331 9.39871 19.2758 8.32226 19.938 6.96209C20.2679 6.28438 20.0575 4.35075 21.0242 4.45552C21.9319 5.0631 20.9308 7.70175 20.4181 8.38605C20.3155 8.52292 20.2226 8.69495 20.129 8.83927C23.3946 9.98277 24.5554 8.1333 25.2257 8.24862C25.4268 8.36333 25.5033 8.39504 25.6102 8.59681C25.703 9.1741 24.8032 9.59992 24.3445 9.80434C22.7741 10.504 21.0413 10.3306 19.4639 9.74148C18.0832 11.5509 17.3594 12.5405 17.0391 14.8357C18.4372 14.2205 19.7314 13.5392 20.2643 12.0537C20.4626 11.5011 20.3595 10.8107 21.0782 10.6964C21.9276 10.9739 21.3841 12.3027 21.1284 12.8418C20.7291 13.6836 20.1943 14.2305 19.446 14.7811C21.3075 15.4928 23.2193 15.2836 24.9507 14.3218C25.1818 14.1934 26.7153 12.896 26.5576 14.3667C26.5262 14.6595 26.0416 14.9213 25.7823 15.084C24.7538 15.7292 23.6949 16.0667 22.4841 16.2181C23.1713 17.7426 24.1195 17.8587 25.6837 18.0573C26.0387 18.1024 26.6953 18.1031 26.7554 18.549C26.8507 19.2556 25.7735 19.1801 25.315 19.1225C23.4625 18.8663 21.8247 18.2046 21.4194 16.2817C20.2599 16.1749 19.3258 16.0049 18.314 15.4139C17.9492 15.6553 17.3534 15.8652 16.9426 16.0137C17.2348 18.814 18.3826 20.7151 20.5138 22.6305C20.8835 22.9628 22.1059 23.6075 21.8212 24.1579C21.384 25.0029 20.1734 23.7657 19.7605 23.4044C18.0855 21.9388 17.0173 20.3552 16.2459 18.3193C16.1079 18.9297 15.6755 20.5995 15.2041 20.9653C14.4081 21.1603 13.9499 18.854 13.7875 18.3064C13.2577 20.0837 11.9812 21.8266 10.6095 23.1081C10.3579 23.3432 9.02563 24.5997 8.65498 24.4609C7.37577 23.9817 8.95084 23.1188 9.42213 22.7321C11.5435 20.8615 12.8854 18.8115 13.0987 16.0084C12.6664 15.8844 12.1155 15.6351 11.7275 15.4119C10.7097 15.9986 9.83101 16.1831 8.65682 16.2673C8.44685 17.0451 8.21092 17.5402 7.57309 18.1085C6.96079 18.654 3.33918 19.9431 3.28424 18.5474C3.78913 17.588 6.49833 18.6891 7.56859 16.2235C6.58601 16.127 3.21358 15.2231 3.49374 13.927C3.98 13.2571 4.72641 14.1473 5.25234 14.4111C7.09247 15.3342 8.66532 15.4295 10.6201 14.8005C10.3726 14.6104 10.1398 14.4164 9.90606 14.211C9.22595 13.6133 7.93899 11.4786 8.81929 10.7287C9.62873 10.5102 9.61864 11.6166 9.81869 12.1296C10.3884 13.5908 11.6272 14.215 13.0193 14.8293C12.595 12.4803 12.0977 11.6523 10.5798 9.74622C10.374 9.82294 10.1662 9.89423 9.95647 9.96005C8.47657 10.4115 6.85546 10.389 5.42946 9.67732C5.02803 9.47703 3.63935 8.60278 4.93593 8.25207C5.19781 8.18126 6.50093 9.11413 7.09165 9.17459C8.20559 9.28868 8.86748 9.12841 9.92415 8.85645C9.18106 7.67774 8.62621 6.51281 8.65656 5.06107C8.66272 4.76511 8.78615 4.67143 9.01395 4.4845C9.79533 4.50815 9.73984 4.97721 9.79514 5.57915C9.97742 7.5626 11.494 9.03433 12.5895 10.6284C12.9208 9.68261 13.0862 8.49873 12.9926 7.50158C12.965 7.20684 12.76 6.66501 12.8546 6.39065C12.8989 6.26523 12.992 6.16155 13.1139 6.10168C13.6965 5.80927 13.8686 6.45105 13.9396 6.84259C14.2507 8.55925 13.9012 10.1538 13.2643 11.7551C14.1499 13.725 14.463 16.5102 15.0552 18.653C15.1669 17.8757 15.4044 16.9375 15.5722 16.1577C15.9127 14.5749 16.1501 13.2509 16.7865 11.7512C16.0775 10.2177 15.7442 7.94736 16.2674 6.32711C16.3019 6.2201 16.4767 6.07389 16.5896 6.06166C17.6445 5.94738 17.0133 7.37887 17.0296 7.90173C17.0044 8.87166 17.1942 9.72682 17.4548 10.6217Z" fill="var(--fill-0, #1BBC43)"/>
<path id="Vector_4" d="M24.3943 10.8472C25.1086 10.8149 25.3135 10.8718 25.9889 11.1134C25.342 11.8339 24.9309 12.119 23.9445 12.2992C23.2623 12.3267 23.0339 12.2647 22.3847 12.0462C22.9797 11.2887 23.4296 11.0412 24.3943 10.8472Z" fill="var(--fill-0, #1ABA42)"/>
<path id="Vector_5" d="M5.03699 10.8458C6.21281 10.7479 6.95946 11.2075 7.66985 12.0393C7.30415 12.1748 7.11101 12.2165 6.73045 12.2959C5.56284 12.389 4.77407 11.9572 4.07637 11.1093C4.45185 10.9725 4.64414 10.927 5.03699 10.8458Z" fill="var(--fill-0, #1ABA42)"/>
<path id="Vector_6" d="M14.2023 10.8634C14.6083 11.0628 14.7661 11.2526 15.0294 11.591C15.2514 11.3096 15.4043 11.0283 15.7861 11.0081C16.2199 11.3381 16.0073 12.0923 15.8183 12.5185C15.6078 12.8656 15.3518 13.047 15.0222 13.2661C14.0461 12.6315 13.8315 11.9359 14.2023 10.8634Z" fill="var(--fill-0, #1ABA42)"/>
<path id="Vector_7" d="M14.9999 3.60358C15.716 3.82223 15.7306 5.63725 15.3216 6.13527C15.2157 6.26418 15.1266 6.42143 15.0176 6.55689C14.0911 5.86239 14.413 4.425 14.9999 3.60358Z" fill="var(--fill-0, #1ABA42)"/>
<path id="Vector_8" d="M25.1026 16.1419C25.9559 16.0706 26.2681 16.1388 26.9863 16.5604C26.5362 16.9174 26.335 17.0206 25.8041 17.1897C25.0314 17.3394 24.5306 17.1615 23.888 16.8014C24.3328 16.4275 24.5379 16.3084 25.1026 16.1419Z" fill="var(--fill-0, #1ABA42)"/>
<path id="Vector_9" d="M3.95309 16.1473C4.92765 16.0632 5.42084 16.1551 6.15521 16.8116C5.82626 17.0012 5.66168 17.0558 5.30584 17.1804C4.41172 17.3575 3.74341 17.1251 3.07608 16.5486C3.4286 16.3474 3.56946 16.2851 3.95309 16.1473Z" fill="var(--fill-0, #1ABA42)"/>
<path id="Vector_10" d="M6.17132 6.50215C7.51691 6.56496 8.14471 7.27302 8.48768 8.4499C7.24498 8.46233 6.41008 7.63402 6.17132 6.50215Z" fill="var(--fill-0, #1ABA42)"/>
<path id="Vector_11" d="M23.491 6.53541C23.7403 6.53997 23.7002 6.50069 23.8452 6.64051C23.8652 6.72246 23.8681 6.80041 23.8339 6.87836C23.4706 7.70637 22.8331 8.20916 21.9585 8.43205C21.7587 8.44307 21.7189 8.43537 21.6076 8.30213C21.587 8.12659 21.6838 7.89915 21.7845 7.75969C22.2881 7.06203 22.6551 6.74026 23.491 6.53541Z" fill="var(--fill-0, #1ABA42)"/>
<path id="Vector_12" d="M19.3085 16.4503C20.3721 16.829 20.45 18.2913 20.1044 19.1896C19.8357 19.099 19.4655 18.6838 19.353 18.4338C19.0201 17.6939 19.0627 17.1736 19.3085 16.4503Z" fill="var(--fill-0, #1ABA42)"/>
<path id="Vector_13" d="M10.6813 16.4176C10.8676 16.6251 10.9871 17.1909 10.9639 17.4635C10.896 18.2624 10.5764 18.691 10.0089 19.1981C9.79433 18.9888 9.69681 18.4118 9.71795 18.1249C9.77293 17.3808 10.1385 16.8954 10.6813 16.4176Z" fill="var(--fill-0, #1ABA42)"/>
<path id="Vector_14" d="M7.26911 13.3079C8.2308 13.2724 9.21364 13.5681 9.5029 14.5727C8.50641 14.7125 7.56002 14.2878 7.26911 13.3079Z" fill="var(--fill-0, #1ABA42)"/>
<path id="Vector_15" d="M21.9831 13.314C22.2328 13.299 22.5833 13.3073 22.8413 13.3055C22.8127 13.3612 22.7832 13.4165 22.753 13.4713C22.3799 14.1452 22.0432 14.3749 21.3239 14.5863C21.1153 14.6049 20.9145 14.6438 20.7246 14.5663C20.6095 14.4307 20.6334 14.4951 20.6532 14.2922C20.936 13.7958 21.4567 13.5077 21.9831 13.314Z" fill="var(--fill-0, #1ABA42)"/>
<path id="Vector_16" d="M10.8664 4.76781C11.8296 5.23305 11.9745 6.18648 11.7187 7.10549C10.7857 6.68194 10.6135 5.64666 10.8664 4.76781Z" fill="var(--fill-0, #1ABA42)"/>
<path id="Vector_17" d="M19.0932 4.78187L19.1808 4.83543C19.6759 5.61138 19.0345 6.58527 18.4224 7.09754C18.2082 6.98893 18.1605 6.40943 18.1997 6.20224C18.315 5.59158 18.5862 5.15896 19.0932 4.78187Z" fill="var(--fill-0, #1ABA42)"/>
<path id="Vector_18" d="M21.0976 18.1004C21.3845 18.186 21.6432 18.3431 21.848 18.5559C22.2392 18.9698 22.2846 19.3867 22.2599 19.9127C21.3868 19.6155 20.9958 18.9749 21.0976 18.1004Z" fill="var(--fill-0, #1ABA42)"/>
<path id="Vector_19" d="M23.0073 18.98C23.9612 19.1418 24.2068 20.0251 24.1899 20.8296C23.3057 20.3563 23.0003 19.9806 23.0073 18.98Z" fill="var(--fill-0, #1ABA42)"/>
<path id="Vector_20" d="M8.76159 18.1377L8.9459 18.1707C9.27116 18.7428 8.49886 19.54 8.03272 19.836C7.96573 19.8481 7.89919 19.8289 7.83088 19.8157C7.53577 19.2348 8.27792 18.4309 8.76159 18.1377Z" fill="var(--fill-0, #1ABA42)"/>
<path id="Vector_21" d="M6.84257 19.0053L7.00219 19.0422C7.31056 19.6679 6.51509 20.4532 6.00133 20.7596L5.8845 20.7216C5.54562 20.1425 6.36106 19.2979 6.84257 19.0053Z" fill="var(--fill-0, #1ABA42)"/>
</g>
<defs>
<clipPath id="clip0_0_83">
<rect width="30" height="29" fill="white"/>
</clipPath>
</defs>
</svg>
