<svg preserveAspectRatio="none" width="100%" height="100%" overflow="visible" style="display: block;" viewBox="0 0 28.0004 28.0004" fill="none" xmlns="http://www.w3.org/2000/svg">
<g id="Group">
<path id="Vector" d="M14.0002 0C6.26814 0 0 6.26814 0 14.0002C0 21.7322 6.26814 28.0004 14.0002 28.0004C21.7322 28.0004 28.0004 21.7322 28.0004 14.0002C28.0004 6.26814 21.7322 0 14.0002 0ZM14.0002 25.4188C7.70402 25.4188 2.5816 20.2963 2.5816 14.0002C2.5816 7.70402 7.70366 2.5816 14.0002 2.5816C20.2967 2.5816 25.4188 7.70402 25.4188 14.0002C25.4188 20.2963 20.2963 25.4188 14.0002 25.4188Z" fill="var(--fill-0, white)"/>
<path id="Vector_2" d="M15.314 12.686H12.686V15.314H15.314V12.686Z" fill="var(--fill-0, white)"/>
<path id="Vector_3" d="M15.314 8.53653H12.686V11.1646H15.314V8.53653Z" fill="var(--fill-0, white)"/>
<path id="Vector_4" d="M15.314 4.38745H12.686V7.01552H15.314V4.38745Z" fill="var(--fill-0, white)"/>
</g>
</svg>
