<svg width="22" height="30" viewBox="0 0 22 30" fill="none" xmlns="http://www.w3.org/2000/svg">
<path d="M15.9977 0C15.7999 0.846174 15.6107 1.69967 15.4131 2.5462C15.3231 2.93215 15.2618 3.3347 15.1751 3.71674L14.7462 5.65098C14.6442 6.10993 14.5488 6.45448 14.4736 6.92487L21.0703 6.92472C20.9162 7.16128 20.6781 7.44996 20.5016 7.67696C20.0699 8.23239 19.6053 8.8062 19.1577 9.34881C18.8338 9.7415 18.202 10.6594 17.8601 10.9639C17.3692 10.9748 16.8707 10.9739 16.3794 10.9701C14.8842 10.9585 13.3829 10.9879 11.8883 10.9641L12.5707 7.78144C12.7238 7.07891 12.8792 6.45561 13.0168 5.7293L8.33 10.8858L7.10322 12.2342C6.88285 12.4772 6.58606 12.8244 6.35076 13.0387C8.162 13.006 10.0432 13.0304 11.8576 13.0308L13.8675 13.0304C14.7838 13.0294 15.5662 12.9882 16.4688 13.2232C18.3766 13.72 19.8523 15.6106 19.8886 17.5837C19.9062 18.8413 19.4255 20.0546 18.5516 20.9587C17.6999 21.845 16.5275 22.3511 15.2986 22.3628C14.4112 22.3728 13.5164 22.3561 12.6286 22.3628C12.2403 22.3659 11.7834 22.3493 11.4003 22.3683C10.96 22.8061 10.4204 23.4363 10.0037 23.903L8.02291 26.0943L6.13474 28.1648C5.77928 28.5537 5.42033 28.9191 5.0902 29.3304C5.24833 28.7648 5.33013 28.137 5.46724 27.568C5.88252 25.8443 6.26437 24.1054 6.60663 22.3657L2.43033 22.3633C1.683 22.3633 0.736304 22.3389 0 22.3798C0.6115 21.5424 1.3387 20.6746 1.98802 19.8617C2.31943 19.447 2.869 18.6739 3.23091 18.3193L9.23017 18.3183C8.9125 19.6274 8.63317 20.945 8.35326 22.263C8.26241 22.6911 8.12146 23.1296 8.058 23.5541C8.39898 23.2307 8.78622 22.7828 9.10463 22.4283L10.2944 21.1152L12.7894 18.3722C13.4064 17.6893 14.091 16.8991 14.7242 16.2337C14.4703 16.2683 14.0162 16.2533 13.7351 16.2579C13.6266 16.3364 12.7129 16.3218 12.5131 16.3232L10.1425 16.326L7.0353 16.3227C6.57661 16.3217 6.10567 16.3329 5.64737 16.3227C5.56283 16.3208 5.37054 16.262 5.29685 16.2035C5.02317 16.1378 4.73811 16.1067 4.46891 16.0221C3.39424 15.6804 2.48035 14.9599 1.89735 13.9946C1.24191 12.9281 1.04472 11.6422 1.35043 10.4284C1.76933 8.69544 3.30409 7.28707 5.05926 6.97783C5.55954 6.88968 6.10802 6.93667 6.61389 6.92222C7.6167 6.89902 8.70422 6.95778 9.6963 6.92017C9.92072 6.70485 10.1438 6.43424 10.3525 6.19846L11.2929 5.15263L13.992 2.19307C14.6633 1.44991 15.2983 0.723304 15.9977 0Z" fill="black"/>
</svg>
