<svg preserveAspectRatio="none" width="100%" height="100%" overflow="visible" style="display: block;" viewBox="0 0 16.5391 17.6099" fill="none" xmlns="http://www.w3.org/2000/svg">
<g id="Group 1">
<path id="Vector" d="M10.792 0C10.7695 0.66082 10.7929 1.44535 10.7947 2.11809L10.7919 5.67582C10.7905 8.21766 10.744 10.9162 10.799 13.446C10.8024 13.4567 10.8458 13.5945 10.8458 13.5945C12.2548 14.5636 13.6681 15.5323 15.0645 16.5193C15.5251 16.845 16.1223 17.239 16.5391 17.6099C16.0981 17.4077 15.5607 17.2921 15.0857 17.1715C14.3494 16.9868 13.6119 16.8068 12.8733 16.6315L5.54316 14.8518L1.88984 13.9586C1.45574 13.8504 0.933438 13.6357 0.53129 13.5958C0.354649 13.5729 0.177383 13.5584 0 13.5425C0.607187 12.8695 1.60402 11.5552 2.18559 10.818L5.66699 6.44309L8.95406 2.32141C9.47402 1.67305 10.3418 0.657461 10.792 0Z" fill="var(--fill-0, black)"/>
<path id="Vector_2" d="M10.799 13.446C10.8023 13.4567 10.8458 13.5945 10.8458 13.5945C12.2548 14.5636 13.6681 15.5323 15.0644 16.5193C15.5251 16.845 16.1223 17.239 16.539 17.6099C16.098 17.4077 15.5607 17.2921 15.0857 17.1715C14.3494 16.9868 13.6119 16.8068 12.8732 16.6315L5.54312 14.8518L1.8898 13.9586C1.4557 13.8504 0.933398 13.6358 0.53125 13.5958C3.80953 13.5225 7.14336 13.5571 10.4279 13.55C10.5336 13.5498 10.6645 13.5824 10.7636 13.5564L10.799 13.446Z" fill="var(--fill-0, #9E6F08)"/>
</g>
</svg>
